<?xml version="1.0" encoding="utf-8"?>
<!DOCTYPE svg PUBLIC "-//W3C//DTD SVG 1.1//EN" "http://www.w3.org/Graphics/SVG/1.1/DTD/svg11.dtd">
<svg xmlns="http://www.w3.org/2000/svg" xmlns:xlink="http://www.w3.org/1999/xlink" version="1.1" baseProfile="full" width="76" height="76" viewBox="0 0 76.00 76.00" enable-background="new 0 0 76.00 76.00" xml:space="preserve">
	<path fill="#000000" fill-opacity="1" stroke-linejoin="round" d="M 38,29C 42.9706,29 47,33.0294 47,38C 47,42.9706 42.9706,47 38,47C 33.0294,47 29,42.9706 29,38C 29,33.0294 33.0294,29 38,29 Z M 38,19C 39.8461,19 41.6307,19.2633 43.3183,19.7544L 40.9973,24.3216C 40.0316,24.111 39.0288,24 38,24C 37.2078,24 36.431,24.0658 35.6748,24.1922L 33.5795,19.5169C 34.998,19.1789 36.4781,19 38,19 Z M 38,57C 36.1539,57 34.3693,56.7367 32.6816,56.2456L 35.0027,51.6784C 35.9683,51.889 36.9712,52 38,52C 38.7921,52 39.5689,51.9342 40.3252,51.8078L 42.4204,56.4831C 41.002,56.8211 39.5219,57 38,57 Z M 45.288,20.448C 48.3552,21.723 51.0164,23.7786 53.0235,26.3669L 48.4622,28.697C 47.2785,27.3668 45.8449,26.2638 44.235,25.4617L 45.288,20.448 Z M 54.2112,28.0854C 55.8856,30.8173 56.8888,34.005 56.9913,37.4191L 51.9332,36.6234C 51.7549,34.7971 51.2257,33.0736 50.4139,31.5213L 54.2112,28.0854 Z M 52.4368,50.3528C 50.3115,52.8343 47.5576,54.7614 44.4219,55.8873L 43.6152,50.8284C 45.266,50.1048 46.7505,49.0718 47.9952,47.8029L 52.4368,50.3528 Z M 56.941,39.5079C 56.6749,42.8978 55.5191,46.0376 53.7069,48.694L 50.0822,45.077C 50.9714,43.5621 51.5839,41.8651 51.8502,40.0555L 56.941,39.5079 Z M 30.712,55.552C 27.6447,54.277 24.9836,52.2214 22.9765,49.6331L 27.5377,47.303C 28.7214,48.6333 30.1551,49.7363 31.7649,50.5384L 30.712,55.552 Z M 21.7888,47.9146C 20.1144,45.1827 19.1112,41.995 19.0087,38.5809L 24.0668,39.3766C 24.245,41.2029 24.7742,42.9264 25.586,44.4787L 21.7888,47.9146 Z M 19.059,36.4921C 19.3251,33.1023 20.4809,29.9624 22.2931,27.306L 25.9178,30.9231C 25.0285,32.438 24.4161,34.1349 24.1498,35.9445L 19.059,36.4921 Z M 23.5632,25.6472C 25.6884,23.1658 28.4423,21.2387 31.5781,20.1127L 32.3848,25.1716C 30.7339,25.8952 29.2495,26.9282 28.0048,28.1971L 23.5632,25.6472 Z "/>
</svg>
