<?xml version="1.0" encoding="utf-8"?>
<!DOCTYPE svg PUBLIC "-//W3C//DTD SVG 1.1//EN" "http://www.w3.org/Graphics/SVG/1.1/DTD/svg11.dtd">
<svg xmlns="http://www.w3.org/2000/svg" xmlns:xlink="http://www.w3.org/1999/xlink" version="1.1" baseProfile="full" width="76.0106" height="76.0106" viewBox="0 0 76.01 76.01" enable-background="new 0 0 76.01 76.01" xml:space="preserve">
	<path fill="#000000" fill-opacity="1" stroke-width="0.2" stroke-linejoin="round" d="M 34.8382,57.008C 28.7162,57.008 23.7533,52.0451 23.7533,45.9231L 23.7533,22.1698C 23.7533,20.4206 25.1713,19.0027 26.9204,19.0027L 30.0875,19.0027C 31.8367,19.0027 33.2546,20.4206 33.2546,22.1698L 33.2546,29.2959L 49.0901,29.2959C 50.8393,29.2959 52.2573,30.7139 52.2573,32.463L 52.2573,34.0466C 52.2573,35.7957 50.8393,37.2137 49.0901,37.2137L 33.2546,37.2137L 33.2546,44.3395C 33.2546,46.0887 34.6726,47.5066 36.4217,47.5066L 47.5066,47.5066C 50.1303,47.5066 52.2573,49.6336 52.2573,52.2573C 52.2573,54.881 50.1303,57.008 47.5066,57.008L 34.8382,57.008 Z "/>
</svg>
