<?xml version="1.0" encoding="utf-8"?>
<!DOCTYPE svg PUBLIC "-//W3C//DTD SVG 1.1//EN" "http://www.w3.org/Graphics/SVG/1.1/DTD/svg11.dtd">
<svg xmlns="http://www.w3.org/2000/svg" xmlns:xlink="http://www.w3.org/1999/xlink" version="1.1" baseProfile="full" width="76" height="76" viewBox="0 0 76.00 76.00" enable-background="new 0 0 76.00 76.00" xml:space="preserve">
	<path fill="#000000" fill-opacity="1" stroke-width="0.2" stroke-linejoin="round" d="M 17.4167,20.5833L 58.5833,20.5833L 58.5833,53.8333L 45.125,53.8333L 47.5,58.5833L 28.5,58.5833L 30.875,53.8333L 17.4167,53.8333L 17.4167,20.5833 Z M 20.5833,23.75L 20.5833,50.6667L 55.4166,50.6667L 55.4166,23.75L 20.5833,23.75 Z M 23.75,26.9167L 28.5,26.9167L 28.5,31.6667L 23.75,31.6667L 23.75,26.9167 Z M 30.0833,26.9167L 52.25,26.9167L 52.25,31.6667L 30.0833,31.6667L 30.0833,26.9167 Z M 23.75,34.8334L 28.5,34.8334L 28.5,39.5834L 23.75,39.5834L 23.75,34.8334 Z M 30.0833,34.8333L 52.25,34.8333L 52.25,39.5833L 30.0833,39.5833L 30.0833,34.8333 Z M 23.75,42.75L 28.5,42.75L 28.5,47.5L 23.75,47.5L 23.75,42.75 Z M 30.0833,42.75L 52.25,42.75L 52.25,47.5L 30.0833,47.5L 30.0833,42.75 Z "/>
</svg>
