<?xml version="1.0" encoding="utf-8"?>
<!DOCTYPE svg PUBLIC "-//W3C//DTD SVG 1.1//EN" "http://www.w3.org/Graphics/SVG/1.1/DTD/svg11.dtd">
<svg xmlns="http://www.w3.org/2000/svg" xmlns:xlink="http://www.w3.org/1999/xlink" version="1.1" baseProfile="full" width="76" height="76" viewBox="0 0 76.00 76.00" enable-background="new 0 0 76.00 76.00" xml:space="preserve">
	<path fill="#000000" fill-opacity="1" stroke-width="0.2" stroke-linejoin="round" d="M 39.07,29.8956L 36.2317,30.25L 38.23,32.3598L 36.3761,33.61L 34.9816,31.0047L 33.5837,33.61L 31.72,32.3598L 33.7281,30.25L 30.88,29.8956L 31.6183,27.94L 34.24,28.99L 33.82,26.05L 36.13,26.05L 35.71,28.99L 38.312,27.94L 39.07,29.8956 Z M 17,20L 59,20L 59,56L 17,56L 17,20 Z M 20,23L 20,53L 56,53L 56,23L 20,23 Z M 24,51L 30.0833,44.3333L 33.25,47.5L 45.9166,34.8333L 50.6666,39.5833L 54,36L 54,51L 24,51 Z M 26.456,26.7595L 26.9443,26.5354C 25.515,28.6846 25.2556,31.5218 26.5109,33.9854C 27.7661,36.449 30.2139,37.9067 32.7928,38.0137L 32.3244,38.277C 29.144,39.8975 25.252,38.6329 23.6315,35.4525C 22.011,32.272 23.2755,28.3801 26.456,26.7595 Z "/>
</svg>
