<?xml version="1.0" encoding="utf-8"?>
<!DOCTYPE svg PUBLIC "-//W3C//DTD SVG 1.1//EN" "http://www.w3.org/Graphics/SVG/1.1/DTD/svg11.dtd">
<svg xmlns="http://www.w3.org/2000/svg" xmlns:xlink="http://www.w3.org/1999/xlink" version="1.1" baseProfile="full" width="76.0106" height="76.0106" viewBox="0 0 76.01 76.01" enable-background="new 0 0 76.01 76.01" xml:space="preserve">
	<path fill="#000000" fill-opacity="1" stroke-width="0.2" stroke-linejoin="round" d="M 26.9204,20.5862L 49.0908,20.5863L 49.0908,23.7534L 26.9204,23.7533L 26.9204,20.5862 Z M 20.5862,26.9205L 55.4244,26.9204L 55.4244,30.0876L 20.5862,30.0876L 20.5862,26.9205 Z M 25.3369,33.2547L 50.6737,33.2547L 50.6737,36.4218L 25.3369,36.4218L 25.3369,33.2547 Z M 19.0026,39.5889L 57.0075,39.5889L 57.0075,42.756L 19.0026,42.756L 19.0026,39.5889 Z M 26.9204,45.9231L 49.0902,45.9231L 49.0902,49.0902L 26.9204,49.0902L 26.9204,45.9231 Z M 23.7533,52.2573L 52.2573,52.2573L 52.2573,55.4244L 23.7533,55.4244L 23.7533,52.2573 Z "/>
</svg>
