<?xml version="1.0" encoding="utf-8"?>
<!DOCTYPE svg PUBLIC "-//W3C//DTD SVG 1.1//EN" "http://www.w3.org/Graphics/SVG/1.1/DTD/svg11.dtd">
<svg xmlns="http://www.w3.org/2000/svg" xmlns:xlink="http://www.w3.org/1999/xlink" version="1.1" baseProfile="full" width="76" height="76" viewBox="0 0 76.00 76.00" enable-background="new 0 0 76.00 76.00" xml:space="preserve">
	<path fill="#000000" fill-opacity="1" stroke-width="0.2" stroke-linejoin="round" d="M 20.5833,55.4167L 49.0833,55.4167L 45.9167,52.25L 25.3333,52.25L 31.6667,49.0833L 25.3333,42.75L 22.1667,49.875C 22.1667,49.875 15.8333,55.4167 20.5833,55.4167 Z M 36.4166,47.5L 26.9166,38L 26.9166,41.1667L 33.25,47.5L 36.4166,47.5 Z M 28.8958,37.6042L 36.8125,45.5209C 38.3958,47.1042 42.75,42.75 42.75,42.75L 31.6666,31.6667C 26.9166,36.4167 28.8958,37.6042 28.8958,37.6042 Z M 44.3333,41.1667L 65.6868,16.8593C 63.2289,13.6452 60.224,10.8717 56.8112,8.67772L 33.25,30.0834L 44.3333,41.1667 Z "/>
</svg>
