<?xml version="1.0" encoding="utf-8"?>
<!DOCTYPE svg PUBLIC "-//W3C//DTD SVG 1.1//EN" "http://www.w3.org/Graphics/SVG/1.1/DTD/svg11.dtd">
<svg xmlns="http://www.w3.org/2000/svg" xmlns:xlink="http://www.w3.org/1999/xlink" version="1.1" baseProfile="full" width="76" height="76" viewBox="0 0 76.00 76.00" enable-background="new 0 0 76.00 76.00" xml:space="preserve">
	<path fill="#000000" fill-opacity="1" stroke-width="0.2" stroke-linejoin="round" d="M 52.5,35C 54.433,35 56,36.567 56,38.5C 56,40.433 54.433,42 52.5,42C 50.567,42 49,40.433 49,38.5C 49,36.567 50.567,35 52.5,35 Z M 55,43C 55,43 58.6383,43 59.8425,50.8074C 59.3006,51.2238 58.6717,51.5933 57.9733,51.9047C 57.8874,50.7147 57.5255,48.0255 56,46.5L 56,52.5797C 55.0114,52.8272 54.1614,52.973 52.5,52.9966L 52.5,52.9985C 50.7339,52.982 49.8618,52.8349 48.8425,52.5797L 48.8426,46.5C 47.3171,48.0255 46.9551,50.7147 46.8693,51.9047C 46.1708,51.5933 45.5419,51.2238 45,50.8074C 46.2042,43 49.8425,43 49.8425,43L 52.5,43L 55,43 Z M 21,30.0001L 55.9999,30.0001L 55.9999,35.6712C 55.1749,34.6518 53.9136,34 52.5,34C 50.0147,34 48,36.0147 48,38.5C 48,39.8813 48.6223,41.1172 49.6019,41.9427C 45.8449,41.6152 44.1301,47.5774 43.4895,50L 21,50L 21,30.0001 Z M 52,28L 37,28C 38,25 39.4999,24.0001 39.4999,24.0001L 50.75,24C 51.3022,24 52,24.6978 52,25.25L 52,28 Z "/>
</svg>
