<?xml version="1.0" encoding="utf-8"?>
<!DOCTYPE svg PUBLIC "-//W3C//DTD SVG 1.1//EN" "http://www.w3.org/Graphics/SVG/1.1/DTD/svg11.dtd">
<svg xmlns="http://www.w3.org/2000/svg" xmlns:xlink="http://www.w3.org/1999/xlink" version="1.1" baseProfile="full" width="76" height="76" viewBox="0 0 76.00 76.00" enable-background="new 0 0 76.00 76.00" xml:space="preserve">
	<path fill="#000000" fill-opacity="1" stroke-width="0.2" stroke-linejoin="round" d="M 42.949,51.2614L 45.7197,53.2403L 45.2663,53.3127L 45.7197,53.6365C 41.2961,54.3514 37.9519,54.6224 35.4618,54.6044C 28.0841,54.6402 27.7874,52.2462 29.2965,51.0458C 29.6436,50.5992 30.227,50.2365 30.8771,50.0739C 30.8771,53.2403 38.1994,52.053 42.949,51.2614 Z M 43.9384,45.7202L 46.3132,47.3035C 41.1667,49.0833 38.0121,49.1888 35.2059,49.171C 27.6747,49.2012 26.6533,47.0538 28.0639,46.0802C 28.2773,45.7447 28.7165,45.4687 29.2939,45.3244C 30.0855,48.4908 36.4183,46.9076 43.9384,45.7202 Z M 48.2923,48.4908C 48.2923,48.4908 50.7063,46.9336 52.5222,45.1811C 53.2571,44.4185 53.8398,43.6386 54.0312,42.9495C 55.0208,39.3872 49.4796,39.3872 49.4796,39.3872C 49.869,39.2456 57,36.4167 56.5031,42.0053C 56.6365,44.6326 54.0883,48.0589 48.4143,48.8041C 48.2446,48.8339 48.1462,48.7253 48.2923,48.4908 Z M 49.0839,21.5763L 48.5667,21.9992L 48.5458,22.1053L 49.0839,21.9724C 47.6268,23.4295 41.3177,26.2632 41.0847,29.758L 41.1679,30.284C 41.666,32.2764 44.2015,33.7204 44.0407,35.8979C 44.1415,37.2596 43.2236,38.8987 39.9805,41.1688L 40.1151,40.7875C 39.9456,40.9125 39.7689,41.0394 39.5846,41.1684L 40.772,37.804C 41.5636,35.4292 37.6056,34.6376 37.6056,31.4712C 37.6056,29.2832 38.6381,27.5459 40.0728,26.188C 43.2804,22.797 49.0839,21.5763 49.0839,21.5763 Z M 42.7511,11.2856C 44.1226,12.8095 44.6433,14.2747 44.5887,15.6784C 44.8268,21.7473 34.0089,26.6901 33.8455,30.2843C 33.9829,33.4637 37.2421,38.2322 38.0015,38.9916L 37.1502,38.297L 38.0015,39.3877C 38.0015,39.3877 37.5384,39.0336 36.8553,38.4397C 37.1801,38.8961 37.4472,39.2289 37.6056,39.3872C 37.6056,39.3872 30.8769,34.2419 30.8769,30.2839C 30.8769,28.7406 31.6712,26.9717 34.0469,24.6565C 35.3566,23.3125 37.2128,21.7808 39.7825,19.9932C 40.1006,19.7719 40.3888,19.539 40.6496,19.2972C 43.6168,16.0969 42.3552,11.6812 42.3552,11.6812C 42.5489,11.8964 42.7255,12.1104 42.886,12.3232C 42.8189,11.9189 42.7511,11.6817 42.7511,11.6817L 42.8661,11.8115L 42.7511,11.2856 Z M 31.6687,38.9916L 30.2158,39.5602C 30.8606,39.449 31.2728,39.3872 31.2728,39.3872C 31.1638,39.4281 31.0555,39.4689 30.948,39.5098L 31.6687,39.3877C 29.4522,40.2189 27.5023,41.0501 27.092,41.6437C 27.7941,42.3837 33.2958,42.3565 48.886,40.5748L 47.9944,41.0269C 48.1585,41.0083 48.3238,40.9895 48.3972,41.0263L 48.886,40.9709C 48.886,40.9709 44.3705,43.8841 33.0899,43.8371C 31.1172,43.841 28.9325,43.7539 26.5232,43.543C 22.5376,42.9025 22.033,42.1852 23.0211,41.5292C 23.653,40.1939 31.6687,38.9916 31.6687,38.9916 Z M 26.1275,54.0319L 25.4579,54.4318C 25.5507,54.429 25.642,54.4276 25.7014,54.4438L 26.1275,54.4281C 26.1275,54.4281 24.1389,55.4719 23.8724,56.4305C 24.0655,57.036 25.2472,57.534 28.5023,57.5942C 49.8755,57.9899 54.6251,54.8235 54.6251,54.8235L 53.9546,55.5481L 54.6251,55.2197C 52.1423,58.3232 46.7393,59.4799 36.8896,59.453C 34.0795,59.4546 30.9001,59.7524 27.3148,59.5731C 18.7625,59.1455 17.602,57.398 19.0916,56.2455C 19.8936,55.105 23.6544,54.0319 26.1275,54.0319 Z M 57.7917,57.9904C 55.238,61.6385 47.6893,62.9925 41.1457,62.9651C 33.3505,62.9807 26.1273,61.9484 26.1273,61.5523C 26.1273,61.5523 45.1251,63.3333 57.7917,57.9904 Z "/>
</svg>
