<?xml version="1.0" encoding="utf-8"?>
<!DOCTYPE svg PUBLIC "-//W3C//DTD SVG 1.1//EN" "http://www.w3.org/Graphics/SVG/1.1/DTD/svg11.dtd">
<svg xmlns="http://www.w3.org/2000/svg" xmlns:xlink="http://www.w3.org/1999/xlink" version="1.1" baseProfile="full" width="76" height="76" viewBox="0 0 76.00 76.00" enable-background="new 0 0 76.00 76.00" xml:space="preserve">
	<path fill="#000000" fill-opacity="1" stroke-linejoin="round" d="M 28.9408,48.083C 30.7435,48.0786 30.6029,47.6411 30.6449,46.6938C 30.6331,45.8004 30.3702,45.1218 30.0375,44.7629C 29.7021,44.4131 29.2248,44.1859 28.8804,44.0755L 28.574,43.9912L 24.5287,43.9912C 24.1218,43.9937 23.8649,44.0773 23.6573,44.1877C 23.4509,44.2988 23.2871,44.4513 23.1485,44.6309C 22.9409,44.8931 22.8168,45.4701 22.7658,45.6328L 22.7658,48.0984L 28.9408,48.083 Z M 22.4101,56.306C 21.6926,55.8749 21.1905,55.2989 20.8552,54.7541C 20.1872,53.6569 20.105,52.6802 20.0885,52.5666L 20.0828,52.5028L 20.0828,45.3388L 20.1064,45.2138C 20.1235,45.1332 20.2158,44.6657 20.5162,44.0572C 20.8162,43.4555 21.3423,42.1827 22.2666,41.6416C 22.8782,41.2831 23.6562,41.0558 24.5287,41.0583L 28.7831,41.0583L 28.8731,41.0704C 28.9563,41.0832 29.5293,41.1632 30.2758,41.4906C 31.0146,41.8165 31.963,42.91 32.6212,43.997C 33.0578,44.7167 33.3313,45.638 33.3285,46.6938C 33.3309,47.7365 33.0778,48.1383 32.6514,48.8433C 32.2283,49.5498 31.6549,50.0381 31.1136,50.3541C 30.0227,50.9836 29.0652,51.0181 28.9467,51.0309L 22.7658,51.0324L 22.7658,51.6006L 22.7861,51.7055C 22.8118,51.8276 22.8605,52.7576 22.9396,52.9519C 23.1016,53.3467 23.3666,53.7522 23.7919,54.0051C 24.0808,54.1756 24.4661,54.3138 25.0965,54.3171L 30.4726,54.3171L 30.4725,56.9996L 25.0793,57C 24.0318,57 23.1217,56.7364 22.4101,56.306 Z M 29.1816,25.7219C 39.0365,26.0845 47.4953,34.3427 48.1761,44.1133L 45.4863,44.1133C 45.1592,40.0728 43.1425,36.1989 40.4388,33.4937C 37.5917,30.6484 33.4783,28.5881 29.1816,28.4051L 29.1816,25.7219 Z M 29.1816,32.6739C 35.4741,33.0222 40.5547,37.9069 41.208,44.1133L 38.5042,44.1133C 38.2025,41.8568 37.1631,39.8404 35.6296,38.3043C 33.9494,36.626 31.6958,35.54 29.1816,35.3641L 29.1816,32.6739 Z M 29.1816,19C 43.3959,19.1734 55.005,30.1578 56.1672,44.1133L 53.4741,44.1133C 52.9278,38.1998 50.3054,32.8968 46.3361,28.9249C 41.9295,24.5201 35.8822,21.7734 29.1816,21.6829L 29.1816,19 Z "/>
</svg>
