<?xml version="1.0" encoding="utf-8"?>
<!DOCTYPE svg PUBLIC "-//W3C//DTD SVG 1.1//EN" "http://www.w3.org/Graphics/SVG/1.1/DTD/svg11.dtd">
<svg xmlns="http://www.w3.org/2000/svg" xmlns:xlink="http://www.w3.org/1999/xlink" version="1.1" baseProfile="full" width="76" height="76" viewBox="0 0 76.00 76.00" enable-background="new 0 0 76.00 76.00" xml:space="preserve">
	<path fill="#000000" fill-opacity="1" stroke-linejoin="round" d="M 23,33C 25.0503,33 26.8124,34.2341 27.584,36L 29.519,36C 31.7188,34.7935 35.8059,29.6155 39.231,29.2468C 39.7351,27.9328 41.0086,27 42.5,27C 44.433,27 46,28.567 46,30.5C 46,32.433 44.433,34 42.5,34C 41.1185,34 39.924,33.1996 39.3548,32.0373C 36.3176,32.3901 34.3757,35.1478 33.2755,36L 52,36L 52,32.75L 59,38L 52,43.25L 52,40L 36.2755,40C 37.4516,40.911 39.5898,44 43,44L 43,42L 50,42L 50,49L 43,49L 43,46.75C 39.4385,47.1952 34.8861,41.2983 32.519,40L 27.584,40C 26.8124,41.7659 25.0503,43 23,43C 20.2386,43 18,40.7614 18,38C 18,35.2386 20.2386,33 23,33 Z "/>
</svg>
