<?xml version="1.0" encoding="utf-8"?>
<!DOCTYPE svg PUBLIC "-//W3C//DTD SVG 1.1//EN" "http://www.w3.org/Graphics/SVG/1.1/DTD/svg11.dtd">
<svg xmlns="http://www.w3.org/2000/svg" xmlns:xlink="http://www.w3.org/1999/xlink" version="1.1" baseProfile="full" width="76.0106" height="76.0106" viewBox="0 0 76.01 76.01" enable-background="new 0 0 76.01 76.01" xml:space="preserve">
	<path fill="#000000" fill-opacity="1" stroke-width="0.2" stroke-linejoin="round" d="M 53.421,59.6495L 50.5024,59.6495L 50.5024,56.8715C 49.4944,56.8191 48.5547,56.6754 47.6834,56.4402C 46.8121,56.2051 46.1164,55.9297 45.5962,55.6141L 46.4632,52.1626C 47.0725,52.5187 47.7864,52.8243 48.6049,53.0794C 49.4234,53.3344 50.3114,53.4679 51.2689,53.4798C 52.1452,53.4754 52.8715,53.312 53.448,52.9896C 54.0245,52.6671 54.3234,52.2118 54.3447,51.6237C 54.3424,51.0643 54.057,50.5816 53.4885,50.1756C 52.92,49.7696 52.0819,49.3841 50.9741,49.0193C 49.4,48.501 48.1453,47.8162 47.2103,46.9649C 46.2752,46.1136 45.7963,44.9723 45.7735,43.541C 45.78,42.1945 46.2125,41.055 47.0711,40.1225C 47.9297,39.19 49.1756,38.5676 50.809,38.2553L 50.809,35.4509L 53.7056,35.4509L 53.7056,38.0487C 54.6754,38.0856 55.5068,38.1963 56.2,38.3807L 57.9655,39.0227L 57.1034,42.3734L 55.5093,41.7145C 54.7988,41.4761 53.8669,41.3463 52.7135,41.325C 51.7691,41.3438 51.1057,41.5235 50.7231,41.8642C 50.3405,42.2049 50.1562,42.5942 50.1699,43.032C 50.1584,43.4992 50.4415,43.927 51.0192,44.3156C 51.597,44.7041 52.5387,45.1245 53.8443,45.5766C 55.5999,46.1909 56.8593,46.9456 57.6226,47.8405C 58.3858,48.7355 58.7587,49.8569 58.741,51.2046C 58.7405,52.5578 58.2962,53.7258 57.408,54.7084C 56.5199,55.691 55.1909,56.3341 53.421,56.6376L 53.421,59.6495 Z M 17.4193,57.008L 17.4193,22.1698L 22.17,22.1698L 22.17,17.4191L 30.0877,17.4191L 30.0877,22.1698L 44.3395,22.1698L 44.3395,17.4191L 52.2573,17.4191L 52.2573,22.1698L 57.008,22.1698L 57.0079,35.8279L 53.8407,33.4533L 53.8408,30.0876L 20.5864,30.0876L 20.5864,53.8409L 44.3397,53.8409L 43.1522,57.008L 17.4193,57.008 Z M 26.1287,19.7944C 25.2541,19.7944 24.5452,20.8579 24.5452,22.1697C 24.5452,23.4816 25.2541,24.5451 26.1287,24.5451C 27.0033,24.5451 27.7123,23.4816 27.7123,22.1697C 27.7123,20.8579 27.0033,19.7944 26.1287,19.7944 Z M 48.2916,19.7914C 47.417,19.7914 46.708,20.8549 46.708,22.1667C 46.708,23.4786 47.417,24.5421 48.2916,24.5421C 49.1662,24.5421 49.8752,23.4786 49.8752,22.1667C 49.8752,20.8549 49.1662,19.7914 48.2916,19.7914 Z M 22.1697,45.9231L 28.5037,45.9231L 28.5037,50.6738L 22.1697,50.6738L 22.1697,45.9231 Z M 30.0873,45.9231L 36.4215,45.9231L 36.4215,50.6738L 30.0873,50.6738L 30.0873,45.9231 Z M 37.9993,45.9161L 44.3335,45.9161L 44.3335,50.6668L 37.9993,50.6668L 37.9993,45.9161 Z M 22.1697,39.5889L 28.5037,39.5889L 28.5037,44.3395L 22.1697,44.3395L 22.1697,39.5889 Z M 30.0873,39.5889L 36.4215,39.5889L 36.4215,44.3395L 30.0873,44.3395L 30.0873,39.5889 Z M 37.9993,39.5819L 44.3335,39.5819L 44.3335,44.3326L 37.9993,44.3326L 37.9993,39.5819 Z M 30.0875,33.2547L 36.4217,33.2547L 36.4217,38.0053L 30.0875,38.0053L 30.0875,33.2547 Z M 37.9995,33.2499L 44.3338,33.2499L 44.3338,38.0006L 37.9995,38.0006L 37.9995,33.2499 Z M 45.9162,33.2499L 50.6671,33.2499L 45.9162,38.0006L 45.9162,33.2499 Z "/>
</svg>
