<?xml version="1.0" encoding="utf-8"?>
<!DOCTYPE svg PUBLIC "-//W3C//DTD SVG 1.1//EN" "http://www.w3.org/Graphics/SVG/1.1/DTD/svg11.dtd">
<svg xmlns="http://www.w3.org/2000/svg" xmlns:xlink="http://www.w3.org/1999/xlink" version="1.1" baseProfile="full" width="76" height="76" viewBox="0 0 76.00 76.00" enable-background="new 0 0 76.00 76.00" xml:space="preserve">
	<path fill="#000000" fill-opacity="1" stroke-width="0.2" stroke-linejoin="round" d="M 22,50C 22,48.8954 22.8954,48 24,48L 26,48L 20.5,38L 28.25,19L 35.75,19L 43.5,38L 38,48L 40,48C 41.1045,48 42,48.8954 42,50L 42,53.5C 42,55.1568 40.1568,57 38.5,57L 25.5,57C 23.8432,57 22,55.1568 22,53.5L 22,50 Z M 32,39C 30.3431,39 29,37.6568 29,36C 29,34.6938 29.8348,33.5825 31,33.1707L 31,22L 30.3947,22L 24.25,38L 29.75,48L 34.25,48L 39.75,38L 33.6052,22L 33,22L 33,33.1707C 34.1652,33.5825 35,34.6938 35,36C 35,37.6568 33.6568,39 32,39 Z M 25,51L 25,52.5C 25,53.3284 25.6716,54 26.5,54L 37.5,54C 38.3284,54 39,53.3284 39,52.5L 39,51L 25,51 Z M 46,57L 46,39.5L 59.5,57L 55.25,57L 49,48.25L 49,57L 46,57 Z "/>
</svg>
