<?xml version="1.0" encoding="utf-8"?>
<!DOCTYPE svg PUBLIC "-//W3C//DTD SVG 1.1//EN" "http://www.w3.org/Graphics/SVG/1.1/DTD/svg11.dtd">
<svg xmlns="http://www.w3.org/2000/svg" xmlns:xlink="http://www.w3.org/1999/xlink" version="1.1" baseProfile="full" width="76" height="76" viewBox="0 0 76.00 76.00" enable-background="new 0 0 76.00 76.00" xml:space="preserve">
	<path fill="#000000" fill-opacity="1" stroke-width="0.2" stroke-linejoin="round" d="M 42,24L 57,24L 57,52L 42,52L 42,50L 47,50L 47,46L 42,46L 42,45L 47,45L 47,41L 42,41L 42,40L 47,40L 47,36L 42,36L 42,35L 47,35L 47,31L 42,31L 42,30L 47,30L 47,26L 42,26L 42,24 Z M 54.9995,50.0005L 54.9997,46.0003L 47.9995,46.0003L 47.9995,50.0005L 54.9995,50.0005 Z M 54.9996,41.0004L 47.9995,41.0004L 47.9995,45.0003L 54.9997,45.0003L 54.9996,41.0004 Z M 54.9996,36.0004L 47.9995,36.0004L 47.9995,40.0004L 54.9996,40.0004L 54.9996,36.0004 Z M 54.9996,31.0004L 47.9995,31.0004L 47.9995,35.0004L 54.9996,35.0004L 54.9996,31.0004 Z M 54.9995,26.0005L 47.9995,26.0005L 47.9995,30.0004L 54.9996,30.0004L 54.9995,26.0005 Z M 18.9997,23.7503L 40.9994,19.7506L 40.9994,56.2506L 18.9997,52.2503L 18.9997,23.7503 Z M 34.6404,44.5147L 31.3367,37.4084L 34.5522,30.4699L 31.9399,30.5805L 30.2234,34.6963L 30.0162,35.3903L 29.8872,35.8892L 29.8596,35.8895C 29.4574,34.1248 28.7481,32.4436 28.1318,30.7417L 25.2803,30.8624L 28.2549,37.4637L 24.997,44.0621L 27.7904,44.1932L 29.5296,39.8757L 29.7578,38.9297L 29.7876,38.93C 30.2317,40.8236 31.1236,42.5844 31.861,44.3843L 34.6404,44.5147 Z "/>
</svg>
