<?xml version="1.0" encoding="utf-8"?>
<!DOCTYPE svg PUBLIC "-//W3C//DTD SVG 1.1//EN" "http://www.w3.org/Graphics/SVG/1.1/DTD/svg11.dtd">
<svg xmlns="http://www.w3.org/2000/svg" xmlns:xlink="http://www.w3.org/1999/xlink" version="1.1" baseProfile="full" width="76" height="76" viewBox="0 0 76.00 76.00" enable-background="new 0 0 76.00 76.00" xml:space="preserve">
	<path fill="#000000" fill-opacity="1" stroke-width="0.2" stroke-linejoin="round" d="M 10.2917,31.6667L 15.8333,31.6667L 15.8333,25.3333C 15.8333,21.8355 18.6689,19 22.1667,19L 28.5,19L 28.5,25.3333L 25.3333,25.3333C 23.5844,25.3333 22.1667,26.7511 22.1667,28.5L 22.1667,31.6667L 28.5,31.6667L 28.5,36.4167L 22.1667,36.4167L 22.1667,57L 15.8333,57L 15.8333,36.4167L 9.5,36.4167L 10.2917,31.6667 Z M 36.9966,29.6878L 31.441,24.1322C 30.8359,23.5271 30.8359,22.5461 31.441,21.941C 32.0461,21.3359 33.0271,21.3359 33.6322,21.941L 39.1878,27.4966C 43.436,24.3117 49.4893,24.651 53.3529,28.5146L 38.0146,43.8529C 34.151,39.9893 33.8117,33.936 36.9966,29.6878 Z M 59.9264,35.0881C 63.79,38.9517 64.1293,45.005 60.9444,49.2532L 68.0833,56.3921L 65.8921,58.5833L 58.7532,51.4444C 54.505,54.6293 48.4517,54.29 44.5881,50.4264L 47.8749,47.1396L 45.1359,44.4007C 44.2283,43.493 44.2283,42.0215 45.1359,41.1139C 46.0435,40.2063 47.5151,40.2063 48.4227,41.1139L 51.1617,43.8529L 53.3529,41.6617L 50.6139,38.9227C 49.7063,38.0151 49.7063,36.5435 50.6139,35.6359C 51.5215,34.7283 52.993,34.7283 53.9007,35.6359L 56.6397,38.3749L 59.9264,35.0881 Z "/>
</svg>
