<?xml version="1.0" encoding="utf-8"?>
<!DOCTYPE svg PUBLIC "-//W3C//DTD SVG 1.1//EN" "http://www.w3.org/Graphics/SVG/1.1/DTD/svg11.dtd">
<svg xmlns="http://www.w3.org/2000/svg" xmlns:xlink="http://www.w3.org/1999/xlink" version="1.1" baseProfile="full" width="76" height="76" viewBox="0 0 76.00 76.00" enable-background="new 0 0 76.00 76.00" xml:space="preserve">
	<path fill="#000000" fill-opacity="1" stroke-width="0.2" stroke-linejoin="round" d="M 40.4309,24.9737L 43.3106,33.0369L 51.324,33.0369C 54.0421,33.0369 56.7602,33.0369 56.9999,33.8388C 57.2396,34.6408 55.0009,36.2447 52.7621,37.8485L 46.0137,42.6833L 48.8529,49.8103C 49.9164,52.4801 50.98,55.1498 50.198,55.7119C 49.416,56.274 46.7885,54.7284 44.161,53.1828L 38,49.5587L 32.277,53.374C 30.0542,54.8559 27.8314,56.3377 27.0995,55.8663C 26.3676,55.3949 27.1266,52.9702 27.8856,50.5454L 30.2761,42.9087L 23.2369,37.8565C 20.9985,36.25 18.7601,34.6434 18.9999,33.8401C 19.2398,33.0369 21.9579,33.0369 24.676,33.0369L 32.6894,33.0369L 35.5691,24.9737C 36.3794,22.7049 37.1897,20.4361 38,20.4361C 38.8103,20.4361 39.6206,22.7049 40.4309,24.9737 Z M 35.5217,36.3413C 35.0655,36.3413 34.6956,36.7111 34.6956,37.1674L 34.6956,42.1239C 34.6956,42.5801 35.0655,42.95 35.5217,42.95C 35.9779,42.95 36.3478,42.5801 36.3478,42.1239L 36.3478,37.1674C 36.3478,36.7111 35.9779,36.3413 35.5217,36.3413 Z M 40.4783,36.3413C 40.022,36.3413 39.6522,36.7111 39.6522,37.1673L 39.6522,42.1239C 39.6522,42.5801 40.022,42.95 40.4783,42.95C 40.9345,42.95 41.3044,42.5801 41.3044,42.1239L 41.3044,37.1673C 41.3044,36.7111 40.9345,36.3413 40.4783,36.3413 Z "/>
</svg>
