<?xml version="1.0" encoding="utf-8"?>
<!DOCTYPE svg PUBLIC "-//W3C//DTD SVG 1.1//EN" "http://www.w3.org/Graphics/SVG/1.1/DTD/svg11.dtd">
<svg xmlns="http://www.w3.org/2000/svg" xmlns:xlink="http://www.w3.org/1999/xlink" version="1.1" baseProfile="full" width="76" height="76" viewBox="0 0 76.00 76.00" enable-background="new 0 0 76.00 76.00" xml:space="preserve">
	<path fill="#000000" fill-opacity="1" stroke-width="0.2" stroke-linejoin="round" d="M 40.375,19C 41.3132,19 42.2347,19.071 43.1347,19.2078C 48.3921,16.9466 52.9585,16.7691 55.4038,19.2144C 57.3966,21.2072 57.6474,24.6088 56.4481,28.6451C 57.8108,31.1976 58.5833,34.1127 58.5833,37.2083L 58.4299,39.5833L 48.9629,39.5833L 44.3333,39.5833L 31.7871,39.5833C 32.478,44.0764 36.06,47.5 40.375,47.5C 43.5983,47.5 46.4126,45.5896 47.9183,42.75L 57.7247,42.75C 55.3802,50.0964 48.4989,55.4167 40.375,55.4167C 38.089,55.4167 35.9013,54.9954 33.8855,54.2262C 27.6664,57.4991 22.0809,58.14 19.2795,55.3386C 14.7646,50.8237 19.1912,39.0769 29.1666,29.1014L 31.226,27.1421C 28.1845,28.733 25.16,31.0377 22.5034,33.7051C 24.1365,25.3251 31.5171,19 40.375,19 Z M 40.375,28.5C 36.5833,28.5 33.3577,31.1436 32.1622,34.8333L 48.5878,34.8333C 47.3923,31.1436 44.1666,28.5 40.375,28.5 Z M 54.3112,21.6817C 53.0106,20.3811 50.844,20.1251 48.183,20.7544C 51.1074,22.1446 53.6025,24.2915 55.4152,26.942C 55.798,24.6783 55.4673,22.8378 54.3112,21.6817 Z M 21.8432,54.1497C 23.7887,56.0951 27.6719,55.7034 32.2489,53.5073C 27.8755,51.3226 24.5044,47.4295 23.0102,42.7025C 20.3615,47.7273 19.7518,52.0582 21.8432,54.1497 Z "/>
</svg>
