<?xml version="1.0" encoding="utf-8"?>
<!DOCTYPE svg PUBLIC "-//W3C//DTD SVG 1.1//EN" "http://www.w3.org/Graphics/SVG/1.1/DTD/svg11.dtd">
<svg xmlns="http://www.w3.org/2000/svg" xmlns:xlink="http://www.w3.org/1999/xlink" version="1.1" baseProfile="full" width="76" height="76" viewBox="0 0 76.00 76.00" enable-background="new 0 0 76.00 76.00" xml:space="preserve">
	<path fill="#000000" fill-opacity="1" stroke-linejoin="round" d="M 34,39.1716L 34,22.4583L 28,28.0833L 28,22.5833L 36,15.0833L 44,22.5833L 44,28.0833L 38,22.4583L 38,38L 54.625,38L 49,32L 54.5,32L 62,40L 54.5,48L 49,48L 54.625,42L 36.8284,42L 25.8284,53L 34,53L 30,57L 19,57L 19,46L 23,42L 23,50.1716L 34,39.1716 Z M 40.2533,47.5333L 37.8,52.345L 37.8,55L 36.0933,55L 36.0933,52.375L 33.7467,47.5333L 35.6683,47.5333L 36.8633,50.3183L 37.0333,50.9283L 37.055,50.9283L 37.22,50.34L 38.4717,47.5333L 40.2533,47.5333 Z M 48.52,37L 46.49,37L 45.1817,34.5683L 45.0283,34.0683L 45.0067,34.0683L 44.8317,34.59L 43.5183,37L 41.48,37L 43.9,33.2667L 41.6933,29.5333L 43.7717,29.5333L 44.855,31.7717L 45.0817,32.4017L 45.1033,32.4017L 45.3383,31.7517L 46.5317,29.5333L 48.4133,29.5333L 46.1783,33.235L 48.52,37 Z M 32.04,38L 25.96,38L 25.96,37.015L 29.835,31.92L 26.28,31.92L 26.28,30.5333L 32.04,30.5333L 32.04,31.4883L 28.2483,36.6133L 32.04,36.6133L 32.04,38 Z "/>
</svg>
