<?xml version="1.0" encoding="utf-8"?>
<!DOCTYPE svg PUBLIC "-//W3C//DTD SVG 1.1//EN" "http://www.w3.org/Graphics/SVG/1.1/DTD/svg11.dtd">
<svg xmlns="http://www.w3.org/2000/svg" xmlns:xlink="http://www.w3.org/1999/xlink" version="1.1" baseProfile="full" width="76" height="76" viewBox="0 0 76.00 76.00" enable-background="new 0 0 76.00 76.00" xml:space="preserve">
	<path fill="#000000" fill-opacity="1" stroke-width="0.2" stroke-linejoin="round" d="M 29.6875,38L 34.4142,35.1127L 34.7719,30.8206L 34.3056,30.6111C 32.1944,29.5556 31.1389,27.4444 30.0833,25.3333L 36.0208,25.3333L 36.1528,22.1667L 33.25,22.1667L 33.25,19L 36.2847,19L 36.4167,15.8333L 39.5833,15.8333L 39.7153,19L 42.75,19L 42.75,22.1667L 39.8472,22.1667L 39.9792,25.3333L 45.9167,25.3333C 44.8611,27.4444 43.8056,29.5556 41.6944,30.6111L 41.2281,30.8206L 41.5858,35.1127L 46.3125,38L 41.8264,38L 42.75,48.6875L 45.125,49.0833L 45.9167,50.6667L 42.8819,50.6667L 47.5,58.5833L 49.0833,58.5833L 49.0833,60.1667L 26.9167,60.1667L 26.9167,58.5833L 28.5,58.5833L 33.118,50.6667L 30.0833,50.6667L 30.875,49.0833L 33.25,48.6875L 34.1736,38L 29.6875,38 Z "/>
</svg>
