<?xml version="1.0" encoding="utf-8"?>
<!DOCTYPE svg PUBLIC "-//W3C//DTD SVG 1.1//EN" "http://www.w3.org/Graphics/SVG/1.1/DTD/svg11.dtd">
<svg xmlns="http://www.w3.org/2000/svg" xmlns:xlink="http://www.w3.org/1999/xlink" version="1.1" baseProfile="full" width="76" height="76" viewBox="0 0 76.00 76.00" enable-background="new 0 0 76.00 76.00" xml:space="preserve">
	<path fill="#000000" fill-opacity="1" stroke-width="0.2" stroke-linejoin="round" d="M 22,17L 54,17C 56.6233,17 59,19.3767 59,22L 59,54C 59,56.6234 56.6233,59 54,59L 22,59C 19.3766,59 17,56.6234 17,54L 17,22C 17,19.3767 19.3766,17 22,17 Z M 32.3492,49.0833L 35.2403,49.0833L 35.2403,41.1033L 37.3963,41.1033C 39.3812,41.1033 40.7802,40.8925 41.5934,40.4707C 42.4065,40.0489 43.0841,39.3154 43.6262,38.2702C 44.1683,37.2249 44.4393,35.9311 44.4393,34.3887C 44.4393,32.6892 44.1354,31.3 43.5276,30.2209C 42.9198,29.1418 42.1478,28.4376 41.2114,28.1081C 40.6228,27.9049 39.3757,27.8033 37.4702,27.8033L 32.3492,27.8033L 32.3492,49.0833 Z M 35.2403,31.35L 36.9774,31.35C 38.4723,31.35 39.4503,31.4347 39.9117,31.604C 40.373,31.7733 40.7611,32.1066 41.0759,32.6038C 41.3908,33.101 41.5482,33.7129 41.5482,34.4395C 41.5482,35.1538 41.3956,35.7572 41.0903,36.2498C 40.785,36.7424 40.3942,37.0833 39.9178,37.2727C 39.4414,37.462 38.5407,37.5567 37.2156,37.5567L 35.2403,37.5567L 35.2403,31.35 Z M 50.6667,50.6667L 50.6667,52.25L 52.25,52.25C 52.25,52.7778 52.25,53.3056 51.7222,53.5694C 51.1944,53.8333 50.1389,53.8333 49.0833,53.8333C 49.0833,54.3611 49.0833,54.8889 49.6111,55.1528C 50.1389,55.4167 51.1944,55.4167 52.25,55.4167C 52.7778,55.4167 53.3056,55.4167 53.5694,54.8889C 53.8333,54.3611 53.8333,53.3056 53.8333,52.25L 53.8333,50.6667C 53.8333,49.6111 53.8333,48.5556 53.5694,48.0278C 53.3056,47.5 52.7778,47.5 52.25,47.5C 51.1944,47.5 50.1389,47.5 49.6111,47.7639C 49.0833,48.0278 49.0833,48.5556 49.0833,49.0833C 50.1389,49.0833 51.1944,49.0833 51.7222,49.3472C 52.25,49.6111 52.25,50.1389 52.25,50.6667L 50.6667,50.6667 Z "/>
</svg>
