<?xml version="1.0" encoding="utf-8"?>
<!DOCTYPE svg PUBLIC "-//W3C//DTD SVG 1.1//EN" "http://www.w3.org/Graphics/SVG/1.1/DTD/svg11.dtd">
<svg xmlns="http://www.w3.org/2000/svg" xmlns:xlink="http://www.w3.org/1999/xlink" version="1.1" baseProfile="full" width="76" height="76" viewBox="0 0 76.00 76.00" enable-background="new 0 0 76.00 76.00" xml:space="preserve">
	<path fill="#000000" fill-opacity="1" stroke-width="0.2" stroke-linejoin="round" d="M 41.1667,44.3333L 48.2917,44.3333L 50.6667,38L 53.0417,44.3333L 60.0347,44.5312L 54.1206,48.7683L 56.7691,55.4167L 50.6007,51.7882L 45.158,55.4167L 47.2081,48.8673L 41.1667,44.3333 Z M 17.5486,26.9167L 33.3819,26.9167L 33.3819,25.3333C 33.3819,23.5844 34.7997,22.1667 36.5486,22.1667L 47.6319,22.1667C 49.3808,22.1667 52.3819,25.1678 52.3819,26.9167L 52.3819,38.2375L 50.6007,34.0417L 45.9167,42.75L 36.4167,42.75L 44.7869,49.6524L 43.9738,52.25L 17.5486,52.25L 17.5486,26.9167 Z "/>
</svg>
