<?xml version="1.0" encoding="utf-8"?>
<!DOCTYPE svg PUBLIC "-//W3C//DTD SVG 1.1//EN" "http://www.w3.org/Graphics/SVG/1.1/DTD/svg11.dtd">
<svg xmlns="http://www.w3.org/2000/svg" xmlns:xlink="http://www.w3.org/1999/xlink" version="1.1" baseProfile="full" width="76" height="76" viewBox="0 0 76.00 76.00" enable-background="new 0 0 76.00 76.00" xml:space="preserve">
	<path fill="#000000" fill-opacity="1" stroke-width="0.2" stroke-linejoin="round" d="M 39.398,36.138L 39.4351,36.0839L 39.4351,36.138M 51.2177,50.8081L 45.478,50.8081L 45.478,41.6294C 45.478,39.3219 44.6462,37.7487 42.5706,37.7487C 40.983,37.7487 40.0402,38.8102 39.6264,39.8353C 39.4731,40.2018 39.4351,40.7136 39.4351,41.2257L 39.4351,50.8081L 33.6963,50.8081C 33.6963,50.8081 33.7715,35.261 33.6963,33.6519L 39.4351,33.6519L 39.4351,36.0839C 40.1968,34.9152 41.5585,33.2478 44.6074,33.2478C 48.385,33.2478 51.2177,35.6988 51.2177,40.9711M 27.6509,31.3081L 27.6121,31.3081C 25.6872,31.3081 24.4387,29.9912 24.4387,28.3425C 24.4387,26.6607 25.7235,25.3801 27.6872,25.3801C 29.6514,25.3801 30.8585,26.6607 30.8966,28.3425C 30.8966,29.9912 29.6514,31.3081 27.6509,31.3081 Z M 30.5208,50.8081L 24.7794,50.8081L 24.7794,33.6519L 30.5208,33.6519M 54.1939,18.9999L 21.8082,18.9999C 20.2578,18.9999 19,20.2185 19,21.7224L 19,54.2762C 19,55.7797 20.2578,56.9999 21.8082,56.9999L 54.1939,56.9999C 55.7452,56.9999 57,55.7797 57,54.2762L 57,21.7224C 57,20.2185 55.7452,18.9999 54.1939,18.9999 Z "/>
</svg>
