<?xml version="1.0" encoding="utf-8"?>
<!DOCTYPE svg PUBLIC "-//W3C//DTD SVG 1.1//EN" "http://www.w3.org/Graphics/SVG/1.1/DTD/svg11.dtd">
<svg xmlns="http://www.w3.org/2000/svg" xmlns:xlink="http://www.w3.org/1999/xlink" version="1.1" baseProfile="full" width="76" height="76" viewBox="0 0 76.00 76.00" enable-background="new 0 0 76.00 76.00" xml:space="preserve">
	<path fill="#000000" fill-opacity="1" stroke-width="0.2" stroke-linejoin="round" d="M 44.523,57.9421L 44.523,54.53C 45.7135,55.3744 47.1028,55.7967 48.6915,55.7967C 49.6942,55.7967 50.4747,55.5862 51.0328,55.1653C 51.5909,54.7444 51.87,54.1592 51.87,53.4098C 51.87,52.634 51.519,52.0356 50.8171,51.6147C 50.1151,51.1938 49.1506,50.9833 47.9235,50.9833L 46.2967,50.9833L 46.2967,47.9433L 47.8088,47.9433C 50.1785,47.9433 51.3633,47.2031 51.3633,45.7227C 51.3633,44.332 50.4833,43.6367 48.7231,43.6367C 47.5435,43.6367 46.3969,44.0589 45.2833,44.9033L 45.2833,41.5783C 46.5315,40.9239 47.9869,40.5967 49.6494,40.5967C 51.4676,40.5967 52.8833,41.0011 53.8967,41.8099C 54.9095,42.6187 55.4167,43.6683 55.4167,44.9587C 55.4167,47.2546 54.2199,48.6928 51.8265,49.2733L 51.8265,49.3367C 53.0931,49.4924 54.0926,49.9463 54.8249,50.6983C 55.5572,51.4504 55.9233,52.374 55.9233,53.4692C 55.9233,55.1238 55.3124,56.432 54.0906,57.3939C 52.8688,58.3557 51.1813,58.8367 49.0279,58.8367C 47.1807,58.8367 45.6792,58.5385 44.523,57.9421 Z M 42.75,39.5833L 42.75,36.4167L 46.6036,36.4167C 45.8986,31.1249 41.7085,26.9348 36.4166,26.2297L 36.4166,30.0834L 33.25,30.0834L 33.25,26.2297C 27.9581,26.9347 23.768,31.1249 23.0629,36.4167L 26.9166,36.4167L 26.9166,39.5834L 23.0629,39.5834C 23.768,44.8752 27.9581,49.0653 33.25,49.7704L 33.25,45.9167L 36.4166,45.9167L 36.4166,49.7704C 38.7717,49.4566 40.9085,48.4526 42.6171,46.9684L 43.6614,51.1457C 41.1392,52.8429 38.1019,53.8333 34.8333,53.8333C 26.0888,53.8333 19,46.7445 19,38C 19,29.7899 25.2489,23.0392 33.25,22.2449L 33.25,20.5833L 28.5,20.5833L 28.5,15.8333L 41.1667,15.8333L 41.1667,20.5833L 36.4167,20.5833L 36.4167,22.2449C 39.6011,22.561 42.508,23.8207 44.8538,25.7403L 45.9962,24.5979L 43.7571,22.3588L 47.1158,19L 53.8333,25.7175L 50.4746,29.0763L 48.2354,26.8371L 47.093,27.9795C 49.2234,30.5829 50.5409,33.8772 50.6581,37.4751L 44.3333,39.5833L 42.75,39.5833 Z M 34.8333,34.8334C 36.5822,34.8334 37.9999,36.2512 37.9999,38.0001C 37.9999,39.7489 36.5822,41.1667 34.8333,41.1667L 28.5,45.9167L 31.6666,38.0001C 31.6666,36.2512 33.0844,34.8334 34.8333,34.8334 Z "/>
</svg>
