<?xml version="1.0" encoding="utf-8"?>
<!DOCTYPE svg PUBLIC "-//W3C//DTD SVG 1.1//EN" "http://www.w3.org/Graphics/SVG/1.1/DTD/svg11.dtd">
<svg xmlns="http://www.w3.org/2000/svg" xmlns:xlink="http://www.w3.org/1999/xlink" version="1.1" baseProfile="full" width="76" height="76" viewBox="0 0 76.00 76.00" enable-background="new 0 0 76.00 76.00" xml:space="preserve">
	<path fill="#000000" fill-opacity="1" stroke-width="0.2" stroke-linejoin="round" d="M 50.3043,26.9333C 53.8982,27.2361 56.5956,27.3871 58.3966,27.3865L 58.8526,19.0475C 57.9567,19.0475 56.6559,19.0475 54.9503,19.0475C 53.2446,19.0475 51.7211,19.0475 50.3797,19.0475L 44.7272,19.0475C 44.1012,19.0475 43.0312,19.0475 41.5173,19.0475C 40.0034,19.0475 38.6292,19.0475 37.3945,19.0475C 30.9374,19.1364 25.9591,20.93 22.4594,24.4284C 18.9598,27.9267 17.1891,32.5962 17.1474,38.4369C 17.25,44.2567 19.0249,48.7851 22.472,52.0219C 25.919,55.2587 30.4226,56.9022 35.9826,56.9525C 41.1635,56.9746 45.595,55.4517 49.2772,52.3836C 52.9593,49.3156 54.8844,44.5698 55.0524,38.1461C 55.054,36.3089 54.6551,34.4035 53.8559,32.4299C 53.0567,30.4562 51.8477,28.7505 50.2289,27.3125L 50.3043,26.9333 Z M 36.2964,48.6875C 33.7389,48.6239 31.7942,47.6061 30.4624,45.6341C 29.1306,43.6621 28.4605,41.1177 28.4524,38.0007C 28.4246,35.2335 29.0292,32.7887 30.2663,30.6664C 31.5034,28.5441 33.5395,27.4261 36.3748,27.3125C 39.0156,27.4277 40.9111,28.5426 42.0613,30.6573C 43.2115,32.7721 43.7736,35.1956 43.7474,37.928C 43.7213,41.1752 43.0481,43.7682 41.7279,45.7068C 40.4078,47.6455 38.5972,48.639 36.2964,48.6875 Z "/>
</svg>
