<?xml version="1.0" encoding="utf-8"?>
<!DOCTYPE svg PUBLIC "-//W3C//DTD SVG 1.1//EN" "http://www.w3.org/Graphics/SVG/1.1/DTD/svg11.dtd">
<svg xmlns="http://www.w3.org/2000/svg" xmlns:xlink="http://www.w3.org/1999/xlink" version="1.1" baseProfile="full" width="76" height="76" viewBox="0 0 76.00 76.00" enable-background="new 0 0 76.00 76.00" xml:space="preserve">
	<path fill="#000000" fill-opacity="1" stroke-width="0.2" stroke-linejoin="round" d="M 36,21L 40,21L 40,25L 44,25L 44,29L 40,29L 40,33L 36,33L 36,29L 32,29L 32,25L 36,25L 36,21 Z M 32,43L 40,43L 40,40L 32,40L 32,43 Z M 44,43L 52,43L 52,40L 44,40L 44,43 Z M 20,40L 20,43L 28,43L 28,40L 20,40 Z M 16,36L 60,36L 60,40L 56,40L 56,43L 60,43L 60,47L 56,47L 56,50L 60,50L 60,54L 56,54L 56,57L 52,57L 52,54L 44,54L 44,57L 40,57L 40,54L 32,54L 32,57L 28,57L 28,54L 20,54L 20,57L 16,57L 16,36 Z M 20,47L 20,50L 28,50L 28,47L 20,47 Z M 32,47L 32,50L 40,50L 40,47L 32,47 Z M 44,47L 44,50L 52,50L 52,47L 44,47 Z "/>
</svg>
