<?xml version="1.0" encoding="utf-8"?>
<!DOCTYPE svg PUBLIC "-//W3C//DTD SVG 1.1//EN" "http://www.w3.org/Graphics/SVG/1.1/DTD/svg11.dtd">
<svg xmlns="http://www.w3.org/2000/svg" xmlns:xlink="http://www.w3.org/1999/xlink" version="1.1" baseProfile="full" width="76" height="76" viewBox="0 0 76.00 76.00" enable-background="new 0 0 76.00 76.00" xml:space="preserve">
	<path fill="#000000" fill-opacity="1" stroke-width="0.2" stroke-linejoin="round" d="M 57,67.2001L 57,19L 8.79994,19C 8.65447,19.2231 8.51149,19.448 8.37103,19.6746L 6.33333,23.75L 14.25,23.75L 14.25,30.0833L 4.07023,30.0833C 3.82887,31.1218 3.63397,32.1782 3.48782,33.25L 14.25,33.25L 14.25,39.5833L 3.202,39.5833C 3.24982,40.6521 3.3458,41.7084 3.48782,42.75L 14.25,42.75L 14.25,49.0833L 4.96698,49.0833C 5.32925,50.1635 5.74301,51.22 6.20535,52.25L 14.25,52.25L 14.25,58.5833L 9.8957,58.5833C 10.7079,59.6905 11.584,60.7478 12.5185,61.75L 14.25,61.75L 14.25,63.4815C 15.2522,64.416 16.3095,65.2921 17.4167,66.1043L 17.4167,61.75L 33.25,61.75L 33.25,68.0833L 20.4288,68.0833C 22.6673,69.3936 25.0651,70.4612 27.5862,71.25L 48.4138,71.25C 51.4798,70.2907 54.3635,68.9191 57,67.2001 Z M 52.25,23.75L 52.25,30.0833L 36.4167,30.0833L 36.4167,23.75L 52.25,23.75 Z M 52.25,33.25L 52.25,39.5833L 36.4167,39.5833L 36.4167,33.25L 52.25,33.25 Z M 52.25,42.75L 52.25,49.0833L 36.4167,49.0833L 36.4167,42.75L 52.25,42.75 Z M 52.25,52.25L 52.25,58.5833L 36.4167,58.5833L 36.4167,52.25L 52.25,52.25 Z M 52.25,61.75L 52.25,68.0833L 36.4167,68.0833L 36.4167,61.75L 52.25,61.75 Z M 33.25,23.75L 33.25,30.0833L 17.4167,30.0833L 17.4167,23.75L 33.25,23.75 Z M 33.25,33.25L 33.25,39.5833L 17.4167,39.5833L 17.4167,33.25L 33.25,33.25 Z M 33.25,42.75L 33.25,49.0833L 17.4167,49.0833L 17.4167,42.75L 33.25,42.75 Z M 33.25,52.25L 33.25,58.5833L 17.4167,58.5833L 17.4167,52.25L 33.25,52.25 Z "/>
</svg>
