<?xml version="1.0" encoding="utf-8"?>
<!DOCTYPE svg PUBLIC "-//W3C//DTD SVG 1.1//EN" "http://www.w3.org/Graphics/SVG/1.1/DTD/svg11.dtd">
<svg xmlns="http://www.w3.org/2000/svg" xmlns:xlink="http://www.w3.org/1999/xlink" version="1.1" baseProfile="full" width="76" height="76" viewBox="0 0 76.00 76.00" enable-background="new 0 0 76.00 76.00" xml:space="preserve">
	<path fill="#000000" fill-opacity="1" stroke-width="0.2" stroke-linejoin="round" d="M 44.3333,30.0833L 57,30.0833L 57,57L 44.3333,57L 44.3333,30.0833 Z M 46.3125,35.2292L 46.3125,38L 49.0833,38L 49.0833,35.2292L 46.3125,35.2292 Z M 52.25,35.2292L 52.25,38L 55.0208,38L 55.0208,35.2292L 52.25,35.2292 Z M 46.3125,39.9792L 46.3125,42.75L 49.0833,42.75L 49.0833,39.9792L 46.3125,39.9792 Z M 52.25,39.9792L 52.25,42.75L 55.0208,42.75L 55.0208,39.9792L 52.25,39.9792 Z M 46.3125,44.7292L 46.3125,47.5L 49.0833,47.5L 49.0833,44.7292L 46.3125,44.7292 Z M 52.25,44.7292L 52.25,47.5L 55.0208,47.5L 55.0208,44.7292L 52.25,44.7292 Z M 46.3125,49.4792L 46.3125,52.25L 49.0833,52.25L 49.0833,49.4792L 46.3125,49.4792 Z M 52.25,49.4792L 52.25,52.25L 55.0208,52.25L 55.0208,49.4792L 52.25,49.4792 Z M 23.75,25.3333L 25.3333,22.1667L 26.9167,22.1667L 26.9167,18.2084L 28.5,18.2084L 28.5,22.1667L 31.6667,22.1667L 31.6667,18.2084L 33.25,18.2084L 33.25,22.1667L 34.8333,22.1667L 36.4167,25.3333L 36.4167,34.8334L 38.7917,34.8333L 41.1667,37.2083L 41.1667,57L 19,57L 19,37.2083L 21.375,34.8333L 23.75,34.8334L 23.75,25.3333 Z M 25.7291,27.3125L 25.7291,30.0834L 28.1041,30.0834L 28.1041,27.3125L 25.7291,27.3125 Z M 32.0625,27.3125L 32.0625,30.0834L 34.4375,30.0834L 34.4375,27.3125L 32.0625,27.3125 Z M 25.7291,32.0625L 25.7291,34.8334L 28.1041,34.8334L 28.1041,32.0625L 25.7291,32.0625 Z M 32.0625,32.0625L 32.0625,34.8334L 34.4375,34.8334L 34.4375,32.0625L 32.0625,32.0625 Z M 30.875,39.9792L 28.8958,39.9792L 28.8958,42.75L 30.875,42.75L 30.875,39.9792 Z M 24.5416,39.9792L 24.5416,42.75L 26.9166,42.75L 26.9166,39.9792L 24.5416,39.9792 Z M 36.0208,39.9792L 33.25,39.9792L 33.25,42.75L 36.0208,42.75L 36.0208,39.9792 Z M 30.875,44.7292L 28.8958,44.7292L 28.8958,47.5L 30.875,47.5L 30.875,44.7292 Z M 26.9166,44.7292L 24.5416,44.7292L 24.5416,47.5L 26.9166,47.5L 26.9166,44.7292 Z M 36.0208,44.7292L 33.25,44.7292L 33.25,47.5L 36.0208,47.5L 36.0208,44.7292 Z M 30.875,49.4792L 28.8958,49.4792L 28.8958,52.25L 30.875,52.25L 30.875,49.4792 Z M 26.9166,49.4792L 24.5416,49.4792L 24.5417,52.25L 26.9167,52.25L 26.9166,49.4792 Z M 36.0208,49.4792L 33.25,49.4792L 33.25,52.25L 36.0208,52.25L 36.0208,49.4792 Z "/>
</svg>
