<?xml version="1.0" encoding="utf-8"?>
<!DOCTYPE svg PUBLIC "-//W3C//DTD SVG 1.1//EN" "http://www.w3.org/Graphics/SVG/1.1/DTD/svg11.dtd">
<svg xmlns="http://www.w3.org/2000/svg" xmlns:xlink="http://www.w3.org/1999/xlink" version="1.1" baseProfile="full" width="76" height="76" viewBox="0 0 76.00 76.00" enable-background="new 0 0 76.00 76.00" xml:space="preserve">
	<path fill="#000000" fill-opacity="1" stroke-width="0.2" stroke-linejoin="round" d="M 25.3333,28.5L 25.3333,31.6667L 22.1667,31.6667L 22.1667,44.3333L 25.3333,44.3333L 25.3333,47.5L 50.6667,47.5L 50.6667,44.3333L 53.8333,44.3333L 53.8333,31.6667L 50.6667,31.6667L 50.6667,28.5L 25.3333,28.5 Z M 60.1667,44.3333L 60.1667,53.8333L 50.6667,53.8333L 50.6667,50.6667L 25.3333,50.6667L 25.3333,53.8333L 15.8333,53.8333L 15.8333,44.3333L 19,44.3333L 19,31.6667L 15.8333,31.6667L 15.8333,22.1667L 25.3333,22.1667L 25.3333,25.3333L 50.6667,25.3333L 50.6667,22.1667L 60.1667,22.1667L 60.1667,31.6667L 57,31.6667L 57,44.3333L 60.1667,44.3333 Z M 19,25.3334L 19,28.5L 22.1667,28.5L 22.1667,25.3334L 19,25.3334 Z M 53.8333,25.3334L 53.8333,28.5L 57,28.5L 57,25.3334L 53.8333,25.3334 Z M 19,47.5L 19,50.6667L 22.1667,50.6667L 22.1667,47.5L 19,47.5 Z M 53.8333,47.5L 53.8333,50.6667L 57,50.6667L 57,47.5L 53.8333,47.5 Z "/>
</svg>
