<?xml version="1.0" encoding="utf-8"?>
<!DOCTYPE svg PUBLIC "-//W3C//DTD SVG 1.1//EN" "http://www.w3.org/Graphics/SVG/1.1/DTD/svg11.dtd">
<svg xmlns="http://www.w3.org/2000/svg" xmlns:xlink="http://www.w3.org/1999/xlink" version="1.1" baseProfile="full" width="76" height="76" viewBox="0 0 76.00 76.00" enable-background="new 0 0 76.00 76.00" xml:space="preserve">
	<path fill="#000000" fill-opacity="1" stroke-width="0.2" stroke-linejoin="round" d="M 19,17.4167L 41.9583,17.4167L 53.8333,29.2917L 53.8333,49.3536C 55.6782,50.0057 57,51.7652 57,53.8333L 57,58.5833C 57,61.2067 54.8733,63.3333 52.25,63.3333L 28.5,63.3333C 25.8766,63.3333 23.75,61.2067 23.75,58.5833L 19,58.5833L 19,17.4167 Z M 50.6667,33.25L 38,33.25L 38,20.5833L 22.1667,20.5834L 22.1667,55.4167L 23.75,55.4167L 23.75,53.8334C 23.75,51.21 25.8766,49.0834 28.5,49.0834L 50.6667,49.0833L 50.6667,33.25 Z M 41.1666,21.3751L 41.1666,30.0833L 49.8749,30.0833L 41.1666,21.3751 Z M 28.4999,60.1667L 30.0832,60.1667L 30.0832,58.5834L 33.2499,58.5834L 33.2499,57.0001L 34.8332,57.0001L 34.8332,53.8334L 33.2499,53.8334L 33.2499,52.2501L 28.4999,52.2501L 28.4999,60.1667 Z M 33.2499,57.0001L 30.0832,57.0001L 30.0832,53.8334L 33.2499,53.8334L 33.2499,57.0001 Z M 52.25,60.1667L 52.25,55.4167L 50.6666,55.4167L 49.0833,55.4167L 49.0833,57L 50.6667,57L 50.6667,58.5833L 47.5,58.5833L 47.5,53.8334L 52.25,53.8333L 52.25,52.25L 47.5,52.25L 47.5,53.8334L 45.9166,53.8334L 45.9167,58.5833L 47.5,58.5833L 47.5,60.1667L 52.25,60.1667 Z M 42.75,57L 41.1667,57L 41.1667,55.4167L 39.5833,55.4167L 39.5833,53.8333L 38,53.8333L 38,52.25L 36.4166,52.25L 36.4166,60.1667L 38,60.1667L 38,55.4167L 39.5833,55.4167L 39.5833,57L 41.1667,57L 41.1667,58.5833L 42.75,58.5833L 42.75,60.1667L 44.3333,60.1667L 44.3333,52.25L 42.75,52.25L 42.75,57 Z "/>
</svg>
