<?xml version="1.0" encoding="utf-8"?>
<!DOCTYPE svg PUBLIC "-//W3C//DTD SVG 1.1//EN" "http://www.w3.org/Graphics/SVG/1.1/DTD/svg11.dtd">
<svg xmlns="http://www.w3.org/2000/svg" xmlns:xlink="http://www.w3.org/1999/xlink" version="1.1" baseProfile="full" width="76" height="76" viewBox="0 0 76.00 76.00" enable-background="new 0 0 76.00 76.00" xml:space="preserve">
	<g>
		<path fill="#000000" fill-opacity="1" stroke-width="0.2" stroke-linejoin="round" d="M 12.1906,33.9467L 17.3016,41.8837L 12.0644,50.1178L 17.3331,50.1178L 18.7844,47.2077C 19.1735,46.4251 19.5626,45.6094 19.9518,44.7607L 20.0464,44.7607C 20.4145,45.5929 20.8141,46.4086 21.2453,47.2077L 22.7912,50.1178L 28.2177,50.1178L 23.0752,41.6522L 28.1546,33.9467L 22.949,33.9467L 21.5923,36.5927C 21.1927,37.3698 20.7931,38.1966 20.3935,39.0729L 20.3304,39.0729C 19.9255,38.2847 19.5048,37.4801 19.0684,36.6589L 17.554,33.9467L 12.1906,33.9467 Z "/>
		<path fill="#000000" fill-opacity="1" stroke-width="0.2" stroke-linejoin="round" d="M 42.8683,27.8667C 42.4594,27.8104 41.8358,27.8216 40.9975,27.9003C 37.6602,28.0576 34.9404,29.125 32.8382,31.1025C 31.7155,32.209 30.8332,33.5887 30.1913,35.2417C 29.5495,36.8947 29.2223,38.7655 29.21,40.8542C 29.2032,43.5914 29.8814,45.8594 31.2443,47.6582C 32.6073,49.4569 34.6954,50.3894 37.5088,50.4556C 39.7919,50.4031 41.6107,49.6389 42.9651,48.1629C 44.3195,46.6868 45.0131,44.8135 45.0458,42.543C 45.0003,40.2153 44.386,38.4309 43.2029,37.1898C 42.0198,35.9487 40.5411,35.3222 38.7669,35.3103C 36.7804,35.3441 35.2573,35.9184 34.1978,37.0331L 34.0985,37.0331C 34.3591,35.7407 35.0381,34.6125 36.1357,33.6484C 37.2332,32.6844 38.8743,32.0942 41.0589,31.8778C 41.7694,31.8047 42.3725,31.7823 42.8683,31.8104L 42.8683,27.8667 Z M 37.4426,46.7822C 36.2886,46.7427 35.4263,46.2875 34.8559,45.4165C 34.2854,44.5456 33.9778,43.4958 33.9329,42.2673C 33.9274,41.6641 34.0047,41.2161 34.1647,40.9231C 34.4054,40.3587 34.7848,39.8935 35.3029,39.5272C 35.8209,39.161 36.4237,38.9715 37.1115,38.9586C 38.1868,38.9902 38.9911,39.375 39.5242,40.1132C 40.0573,40.8513 40.3236,41.7532 40.3229,42.8187C 40.3125,43.979 40.0518,44.924 39.5408,45.6535C 39.0297,46.383 38.3303,46.7592 37.4426,46.7822 Z "/>
		<path fill="#000000" fill-opacity="1" stroke-width="0.2" stroke-linejoin="round" d="M 59.9689,50.1178L 59.9689,44.7133L 62.4138,44.7133L 62.4138,41.04L 59.9689,41.04L 59.9689,28.2044L 54.198,28.2044L 46.4185,41.5232L 46.4185,44.7133L 55.5634,44.7133L 55.5634,50.1178L 59.9689,50.1178 Z M 50.8957,41.04L 50.9274,40.9709L 53.6582,36.0614C 54.3199,34.6843 54.9652,33.2897 55.594,31.8778L 55.6858,31.8778C 55.6144,33.3243 55.5736,34.7188 55.5634,36.0614L 55.5634,41.04L 50.8957,41.04 Z "/>
	</g>
</svg>
