<?xml version="1.0" encoding="utf-8"?>
<!DOCTYPE svg PUBLIC "-//W3C//DTD SVG 1.1//EN" "http://www.w3.org/Graphics/SVG/1.1/DTD/svg11.dtd">
<svg xmlns="http://www.w3.org/2000/svg" xmlns:xlink="http://www.w3.org/1999/xlink" version="1.1" baseProfile="full" width="76" height="76" viewBox="0 0 76.00 76.00" enable-background="new 0 0 76.00 76.00" xml:space="preserve">
	<path fill="#000000" fill-opacity="1" stroke-width="0.2" stroke-linejoin="round" d="M 33,33L 43,33L 43,43L 33,43L 33,33 Z M 33,20L 43,20L 43,30L 33,30L 33,20 Z M 20,20L 30,20L 30,30L 20,30L 20,20 Z M 20,33L 30,33L 30,43L 20,43L 20,33 Z M 46,33L 56,33L 56,43L 46,43L 46,33 Z M 46,20L 56,20L 56,30L 46,30L 46,20 Z M 20,46L 30,46L 30,56L 20,56L 20,46 Z M 33,46L 43,46L 43,56L 33,56L 33,46 Z M 46,46L 56,46L 56,56L 46,56L 46,46 Z "/>
</svg>
