<?xml version="1.0" encoding="utf-8"?>
<!DOCTYPE svg PUBLIC "-//W3C//DTD SVG 1.1//EN" "http://www.w3.org/Graphics/SVG/1.1/DTD/svg11.dtd">
<svg xmlns="http://www.w3.org/2000/svg" xmlns:xlink="http://www.w3.org/1999/xlink" version="1.1" baseProfile="full" width="76" height="76" viewBox="0 0 76.00 76.00" enable-background="new 0 0 76.00 76.00" xml:space="preserve">
	<path fill="#000000" fill-opacity="1" stroke-width="0.2" stroke-linejoin="round" d="M 55.4764,22.0625L 55.4134,22.1254C 55.4134,22.1254 57.5889,22.6373 48.2065,33.0244L 49.4015,39.3332L 49.8155,38.9192C 50.4338,38.3009 51.4363,38.3009 52.0546,38.9192C 52.673,39.5375 52.673,40.5401 52.0546,41.1584L 50.0536,43.1594L 50.5017,46.0701L 50.6551,45.9166C 51.2735,45.2983 52.276,45.2983 52.8943,45.9166C 53.5126,46.535 53.5126,47.5375 52.8943,48.1558L 51.0175,50.0326C 51.384,53.2996 51.5253,56.1205 51.2149,57.6723C 51.2149,57.6723 49.2557,59.6315 48.1361,58.512C 48.1361,58.512 44.343,45.6154 41.7525,39.8052C 31.7557,49.9687 31.0624,49.2754 31.0624,49.2754C 31.0624,49.2754 33.0217,55.713 30.7825,57.9522L 26.8639,50.6749L 26.9269,50.6119L 19.6496,46.6933C 21.8888,44.4541 28.3264,46.4134 28.3264,46.4134C 28.3264,46.4134 27.6331,45.7201 37.7966,35.7233C 31.9864,33.1328 19.0898,29.3397 19.0898,29.3397C 17.9702,28.2202 19.9295,26.2609 19.9295,26.2609C 21.4813,25.9505 24.3022,26.0919 27.5692,26.4583L 29.446,24.5815C 30.0643,23.9632 31.0668,23.9632 31.6852,24.5815C 32.3035,25.1998 32.3035,26.2023 31.6852,26.8207L 31.5317,26.9742L 34.4423,27.4222L 36.4434,25.4212C 37.0617,24.8028 38.0642,24.8028 38.6826,25.4212C 39.3009,26.0395 39.3009,27.042 38.6826,27.6604L 38.2686,28.0743L 44.5774,29.2693C 54.9645,19.8869 55.4764,22.0625 55.4764,22.0625 Z "/>
</svg>
