<?xml version="1.0" encoding="utf-8"?>
<!DOCTYPE svg PUBLIC "-//W3C//DTD SVG 1.1//EN" "http://www.w3.org/Graphics/SVG/1.1/DTD/svg11.dtd">
<svg xmlns="http://www.w3.org/2000/svg" xmlns:xlink="http://www.w3.org/1999/xlink" version="1.1" baseProfile="full" width="76.0106" height="76.0106" viewBox="0 0 76.01 76.01" enable-background="new 0 0 76.01 76.01" xml:space="preserve">
	<path fill="#000000" fill-opacity="1" stroke-width="0.2" stroke-linejoin="round" d="M 20.5862,33.2547L 26.9204,33.2546L 36.4217,25.3369L 36.4217,52.2573L 26.9204,42.756L 20.5862,42.756C 18.8371,42.756 17.4191,41.338 17.4191,39.5889L 17.4191,36.4218C 17.4191,34.6726 18.8371,33.2547 20.5862,33.2547 Z M 57.0079,38.0053C 57.0079,42.8155 55.0582,47.1702 51.906,50.3225L 49.6665,48.083C 52.2456,45.5039 53.8408,41.9409 53.8408,38.0053C 53.8408,34.0279 52.2115,30.431 49.5839,27.8457L 51.4982,25.2933C 54.8892,28.4715 57.0079,32.991 57.0079,38.0053 Z M 50.6737,38.0053C 50.6737,41.4696 49.0845,44.5627 46.5954,46.5954L 44.3398,44.3399C 46.2628,42.8953 47.5066,40.5956 47.5066,38.0053C 47.5066,35.4151 46.2628,33.1153 44.3398,31.6708L 46.5954,29.4152C 49.0845,31.4479 50.6737,34.541 50.6737,38.0053 Z M 44.3395,38.0053C 44.3395,40.1167 42.9621,41.9064 41.0568,42.5248L 39.5889,39.5889C 40.4634,39.5889 41.1724,38.8799 41.1724,38.0053C 41.1724,37.1307 40.4634,36.4218 39.5889,36.4218L 41.0568,33.4858C 42.9621,34.1042 44.3395,35.8939 44.3395,38.0053 Z "/>
</svg>
