<?xml version="1.0" encoding="utf-8"?>
<!DOCTYPE svg PUBLIC "-//W3C//DTD SVG 1.1//EN" "http://www.w3.org/Graphics/SVG/1.1/DTD/svg11.dtd">
<svg xmlns="http://www.w3.org/2000/svg" xmlns:xlink="http://www.w3.org/1999/xlink" version="1.1" baseProfile="full" width="76" height="76" viewBox="0 0 76.00 76.00" enable-background="new 0 0 76.00 76.00" xml:space="preserve">
	<path fill="#000000" fill-opacity="1" stroke-width="0.2" stroke-linejoin="round" d="M 33,25L 59,25L 59,30L 33,30L 33,25 Z M 36,33L 59,33L 59,38L 36,38L 36,33 Z M 36,41L 59,41L 59,46L 36,46L 36,41 Z M 33,49L 59,49L 59,54L 33,54L 33,49 Z M 21,37C 21,39.2092 22.7909,41 25,41L 27,41L 27,37.0001L 33.75,43.5L 27,50L 27,46L 25,46C 20.0294,46 16,41.9705 16,37L 16,34C 16,29.0295 20.0294,25 25,25L 27,25L 27,30L 25,30C 22.7909,30 21,31.7909 21,34L 21,37 Z "/>
</svg>
