<?xml version="1.0" encoding="utf-8"?>
<!DOCTYPE svg PUBLIC "-//W3C//DTD SVG 1.1//EN" "http://www.w3.org/Graphics/SVG/1.1/DTD/svg11.dtd">
<svg xmlns="http://www.w3.org/2000/svg" xmlns:xlink="http://www.w3.org/1999/xlink" version="1.1" baseProfile="full" width="76" height="76" viewBox="0 0 76.00 76.00" enable-background="new 0 0 76.00 76.00" xml:space="preserve">
	<path fill="#000000" fill-opacity="1" stroke-width="0.2" stroke-linejoin="round" d="M 37.2379,32.0298L 37.2379,46.0645L 52.3754,46.0645L 52.3754,46.0475C 55.5627,45.8449 57,43.8647 57,41.4538C 57,38.9036 55.0738,36.8431 52.481,36.8431C 51.8155,36.8431 51.2679,36.9782 50.689,37.2273C 50.274,33.1824 46.8417,30.02 42.6157,30.02C 40.549,30.02 38.6696,30.78 37.2379,32.0298 Z M 35.7255,33.7862C 35.2053,33.478 34.6454,33.2373 34.0509,33.0727L 34.0509,46.0645L 36.4407,46.0645L 36.4407,32.8278C 36.1794,33.1276 35.94,33.4527 35.7255,33.7862 Z M 31.6599,32.8531L 31.6599,46.0645L 33.2542,46.0645L 33.2542,32.9038C 32.9274,32.8531 32.5909,32.832 32.2489,32.832C 32.0492,32.832 31.8529,32.8404 31.6599,32.8531 Z M 28.4738,33.9678L 28.4738,46.0645L 30.0669,46.0645L 30.0669,33.1867C 29.4977,33.3767 28.9627,33.6427 28.4738,33.9678 Z M 25.6196,38.3293C 25.5107,38.2618 25.4026,38.1942 25.2865,38.1351L 25.2865,46.0645L 26.8795,46.0645L 26.8795,35.4625C 26.2453,36.29 25.8033,37.2654 25.6196,38.3293 Z M 22.0999,37.8058L 22.0999,45.904C 22.4766,46.0096 22.8734,46.0645 23.2826,46.0645L 23.6938,46.0645L 23.6938,37.6622C 23.5562,37.6495 23.4194,37.6411 23.2801,37.6411C 22.8701,37.6411 22.4749,37.7002 22.0999,37.8058 Z M 19,41.8549C 19,43.1384 19.5848,44.2869 20.5065,45.0638L 20.5065,38.646C 19.5848,39.4187 19,40.5713 19,41.8549 Z "/>
</svg>
