<?xml version="1.0" encoding="utf-8"?>
<!DOCTYPE svg PUBLIC "-//W3C//DTD SVG 1.1//EN" "http://www.w3.org/Graphics/SVG/1.1/DTD/svg11.dtd">
<svg xmlns="http://www.w3.org/2000/svg" xmlns:xlink="http://www.w3.org/1999/xlink" version="1.1" baseProfile="full" width="76" height="76" viewBox="0 0 76.00 76.00" enable-background="new 0 0 76.00 76.00" xml:space="preserve">
	<path fill="#000000" fill-opacity="1" stroke-width="0.2" stroke-linejoin="round" d="M 22.9583,52.25C 25.1444,52.25 26.9167,54.0222 26.9167,56.2083C 26.9167,58.3945 25.1444,60.1667 22.9583,60.1667C 20.7722,60.1667 19,58.3945 19,56.2083C 19,54.0222 20.7722,52.25 22.9583,52.25 Z M 49.875,52.25C 52.0611,52.25 53.8333,54.0222 53.8333,56.2084C 53.8333,58.3945 52.0611,60.1667 49.875,60.1667C 47.6888,60.1667 45.9166,58.3945 45.9166,56.2084C 45.9166,54.0222 47.6888,52.25 49.875,52.25 Z M 61.75,55.4167L 55.3605,55.4167C 54.9764,52.7311 52.6668,50.6667 49.875,50.6667C 47.0832,50.6667 44.7736,52.7311 44.3894,55.4167L 28.4439,55.4167C 28.0597,52.7311 25.7501,50.6667 22.9583,50.6667C 20.1665,50.6667 17.8569,52.7311 17.4728,55.4167L 14.25,55.4167L 14.25,38C 14.25,36.2511 15.6678,34.8334 17.4167,34.8334L 57.7916,34.8333C 59.5405,34.8333 60.9583,36.2511 60.9583,38L 61.75,55.4167 Z M 59.7708,38L 57,38L 57,49.0833L 60.1666,49.0833L 59.7708,38 Z M 53.8333,44.3333L 53.8333,38L 45.9166,38L 45.9166,44.3333L 53.8333,44.3333 Z M 44.3333,38L 36.4167,38L 36.4167,44.3333L 44.3333,44.3333L 44.3333,38 Z M 34.8333,38L 26.9167,38L 26.9167,44.3333L 34.8333,44.3333L 34.8333,38 Z M 25.3333,38L 17.4167,38L 17.4167,44.3333L 25.3333,44.3333L 25.3333,38 Z M 29.2917,22.1667L 44.5328,22.1667C 45.2359,19.4351 47.7156,17.4167 50.6666,17.4167C 54.1645,17.4167 57,20.2522 57,23.75C 57,27.2478 54.1644,30.0833 50.6666,30.0833C 47.7156,30.0833 45.2359,28.065 44.5328,25.3333L 29.2917,25.3333L 34.0417,30.0833L 27.7084,30.0833L 22.1667,25.1574L 22.1667,30.0833L 19,30.0833L 19,17.4167L 22.1667,17.4167L 22.1667,22.3426L 27.7084,17.4167L 34.0417,17.4167L 29.2917,22.1667 Z "/>
</svg>
