<?xml version="1.0" encoding="utf-8"?>
<!DOCTYPE svg PUBLIC "-//W3C//DTD SVG 1.1//EN" "http://www.w3.org/Graphics/SVG/1.1/DTD/svg11.dtd">
<svg xmlns="http://www.w3.org/2000/svg" xmlns:xlink="http://www.w3.org/1999/xlink" version="1.1" baseProfile="full" width="76" height="76" viewBox="0 0 76.00 76.00" enable-background="new 0 0 76.00 76.00" xml:space="preserve">
	<path fill="#000000" fill-opacity="1" stroke-width="0.2" stroke-linejoin="round" d="M 15.8333,17.4167L 60.1667,17.4167L 60.1667,20.5833L 47.1041,20.5834L 37.6041,20.5834L 32.8541,26.9167L 28.1041,20.5835L 23.3542,26.9167L 18.6042,20.5834L 15.8333,20.5833L 15.8333,17.4167 Z M 60.1666,26.9167L 60.1666,30.0834L 57.7916,30.0834L 53.0416,36.4167L 48.2916,30.0835L 43.5416,36.4167L 38.7916,30.0834L 28.5,30.0834L 15.8333,30.0834L 15.8333,26.9167L 23.3541,26.9167L 32.8541,26.9167L 42.3541,26.9167L 47.1041,20.5834L 51.8541,26.9167L 60.1666,26.9167 Z M 53.0416,36.4167L 60.1666,36.4167L 60.1666,39.5834L 47.4999,39.5834L 37.9999,39.5834L 33.25,45.9167L 28.5,39.5834L 23.75,45.9167L 19,39.5834L 15.8333,39.5834L 15.8333,36.4167L 23.75,36.4168L 28.5,30.0834L 33.25,36.4168L 43.5416,36.4167L 53.0416,36.4167 Z M 47.4999,39.5834L 52.2499,45.9167L 60.1666,45.9167L 60.1667,49.0833L 56.2083,49.0833L 51.4582,55.4167L 46.7081,49.0834L 38.7915,49.0834L 30.8748,49.0835L 26.1249,55.4167L 21.3749,49.0834L 15.8333,49.0834L 15.8333,45.9167L 23.75,45.9167L 33.25,45.9167L 42.7499,45.9167L 47.4999,39.5834 Z M 51.4582,55.4167L 60.1666,55.4167L 60.1666,58.5834L 15.8333,58.5834L 15.8333,55.4167L 26.1249,55.4167L 34.0415,55.4168L 38.7915,49.0834L 43.5415,55.4167L 51.4582,55.4167 Z "/>
</svg>
