<?xml version="1.0" encoding="utf-8"?>
<!DOCTYPE svg PUBLIC "-//W3C//DTD SVG 1.1//EN" "http://www.w3.org/Graphics/SVG/1.1/DTD/svg11.dtd">
<svg xmlns="http://www.w3.org/2000/svg" xmlns:xlink="http://www.w3.org/1999/xlink" version="1.1" baseProfile="full" width="76" height="76" viewBox="0 0 76.00 76.00" enable-background="new 0 0 76.00 76.00" xml:space="preserve">
	<path fill="#000000" fill-opacity="1" stroke-width="0.2" stroke-linejoin="round" d="M 49.0833,23.75C 53.4555,23.75 57,27.2945 57,31.6667C 57,36.0389 53.4557,39.5832 49.0511,39.5833L 22.9583,39.5834C 20.7722,39.5833 19,37.8111 19,35.625C 19,33.6867 20.3931,32.0738 22.2328,31.733L 22.1667,30.8749C 22.1667,27.8993 24.5123,25.4713 27.4553,25.3389C 28.7579,21.6462 32.2783,18.9999 36.4167,18.9999C 40.3459,18.9999 43.7179,21.3853 45.1637,24.7869C 46.3193,24.127 47.6573,23.75 49.0833,23.75 Z M 20.4785,45.8657L 24.6262,45.4298L 22.1748,42.0558L 23.4558,41.1252L 25.9071,44.4991L 27.6034,40.6892L 29.0498,41.3332L 27.3535,45.1431L 31.5012,44.7072L 31.6667,46.2818L 27.519,46.7178L 29.9704,50.0918L 28.6894,51.0224L 26.2381,47.6484L 24.5418,51.4583L 23.0954,50.8143L 24.7917,47.0044L 20.644,47.4404L 20.4785,45.8657 Z M 42.7178,47.3619L 46.7462,46.2825L 43.7972,43.3335L 44.9168,42.2139L 47.8658,45.1629L 48.9452,41.1345L 50.4746,41.5443L 49.3952,45.5727L 53.4235,44.4933L 53.8333,46.0227L 49.805,47.1021L 52.7539,50.051L 51.6343,51.1706L 48.6854,48.2216L 47.606,52.25L 46.0766,51.8402L 47.156,47.8119L 43.1276,48.8912L 42.7178,47.3619 Z M 32.0303,53.7273L 36.0587,52.648L 33.1097,49.699L 34.2293,48.5794L 37.1783,51.5284L 38.2577,47.5L 39.787,47.9098L 38.7076,51.9382L 42.736,50.8588L 43.1458,52.3882L 39.1174,53.4676L 42.0664,56.4165L 40.9468,57.5361L 37.9979,54.5871L 36.9185,58.6155L 35.3891,58.2057L 36.4685,54.1773L 32.4401,55.2567L 32.0303,53.7273 Z "/>
</svg>
