<?xml version="1.0" encoding="utf-8"?>
<!DOCTYPE svg PUBLIC "-//W3C//DTD SVG 1.1//EN" "http://www.w3.org/Graphics/SVG/1.1/DTD/svg11.dtd">
<svg xmlns="http://www.w3.org/2000/svg" xmlns:xlink="http://www.w3.org/1999/xlink" version="1.1" baseProfile="full" width="76" height="76" viewBox="0 0 76.00 76.00" enable-background="new 0 0 76.00 76.00" xml:space="preserve">
	<path fill="#000000" fill-opacity="1" stroke-width="0.2" stroke-linejoin="round" d="M 22.1667,22.1667L 25.3333,22.1667L 25.3333,25.3333L 22.1667,25.3333L 22.1667,22.1667 Z M 18.9999,19.0002L 28.4999,19.0002L 28.4999,28.5002L 18.9999,28.5002L 18.9999,19.0002 Z M 20.5832,20.5835L 20.5832,26.9169L 26.9166,26.9169L 26.9166,20.5835L 20.5832,20.5835 Z M 50.6665,22.1669L 53.8331,22.1669L 53.8331,25.3335L 50.6665,25.3335L 50.6665,22.1669 Z M 47.4998,19.0002L 56.9998,19.0002L 56.9998,28.5002L 47.4998,28.5002L 47.4998,19.0002 Z M 49.0831,20.5835L 49.0831,26.9169L 55.4165,26.9169L 55.4165,20.5835L 49.0831,20.5835 Z M 22.1666,50.6668L 25.3332,50.6668L 25.3332,53.8334L 22.1666,53.8334L 22.1666,50.6668 Z M 18.9999,47.5001L 28.4999,47.5001L 28.4999,57.0001L 18.9999,57.0001L 18.9999,47.5001 Z M 20.5832,49.0834L 20.5832,55.4168L 26.9166,55.4168L 26.9166,49.0834L 20.5832,49.0834 Z M 18.9999,31.6669L 22.1666,31.6669L 22.1666,34.8335L 25.3332,34.8335L 25.3332,38.0002L 31.6666,38.0002L 31.6666,34.8335L 25.3333,34.8334L 25.3333,31.6667L 31.6666,31.6669L 31.6666,34.8335L 37.9998,34.8335L 37.9998,41.1668L 34.8332,41.1668L 34.8332,44.3334L 41.1665,44.3334L 41.1665,50.6667L 37.9998,50.6667L 37.9999,53.8334L 41.1665,53.8334L 41.1665,57.0001L 37.9999,57.0001L 37.9999,53.8334L 34.8333,53.8333L 34.8333,57L 31.6667,57L 31.6667,47.5L 34.8332,47.5001L 34.8333,50.6667L 37.9998,50.6667L 37.9998,47.5001L 34.8333,47.5L 34.8332,44.3334L 31.6667,44.3333L 28.5,44.3333L 28.4999,41.1668L 22.1666,41.1669L 22.1666,44.3334L 18.9999,44.3334L 18.9999,41.1668L 22.1666,41.1669L 22.1666,34.8335L 18.9999,34.8335L 18.9999,31.6669 Z M 34.8332,38.0002L 31.6666,38.0002L 31.6667,41.1667L 34.8332,41.1668L 34.8332,38.0002 Z M 41.1665,34.8335L 44.3332,34.8335L 44.3332,31.6668L 37.9999,31.6668L 37.9999,28.5001L 34.8332,28.5001L 34.8332,31.6668L 31.6666,31.6668L 31.6666,28.5001L 34.8332,28.5001L 34.8332,25.3334L 31.6666,25.3334L 31.6667,19L 34.8333,19L 34.8332,25.3334L 37.9999,25.3334L 37.9999,22.1668L 41.1666,22.1668L 41.1666,19.0001L 44.3333,19.0001L 44.3332,25.3334L 41.1666,25.3334L 41.1666,28.5001L 44.3332,28.5001L 44.3333,31.6667L 47.5,31.6667L 47.5,38L 50.6666,38.0001L 50.6666,41.1667L 53.8333,41.1667L 53.8333,47.5L 57,47.5L 56.9999,53.8334L 53.8333,53.8334L 53.8333,50.6667L 50.6666,50.6667L 50.6666,57L 44.3333,57L 44.3333,53.8334L 47.5,53.8334L 47.5,50.6667L 44.3333,50.6667L 44.3333,47.5L 47.5,47.5L 47.5,50.6667L 50.6666,50.6667L 50.6666,44.3334L 47.4999,44.3334L 47.4999,38.0001L 44.3332,38.0001L 44.3332,44.3334L 41.1667,44.3333L 41.1665,34.8335 Z M 50.6665,31.6668L 53.8332,31.6668L 53.8333,34.8334L 56.9999,34.8334L 56.9999,38L 50.6667,38L 50.6665,31.6668 Z "/>
</svg>
