<?xml version="1.0" encoding="utf-8"?>
<!DOCTYPE svg PUBLIC "-//W3C//DTD SVG 1.1//EN" "http://www.w3.org/Graphics/SVG/1.1/DTD/svg11.dtd">
<svg xmlns="http://www.w3.org/2000/svg" xmlns:xlink="http://www.w3.org/1999/xlink" version="1.1" baseProfile="full" width="76" height="76" viewBox="0 0 76.00 76.00" enable-background="new 0 0 76.00 76.00" xml:space="preserve">
	<path fill="#000000" fill-opacity="1" stroke-width="0.2" stroke-linejoin="round" d="M 31.6667,17.4167L 44.3333,17.4167L 50.6667,17.4167C 51.5411,17.4167 52.25,18.1256 52.25,19L 52.25,20.5833C 52.25,21.4578 51.5411,22.1667 50.6667,22.1667L 44.3333,22.1667C 43.4588,22.1667 42.75,21.4578 42.75,20.5834C 42.7376,20.5834 39.5771,20.5864 36.4167,22.1667L 33.25,23.75L 31.6667,23.75L 31.6667,44.3333L 33.25,44.3333C 37.9901,47.4934 42.7303,47.5 42.75,47.5C 42.75,46.6256 43.4589,45.9167 44.3333,45.9167L 50.6667,45.9167C 51.5411,45.9167 52.25,46.6255 52.25,47.5L 52.25,49.0833C 52.25,49.9578 51.5411,50.6667 50.6667,50.6667L 42.75,50.6667L 36.4167,50.6667C 36.4167,50.6667 34.226,50.6667 31.6667,50.4389L 31.6667,52.25L 30.875,52.25L 30.875,53.8333L 41.5903,53.8333C 42.1378,52.8868 43.1612,52.25 44.3333,52.25C 46.0822,52.25 47.5,53.6678 47.5,55.4167C 47.5,57.1656 46.0822,58.5833 44.3333,58.5833C 43.1612,58.5833 42.1378,57.9465 41.5903,57L 33.25,57L 33.25,58.5833C 33.25,59.4578 32.5411,60.1667 31.6667,60.1667L 25.3333,60.1667C 24.4589,60.1667 23.75,59.4578 23.75,58.5833L 23.75,57L 21.743,57C 21.1955,57.9465 20.1721,58.5833 19,58.5833C 17.2511,58.5833 15.8333,57.1656 15.8333,55.4167C 15.8333,53.6678 17.2511,52.25 19,52.25C 20.1721,52.25 21.1955,52.8868 21.743,53.8333L 26.125,53.8333L 26.125,52.25L 25.3333,52.25L 25.3333,49.1701C 24.369,48.7453 23.75,48.2 23.75,47.5L 23.75,44.3333L 25.3333,44.3333L 25.3333,23.75L 23.75,23.75L 23.75,19C 23.75,17.4167 31.6667,17.4167 31.6667,17.4167 Z M 41.1667,23.75L 51.8542,23.75L 58.5833,30.4792L 58.5833,44.3333L 41.1667,44.3333L 41.1667,23.75 Z M 44.3333,26.9167L 44.3333,41.1667L 55.4167,41.1667L 55.4167,34.8333L 47.5,34.8333L 47.5,26.9167L 44.3333,26.9167 Z M 50.6667,26.9167L 50.6667,31.6667L 55.4167,31.6667L 50.6667,26.9167 Z "/>
</svg>
