<?xml version="1.0" encoding="utf-8"?>
<!DOCTYPE svg PUBLIC "-//W3C//DTD SVG 1.1//EN" "http://www.w3.org/Graphics/SVG/1.1/DTD/svg11.dtd">
<svg xmlns="http://www.w3.org/2000/svg" xmlns:xlink="http://www.w3.org/1999/xlink" version="1.1" baseProfile="full" width="76" height="76" viewBox="0 0 76.00 76.00" enable-background="new 0 0 76.00 76.00" xml:space="preserve">
	<path fill="#000000" fill-opacity="1" stroke-width="0.2" stroke-linejoin="round" d="M 38,19C 48.4934,19 57,27.5066 57,38C 57,48.4934 48.4934,57 38,57C 27.5066,57 19,48.4934 19,38C 19,27.5066 27.5066,19 38,19 Z M 34.0417,25.7292L 36.0208,41.9584L 39.9792,41.9583L 41.9583,25.7292L 34.0417,25.7292 Z M 38,44.3333C 36.2511,44.3333 34.8333,45.7511 34.8333,47.5C 34.8333,49.2489 36.2511,50.6667 38,50.6667C 39.7489,50.6667 41.1667,49.2489 41.1667,47.5C 41.1667,45.7511 39.7489,44.3333 38,44.3333 Z "/>
</svg>
