<?xml version="1.0" encoding="utf-8"?>
<!DOCTYPE svg PUBLIC "-//W3C//DTD SVG 1.1//EN" "http://www.w3.org/Graphics/SVG/1.1/DTD/svg11.dtd">
<svg xmlns="http://www.w3.org/2000/svg" xmlns:xlink="http://www.w3.org/1999/xlink" version="1.1" baseProfile="full" width="76" height="76" viewBox="0 0 76.00 76.00" enable-background="new 0 0 76.00 76.00" xml:space="preserve">
	<path fill="#000000" fill-opacity="1" stroke-width="0.2" stroke-linejoin="round" d="M 19,19L 24,19L 24,20L 40,20L 40,19.0001L 44.9999,19.0001L 44.9999,24.0001L 44,24L 44,32L 52,32L 52,31L 57,31L 57,36L 56,36L 56,52L 57,52L 57,57L 52,57L 52,56L 36,56L 36,57L 31,57L 31,52L 32,52L 32,44L 24,44L 24,45L 19,45L 19,40L 20,40L 20,24L 19,24L 19,19 Z M 40,24.0001L 40,23L 24,23L 24,24L 23,24L 23,40L 24,40L 24,41L 32,41L 32,36L 31,36L 31,31.0001L 36,31.0001L 36,32.0001L 41,32.0001L 41,24L 40,24.0001 Z M 51.9999,52L 52.9999,52L 52.9999,36L 51.9999,36L 51.9999,35L 36,35L 36,36L 35,36L 35,52L 36,52L 36,53L 51.9999,53L 51.9999,52 Z M 20,41L 20,44L 23,44L 23,41L 20,41 Z M 20,20L 20,23L 23,23L 23,20L 20,20 Z M 41,20L 41,23L 44,23L 44,20L 41,20 Z M 32,32L 32,35L 35,35L 35,32L 32,32 Z M 53,32L 53,35L 56,35L 56,32L 53,32 Z M 32,53L 32,56L 35,56L 35,53L 32,53 Z M 53,53L 53,56L 56,56L 56,53L 53,53 Z "/>
</svg>
