<?xml version="1.0" encoding="utf-8"?>
<!DOCTYPE svg PUBLIC "-//W3C//DTD SVG 1.1//EN" "http://www.w3.org/Graphics/SVG/1.1/DTD/svg11.dtd">
<svg xmlns="http://www.w3.org/2000/svg" xmlns:xlink="http://www.w3.org/1999/xlink" version="1.1" baseProfile="full" width="76" height="76" viewBox="0 0 76.00 76.00" enable-background="new 0 0 76.00 76.00" xml:space="preserve">
	<path fill="#000000" fill-opacity="1" stroke-width="0.2" stroke-linejoin="round" d="M 17,28L 17,23L 23,23L 23,17L 28,17L 28,23L 34,23L 34,28L 28,28L 28,34L 23,34L 23,28L 17,28 Z M 40,19L 40,31L 52,31L 52,57L 24,57L 24,35L 29,35L 29,29L 35,29L 35,22L 29,22L 29,19L 40,19 Z M 41,30L 41,19L 52,30L 41,30 Z "/>
</svg>
