<?xml version="1.0" encoding="utf-8"?>
<!DOCTYPE svg PUBLIC "-//W3C//DTD SVG 1.1//EN" "http://www.w3.org/Graphics/SVG/1.1/DTD/svg11.dtd">
<svg xmlns="http://www.w3.org/2000/svg" xmlns:xlink="http://www.w3.org/1999/xlink" version="1.1" baseProfile="full" width="76" height="76" viewBox="0 0 76.00 76.00" enable-background="new 0 0 76.00 76.00" xml:space="preserve">
	<path fill="#000000" fill-opacity="1" stroke-linejoin="round" d="M 19.2394,48.0404C 24.1955,52.544 30.7277,55.2394 38.03,55.2394C 42.5638,55.2394 47.7888,53.9682 51.824,51.5439C 52.3632,51.2335 52.8994,50.8873 53.3981,50.5039C 54.0901,50.0049 53.4758,49.2324 52.7837,49.5396C 52.4772,49.6553 52.131,49.8107 51.824,49.9258C 47.4029,51.6596 42.7568,52.4682 38.4514,52.4682C 31.611,52.4682 25.0032,50.5803 19.6617,47.463C 19.1622,47.1951 18.8155,47.6936 19.2394,48.0404 Z M 54.552,53.5448C 56.2814,52.082 57.011,49.4267 57.049,48.0404L 57.049,47.8093C 57.049,47.4994 56.973,47.271 56.8974,47.1553C 56.5508,46.7327 54.0128,46.3457 51.824,47.0005C 51.2097,47.1951 50.6705,47.463 50.1714,47.8093C 49.7872,48.0798 49.8636,48.4233 50.2483,48.3866C 50.6705,48.3082 51.2097,48.2717 51.824,48.1919C 53.1692,48.0798 54.745,48.0404 55.1283,48.5395C 55.6646,49.1927 54.514,52.0422 54.0128,53.2743C 53.8608,53.661 54.2058,53.8155 54.552,53.5448 Z M 41.5239,33.655C 41.5239,35.2851 41.5927,36.5594 40.7458,37.9737C 40.2509,38.9651 39.4022,39.6036 38.4818,39.8168C 38.3408,39.8168 38.1305,39.8898 37.9169,39.8898C 36.3618,39.8898 35.4397,38.6853 35.4397,36.9125C 35.4397,34.6464 36.7849,33.5822 38.4818,33.0864C 39.4022,32.8734 40.4637,32.8033 41.5239,32.8033M 41.5239,29.5435C 40.6047,29.6162 39.5433,29.6861 38.4818,29.829C 36.8558,30.0391 35.2286,30.3248 33.8855,30.9604C 31.2686,32.025 29.4999,34.2908 29.4999,37.6209C 29.4999,41.8027 32.1882,43.925 35.5824,43.925C 36.7156,43.925 37.6352,43.7858 38.4818,43.5727C 39.827,43.1471 40.9586,42.3685 42.3016,40.9511C 43.0802,42.0153 43.2913,42.5113 44.6365,43.6427C 44.9899,43.7858 45.3438,43.7858 45.6258,43.5727C 46.4745,42.8641 47.959,41.5898 48.7388,40.8812C 49.0918,40.5952 49.02,40.1724 48.8098,39.8168C 48.0308,38.8255 47.2539,37.9737 47.2539,36.0636L 47.2539,29.6861C 47.2539,26.9918 47.4642,24.5131 45.4848,22.6731C 43.8588,21.1827 41.312,20.6172 39.3322,20.6172C 39.0484,20.6172 38.7664,20.6172 38.4818,20.6172C 34.8748,20.83 31.0558,22.3869 30.2058,26.8518C 30.0665,27.4173 30.4913,27.6305 30.7741,27.7034L 34.7337,28.1991C 35.1585,28.1261 35.3696,27.7729 35.4397,27.4173C 35.7952,25.8603 37.0678,25.0819 38.4818,24.9388C 38.5536,24.9388 38.6245,24.9388 38.7664,24.9388C 39.6125,24.9388 40.533,25.2944 41.0295,25.9999C 41.5927,26.8518 41.5239,27.9861 41.5239,28.9773L 41.5239,29.5435 Z "/>
</svg>
