<?xml version="1.0" encoding="utf-8"?>
<!DOCTYPE svg PUBLIC "-//W3C//DTD SVG 1.1//EN" "http://www.w3.org/Graphics/SVG/1.1/DTD/svg11.dtd">
<svg xmlns="http://www.w3.org/2000/svg" xmlns:xlink="http://www.w3.org/1999/xlink" version="1.1" baseProfile="full" width="76" height="76" viewBox="0 0 76.00 76.00" enable-background="new 0 0 76.00 76.00" xml:space="preserve">
	<path fill="#000000" fill-opacity="1" stroke-width="0.2" stroke-linejoin="round" d="M 19,20L 33,20L 33,23L 19,23L 19,20 Z M 19,39L 42,39L 42,42L 19,42L 19,39 Z M 22,47L 23,47L 23,51L 22,51L 22,47 Z M 19,31L 33,31L 33,34L 19,34L 19,31 Z M 38,33L 39,33L 39,34L 38,34L 38,33 Z M 38,22L 39,22L 39,23L 38,23L 38,22 Z M 40,33L 41,33L 41,34L 40,34L 40,33 Z M 42,33L 43,33L 43,34L 42,34L 42,33 Z M 40,22L 41,22L 41,23L 40,23L 40,22 Z M 42,22L 43,22L 43,23L 42,23L 42,22 Z M 35,17L 39,17L 39,18L 36,18L 36,20L 35,20L 35,17 Z M 36,25L 39,25.0001L 39,26L 35,26L 35,23L 36,23L 36,25 Z M 56,25L 56,23L 57,23L 57,26L 53,26L 53,25.0001L 56,25 Z M 56,18L 53,18.0001L 53,17L 57,17L 57,20L 56,20L 56,18 Z M 35,28L 39,28L 39,29L 36,29L 36,31L 35,31L 35,28 Z M 36,36L 39,36L 39,37L 35,37L 35,34L 36,34L 36,36 Z M 56,36L 56,34L 57,34L 57,37L 53,37L 53,36L 56,36 Z M 56,29L 53,29L 53,28L 57,28L 57,31L 56,31L 56,29 Z M 19,44L 23,44L 23,45L 20,45L 20,47L 19,47L 19,44 Z M 20,59L 23,59L 23,60L 19,60L 19,57L 20,57L 20,59 Z M 56,59L 56,57L 57,57L 57,60L 53,60L 53,59L 56,59 Z M 56,45L 53,45L 53,44L 57,44L 57,47L 56,47L 56,45 Z "/>
</svg>
