<?xml version="1.0" encoding="utf-8"?>
<!DOCTYPE svg PUBLIC "-//W3C//DTD SVG 1.1//EN" "http://www.w3.org/Graphics/SVG/1.1/DTD/svg11.dtd">
<svg xmlns="http://www.w3.org/2000/svg" xmlns:xlink="http://www.w3.org/1999/xlink" version="1.1" baseProfile="full" width="76" height="76" viewBox="0 0 76.00 76.00" enable-background="new 0 0 76.00 76.00" xml:space="preserve">
	<path fill="#000000" fill-opacity="1" stroke-width="0.2" stroke-linejoin="round" stroke="#FFFFFF" stroke-opacity="1" d="M 27,38L 32,38L 32,46L 40,46L 40,51L 32,51L 32,59L 27,59L 27,51L 19,51L 19,46L 27,46L 27,38 Z M 49.0833,33.25C 53.4555,33.25 57,36.7945 57,41.1667C 57,45.5389 53.4045,48.9999 49,49L 41,49L 41,45L 33,45L 33,37L 26,37L 26,45L 19,45C 19.3193,43.427 20.6505,41.5261 22.2328,41.233L 22.1667,40.3749C 22.1667,37.3993 24.5123,34.9713 27.4553,34.8389C 28.7579,31.1462 32.2783,28.4999 36.4167,28.4999C 40.3459,28.4999 43.7179,30.8853 45.1637,34.2869C 46.3193,33.627 47.6573,33.25 49.0833,33.25 Z "/>
</svg>
