<?xml version="1.0" encoding="utf-8"?>
<!DOCTYPE svg PUBLIC "-//W3C//DTD SVG 1.1//EN" "http://www.w3.org/Graphics/SVG/1.1/DTD/svg11.dtd">
<svg xmlns="http://www.w3.org/2000/svg" xmlns:xlink="http://www.w3.org/1999/xlink" version="1.1" baseProfile="full" width="76" height="76" viewBox="0 0 76.00 76.00" enable-background="new 0 0 76.00 76.00" xml:space="preserve">
	<path fill="#000000" fill-opacity="1" stroke-width="0.2" stroke-linejoin="round" d="M 17,20L 59,20L 59,56L 17,56L 17,20 Z M 20,23L 20,53L 56,53L 56,23L 20,23 Z M 22.2,45.587L 28.6901,45.8216C 27.8683,47.0524 27.2837,48.4537 27.0002,49.9591L 22.2,45.587 Z M 31.4067,36.2829L 35.8293,41.0372C 34.3245,41.3367 32.93,41.9362 31.7095,42.7699L 31.4067,36.2829 Z M 44.4959,36.2141L 44.2613,42.7041C 43.0305,41.8824 41.6292,41.2978 40.1238,41.0143L 44.4959,36.2141 Z M 53.8,45.4208L 49.0458,49.8434C 48.7462,48.3386 48.1467,46.9441 47.313,45.7236L 53.8,45.4208 Z M 40.3592,43.3721C 44.0122,44.3509 46.533,47.446 46.956,50.9848L 29.114,50.9848L 29.3581,49.7237C 30.642,44.9319 35.5674,42.0882 40.3592,43.3721 Z M 37,25L 39,25L 39,30L 43,30L 38,35L 33,30L 37,30L 37,25 Z "/>
</svg>
