<?xml version="1.0" encoding="utf-8"?>
<!DOCTYPE svg PUBLIC "-//W3C//DTD SVG 1.1//EN" "http://www.w3.org/Graphics/SVG/1.1/DTD/svg11.dtd">
<svg xmlns="http://www.w3.org/2000/svg" xmlns:xlink="http://www.w3.org/1999/xlink" version="1.1" baseProfile="full" width="76" height="76" viewBox="0 0 76.00 76.00" enable-background="new 0 0 76.00 76.00" xml:space="preserve">
	<path fill="#000000" fill-opacity="1" stroke-width="0.2" stroke-linejoin="round" d="M 17,17L 33,17L 33,33L 17,33L 17,17 Z M 43,43L 59,43L 59,59L 43,59L 43,43 Z M 51,25L 51,42L 42,42L 42,51L 25,51L 25,34L 34,34L 34,25L 51,25 Z M 46,46L 46,56L 56,56L 56,46L 46,46 Z M 20,20L 20,30L 30,30L 30,20L 20,20 Z "/>
</svg>
