<?xml version="1.0" encoding="utf-8"?>
<!DOCTYPE svg PUBLIC "-//W3C//DTD SVG 1.1//EN" "http://www.w3.org/Graphics/SVG/1.1/DTD/svg11.dtd">
<svg xmlns="http://www.w3.org/2000/svg" xmlns:xlink="http://www.w3.org/1999/xlink" version="1.1" baseProfile="full" width="76" height="76" viewBox="0 0 76.00 76.00" enable-background="new 0 0 76.00 76.00" xml:space="preserve">
	<path fill="#000000" fill-opacity="1" stroke-width="0.2" stroke-linejoin="round" d="M 19,47.5L 22.1667,47.5L 22.1667,52.25L 53.8333,52.25L 53.8333,47.5L 57,47.5L 57,55.4167L 19,55.4167L 19,47.5 Z M 22.6139,42.7315L 22.6139,33.0962L 22.4957,28.5818L 26.3086,28.5818L 26.4859,30.512L 26.5746,30.512C 26.8778,30.0198 27.388,29.5347 28.1052,29.0567C 28.8223,28.5787 29.8057,28.3219 31.0554,28.2863C 32.0147,28.2952 32.837,28.5128 33.5223,28.939C 34.2076,29.3653 34.7093,29.9466 35.0274,30.6832L 35.0865,30.6832C 35.6424,29.9413 36.2577,29.3706 36.9325,28.9712C 37.6838,28.5289 38.5628,28.3006 39.5693,28.2863C 40.9784,28.2766 42.1327,28.7667 43.0321,29.7567C 43.9315,30.7466 44.3962,32.2942 44.4262,34.3996L 44.4262,42.7315L 40.0517,42.7315L 40.0517,35.036C 40.0534,34.0024 39.8868,33.2056 39.5518,32.6457C 39.2167,32.0859 38.7028,31.8026 38.0099,31.796C 37.4989,31.8074 37.0748,31.9581 36.7375,32.2479C 36.4002,32.5378 36.1533,32.8982 35.9968,33.3291L 35.855,34.4574L 35.855,42.7315L 31.4806,42.7315L 31.4806,34.7757C 31.4837,33.8794 31.3104,33.1622 30.9607,32.624C 30.611,32.0858 30.0659,31.8098 29.3254,31.796C 28.7348,31.8177 28.2619,31.9912 27.9065,32.3166C 27.5511,32.6421 27.3058,32.9892 27.1705,33.3581C 27.0339,33.7197 26.9732,34.0958 26.9884,34.4864L 26.9884,42.7315L 22.6139,42.7315 Z M 52.0213,42.7315L 47.6249,42.7315L 47.6249,28.5818L 52.0213,28.5818L 52.0213,42.7315 Z M 49.9854,22.0796C 50.7055,22.0935 51.2689,22.3044 51.6757,22.7124C 52.0825,23.1204 52.2962,23.6423 52.3168,24.278C 52.3101,24.901 52.0976,25.4191 51.6793,25.8325C 51.261,26.2458 50.6769,26.4603 49.9271,26.476C 49.2192,26.4603 48.6606,26.2458 48.2514,25.8325C 47.8422,25.4191 47.6334,24.901 47.6249,24.278C 47.634,23.6423 47.8489,23.1204 48.2696,22.7124C 48.6904,22.3044 49.2623,22.0935 49.9854,22.0796 Z "/>
</svg>
