<?xml version="1.0" encoding="utf-8"?>
<!DOCTYPE svg PUBLIC "-//W3C//DTD SVG 1.1//EN" "http://www.w3.org/Graphics/SVG/1.1/DTD/svg11.dtd">
<svg xmlns="http://www.w3.org/2000/svg" xmlns:xlink="http://www.w3.org/1999/xlink" version="1.1" baseProfile="full" width="76" height="76" viewBox="0 0 76.00 76.00" enable-background="new 0 0 76.00 76.00" xml:space="preserve">
	<path fill="#000000" fill-opacity="1" stroke-width="0.2" stroke-linejoin="round" d="M 15.8333,22.1667L 60.1667,22.1667L 60.1667,53.8333L 15.8333,53.8334L 15.8333,22.1667 Z M 19,25.3334L 19,50.6667L 57,50.6667L 57,25.3334L 19,25.3334 Z M 26.9167,36.4167L 36.4167,36.4167L 36.4167,33.25L 31.2708,33.25L 38,26.5208L 44.7292,33.25L 39.5833,33.25L 39.5833,36.4167L 49.0833,36.4167L 49.0833,31.2708L 55.8125,38L 49.0833,44.7292L 49.0833,39.5833L 39.5833,39.5833L 39.5833,42.75L 44.7292,42.75L 38,49.4792L 31.2708,42.75L 36.4167,42.75L 36.4167,39.5833L 26.9167,39.5833L 26.9167,44.7292L 20.1875,38L 26.9167,31.2708L 26.9167,36.4167 Z "/>
</svg>
