<?xml version="1.0" encoding="utf-8"?>
<!DOCTYPE svg PUBLIC "-//W3C//DTD SVG 1.1//EN" "http://www.w3.org/Graphics/SVG/1.1/DTD/svg11.dtd">
<svg xmlns="http://www.w3.org/2000/svg" xmlns:xlink="http://www.w3.org/1999/xlink" version="1.1" baseProfile="full" width="76" height="76" viewBox="0 0 76.00 76.00" enable-background="new 0 0 76.00 76.00" xml:space="preserve">
	<path fill="#000000" fill-opacity="1" stroke-width="0.2" stroke-linejoin="round" d="M 30.0833,20.5833C 36.2045,20.5833 41.1667,25.5455 41.1667,31.6667C 41.1667,32.9121 40.9612,34.1096 40.5824,35.2271L 41.2098,35.6999L 42.75,38.3958L 45.9562,37.294L 45.0696,43.0703L 50.0614,42.37L 49.8929,47.9923L 55.4166,45.125L 56.941,46.6616L 58.5833,54.7394L 51.9312,55.6743L 33.8897,42.0791C 32.7027,42.5131 31.4207,42.75 30.0833,42.75C 23.9622,42.75 19,37.7878 19,31.6667C 19,25.5455 23.9622,20.5833 30.0833,20.5833 Z M 26.9167,26.125C 25.605,26.125 24.5417,27.1883 24.5417,28.5C 24.5417,29.8117 25.605,30.875 26.9167,30.875C 28.2283,30.875 29.2917,29.8117 29.2917,28.5C 29.2917,27.1883 28.2283,26.125 26.9167,26.125 Z "/>
</svg>
