<?xml version="1.0" encoding="utf-8"?>
<!DOCTYPE svg PUBLIC "-//W3C//DTD SVG 1.1//EN" "http://www.w3.org/Graphics/SVG/1.1/DTD/svg11.dtd">
<svg xmlns="http://www.w3.org/2000/svg" xmlns:xlink="http://www.w3.org/1999/xlink" version="1.1" baseProfile="full" width="76" height="76" viewBox="0 0 76.00 76.00" enable-background="new 0 0 76.00 76.00" xml:space="preserve">
	<path fill="#000000" fill-opacity="1" stroke-width="0.2" stroke-linejoin="round" d="M 21,36.5L 27,37L 27,28L 21,22L 21,36.5 Z M 27,39L 21,39.5L 21,54L 27,48L 27,39 Z M 49,37L 55,36.5L 55,22L 49,28L 49,37 Z M 55,39.5L 49,39L 49,48L 55,54L 55,39.5 Z M 58,19L 58,57L 55,57L 49,51L 27,51L 21,57L 18,57L 18,19L 21,19L 27,25L 49,25L 55,19L 58,19 Z M 46,28L 30,28L 30,48L 46,48L 46,28 Z "/>
</svg>
