<?xml version="1.0" encoding="utf-8"?>
<!DOCTYPE svg PUBLIC "-//W3C//DTD SVG 1.1//EN" "http://www.w3.org/Graphics/SVG/1.1/DTD/svg11.dtd">
<svg xmlns="http://www.w3.org/2000/svg" xmlns:xlink="http://www.w3.org/1999/xlink" version="1.1" baseProfile="full" width="76" height="76" viewBox="0 0 76.00 76.00" enable-background="new 0 0 76.00 76.00" xml:space="preserve">
	<path fill="#000000" fill-opacity="1" stroke-width="0.2" stroke-linejoin="round" d="M 27.9999,56L 17,56L 17,20L 59,20L 59,28L 49.9999,28.0001L 50,39L 38.9999,39.0001L 39,50L 38.9999,50.0001L 28,50L 27.9999,50.0001L 27.9999,56 Z M 37.9999,38.0001L 42.7499,38.0001L 45.9166,34.8334L 48.9998,37.9166L 48.9998,27.0002L 56,27L 56,23L 20,23L 20,53L 26.9999,53.0001L 26.9999,51L 24,51L 30.0833,44.3333L 33.25,47.5L 37.9999,42.7501L 37.9999,38.0001 Z M 30.9999,56.0001L 30.9999,53.0001L 41.9999,53.0001L 41.9999,42.0001L 42,42L 52.9999,42.0001L 53,42L 53,31L 59,31L 59,56L 30.9999,56.0001 Z M 42.9998,53.0001L 56,53L 56,32L 54,32L 54,51L 42.9998,51L 42.9998,53.0001 Z M 30.0833,26.9167C 30.0833,30.4145 27.2478,33.25 23.75,33.25C 23.2033,33.25 22.5061,33.1303 22,33L 22,25L 29.6666,25C 29.7968,25.5061 30.0833,26.37 30.0833,26.9167 Z "/>
</svg>
