<?xml version="1.0" encoding="utf-8"?>
<!DOCTYPE svg PUBLIC "-//W3C//DTD SVG 1.1//EN" "http://www.w3.org/Graphics/SVG/1.1/DTD/svg11.dtd">
<svg xmlns="http://www.w3.org/2000/svg" xmlns:xlink="http://www.w3.org/1999/xlink" version="1.1" baseProfile="full" width="76" height="76" viewBox="0 0 76.00 76.00" enable-background="new 0 0 76.00 76.00" xml:space="preserve">
	<path fill="#000000" fill-opacity="1" stroke-width="0.2" stroke-linejoin="round" d="M 30.0833,20.5833L 50.6665,36.021L 50.6665,37.2084L 30.0833,52.25L 30.0833,20.5833 Z M 26.9166,57L 28.5,57L 28.5,63.3333L 31.6666,63.3333L 31.6666,64.9167L 28.5,64.9167L 26.9166,64.9167L 26.9166,57 Z M 33.25,64.9167L 33.25,57L 34.8333,57L 34.8333,64.9167L 33.25,64.9167 Z M 36.8124,57L 38.7916,57L 40.375,62.2779L 41.9583,57L 43.9375,57L 41.1666,64.9167L 39.5833,64.9167L 36.8124,57 Z M 45.9166,57L 47.5,57L 50.6666,57L 50.6666,58.5833L 47.5,58.5833L 47.5,60.1667L 50.6667,60.1667L 50.6667,61.75L 47.5,61.75L 47.5,63.3333L 50.6667,63.3333L 50.6667,64.9167L 47.5,64.9167L 45.9166,64.9167L 45.9166,57 Z "/>
</svg>
