<?xml version="1.0" encoding="utf-8"?>
<!DOCTYPE svg PUBLIC "-//W3C//DTD SVG 1.1//EN" "http://www.w3.org/Graphics/SVG/1.1/DTD/svg11.dtd">
<svg xmlns="http://www.w3.org/2000/svg" xmlns:xlink="http://www.w3.org/1999/xlink" version="1.1" baseProfile="full" width="76.0106" height="76.0106" viewBox="0 0 76.01 76.01" enable-background="new 0 0 76.01 76.01" xml:space="preserve">
	<path fill="#000000" fill-opacity="1" stroke-width="0.2" stroke-linejoin="round" d="M 24.0033,56.0078L 24.0033,38.0053L 21.753,39.7556L 18.5026,34.8799L 38.0053,20.2528L 46.0064,26.2536L 46.0064,21.7531L 50.007,21.0029L 50.007,29.0041L 57.508,34.8799L 54.2576,39.7556L 52.0072,38.0053L 52.0072,56.0078L 24.0033,56.0078 Z M 38.0013,48.8868C 36.8634,48.8868 35.941,49.8092 35.941,50.9471C 35.941,52.085 36.8634,53.0074 38.0013,53.0074C 39.1392,53.0074 40.0616,52.085 40.0616,50.9471C 40.0616,49.8092 39.1392,48.8868 38.0013,48.8868 Z M 38.4134,32.4045C 34.7722,32.4045 31.8204,35.1718 31.8204,38.5854L 31.8204,39.4095L 35.941,39.4095L 35.941,38.1733C 35.941,36.8079 37.0479,35.701 38.4134,35.701C 39.7788,35.701 40.8857,36.8079 40.8857,38.1733C 40.8857,38.7688 40.8857,38.9975 39.2375,40.6457C 38.4134,41.4698 35.941,43.1998 35.941,46.0024L 35.941,47.2386L 40.0616,47.2386L 40.0616,45.5904C 40.0616,44.2249 40.8857,43.118 42.5339,42.2939C 44.1822,41.4698 45.0063,39.4095 45.0063,38.1733C 45.0063,34.7597 42.0545,32.4045 38.4134,32.4045 Z "/>
</svg>
