<?xml version="1.0" encoding="utf-8"?>
<!DOCTYPE svg PUBLIC "-//W3C//DTD SVG 1.1//EN" "http://www.w3.org/Graphics/SVG/1.1/DTD/svg11.dtd">
<svg xmlns="http://www.w3.org/2000/svg" xmlns:xlink="http://www.w3.org/1999/xlink" version="1.1" baseProfile="full" width="76" height="76" viewBox="0 0 76.00 76.00" enable-background="new 0 0 76.00 76.00" xml:space="preserve">
	<path fill="#000000" fill-opacity="1" stroke-width="0.2" stroke-linejoin="round" d="M 31.667,20.5844L 34.8346,20.5844L 44.3359,12.6667L 44.3359,39.5871L 34.8346,30.0857L 31.667,30.0857C 29.9179,30.0857 28.4999,28.6678 28.4999,26.9186L 28.4999,23.7515C 28.4999,22.0024 29.9179,20.5844 31.667,20.5844 Z M 56.9998,26.2507C 56.9998,29.715 55.4107,32.8081 52.9216,34.8408L 50.666,32.5853C 52.5889,31.1407 53.8327,28.841 53.8327,26.2507C 53.8327,23.6605 52.5889,21.3607 50.666,19.9162L 52.9216,17.6606C 55.4107,19.6933 56.9998,22.7864 56.9998,26.2507 Z M 50.6657,26.2507C 50.6657,28.3621 49.2883,30.1518 47.383,30.7702L 45.915,27.8343C 46.7896,27.8343 47.4986,27.1253 47.4986,26.2507C 47.4986,25.3762 46.7896,24.6672 45.915,24.6672L 47.383,21.7312C 49.2883,22.3496 50.6657,24.1393 50.6657,26.2507 Z M 44.3328,44.3382C 46.082,44.3382 47.4999,45.7561 47.4999,47.5053L 47.4999,50.6724C 47.4999,52.4215 46.082,53.8395 44.3328,53.8395L 41.1653,53.8395L 31.664,63.3408L 31.664,36.4204L 41.1653,44.3382L 44.3328,44.3382 Z M 19,50.0045C 19,46.5402 20.5892,43.4471 23.0783,41.4144L 25.3339,43.6699C 23.4109,45.1145 22.1671,47.4142 22.1671,50.0045C 22.1671,52.5947 23.4109,54.8944 25.3338,56.339L 23.0783,58.5946C 20.5892,56.5619 19,53.4687 19,50.0045 Z M 25.3342,50.0045C 25.3342,47.893 26.7116,46.1034 28.6168,45.4849L 30.0848,48.4209C 29.2102,48.4209 28.5013,49.1299 28.5013,50.0045C 28.5013,50.879 29.2103,51.588 30.0848,51.588L 28.6168,54.5239C 26.7116,53.9055 25.3342,52.1159 25.3342,50.0045 Z "/>
</svg>
