<?xml version="1.0" encoding="utf-8"?>
<!DOCTYPE svg PUBLIC "-//W3C//DTD SVG 1.1//EN" "http://www.w3.org/Graphics/SVG/1.1/DTD/svg11.dtd">
<svg xmlns="http://www.w3.org/2000/svg" xmlns:xlink="http://www.w3.org/1999/xlink" version="1.1" baseProfile="full" width="76" height="76" viewBox="0 0 76.00 76.00" enable-background="new 0 0 76.00 76.00" xml:space="preserve">
	<path fill="#000000" fill-opacity="1" stroke-width="0.2" stroke-linejoin="round" d="M 19,47.5L 22.1667,47.5L 22.1667,52.25L 53.8333,52.25L 53.8333,47.5L 57,47.5L 57,55.4167L 19,55.4167L 19,47.5 Z M 33.3001,42.7315L 28.9037,42.7315L 28.9037,31.796L 26.9825,31.796L 26.9825,28.5818L 28.9037,28.5818L 28.9037,27.9739C 28.8995,27.0105 29.0381,26.0788 29.3195,25.1785C 29.6009,24.2783 30.0504,23.5261 30.668,22.9217C 31.2434,22.4014 31.8785,22.0309 32.5733,21.8103C 33.2681,21.5897 33.9537,21.4824 34.6302,21.4885C 35.5958,21.5124 36.384,21.6109 36.9948,21.784L 36.8175,25.2221C 36.4381,25.0835 35.9554,25.0088 35.3691,24.9982C 34.6352,25.0182 34.1007,25.2902 33.7658,25.8141C 33.4309,26.338 33.266,26.994 33.2709,27.7819L 33.2709,28.5818L 36.1672,28.5818L 36.1672,31.796L 33.3001,31.796L 33.3001,42.7315 Z M 39.6915,25.8921L 44.0879,24.6803L 44.0879,28.5818L 47.3097,28.5818L 47.3097,31.796L 44.0879,31.796L 44.0879,36.9925C 44.0787,37.8555 44.208,38.4929 44.4758,38.9045C 44.7437,39.3161 45.2055,39.5204 45.8613,39.5174L 46.604,39.4917L 47.1914,39.3999L 47.221,42.6591L 46.0276,42.9174L 44.3244,43.0271C 42.839,42.9846 41.7079,42.5884 40.9308,41.8383C 40.1046,41.0475 39.6915,39.6573 39.6915,37.6678L 39.6915,31.796L 37.7703,31.796L 37.7703,28.5818L 39.6915,28.5818L 39.6915,25.8921 Z "/>
</svg>
