<?xml version="1.0" encoding="utf-8"?>
<!DOCTYPE svg PUBLIC "-//W3C//DTD SVG 1.1//EN" "http://www.w3.org/Graphics/SVG/1.1/DTD/svg11.dtd">
<svg xmlns="http://www.w3.org/2000/svg" xmlns:xlink="http://www.w3.org/1999/xlink" version="1.1" baseProfile="full" width="76" height="76" viewBox="0 0 76.00 76.00" enable-background="new 0 0 76.00 76.00" xml:space="preserve">
	<path fill="#000000" fill-opacity="1" stroke-width="0.2" stroke-linejoin="round" d="M 23.5,45.5L 30,52L 40.5,41.5L 44,45L 30,59L 20,49L 23.5,45.5 Z M 20,17L 43.25,17L 56,29.75L 56,59L 32,59L 36,55L 52,55L 52,34L 39,34L 39,21L 24,21L 24,43L 20,47L 20,17 Z M 20,59L 20,51L 28,59L 20,59 Z M 43,22.25L 43,30L 50.75,30L 43,22.25 Z "/>
</svg>
