<?xml version="1.0" encoding="utf-8"?>
<!DOCTYPE svg PUBLIC "-//W3C//DTD SVG 1.1//EN" "http://www.w3.org/Graphics/SVG/1.1/DTD/svg11.dtd">
<svg xmlns="http://www.w3.org/2000/svg" xmlns:xlink="http://www.w3.org/1999/xlink" version="1.1" baseProfile="full" width="76.0106" height="76.0106" viewBox="0 0 76.01 76.01" enable-background="new 0 0 76.01 76.01" xml:space="preserve">
	<path fill="#000000" fill-opacity="1" stroke-width="0.2" stroke-linejoin="round" d="M 18.0025,57.0081L 18.0025,23.0032L 23.0032,23.0032L 23.0032,20.0028C 23.0033,18.898 23.8988,18.0025 25.0035,18.0025L 29.004,18.0025C 30.1087,18.0025 31.0042,18.898 31.0043,20.0026L 31.0043,23.0032L 45.0063,23.0032L 45.0062,20.0026C 45.0062,18.8978 45.9018,18.0023 47.0065,18.0023L 51.0071,18.0023C 52.1118,18.0023 53.0074,18.8978 53.0074,20.0026L 53.0074,23.0032L 58.0081,23.0032L 58.0081,57.0081L 18.0025,57.0081 Z M 21.0029,54.0077L 55.0076,54.0077L 55.0076,31.0044L 21.0029,31.0044L 21.0029,54.0077 Z M 23.0032,47.0066L 29.004,47.0066L 29.004,52.0073L 23.0032,52.0073L 23.0032,47.0066 Z M 31.0043,47.0066L 37.0051,47.0066L 37.0051,52.0073L 31.0043,52.0073L 31.0043,47.0066 Z M 39.0054,47.0066L 45.0062,47.0066L 45.0062,52.0073L 39.0054,52.0073L 39.0054,47.0066 Z M 47.0065,47.0066L 53.0073,47.0066L 53.0073,52.0073L 47.0065,52.0073L 47.0065,47.0066 Z M 23.0032,40.0056L 29.004,40.0056L 29.004,45.0063L 23.0032,45.0063L 23.0032,40.0056 Z M 31.0043,40.0056L 37.0051,40.0056L 37.0051,45.0063L 31.0043,45.0063L 31.0043,40.0056 Z M 39.0054,40.0056L 45.0062,40.0056L 45.0062,45.0063L 39.0054,45.0063L 39.0054,40.0056 Z M 47.0065,40.0056L 53.0073,40.0056L 53.0073,45.0063L 47.0065,45.0063L 47.0065,40.0056 Z M 31.0043,33.0048L 37.0051,33.0048L 37.0051,38.0055L 31.0043,38.0055L 31.0043,33.0048 Z M 39.0054,33.0048L 45.0062,33.0048L 45.0062,38.0055L 39.0054,38.0055L 39.0054,33.0048 Z M 47.0065,33.0048L 53.0073,33.0048L 53.0073,38.0055L 47.0065,38.0055L 47.0065,33.0048 Z M 48.5066,20.0029C 47.6781,20.0029 47.0064,20.6746 47.0064,21.5031L 47.0064,24.5036C 47.0064,25.3321 47.6781,26.0038 48.5066,26.0038L 49.5068,26.0038C 50.3353,26.0038 51.007,25.3321 51.007,24.5036L 51.007,21.5031C 51.007,20.6746 50.3353,20.0029 49.5068,20.0029L 48.5066,20.0029 Z M 26.5037,20.0029C 25.6751,20.0029 25.0034,20.6746 25.0034,21.5031L 25.0034,24.5035C 25.0034,25.3321 25.6751,26.0037 26.5037,26.0037L 27.5038,26.0037C 28.3323,26.0037 29.004,25.3321 29.004,24.5035L 29.004,21.5031C 29.004,20.6746 28.3323,20.0029 27.5038,20.0029L 26.5037,20.0029 Z M 32.0044,41.0058L 32.0044,44.0062L 36.005,44.0062L 36.005,41.0058L 32.0044,41.0058 Z M 24.0033,41.0058L 24.0033,44.0062L 28.0039,44.0062L 28.0039,41.0058L 24.0033,41.0058 Z M 40.0056,41.0058L 40.0056,44.0062L 44.0061,44.0062L 44.0061,41.0058L 40.0056,41.0058 Z M 48.0067,41.0057L 48.0067,44.0062L 52.0072,44.0062L 52.0072,41.0057L 48.0067,41.0057 Z M 32.0044,34.0048L 32.0044,37.0052L 36.005,37.0052L 36.005,34.0048L 32.0044,34.0048 Z M 40.0056,34.0048L 40.0056,37.0052L 44.0061,37.0052L 44.0061,34.0048L 40.0056,34.0048 Z M 48.0067,34.0048L 48.0067,37.0052L 52.0072,37.0052L 52.0072,34.0048L 48.0067,34.0048 Z M 48.0067,48.0067L 48.0067,51.0071L 52.0072,51.0071L 52.0072,48.0067L 48.0067,48.0067 Z M 40.0056,48.0067L 40.0056,51.0071L 44.0061,51.0071L 44.0061,48.0067L 40.0056,48.0067 Z M 32.0045,48.0067L 32.0045,51.0071L 36.005,51.0071L 36.005,48.0067L 32.0045,48.0067 Z M 24.0033,48.0067L 24.0033,51.0071L 28.0039,51.0071L 28.0039,48.0067L 24.0033,48.0067 Z "/>
</svg>
