<?xml version="1.0" encoding="utf-8"?>
<!DOCTYPE svg PUBLIC "-//W3C//DTD SVG 1.1//EN" "http://www.w3.org/Graphics/SVG/1.1/DTD/svg11.dtd">
<svg xmlns="http://www.w3.org/2000/svg" xmlns:xlink="http://www.w3.org/1999/xlink" version="1.1" baseProfile="full" width="76" height="76" viewBox="0 0 76.00 76.00" enable-background="new 0 0 76.00 76.00" xml:space="preserve">
	<path fill="#000000" fill-opacity="0.203922" stroke-width="0.2" stroke-linejoin="round" d="M 31.6667,22.1667L 24.5417,22.1667L 28.5,17.4167L 33.25,17.4167L 31.6667,22.1667 Z "/>
	<path fill="#000000" fill-opacity="1" stroke-width="0.2" stroke-linejoin="round" d="M 23.75,30.0833L 28.5,25.3333L 36.6668,25.3333C 35.2467,23.4239 32.8281,22.1667 30.0833,22.1667L 23.75,22.1667L 28.5,17.4167L 53.8333,17.4167L 49.0833,22.1667L 42.3467,22.1667C 43.0138,23.123 43.5339,24.1895 43.8744,25.3333L 53.8333,25.3333L 49.0833,30.0833L 44.2211,30.0833C 43.4528,35.4545 38.8336,39.5833 33.25,39.5833L 32.3176,39.5447L 45.9167,58.5833L 39.5833,58.5833L 25.3333,38.6334L 25.3333,36.4167L 26.9166,36.4167L 30.0833,36.4167C 34.1583,36.4167 37.5141,33.6458 37.9517,30.0833L 23.75,30.0833 Z "/>
</svg>
