<?xml version="1.0" encoding="utf-8"?>
<!DOCTYPE svg PUBLIC "-//W3C//DTD SVG 1.1//EN" "http://www.w3.org/Graphics/SVG/1.1/DTD/svg11.dtd">
<svg xmlns="http://www.w3.org/2000/svg" xmlns:xlink="http://www.w3.org/1999/xlink" version="1.1" baseProfile="full" width="76" height="76" viewBox="0 0 76.00 76.00" enable-background="new 0 0 76.00 76.00" xml:space="preserve">
	<path fill="#FFFFFF" fill-opacity="1" stroke-width="0.2" stroke-linejoin="round" d="M 14.25,19L 36.4167,19L 39.5833,19L 61.75,19L 61.75,30.0833L 39.5833,30.0833L 36.4167,30.0833L 14.25,30.0833L 14.25,19 Z M 36.4166,26.9167L 36.4166,22.1667L 17.4167,22.1667L 17.4167,26.9167L 36.4166,26.9167 Z M 58.5833,26.9167L 58.5833,22.1667L 39.5833,22.1667L 39.5833,26.9167L 58.5833,26.9167 Z M 36.4166,33.25L 39.5833,33.25L 39.5833,36.4167L 42.75,36.4167L 42.75,39.5834L 39.5833,39.5834L 39.5833,42.75L 36.4166,42.75L 36.4166,39.5834L 33.25,39.5834L 33.25,36.4167L 36.4167,36.4167L 36.4166,33.25 Z M 22.1667,33.25L 25.3333,33.25L 25.3333,36.4167L 30.0833,36.4167L 30.0833,39.5834L 22.1667,39.5834L 22.1667,33.25 Z M 50.6667,33.25L 53.8333,33.25L 53.8333,39.5833L 45.9167,39.5833L 45.9167,36.4167L 50.6667,36.4167L 50.6667,33.25 Z M 14.25,45.9167L 61.75,45.9167L 61.75,57L 14.25,57L 14.25,45.9167 Z M 17.4166,49.0834L 17.4166,53.8334L 58.5833,53.8333L 58.5833,49.0833L 17.4166,49.0834 Z "/>
</svg>
