<?xml version="1.0" encoding="utf-8"?>
<!DOCTYPE svg PUBLIC "-//W3C//DTD SVG 1.1//EN" "http://www.w3.org/Graphics/SVG/1.1/DTD/svg11.dtd">
<svg xmlns="http://www.w3.org/2000/svg" xmlns:xlink="http://www.w3.org/1999/xlink" version="1.1" baseProfile="full" width="76" height="76" viewBox="0 0 76.00 76.00" enable-background="new 0 0 76.00 76.00" xml:space="preserve">
	<path fill="#000000" fill-opacity="1" stroke-width="0.2" stroke-linejoin="round" d="M 38,19C 47.3888,19 55,21.0147 55,23.5038L 55,25.5C 55,27.9853 47.3888,30 38,30C 28.6112,30 21,27.9853 21,25.5L 21,23.5C 21,21.0147 28.6112,19 38,19 Z M 55,52.5C 55,54.9853 47.3888,57 38,57C 28.6112,57 21,54.9853 21,52.5L 21,46.5C 21,48.9853 28.6112,51 38,51C 47.384,51 54.9921,48.9874 55,46.5039L 55,52.5 Z M 55,43.5C 55,45.9853 47.3888,48 38,48C 28.6112,48 21,45.9853 21,43.5L 21,37.5C 21,39.9853 28.6112,42 38,42C 47.384,42 54.9921,39.9874 55,37.5038L 55,43.5 Z M 55,34.5C 55,36.9853 47.3888,39 38,39C 28.6112,39 21,36.9853 21,34.5L 21,28.5C 21,30.9853 28.6112,33 38,33C 47.384,33 54.9921,30.9874 55,28.5038L 55,34.5 Z "/>
</svg>
