<?xml version="1.0" encoding="utf-8"?>
<!DOCTYPE svg PUBLIC "-//W3C//DTD SVG 1.1//EN" "http://www.w3.org/Graphics/SVG/1.1/DTD/svg11.dtd">
<svg xmlns="http://www.w3.org/2000/svg" xmlns:xlink="http://www.w3.org/1999/xlink" version="1.1" baseProfile="full" width="76" height="76" viewBox="0 0 76.00 76.00" enable-background="new 0 0 76.00 76.00" xml:space="preserve">
	<path fill="#000000" fill-opacity="1" stroke-width="0.2" stroke-linejoin="round" d="M 23.75,19.7917C 23.75,19.7917 25.3333,16.625 33.25,16.625C 37.1223,16.625 39.4162,17.9403 41.4185,19.4987L 36.8968,35.0898C 34.7402,33.6397 32.5299,32.4583 30.0833,32.4583C 23.75,32.4583 20.5833,34.0417 20.5833,34.0417L 23.75,19.7917 Z M 52.25,24.5417C 60.1667,24.5417 61.75,21.375 61.75,21.375L 57,37.2083C 57,37.2083 53.8333,40.375 47.5,40.375C 44.6133,40.375 42.0555,38.7303 39.5268,36.9402L 43.9792,21.588C 46.0059,23.181 48.3116,24.5417 52.25,24.5417 Z M 19,38.7917C 19,38.7917 20.5833,35.625 28.5,35.625C 31.9766,35.625 34.181,36.6853 36.0442,38.0298L 31.5082,53.6702C 29.5528,52.4186 27.5391,51.4583 25.3333,51.4583C 19,51.4583 15.8333,53.0417 15.8333,53.0417L 19,38.7917 Z M 47.5,43.5417C 55.4167,43.5417 57,40.375 57,40.375L 52.25,56.2083C 52.25,56.2083 49.0833,59.375 42.75,59.375C 39.6233,59.375 36.8825,57.4455 34.1466,55.4916L 38.6129,40.0916C 40.8001,41.8876 43.1576,43.5417 47.5,43.5417 Z "/>
</svg>
