<?xml version="1.0" encoding="utf-8"?>
<!DOCTYPE svg PUBLIC "-//W3C//DTD SVG 1.1//EN" "http://www.w3.org/Graphics/SVG/1.1/DTD/svg11.dtd">
<svg xmlns="http://www.w3.org/2000/svg" xmlns:xlink="http://www.w3.org/1999/xlink" version="1.1" baseProfile="full" width="76" height="76" viewBox="0 0 76.00 76.00" enable-background="new 0 0 76.00 76.00" xml:space="preserve">
	<path fill="#000000" fill-opacity="1" stroke-width="0.2" stroke-linejoin="round" d="M 21,48L 32,48L 32,51L 21,51L 21,48 Z M 50.5,49C 50.5,52.0376 48.0376,54.5 45,54.5C 41.9625,54.5 39.5,52.0376 39.5,49C 39.5,46.3039 41.4399,44.0609 44,43.5907L 44,31L 46,31L 46,43.5907C 48.5601,44.061 50.5,46.3039 50.5,49 Z M 54,49C 54,53.9706 49.9705,58 45,58C 40.0294,58 36,53.9706 36,49C 36,45.4663 38.0366,42.4083 41,40.9356L 41,22.0001C 41,19.7909 42.7909,18.0001 45,18.0001C 47.2091,18.0001 49,19.7909 49,22.0001L 49,40.9355C 51.9634,42.4082 54,45.4663 54,49 Z M 43,42.2899C 40.1085,43.1505 38,45.829 38,49C 38,52.866 41.134,56 45,56C 48.866,56 52,52.866 52,49C 52,45.829 49.8914,43.1505 47,42.2899L 47,22.0001C 47,20.8955 46.1046,20.0001 45,20.0001C 43.8954,20.0001 43,20.8955 43,22.0001L 43,42.2899 Z M 40,21L 40,22L 34,22L 34,21L 40,21 Z M 40,24L 40,25L 36,25L 36,24L 40,24 Z M 40,27L 40,28L 34,28L 34,27L 40,27 Z M 40,30L 40,31L 36,31L 36,30L 40,30 Z M 40,33L 40,34L 34,34L 34,33L 40,33 Z M 40,36L 40,37L 36,37L 36,36L 40,36 Z M 40,39L 40,40L 34,40L 34,39L 40,39 Z M 21,25L 25,25L 25,21L 28,21L 28,25L 32,25L 32,28L 28,28L 28,32L 25,32L 25,28L 21,28L 21,25 Z "/>
</svg>
