<?xml version="1.0" encoding="utf-8"?>
<!DOCTYPE svg PUBLIC "-//W3C//DTD SVG 1.1//EN" "http://www.w3.org/Graphics/SVG/1.1/DTD/svg11.dtd">
<svg xmlns="http://www.w3.org/2000/svg" xmlns:xlink="http://www.w3.org/1999/xlink" version="1.1" baseProfile="full" width="76.0106" height="76.0106" viewBox="0 0 76.01 76.01" enable-background="new 0 0 76.01 76.01" xml:space="preserve">
	<path fill="#000000" fill-opacity="1" stroke-width="0.2" stroke-linejoin="round" d="M 26.9165,26.9164L 30.0836,26.9164L 30.0875,30.0875L 33.2503,30.0831L 33.2546,33.2546L 42.756,33.2546L 42.7498,30.0831L 45.9165,30.0831L 45.9165,26.9164L 49.0836,26.9164L 49.0836,30.0835L 45.9169,30.0835L 45.9231,33.2546L 49.0902,33.2546L 49.0902,36.4218L 52.2573,36.4218L 52.2573,39.5889L 49.0902,39.5889L 49.0836,49.0836L 45.9169,49.0836L 45.9169,52.2502L 39.5889,52.2573L 39.5889,49.0902L 45.9165,49.0831L 45.9231,44.3395L 30.0875,44.3395L 30.0875,49.0902L 26.9204,49.0902L 26.9165,39.5835L 23.7503,39.5835L 23.7503,45.9169L 20.5832,45.9169L 20.5832,39.5831L 23.7498,39.5831L 23.7498,36.4164L 26.9165,36.4164L 26.9204,33.2546L 30.0875,33.2546L 30.0832,30.0835L 26.9165,30.0835L 26.9165,26.9164 Z M 52.2573,39.5889L 55.4244,39.5889L 55.4244,45.9231L 52.2573,45.9231L 52.2573,39.5889 Z M 30.0875,49.0902L 36.4217,49.0902L 36.4217,52.2573L 30.0875,52.2573L 30.0875,49.0902 Z M 30.0875,36.4218L 30.0875,39.5889L 33.2546,39.5889L 33.2546,36.4218L 30.0875,36.4218 Z M 42.756,36.4218L 42.756,39.5889L 45.9231,39.5889L 45.9231,36.4218L 42.756,36.4218 Z "/>
</svg>
