<?xml version="1.0" encoding="utf-8"?>
<!DOCTYPE svg PUBLIC "-//W3C//DTD SVG 1.1//EN" "http://www.w3.org/Graphics/SVG/1.1/DTD/svg11.dtd">
<svg xmlns="http://www.w3.org/2000/svg" xmlns:xlink="http://www.w3.org/1999/xlink" version="1.1" baseProfile="full" width="76" height="76" viewBox="0 0 76.00 76.00" enable-background="new 0 0 76.00 76.00" xml:space="preserve">
	<path fill="#000000" fill-opacity="1" stroke-width="0.2" stroke-linejoin="round" d="M 48,45L 58,45L 58,48L 48,48L 48,45 Z M 48,50L 58,50L 58,53L 48,53L 48,50 Z M 48,55L 58,55L 58,58L 48,58L 48,55 Z M 44,55L 47,55L 47,58L 44,58L 44,55 Z M 44,50L 47,50L 47,53L 44,53L 44,50 Z M 44,45L 47,45L 47,48L 44,48L 44,45 Z M 21,19.0001L 52.9999,19.0001L 52.9999,43L 48.9999,43.0001L 44.9998,43L 44.9998,40.0001L 28.9999,40.0001L 28.9999,53.0001L 42,53.0001L 42,57L 21,57L 21,19.0001 Z M 28.9999,23.0002L 28.9999,36.0001L 44.9998,36.0001L 44.9998,23.0002L 28.9999,23.0002 Z M 24.9999,36.0001C 23.8954,36.0001 22.9999,36.8955 22.9999,38.0001C 22.9999,39.1046 23.8954,40.0001 24.9999,40.0001C 26.1045,40.0001 26.9999,39.1046 26.9999,38.0001C 26.9999,36.8955 26.1045,36.0001 24.9999,36.0001 Z M 24.9999,29.0001C 23.8954,29.0001 22.9999,29.8956 22.9999,31.0001C 22.9999,32.1047 23.8954,33.0001 24.9999,33.0001C 26.1045,33.0001 26.9999,32.1047 26.9999,31.0001C 26.9999,29.8956 26.1045,29.0001 24.9999,29.0001 Z M 24.9999,22.0001C 23.8954,22.0001 22.9999,22.8956 22.9999,24.0001C 22.9999,25.1047 23.8954,26.0001 24.9999,26.0001C 26.1045,26.0001 26.9999,25.1047 26.9999,24.0001C 26.9999,22.8956 26.1045,22.0001 24.9999,22.0001 Z M 24.9999,50.0001C 23.8954,50.0001 22.9999,50.8955 22.9999,52.0001C 22.9999,53.1046 23.8954,54.0001 24.9999,54.0001C 26.1045,54.0001 26.9999,53.1046 26.9999,52.0001C 26.9999,50.8955 26.1045,50.0001 24.9999,50.0001 Z M 24.9999,43.0001C 23.8954,43.0001 22.9999,43.8955 22.9999,45.0001C 22.9999,46.1046 23.8954,47.0001 24.9999,47.0001C 26.1045,47.0001 26.9999,46.1046 26.9999,45.0001C 26.9999,43.8955 26.1045,43.0001 24.9999,43.0001 Z M 48.9998,36.0001C 47.8953,36.0001 46.9998,36.8955 46.9998,38.0001C 46.9998,39.1046 47.8953,40.0001 48.9998,40.0001C 50.1044,40.0001 50.9998,39.1046 50.9998,38.0001C 50.9998,36.8955 50.1044,36.0001 48.9998,36.0001 Z M 48.9998,29.0002C 47.8953,29.0002 46.9998,29.8956 46.9998,31.0002C 46.9998,32.1047 47.8953,33.0002 48.9998,33.0002C 50.1044,33.0002 50.9998,32.1047 50.9998,31.0002C 50.9998,29.8956 50.1044,29.0002 48.9998,29.0002 Z M 48.9998,22.0002C 47.8953,22.0002 46.9998,22.8956 46.9998,24.0002C 46.9998,25.1047 47.8953,26.0002 48.9998,26.0002C 50.1044,26.0002 50.9998,25.1047 50.9998,24.0002C 50.9998,22.8956 50.1044,22.0002 48.9998,22.0002 Z "/>
</svg>
