<?xml version="1.0" encoding="utf-8"?>
<!DOCTYPE svg PUBLIC "-//W3C//DTD SVG 1.1//EN" "http://www.w3.org/Graphics/SVG/1.1/DTD/svg11.dtd">
<svg xmlns="http://www.w3.org/2000/svg" xmlns:xlink="http://www.w3.org/1999/xlink" version="1.1" baseProfile="full" width="76" height="76" viewBox="0 0 76.00 76.00" enable-background="new 0 0 76.00 76.00" xml:space="preserve">
	<path fill="#000000" fill-opacity="1" stroke-width="0.2" stroke-linejoin="round" d="M 43.5469,44.3228L 43.5469,33.0442L 50.4337,33.0442L 50.4337,35.1869L 46.0592,35.1869L 46.0592,37.7567L 50.1465,37.7567L 50.1465,39.7628L 46.0592,39.7628L 46.0592,44.3228L 43.5469,44.3228 Z M 54.4192,44.3228L 51.9069,44.3228L 51.9069,36.2372L 54.4192,36.2372L 54.4192,44.3228 Z M 53.2558,32.5217C 53.6673,32.5296 53.9892,32.6501 54.2217,32.8833C 54.4541,33.1164 54.5762,33.4146 54.588,33.7779C 54.5842,34.1339 54.4628,34.43 54.2238,34.6662C 53.9847,34.9024 53.651,35.0249 53.2225,35.0339C 52.818,35.0249 52.4988,34.9024 52.265,34.6662C 52.0311,34.43 51.9118,34.1339 51.9069,33.7779C 51.9121,33.4146 52.035,33.1164 52.2754,32.8833C 52.5158,32.6501 52.8426,32.5296 53.2558,32.5217 Z M 38,22.1667C 42.4292,22.1667 46.4336,23.9854 49.3073,26.9167L 52.25,26.9168C 58.3711,26.9168 63.3333,31.8789 63.3333,38C 63.3333,44.1212 58.3711,49.0833 52.25,49.0833L 49.3073,49.0833C 46.4336,52.0147 42.4292,53.8333 38,53.8333C 33.5708,53.8333 29.5664,52.0147 26.6927,49.0833L 23.75,49.0833C 17.6289,49.0833 12.6667,44.1212 12.6667,38C 12.6667,31.8789 17.6289,26.9168 23.75,26.9168L 26.6927,26.9167C 29.5664,23.9854 33.5708,22.1667 38,22.1667 Z M 52.25,30.0834L 42.75,30.0834C 39.5833,30.0834 41.1666,38 39.8433,38C 38,38 39.5833,45.9167 36.4166,45.9167L 52.25,45.9167C 56.6223,45.9167 60.1667,42.3723 60.1667,38C 60.1667,33.6278 56.6223,30.0834 52.25,30.0834 Z M 23.2796,44.3228L 24.3589,39.4628L 24.713,37.8087L 25.0166,36.0314L 25.0503,36.0314L 25.2885,37.8188L 25.59,39.4942L 26.5512,44.3228L 29.3338,44.3228L 32.2683,33.0442L 29.6542,33.0442L 28.7267,37.6793L 28.069,41.6417L 28.0353,41.6417L 27.7633,39.7584L 27.4282,37.8246L 26.5175,33.0283L 23.7855,33.0283L 22.8242,37.6725L 22.0822,41.6417L 22.0485,41.6417L 21.7365,39.7424L 21.3739,37.6794L 20.5138,33.0283L 17.765,33.0283L 20.4633,44.3228L 23.2796,44.3228 Z M 35.5617,44.3228L 35.5617,36.2372L 33.0494,36.2372L 33.0494,44.3228L 35.5617,44.3228 Z M 34.3983,32.5217C 33.9851,32.5296 33.6583,32.6501 33.4179,32.8833C 33.1775,33.1164 33.0546,33.4146 33.0494,33.7779C 33.0543,34.1339 33.1736,34.43 33.4075,34.6662C 33.6413,34.9024 33.9605,35.0249 34.365,35.0339C 34.7935,35.0249 35.1272,34.9024 35.3663,34.6662C 35.6053,34.43 35.7267,34.1339 35.7305,33.7779C 35.7187,33.4146 35.5966,33.1164 35.3642,32.8833C 35.1317,32.6501 34.8098,32.5296 34.3983,32.5217 Z "/>
</svg>
