<?xml version="1.0" encoding="utf-8"?>
<!DOCTYPE svg PUBLIC "-//W3C//DTD SVG 1.1//EN" "http://www.w3.org/Graphics/SVG/1.1/DTD/svg11.dtd">
<svg xmlns="http://www.w3.org/2000/svg" xmlns:xlink="http://www.w3.org/1999/xlink" version="1.1" baseProfile="full" width="76" height="76" viewBox="0 0 76.00 76.00" enable-background="new 0 0 76.00 76.00" xml:space="preserve">
	<path fill="#000000" fill-opacity="1" stroke-width="0.2" stroke-linejoin="round" d="M 17.4167,50.6667C 16.5422,50.6667 15.8333,49.9578 15.8333,49.0833L 15.8333,39.5834C 15.8333,37.0877 17.2768,34.9292 19.3745,33.8972L 25.3333,19L 26.9167,19L 30.0833,19L 45.9167,19L 49.0833,19L 50.6667,19L 56.6255,33.8972C 58.7231,34.9292 60.1666,37.0877 60.1666,39.5834L 60.1667,49.0833C 60.1667,49.9578 59.4578,50.6667 58.5833,50.6667L 57,50.6667L 57,53.8333C 57,55.5822 55.5822,57 53.8333,57C 52.0844,57 50.6667,55.5822 50.6667,53.8333L 50.6667,50.6667L 25.3333,50.6667L 25.3333,53.8333C 25.3333,55.5822 23.9156,57 22.1667,57C 20.4178,57 19,55.5822 19,53.8333L 19,50.6667L 17.4167,50.6667 Z M 24.3833,33.25L 51.6166,33.25L 47.8166,23.75L 28.1833,23.75L 24.3833,33.25 Z M 24.1458,36.0209C 22.3969,36.0209 20.5833,37.8344 20.5833,39.5833C 20.5833,41.3322 22.3969,43.1458 24.1458,43.1458C 25.8947,43.1458 27.7083,41.3323 27.7083,39.5834C 27.7083,37.8345 25.8947,36.0209 24.1458,36.0209 Z M 51.8542,36.0208C 50.1053,36.0208 48.2917,37.8344 48.2917,39.5833C 48.2917,41.3322 50.1053,43.1458 51.8542,43.1458C 53.6031,43.1458 55.4167,41.3322 55.4167,39.5833C 55.4167,37.8344 53.6031,36.0208 51.8542,36.0208 Z "/>
</svg>
