<?xml version="1.0" encoding="utf-8"?>
<!DOCTYPE svg PUBLIC "-//W3C//DTD SVG 1.1//EN" "http://www.w3.org/Graphics/SVG/1.1/DTD/svg11.dtd">
<svg xmlns="http://www.w3.org/2000/svg" xmlns:xlink="http://www.w3.org/1999/xlink" version="1.1" baseProfile="full" width="76" height="76" viewBox="0 0 76.00 76.00" enable-background="new 0 0 76.00 76.00" xml:space="preserve">
	<path fill="#000000" fill-opacity="1" stroke-width="0.2" stroke-linejoin="round" d="M 47.5,57C 46.6255,57 45.9167,56.2911 45.9167,55.4167L 45.9167,52.25L 30.0833,52.25L 30.0833,55.4167C 30.0833,56.2911 29.3744,57 28.5,57L 26.9167,57C 26.0422,57 25.3333,56.2911 25.3333,55.4167L 25.3333,52.25L 22.1667,52.25L 23.75,26.125C 23.75,22.19 30.1299,19 38,19C 45.8701,19 52.25,22.19 52.25,26.125L 53.8333,52.25L 50.6667,52.25L 50.6667,55.4167C 50.6667,56.2911 49.9578,57 49.0833,57L 47.5,57 Z M 27.7083,42.75C 26.3966,42.75 25.3333,43.8133 25.3333,45.125C 25.3333,46.4367 26.3966,47.5 27.7083,47.5C 29.02,47.5 30.0833,46.4367 30.0833,45.125C 30.0833,43.8133 29.02,42.75 27.7083,42.75 Z M 48.2916,42.75C 46.98,42.75 45.9166,43.8133 45.9166,45.125C 45.9166,46.4367 46.98,47.5 48.2916,47.5C 49.6033,47.5 50.6666,46.4367 50.6666,45.125C 50.6666,43.8133 49.6033,42.75 48.2916,42.75 Z M 31.6666,22.1667C 31.2294,22.1667 30.875,22.5211 30.875,22.9584C 30.875,23.3956 31.2294,23.75 31.6667,23.75L 44.3333,23.75C 44.7705,23.75 45.125,23.3956 45.125,22.9584C 45.125,22.5211 44.7705,22.1667 44.3333,22.1667L 31.6666,22.1667 Z M 25.7292,37.6042L 50.2708,37.6042L 49.0833,27.3125C 49.0833,26.4381 48.3744,25.7292 47.5,25.7292L 28.5,25.7292C 27.6255,25.7292 26.9166,26.4381 26.9166,27.3125L 25.7292,37.6042 Z "/>
</svg>
