<?xml version="1.0" encoding="utf-8"?>
<!DOCTYPE svg PUBLIC "-//W3C//DTD SVG 1.1//EN" "http://www.w3.org/Graphics/SVG/1.1/DTD/svg11.dtd">
<svg xmlns="http://www.w3.org/2000/svg" xmlns:xlink="http://www.w3.org/1999/xlink" version="1.1" baseProfile="full" width="76" height="76" viewBox="0 0 76.00 76.00" enable-background="new 0 0 76.00 76.00" xml:space="preserve">
	<path fill="#000000" fill-opacity="1" stroke-width="0.2" stroke-linejoin="round" d="M 43.2933,23.75L 46.441,26.8977C 46.1046,26.1827 45.9167,25.3841 45.9167,24.5417C 45.9167,21.4811 48.3978,19 51.4583,19C 54.5189,19 57,21.4811 57,24.5417C 57,27.6022 54.5189,30.0833 51.4583,30.0833C 50.6159,30.0833 49.8173,29.8954 49.1023,29.559L 52.25,32.7067C 52.8683,33.325 52.8683,34.3275 52.25,34.9459L 51.8425,35.3533C 51.2242,35.9717 50.2217,35.9717 49.6034,35.3533L 40.6467,26.3967C 40.0283,25.7783 40.0283,24.7758 40.6467,24.1575L 41.0541,23.75C 41.6725,23.1317 42.675,23.1317 43.2933,23.75 Z "/>
	<path fill="#000000" fill-opacity="1" stroke-width="0.2" stroke-linejoin="round" d="M 40.9067,27.8442L 48.1616,35.3476C 48.1616,35.3476 34.8333,49.0833 27.0147,51.9261C 25.2404,53.5024 22.9778,55.4035 21.2586,56.4761L 19.5546,54.7721C 20.6116,53.0706 22.4763,50.8309 24.056,49.0382C 26.9167,41.1667 40.9067,27.8442 40.9067,27.8442 Z "/>
</svg>
