<?xml version="1.0" encoding="utf-8"?>
<!DOCTYPE svg PUBLIC "-//W3C//DTD SVG 1.1//EN" "http://www.w3.org/Graphics/SVG/1.1/DTD/svg11.dtd">
<svg xmlns="http://www.w3.org/2000/svg" xmlns:xlink="http://www.w3.org/1999/xlink" version="1.1" baseProfile="full" width="76.0106" height="76.0106" viewBox="0 0 76.01 76.01" enable-background="new 0 0 76.01 76.01" xml:space="preserve">
	<path fill="#000000" fill-opacity="1" stroke-width="0.2" stroke-linejoin="round" d="M 20.0025,55.0081L 20.0025,21.0032L 25.0032,21.0032L 25.0032,18.0028C 25.0033,16.898 25.8988,16.0025 27.0035,16.0025L 31.004,16.0025C 32.1087,16.0025 33.0042,16.898 33.0043,18.0026L 33.0043,21.0032L 47.0063,21.0032L 47.0062,18.0026C 47.0062,16.8978 47.9018,16.0023 49.0065,16.0023L 53.0071,16.0023C 54.1118,16.0023 55.0074,16.8978 55.0074,18.0026L 55.0074,21.0032L 60.0081,21.0032L 60.0081,55.0081L 20.0025,55.0081 Z M 23.0029,52.0077L 57.0076,52.0077L 57.0076,29.0044L 23.0029,29.0044L 23.0029,52.0077 Z M 25.0032,45.0066L 31.004,45.0066L 31.004,50.0073L 25.0032,50.0073L 25.0032,45.0066 Z M 33.0043,45.0066L 39.0051,45.0066L 39.0051,50.0073L 33.0043,50.0073L 33.0043,45.0066 Z M 41.0054,45.0066L 47.0062,45.0066L 47.0062,50.0073L 41.0054,50.0073L 41.0054,45.0066 Z M 49.0064,45.0066L 55.0073,45.0066L 55.0073,50.0073L 49.0064,50.0073L 49.0064,45.0066 Z M 25.0032,38.0056L 31.004,38.0056L 31.004,43.0063L 25.0032,43.0063L 25.0032,38.0056 Z M 33.0043,38.0056L 39.0051,38.0056L 39.0051,43.0063L 33.0043,43.0063L 33.0043,38.0056 Z M 41.0054,38.0056L 47.0062,38.0056L 47.0062,43.0063L 41.0054,43.0063L 41.0054,38.0056 Z M 49.0064,38.0056L 55.0073,38.0056L 55.0073,43.0063L 49.0064,43.0063L 49.0064,38.0056 Z M 33.0043,31.0049L 39.0051,31.0049L 39.0051,36.0055L 33.0043,36.0055L 33.0043,31.0049 Z M 41.0054,31.0049L 47.0062,31.0049L 47.0062,36.0055L 41.0054,36.0055L 41.0054,31.0049 Z M 49.0064,31.0049L 55.0073,31.0049L 55.0073,36.0055L 49.0064,36.0055L 49.0064,31.0049 Z M 50.5066,18.0029C 49.6781,18.0029 49.0064,18.6746 49.0064,19.5031L 49.0064,22.5036C 49.0064,23.3321 49.6781,24.0038 50.5066,24.0038L 51.5068,24.0038C 52.3353,24.0038 53.007,23.3321 53.007,22.5036L 53.007,19.5031C 53.007,18.6746 52.3353,18.0029 51.5068,18.0029L 50.5066,18.0029 Z M 28.5036,18.0029C 27.6751,18.0029 27.0034,18.6746 27.0034,19.5031L 27.0034,22.5035C 27.0034,23.3321 27.6751,24.0037 28.5036,24.0037L 29.5038,24.0037C 30.3323,24.0037 31.004,23.3321 31.004,22.5035L 31.004,19.5031C 31.004,18.6746 30.3323,18.0029 29.5038,18.0029L 28.5036,18.0029 Z M 34.0044,39.0058L 34.0044,42.0062L 38.005,42.0062L 38.005,39.0058L 34.0044,39.0058 Z M 26.0033,39.0058L 26.0033,42.0062L 30.0039,42.0062L 30.0039,39.0058L 26.0033,39.0058 Z M 42.0056,39.0058L 42.0056,42.0062L 46.0061,42.0062L 46.0061,39.0058L 42.0056,39.0058 Z M 50.0066,39.0058L 50.0066,42.0062L 54.0072,42.0062L 54.0072,39.0058L 50.0066,39.0058 Z M 34.0044,32.0048L 34.0044,35.0052L 38.005,35.0052L 38.005,32.0048L 34.0044,32.0048 Z M 42.0056,32.0048L 42.0056,35.0052L 46.0061,35.0052L 46.0061,32.0048L 42.0056,32.0048 Z M 50.0067,32.0048L 50.0067,35.0052L 54.0072,35.0052L 54.0072,32.0048L 50.0067,32.0048 Z M 50.0067,46.0067L 50.0067,49.0071L 54.0072,49.0071L 54.0072,46.0067L 50.0067,46.0067 Z M 42.0056,46.0067L 42.0056,49.0071L 46.0061,49.0071L 46.0061,46.0067L 42.0056,46.0067 Z M 34.0045,46.0067L 34.0045,49.0071L 38.005,49.0071L 38.005,46.0067L 34.0045,46.0067 Z M 26.0033,46.0067L 26.0033,49.0071L 30.0039,49.0071L 30.0039,46.0067L 26.0033,46.0067 Z M 19.0024,23.0034L 19.0024,56.0081L 58.0078,56.0081L 58.0078,57.0083L 18.0021,57.0083L 18.0021,23.0034L 19.0024,23.0034 Z M 17.0022,25.0035L 17.0022,58.0082L 56.0077,58.0082L 56.0076,59.0084L 16.0019,59.0084L 16.0019,25.0035L 17.0022,25.0035 Z "/>
</svg>
