<?xml version="1.0" encoding="utf-8"?>
<!DOCTYPE svg PUBLIC "-//W3C//DTD SVG 1.1//EN" "http://www.w3.org/Graphics/SVG/1.1/DTD/svg11.dtd">
<svg xmlns="http://www.w3.org/2000/svg" xmlns:xlink="http://www.w3.org/1999/xlink" version="1.1" baseProfile="full" width="76" height="76" viewBox="0 0 76.00 76.00" enable-background="new 0 0 76.00 76.00" xml:space="preserve">
	<path fill="#000000" fill-opacity="1" stroke-width="0.2" stroke-linejoin="round" d="M 43.0235,56.3877C 40.6991,58.9411 35.3843,59.1409 30.0833,56.9038L 30.0833,60.1667L 22.1667,60.1667L 22.1667,51.3388C 15.8866,44.545 14.3799,34.7369 18.3927,31.7568L 28.3404,41.7046L 33.4892,38.0269C 33.2473,37.4571 33.1135,36.8304 33.1135,36.1724C 33.1135,33.5491 35.2402,31.4224 37.8635,31.4224C 40.4869,31.4224 42.6135,33.5491 42.6135,36.1724C 42.6135,38.7958 40.4869,40.9224 37.8635,40.9224C 37.0687,40.9224 36.3194,40.7272 35.6611,40.3821L 32.0598,45.4239L 43.0235,56.3877 Z M 38,23.75C 44.9956,23.75 50.6667,29.4211 50.6667,36.4167C 50.6667,39.0008 49.8928,41.4042 48.5643,43.4077C 48.9025,42.1907 49.0833,40.9081 49.0833,39.5833C 49.0833,31.7133 42.7034,25.3333 34.8333,25.3333C 33.5085,25.3333 32.226,25.5141 31.0089,25.8524C 33.0125,24.5238 35.4159,23.75 38,23.75 Z M 40.219,15.8334C 50.3614,15.8334 58.5833,24.5121 58.5833,35.2179C 58.5833,39.1725 57.4614,42.8505 55.5353,45.9167C 56.0257,44.0542 56.2878,42.0914 56.2878,40.064C 56.2878,28.02 47.0381,18.2564 35.628,18.2564C 33.7073,18.2564 31.8478,18.5331 30.0833,19.0507C 32.9881,17.0176 36.4726,15.8334 40.219,15.8334 Z "/>
</svg>
