<?xml version="1.0" encoding="utf-8"?>
<!DOCTYPE svg PUBLIC "-//W3C//DTD SVG 1.1//EN" "http://www.w3.org/Graphics/SVG/1.1/DTD/svg11.dtd">
<svg xmlns="http://www.w3.org/2000/svg" xmlns:xlink="http://www.w3.org/1999/xlink" version="1.1" baseProfile="full" width="76" height="76" viewBox="0 0 76.00 76.00" enable-background="new 0 0 76.00 76.00" xml:space="preserve">
	<path fill="#000000" fill-opacity="1" stroke-linejoin="round" d="M 26,36C 27.0445,36 28.0356,36.2288 28.9259,36.639L 33,29L 31,29L 31,27L 37,27L 37,29L 35,29L 33.4,32L 43.4615,32L 44,31L 41,31L 41,29L 47,29L 47,31L 46,31L 44.6538,33.5L 45,33.5L 46.8543,36.745C 47.8,36.2684 48.8686,36 50,36C 53.866,36 57,39.134 57,43C 57,46.866 53.866,50 50,50C 46.4735,50 43.5561,47.3923 43.0709,44L 39,44L 38,44L 37,44L 31.9231,34.7692L 30.4259,37.5765C 31.997,38.8601 33,40.8129 33,43C 33,46.866 29.866,50 26,50C 22.134,50 19,46.866 19,43C 19,39.134 22.134,36 26,36 Z M 40.0769,42L 43.0709,42C 43.3144,40.2974 44.1706,38.7925 45.409,37.7157L 43.8515,34.9901L 40.0769,42 Z M 42.3846,34L 33.5,34L 37.9894,42.1626L 42.3846,34 Z M 26,38C 23.2386,38 21,40.2386 21,43C 21,45.7615 23.2386,48 26,48C 28.7614,48 31,45.7615 31,43C 31,41.5808 30.4086,40.2996 29.4589,39.3895L 27,44L 25,44L 27.9822,38.4083C 27.3744,38.1456 26.7042,38 26,38 Z M 50,38C 49.2298,38 48.5003,38.1742 47.8487,38.4852L 51,44L 50.5,44L 49,44L 45.1,44C 45.5632,46.2823 47.581,48 50,48C 52.7614,48 55,45.7614 55,43C 55,40.2386 52.7614,38 50,38 Z M 45.1,42L 47.8571,42L 46.4288,39.5005C 45.7671,40.1756 45.2953,41.0376 45.1,42 Z "/>
</svg>
