<?xml version="1.0" encoding="utf-8"?>
<!DOCTYPE svg PUBLIC "-//W3C//DTD SVG 1.1//EN" "http://www.w3.org/Graphics/SVG/1.1/DTD/svg11.dtd">
<svg xmlns="http://www.w3.org/2000/svg" xmlns:xlink="http://www.w3.org/1999/xlink" version="1.1" baseProfile="full" width="76" height="76" viewBox="0 0 76.00 76.00" enable-background="new 0 0 76.00 76.00" xml:space="preserve">
	<path fill="#000000" fill-opacity="1" stroke-width="0.2" stroke-linejoin="round" d="M 39.0141,51.7687C 35.7963,51.7687 32.9463,53.3225 31.1283,55.6995C 33.2622,56.5314 35.5738,57 37.9999,57C 41.0074,57 43.8401,56.2864 46.3675,55.0409C 44.5494,53.0353 41.9295,51.7687 39.0141,51.7687 Z M 25.989,31.1769C 29.854,29.6147 34.0686,28.7449 38.4914,28.7449C 42.8728,28.7449 47.0503,29.5978 50.8849,31.1305C 51.4046,31.3965 51.7682,31.9158 51.7682,32.5364C 51.7682,33.4189 51.0525,34.1325 50.1717,34.1325C 50.0489,34.1325 49.9319,34.1071 49.8179,34.0818C 46.3164,32.6674 42.4966,31.882 38.4914,31.882C 34.4828,31.882 30.6596,32.6716 27.1573,34.0818C 27.0445,34.1071 26.9314,34.1325 26.8111,34.1325C 25.9303,34.1325 25.2155,33.4189 25.2155,32.5364C 25.2155,31.958 25.5271,31.4556 25.989,31.1769 Z M 49.7736,38.8487C 49.5764,39.1231 49.2703,39.3131 48.9068,39.3131C 48.8063,39.3131 48.7147,39.2836 48.6222,39.2582C 45.5222,37.886 42.0984,37.1176 38.4914,37.1176C 34.9109,37.1176 31.5099,37.8733 28.4273,39.2245C 28.3158,39.2625 28.2014,39.2962 28.076,39.2962C 27.7057,39.2962 27.3941,39.102 27.1986,38.8149L 26.9934,38.1985C 26.9964,37.8818 27.1459,37.6031 27.3692,37.4089C 30.7652,35.8805 34.5263,35.0233 38.4914,35.0233C 42.4548,35.0233 46.2126,35.8805 49.6085,37.4047C 49.8361,37.5989 49.9822,37.886 49.9877,38.2027M 48.1565,43.7C 47.8799,44.3165 47.3859,44.4431 46.8071,44.1771C 44.2771,43.0033 41.4609,42.3489 38.4914,42.3489C 35.4425,42.3489 32.5571,43.0413 29.9743,44.27C 29.6982,44.4009 29.0902,44.46 28.8166,43.6704C 28.5426,42.8851 28.9749,42.4376 29.224,42.3236C 32.0411,41.0062 35.1761,40.2547 38.4914,40.2547C 41.7472,40.2547 44.8809,40.8753 47.6089,42.2518C 48.04,42.4713 48.4326,43.0878 48.1565,43.7 Z M 25.7086,52.4738C 28.6334,48.26 33.494,45.4902 39.0141,45.4902C 44.0406,45.4902 48.5175,47.7871 51.4887,51.376C 54.8939,47.9433 56.9999,43.2187 56.9999,38.0042C 56.9999,27.5078 48.4943,19 37.9999,19C 27.5069,19 18.9999,27.5078 18.9999,38.0042C 18.9999,43.8056 21.6084,48.9905 25.7086,52.4738 Z "/>
</svg>
