<?xml version="1.0" encoding="utf-8"?>
<!DOCTYPE svg PUBLIC "-//W3C//DTD SVG 1.1//EN" "http://www.w3.org/Graphics/SVG/1.1/DTD/svg11.dtd">
<svg xmlns="http://www.w3.org/2000/svg" xmlns:xlink="http://www.w3.org/1999/xlink" version="1.1" baseProfile="full" width="76" height="76" viewBox="0 0 76.00 76.00" enable-background="new 0 0 76.00 76.00" xml:space="preserve">
	<path fill="#000000" fill-opacity="1" stroke-width="0.2" stroke-linejoin="round" d="M 22,38L 27,38L 27,35L 23,35L 23,22L 53,22L 53,35L 49,35L 49,38L 54,38L 54,55L 22,55L 22,38 Z M 32,38L 32,32L 30,32L 30.0833,38L 32,38 Z M 32,25L 42,25L 49.0833,32.4583L 49,33L 51,33L 51,24L 25,24L 25,33L 27,33L 27,29L 32,29L 32,25 Z M 25,41L 25,52L 51,52L 51,41L 25,41 Z M 17,60L 17,16L 59,16L 59,60L 17,60 Z M 56,19L 20,19L 20,57L 56,57L 56,19 Z M 32,44L 35,44L 35,46L 41,46L 41,44L 44,44L 44,49L 32,49L 32,44 Z M 35,28L 35,38L 46,38L 46,35L 39,35L 39,28L 35,28 Z M 41,28L 41,33L 46,33L 41,28 Z "/>
</svg>
