<?xml version="1.0" encoding="utf-8"?>
<!DOCTYPE svg PUBLIC "-//W3C//DTD SVG 1.1//EN" "http://www.w3.org/Graphics/SVG/1.1/DTD/svg11.dtd">
<svg xmlns="http://www.w3.org/2000/svg" xmlns:xlink="http://www.w3.org/1999/xlink" version="1.1" baseProfile="full" width="76" height="76" viewBox="0 0 76.00 76.00" enable-background="new 0 0 76.00 76.00" xml:space="preserve">
	<path fill="#000000" fill-opacity="1" stroke-width="0.2" stroke-linejoin="round" d="M 46.4732,21.9826C 50.1164,21.9826 53.0698,24.8991 53.0698,28.4968L 53.0635,28.7846C 55.775,29.5936 57.7493,32.0797 57.7493,35.0213C 57.7493,37.0685 56.793,38.8952 55.2974,40.0894C 54.0308,37.8594 51.7563,36.2947 49.1065,36.0377C 48.9469,31.8776 44.9453,27.9195 40.0414,27.9195C 37.29,27.9195 34.8248,29.0554 33.1613,30.8491C 33.1307,30.619 33.1149,30.3843 33.1149,30.1459C 33.1149,27.1858 35.5515,24.7862 38.5572,24.7862C 39.3402,24.7862 40.0847,24.949 40.7575,25.2423C 41.8977,23.2938 44.0304,21.9826 46.4732,21.9826 Z M 48.3232,37.6497C 51.8838,37.6497 54.8202,40.7834 55.2354,44.8268C 57.3424,44.5329 59.8558,43.5729 60.5837,40.7522C 60.5837,40.7522 61.1333,45.4815 55.2699,46.3679C 55.2006,47.5789 54.8132,48.7176 54.3421,49.7268C 45.9265,48.8362 32.6202,35.7943 24.4801,34.8375C 25.7011,33.4237 27.4552,32.5373 29.4043,32.5373C 30.7754,32.5373 32.05,32.9759 33.1105,33.7283C 34.4484,31.1488 37.0139,29.4039 39.9589,29.4039C 44.2413,29.4039 47.721,33.0933 47.7914,37.6731C 47.9669,37.6576 48.1443,37.6497 48.3232,37.6497 Z M 52.3491,52.4997C 51.2183,53.4302 49.8097,53.9764 48.3232,53.9764L 30.971,54.0176L 21.9006,54.0176L 21.9006,53.9946C 20.1701,53.8587 18.4579,52.9679 17.2566,51.3994C 15.5093,49.1179 15.371,46.0923 16.7108,43.8928C 15.3339,42.3612 14.7747,40.4309 15.4163,38.7197C 16.4318,36.0111 20.0756,34.8669 23.5911,36.1342C 23.6185,36.083 23.6464,36.0322 23.6749,35.9818C 38.2273,39.7936 47.4626,55.2957 60.4015,50.0459C 59.6114,51.3363 57.5335,53.3748 52.3491,52.4997 Z M 18.0056,42.4106C 19.422,41.2637 21.218,40.9213 22.9136,41.3083C 22.7905,40.7698 22.7574,38.8241 22.8192,38.4365C 22.6634,38.3613 17.4479,37.1136 17.0177,39.864C 16.6555,40.8302 16.8895,41.9052 17.5525,42.8192C 17.695,42.6763 17.846,42.5398 18.0056,42.4106 Z "/>
</svg>
