<?xml version="1.0" encoding="utf-8"?>
<!DOCTYPE svg PUBLIC "-//W3C//DTD SVG 1.1//EN" "http://www.w3.org/Graphics/SVG/1.1/DTD/svg11.dtd">
<svg xmlns="http://www.w3.org/2000/svg" xmlns:xlink="http://www.w3.org/1999/xlink" version="1.1" baseProfile="full" width="76" height="76" viewBox="0 0 76.00 76.00" enable-background="new 0 0 76.00 76.00" xml:space="preserve">
	<path fill="#000000" fill-opacity="1" stroke-width="0.2" stroke-linejoin="round" d="M 27.7221,48.2991C 22.1667,50.6667 21.4941,56.8336 22.766,55.4523C 30.2426,47.0743 34.4269,40.2614 36.76,35.125C 31.6002,25.9387 31.8796,14.635 37.9093,16.9458C 42.5866,18.7382 40.3545,23.0832 40.3545,23.0832C 40.3545,23.0832 39.7309,17.771 36.8125,18.6042C 36.116,18.7783 35.2582,25.4654 38.0971,31.8382C 40.0108,26.4778 39.6257,23.694 39.6257,23.694C 39.6257,23.694 44.4664,24.9554 40.0649,35.2833C 40.6006,36.0286 41.2037,36.7499 41.8815,37.4343C 42.8865,38.5858 43.894,39.5811 44.8903,40.4409C 47.8562,39.3684 50.7859,38.5921 53.0717,38.5921C 60.3583,38.5921 60.1667,45.9167 60.1667,45.9167C 58.5426,42.2264 53.5996,41.9021 48.2032,42.8653C 54.5071,46.7006 59.6426,45.6317 59.6426,45.6317C 59.106,50.0635 52.0743,50.4677 44.1396,43.7901C 39.8148,44.9614 35.6532,46.619 33.0903,47.7215C 26.4927,57.8007 20.6758,62.7377 19.4259,56.8004C 17.8425,49.2796 27.7221,48.2991 27.7221,48.2991 Z M 39.7906,39.4675L 38.7217,38.1415L 37.6342,40.1754C 36.7219,41.8103 35.8082,43.3751 34.9025,44.8555C 36.7884,43.9056 39.2316,42.725 41.8117,41.6458C 41.1395,40.9716 40.4646,40.2461 39.7906,39.4675 Z "/>
</svg>
