<?xml version="1.0" encoding="utf-8"?>
<!DOCTYPE svg PUBLIC "-//W3C//DTD SVG 1.1//EN" "http://www.w3.org/Graphics/SVG/1.1/DTD/svg11.dtd">
<svg xmlns="http://www.w3.org/2000/svg" xmlns:xlink="http://www.w3.org/1999/xlink" version="1.1" baseProfile="full" width="76" height="76" viewBox="0 0 76.00 76.00" enable-background="new 0 0 76.00 76.00" xml:space="preserve">
	<path fill="#000000" fill-opacity="1" stroke-width="0.2" stroke-linejoin="round" d="M 19,38L 19,22L 24,22L 24,20L 29,20L 29,19L 46.75,19L 57,29.25L 57,38L 59,38L 59,57L 58.5833,57L 17.4167,57L 17,57L 17,38L 19,38 Z M 24,38L 24,25L 22,25L 22,38L 24,38 Z M 27,23L 27,38L 29,38L 29,23L 27,23 Z M 43,46L 43,49L 33,49L 33,46L 43,46 Z M 54,38L 54,33L 43,33L 43,22L 32,22L 32,38L 54,38 Z M 46,22.75L 46,30L 53.25,30L 46,22.75 Z M 21,42L 21,53L 55,53L 55,42L 21,42 Z "/>
</svg>
