<?xml version="1.0" encoding="utf-8"?>
<!DOCTYPE svg PUBLIC "-//W3C//DTD SVG 1.1//EN" "http://www.w3.org/Graphics/SVG/1.1/DTD/svg11.dtd">
<svg xmlns="http://www.w3.org/2000/svg" xmlns:xlink="http://www.w3.org/1999/xlink" version="1.1" baseProfile="full" width="76" height="76" viewBox="0 0 76.00 76.00" enable-background="new 0 0 76.00 76.00" xml:space="preserve">
	<path fill="#000000" fill-opacity="1" stroke-width="0.2" stroke-linejoin="round" d="M 33,31L 59,31L 59,36L 33,36L 33,31 Z M 36,39L 59,39L 59,44L 36,44L 36,39 Z M 33,47L 59,47L 59,52L 33,52L 33,47 Z M 23,44C 18.0294,44 14,39.9706 14,35C 14,30.0295 18.0294,26 23,26L 26,26L 26,22L 32.75,28.5L 26,35L 26,31L 23,31C 20.7909,31 19,32.7909 19,35C 19,37.2091 20.7909,39 23,39L 30,39L 30,44L 23,44 Z "/>
</svg>
