<?xml version="1.0" encoding="utf-8"?>
<!DOCTYPE svg PUBLIC "-//W3C//DTD SVG 1.1//EN" "http://www.w3.org/Graphics/SVG/1.1/DTD/svg11.dtd">
<svg xmlns="http://www.w3.org/2000/svg" xmlns:xlink="http://www.w3.org/1999/xlink" version="1.1" baseProfile="full" width="76" height="76" viewBox="0 0 76.00 76.00" enable-background="new 0 0 76.00 76.00" xml:space="preserve">
	<path fill="#000000" fill-opacity="1" stroke-width="0.2" stroke-linejoin="round" d="M 24.7083,50C 19.0244,50 14.4167,45.3923 14.4167,39.7083C 14.4167,34.2621 18.647,29.804 24.001,29.4406C 24.7777,22.3042 30.8236,16.75 38.1667,16.75C 46.0367,16.75 52.4167,23.1299 52.4167,31L 52.3297,32.5833L 54.7917,32.5833C 59.6011,32.5833 63.5,36.4822 63.5,41.2917C 63.5,46.1011 59.6011,50 54.7917,50L 35,50C 35,54.3722 31.4556,57.9167 27.0833,57.9167C 25.2499,57.9167 23.5621,57.2934 22.2201,56.2472L 23.125,56.3333C 25.7483,56.3333 27.875,54.2067 27.875,51.5833C 27.875,51.0282 27.7797,50.4952 27.6047,50L 24.7083,50 Z "/>
</svg>
