<?xml version="1.0" encoding="utf-8"?>
<!DOCTYPE svg PUBLIC "-//W3C//DTD SVG 1.1//EN" "http://www.w3.org/Graphics/SVG/1.1/DTD/svg11.dtd">
<svg xmlns="http://www.w3.org/2000/svg" xmlns:xlink="http://www.w3.org/1999/xlink" version="1.1" baseProfile="full" width="76" height="76" viewBox="0 0 76.00 76.00" enable-background="new 0 0 76.00 76.00" xml:space="preserve">
	<path fill="#FFFFFF" fill-opacity="1" stroke-width="0.2" stroke-linejoin="round" d="M 52.25,26.9167C 53.9989,26.9167 55.4167,28.3344 55.4167,30.0833L 55.4167,47.5C 55.4167,49.2489 53.9989,50.6667 52.25,50.6667L 23.75,50.6667C 22.0011,50.6667 20.5833,49.2489 20.5833,47.5L 20.5833,30.0833C 20.5833,28.3344 22.0011,26.9167 23.75,26.9167L 30.0833,26.9167C 30.0833,24.2933 32.21,22.1667 34.8333,22.1667L 41.1667,22.1667C 43.79,22.1667 45.9167,24.2933 45.9167,26.9167L 52.25,26.9167 Z M 38,33.25C 34.5022,33.25 31.6667,36.0855 31.6667,39.5834C 31.6667,43.0812 34.5022,45.9167 38,45.9167C 41.4978,45.9167 44.3333,43.0812 44.3333,39.5834C 44.3333,36.0855 41.4978,33.25 38,33.25 Z M 38,34.8334C 40.6233,34.8334 42.75,36.96 42.75,39.5834C 42.75,42.2067 40.6233,44.3333 38,44.3333C 35.3766,44.3333 33.25,42.2067 33.25,39.5834C 33.25,36.96 35.3766,34.8334 38,34.8334 Z M 26.9167,33.25L 26.9167,30.4792L 24.1458,30.4792L 24.1458,33.25L 26.9167,33.25 Z "/>
</svg>
