<?xml version="1.0" encoding="utf-8"?>
<!DOCTYPE svg PUBLIC "-//W3C//DTD SVG 1.1//EN" "http://www.w3.org/Graphics/SVG/1.1/DTD/svg11.dtd">
<svg xmlns="http://www.w3.org/2000/svg" xmlns:xlink="http://www.w3.org/1999/xlink" version="1.1" baseProfile="full" width="76" height="76" viewBox="0 0 76.00 76.00" enable-background="new 0 0 76.00 76.00" xml:space="preserve">
	<path fill="#000000" fill-opacity="1" stroke-linejoin="round" d="M 57.0486,41.7869C 57.0486,42.261 56.6615,42.6466 56.1856,42.6466L 51.6244,42.6466C 51.5741,42.3814 51.4926,42.1163 51.3545,41.8677C 51.2363,41.6562 50.9361,41.0859 50.5177,40.2901C 49.9139,39.1422 49.0471,37.5003 48.1191,35.7714L 56.1856,35.7714C 56.6615,35.7714 57.0486,36.1578 57.0486,36.6303M 55.0283,55.0283C 54.7446,54.1253 52.5824,54.0651 51.6142,52.7049C 50.6427,51.3491 51.4457,50.6506 51.7831,50.3282C 55.7098,48.1264 55.0283,55.0283 55.0283,55.0283 Z M 50.0389,49.4355L 48.6827,47.3034C 48.4028,46.8601 48.5476,46.3126 49.0032,46.0784L 50.2948,45.4166C 50.7504,45.1848 51.3208,45.3729 51.5631,45.8367L 52.633,47.8843C 52.8762,48.3474 52.7103,48.942 52.272,49.2038L 51.3478,49.7538C 50.9091,50.0194 50.3188,49.8751 50.0389,49.4355 Z M 47.0905,44.6983C 46.1899,44.2485 41.7025,33.9419 40.5524,31.2527C 39.4023,28.5636 35.927,21.4052 37.0505,20.8485C 37.8502,20.449 40.7209,26.0859 42.873,29.4698C 45.0221,32.8538 49.5158,41.5795 50.0689,42.5732C 50.619,43.5698 49.5394,44.3998 48.939,44.6484C 48.339,44.8966 47.9907,45.1444 47.0905,44.6983 Z M 34.1693,42.6466L 38.1365,35.7714L 40.4207,35.7714L 43.6427,42.6466M 26.2382,50.4461L 23.9878,49.1601C 23.5761,48.9251 23.4313,48.3981 23.6711,47.9878L 34.0916,29.9234C 34.328,29.5131 34.8613,29.3688 35.2721,29.6072L 37.5226,30.8899C 37.9342,31.1282 38.0761,31.6556 37.8401,32.0646L 27.4192,50.1303C 27.1823,50.5397 26.6495,50.6803 26.2382,50.4461 Z M 25.5399,52.3461L 22.632,54.3162C 22.2402,54.5822 21.9641,54.4139 22.0177,53.9443L 22.4062,50.5731C 22.4598,50.1035 22.8406,49.9118 23.2527,50.1468L 25.5027,51.4324C 25.914,51.6679 25.9313,52.0806 25.5399,52.3461 Z M 19.0486,41.7869L 19.0486,36.6303C 19.0486,36.1578 19.4371,35.7714 19.9125,35.7714L 29.0245,35.7714L 25.0573,42.6466L 19.9125,42.6466C 19.4371,42.6466 19.0486,42.261 19.0486,41.7869 Z "/>
</svg>
