<?xml version="1.0" encoding="utf-8"?>
<!DOCTYPE svg PUBLIC "-//W3C//DTD SVG 1.1//EN" "http://www.w3.org/Graphics/SVG/1.1/DTD/svg11.dtd">
<svg xmlns="http://www.w3.org/2000/svg" xmlns:xlink="http://www.w3.org/1999/xlink" version="1.1" baseProfile="full" width="76" height="76" viewBox="0 0 76.00 76.00" enable-background="new 0 0 76.00 76.00" xml:space="preserve">
	<path fill="#000000" fill-opacity="1" stroke-width="0.2" stroke-linejoin="round" d="M 37.2083,42.75L 28.5,31.6667L 33.25,31.6667L 33.25,19L 42.75,19L 42.75,31.6667L 47.5,31.6667L 38.7917,42.75L 37.2083,42.75 Z M 19,38L 23.75,26.9167L 29.6875,26.9167L 29.6875,30.0833L 26.125,30.0833L 22.9583,38L 30.875,38C 30.875,41.935 34.065,45.125 38,45.125C 41.935,45.125 45.125,41.935 45.125,38L 53.0417,38L 49.875,30.0833L 46.3125,30.0833L 46.3125,26.9167L 52.25,26.9167L 57,38L 57,53.8333L 19,53.8333L 19,38 Z "/>
</svg>
