<?xml version="1.0" encoding="utf-8"?>
<!DOCTYPE svg PUBLIC "-//W3C//DTD SVG 1.1//EN" "http://www.w3.org/Graphics/SVG/1.1/DTD/svg11.dtd">
<svg xmlns="http://www.w3.org/2000/svg" xmlns:xlink="http://www.w3.org/1999/xlink" version="1.1" baseProfile="full" width="76" height="76" viewBox="0 0 76.00 76.00" enable-background="new 0 0 76.00 76.00" xml:space="preserve">
	<path fill="#000000" fill-opacity="1" stroke-width="0.2" stroke-linejoin="round" d="M 22.1666,14.25L 41.9583,14.25L 55.4166,27.7084L 55.4166,55.4167L 22.1666,55.4167L 22.1666,14.25 Z M 26.9167,19L 26.9167,50.6667L 50.6667,50.6667L 50.6666,33.25L 36.4167,33.25L 36.4166,19L 26.9167,19 Z M 41.1667,19.7918L 41.1667,28.5L 49.875,28.5L 41.1667,19.7918 Z M 47.5,58.5833C 49.2489,58.5833 50.6667,60.0011 50.6667,61.75C 50.6667,63.4989 49.2489,64.9167 47.5,64.9167C 45.7511,64.9167 44.3333,63.4989 44.3333,61.75C 44.3333,60.0011 45.7511,58.5833 47.5,58.5833 Z M 38,58.5833C 39.7489,58.5833 41.1667,60.0011 41.1667,61.75C 41.1667,63.4989 39.7489,64.9167 38,64.9167C 36.2511,64.9167 34.8333,63.4989 34.8333,61.75C 34.8333,60.0011 36.2511,58.5833 38,58.5833 Z M 28.5,58.5833C 30.2489,58.5833 31.6667,60.0011 31.6667,61.75C 31.6667,63.4989 30.2489,64.9167 28.5,64.9167C 26.7511,64.9167 25.3333,63.4989 25.3333,61.75C 25.3333,60.0011 26.7511,58.5833 28.5,58.5833 Z "/>
</svg>
