<?xml version="1.0" encoding="utf-8"?>
<!DOCTYPE svg PUBLIC "-//W3C//DTD SVG 1.1//EN" "http://www.w3.org/Graphics/SVG/1.1/DTD/svg11.dtd">
<svg xmlns="http://www.w3.org/2000/svg" xmlns:xlink="http://www.w3.org/1999/xlink" version="1.1" baseProfile="full" width="76" height="76" viewBox="0 0 76.00 76.00" enable-background="new 0 0 76.00 76.00" xml:space="preserve">
	<path fill="#000000" fill-opacity="1" stroke-width="0.2" stroke-linejoin="round" d="M 38,28.5C 43.2467,28.5 47.5,32.7533 47.5,38C 47.5,43.2467 43.2467,47.5 38,47.5C 32.7533,47.5 28.5,43.2467 28.5,38C 28.5,32.7533 32.7533,28.5 38,28.5 Z M 31.7765,37.3519C 32.3625,39.5284 35.2087,42.2072 38.0549,44.886C 40.9011,42.2072 43.7473,39.5284 44.3333,37.3519C 44.9193,35.1754 43.2451,33.5012 41.822,33.25C 40.3989,32.9989 39.2269,34.1708 38.0549,35.3428C 36.883,34.1708 35.711,32.9989 34.2879,33.25C 32.8648,33.5012 31.1905,35.1754 31.7765,37.3519 Z M 19,19L 31.6667,19L 31.6667,25.2313C 28.8824,26.6149 26.6149,28.8824 25.2312,31.6667L 19,31.6667L 19,19 Z M 57,19L 57,31.6667L 50.7687,31.6667C 49.3851,28.8825 47.1175,26.6149 44.3333,25.2313L 44.3333,19L 57,19 Z M 56.9999,57L 44.3333,57L 44.3333,50.7688C 47.1175,49.3851 49.3851,47.1176 50.7687,44.3334L 56.9999,44.3334L 56.9999,57 Z M 33.25,57L 33.25,53.8334L 35.1237,51.9596C 36.0527,52.15 37.0147,52.25 38,52.25C 38.9853,52.25 39.9472,52.15 40.8762,51.9596L 42.75,53.8333L 42.75,57L 33.25,57 Z M 19,57L 19,44.3334L 25.2312,44.3334C 26.6149,47.1176 28.8824,49.3851 31.6666,50.7688L 31.6666,57L 19,57 Z M 57,42.75L 53.8333,42.75L 51.9596,40.8763C 52.15,39.9473 52.25,38.9853 52.25,38C 52.25,37.0147 52.15,36.0527 51.9596,35.1237L 53.8333,33.25L 57,33.25L 57,42.75 Z M 42.75,19L 42.75,22.1667L 40.8762,24.0404C 39.9472,23.85 38.9853,23.75 38,23.75C 37.0147,23.75 36.0527,23.85 35.1237,24.0404L 33.25,22.1667L 33.25,19L 42.75,19 Z M 19,33.25L 22.1667,33.25L 24.0404,35.1238C 23.85,36.0528 23.75,37.0147 23.75,38C 23.75,38.9853 23.85,39.9473 24.0404,40.8763L 22.1667,42.75L 19,42.75L 19,33.25 Z "/>
</svg>
