<?xml version="1.0" encoding="utf-8"?>
<!DOCTYPE svg PUBLIC "-//W3C//DTD SVG 1.1//EN" "http://www.w3.org/Graphics/SVG/1.1/DTD/svg11.dtd">
<svg xmlns="http://www.w3.org/2000/svg" xmlns:xlink="http://www.w3.org/1999/xlink" version="1.1" baseProfile="full" width="76" height="76" viewBox="0 0 76.00 76.00" enable-background="new 0 0 76.00 76.00" xml:space="preserve">
	<path fill="#000000" fill-opacity="1" stroke-width="0.2" stroke-linejoin="round" d="M 17.4167,30.0833L 26.9167,30.0833L 26.9167,58.5833L 17.4167,58.5833L 17.4167,30.0833 Z M 31.6667,30.0833L 41.1667,30.0833L 41.1667,33.5574C 44.1836,31.7521 47.7589,30.0833 50.6667,30.0833C 57,30.0833 58.5833,36.4167 58.5833,36.4167L 58.5833,58.5833L 49.0833,58.5833L 49.0833,39.5833C 47.8558,35.9009 44.7251,36.0249 41.1667,39.2176L 41.1667,58.5833L 31.6667,58.5833L 31.6667,30.0833 Z M 22.1667,17.4167C 24.79,17.4167 26.9167,19.5433 26.9167,22.1667C 26.9167,24.79 24.79,26.9167 22.1667,26.9167C 19.5433,26.9167 17.4167,24.79 17.4167,22.1667C 17.4167,19.5433 19.5433,17.4167 22.1667,17.4167 Z "/>
</svg>
