<?xml version="1.0" encoding="utf-8"?>
<!DOCTYPE svg PUBLIC "-//W3C//DTD SVG 1.1//EN" "http://www.w3.org/Graphics/SVG/1.1/DTD/svg11.dtd">
<svg xmlns="http://www.w3.org/2000/svg" xmlns:xlink="http://www.w3.org/1999/xlink" version="1.1" baseProfile="full" width="76" height="76" viewBox="0 0 76.00 76.00" enable-background="new 0 0 76.00 76.00" xml:space="preserve">
	<path fill="#000000" fill-opacity="1" stroke-width="0.2" stroke-linejoin="round" d="M 15.8333,23.75L 60.1667,23.75C 61.9156,23.75 63.3333,25.1678 63.3333,26.9167L 63.3333,49.0833C 63.3333,50.8322 61.9156,52.25 60.1667,52.25L 15.8333,52.25C 14.0844,52.25 12.6667,50.8322 12.6667,49.0833L 12.6667,26.9167C 12.6667,25.1678 14.0844,23.75 15.8333,23.75 Z M 17.4166,28.5L 17.4166,47.5L 58.5833,47.5L 58.5833,28.5L 17.4166,28.5 Z M 37.6833,42.75C 38.5578,42.75 39.2667,43.4589 39.2667,44.3333C 39.2667,45.2078 38.5578,45.9167 37.6833,45.9167C 36.8089,45.9167 36.1,45.2078 36.1,44.3333C 36.1,43.4589 36.8089,42.75 37.6833,42.75 Z M 38,30.0833C 40.7983,30.0833 43.0667,31.8933 43.0667,34.5167C 43.0667,35.4667 42.4333,37.05 41.1667,37.6833C 39.9,38.3167 39.2667,39.1673 39.2667,40.2167L 39.2667,41.4833L 36.1,41.4833L 36.1,40.5333C 36.1,38.3795 38,37.05 38.6333,36.4167C 39.9,35.15 39.9,34.9743 39.9,34.5167C 39.9,33.4673 39.0493,32.6167 38,32.6167C 36.9507,32.6167 36.1,33.4673 36.1,34.5167L 36.1,35.4667L 32.9333,35.4667L 32.9333,34.8333C 32.9333,32.21 35.2018,30.0833 38,30.0833 Z "/>
</svg>
