<?xml version="1.0" encoding="utf-8"?>
<!DOCTYPE svg PUBLIC "-//W3C//DTD SVG 1.1//EN" "http://www.w3.org/Graphics/SVG/1.1/DTD/svg11.dtd">
<svg xmlns="http://www.w3.org/2000/svg" xmlns:xlink="http://www.w3.org/1999/xlink" version="1.1" baseProfile="full" width="76" height="76" viewBox="0 0 76.00 76.00" enable-background="new 0 0 76.00 76.00" xml:space="preserve">
	<path fill="#000000" fill-opacity="1" stroke-width="0.2" stroke-linejoin="round" d="M 56.2083,33.25L 52.25,29.2917L 52.25,20.5833L 60.9583,20.5834L 64.9166,24.5417L 59.363,24.5417C 62.3629,28.7946 64.125,33.9832 64.125,39.5833C 64.125,54.0118 52.4284,65.7083 38,65.7083C 23.5716,65.7083 11.875,54.0118 11.875,39.5833C 11.875,51.8257 21.6221,61.75 33.6458,61.75L 38,61.75C 50.2423,61.75 60.1667,51.8257 60.1667,39.5833C 60.1667,34.883 58.7037,30.5244 56.2083,26.938L 56.2083,33.25 Z M 53.8333,41.1667C 53.8333,49.9112 46.7445,57 38,57C 29.2555,57 22.1667,49.9112 22.1667,41.1667C 22.1667,32.9565 28.4156,26.2059 36.4167,25.4115L 36.4167,23.75L 31.6667,23.75L 31.6667,19L 44.3333,19L 44.3333,23.75L 39.5833,23.75L 39.5833,25.4115C 41.2818,25.5802 42.9013,26.0172 44.3988,26.6796C 45.709,27.2592 46.9258,28.0112 48.0205,28.907C 48.8392,29.577 49.5896,30.3274 50.2597,31.1462C 51.109,32.184 51.8291,33.3317 52.3955,34.5647C 53.3186,36.5742 53.8333,38.8103 53.8333,41.1667 Z M 26.2296,39.5834L 30.0833,39.5834L 30.0833,42.75L 26.2296,42.75C 26.9347,48.0419 31.1248,52.232 36.4166,52.9371L 36.4166,49.0834L 39.5833,49.0834L 39.5833,52.9371C 44.8751,52.232 49.0652,48.0419 49.7703,42.75L 45.9166,42.75L 45.9166,39.5834L 49.7703,39.5834C 49.0652,34.2915 44.8751,30.1015 39.5833,29.3964L 39.5833,33.2501L 36.4166,33.2501L 36.4166,29.3964C 31.1248,30.1014 26.9347,34.2915 26.2296,39.5834 Z M 37.9999,38.0001C 39.7488,38.0001 41.1666,39.4178 41.1666,41.1667C 41.1666,42.9156 39.7488,44.3334 37.9999,44.3334L 31.6666,49.0834L 34.8333,41.1667C 34.8333,39.4178 36.251,38.0001 37.9999,38.0001 Z "/>
</svg>
