<?xml version="1.0" encoding="utf-8"?>
<!DOCTYPE svg PUBLIC "-//W3C//DTD SVG 1.1//EN" "http://www.w3.org/Graphics/SVG/1.1/DTD/svg11.dtd">
<svg xmlns="http://www.w3.org/2000/svg" xmlns:xlink="http://www.w3.org/1999/xlink" version="1.1" baseProfile="full" width="76" height="76" viewBox="0 0 76.00 76.00" enable-background="new 0 0 76.00 76.00" xml:space="preserve">
	<path fill="#000000" fill-opacity="1" fill-rule="evenodd" stroke-width="0.2" stroke-linejoin="round" d="M 57,43.3622C 57,47.5131 53.6602,50.8778 49.5393,50.8778L 26.4607,50.8778C 22.3398,50.8778 19,47.5131 19,43.3622C 19,39.6133 21.7233,36.5075 25.2869,35.9396C 25.2404,35.6761 25.2151,35.4059 25.2151,35.1272C 25.2151,32.4972 27.3304,30.3649 29.944,30.3649C 31.1094,30.3649 32.1775,30.7893 32.9967,31.4952C 34.466,28.1635 36.3491,25.1222 41.6269,25.1222C 48.0278,25.1222 51.0594,30.0968 51.0594,35.3455C 51.0594,35.5651 51.0509,35.7825 51.0382,35.9978C 54.4413,36.6962 57,39.7277 57,43.3622 Z "/>
</svg>
