<?xml version="1.0" encoding="utf-8"?>
<!DOCTYPE svg PUBLIC "-//W3C//DTD SVG 1.1//EN" "http://www.w3.org/Graphics/SVG/1.1/DTD/svg11.dtd">
<svg xmlns="http://www.w3.org/2000/svg" xmlns:xlink="http://www.w3.org/1999/xlink" version="1.1" baseProfile="full" width="76" height="76" viewBox="0 0 76.00 76.00" enable-background="new 0 0 76.00 76.00" xml:space="preserve">
	<path fill="#000000" fill-opacity="1" stroke-width="0.2" stroke-linejoin="round" d="M 38.025,38.198L 38.025,31.198C 38.025,31.198 40.0359,33.0001 42.0305,33L 53.025,33L 53.025,28.75L 60.775,36.5L 53.025,44.25L 53.025,40L 42.025,40C 40.025,40 38.025,38.198 38.025,38.198 Z M 39.4732,22C 45.1618,22 49.9629,25.8 51.4766,31L 47.2214,31C 45.8874,28.0515 42.9199,26 39.4732,26C 34.7788,26 30.9732,29.8056 30.9732,34.5C 30.9732,39.1944 34.7788,43 39.4732,43C 40.9207,43 42.2838,42.6382 43.4768,42L 49.4741,42C 47.1936,45.0361 43.5628,47 39.4732,47C 37.1088,47 34.8977,46.3435 32.9732,45.2426L 23.9481,54.2678C 22.7765,55.4393 20.877,55.4393 19.7055,54.2678C 18.5339,53.0962 18.5339,51.1967 19.7055,50.0251L 28.7703,40.961C 27.6297,39.0755 26.9732,36.8644 26.9732,34.5C 26.9732,27.5964 32.5697,22 39.4732,22 Z "/>
</svg>
