<?xml version="1.0" encoding="utf-8"?>
<!DOCTYPE svg PUBLIC "-//W3C//DTD SVG 1.1//EN" "http://www.w3.org/Graphics/SVG/1.1/DTD/svg11.dtd">
<svg xmlns="http://www.w3.org/2000/svg" xmlns:xlink="http://www.w3.org/1999/xlink" version="1.1" baseProfile="full" width="76" height="76" viewBox="0 0 76.00 76.00" enable-background="new 0 0 76.00 76.00" xml:space="preserve">
	<path fill="#000000" fill-opacity="1" stroke-width="0.2" stroke-linejoin="round" d="M 25.3333,26.9167L 25.3333,17.4167L 50.6666,17.4167L 50.6666,26.9167L 47.5,26.9167L 47.5,20.5834L 28.5,20.5833L 28.5,26.9167L 25.3333,26.9167 Z M 15.8333,28.5L 60.1666,28.5L 60.1666,50.6667L 52.25,50.6667L 52.25,45.9167L 55.4166,45.9167L 55.4166,33.25L 20.5833,33.25L 20.5833,45.9167L 23.75,45.9167L 23.75,50.6667L 15.8333,50.6667L 15.8333,28.5 Z M 25.3333,39.5834L 28.5,39.5834L 28.5,52.25L 34.8333,52.25L 34.8333,58.5834L 47.5,58.5833L 47.5,39.5834L 50.6666,39.5834L 50.6667,61.75L 33.25,61.75L 25.3333,53.8334L 25.3333,39.5834 Z M 44.3333,55.4167L 38,55.4167L 38,52.25L 44.3333,52.25L 44.3333,55.4167 Z M 45.9167,49.0833L 30.0833,49.0833L 30.0833,45.9167L 45.9167,45.9167L 45.9167,49.0833 Z M 45.9167,42.75L 30.0833,42.75L 30.0833,39.5833L 45.9167,39.5833L 45.9167,42.75 Z "/>
</svg>
