<?xml version="1.0" encoding="utf-8"?>
<!DOCTYPE svg PUBLIC "-//W3C//DTD SVG 1.1//EN" "http://www.w3.org/Graphics/SVG/1.1/DTD/svg11.dtd">
<svg xmlns="http://www.w3.org/2000/svg" xmlns:xlink="http://www.w3.org/1999/xlink" version="1.1" baseProfile="full" width="76" height="76" viewBox="0 0 76.00 76.00" enable-background="new 0 0 76.00 76.00" xml:space="preserve">
	<path fill="#000000" fill-opacity="1" stroke-width="0.2" stroke-linejoin="round" d="M 38,14.25C 46.7445,14.25 53.8333,21.3388 53.8333,30.0833C 53.8333,38.8278 46.7445,45.9167 38,45.9167C 29.2555,45.9167 22.1667,38.8278 22.1667,30.0833C 22.1667,21.3388 29.2555,14.25 38,14.25 Z M 38,19C 31.8788,19 26.9167,23.9622 26.9167,30.0833C 26.9167,36.2045 31.8788,41.1667 38,41.1667C 44.1211,41.1667 49.0833,36.2045 49.0833,30.0833C 49.0833,23.9622 44.1211,19 38,19 Z M 37.2083,28.5L 38.7917,28.5C 40.1033,28.5 41.1667,29.5633 41.1667,30.875C 41.1667,32.1867 40.1033,33.25 38.7917,33.25L 37.2083,33.25C 35.8966,33.25 34.8333,32.1867 34.8333,30.875C 34.8333,29.5633 35.8966,28.5 37.2083,28.5 Z M 49.0833,54.625L 49.0833,54.6571L 49.875,54.625C 52.9356,54.625 55.4167,56.8344 55.4167,58.5833C 55.4167,60.3322 52.9356,61.75 49.875,61.75L 49.2901,61.7326C 46.4178,58.8115 42.4204,57 38,57C 33.5796,57 29.5822,58.8115 26.7098,61.7326L 26.125,61.75C 23.0644,61.75 20.5833,60.3322 20.5833,58.5833C 20.5833,56.8344 23.0644,54.625 26.125,54.625L 26.9167,54.6571L 26.9167,54.625C 30.4145,54.625 33.25,51.6239 33.25,49.875L 33.25,48.5326C 34.7748,48.8927 36.3651,49.0833 38,49.0833C 39.6348,49.0833 41.2252,48.8927 42.75,48.5326L 42.75,49.875C 42.75,51.6239 45.5855,54.625 49.0833,54.625 Z "/>
</svg>
