<?xml version="1.0" encoding="utf-8"?>
<!DOCTYPE svg PUBLIC "-//W3C//DTD SVG 1.1//EN" "http://www.w3.org/Graphics/SVG/1.1/DTD/svg11.dtd">
<svg xmlns="http://www.w3.org/2000/svg" xmlns:xlink="http://www.w3.org/1999/xlink" version="1.1" baseProfile="full" width="76" height="76" viewBox="0 0 76.00 76.00" enable-background="new 0 0 76.00 76.00" xml:space="preserve">
	<path fill="#000000" fill-opacity="1" stroke-width="0.2" stroke-linejoin="round" d="M 32.6339,50.8752L 46.6287,36.8803C 48.4837,35.0253 48.4837,32.0178 46.6287,30.1628C 44.7737,28.3078 41.7662,28.3078 39.9112,30.1629L 28.7154,41.3587L 30.9545,43.5979L 42.1504,32.402C 42.7687,31.7836 43.7712,31.7836 44.3895,32.402C 45.0079,33.0203 44.4481,33.463 43.8298,34.0814L 29.835,48.0762C 28.2891,49.622 26.3426,50.1818 24.7968,48.636C 23.251,47.0902 23.251,44.5839 24.7968,43.0381L 42.1504,25.6845C 44.6237,23.2112 48.6338,23.2112 51.1071,25.6845C 53.5804,28.1578 53.5804,32.1679 51.1071,34.6412L 37.6721,48.0762L 41.0308,51.435L 54.4658,38C 58.7941,33.6716 58.7941,26.6541 54.4658,22.3258C 50.1375,17.9975 43.1199,17.9975 38.7916,22.3258L 20.8783,40.2391C 17.7866,43.3308 17.7866,48.3433 20.8783,51.435C 23.9699,54.5266 28.9825,54.5266 32.0741,51.435L 32.6063,50.8476L 32.6339,50.8752 Z "/>
</svg>
