<?xml version="1.0" encoding="utf-8"?>
<!DOCTYPE svg PUBLIC "-//W3C//DTD SVG 1.1//EN" "http://www.w3.org/Graphics/SVG/1.1/DTD/svg11.dtd">
<svg xmlns="http://www.w3.org/2000/svg" xmlns:xlink="http://www.w3.org/1999/xlink" version="1.1" baseProfile="full" width="76" height="76" viewBox="0 0 76.00 76.00" enable-background="new 0 0 76.00 76.00" xml:space="preserve">
	<path fill="#000000" fill-opacity="1" stroke-width="0.2" stroke-linejoin="round" d="M 38,15.4375C 39.3788,15.4375 41.3434,16.4942 41.7781,17.4167L 49.0833,17.4167L 42.75,25.3333L 42.8575,30.7597L 49.0833,33.25L 42.5936,33.25C 42.9492,38.7231 43.2787,42.8806 44.1936,46.083L 48.2917,47.5L 45.4222,47.5C 48.7019,57.3679 53.8333,56.9346 53.8333,60.1667L 22.1667,60.1667C 22.1667,56.9346 27.2981,57.3679 30.5778,47.5L 27.7083,47.5L 31.8064,46.083C 32.7212,42.8806 33.0508,38.723 33.4064,33.25L 26.9167,33.25L 33.1425,30.7597L 33.25,25.3333L 26.9167,17.4167L 34.2218,17.4167C 34.6566,16.4942 36.6212,15.4375 38,15.4375 Z "/>
</svg>
