<?xml version="1.0" encoding="utf-8"?>
<!DOCTYPE svg PUBLIC "-//W3C//DTD SVG 1.1//EN" "http://www.w3.org/Graphics/SVG/1.1/DTD/svg11.dtd">
<svg xmlns="http://www.w3.org/2000/svg" xmlns:xlink="http://www.w3.org/1999/xlink" version="1.1" baseProfile="full" width="76" height="76" viewBox="0 0 76.00 76.00" enable-background="new 0 0 76.00 76.00" xml:space="preserve">
	<path fill="#000000" fill-opacity="1" fill-rule="evenodd" stroke-width="0.2" stroke-linejoin="round" d="M 38.3842,44.6458L 33.5286,56.5102C 34.96,56.8565 36.4588,57.0422 38,57.0422C 39.596,57.0422 41.1455,56.8438 42.6275,56.4765M 54.3526,28.5844C 54.7115,30.2987 54.6355,32.376 53.9346,34.6602C 52.098,40.6094 47.5464,51.3085 45.7857,55.3829C 52.3977,52.4358 57,45.8449 57,38.19C 57,34.6813 56.033,31.3964 54.3526,28.5844 Z M 23.3826,31.6033C 23.3826,31.6033 22.4579,30.4254 21.4826,30.4254L 20.4862,30.4254C 19.5277,32.5365 19,35.3696 19,37.9705C 19,45.7858 23.7922,52.4906 30.6237,55.3491M 21.1448,28.7365C 24.3157,22.8254 30.6702,18.9578 38,18.9578C 42.7457,18.9578 47.0777,20.9802 50.4091,23.8344C 49.4591,23.6487 48.4204,23.8556 47.3733,24.4551C 44.9244,25.8611 44.1222,29.8342 47.2973,31.8313C 49.2817,33.0684 49.9868,36.1718 49.9193,38.0676C 49.8559,39.9633 45.3128,48.6822 45.3128,48.6822L 40.8879,33.4907C 40.8879,33.4907 40.7359,32.4225 40.7359,32.1143C 40.7359,31.73 40.8626,31.2529 41.1033,30.9827C 41.2679,30.8011 41.517,30.4254 41.8169,30.4254L 43.9111,30.4254L 43.9111,28.7365L 32.5111,28.7365L 32.5111,30.4254L 32.8657,30.4254C 33.2373,30.4254 33.6046,30.9278 33.9551,31.2867C 34.3731,31.7173 34.8966,33.3344 35.53,35.0107L 37.1893,40.47L 33.6173,48.7287L 29.6948,32.2282C 29.6948,32.2282 29.8131,31.0967 30.0495,30.9067C 30.2015,30.7716 30.4422,30.4254 30.7166,30.4254L 30.8222,30.4254L 30.8222,28.7365L 21.1448,28.7365 Z "/>
</svg>
