<?xml version="1.0" encoding="utf-8"?>
<!DOCTYPE svg PUBLIC "-//W3C//DTD SVG 1.1//EN" "http://www.w3.org/Graphics/SVG/1.1/DTD/svg11.dtd">
<svg xmlns="http://www.w3.org/2000/svg" xmlns:xlink="http://www.w3.org/1999/xlink" version="1.1" baseProfile="full" width="76" height="76" viewBox="0 0 76.00 76.00" enable-background="new 0 0 76.00 76.00" xml:space="preserve">
	<path fill="#000000" fill-opacity="1" stroke-width="0.2" stroke-linejoin="round" d="M 42.2836,48.9056C 42.6549,53.0013 34.3608,53.1826 33.4022,50.3307C 32.5948,47.9277 33.5999,47.2471 35.9796,46.6279C 38.6762,45.9257 42.0346,46.1658 42.2836,48.9056 Z M 34.5486,30.963C 30.3557,21.8295 44.1877,22.4847 39.9923,30.963C 38.615,31.9828 35.9077,32.084 34.5486,30.963 Z M 48.2996,19C 44.8916,21.1303 41.3786,19.3328 38.8458,19C 27.6632,17.5266 24.108,30.5725 32.2557,35.8038C 30.158,36.89 30.2953,42.4207 32.5427,43.2084C 27.2488,43.8141 26.267,51.2751 29.105,54.3168C 32.5576,58.017 43.1802,57.7718 46.2945,54.3168C 48.4691,51.9036 48.7711,46.929 46.8661,44.634C 45.1299,42.5398 36.4181,42.2234 36.5537,38.9369C 36.648,36.6406 39.7979,37.0023 41.7103,36.0888C 45.3077,34.3693 47.4211,29.2228 46.0075,25.2654C 46.8099,25.1147 47.4964,24.847 48.2996,24.6962L 48.2996,19 Z "/>
</svg>
