<?xml version="1.0" encoding="utf-8"?>
<!DOCTYPE svg PUBLIC "-//W3C//DTD SVG 1.1//EN" "http://www.w3.org/Graphics/SVG/1.1/DTD/svg11.dtd">
<svg xmlns="http://www.w3.org/2000/svg" xmlns:xlink="http://www.w3.org/1999/xlink" version="1.1" baseProfile="full" width="76" height="76" viewBox="0 0 76.00 76.00" enable-background="new 0 0 76.00 76.00" xml:space="preserve">
	<path fill="#000000" fill-opacity="1" stroke-width="0.2" stroke-linejoin="round" d="M 16,31L 27,31L 27,21L 41,21L 41,31L 61,31L 61,45L 51,45L 51,55L 37,55L 37,45L 16,45L 16,31 Z M 47,45L 41,45L 41,51L 47,51L 47,45 Z M 31,31L 37,31L 37,25L 31,25L 31,31 Z M 20,35L 20,41L 27,41L 27,35L 20,35 Z M 31,35L 31,41L 37,41L 37,35L 31,35 Z M 41,35L 41,41L 47,41L 47,35L 41,35 Z M 51,35L 51,41L 57,41L 57,35L 51,35 Z "/>
</svg>
