<?xml version="1.0" encoding="utf-8"?>
<!DOCTYPE svg PUBLIC "-//W3C//DTD SVG 1.1//EN" "http://www.w3.org/Graphics/SVG/1.1/DTD/svg11.dtd">
<svg xmlns="http://www.w3.org/2000/svg" xmlns:xlink="http://www.w3.org/1999/xlink" version="1.1" baseProfile="full" width="76" height="76" viewBox="0 0 76.00 76.00" enable-background="new 0 0 76.00 76.00" xml:space="preserve">
	<path fill="#000000" fill-opacity="1" stroke-width="0.2" stroke-linejoin="round" d="M 49.4162,18.9999C 50.0612,20.4651 50.4791,22.8974 49.8556,24.6785C 52.4052,26.8554 53.2817,32.1482 52.0513,36.4723C 55.6852,36.7501 60.0132,36.3394 62.8071,37.4547C 60.1951,37.1189 56.6285,36.4602 53.2591,36.6895C 52.6207,36.7325 51.6753,36.6652 51.7216,37.5633C 55.6213,37.8692 59.4967,38.2027 62.6985,39.2016C 59.5232,38.6829 55.6676,37.8934 51.7216,37.7827C 50.0915,40.9998 46.8109,42.5804 42.2823,42.9133C 42.769,43.9729 43.7012,44.3758 43.9294,46.0804C 44.269,48.6255 43.398,52.3543 44.2569,54.0511C 44.6693,54.8637 45.3412,54.8857 45.7944,55.5803C 44.6852,56.8935 41.9355,55.4337 41.6224,54.0511C 41.086,51.6835 42.4394,48.0126 40.9642,46.4078C 41.0689,48.9899 40.3539,52.6172 41.0744,54.9243C 41.3583,55.8317 42.1781,56.1818 41.9526,56.9999C 36.7977,57.5236 38.9509,50.3273 38.1092,46.0804C 37.3319,46.1355 37.6731,47.2452 37.6711,47.7181C 37.6483,51.8664 38.5193,57.555 34.0491,56.9999C 33.9173,56.1289 34.6483,55.8317 34.9261,55.0357C 35.7426,52.7016 34.7734,49.2242 35.1483,46.4078C 33.4416,47.6939 35.3269,52.1851 34.2696,54.4877C 33.6599,55.8125 31.6974,56.3896 30.2084,55.7975C 30.4019,54.8107 31.4217,54.9701 31.8534,54.0511C 32.4576,52.7689 31.8578,50.9232 32.0739,49.0285C 28.9151,49.6586 26.4658,48.937 25.2676,46.9536C 24.731,46.0627 24.5976,45.0131 23.9493,44.2243C 23.3043,43.4348 22.274,43.3285 21.9746,42.2595C 25.8864,41.3179 26.0358,46.2849 29.5491,46.4078C 30.6262,46.447 31.1858,46.0964 32.183,45.8626C 32.462,44.6101 33.0595,43.6762 33.9388,43.0219C 29.5689,42.4238 25.9587,41.0627 24.2801,37.7827C 20.3061,37.9784 16.6698,38.5092 13.3021,39.3102C 16.3589,38.2 20.1296,37.8019 24.1703,37.6718C 23.9322,36.2402 21.8446,36.6338 20.548,36.6895C 18.1395,36.7959 15.1075,37.0952 13.193,37.4547C 15.9691,36.4651 19.8622,36.5886 23.6218,36.5809C 22.4724,32.9756 22.8705,27.2485 25.3782,25.1156C 24.6676,23.3245 24.8881,20.3951 25.8175,18.9999C 28.6169,19.1261 30.3148,20.3466 32.0739,21.5125C 34.2558,20.8918 36.5491,20.5837 39.538,20.7473C 40.7955,20.8174 42.1025,21.3819 43.0491,21.2926C 43.978,21.2055 45.0022,20.163 45.903,19.765C 47.0788,19.2463 48.0728,19.0484 49.4162,18.9999 Z "/>
</svg>
