<?xml version="1.0" encoding="utf-8"?>
<!DOCTYPE svg PUBLIC "-//W3C//DTD SVG 1.1//EN" "http://www.w3.org/Graphics/SVG/1.1/DTD/svg11.dtd">
<svg xmlns="http://www.w3.org/2000/svg" xmlns:xlink="http://www.w3.org/1999/xlink" version="1.1" baseProfile="full" width="76" height="76" viewBox="0 0 76.00 76.00" enable-background="new 0 0 76.00 76.00" xml:space="preserve">
	<path fill="#000000" fill-opacity="1" stroke-width="0.2" stroke-linejoin="round" d="M 26.7728,20.5833C 29.8731,20.5833 32.3864,23.0966 32.3864,26.197C 32.3864,29.2973 29.8731,31.8106 26.7728,31.8106C 23.6724,31.8106 21.1591,29.2973 21.1591,26.197C 21.1591,23.0966 23.6724,20.5833 26.7728,20.5833 Z M 49.2273,20.5833C 52.3276,20.5833 54.8409,23.0967 54.8409,26.197C 54.8409,29.2973 52.3276,31.8106 49.2273,31.8106C 46.127,31.8106 43.6137,29.2973 43.6137,26.197C 43.6137,23.0967 46.127,20.5833 49.2273,20.5833 Z M 38,54.2651C 43.2252,54.2651 48.1316,50.4139 50.2338,45.9886L 25.7662,45.9886C 27.8684,50.4139 32.7748,54.2651 38,54.2651 Z M 54.9657,39.6913C 56.9428,39.6913 58.1863,41.1792 58.5833,43.0379C 57.6384,52.7654 47.9756,61.75 38,61.75C 28.0245,61.75 18.3616,52.7654 17.4167,43.0378C 17.8137,41.1792 19.0572,39.6913 21.1591,39.6928L 21.1591,39.6913L 54.8409,39.6913L 54.9657,39.6913 Z "/>
</svg>
