<?xml version="1.0" encoding="utf-8"?>
<!DOCTYPE svg PUBLIC "-//W3C//DTD SVG 1.1//EN" "http://www.w3.org/Graphics/SVG/1.1/DTD/svg11.dtd">
<svg xmlns="http://www.w3.org/2000/svg" xmlns:xlink="http://www.w3.org/1999/xlink" version="1.1" baseProfile="full" width="76" height="76" viewBox="0 0 76.00 76.00" enable-background="new 0 0 76.00 76.00" xml:space="preserve">
	<path fill="#000000" fill-opacity="1" stroke-width="0.2" stroke-linejoin="round" d="M 38,30.0833C 39.7489,30.0833 41.1667,31.5011 41.1667,33.25C 41.1667,34.9989 39.7489,36.4167 38,36.4167C 36.2511,36.4167 34.8333,34.9989 34.8333,33.25C 34.8333,31.5011 36.2511,30.0833 38,30.0833 Z M 40.5749,38.6155L 43.5416,57L 32.4583,57L 35.4251,38.6155L 40.5749,38.6155 Z M 55.4167,33.25C 55.4167,37.3117 54.0263,41.0486 51.6956,44.0109L 49.2055,42.0544C 51.1124,39.6307 52.25,36.5732 52.25,33.25C 52.25,29.9268 51.1124,26.8693 49.2055,24.4457L 51.6956,22.4892C 54.0263,25.4514 55.4167,29.1883 55.4167,33.25 Z M 24.3044,44.0109C 21.9737,41.0486 20.5833,37.3117 20.5833,33.25C 20.5833,29.1883 21.9737,25.4514 24.3044,22.4891L 26.7945,24.4457C 24.8875,26.8693 23.75,29.9268 23.75,33.25C 23.75,36.5732 24.8875,39.6307 26.7945,42.0543L 24.3044,44.0109 Z M 46.7154,26.4022C 48.1986,28.2873 49.0833,30.6653 49.0833,33.25C 49.0833,35.8347 48.1986,38.2128 46.7154,40.0978L 44.2253,38.1413C 45.2847,36.7948 45.9167,35.0962 45.9167,33.25C 45.9167,31.4038 45.2847,29.7052 44.2253,28.3587L 46.7154,26.4022 Z M 29.2846,40.0978C 27.8014,38.2127 26.9167,35.8347 26.9167,33.25C 26.9167,30.6653 27.8014,28.2872 29.2846,26.4022L 31.7747,28.3587C 30.7153,29.7052 30.0833,31.4038 30.0833,33.25C 30.0833,35.0962 30.7153,36.7948 31.7747,38.1413L 29.2846,40.0978 Z "/>
</svg>
