<?xml version="1.0" encoding="utf-8"?>
<!DOCTYPE svg PUBLIC "-//W3C//DTD SVG 1.1//EN" "http://www.w3.org/Graphics/SVG/1.1/DTD/svg11.dtd">
<svg xmlns="http://www.w3.org/2000/svg" xmlns:xlink="http://www.w3.org/1999/xlink" version="1.1" baseProfile="full" width="76" height="76" viewBox="0 0 76.00 76.00" enable-background="new 0 0 76.00 76.00" xml:space="preserve">
	<path fill="#000000" fill-opacity="1" stroke-width="0.2" stroke-linejoin="round" d="M 23.75,19C 26.125,20.3195 28.5,21.6389 30.875,21.6389C 33.25,21.6389 35.625,20.3195 38,19C 40.375,20.3195 42.75,21.6389 45.125,21.6389C 47.5,21.6389 49.875,20.3195 52.25,19L 56.2083,26.5209L 38,26.5209L 19.7916,26.5209L 23.75,19 Z M 56.9999,33.2501C 56.9999,38.5278 55.4167,42.75 52.25,47.5C 49.0833,52.25 41.1666,56.6042 38,56.6042C 34.8333,56.6042 26.9167,52.25 23.75,47.5C 20.5833,42.75 19,38.5278 19,33.2501C 19,31.5012 19.3958,28.1042 20.9791,28.1042L 55.0208,28.1042C 56.6041,28.1042 56.9999,31.5012 56.9999,33.2501 Z M 26.5736,35.4667L 33.1873,35.4667C 31.7799,37.1534 30.6551,39.066 29.8128,41.2046C 28.9706,43.3432 28.5242,45.4417 28.4736,47.5L 31.4291,47.5C 31.4225,46.1806 31.6403,44.683 32.0823,43.0073C 32.5243,41.3316 33.1664,39.7494 34.0086,38.2606C 34.8509,36.7718 35.6799,35.6294 36.4958,34.8333L 36.4958,32.5111L 26.5736,32.5111L 26.5736,35.4667 Z M 39.2403,43.1821C 39.4118,44.5631 39.9357,45.6632 40.8121,46.4824C 41.6884,47.3015 42.8226,47.7111 44.2146,47.7111C 45.954,47.7111 47.3142,47.0602 48.295,45.7583C 49.0141,44.8039 49.3736,43.7187 49.3736,42.5026C 49.3736,41.0468 48.9393,39.8621 48.0706,38.9484C 47.202,38.0346 46.1432,37.5778 44.8941,37.5778C 44.2388,37.5778 43.5966,37.7592 42.9677,38.1221L 43.5285,35.4667L 48.7403,35.4667L 48.7403,32.5111L 41.1403,32.5111L 39.4514,40.8401L 42.0144,41.1667C 42.6631,40.463 43.3954,40.1111 44.2113,40.1111C 44.8666,40.1111 45.3982,40.3156 45.8062,40.7247C 46.2141,41.1337 46.418,41.7483 46.418,42.5686C 46.418,43.4416 46.1915,44.0947 45.7385,44.5279C 45.2855,44.9612 44.7325,45.1778 44.0793,45.1778C 43.5076,45.1778 43.0029,44.9694 42.5653,44.5527C 42.1277,44.136 41.8638,43.5703 41.7736,42.8556L 39.2403,43.1821 Z "/>
</svg>
