<?xml version="1.0" encoding="utf-8"?>
<!DOCTYPE svg PUBLIC "-//W3C//DTD SVG 1.1//EN" "http://www.w3.org/Graphics/SVG/1.1/DTD/svg11.dtd">
<svg xmlns="http://www.w3.org/2000/svg" xmlns:xlink="http://www.w3.org/1999/xlink" version="1.1" baseProfile="full" width="76" height="76" viewBox="0 0 76.00 76.00" enable-background="new 0 0 76.00 76.00" xml:space="preserve">
	<path fill="#000000" fill-opacity="1" stroke-width="0.2" stroke-linejoin="round" d="M 20,20L 26,20L 26,26L 20,26L 20,20 Z M 30,20.0001L 36,20.0001L 36,26.0001L 30,26.0001L 30,20.0001 Z M 49.9999,20.0001L 55.9999,20.0001L 55.9999,26.0001L 49.9999,26.0001L 49.9999,20.0001 Z M 40,20.0001L 45.9999,20.0001L 45.9999,26.0001L 40,26.0001L 40,20.0001 Z M 20,30.0001L 26,30.0001L 26,36L 20,36L 20,30.0001 Z M 20,40L 26,40L 26,46L 20,46L 20,40 Z M 20,50L 26,50L 26,56L 20,56L 20,50 Z M 30,30L 36,30L 36,36L 30,36L 30,30 Z M 50,30L 56,30L 56,36L 50,36L 50,30 Z M 40,30L 46,30L 46,36L 40,36L 40,30 Z M 30,40L 36,40L 36,46L 30,46L 30,40 Z M 50,40L 56,40L 56,46L 50,46L 50,40 Z M 40,40L 46,40L 46,46L 40,46L 40,40 Z M 30,50L 36,50L 36,56L 30,56L 30,50 Z M 50,50L 56,50L 56,56L 50,56L 50,50 Z M 40,50L 46,50L 46,56L 40,56L 40,50 Z "/>
</svg>
