<?xml version="1.0" encoding="utf-8"?>
<!DOCTYPE svg PUBLIC "-//W3C//DTD SVG 1.1//EN" "http://www.w3.org/Graphics/SVG/1.1/DTD/svg11.dtd">
<svg xmlns="http://www.w3.org/2000/svg" xmlns:xlink="http://www.w3.org/1999/xlink" version="1.1" baseProfile="full" width="76" height="76" viewBox="0 0 76.00 76.00" enable-background="new 0 0 76.00 76.00" xml:space="preserve">
	<path fill="#000000" fill-opacity="1" stroke-width="0.2" stroke-linejoin="round" d="M 46.5,19C 45.1193,19 44,20.1193 44,21.5C 44,21.9262 44.1066,22.3274 44.2947,22.6786L 41.8156,25.8516C 40.617,25.2993 39.3339,25 38,25C 36.5982,25 35.2525,25.3305 34.0019,25.938L 31.5976,22.8607C 31.8521,22.4691 32,22.0018 32,21.5C 32,20.1193 30.8807,19 29.5,19C 28.1193,19 27,20.1193 27,21.5C 27,22.8808 28.1193,24 29.5,24L 29.9221,23.9646L 32.2844,26.9882C 30.7591,28.1265 29.4333,29.7061 28.3977,31.6025C 31.1299,32.4842 34.4369,33 38,33C 41.563,33 44.8701,32.4842 47.6023,31.6025C 46.5309,29.6405 45.1489,28.0176 43.5566,26.8718L 45.8641,23.9184L 46.5,24C 47.8807,24 49,22.8807 49,21.5C 49,20.1193 47.8807,19 46.5,19 Z M 54.4999,40L 49.951,40C 49.8763,38.859 49.717,37.7516 49.482,36.6895L 54.8051,34.6461C 55.5785,34.3492 55.9648,33.4816 55.6679,32.7082C 55.371,31.9348 54.5034,31.5485 53.73,31.8454L 48.6187,33.8074L 48.4239,33.3201C 45.7913,34.283 42.541,34.8897 39,34.9864L 39,57.9435C 43.2172,57.4651 46.8161,53.9883 48.6665,49.067L 53.538,51.3386C 54.2888,51.6887 55.1813,51.3639 55.5314,50.6131C 55.8815,49.8623 55.5567,48.9698 54.8059,48.6197L 49.5162,46.1531C 49.7325,45.1391 49.88,44.0847 49.951,43L 54.4999,43C 55.3284,43 55.9999,42.3284 55.9999,41.5C 55.9999,40.6716 55.3284,40 54.4999,40 Z M 21.5,40C 20.6716,40 20,40.6716 20,41.5C 20,42.3285 20.6716,43 21.5,43L 26.0489,43C 26.12,44.0847 26.2674,45.1392 26.4838,46.1531L 21.194,48.6198C 20.4432,48.9699 20.1183,49.8623 20.4685,50.6131C 20.8186,51.364 21.711,51.6888 22.4618,51.3387L 27.3335,49.067C 29.1838,53.9883 32.7827,57.4651 37,57.9435L 37,34.9864C 33.4589,34.8897 30.2087,34.283 27.5761,33.3201L 27.3812,33.8074L 22.27,31.8454C 21.4966,31.5485 20.6289,31.9348 20.332,32.7082C 20.0352,33.4816 20.4215,34.3492 21.1949,34.6461L 26.518,36.6895C 26.2829,37.7516 26.1237,38.8591 26.0489,40L 21.5,40 Z M 20.76,52.4116L 11.8772,61.2943C 12.7656,62.2899 13.7101,63.2344 14.7057,64.1228L 27.567,51.2614L 27.251,50.5315L 22.4934,52.75C 21.8883,53.0322 21.1911,52.8759 20.76,52.4116 Z M 48.4677,30.3608L 64.1227,14.7057C 63.2343,13.7101 62.2899,12.7656 61.2943,11.8772L 46.0376,27.134C 46.9537,28.0476 47.7723,29.1349 48.4677,30.3608 Z "/>
</svg>
