<?xml version="1.0" encoding="utf-8"?>
<!DOCTYPE svg PUBLIC "-//W3C//DTD SVG 1.1//EN" "http://www.w3.org/Graphics/SVG/1.1/DTD/svg11.dtd">
<svg xmlns="http://www.w3.org/2000/svg" xmlns:xlink="http://www.w3.org/1999/xlink" version="1.1" baseProfile="full" width="76" height="76" viewBox="0 0 76.00 76.00" enable-background="new 0 0 76.00 76.00" xml:space="preserve">
	<path fill="#000000" fill-opacity="1" stroke-width="0.2" stroke-linejoin="round" d="M 16.8227,30.3484C 16.8227,25.4374 20.9302,21.6875 27.4483,21.6875C 30.7069,21.6875 33.1178,22.4024 34.6794,23.2059L 33.3405,27.6252C 32.2693,27.0449 30.171,26.1968 27.3583,26.1968C 23.8761,26.1968 22.3591,28.0715 22.3591,29.8126C 22.3591,32.1345 24.1002,33.2057 28.1173,34.7686C 33.3405,36.7324 35.8856,39.3665 35.8856,43.6968C 35.8856,48.5183 32.2248,52.7585 24.457,52.7585C 21.287,52.7585 17.9839,51.8218 16.3314,50.8402L 17.5367,46.2863C 19.3228,47.3126 22.0019,48.206 24.8133,48.206C 28.3413,48.206 30.3051,46.554 30.3051,44.0985C 30.3051,41.8221 28.7872,40.4827 24.9478,39.0984C 19.9927,37.3132 16.8227,34.6791 16.8227,30.3484 Z M 39.2341,41.5092C 39.2341,34.3664 43.877,30.0358 49.1003,30.0358C 52.4038,30.0358 54.3681,31.6437 55.3956,33.428L 55.4847,33.428L 55.7074,30.5275L 60.4844,30.5275C 60.3953,32.0005 60.3062,33.7861 60.3062,36.777L 60.3062,49.0986C 60.3062,53.6524 59.3682,56.9115 57.0917,58.9648C 54.8153,60.9735 51.6899,61.598 48.6985,61.598C 45.9312,61.598 42.9844,61.0185 41.1093,59.8574L 42.3145,55.7058C 43.6989,56.5088 46.0199,57.3578 48.654,57.3578C 52.2252,57.3578 54.9039,55.4826 54.9039,50.7947L 54.9039,48.92L 54.8153,48.92C 53.5646,50.8402 51.3322,52.1345 48.4758,52.1345C 43.0735,52.1345 39.2341,47.6698 39.2341,41.5092 Z M 44.8146,41.3303C 44.8146,45.0365 46.6893,48.027 50.1274,48.027C 52.1811,48.027 53.9663,46.6881 54.5917,44.7234C 54.7253,44.1431 54.8153,43.3845 54.8153,42.7596L 54.8153,39.2329C 54.8153,38.7407 54.7698,38.2054 54.6358,37.7595C 54.0558,35.7503 52.4929,34.2328 50.1724,34.2328C 47.0915,34.2328 44.8146,36.911 44.8146,41.3303 Z "/>
</svg>
