<?xml version="1.0" encoding="utf-8"?>
<!DOCTYPE svg PUBLIC "-//W3C//DTD SVG 1.1//EN" "http://www.w3.org/Graphics/SVG/1.1/DTD/svg11.dtd">
<svg xmlns="http://www.w3.org/2000/svg" xmlns:xlink="http://www.w3.org/1999/xlink" version="1.1" baseProfile="full" width="76" height="76" viewBox="0 0 76.00 76.00" enable-background="new 0 0 76.00 76.00" xml:space="preserve">
	<path fill="#000000" fill-opacity="1" stroke-width="0.2" stroke-linejoin="round" d="M 38,15.8333C 50.2423,15.8333 60.1667,25.7577 60.1667,38C 60.1667,50.2423 50.2423,60.1667 38,60.1667C 25.7577,60.1667 15.8333,50.2423 15.8333,38C 15.8333,25.7577 25.7577,15.8333 38,15.8333 Z M 38,19C 37.0389,19 36.0944,19.0714 35.1716,19.2091C 34.9741,19.6392 34.8333,20.1113 34.8333,20.5833C 34.8333,22.1667 33.25,19 31.6667,22.1667C 30.0833,25.3333 31.6667,22.1667 31.6667,25.3333C 31.6667,26.9167 29.3752,25.771 30.0833,26.125C 31.6667,26.9167 31.6667,26.9167 30.0833,28.5C 30.0833,28.5 26.9167,26.9167 26.9167,28.5C 26.9167,30.0833 25.3333,30.0833 23.75,30.0833C 22.1667,30.0833 23.75,33.25 22.1667,33.25C 20.9493,33.25 21.6039,31.3779 20.5322,30.5126C 20.1248,31.4618 19.7925,32.4508 19.5428,33.4722C 20.6099,34.4283 20.7886,38.2053 22.1667,39.5834C 23.75,38 23.75,39.5834 25.3333,39.5834C 26.9167,39.5834 26.9167,39.5834 27.7083,41.1667C 29.2917,41.1667 30.0833,42.75 31.6667,44.3333C 33.25,45.9167 36.4166,45.9167 36.4166,47.5C 36.4166,49.0833 34.8333,47.5 34.8333,50.6667C 34.8333,52.25 34.8333,52.25 33.25,52.25C 32.2531,52.25 31.2561,54.1331 30.6544,55.528C 32.9142,56.4761 35.3959,57 38,57C 43.3179,57 48.1255,54.8153 51.5742,51.2944L 50.6666,49.4792C 50.6666,49.4792 52.6458,46.3125 51.0625,44.7292C 49.4791,43.1459 49.4791,41.5625 49.4791,41.5625C 49.4791,41.5625 46.3125,44.7292 44.7291,43.1458C 43.1458,41.5625 43.1458,43.1458 41.5625,39.9792C 39.9791,36.8125 43.1458,35.2292 43.1458,35.2292C 43.1458,35.2292 43.1458,32.0625 44.7291,32.0625C 46.3125,32.0625 47.8958,28.8959 51.0625,32.0625C 51.0625,32.0625 52.8924,30.8426 55.4814,30.5444C 54.6693,28.6428 53.5561,26.9006 52.2016,25.3777C 51.9172,25.5822 51.545,25.7292 51.0625,25.7292C 49.4791,25.7292 52.6458,28.8959 51.0625,28.8959C 49.4791,28.8959 49.4791,27.3125 47.8958,27.3125C 46.3125,27.3125 46.3125,28.8959 44.7291,30.4792C 43.1458,32.0625 44.7291,30.4792 43.1458,28.8959C 41.5625,27.3125 46.3125,28.8959 44.7291,27.3125C 43.1458,25.7292 46.3125,25.7292 46.3125,24.1459C 46.3125,22.904 48.2605,22.6362 49.1008,22.5784C 48.187,21.9195 47.2124,21.3398 46.3125,20.9792C 47.8958,22.5625 44.7291,24.1459 43.1458,24.1459C 41.6585,24.1459 42.9653,21.3518 43.1294,19.7005C 41.4977,19.2441 39.7773,19 38,19 Z M 19,38C 19,43.5885 21.4127,48.6134 25.2533,52.09L 23.75,49.0833C 22.1667,49.0833 21.375,45.5209 21.375,43.9375C 21.375,42.6669 20.8651,41.6512 21.4821,40.4812C 19.2482,38.2376 20.5833,39.454 20.5833,38C 20.5833,37.2463 19.8657,36.4925 19.1137,35.9096C 19.0385,36.5961 19,37.2935 19,38 Z "/>
</svg>
