<?xml version="1.0" encoding="utf-8"?>
<!DOCTYPE svg PUBLIC "-//W3C//DTD SVG 1.1//EN" "http://www.w3.org/Graphics/SVG/1.1/DTD/svg11.dtd">
<svg xmlns="http://www.w3.org/2000/svg" xmlns:xlink="http://www.w3.org/1999/xlink" version="1.1" baseProfile="full" width="76" height="76" viewBox="0 0 76.00 76.00" enable-background="new 0 0 76.00 76.00" xml:space="preserve">
	<path fill="#000000" fill-opacity="1" stroke-linejoin="round" d="M 52,19L 52,25L 49,25L 49,29.9993C 48.3587,30.9627 47.837,32.2274 47.4874,33.6883L 45.0642,30.4288C 44.7092,30.0058 44.0784,29.9506 43.6553,30.3056L 42.1232,31.5912C 41.7002,31.9462 41.645,32.5769 42,33L 47.0477,39.3872C 47.2349,42.0851 47.9603,44.4388 49,46.0007L 49,51L 52,51L 52,57L 58,57L 58,19L 52,19 Z M 20.1383,38.3436C 18.5953,41.7085 18.0695,47.4307 12.6426,54.0385C 14.3053,56.6618 16.3638,59.0093 18.7342,60.9972C 19.4636,59.6417 22.2355,55.8278 31.2627,53.0679C 31.2627,53.0679 39.24,46.0977 43.25,37.5519C 43.25,37.5519 42.3769,32.416 38.8177,35.5956C 35.2584,38.7751 30.7173,45.2525 28.0466,42.5486C 22.4935,36.9264 45.3392,34.1246 41.5303,26.2265C 41.5303,26.2265 21.8113,34.6951 20.1383,38.3436 Z M 21.5636,35.9151L 27.0641,32.567C 27.0641,32.567 25.5655,31.9031 23.6529,32.4878C 21.7403,33.0726 21.5636,35.9151 21.5636,35.9151 Z M 30.8307,37.6889C 35.3782,40.307 37.37,36.561 37.37,36.561L 35.1915,35.1357L 30.8307,37.6889 Z "/>
</svg>
