<?xml version="1.0" encoding="utf-8"?>
<!DOCTYPE svg PUBLIC "-//W3C//DTD SVG 1.1//EN" "http://www.w3.org/Graphics/SVG/1.1/DTD/svg11.dtd">
<svg xmlns="http://www.w3.org/2000/svg" xmlns:xlink="http://www.w3.org/1999/xlink" version="1.1" baseProfile="full" width="76" height="76" viewBox="0 0 76.00 76.00" enable-background="new 0 0 76.00 76.00" xml:space="preserve">
	<path fill="#000000" fill-opacity="1" stroke-width="0.2" stroke-linejoin="round" d="M 22,14L 41.25,14L 56,28.75L 56,56L 22,56L 22,14 Z M 26.9166,19L 27,51L 51,51L 51,33L 37,33L 37,19L 26.9166,19 Z M 41,20.25L 41,29L 49.75,29L 41,20.25 Z M 28.5,59C 29.8807,59 31,60.1193 31,61.5C 31,62.8807 29.8807,64 28.5,64C 27.1193,64 26,62.8807 26,61.5C 26,60.1193 27.1193,59 28.5,59 Z M 38.5,59C 39.8807,59 41,60.1193 41,61.5C 41,62.8807 39.8807,64 38.5,64C 37.1193,64 36,62.8807 36,61.5C 36,60.1193 37.1193,59 38.5,59 Z M 47.5,59C 48.8807,59 50,60.1193 50,61.5C 50,62.8807 48.8807,64 47.5,64C 46.1193,64 45,62.8807 45,61.5C 45,60.1193 46.1193,59 47.5,59 Z "/>
</svg>
