<?xml version="1.0" encoding="utf-8"?>
<!DOCTYPE svg PUBLIC "-//W3C//DTD SVG 1.1//EN" "http://www.w3.org/Graphics/SVG/1.1/DTD/svg11.dtd">
<svg xmlns="http://www.w3.org/2000/svg" xmlns:xlink="http://www.w3.org/1999/xlink" version="1.1" baseProfile="full" width="76" height="76" viewBox="0 0 76.00 76.00" enable-background="new 0 0 76.00 76.00" xml:space="preserve">
	<path fill="#000000" fill-opacity="1" stroke-width="0.2" stroke-linejoin="round" d="M 52.4283,38.871C 52.345,37.6943 51.9516,36.803 51.2449,36.1946C 50.5424,35.5836 49.6657,35.277 48.6201,35.277C 47.4812,35.277 46.603,35.6052 45.9779,36.2486C 45.3495,36.8912 44.9578,37.7652 44.7978,38.871M 56.8765,38.4302C 56.9919,39.2037 57.0431,40.326 57.0225,41.7928L 44.6914,41.7928C 44.7598,43.4956 45.347,44.6855 46.462,45.3665C 47.1332,45.7938 47.948,46.0024 48.9029,46.0024C 49.9082,46.0024 50.7287,45.7478 51.3604,45.225C 51.7043,44.9481 52.0078,44.5567 52.27,44.0635L 56.7899,44.0635C 56.6712,45.0684 56.1269,46.0885 55.1497,47.1246C 53.6339,48.7708 51.5088,49.5971 48.78,49.5971C 46.5255,49.5971 44.5381,48.9005 42.8137,47.5126C 41.0943,46.1201 40.2309,43.8613 40.2309,40.728C 40.2309,37.7897 41.006,35.5414 42.5613,33.9758C 44.1224,32.4072 46.1371,31.627 48.6201,31.627C 50.0921,31.627 51.4189,31.8896 52.6023,32.4191C 53.7832,32.9485 54.7579,33.7819 55.5265,34.927C 56.2209,35.9353 56.6687,37.1015 56.8765,38.4302 Z M 33.4233,42.2762C 33.4233,41.0476 32.9212,40.1989 31.9192,39.7433C 31.3593,39.4845 30.5684,39.3524 29.5549,39.3426L 24.48,39.3426L 24.48,45.6434L 29.4766,45.6434C 30.5025,45.6434 31.2974,45.5097 31.8705,45.2289C 32.9046,44.7133 33.4233,43.7325 33.4233,42.2762 Z M 24.48,35.4282L 29.4832,35.4282C 30.5107,35.4282 31.3428,35.2323 31.9827,34.8422C 32.6218,34.452 32.941,33.7588 32.941,32.7631C 32.941,31.6633 32.5187,30.9332 31.671,30.5819C 30.9428,30.3379 30.0109,30.2121 28.8804,30.2121L 24.48,30.2121M 37.4839,39.151C 38.0983,40.1018 38.4051,41.2578 38.4051,42.6136C 38.4051,44.0167 38.0587,45.2749 37.3545,46.3866C 36.9067,47.1225 36.3501,47.744 35.6821,48.2439C 34.9292,48.8224 34.0377,49.2188 33.0135,49.4312C 31.986,49.6436 30.8735,49.7504 29.6753,49.7504L 19.0266,49.7504L 19.0266,26.106L 30.4455,26.106C 33.3244,26.1533 35.3646,26.9867 36.5694,28.6245C 37.2926,29.629 37.6506,30.8344 37.6506,32.235C 37.6506,33.6806 37.2877,34.8371 36.5579,35.7162C 36.1521,36.2085 35.5518,36.6569 34.7577,37.0614C 35.9608,37.5022 36.8737,38.1955 37.4839,39.151 Z M 53.3445,29.4525L 43.8222,29.4525L 43.8222,27.0872L 53.3445,27.0872L 53.3445,29.4525 Z "/>
</svg>
