<?xml version="1.0" encoding="utf-8"?>
<!DOCTYPE svg PUBLIC "-//W3C//DTD SVG 1.1//EN" "http://www.w3.org/Graphics/SVG/1.1/DTD/svg11.dtd">
<svg xmlns="http://www.w3.org/2000/svg" xmlns:xlink="http://www.w3.org/1999/xlink" version="1.1" baseProfile="full" width="76" height="76" viewBox="0 0 76.00 76.00" enable-background="new 0 0 76.00 76.00" xml:space="preserve">
	<path fill="#000000" fill-opacity="1" stroke-linejoin="round" d="M 32,19.5001C 34.4853,19.5001 36.5,21.5148 36.5,24.0001L 36.4999,36.5L 27.4999,36.5L 27.5,24.0001C 27.5,21.5148 29.5147,19.5001 32,19.5001 Z M 36.5,52C 36.5,54.4853 34.4852,56.5 32,56.5C 29.5147,56.5 27.5,54.4853 27.5,52L 27.5,48.5L 36.5,48.5L 36.5,52 Z "/>
	<path fill="#000000" fill-opacity="0.803922" stroke-linejoin="round" d="M 44,19.5C 46.4853,19.5 48.5,21.5147 48.5,24L 48.5,27.5L 39.5,27.5L 39.5,24C 39.5,21.5147 41.5147,19.5 44,19.5 Z M 48.5,52C 48.5,54.4852 46.4853,56.5 44,56.5C 41.5147,56.5 39.5,54.4852 39.5,52L 39.5,39.5L 48.4999,39.5L 48.5,52 Z "/>
	<path fill="#000000" fill-opacity="0.403922" stroke-linejoin="round" d="M 19.5,32C 19.5,29.5147 21.5147,27.5 24,27.5L 27.5,27.5L 27.5,36.5L 24,36.5C 21.5147,36.5 19.5,34.4853 19.5,32 Z M 51.9999,27.5C 54.4852,27.5 56.4999,29.5147 56.4999,32C 56.4999,34.4853 54.4852,36.5 51.9999,36.5L 39.5,36.5L 39.5,27.5001L 51.9999,27.5 Z "/>
	<path fill="#000000" fill-opacity="0.603922" stroke-linejoin="round" d="M 19.5,44C 19.5,41.5147 21.5148,39.5 24,39.5L 36.5,39.5L 36.5,48.5L 24,48.5C 21.5148,48.5 19.5,46.4853 19.5,44 Z M 52,39.5C 54.4853,39.5 56.5,41.5147 56.5,44C 56.5,46.4853 54.4853,48.5 52,48.5L 48.5,48.5L 48.5,39.5L 52,39.5 Z "/>
</svg>
