<?xml version="1.0" encoding="utf-8"?>
<!DOCTYPE svg PUBLIC "-//W3C//DTD SVG 1.1//EN" "http://www.w3.org/Graphics/SVG/1.1/DTD/svg11.dtd">
<svg xmlns="http://www.w3.org/2000/svg" xmlns:xlink="http://www.w3.org/1999/xlink" version="1.1" baseProfile="full" width="76" height="76" viewBox="0 0 76.00 76.00" enable-background="new 0 0 76.00 76.00" xml:space="preserve">
	<path fill="#000000" fill-opacity="1" stroke-width="0.2" stroke-linejoin="round" d="M 27.7083,49.0833L 48.2917,49.0833C 50.4778,49.0833 52.25,50.8555 52.25,53.0417C 52.25,55.2278 50.4778,57 48.2917,57L 27.7083,57C 25.5222,57 23.75,55.2278 23.75,53.0417C 23.75,50.8555 25.5222,49.0833 27.7083,49.0833 Z M 19.2688,36.612L 26.4321,32.4762L 19.2688,28.3405C 17.8683,27.5319 17.3885,25.7411 18.197,24.3406C 19.0056,22.94 20.7965,22.4602 22.197,23.2688L 33.6084,29.8571C 34.5726,30.4138 35.1004,31.4361 35.0718,32.4761C 35.1005,33.5162 34.5727,34.5386 33.6084,35.0953L 22.197,41.6837C 20.7964,42.4923 19.0056,42.0125 18.197,40.6119C 17.3884,39.2114 17.8683,37.4206 19.2688,36.612 Z M 56.7312,36.612C 58.1317,37.4206 58.6116,39.2114 57.803,40.6119C 56.9944,42.0125 55.2036,42.4923 53.803,41.6837L 42.3916,35.0953C 41.4273,34.5386 40.8995,33.5162 40.9282,32.4761C 40.8995,31.4361 41.4274,30.4138 42.3916,29.8571L 53.803,23.2688C 55.2035,22.4602 56.9944,22.94 57.8029,24.3406C 58.6115,25.7411 58.1317,27.5319 56.7312,28.3405L 49.5679,32.4762L 56.7312,36.612 Z "/>
</svg>
