<?xml version="1.0" encoding="utf-8"?>
<!DOCTYPE svg PUBLIC "-//W3C//DTD SVG 1.1//EN" "http://www.w3.org/Graphics/SVG/1.1/DTD/svg11.dtd">
<svg xmlns="http://www.w3.org/2000/svg" xmlns:xlink="http://www.w3.org/1999/xlink" version="1.1" baseProfile="full" width="76.0106" height="76.0106" viewBox="0 0 76.01 76.01" enable-background="new 0 0 76.01 76.01" xml:space="preserve">
	<path fill="#000000" fill-opacity="1" stroke-width="0.2" stroke-linejoin="round" d="M 26.9193,36.4217L 31.6693,36.4217L 31.6693,44.3384L 39.586,44.3384L 39.586,49.0884L 31.6693,49.0884L 31.6693,57.0051L 26.9193,57.0051L 26.9193,49.0884L 19.0027,49.0884L 19.0027,44.3384L 26.9193,44.3384L 26.9193,36.4217 Z M 38.0053,19.0027L 57.0079,28.504L 38.0053,38.0053L 33.2529,35.6291L 33.2529,34.8382L 31.6711,34.8382L 19.0027,28.504L 38.0053,19.0027 Z M 57.0079,47.5066L 38.0053,57.008L 33.2529,54.6317L 33.2529,50.672L 38.0024,50.672L 38.0053,50.6737L 38.0088,50.672L 41.1693,50.672L 41.1694,49.0917L 50.6737,44.3395L 57.0079,47.5066 Z M 57.0079,38.0053L 41.1695,45.9245L 41.1695,42.7549L 38.0026,42.7549L 33.2529,42.7548L 33.2529,38.7962L 38.0053,41.1724L 50.6737,34.8382L 57.0079,38.0053 Z M 19.0027,38.0053L 25.336,34.8386L 25.3357,38.0053L 25.3358,41.1719L 19.0027,38.0053 Z "/>
</svg>
