<?xml version="1.0" encoding="utf-8"?>
<!DOCTYPE svg PUBLIC "-//W3C//DTD SVG 1.1//EN" "http://www.w3.org/Graphics/SVG/1.1/DTD/svg11.dtd">
<svg xmlns="http://www.w3.org/2000/svg" xmlns:xlink="http://www.w3.org/1999/xlink" version="1.1" baseProfile="full" width="76" height="76" viewBox="0 0 76.00 76.00" enable-background="new 0 0 76.00 76.00" xml:space="preserve">
	<path fill="#000000" fill-opacity="1" stroke-width="0.2" stroke-linejoin="round" d="M 38,61.75L 26.9167,50.6667L 38,39.5833L 38,44.3333L 31.6667,50.6667L 38,57L 38,61.75 Z M 42.4876,64.9167L 38.5293,64.9167L 46.4459,36.4167L 50.4043,36.4167L 42.4876,64.9167 Z M 52.25,61.75L 52.25,57L 58.5833,50.6667L 52.25,44.3333L 52.25,39.5833L 63.3333,50.6667L 52.25,61.75 Z M 19,17.4167L 41.9583,17.4167L 53.8333,29.2917L 53.8333,38L 52.25,36.4167L 50.6667,33.25L 38,33.25L 38,20.5833L 22.1667,20.5834L 22.1667,55.4167L 27.5284,55.4167L 31.5227,58.5834L 19,58.5833L 19,17.4167 Z M 50.6666,45.9167L 53.8333,48.2917L 53.8333,52.25L 50.6666,54.625L 50.6666,45.9167 Z M 46.7083,58.5834L 47.5,55.4167L 50.6667,55.4167L 50.6667,58.5833L 46.7083,58.5834 Z M 41.1666,21.3751L 41.1666,30.0834L 49.8749,30.0834L 41.1666,21.3751 Z "/>
</svg>
