<?xml version="1.0" encoding="utf-8"?>
<!DOCTYPE svg PUBLIC "-//W3C//DTD SVG 1.1//EN" "http://www.w3.org/Graphics/SVG/1.1/DTD/svg11.dtd">
<svg xmlns="http://www.w3.org/2000/svg" xmlns:xlink="http://www.w3.org/1999/xlink" version="1.1" baseProfile="full" width="76" height="76" viewBox="0 0 76.00 76.00" enable-background="new 0 0 76.00 76.00" xml:space="preserve">
	<path fill="#000000" fill-opacity="1" stroke-width="0.2" stroke-linejoin="round" d="M 57,46L 3.91848,46C 4.32038,47.7189 4.84896,49.389 5.49382,51L 52,51L 52,70.0877C 53.7455,69.3251 55.4168,68.4242 57,67.3988L 57,46 Z M 6.99999,39L 6.99999,41L 11,41L 11,39L 6.99999,39 Z M 13,39L 13,41L 17,41L 17,39L 13,39 Z M 19,39L 19,41L 23,41L 23,39L 19,39 Z M 25,39L 25,41L 29,41L 29,39L 25,39 Z M 31,39L 31,41L 35,41L 35,39L 31,39 Z M 37,39L 37,41L 41,41L 41,39L 37,39 Z M 42.9999,39L 42.9999,41L 46.9999,41L 46.9999,39L 42.9999,39 Z M 48.9999,39L 48.9999,41L 52.9999,41L 52.9999,39L 48.9999,39 Z M 54.9999,39L 54.9999,41L 58.9999,41L 58.9999,39L 54.9999,39 Z M 56.9999,34L 56.9999,8.60117C 55.4167,7.57586 53.7454,6.67496 51.9999,5.91232L 51.9999,29L 4.16797,29.0001C 3.73725,30.6234 3.42027,32.2931 3.22607,34L 56.9999,34 Z "/>
</svg>
