<?xml version="1.0" encoding="utf-8"?>
<!DOCTYPE svg PUBLIC "-//W3C//DTD SVG 1.1//EN" "http://www.w3.org/Graphics/SVG/1.1/DTD/svg11.dtd">
<svg xmlns="http://www.w3.org/2000/svg" xmlns:xlink="http://www.w3.org/1999/xlink" version="1.1" baseProfile="full" width="76" height="76" viewBox="0 0 76.00 76.00" enable-background="new 0 0 76.00 76.00" xml:space="preserve">
	<path fill="#000000" fill-opacity="1" stroke-width="0.2" stroke-linejoin="round" d="M 17.4167,25.3333C 31.6667,15.8333 36.1373,28.0549 36.5099,34.7607C 36.8824,41.4666 30.3627,49.9216 22.1667,44.3333L 22.1667,55.4167L 17.4167,52.25L 17.4167,25.3333 Z M 21.9804,28.8466L 21.9804,39.9298C 29.4314,44.4003 31.9926,40.7215 31.9926,34.3882C 31.9926,25.447 26.8236,25.1212 21.9804,28.8466 Z M 44.3333,22.1667C 44.3333,22.1667 43.9608,29.3378 44.3333,36.4162C 45.0784,43.4947 53.8333,37.9998 53.8333,37.9998L 53.8333,23.75L 58.5836,24.3294L 58.5836,43.3527C 58.5836,56.0194 45.9167,55.4167 45.9167,55.4167L 44.3331,50.6667C 55.4167,50.6667 54.0197,43.3294 54.0197,43.3294C 40.6079,48.5451 39.5833,39.5833 39.5833,39.5833L 39.5833,25.3333L 44.3333,22.1667 Z "/>
</svg>
