<?xml version="1.0" encoding="utf-8"?>
<!DOCTYPE svg PUBLIC "-//W3C//DTD SVG 1.1//EN" "http://www.w3.org/Graphics/SVG/1.1/DTD/svg11.dtd">
<svg xmlns="http://www.w3.org/2000/svg" xmlns:xlink="http://www.w3.org/1999/xlink" version="1.1" baseProfile="full" width="76" height="76" viewBox="0 0 76.00 76.00" enable-background="new 0 0 76.00 76.00" xml:space="preserve">
	<path fill="#000000" fill-opacity="1" stroke-width="0.2" stroke-linejoin="round" d="M 38,19C 48.4934,19 57,27.5066 57,38C 57,48.4934 48.4934,57 38,57C 27.5066,57 19,48.4934 19,38C 19,27.5066 27.5066,19 38,19 Z M 29.96,32.48L 29.96,34.4L 34.785,34.4L 30.4575,43.4025L 32.305,44.32L 37.48,33.5525L 37.48,32.48L 29.96,32.48 Z M 43.3825,32.16L 38.28,39.6125L 38.28,41.6L 43.4,41.6L 43.4,44L 45.48,44L 45.48,41.6L 46.44,41.6L 46.44,39.68L 45.48,39.68L 45.48,32.16L 43.3825,32.16 Z M 43.4,39.68L 40.72,39.68L 43.4,35.765L 43.4,39.68 Z M 38,21L 36.9537,21.0317L 37.3202,24.0162L 38,24L 38.1914,24.0013L 38.4534,21.0059L 38,21 Z M 52.3348,28.8576L 49.9022,30.625L 50.3388,31.3796L 53.0863,30.1564L 52.3348,28.8576 Z M 53.9247,32.0367L 51.1772,33.26L 51.4465,34.0895L 54.3882,33.4642L 53.9247,32.0367 Z M 54.8142,35.4785L 51.8726,36.1037L 51.9627,36.9706L 54.9693,36.9706L 54.8142,35.4785 Z M 54.9693,39.0294L 51.9627,39.0294L 51.8726,39.8963L 54.8142,40.5216L 54.9693,39.0294 Z M 54.3881,42.5358L 51.4465,41.9106L 51.1772,42.7401L 53.9247,43.9633L 54.3881,42.5358 Z M 53.0862,45.8437L 50.3388,44.6204L 49.9022,45.3751L 52.3348,47.1425L 53.0862,45.8437 Z M 23.6651,47.1425L 26.0978,45.375L 25.6612,44.6205L 22.9137,45.8437L 23.6651,47.1425 Z M 22.0753,43.9633L 24.8228,42.7401L 24.5534,41.9106L 21.6118,42.5359L 22.0753,43.9633 Z M 21.1857,40.5216L 24.1273,39.8963L 24.0372,39.0294L 21.0306,39.0294L 21.1857,40.5216 Z M 21.0306,36.9706L 24.0372,36.9706L 24.1273,36.1037L 21.1857,35.4785L 21.0306,36.9706 Z M 21.6118,33.4642L 24.5534,34.0895L 24.8228,33.26L 22.0753,32.0367L 21.6118,33.4642 Z M 22.9137,30.1564L 25.6612,31.3796L 26.0978,30.625L 23.6651,28.8576L 22.9137,30.1564 Z M 24.8766,27.1929L 27.3092,28.9603L 27.725,28.4907L 25.6745,26.2918L 24.8766,27.1929 Z M 27.1799,24.8874L 29.2305,27.0863L 29.9261,26.5613L 28.3773,23.9837L 27.1799,24.8874 Z M 30.1411,22.9217L 31.6899,25.4993L 32.4799,25.1303L 31.5007,22.2866L 30.1411,22.9217 Z M 33.4474,21.6165L 34.4266,24.4602L 35.2764,24.2648L 34.9099,21.2802L 33.4474,21.6165 Z M 40.328,21.1568L 39.9174,24.1291C 43.3715,24.6021 46.4408,26.3414 48.6218,28.8773L 50.8976,26.9226C 48.2493,23.8432 44.5223,21.7312 40.328,21.1568 Z "/>
</svg>
