<?xml version="1.0" encoding="utf-8"?>
<!DOCTYPE svg PUBLIC "-//W3C//DTD SVG 1.1//EN" "http://www.w3.org/Graphics/SVG/1.1/DTD/svg11.dtd">
<svg xmlns="http://www.w3.org/2000/svg" xmlns:xlink="http://www.w3.org/1999/xlink" version="1.1" baseProfile="full" width="76" height="76" viewBox="0 0 76.00 76.00" enable-background="new 0 0 76.00 76.00" xml:space="preserve">
	<path fill="#000000" fill-opacity="1" stroke-linejoin="round" d="M 21.3,17L 46.7,17C 47.418,17 48,17.5821 48,18.3L 48,24.7C 48,25.418 47.418,26 46.7,26L 31.3,26C 30.0298,26 29,27.0298 29,28.3L 29,49.7C 29,50.418 28.418,51 27.7,51L 21.3,51C 20.582,51 20,50.418 20,49.7L 20,18.3C 20,17.582 20.582,17 21.3,17 Z M 33.3,29L 54.7,29C 55.4179,29 56,29.5821 56,30.3L 56,57.7C 56,58.418 55.4179,59 54.7,59L 33.3,59C 32.582,59 32,58.418 32,57.7L 32,30.3C 32,29.5821 32.582,29 33.3,29 Z M 38.2842,47.0521C 38.2842,47.8279 38.4306,48.5371 38.7235,49.1797C 39.0165,49.8223 39.4248,50.3725 39.9486,50.8303C 40.4725,51.2882 41.0952,51.6451 41.817,51.901C 42.5387,52.157 43.3324,52.285 44.1979,52.285C 45.0714,52.285 45.871,52.157 46.5967,51.901C 47.3224,51.6451 47.9451,51.2882 48.465,50.8303C 48.9849,50.3725 49.3893,49.8223 49.6782,49.1797C 49.9672,48.5371 50.1117,47.8279 50.1117,47.0521C 50.1117,46.5322 50.0457,46.0335 49.9137,45.5558C 49.7818,45.0782 49.5839,44.6368 49.32,44.2318C 49.0561,43.8267 48.7282,43.4658 48.3363,43.1492C 47.9445,42.8325 47.4926,42.5752 46.9806,42.3773C 47.7327,41.9472 48.335,41.3963 48.7876,40.7247C 49.2402,40.0531 49.4665,39.3083 49.4665,38.4902C 49.4665,37.849 49.3345,37.2519 49.0706,36.6991C 48.8067,36.1462 48.4379,35.6679 47.9643,35.2642C 47.4906,34.8604 46.9298,34.5431 46.282,34.3122C 45.6341,34.0813 44.9276,33.9658 44.1623,33.9658C 43.4023,33.9658 42.701,34.0793 42.0584,34.3062C 41.4159,34.5332 40.8571,34.8485 40.3821,35.2523C 39.9071,35.656 39.5357,36.1343 39.2678,36.6872C 39,37.24 38.866,37.841 38.866,38.4902C 38.866,39.3083 39.093,40.0531 39.5469,40.7247C 40.0008,41.3963 40.6117,41.9472 41.3796,42.3773C 40.8597,42.5752 40.4058,42.8345 40.0179,43.1551C 39.63,43.4757 39.3081,43.8386 39.0521,44.2436C 38.7961,44.6487 38.6041,45.0901 38.4761,45.5677C 38.3482,46.0453 38.2842,46.5401 38.2842,47.0521 Z M 41.0827,46.8027C 41.0827,46.3251 41.1606,45.8844 41.3162,45.4806C 41.4719,45.0769 41.6883,44.7285 41.9654,44.4356C 42.2425,44.1427 42.5724,43.9158 42.955,43.7548C 43.3376,43.5938 43.7519,43.5133 44.1979,43.5133C 44.6676,43.5133 45.0945,43.5998 45.4784,43.7726C 45.8624,43.9455 46.1903,44.1803 46.4621,44.4772C 46.7339,44.7741 46.9443,45.1231 47.0934,45.5242C 47.2425,45.9253 47.3171,46.3515 47.3171,46.8027C 47.3171,47.2988 47.2386,47.7468 47.0816,48.1466C 46.9245,48.5464 46.7081,48.8887 46.4324,49.1738C 46.1566,49.4587 45.8287,49.6771 45.4487,49.8289C 45.0687,49.9806 44.6518,50.0565 44.1979,50.0565C 43.7282,50.0565 43.3013,49.9826 42.9174,49.8348C 42.5334,49.687 42.2056,49.4726 41.9337,49.1916C 41.6619,48.9105 41.4521,48.5681 41.3044,48.1644C 41.1566,47.7606 41.0827,47.3067 41.0827,46.8027 Z M 41.6883,38.7871C 41.6883,38.4335 41.7477,38.0977 41.8665,37.7797C 41.9852,37.4617 42.1541,37.1833 42.3731,36.9445C 42.5922,36.7057 42.8541,36.5183 43.1588,36.3824C 43.4636,36.2465 43.8021,36.1785 44.1742,36.1785C 44.5278,36.1785 44.8576,36.2445 45.1637,36.3765C 45.4699,36.5084 45.7337,36.6898 45.9554,36.9207C 46.1771,37.1516 46.3519,37.4281 46.4799,37.75C 46.6079,38.0719 46.6719,38.4176 46.6719,38.7871C 46.6719,39.1512 46.6059,39.4923 46.4739,39.8103C 46.342,40.1283 46.1626,40.4047 45.9356,40.6396C 45.7087,40.8744 45.4448,41.0598 45.144,41.1957C 44.8431,41.3316 44.5199,41.3996 44.1742,41.3996C 43.8285,41.3996 43.5052,41.3336 43.2044,41.2017C 42.9035,41.0697 42.6416,40.8863 42.4186,40.6515C 42.1957,40.4166 42.0182,40.1402 41.8862,39.8222C 41.7543,39.5042 41.6883,39.1592 41.6883,38.7871 Z "/>
</svg>
