<?xml version="1.0" encoding="utf-8"?>
<!DOCTYPE svg PUBLIC "-//W3C//DTD SVG 1.1//EN" "http://www.w3.org/Graphics/SVG/1.1/DTD/svg11.dtd">
<svg xmlns="http://www.w3.org/2000/svg" xmlns:xlink="http://www.w3.org/1999/xlink" version="1.1" baseProfile="full" width="76" height="76" viewBox="0 0 76.00 76.00" enable-background="new 0 0 76.00 76.00" xml:space="preserve">
	<path fill="#000000" fill-opacity="1" stroke-width="0.2" stroke-linejoin="round" d="M 17.4167,25.3333L 23.75,25.3333L 23.75,41.1667L 58.5833,41.1667L 58.5833,45.9167L 58.5833,50.6667L 53.8333,50.6667L 53.8333,45.9167L 23.75,45.9167L 23.75,50.6667L 17.4167,50.6667L 17.4167,25.3333 Z M 57,39.5833L 35.625,39.5833L 35.625,30.0834C 43.0139,30.0834 48.0278,30.0834 51.9861,31.6667C 55.9444,33.25 56.4722,36.4167 57,39.5833 Z M 25.3333,35.625L 31.6667,36.4167L 31.6667,39.5833L 25.3333,39.5833L 25.3333,35.625 Z M 28.5,28.5C 30.2489,28.5 31.6667,29.9178 31.6667,31.6667C 31.6667,33.4156 30.2489,34.8333 28.5,34.8333C 26.7511,34.8333 25.3333,33.4156 25.3333,31.6667C 25.3333,29.9178 26.7511,28.5 28.5,28.5 Z M 32.8542,30.0833L 34.8333,30.0833L 34.8333,39.5833L 32.8542,39.5833L 32.8542,30.0833 Z "/>
</svg>
