<?xml version="1.0" encoding="utf-8"?>
<!DOCTYPE svg PUBLIC "-//W3C//DTD SVG 1.1//EN" "http://www.w3.org/Graphics/SVG/1.1/DTD/svg11.dtd">
<svg xmlns="http://www.w3.org/2000/svg" xmlns:xlink="http://www.w3.org/1999/xlink" version="1.1" baseProfile="full" width="76" height="76" viewBox="0 0 76.00 76.00" enable-background="new 0 0 76.00 76.00" xml:space="preserve">
	<path fill="#FFFFFF" fill-opacity="1" stroke-width="0.2" stroke-linejoin="round" d="M 14.25,50.6666L 45.9166,50.6667L 45.9166,39.5833L 39.5833,39.5833L 39.5833,23.75L 14.25,23.75L 14.25,50.6666 Z M 42.75,42.75L 42.75,47.5L 17.4167,47.5L 17.4167,42.75L 42.75,42.75 Z M 36.4166,39.5833L 17.4167,39.5833L 17.4167,34.8333L 36.4166,34.8333L 36.4166,39.5833 Z M 36.4166,31.6667L 17.4167,31.6667L 17.4167,26.9167L 36.4166,26.9167L 36.4166,31.6667 Z M 50.6666,47.5L 55.4166,47.5L 55.4166,52.25L 60.1666,52.25L 60.1666,47.5L 64.9166,47.5L 64.9166,42.75L 60.1666,42.75L 60.1666,38L 55.4166,38L 55.4166,42.75L 50.6666,42.75L 50.6666,47.5 Z "/>
</svg>
