<?xml version="1.0" encoding="utf-8"?>
<!DOCTYPE svg PUBLIC "-//W3C//DTD SVG 1.1//EN" "http://www.w3.org/Graphics/SVG/1.1/DTD/svg11.dtd">
<svg xmlns="http://www.w3.org/2000/svg" xmlns:xlink="http://www.w3.org/1999/xlink" version="1.1" baseProfile="full" width="76" height="76" viewBox="0 0 76.00 76.00" enable-background="new 0 0 76.00 76.00" xml:space="preserve">
	<path fill="#000000" fill-opacity="1" stroke-width="0.2" stroke-linejoin="round" d="M 28.3249,58.4423C 27.0009,56.9445 24.8929,56.3797 22.9974,57.0148L 14.8974,42.9852C 16.3952,41.6612 16.9601,39.5532 16.3249,37.6577L 47.675,19.5577C 48.999,21.0556 51.107,21.6204 53.0025,20.9852L 61.1025,35.0149C 59.6047,36.3388 59.0399,38.4468 59.675,40.3423L 28.3249,58.4423 Z M 20.2686,40.2884C 19.312,40.8407 19.0758,41.7223 19.628,42.6789L 25.628,53.0712C 26.1803,54.0278 27.062,54.264 28.0185,53.7118L 55.7313,37.7118C 56.6879,37.1595 56.9241,36.2778 56.3719,35.3212L 50.3719,24.9289C 49.8196,23.9724 48.9379,23.7361 47.9813,24.2884L 20.2686,40.2884 Z M 20.6436,40.9379L 48.3563,24.9379C 48.8346,24.6618 49.4462,24.8256 49.7223,25.3039L 55.7223,35.6962C 55.9985,36.1745 55.8346,36.7861 55.3563,37.0622L 27.6435,53.0622C 27.1653,53.3384 26.5537,53.1745 26.2775,52.6962L 20.2775,42.3039C 20.0014,41.8256 20.1653,41.2141 20.6436,40.9379 Z M 29.9497,40.8475L 29.3504,39.8094L 24.8517,42.4067L 25.4511,43.4448L 27.0576,42.5173L 29.7256,47.1385L 31.0037,46.4005L 28.3357,41.7794L 29.9497,40.8475 Z M 31.2201,40.0349C 31.4331,39.9119 31.5709,39.7515 31.6335,39.5537C 31.6962,39.3559 31.6728,39.1623 31.5634,38.9729C 31.4555,38.7859 31.3011,38.6716 31.1002,38.6299C 30.8993,38.5882 30.6923,38.6288 30.4793,38.7518C 30.2688,38.8733 30.1305,39.032 30.0645,39.2278C 29.9985,39.4236 30.0195,39.615 30.1274,39.8019C 30.2324,39.9838 30.3882,40.0985 30.5946,40.146C 30.8011,40.1935 31.0096,40.1564 31.2201,40.0349 Z M 34.5375,44.3603L 32.2041,40.3189L 30.9576,41.0386L 33.2909,45.08L 34.5375,44.3603 Z M 38.5322,41.8586L 37.954,40.8571C 37.7691,41.2232 37.5213,41.4959 37.2106,41.6753C 36.8603,41.8775 36.5263,41.9343 36.2084,41.8455C 35.8906,41.7568 35.6283,41.5335 35.4217,41.1757C 35.2093,40.8078 35.1473,40.4588 35.2357,40.1287C 35.3242,39.7987 35.5473,39.5304 35.9051,39.3238C 36.2259,39.1386 36.573,39.0679 36.9463,39.1117L 36.336,38.0546C 36.05,38.0513 35.6688,38.1872 35.1922,38.4623C 34.5027,38.8605 34.0662,39.3762 33.883,40.0097C 33.6997,40.6431 33.8065,41.3033 34.2031,41.9904C 34.5463,42.5848 35.0187,42.9593 35.6204,43.1137C 36.222,43.2682 36.8331,43.1663 37.4537,42.808C 37.9849,42.5013 38.3445,42.1848 38.5322,41.8586 Z M 43.483,39.1956L 40.6947,37.9478L 41.0473,35.2132L 39.5671,36.0678L 39.4413,38.6294L 39.4248,38.6388L 37.2257,34.8298L 35.9791,35.5495L 39.4339,41.5333L 40.6805,40.8137L 39.5225,38.8081L 39.539,38.7986L 41.9876,40.059L 43.483,39.1956 Z M 46.4275,35.2745L 46.1249,34.7504C 45.7783,34.15 45.3428,33.768 44.8183,33.6044C 44.2939,33.4407 43.7369,33.529 43.1476,33.8693C 42.5793,34.1974 42.2135,34.6699 42.0504,35.2866C 41.8873,35.9034 41.9994,36.5473 42.3869,37.2184C 42.7607,37.8658 43.2321,38.2664 43.8013,38.4199C 44.3704,38.5735 44.9813,38.4619 45.6338,38.0852C 46.2316,37.74 46.6594,37.36 46.9172,36.9451L 46.3973,36.0446C 46.182,36.4496 45.8521,36.7804 45.4076,37.0371C 44.7104,37.4395 44.1714,37.3595 43.7905,36.797L 46.4275,35.2745 Z M 44.8288,35.1771L 43.341,36.036C 43.2292,35.7705 43.1985,35.5126 43.2488,35.2624C 43.2991,35.0122 43.4245,34.8293 43.6249,34.7136C 44.093,34.4433 44.4943,34.5978 44.8288,35.1771 Z M 50.5379,35.0585L 50.0049,34.1353L 49.6646,34.485C 49.3303,34.678 49.0416,34.564 48.7986,34.143L 47.855,32.5087L 48.7631,31.9844L 48.2323,31.065L 47.3242,31.5893L 46.6155,30.3617L 45.5776,31.4341L 46.0815,32.3068L 45.426,32.6852L 45.9568,33.6046L 46.6123,33.2262L 47.6813,35.0777C 48.2082,35.9904 48.9112,36.193 49.7902,35.6855C 50.1607,35.4716 50.4099,35.2626 50.5379,35.0585 Z "/>
</svg>
