<?xml version="1.0" encoding="utf-8"?>
<!DOCTYPE svg PUBLIC "-//W3C//DTD SVG 1.1//EN" "http://www.w3.org/Graphics/SVG/1.1/DTD/svg11.dtd">
<svg xmlns="http://www.w3.org/2000/svg" xmlns:xlink="http://www.w3.org/1999/xlink" version="1.1" baseProfile="full" width="76" height="76" viewBox="0 0 76.00 76.00" enable-background="new 0 0 76.00 76.00" xml:space="preserve">
	<path fill="#000000" fill-opacity="1" stroke-width="0.2" stroke-linejoin="round" d="M 12.6666,36.4167L 52.25,36.4167L 52.25,17.4167L 12.6666,36.4167 Z M 25.3333,33.25L 49.0833,22.1667L 49.0833,33.25L 25.3333,33.25 Z M 12.6666,39.5834L 25.2055,45.602L 26.6441,43.2043L 19,39.5834L 12.6666,39.5834 Z M 34.0564,49.8504L 35.5212,47.4092L 29.11,44.3723L 27.6641,46.7821L 34.0564,49.8504 Z M 42.9073,54.0989L 44.3982,51.6141L 37.987,48.5772L 36.515,51.0306L 42.9073,54.0989 Z M 52.25,58.5833L 52.25,55.4167L 49.0833,53.8333L 46.8641,52.7821L 45.3659,55.279L 52.25,58.5833 Z M 52.25,45.9167L 49.0833,45.9167L 49.0833,49.0833L 49.0833,50.6667L 52.25,50.6667L 52.25,45.9167 Z M 52.25,39.5833L 47.5,39.5833L 47.5,42.75L 49.0833,42.75L 52.25,42.75L 52.25,39.5833 Z M 39.5833,39.5833L 39.5833,42.75L 44.3333,42.75L 44.3333,39.5833L 39.5833,39.5833 Z M 25.3333,39.5833L 32.1191,42.75L 36.4167,42.75L 36.4167,39.5833L 25.3333,39.5833 Z "/>
</svg>
