<?xml version="1.0" encoding="utf-8"?>
<!DOCTYPE svg PUBLIC "-//W3C//DTD SVG 1.1//EN" "http://www.w3.org/Graphics/SVG/1.1/DTD/svg11.dtd">
<svg xmlns="http://www.w3.org/2000/svg" xmlns:xlink="http://www.w3.org/1999/xlink" version="1.1" baseProfile="full" width="76.0106" height="76.0106" viewBox="0 0 76.01 76.01" enable-background="new 0 0 76.01 76.01" xml:space="preserve">
	<path fill="#000000" fill-opacity="1" stroke-width="0.2" stroke-linejoin="round" d="M 24.0033,56.0078L 24.0033,38.0053L 21.753,39.7556L 18.5026,34.8799L 38.0053,20.2528L 57.508,34.8799L 54.2576,39.7556L 52.0072,38.0053L 52.0072,56.0078L 49.0068,56.0078L 49.0068,38.0053L 27.0038,38.0053L 27.0038,56.0078L 24.0033,56.0078 Z M 38.0048,43.7578L 44.2548,50.0078L 41.0049,50.0078L 41.0049,56.0078L 35.0049,56.0078L 35.0049,50.0078L 31.7549,50.0078L 38.0048,43.7578 Z M 29.004,44.0062L 29.004,40.0056L 48.0067,40.0056L 48.0067,44.0062L 41.0057,44.0062L 38.0053,41.0056L 35.0047,44.0062L 29.004,44.0062 Z M 29.004,56.0078L 29.004,52.0073L 33.0046,52.0073L 33.0046,56.0078L 29.004,56.0078 Z M 48.0067,52.0073L 48.0067,56.0078L 43.006,56.0078L 43.006,52.0073L 48.0067,52.0073 Z M 48.0067,50.007L 46.0064,50.007L 43.006,46.0064L 48.0067,46.0064L 48.0067,50.007 Z M 29.004,50.007L 29.004,46.0064L 33.0046,46.0064L 30.0042,50.007L 29.004,50.007 Z "/>
</svg>
