<?xml version="1.0" encoding="utf-8"?>
<!DOCTYPE svg PUBLIC "-//W3C//DTD SVG 1.1//EN" "http://www.w3.org/Graphics/SVG/1.1/DTD/svg11.dtd">
<svg xmlns="http://www.w3.org/2000/svg" xmlns:xlink="http://www.w3.org/1999/xlink" version="1.1" baseProfile="full" width="76" height="76" viewBox="0 0 76.00 76.00" enable-background="new 0 0 76.00 76.00" xml:space="preserve">
	<path fill="#000000" fill-opacity="1" stroke-width="0.2" stroke-linejoin="round" d="M 38,62L 31,41L 29,41L 29,38L 37,38L 37,41L 35,41L 39.3674,54.2429L 45.25,38L 47.75,38L 53.5244,54.2429L 57,41L 55,41L 55,38L 63,38L 63,41L 61,41L 55,62L 53,62L 46.3368,45.1341L 40,62L 38,62 Z M 17,17L 40.25,17L 53,29.75L 53,49L 49,38L 49,34L 36,34L 36,21L 21,21L 21,55L 34.25,55L 35.75,59L 17,59L 17,17 Z M 42.5,59L 44,55L 49,55L 50.5,59L 42.5,59 Z M 40,22.25L 40,30L 47.75,30L 40,22.25 Z "/>
</svg>
