<?xml version="1.0" encoding="utf-8"?>
<!DOCTYPE svg PUBLIC "-//W3C//DTD SVG 1.1//EN" "http://www.w3.org/Graphics/SVG/1.1/DTD/svg11.dtd">
<svg xmlns="http://www.w3.org/2000/svg" xmlns:xlink="http://www.w3.org/1999/xlink" version="1.1" baseProfile="full" width="76" height="76" viewBox="0 0 76.00 76.00" enable-background="new 0 0 76.00 76.00" xml:space="preserve">
	<path fill="#000000" fill-opacity="1" stroke-width="0.2" stroke-linejoin="round" d="M 49.875,17.4167C 54.6845,17.4167 58.5833,25.9232 58.5833,36.4167C 58.5833,46.9101 54.6845,55.4167 49.875,55.4167C 48.1778,55.4167 46.594,54.3574 45.2549,52.5252C 42.2107,49.2413 39.0479,44.3333 34.8333,44.3333C 31.6667,44.3333 34.4375,47.5 34.4375,50.6667C 34.4375,53.8333 34.8333,58.5833 30.0833,58.5833C 25.3333,58.5833 20.5833,53.8333 22.1667,52.25C 23.75,50.6667 23.75,44.3333 23.75,44.3333C 19,44.3333 14.25,41.1667 14.25,36.4167C 14.25,31.6667 19,26.9167 31.6667,26.9167C 44.3333,26.9167 41.9583,17.4167 49.875,17.4167 Z M 41.1667,36.4167C 41.1667,31.7503 41.9377,27.4768 43.2169,24.1696C 40.8022,26.9173 42.75,28.5 31.8189,30.2356C 21.5881,30.2356 17.7516,32.8846 17.7516,36.7212C 17.7516,40.5577 21.984,41.5321 25.8205,41.5321C 25.8205,41.5321 27.008,50.6058 25.7292,51.8846C 24.4503,53.1635 25.9119,55.0208 29.7484,55.0208C 33.5849,55.0208 30.8902,50.3926 30.8902,47.8349C 30.8902,45.2772 30.0833,41.1667 34.3766,41.1362C 42.75,44.3333 39.9188,43.7895 42.4678,46.4124C 41.6429,43.5087 41.1667,40.084 41.1667,36.4167 Z M 50.6667,20.5833C 48.5363,20.5833 46.7335,25.2581 46.1312,31.698C 50.4667,31.9701 53.8333,33.9789 53.8333,36.4167C 53.8333,38.8544 50.4667,40.8632 46.1312,41.1353C 46.7335,47.5752 48.5363,52.25 50.6667,52.25C 53.29,52.25 55.4167,45.1612 55.4167,36.4167C 55.4167,27.6722 53.29,20.5833 50.6667,20.5833 Z M 49.0833,20.5833C 45.5855,20.5833 42.75,27.6722 42.75,36.4167C 42.75,45.1612 45.5855,52.25 49.0833,52.25L 49.5056,52.2154C 46.6172,51.6722 44.3333,44.8065 44.3333,36.4167C 44.3333,28.0269 46.6172,21.1611 49.5055,20.618L 49.0833,20.5833 Z "/>
</svg>
