<?xml version="1.0" encoding="utf-8"?>
<!DOCTYPE svg PUBLIC "-//W3C//DTD SVG 1.1//EN" "http://www.w3.org/Graphics/SVG/1.1/DTD/svg11.dtd">
<svg xmlns="http://www.w3.org/2000/svg" xmlns:xlink="http://www.w3.org/1999/xlink" version="1.1" baseProfile="full" width="76" height="76" viewBox="0 0 76.00 76.00" enable-background="new 0 0 76.00 76.00" xml:space="preserve">
	<path fill="#000000" fill-opacity="1" stroke-width="0.2" stroke-linejoin="round" d="M 13.8031,22.9571C 15.9392,22.5638 18.6692,22.3452 21.5566,22.3452C 26.5401,22.3452 29.9822,23.4812 32.4337,25.7536C 35.0053,28.0701 36.5875,31.5653 36.5875,36.5911C 36.5875,41.8337 34.9652,45.7662 32.4337,48.3009C 29.7838,50.9669 25.5512,52.3211 20.3693,52.3211C 17.5215,52.3211 15.385,52.1465 13.8031,51.9279L 13.8031,22.9571 Z M 21.3586,48.039L 21.4662,48.0395C 27.7309,48.0399 31.4448,44.1956 31.4448,36.7656C 31.4844,30.2548 28.0827,26.5405 21.9916,26.5405C 20.4485,26.5405 19.3409,26.6714 18.6692,26.8464L 18.6692,47.9081C 19.3409,48.039 20.3693,48.039 21.3586,48.039 Z M 60.161,30.7348L 64.7981,30.7348L 58.9337,52.0152L 54.5643,52.0152L 52.341,43.3637C 51.7674,41.135 51.3449,39.1249 50.9234,36.5461L 50.8455,36.5461C 50.4631,39.1689 49.9646,41.2659 49.4284,43.3637L 47.0516,52.0152L 42.644,52.0152L 37.1251,30.7348L 41.9547,30.7348L 43.9091,40.3922L 45.0964,47.2963L 45.1737,47.2963C 45.557,44.9798 46.1702,42.6205 46.707,40.4363L 49.1211,30.7348L 52.9546,30.7348L 55.2923,40.1736L 56.7873,47.2963L 56.8642,47.2963C 57.1701,44.9798 57.5926,42.6642 58.0906,40.1736L 60.161,30.7348 Z "/>
</svg>
