<?xml version="1.0" encoding="utf-8"?>
<!DOCTYPE svg PUBLIC "-//W3C//DTD SVG 1.1//EN" "http://www.w3.org/Graphics/SVG/1.1/DTD/svg11.dtd">
<svg xmlns="http://www.w3.org/2000/svg" xmlns:xlink="http://www.w3.org/1999/xlink" version="1.1" baseProfile="full" width="76" height="76" viewBox="0 0 76.00 76.00" enable-background="new 0 0 76.00 76.00" xml:space="preserve">
	<path fill="#000000" fill-opacity="1" stroke-width="0.2" stroke-linejoin="round" d="M 18.6041,23.7501L 57.3958,23.7501C 58.9261,23.7501 60.1666,24.9906 60.1666,26.5209L 60.1666,49.4792C 60.1666,51.0095 58.9261,52.25 57.3958,52.25L 18.6041,52.25C 17.0738,52.25 15.8333,51.0095 15.8333,49.4792L 15.8333,26.5209C 15.8333,24.9906 17.0738,23.7501 18.6041,23.7501 Z M 22.1667,30.0833L 22.1667,33.25L 50.6667,33.25L 50.6667,30.0833L 22.1667,30.0833 Z M 22.1667,36.4167L 22.1667,39.5833L 44.3333,39.5833L 44.3333,36.4167L 22.1667,36.4167 Z M 22.1667,42.75L 22.1667,45.9167L 50.6667,45.9167L 50.6667,42.75L 22.1667,42.75 Z "/>
</svg>
