<?xml version="1.0" encoding="utf-8"?>
<!DOCTYPE svg PUBLIC "-//W3C//DTD SVG 1.1//EN" "http://www.w3.org/Graphics/SVG/1.1/DTD/svg11.dtd">
<svg xmlns="http://www.w3.org/2000/svg" xmlns:xlink="http://www.w3.org/1999/xlink" version="1.1" baseProfile="full" width="76" height="76" viewBox="0 0 76.00 76.00" enable-background="new 0 0 76.00 76.00" xml:space="preserve">
	<path fill="#000000" fill-opacity="1" stroke-width="0.2" stroke-linejoin="round" d="M 42.75,28.5L 42.75,47.5L 33.25,38L 42.75,28.5 Z M 17.4167,42.75L 17.4167,55.4167L 30.0834,55.4167L 30.0834,42.75L 17.4167,42.75 Z M 5.92488,42.75C 6.68961,47.4398 8.56803,51.7554 11.2798,55.4167L 14.25,55.4167L 14.25,42.75L 5.92488,42.75 Z M 5.92485,33.25C 5.67275,34.796 5.54168,36.3827 5.54168,38L 30.0834,38L 30.0834,33.25L 5.92485,33.25 Z M 9.23549,23.75C 8.39507,25.2565 7.68377,26.8448 7.11658,28.5L 30.0834,28.5L 30.0834,23.75L 9.23549,23.75 Z M 17.685,14.25C 15.7856,15.6238 14.0576,17.2199 12.539,19L 30.0833,19L 30.0833,14.25L 17.685,14.25 Z M 38,67.1225L 38,45.9166L 34.8333,42.75L 34.8333,67.2916L 38,67.1225 Z M 38,30.0833L 38,8.87749L 34.8333,8.70832L 34.8333,33.25L 38,30.0833 Z "/>
</svg>
