<?xml version="1.0" encoding="utf-8"?>
<!DOCTYPE svg PUBLIC "-//W3C//DTD SVG 1.1//EN" "http://www.w3.org/Graphics/SVG/1.1/DTD/svg11.dtd">
<svg xmlns="http://www.w3.org/2000/svg" xmlns:xlink="http://www.w3.org/1999/xlink" version="1.1" baseProfile="full" width="76" height="76" viewBox="0 0 76.00 76.00" enable-background="new 0 0 76.00 76.00" xml:space="preserve">
	<path fill="#000000" fill-opacity="1" stroke-width="0.2" stroke-linejoin="round" d="M 39.3107,55.1477C 39.0039,56.5911 37.1892,57.9084 35.7459,57.6015C 34.3025,57.2947 33.7769,55.4801 34.0837,54.0367L 35.8799,45.5864L 33.1056,42.3081L 30.1408,47.809C 29.9573,48.152 28.859,48.6197 28.5,48.6875C 28.237,48.8449 27.9423,48.9594 27.6236,49.0197L 20.018,49.9644C 18.568,50.2384 17.1704,49.2851 16.8964,47.8351C 16.6224,46.3851 17.5758,45.3834 19.0257,45.1094L 26.6314,43.7688L 26.649,43.7656L 29.8154,37.5292L 29.9019,36.5702L 31.8462,27.423C 32.3064,25.2579 34.4346,23.8759 36.5997,24.3361C 38.1005,24.6551 39.2251,25.7755 39.6206,27.1542L 43.2489,32.5125L 48.8258,35.223C 49.8212,35.7068 50.2359,36.9059 49.7522,37.9013C 49.2684,38.8967 48.0693,39.3114 47.0739,38.8276L 41.394,36.0671C 41.0549,35.9023 40.7832,35.6544 40.5914,35.3599C 40.3288,35.2124 40.0955,35.0032 39.9151,34.7368L 38.8277,33.131L 37.7424,38.2368L 37.4929,39.0142L 41.1667,44.3333C 41.4591,45.025 41.4379,45.7707 41.1675,46.4119L 39.3107,55.1477 Z M 37.2064,15.0563C 39.3715,15.5165 40.7536,17.6447 40.2934,19.8098C 39.8332,21.9749 37.705,23.357 35.5399,22.8968C 33.3748,22.4366 31.9927,20.3083 32.4529,18.1433C 32.9131,15.9782 35.0413,14.5961 37.2064,15.0563 Z M 52.996,38.6747L 56.0306,48.9223L 49.6259,50.8189L 46.5912,40.5713L 52.996,38.6747 Z M 48.3449,51.1983C 46.93,51.6173 45.4433,50.8099 45.0243,49.395L 43.507,44.2712C 43.088,42.8563 43.8954,41.3697 45.3103,40.9507L 48.3449,51.1983 Z M 54.2769,38.2954C 55.6918,37.8764 57.1785,38.6837 57.5975,40.0986L 59.1148,45.2224C 59.5338,46.6373 58.7265,48.124 57.3116,48.543L 54.2769,38.2954 Z "/>
</svg>
