<?xml version="1.0" encoding="utf-8"?>
<!DOCTYPE svg PUBLIC "-//W3C//DTD SVG 1.1//EN" "http://www.w3.org/Graphics/SVG/1.1/DTD/svg11.dtd">
<svg xmlns="http://www.w3.org/2000/svg" xmlns:xlink="http://www.w3.org/1999/xlink" version="1.1" baseProfile="full" width="76" height="76" viewBox="0 0 76.00 76.00" enable-background="new 0 0 76.00 76.00" xml:space="preserve">
	<path fill="#000000" fill-opacity="1" stroke-width="0.2" stroke-linejoin="round" d="M 17.4167,58.5833L 17.4167,45.9167L 22.1667,41.1667L 22.1667,49.0833L 31.6666,39.5834L 36.4166,44.3334L 26.9167,53.8333L 34.8333,53.8333L 30.0833,58.5833L 17.4167,58.5833 Z M 17.4167,30.0834L 17.4167,17.4167L 30.0833,17.4167L 34.8333,22.1667L 26.9167,22.1667L 34.8333,30.0834L 34.8333,34.8334L 30.0833,34.8334L 22.1667,26.9167L 22.1667,34.8334L 17.4167,30.0834 Z M 45.9167,58.5833L 41.1667,53.8333L 49.0833,53.8333L 41.1667,45.9167L 45.9167,41.1667L 53.8333,49.0833L 53.8333,41.1667L 58.5833,45.9167L 58.5833,58.5833L 45.9167,58.5833 Z M 45.9166,17.4167L 58.5833,17.4167L 58.5833,30.0834L 53.8333,34.8334L 53.8333,26.9167L 45.9167,34.8333L 41.1667,30.0833L 49.0833,22.1667L 41.1666,22.1667L 45.9166,17.4167 Z "/>
</svg>
