<?xml version="1.0" encoding="utf-8"?>
<!DOCTYPE svg PUBLIC "-//W3C//DTD SVG 1.1//EN" "http://www.w3.org/Graphics/SVG/1.1/DTD/svg11.dtd">
<svg xmlns="http://www.w3.org/2000/svg" xmlns:xlink="http://www.w3.org/1999/xlink" version="1.1" baseProfile="full" width="76" height="76" viewBox="0 0 76.00 76.00" enable-background="new 0 0 76.00 76.00" xml:space="preserve">
	<path fill="#000000" fill-opacity="1" stroke-width="0.2" stroke-linejoin="round" d="M 46,54L 58,54L 58,57L 46,57L 46,54 Z M 52,39.75L 58.25,46L 55,46L 55,53L 49,53L 49,46L 45.75,46L 52,39.75 Z M 35.0423,25.9057L 23.6761,32.8289L 16.5,26.971L 27.8744,19.9722L 35.0423,25.9057 Z M 46.8662,47.0553L 35.9589,53.75L 35.9589,41.0449L 43.2039,46.9788L 45,46.0089L 45,47L 46.8662,47L 46.8662,47.0553 Z M 24.1338,45.0012L 27.7981,46.9788L 35.0423,41.0449L 35.0423,53.75L 24.1338,47.0553L 24.1338,45.0012 Z M 34.2865,40.4365L 27.9511,45.914L 17.0348,39.5237L 23.599,33.9702L 34.2865,40.4365 Z M 43.0509,45.914L 36.7143,40.4365L 47.401,33.9702L 53.966,39.5237L 53.687,39.687L 52,38L 45.5479,44.4521L 43.0509,45.914 Z M 47.3251,32.8289L 35.9589,25.9057L 43.1268,19.9722L 54.5,26.971L 47.3251,32.8289 Z "/>
</svg>
