<?xml version="1.0" encoding="utf-8"?>
<!DOCTYPE svg PUBLIC "-//W3C//DTD SVG 1.1//EN" "http://www.w3.org/Graphics/SVG/1.1/DTD/svg11.dtd">
<svg xmlns="http://www.w3.org/2000/svg" xmlns:xlink="http://www.w3.org/1999/xlink" version="1.1" baseProfile="full" width="76" height="76" viewBox="0 0 76.00 76.00" enable-background="new 0 0 76.00 76.00" xml:space="preserve">
	<path fill="#000000" fill-opacity="1" stroke-width="0.2" stroke-linejoin="round" d="M 43.5,20.5C 44.1183,19.8817 45.3817,19.8817 46,20.5C 46.6183,21.1183 46.6183,22.1317 46,22.75L 41.75,27L 54,27C 56.6234,27 59,29.3766 59,32L 59,52C 59,54.6234 56.6234,57 54,57L 22,57C 19.3766,57 17,54.6234 17,52L 17,32C 17,29.3766 19.3766,27 22,27L 31.25,27L 27,22.75C 26.3817,22.1317 26.3817,21.1183 27,20.5C 27.6183,19.8817 28.8817,19.8817 29.5,20.5L 36,27L 37.25,27L 43.5,20.5 Z M 22,32L 22,52L 28.4533,52L 28.8444,50.0444C 28.8444,50.0444 30.5333,44.1333 33.9111,44.1334L 40.6666,44.1334C 44.0444,44.1333 45.7333,50.0444 45.7333,50.0444L 46.1244,52L 47,52L 47,32L 22,32 Z M 52.9999,31.6667C 51.251,31.6667 49.8333,33.0845 49.8333,34.8334C 49.8333,36.5823 51.251,38.0001 52.9999,38.0001C 54.7488,38.0001 56.1666,36.5823 56.1666,34.8334C 56.1666,33.0845 54.7488,31.6667 52.9999,31.6667 Z M 52.9999,41.1667C 51.251,41.1667 49.8333,42.5845 49.8333,44.3334C 49.8333,46.0823 51.251,47.5 52.9999,47.5C 54.7488,47.5 56.1666,46.0823 56.1666,44.3334C 56.1666,42.5845 54.7488,41.1667 52.9999,41.1667 Z M 24,34L 31,34L 31,41L 24,41L 24,34 Z M 37.2889,34C 39.6208,34 41.5111,35.8904 41.5111,38.2222C 41.5111,40.5541 39.6208,42.4444 37.2889,42.4444C 34.957,42.4444 33.0667,40.5541 33.0667,38.2222C 33.0667,35.8904 34.957,34 37.2889,34 Z M 33.0667,48.3556C 32.5037,48.637 31.3778,50.8888 31.3778,50.8888C 31.3778,50.8888 31.1984,51.158 30.9915,52L 32.9055,52L 33.0667,48.3556 Z M 41.5111,48.3556L 41.6732,52L 43.5863,52C 43.3794,51.158 43.2,50.8889 43.2,50.8889C 43.2,50.8889 42.0741,48.637 41.5111,48.3556 Z "/>
</svg>
