<?xml version="1.0" encoding="utf-8"?>
<!DOCTYPE svg PUBLIC "-//W3C//DTD SVG 1.1//EN" "http://www.w3.org/Graphics/SVG/1.1/DTD/svg11.dtd">
<svg xmlns="http://www.w3.org/2000/svg" xmlns:xlink="http://www.w3.org/1999/xlink" version="1.1" baseProfile="full" width="76" height="76" viewBox="0 0 76.00 76.00" enable-background="new 0 0 76.00 76.00" xml:space="preserve">
	<path fill="#000000" fill-opacity="1" stroke-width="0.2" stroke-linejoin="round" d="M 29.6875,46.3125L 32.8446,48.5756C 34.2423,44.6248 30.4802,41.6399 28.5,40.4127L 28.5,42.75C 28.5,43.7683 29.0558,45.6111 29.6875,46.3125 Z M 41.5645,54.1571C 42.8372,50.8583 46.2402,49.0845 48.0244,48.2168L 38,41.1667L 38,30.0833L 28.5,30.0834L 28.5,38.5352C 36.4167,41.1667 35.3497,47.0842 34.5715,49.6609L 41.5645,54.1571 Z M 43.8424,55.5886C 45.5884,56.9043 48.8619,56.5555 50.1776,54.8095C 51.3787,53.2156 51.1925,51.0082 49.8225,49.6349C 46.6698,50.9955 44.1993,53.5881 43.3921,55.3056L 43.8424,55.5886 Z M 41.1666,39.6944L 51.3042,46.7371C 54.4469,49.1053 55.0747,53.5726 52.7066,56.7153C 50.3384,59.8579 45.0793,60.4858 41.9367,58.1176L 30.5605,50.9333C 27.7083,49.4792 25.3333,45.7335 25.3333,42.75L 25.3333,30.0834L 23.75,30.0833L 23.75,17.4167L 44.3333,17.4167L 44.3333,30.0834L 41.1666,30.0834L 41.1666,39.6944 Z M 26.9167,20.5833L 26.9167,26.9167L 41.1666,26.9167L 41.1666,20.5834L 26.9167,20.5833 Z "/>
</svg>
