<?xml version="1.0" encoding="utf-8"?>
<!DOCTYPE svg PUBLIC "-//W3C//DTD SVG 1.1//EN" "http://www.w3.org/Graphics/SVG/1.1/DTD/svg11.dtd">
<svg xmlns="http://www.w3.org/2000/svg" xmlns:xlink="http://www.w3.org/1999/xlink" version="1.1" baseProfile="full" width="76" height="76" viewBox="0 0 76.00 76.00" enable-background="new 0 0 76.00 76.00" xml:space="preserve">
	<path fill="#000000" fill-opacity="0.803922" stroke-linejoin="round" d="M 52.6094,56.0864L 52.6085,56.0838C 51.0239,56.6548 48.6158,57.3919 47.99,56.8595L 40.7583,38.1134C 40.7583,38.1134 39.9296,36.5793 41.1102,33.5137C 41.1102,33.5137 41.3228,32.6286 40.6456,31.0771C 39.9684,29.5257 39.4136,28.1901 39.457,25.1528C 39.3226,24.1482 38.6176,23.0693 38.7002,21.3869C 38.7002,21.3869 38.2144,20.9637 38.0756,19.8843L 40.3454,18.9568C 40.9645,19.8518 40.8805,20.4938 40.8805,20.4938C 42.6362,23.4324 42.6677,23.8336 42.6677,23.8336C 42.6677,23.8336 45.3968,26.7327 46.1122,29.2313C 46.6471,30.8373 47.2779,31.1513 47.2779,31.1513C 50.2065,32.6396 50.8306,34.2522 50.8306,34.2522L 58,53.0222C 57.834,54.2645 52.6094,56.0864 52.6094,56.0864 Z M 23.3906,56.0864C 23.3906,56.0864 18.166,54.2646 18,53.0222L 25.1694,34.2522C 25.1694,34.2522 25.7935,32.6396 28.7221,31.1514C 28.7221,31.1514 29.3529,30.8373 29.8878,29.2313C 30.6032,26.7328 33.3323,23.8336 33.3323,23.8336C 33.3323,23.8336 33.3639,23.4324 35.1195,20.4938C 35.1195,20.4938 35.0355,19.8519 35.6546,18.9568L 37.9245,19.8843C 37.7856,20.9637 37.2998,21.3869 37.2998,21.3869C 37.3824,23.0693 36.6774,24.1482 36.5431,25.1528C 36.5864,28.1901 36.0316,29.5258 35.3544,31.0772C 34.6773,32.6286 34.8898,33.5138 34.8898,33.5138C 36.0704,36.5794 35.2417,38.1134 35.2417,38.1134L 28.01,56.8595C 27.3842,57.3919 24.9762,56.6548 23.3916,56.0838L 23.3906,56.0864 Z "/>
	<path fill="#000000" fill-opacity="0.901961" stroke-linejoin="round" d="M 45.6389,31.9643C 46.1722,31.6528 46.5824,31.2455 46.8976,30.796C 47.1211,31.0733 47.2779,31.1513 47.2779,31.1513L 48.2625,31.7063C 46.5204,31.663 45.6389,31.9643 45.6389,31.9643 Z M 43.6896,32.8477C 42.3432,33.5445 41.3706,34.2681 40.6754,34.9139L 41.1102,33.5137L 41.141,33.059C 42.3654,33.1689 43.6896,32.8477 43.6896,32.8477 Z M 52.6094,56.0864L 52.6085,56.0838C 51.0238,56.6548 48.6158,57.3919 47.99,56.8595L 44.2881,47.2633C 47.4509,53.4507 50.6328,55.4493 52.921,55.9739L 52.6094,56.0864 Z M 39.457,25.1528L 39.385,24.7819L 40.5409,24.798L 39.4571,25.8111L 39.457,25.1528 Z M 42.6677,23.8336L 43.0842,24.3011L 41.8546,24.2326L 42.5155,23.441L 42.6677,23.8336 Z M 30.3612,31.9643C 30.3612,31.9643 29.4796,31.663 27.7375,31.7064L 28.7222,31.1514C 28.7222,31.1514 28.8789,31.0733 29.1025,30.796C 29.4176,31.2455 29.8278,31.6529 30.3612,31.9643 Z M 32.3105,32.8478C 32.3105,32.8478 33.6346,33.169 34.8591,33.059L 34.8898,33.5138L 35.3247,34.9139C 34.6294,34.2682 33.6568,33.5446 32.3105,32.8478 Z M 23.3906,56.0864L 23.0791,55.9739C 25.3672,55.4493 28.5492,53.4507 31.7119,47.2634L 28.01,56.8595C 27.3842,57.3919 24.9762,56.6548 23.3916,56.0838L 23.3906,56.0864 Z M 36.5431,25.1528L 36.5429,25.8111L 35.4591,24.7981L 36.615,24.7819L 36.5431,25.1528 Z M 33.3323,23.8336L 33.4845,23.441L 34.1455,24.2326L 32.9159,24.3011L 33.3323,23.8336 Z "/>
</svg>
