<?xml version="1.0" encoding="utf-8"?>
<!DOCTYPE svg PUBLIC "-//W3C//DTD SVG 1.1//EN" "http://www.w3.org/Graphics/SVG/1.1/DTD/svg11.dtd">
<svg xmlns="http://www.w3.org/2000/svg" xmlns:xlink="http://www.w3.org/1999/xlink" version="1.1" baseProfile="full" width="76" height="76" viewBox="0 0 76.00 76.00" enable-background="new 0 0 76.00 76.00" xml:space="preserve">
	<path fill="#000000" fill-opacity="1" stroke-width="0.2" stroke-linejoin="round" d="M 45.0156,30.6787C 45.7877,30.6787 46.5461,30.7371 47.2867,30.8497C 51.6132,28.9889 55.3711,28.8428 57.3834,30.8551C 59.0234,32.4951 59.2298,35.2944 58.2428,38.616C 59.3643,40.7166 60,43.1156 60,45.6631L 59.8737,47.6175L 52.083,47.6176L 48.2731,47.6175L 37.9483,47.6176C 38.5169,51.3151 41.4647,54.1325 45.0156,54.1325C 47.6682,54.1325 49.9842,52.5603 51.2233,50.2235L 59.2934,50.2235C 57.364,56.2692 51.7011,60.6474 45.0156,60.6474C 43.1344,60.6474 41.3341,60.3007 39.6751,59.6678C 34.5573,62.3611 29.9607,62.8886 27.6554,60.5832C 23.9398,56.8677 27.5826,47.2008 35.7918,38.9916L 37.4866,37.3792C 34.9836,38.6884 32.4946,40.585 30.3084,42.7801C 31.6524,35.8839 37.7262,30.6787 45.0156,30.6787 Z M 45.0156,38.4967C 41.8953,38.4967 39.2408,40.6721 38.257,43.7086L 51.7743,43.7086C 50.7905,40.6721 48.1359,38.4967 45.0156,38.4967 Z M 56.4843,32.8856C 55.414,31.8153 53.631,31.6046 51.4412,32.1225C 53.8478,33.2665 55.9011,35.0333 57.3928,37.2145C 57.7079,35.3516 57.4357,33.837 56.4843,32.8856 Z M 29.7651,59.6048C 31.3661,61.2058 34.5617,60.8834 38.3284,59.0761C 34.7293,57.2783 31.9551,54.0745 30.7255,50.1844C 28.5457,54.3196 28.044,57.8836 29.7651,59.6048 Z M 18,21L 58,21L 58,30.25C 57.1478,29.0647 56.1375,28.7506 55,27.8387L 55,26L 21,26L 21,46L 28.5,46C 27.5,47 27.5,48 26.5,49L 18,49L 18,21 Z "/>
</svg>
