<?xml version="1.0" encoding="utf-8"?>
<!DOCTYPE svg PUBLIC "-//W3C//DTD SVG 1.1//EN" "http://www.w3.org/Graphics/SVG/1.1/DTD/svg11.dtd">
<svg xmlns="http://www.w3.org/2000/svg" xmlns:xlink="http://www.w3.org/1999/xlink" version="1.1" baseProfile="full" width="76" height="76" viewBox="0 0 76.00 76.00" enable-background="new 0 0 76.00 76.00" xml:space="preserve">
	<path fill="#000000" fill-opacity="1" stroke-width="0.2" stroke-linejoin="round" d="M 51.4003,21.47C 46.1175,21.2969 42.5429,24.2609 40.6708,30.362C 41.6347,29.9651 42.5716,29.7625 43.4853,29.7625C 45.4119,29.7625 46.2644,30.8476 46.0368,33.0136C 45.9237,34.3267 45.0729,36.2351 43.4853,38.7431C 41.8914,41.2553 40.7012,42.5093 39.9104,42.5093C 38.8839,42.5093 37.9496,40.5671 37.0958,36.6911C 36.8096,35.5511 36.2987,32.6462 35.5653,27.968C 34.8783,23.636 33.0632,21.6093 30.1119,21.8965C 28.8633,22.0105 26.9929,23.1505 24.4967,25.3165C 22.6761,26.9716 20.8314,28.6267 18.9551,30.2776L 20.7423,32.5871C 22.4477,31.388 23.4454,30.7927 23.7224,30.7927C 25.0296,30.7927 26.2519,32.8404 27.3873,36.9445C 28.4065,40.7107 29.4333,44.4727 30.4568,48.2347C 31.9815,52.3429 33.8608,54.3949 36.0715,54.3949C 39.6473,54.3949 44.0253,51.034 49.1888,44.3038C 54.1836,37.8607 56.7621,32.7855 56.9361,29.0785C 57.1653,24.1216 55.3206,21.5798 51.4003,21.47 Z "/>
</svg>
