<?xml version="1.0" encoding="utf-8"?>
<!DOCTYPE svg PUBLIC "-//W3C//DTD SVG 1.1//EN" "http://www.w3.org/Graphics/SVG/1.1/DTD/svg11.dtd">
<svg xmlns="http://www.w3.org/2000/svg" xmlns:xlink="http://www.w3.org/1999/xlink" version="1.1" baseProfile="full" width="76" height="76" viewBox="0 0 76.00 76.00" enable-background="new 0 0 76.00 76.00" xml:space="preserve">
	<path fill="#000000" fill-opacity="1" stroke-width="0.2" stroke-linejoin="round" d="M 22,19L 54,19L 54,57L 22,57L 22,19 Z M 25,22L 25,54L 51,54L 51,22L 25,22 Z M 27,24L 49,24L 49,31L 27,31L 27,24 Z M 27,33L 41,33L 41,52L 27,52L 27,33 Z M 43,52L 43,33L 49,33L 49,52L 43,52 Z M 28,34L 28,51L 40,51L 40,34L 28,34 Z "/>
</svg>
