<?xml version="1.0" encoding="utf-8"?>
<!DOCTYPE svg PUBLIC "-//W3C//DTD SVG 1.1//EN" "http://www.w3.org/Graphics/SVG/1.1/DTD/svg11.dtd">
<svg xmlns="http://www.w3.org/2000/svg" xmlns:xlink="http://www.w3.org/1999/xlink" version="1.1" baseProfile="full" width="76" height="76" viewBox="0 0 76.00 76.00" enable-background="new 0 0 76.00 76.00" xml:space="preserve">
	<path fill="#000000" fill-opacity="1" stroke-width="0.2" stroke-linejoin="round" d="M 34.8333,28.5L 38,28.5L 38,31.6667L 34.8333,31.6667L 34.8333,28.5 Z M 30.0832,36.4169L 30.0832,33.2503L 33.2499,33.2503L 33.2499,36.4169L 30.0832,36.4169 Z M 30.0832,28.5003L 33.2499,28.5003L 33.2499,31.6669L 30.0832,31.6669L 30.0832,28.5003 Z M 39.5831,28.5003L 42.7497,28.5003L 42.7497,31.6669L 39.5831,31.6669L 39.5831,28.5003 Z M 30.0832,38.0003L 33.2499,38.0003L 33.2499,41.1669L 30.0832,41.1669L 30.0832,38.0003 Z M 30.0832,42.7503L 33.2499,42.7503L 33.2499,45.9168L 30.0832,45.9168L 30.0832,42.7503 Z M 34.8331,42.7503L 37.9997,42.7503L 37.9997,45.9168L 34.8331,45.9168L 34.8331,42.7503 Z M 39.5831,42.7503L 42.7497,42.7503L 42.7497,45.9168L 39.5831,45.9168L 39.5831,42.7503 Z M 44.3331,42.7503L 47.4998,42.7502L 47.4998,45.9168L 44.3331,45.9168L 44.3331,42.7503 Z M 44.3331,38.0002L 47.4998,38.0002L 47.4998,41.1669L 44.3331,41.1669L 44.3331,38.0002 Z M 44.3331,33.2502L 47.4998,33.2502L 47.4998,36.4169L 44.3331,36.4169L 44.3331,33.2502 Z M 44.3331,28.5002L 47.4998,28.5002L 47.4998,31.6669L 44.3331,31.6669L 44.3331,28.5002 Z M 25.3332,28.5002L 28.4999,28.5002L 28.4999,31.6669L 25.3332,31.6669L 25.3332,28.5002 Z M 20.5832,28.5002L 23.7499,28.5002L 23.7499,31.6669L 20.5832,31.6669L 20.5832,28.5002 Z M 15.8333,28.5002L 18.9999,28.5002L 18.9999,31.6669L 15.8333,31.6669L 15.8333,28.5002 Z M 25.3332,42.7502L 28.4999,42.7502L 28.4999,45.9168L 25.3332,45.9168L 25.3332,42.7502 Z M 20.5832,42.7502L 23.7499,42.7502L 23.7499,45.9168L 20.5832,45.9168L 20.5832,42.7502 Z M 15.8333,42.7502L 18.9999,42.7502L 18.9999,45.9168L 15.8333,45.9168L 15.8333,42.7502 Z M 15.8333,33.2502L 18.9999,33.2502L 18.9999,36.4169L 15.8333,36.4169L 15.8333,33.2502 Z M 15.8333,38.0002L 18.9999,38.0002L 18.9999,41.1669L 15.8333,41.1669L 15.8333,38.0002 Z M 49.0831,28.5002L 52.2498,28.5002L 52.2498,31.6669L 49.0831,31.6669L 49.0831,28.5002 Z M 53.8331,28.5002L 56.9998,28.5002L 56.9998,31.6669L 53.8331,31.6669L 53.8331,28.5002 Z M 49.0831,42.7502L 52.2498,42.7502L 52.2498,45.9168L 49.0831,45.9168L 49.0831,42.7502 Z M 53.8331,42.7502L 56.9998,42.7502L 56.9998,45.9168L 53.8331,45.9168L 53.8331,42.7502 Z M 58.5831,42.7502L 61.7498,42.7502L 61.7498,45.9168L 58.5831,45.9168L 58.5831,42.7502 Z M 58.5832,38.0002L 61.7498,38.0002L 61.7498,41.1668L 58.5832,41.1668L 58.5832,38.0002 Z M 58.5832,33.2502L 61.7498,33.2502L 61.7498,36.4168L 58.5832,36.4168L 58.5832,33.2502 Z M 58.5832,28.5002L 61.7498,28.5002L 61.7498,31.6668L 58.5832,31.6668L 58.5832,28.5002 Z M 11.0833,28.5002L 14.25,28.5002L 14.25,31.6668L 11.0833,31.6668L 11.0833,28.5002 Z M 11.0833,42.7502L 14.25,42.7502L 14.25,45.9167L 11.0833,45.9168L 11.0833,42.7502 Z M 34.8332,57.0001L 37.9998,57.0001L 37.9998,60.1667L 34.8332,60.1667L 34.8332,57.0001 Z M 39.5832,57.0001L 42.7498,57.0001L 42.7498,60.1667L 39.5832,60.1667L 39.5832,57.0001 Z M 44.3332,57.0001L 47.4998,57.0001L 47.4998,60.1667L 44.3332,60.1667L 44.3332,57.0001 Z M 44.3332,52.2501L 47.4999,52.2501L 47.4999,55.4167L 44.3332,55.4167L 44.3332,52.2501 Z M 44.3332,47.5001L 47.4999,47.5001L 47.4999,50.6667L 44.3332,50.6667L 44.3332,47.5001 Z M 49.0832,57.0001L 52.2499,57.0001L 52.2499,60.1667L 49.0832,60.1667L 49.0832,57.0001 Z M 53.8332,57.0001L 56.9999,57.0001L 56.9999,60.1667L 53.8332,60.1667L 53.8332,57.0001 Z M 58.5832,52.2501L 61.7499,52.2501L 61.7499,55.4167L 58.5832,55.4167L 58.5832,52.2501 Z M 58.5832,47.5001L 61.7499,47.5001L 61.7499,50.6667L 58.5832,50.6667L 58.5832,47.5001 Z M 20.5833,57.0001L 23.7499,57.0001L 23.7499,60.1667L 20.5833,60.1667L 20.5833,57.0001 Z M 25.3333,57.0001L 28.4999,57.0001L 28.4999,60.1667L 25.3333,60.1667L 25.3333,57.0001 Z M 30.0833,57.0001L 33.2499,57.0001L 33.2499,60.1667L 30.0833,60.1667L 30.0833,57.0001 Z M 30.0833,52.2501L 33.2499,52.25L 33.2499,55.4167L 30.0833,55.4167L 30.0833,52.2501 Z M 30.0833,47.5L 33.25,47.5L 33.25,50.6667L 30.0833,50.6667L 30.0833,47.5 Z M 34.8332,14.2501L 37.9999,14.2501L 37.9999,17.4168L 34.8332,17.4168L 34.8332,14.2501 Z M 30.0833,22.1668L 30.0833,19.0001L 33.25,19.0001L 33.25,22.1668L 30.0833,22.1668 Z M 30.0833,14.2501L 33.25,14.2501L 33.25,17.4168L 30.0833,17.4168L 30.0833,14.2501 Z M 39.5832,14.2501L 42.7499,14.2501L 42.7499,17.4168L 39.5832,17.4168L 39.5832,14.2501 Z M 30.0833,23.7501L 33.25,23.7501L 33.25,26.9168L 30.0833,26.9168L 30.0833,23.7501 Z M 44.3333,23.7501L 47.4999,23.7501L 47.4999,26.9168L 44.3333,26.9168L 44.3333,23.7501 Z M 44.3333,19.0001L 47.4999,19.0001L 47.4999,22.1667L 44.3333,22.1667L 44.3333,19.0001 Z M 44.3333,14.2501L 47.4999,14.2501L 47.4999,17.4167L 44.3333,17.4167L 44.3333,14.2501 Z M 25.3333,14.2501L 28.5,14.2501L 28.5,17.4167L 25.3333,17.4167L 25.3333,14.2501 Z M 15.8333,19.0001L 19,19.0001L 19,22.1667L 15.8333,22.1667L 15.8333,19.0001 Z M 15.8333,23.7501L 19,23.7501L 19,26.9167L 15.8333,26.9167L 15.8333,23.7501 Z M 49.0833,14.2501L 52.2499,14.2501L 52.2499,17.4167L 49.0833,17.4167L 49.0833,14.2501 Z M 58.5833,23.7501L 61.75,23.75L 61.75,26.9167L 58.5833,26.9167L 58.5833,23.7501 Z M 63.3333,42.75L 66.5,42.75L 66.5,45.9167L 63.3333,45.9167L 63.3333,42.75 Z M 44.3333,9.50002L 47.5,9.50002L 47.5,12.6667L 44.3333,12.6667L 44.3333,9.50002 Z M 44.3333,61.75L 47.5,61.75L 47.5,64.9167L 44.3333,64.9167L 44.3333,61.75 Z M 30.0833,9.50002L 33.25,9.50002L 33.25,12.6667L 30.0833,12.6667L 30.0833,9.50002 Z M 30.0833,61.75L 33.25,61.75L 33.25,64.9167L 30.0833,64.9167L 30.0833,61.75 Z M 15.8333,52.25L 19,52.25L 19,55.4167L 15.8333,55.4167L 15.8333,52.25 Z M 15.8333,47.5L 19,47.5L 19,50.6667L 15.8333,50.6667L 15.8333,47.5 Z M 63.3333,28.5L 66.5,28.5L 66.5,31.6667L 63.3333,31.6667L 63.3333,28.5 Z "/>
</svg>
