<?xml version="1.0" encoding="utf-8"?>
<!DOCTYPE svg PUBLIC "-//W3C//DTD SVG 1.1//EN" "http://www.w3.org/Graphics/SVG/1.1/DTD/svg11.dtd">
<svg xmlns="http://www.w3.org/2000/svg" xmlns:xlink="http://www.w3.org/1999/xlink" version="1.1" baseProfile="full" width="76" height="76" viewBox="0 0 76.00 76.00" enable-background="new 0 0 76.00 76.00" xml:space="preserve">
	<path fill="#000000" fill-opacity="1" stroke-linejoin="round" d="M 21,19L 55,19L 55,23L 21,23L 21,19 Z M 37.8421,56.9533C 33.356,56.9533 29.7635,55.4776 27.0648,52.5263C 24.366,49.5749 23.0167,45.7357 23.0167,41.0088C 23.0167,35.9276 24.392,31.8748 27.1427,28.8502C 29.8934,25.8256 33.6369,24.3133 38.3733,24.3133C 42.7414,24.3133 46.2606,25.7819 48.931,28.7192C 51.6015,31.6564 52.9367,35.4956 52.9367,40.2367C 52.9367,45.3886 51.5684,49.4627 48.8319,52.459C 46.0953,55.4552 42.4321,56.9533 37.8421,56.9533 Z M 38.1042,27.4867C 34.8411,27.4867 32.1908,28.6979 30.1531,31.1204C 28.1155,33.5429 27.0967,36.7257 27.0967,40.6688C 27.0967,44.6071 28.0895,47.7769 30.0752,50.1781C 32.0609,52.5794 34.6522,53.78 37.8492,53.78C 41.2586,53.78 43.9456,52.6349 45.91,50.3446C 47.8744,48.0543 48.8567,44.8503 48.8567,40.7325C 48.8567,36.5108 47.9028,33.2478 45.995,30.9433C 44.0872,28.6389 41.4569,27.4867 38.1042,27.4867 Z "/>
</svg>
