<?xml version="1.0" encoding="utf-8"?>
<!DOCTYPE svg PUBLIC "-//W3C//DTD SVG 1.1//EN" "http://www.w3.org/Graphics/SVG/1.1/DTD/svg11.dtd">
<svg xmlns="http://www.w3.org/2000/svg" xmlns:xlink="http://www.w3.org/1999/xlink" version="1.1" baseProfile="full" width="76" height="76" viewBox="0 0 76.00 76.00" enable-background="new 0 0 76.00 76.00" xml:space="preserve">
	<path fill="#000000" fill-opacity="1" stroke-width="0.2" stroke-linejoin="round" d="M 38.7308,41.2885C 39.1344,41.2885 39.4615,41.6156 39.4615,42.0192C 39.4615,42.4228 39.1344,42.75 38.7308,42.75C 38.3272,42.75 38,42.4228 38,42.0192C 38,41.6156 38.3272,41.2885 38.7308,41.2885 Z M 38.7308,43.9679C 39.1344,43.9679 39.4615,44.2951 39.4615,44.6987C 39.4615,45.1023 39.1344,45.4295 38.7308,45.4295C 38.3272,45.4295 38,45.1023 38,44.6987C 38,44.2951 38.3272,43.9679 38.7308,43.9679 Z M 25,19L 51,19L 51,23L 48,23C 47.4988,26.4603 45.8383,35.4399 40.9736,38C 45.8383,40.5601 47.4988,49.5397 48,53L 51,53L 51,57L 25,57L 25,53L 28,53C 28.5012,49.5397 30.1617,40.5601 35.0263,38C 30.1617,35.4399 28.5012,26.4603 28,23L 25,23L 25,19 Z M 31.5,23C 31.5,23 32.1462,27.7236 33.5926,31.4175C 35.949,30.3012 40.5893,28.4977 42.7967,30.3611C 43.9835,26.945 44.5,23 44.5,23L 31.5,23 Z M 44.5257,53C 44.5257,53 42.3846,39.4616 38,39.4616C 34.2038,39.4616 31.9999,49.7062 31.4904,52.3528C 33.7637,50.729 37.3905,47.7441 38.3654,46.7692C 38.3654,46.7692 41.0693,51.2865 43.6676,53L 44.5257,53 Z "/>
</svg>
