<?xml version="1.0" encoding="utf-8"?>
<!DOCTYPE svg PUBLIC "-//W3C//DTD SVG 1.1//EN" "http://www.w3.org/Graphics/SVG/1.1/DTD/svg11.dtd">
<svg xmlns="http://www.w3.org/2000/svg" xmlns:xlink="http://www.w3.org/1999/xlink" version="1.1" baseProfile="full" width="76" height="76" viewBox="0 0 76.00 76.00" enable-background="new 0 0 76.00 76.00" xml:space="preserve">
	<path fill="#000000" fill-opacity="1" stroke-width="0.2" stroke-linejoin="round" d="M 23.2186,22.2326L 28.7087,22.2326L 28.7087,47.7243L 41.0751,47.7243L 41.0751,52.3223L 23.2186,52.3223L 23.2186,22.2326 Z M 49.9606,34.7331C 51.0322,31.6526 53.5764,30.0897 55.8983,30.0897L 57.1922,30.2242L 57.1922,35.4025C 56.7464,35.3134 56.2547,35.2243 55.5857,35.2243C 52.9511,35.2243 51.1654,36.9209 50.6746,39.376L 50.4964,41.0726L 50.4964,52.3223L 45.005,52.3223L 45.005,37.5899C 45.005,34.644 44.9604,32.5457 44.8259,30.5814L 49.6029,30.5814L 49.7806,34.7331L 49.9606,34.7331 Z "/>
</svg>
