<?xml version="1.0" encoding="utf-8"?>
<!DOCTYPE svg PUBLIC "-//W3C//DTD SVG 1.1//EN" "http://www.w3.org/Graphics/SVG/1.1/DTD/svg11.dtd">
<svg xmlns="http://www.w3.org/2000/svg" xmlns:xlink="http://www.w3.org/1999/xlink" version="1.1" baseProfile="full" width="76" height="76" viewBox="0 0 76.00 76.00" enable-background="new 0 0 76.00 76.00" xml:space="preserve">
	<path fill="#000000" fill-opacity="1" stroke-width="0.2" stroke-linejoin="round" d="M 23.75,60.1667L 23.75,53.8333L 31.6667,53.8333L 31.6666,47.5L 23.75,47.5L 23.75,41.1667L 38,41.1667L 38,47.5L 44.3333,47.5L 44.3333,28.5L 38,28.5L 38,34.8333L 23.75,34.8333L 23.75,28.5L 31.6667,28.5L 31.6666,22.1666L 23.75,22.1667L 23.75,15.8333L 38,15.8333L 38,22.1666L 50.6666,22.1667L 50.6666,34.8333L 58.5833,34.8333L 58.5833,41.1667L 50.6666,41.1667L 50.6666,53.8333L 38,53.8333L 38,60.1667L 23.75,60.1667 Z "/>
</svg>
