<?xml version="1.0" encoding="utf-8"?>
<!DOCTYPE svg PUBLIC "-//W3C//DTD SVG 1.1//EN" "http://www.w3.org/Graphics/SVG/1.1/DTD/svg11.dtd">
<svg xmlns="http://www.w3.org/2000/svg" xmlns:xlink="http://www.w3.org/1999/xlink" version="1.1" baseProfile="full" width="76" height="76" viewBox="0 0 76.00 76.00" enable-background="new 0 0 76.00 76.00" xml:space="preserve">
	<path fill="#000000" fill-opacity="1" stroke-width="0.2" stroke-linejoin="round" d="M 34.8333,15.8333L 41.1667,15.8333L 41.1667,17.4167L 39.5833,17.4167L 39.5833,19C 40.0137,19 41.1462,19.585 42.3445,20.5006L 37.678,24.4726C 37.018,25.0463 36.8125,24.9375 37.1259,26.3105C 38.3958,26.5208 38.3039,26.2488 38.9638,25.6751L 43.9375,22.1667C 46.2017,24.6351 47.5717,27.9565 41.8943,29.8582L 41.7969,31.9228L 48.6875,36.4167L 41.7366,36.4167C 41.9291,54.3169 47.8565,50.7995 50.6667,60.1667L 25.3333,60.1667C 28.1435,50.7995 34.0709,54.3169 34.2634,36.4167L 27.3125,36.4167L 34.2031,31.9228L 34.1058,29.8607C 24.326,26.6516 36.4167,21.0626 36.4167,19L 36.4167,17.4167L 34.8333,17.4167L 34.8333,15.8333 Z "/>
</svg>
