<?xml version="1.0" encoding="utf-8"?>
<!DOCTYPE svg PUBLIC "-//W3C//DTD SVG 1.1//EN" "http://www.w3.org/Graphics/SVG/1.1/DTD/svg11.dtd">
<svg xmlns="http://www.w3.org/2000/svg" xmlns:xlink="http://www.w3.org/1999/xlink" version="1.1" baseProfile="full" width="76" height="76" viewBox="0 0 76.00 76.00" enable-background="new 0 0 76.00 76.00" xml:space="preserve">
	<g>
		<path fill="#000000" fill-opacity="1" stroke-width="0.2" stroke-linejoin="round" d="M 17.3384,49.3308C 18.0763,49.7797 19.0802,50.1698 20.3501,50.5012C 21.62,50.8326 23.0609,51.0065 24.6728,51.0229C 27.7671,50.9817 30.1612,50.2745 31.855,48.9013C 33.5488,47.5281 34.407,45.7363 34.4296,43.5259C 34.3938,41.8667 33.9019,40.5111 32.9539,39.4589C 32.0058,38.4067 30.8163,37.741 29.3853,37.4617L 29.3853,37.3859C 30.8118,36.863 31.8825,36.111 32.5972,35.13C 33.3119,34.149 33.6694,33.0056 33.6696,31.6996C 33.659,29.9829 32.9736,28.55 31.6134,27.401C 30.2532,26.252 28.2817,25.6551 25.6989,25.6104C 24.0601,25.6284 22.5685,25.8181 21.2242,26.1793C 19.8798,26.5405 18.8253,26.9651 18.0605,27.4532L 19.2385,31.587C 19.7587,31.2633 20.4855,30.9442 21.4189,30.6298C 22.3524,30.3153 23.3357,30.1464 24.3689,30.1229C 25.6016,30.1378 26.5184,30.3802 27.1193,30.8503C 27.7202,31.3203 28.0195,31.9287 28.0171,32.6755C 27.9561,33.6959 27.47,34.4231 26.5587,34.857C 25.6475,35.291 24.6768,35.5021 23.6468,35.4904L 21.3667,35.4904L 21.3667,39.6229L 23.7228,39.6229C 25.0806,39.6173 26.2507,39.9059 27.2332,40.4887C 28.2158,41.0714 28.7304,41.9818 28.7771,43.2198C 28.7763,44.1604 28.3979,44.9384 27.6418,45.5538C 26.8857,46.1692 25.7567,46.4881 24.2548,46.5104C 23.049,46.4825 21.9264,46.2992 20.8869,45.9604C 19.8473,45.6216 19.0572,45.2948 18.5165,44.9799L 17.3384,49.3308 Z "/>
		<path fill="#000000" fill-opacity="1" stroke-width="0.2" stroke-linejoin="round" d="M 58.7166,35.8704L 49.2453,35.8704L 49.2453,40.3829L 53.1303,40.3829L 53.1303,46.1452C 52.6195,46.3684 51.698,46.4901 50.3658,46.5104C 47.9916,46.4879 46.0819,45.7112 44.6368,44.1801C 43.1917,42.6491 42.4494,40.4985 42.4097,37.7284C 42.4618,35.0179 43.2633,33.002 44.8143,31.681C 46.3652,30.3599 48.3527,29.702 50.7767,29.7073C 52.1467,29.7126 53.2987,29.8115 54.2327,30.0038C 55.1666,30.1961 55.9772,30.4499 56.6645,30.7652L 57.8805,25.9904C 57.2416,25.7458 56.3154,25.5051 55.1019,25.268C 53.8884,25.031 52.4591,24.9037 50.8141,24.886C 46.6033,24.9181 43.17,26.0776 40.5141,28.3647C 37.8583,30.6518 36.4793,33.8742 36.3772,38.0318C 36.3827,39.9795 36.6921,41.7928 37.3056,43.4716C 37.919,45.1505 38.8034,46.567 39.9588,47.7212C 42.2495,49.904 45.6687,51.0046 50.2164,51.0229C 51.9167,51.0015 53.5266,50.8426 55.0462,50.546C 56.5658,50.2494 57.7892,49.9437 58.7166,49.6288L 58.7166,35.8704 Z "/>
	</g>
</svg>
