<?xml version="1.0" encoding="utf-8"?>
<!DOCTYPE svg PUBLIC "-//W3C//DTD SVG 1.1//EN" "http://www.w3.org/Graphics/SVG/1.1/DTD/svg11.dtd">
<svg xmlns="http://www.w3.org/2000/svg" xmlns:xlink="http://www.w3.org/1999/xlink" version="1.1" baseProfile="full" width="76" height="76" viewBox="0 0 76.00 76.00" enable-background="new 0 0 76.00 76.00" xml:space="preserve">
	<path fill="#000000" fill-opacity="1" stroke-width="0.2" stroke-linejoin="round" d="M 26.9167,13.8542L 50.6667,13.8542L 50.6666,21.3751L 41.9583,30.0834L 38.952,27.0771C 38.4007,28.5996 36.942,29.6875 35.2291,29.6875L 41.9583,36.4167L 50.6666,27.7084L 50.6667,39.5833L 26.9167,63.3333L 26.9167,13.8542 Z M 34.0416,20.5834C 31.8555,20.5834 30.0833,22.3556 30.0833,24.5417C 30.0833,26.0419 30.9179,27.3472 32.1481,28.0186C 32.7106,28.3256 33.3557,28.5 34.0417,28.5C 36.2278,28.5 38,26.7278 38,24.5417C 38,23.8557 37.8255,23.2106 37.5185,22.6481C 36.8471,21.4179 35.5418,20.5834 34.0416,20.5834 Z "/>
</svg>
