<?xml version="1.0" encoding="utf-8"?>
<!DOCTYPE svg PUBLIC "-//W3C//DTD SVG 1.1//EN" "http://www.w3.org/Graphics/SVG/1.1/DTD/svg11.dtd">
<svg xmlns="http://www.w3.org/2000/svg" xmlns:xlink="http://www.w3.org/1999/xlink" version="1.1" baseProfile="full" width="76" height="76" viewBox="0 0 76.00 76.00" enable-background="new 0 0 76.00 76.00" xml:space="preserve">
	<path fill="#000000" fill-opacity="1" stroke-width="0.2" stroke-linejoin="round" d="M 23.0313,22.3856C 24.996,22.0288 27.7192,21.7611 31.4241,21.7611C 35.4426,21.7611 38.389,22.6096 40.3083,24.2162C 42.0948,25.6896 43.2551,28.0561 43.2551,30.8684C 43.2551,33.7257 42.3621,36.0913 40.6655,37.6992C 38.4781,39.8867 35.0413,40.9133 31.1564,40.9133C 30.1302,40.9133 29.1926,40.8683 28.4777,40.7343L 28.4777,52.074L 23.0313,52.074L 23.0313,22.3856 Z M 28.4777,36.404C 29.1481,36.5821 30.0407,36.6276 31.1564,36.6276C 35.264,36.6276 37.7636,34.6183 37.7636,31.0916C 37.7636,27.7434 35.4426,25.9578 31.6473,25.9578C 30.1302,25.9578 29.0586,26.0914 28.4777,26.2255L 28.4777,36.404 Z M 47.6308,52.074L 47.6308,20.3768L 53.1673,20.3768L 53.1673,52.074L 47.6308,52.074 Z "/>
</svg>
