<?xml version="1.0" encoding="utf-8"?>
<!DOCTYPE svg PUBLIC "-//W3C//DTD SVG 1.1//EN" "http://www.w3.org/Graphics/SVG/1.1/DTD/svg11.dtd">
<svg xmlns="http://www.w3.org/2000/svg" xmlns:xlink="http://www.w3.org/1999/xlink" version="1.1" baseProfile="full" width="76" height="76" viewBox="0 0 76.00 76.00" enable-background="new 0 0 76.00 76.00" xml:space="preserve">
	<path fill="#000000" fill-opacity="1" stroke-width="0.2" stroke-linejoin="round" d="M 31.0998,33.34C 33.5109,33.3687 35.407,34.0647 36.788,35.4279C 38.169,36.791 38.873,38.649 38.9,41.0017C 38.8273,43.8325 38.0101,45.9256 36.4483,47.2809C 34.8866,48.6362 33.0166,49.3092 30.8383,49.3C 28.5127,49.2794 26.6259,48.5703 25.1779,47.1729C 23.7298,45.7755 22.9839,43.8135 22.94,41.287C 22.9671,38.772 23.7012,36.8235 25.1424,35.4416C 26.5835,34.0597 28.5693,33.3591 31.0998,33.34 Z M 30.969,36.5C 29.7888,36.5515 28.9456,37.0429 28.4396,37.9742C 27.9336,38.9055 27.6871,39.9675 27.7,41.1602C 27.7034,42.5193 27.9826,43.6288 28.5377,44.4886C 29.0927,45.3485 29.9032,45.7923 30.969,45.8203C 31.945,45.8002 32.7146,45.3722 33.2778,44.5362C 33.841,43.7001 34.1284,42.5748 34.14,41.1602C 34.1488,39.9536 33.9023,38.8877 33.4004,37.9623C 32.8984,37.037 32.088,36.5496 30.969,36.5 Z M 42.14,48.98L 42.14,38.7044L 42.1,35.83L 42.012,33.66L 46.1168,33.66L 46.2734,36.5204L 46.3986,36.5204C 46.8255,35.4098 47.4385,34.6002 48.2374,34.0918C 49.0363,33.5834 49.8279,33.3328 50.6122,33.34L 51.1602,33.3479L 51.6363,33.403L 51.6363,37.9053L 50.3242,37.78C 49.4215,37.7885 48.6828,38.0056 48.1081,38.4315C 47.5334,38.8573 47.1627,39.4411 46.996,40.1827L 46.9,41.2106L 46.9,48.98L 42.14,48.98 Z "/>
</svg>
