<?xml version="1.0" encoding="utf-8"?>
<!DOCTYPE svg PUBLIC "-//W3C//DTD SVG 1.1//EN" "http://www.w3.org/Graphics/SVG/1.1/DTD/svg11.dtd">
<svg xmlns="http://www.w3.org/2000/svg" xmlns:xlink="http://www.w3.org/1999/xlink" version="1.1" baseProfile="full" width="76" height="76" viewBox="0 0 76.00 76.00" enable-background="new 0 0 76.00 76.00" xml:space="preserve">
	<path fill="#000000" fill-opacity="1" stroke-linejoin="round" d="M 27,58L 27,20L 38.9937,20C 42.6524,20 45.549,20.7945 47.6837,22.3835C 49.8184,23.9725 50.8857,26.0421 50.8857,28.5924C 50.8857,30.7243 50.2849,32.5776 49.0833,34.1524C 47.8816,35.7273 46.2205,36.8455 44.1,37.5071L 44.1,37.6174C 46.6559,37.9171 48.6973,38.8926 50.2241,40.5437C 51.7509,42.1949 52.5143,44.3409 52.5143,46.9817C 52.5143,50.2615 51.2448,52.9178 48.7058,54.9507C 46.1668,56.9835 42.9606,58 39.087,58L 27,58 Z M 33.0143,24.8857L 33.0143,35.7429L 37.5009,35.7429C 39.644,35.7429 41.3249,35.224 42.5435,34.1864C 43.7621,33.1487 44.3714,31.6799 44.3714,29.7799C 44.3714,26.5171 42.2452,24.8857 37.9929,24.8857L 33.0143,24.8857 Z M 33.0143,40.6286L 33.0143,53.1143L 38.7817,53.1143C 41.0832,53.1143 42.8616,52.5502 44.117,51.4221C 45.3723,50.294 46,48.7403 46,46.7612C 46,42.6728 43.3253,40.6286 37.9759,40.6286L 33.0143,40.6286 Z "/>
</svg>
