<?xml version="1.0" encoding="utf-8"?>
<!DOCTYPE svg PUBLIC "-//W3C//DTD SVG 1.1//EN" "http://www.w3.org/Graphics/SVG/1.1/DTD/svg11.dtd">
<svg xmlns="http://www.w3.org/2000/svg" xmlns:xlink="http://www.w3.org/1999/xlink" version="1.1" baseProfile="full" width="76" height="76" viewBox="0 0 76.00 76.00" enable-background="new 0 0 76.00 76.00" xml:space="preserve">
	<path fill="#000000" fill-opacity="1" stroke-width="0.2" stroke-linejoin="round" d="M 43.6619,17.8094C 47.5533,18.5658 50.6798,21.0288 52.4157,24.2709L 46.7634,27.1353C 46.2211,26.1736 45.4309,25.3566 44.4604,24.7849L 43.2744,17.7402L 43.6619,17.8094 Z M 53.6789,32.6602L 53.4299,33.4183C 52.8242,34.692 51.4146,35.446 49.9662,35.1645C 48.5177,34.8829 47.4933,33.6557 47.4088,32.2479L 47.4619,31.4518C 47.516,31.1733 47.3135,30.0428 47.3303,29.7671L 53.3878,26.6973C 53.744,28.3308 54.0182,30.9148 53.6789,32.6602 Z M 36.3391,26.2359L 32.0663,21.512C 34.0916,19.3869 36.8251,17.9966 39.8,17.6559L 41.1519,23.9094C 39.2592,23.9353 37.5037,24.8128 36.3391,26.2359 Z M 35.028,29.0349L 33.9706,34.4747L 28.5089,29.3807L 28.811,27.8264C 29.115,26.2624 29.6947,24.8219 30.4899,23.5457L 35.1133,28.6571L 35.028,29.0349 Z M 32.46,42.2459L 26.9983,37.1519L 27.9047,32.4892L 33.3664,37.5832L 32.46,42.2459 Z M 29.892,55.457C 29.5583,57.1738 27.8961,58.295 26.1793,57.9613C 24.4626,57.6275 23.3414,55.9653 23.6751,54.2485L 24.808,48.4201L 30.2697,53.5142L 29.892,55.457 Z M 26.3941,40.2603L 31.8558,45.3544L 30.8739,50.4057L 25.4122,45.3116L 26.3941,40.2603 Z "/>
</svg>
