<?xml version="1.0" encoding="utf-8"?>
<!DOCTYPE svg PUBLIC "-//W3C//DTD SVG 1.1//EN" "http://www.w3.org/Graphics/SVG/1.1/DTD/svg11.dtd">
<svg xmlns="http://www.w3.org/2000/svg" xmlns:xlink="http://www.w3.org/1999/xlink" version="1.1" baseProfile="full" width="76" height="76" viewBox="0 0 76.00 76.00" enable-background="new 0 0 76.00 76.00" xml:space="preserve">
	<path fill="#000000" fill-opacity="1" stroke-width="0.2" stroke-linejoin="round" d="M 38,31.6667C 41.4978,31.6667 44.3333,34.5022 44.3333,38C 44.3333,41.4978 41.4978,44.3333 38,44.3333C 34.5022,44.3333 31.6667,41.4978 31.6667,38C 31.6667,34.5022 34.5022,31.6667 38,31.6667 Z M 26.9167,38C 26.9167,41.0606 28.1572,43.8314 30.1629,45.8371L 26.8041,49.1959C 23.9389,46.3306 22.1667,42.3723 22.1667,38C 22.1667,33.6278 23.9389,29.6694 26.8041,26.8041L 30.1629,30.1629C 28.1572,32.1686 26.9167,34.9394 26.9167,38 Z M 49.0833,38C 49.0833,34.9394 47.8428,32.1686 45.8371,30.1629L 49.1958,26.8042C 52.0611,29.6694 53.8333,33.6278 53.8333,38C 53.8333,42.3723 52.0611,46.3306 49.1958,49.1959L 45.8371,45.8371C 47.8428,43.8314 49.0833,41.0606 49.0833,38 Z M 17.4167,38C 17.4167,43.6839 19.7205,48.8298 23.4454,52.5546L 20.0866,55.9134C 15.5022,51.3289 12.6667,44.9956 12.6667,38C 12.6667,31.0044 15.5022,24.6711 20.0866,20.0866L 23.4454,23.4454C 19.7205,27.1702 17.4167,32.3161 17.4167,38 Z M 58.5833,38C 58.5833,32.3161 56.2795,27.1702 52.5546,23.4454L 55.9134,20.0866C 60.4978,24.6711 63.3333,31.0044 63.3333,38C 63.3333,44.9956 60.4978,51.3289 55.9134,55.9134L 52.5546,52.5546C 56.2795,48.8298 58.5833,43.6839 58.5833,38 Z "/>
</svg>
