<?xml version="1.0" encoding="utf-8"?>
<!DOCTYPE svg PUBLIC "-//W3C//DTD SVG 1.1//EN" "http://www.w3.org/Graphics/SVG/1.1/DTD/svg11.dtd">
<svg xmlns="http://www.w3.org/2000/svg" xmlns:xlink="http://www.w3.org/1999/xlink" version="1.1" baseProfile="full" width="76" height="76" viewBox="0 0 76.00 76.00" enable-background="new 0 0 76.00 76.00" xml:space="preserve">
	<path fill="#000000" fill-opacity="1" stroke-width="0.2" stroke-linejoin="round" d="M 43,36L 48.1666,36L 50,30.5L 51.8333,36L 57,36L 52.8269,38.9808L 54.5,44L 50,41L 45.5,44L 47.1731,38.9808L 43,36 Z M 38,19C 41.3767,19 44.5476,19.8809 47.2956,21.4253C 46.0752,21.147 44.8047,21 43.5,21C 34.1112,21 26.5,28.6112 26.5,38C 26.5,47.3888 34.1112,55 43.5,55C 44.8047,55 46.0752,54.853 47.2956,54.5747C 44.5476,56.1191 41.3767,57 38,57C 27.5066,57 19,48.4934 19,38C 19,27.5066 27.5066,19 38,19 Z "/>
</svg>
