<?xml version="1.0" encoding="utf-8"?>
<!DOCTYPE svg PUBLIC "-//W3C//DTD SVG 1.1//EN" "http://www.w3.org/Graphics/SVG/1.1/DTD/svg11.dtd">
<svg xmlns="http://www.w3.org/2000/svg" xmlns:xlink="http://www.w3.org/1999/xlink" version="1.1" baseProfile="full" width="76" height="76" viewBox="0 0 76.00 76.00" enable-background="new 0 0 76.00 76.00" xml:space="preserve">
	<path fill="#000000" fill-opacity="1" stroke-width="0.2" stroke-linejoin="round" d="M 57.0002,33.9998L 57.0001,41.9998L 55,41.9999L 55.0002,33.9999L 57.0002,33.9998 Z M 57.0002,42.9999L 57,50.9999L 55,51L 55.0001,43L 57.0002,42.9999 Z M 19.0001,23.5L 41.0002,19.9999L 41.0002,55.9999L 19.0001,52.5L 19.0001,23.5 Z M 34.1867,44.608L 34.1814,32.2704L 33.0883,32.3288L 31.9952,32.3872L 31.9801,39.0708L 32.0408,40.7311L 32.011,40.7303C 30.5767,37.9799 29.0044,35.3028 27.428,32.6312L 26.1812,32.6978L 24.9344,32.7644L 24.9371,44.0382L 26.0304,44.1056L 27.1238,44.173L 27.1097,37.838L 27.096,36.7457L 27.0541,35.9744L 27.0816,35.9739C 28.6258,38.8286 30.2874,41.6185 31.8485,44.464L 33.0176,44.536L 34.1867,44.608 Z M 42.0002,23.9999L 54.0001,24L 54.0002,24.9999L 57.0002,24.9999L 57.0002,32.9999L 54.0002,32.9999L 54.0001,52L 42.0001,52L 42.0001,49L 52.0002,48.9999L 52.0001,47L 42.0001,47L 42.0001,45L 52.0001,45L 52,43L 42,43L 42,41L 52,41L 52,39.0001L 42,39.0001L 42,37.0001L 52,37.0001L 52,35.0001L 42,35.0001L 42,33.0001L 52,33.0001L 51.9999,31.0002L 41.9999,31.0002L 41.9999,29.0002L 51.9999,29.0002L 52.0002,26.9999L 42.0002,26.9999L 42.0002,23.9999 Z "/>
</svg>
