<?xml version="1.0" encoding="utf-8"?>
<!DOCTYPE svg PUBLIC "-//W3C//DTD SVG 1.1//EN" "http://www.w3.org/Graphics/SVG/1.1/DTD/svg11.dtd">
<svg xmlns="http://www.w3.org/2000/svg" xmlns:xlink="http://www.w3.org/1999/xlink" version="1.1" baseProfile="full" width="76" height="76" viewBox="0 0 76.00 76.00" enable-background="new 0 0 76.00 76.00" xml:space="preserve">
	<path fill="#000000" fill-opacity="1" stroke-width="0.2" stroke-linejoin="round" d="M 33.25,33.25L 42.75,33.25L 42.75,42.75L 33.25,42.75L 33.25,33.25 Z M 33.25,20.5834L 42.75,20.5834L 42.75,30.0834L 33.25,30.0834L 33.25,20.5834 Z M 20.5833,20.5834L 30.0833,20.5834L 30.0833,30.0834L 20.5833,30.0834L 20.5833,20.5834 Z M 20.5833,33.25L 30.0833,33.25L 30.0833,42.75L 20.5833,42.75L 20.5833,33.25 Z M 45.9167,33.25L 55.4167,33.25L 55.4167,42.75L 45.9167,42.75L 45.9167,33.25 Z M 45.9167,20.5833L 55.4167,20.5833L 55.4167,30.0833L 45.9167,30.0833L 45.9167,20.5833 Z M 20.5833,45.9167L 30.0833,45.9167L 30.0833,55.4167L 20.5833,55.4167L 20.5833,45.9167 Z M 33.25,45.9167L 42.75,45.9167L 42.75,55.4167L 33.25,55.4167L 33.25,45.9167 Z M 45.9167,45.9167L 55.4167,45.9167L 55.4167,55.4167L 45.9167,55.4167L 45.9167,45.9167 Z "/>
</svg>
