<?xml version="1.0" encoding="utf-8"?>
<!DOCTYPE svg PUBLIC "-//W3C//DTD SVG 1.1//EN" "http://www.w3.org/Graphics/SVG/1.1/DTD/svg11.dtd">
<svg xmlns="http://www.w3.org/2000/svg" xmlns:xlink="http://www.w3.org/1999/xlink" version="1.1" baseProfile="full" width="76" height="76" viewBox="0 0 76.00 76.00" enable-background="new 0 0 76.00 76.00" xml:space="preserve">
	<path fill="#FFFFFF" fill-opacity="1" stroke-width="0.2" stroke-linejoin="round" d="M 17.4166,31.6667L 26.9167,31.6667L 26.9167,22.1667L 39.5833,22.1667L 39.5833,31.6667L 58.5833,31.6667L 58.5833,44.3333L 49.0833,44.3333L 49.0833,53.8333L 36.4167,53.8333L 36.4167,44.3333L 17.4167,44.3333L 17.4166,31.6667 Z M 45.9167,44.3333L 39.5833,44.3333L 39.5833,50.6667L 45.9167,50.6667L 45.9167,44.3333 Z M 30.0833,31.6667L 36.4167,31.6667L 36.4167,25.3334L 30.0833,25.3333L 30.0833,31.6667 Z M 20.5833,34.8334L 20.5833,41.1667L 26.9167,41.1667L 26.9166,34.8334L 20.5833,34.8334 Z M 30.0833,34.8334L 30.0833,41.1667L 36.4167,41.1667L 36.4167,34.8334L 30.0833,34.8334 Z M 39.5833,34.8333L 39.5833,41.1667L 45.9167,41.1667L 45.9167,34.8333L 39.5833,34.8333 Z M 49.0833,34.8333L 49.0833,41.1667L 55.4167,41.1667L 55.4167,34.8333L 49.0833,34.8333 Z "/>
</svg>
