<?xml version="1.0" encoding="utf-8"?>
<!DOCTYPE svg PUBLIC "-//W3C//DTD SVG 1.1//EN" "http://www.w3.org/Graphics/SVG/1.1/DTD/svg11.dtd">
<svg xmlns="http://www.w3.org/2000/svg" xmlns:xlink="http://www.w3.org/1999/xlink" version="1.1" baseProfile="full" width="76" height="76" viewBox="0 0 76.00 76.00" enable-background="new 0 0 76.00 76.00" xml:space="preserve">
	<path fill="#000000" fill-opacity="1" stroke-width="0.2" stroke-linejoin="round" d="M 17.4167,53.8333C 17.4167,53.8333 39.5833,22.1667 58.5833,22.1667C 60.1667,23.75 60.1667,25.3333 58.5833,26.9167C 57,28.5 55.0208,26.5209 53.4375,28.1042C 51.8541,29.6875 55.8804,28.9638 57,30.0833C 58.5833,31.6667 51.4583,33.6459 48.2916,32.0625C 48.2916,32.0625 47.5,32.4583 50.6667,35.625C 47.5,36.4167 42.3541,36.8125 42.3541,36.8125C 42.3541,36.8125 41.1667,39.5833 47.5,39.5833C 47.5,41.1667 40.7708,44.3334 32.8541,43.1459C 32.8541,43.1459 25.3333,47.5 22.1667,52.25L 17.4167,53.8333 Z "/>
</svg>
