<?xml version="1.0" encoding="utf-8"?>
<!DOCTYPE svg PUBLIC "-//W3C//DTD SVG 1.1//EN" "http://www.w3.org/Graphics/SVG/1.1/DTD/svg11.dtd">
<svg xmlns="http://www.w3.org/2000/svg" xmlns:xlink="http://www.w3.org/1999/xlink" version="1.1" baseProfile="full" width="76" height="76" viewBox="0 0 76.00 76.00" enable-background="new 0 0 76.00 76.00" xml:space="preserve">
	<path fill="#000000" fill-opacity="1" stroke-width="0.2" stroke-linejoin="round" d="M 17.0208,25.3334L 55.8124,25.3334C 57.3427,25.3334 58.5833,26.5739 58.5833,28.1042L 58.5833,51.0625C 58.5833,52.5928 57.3427,53.8334 55.8124,53.8334L 17.0208,53.8334C 15.4905,53.8334 14.25,52.5928 14.25,51.0625L 14.25,28.1042C 14.25,26.5739 15.4905,25.3334 17.0208,25.3334 Z M 20.5833,31.6667L 20.5833,34.8333L 49.0833,34.8333L 49.0833,31.6667L 20.5833,31.6667 Z M 20.5833,38L 20.5833,41.1667L 42.75,41.1667L 42.75,38L 20.5833,38 Z M 20.5833,44.3333L 20.5833,47.5L 49.0833,47.5L 49.0833,44.3333L 20.5833,44.3333 Z M 57.3958,23.75L 19,23.75L 19,23.3542C 19,21.8239 20.2405,20.5833 21.7708,20.5833L 60.5624,20.5833C 62.0927,20.5833 63.3333,21.8239 63.3333,23.3542L 63.3333,46.3125C 63.3333,47.8427 62.0927,49.0833 60.5624,49.0833L 60.1667,49.0833L 60.1667,26.5208C 60.1667,24.9905 58.9261,23.75 57.3958,23.75 Z "/>
</svg>
