<?xml version="1.0" encoding="utf-8"?>
<!DOCTYPE svg PUBLIC "-//W3C//DTD SVG 1.1//EN" "http://www.w3.org/Graphics/SVG/1.1/DTD/svg11.dtd">
<svg xmlns="http://www.w3.org/2000/svg" xmlns:xlink="http://www.w3.org/1999/xlink" version="1.1" baseProfile="full" width="76" height="76" viewBox="0 0 76.00 76.00" enable-background="new 0 0 76.00 76.00" xml:space="preserve">
	<path fill="#000000" fill-opacity="1" stroke-width="0.2" stroke-linejoin="round" d="M 23.2486,25.076C 22.5889,25.7534 21.9742,26.4933 21.4047,27.296C 20.8351,28.0987 20.3436,28.9607 19.9302,29.8821C 19.5168,30.8035 19.1935,31.7766 18.9604,32.8014C 18.7273,33.8262 18.6107,34.8883 18.6107,35.9878C 18.6107,37.0566 18.724,38.1517 18.9505,39.2733C 19.177,40.3948 19.5508,41.5394 20.072,42.7071C 20.5932,43.8748 21.287,45.07 22.1535,46.2927C 23.0199,47.5154 24.093,48.7601 25.3729,50.0267C 25.7863,50.4358 26.2569,50.902 26.7847,51.4253C 27.3125,51.9487 27.8721,52.5029 28.4637,53.0878C 29.0552,53.6728 29.66,54.2742 30.2779,54.8922C 30.8959,55.5101 31.5017,56.1072 32.0955,56.6833C 33.4677,58.0424 34.8971,59.4586 36.3837,60.9319L 40.6455,56.6239C 39.1765,55.1638 37.7559,53.7542 36.3837,52.3951C 35.8031,51.819 35.2006,51.2252 34.576,50.6139C 33.9515,50.0025 33.3434,49.4011 32.7519,48.8095C 32.1603,48.218 31.6007,47.6605 31.0729,47.1371C 30.5451,46.6138 30.0745,46.1476 29.6611,45.7385C 27.9854,44.0584 26.7242,42.3904 25.8776,40.7345C 25.0309,39.0786 24.6076,37.4678 24.6076,35.9021C 24.6076,34.719 24.8484,33.5777 25.33,32.4781C 25.8116,31.3786 26.5472,30.3406 27.5368,29.3642C 27.7831,29.1179 28.0887,28.8848 28.4538,28.6649C 28.8188,28.445 29.2312,28.2526 29.6908,28.0877C 30.1504,27.9227 30.6518,27.7886 31.1949,27.6852C 31.7381,27.5819 32.3132,27.5302 32.9201,27.5302C 33.5359,27.5302 34.1802,27.5929 34.8531,27.7182C 35.526,27.8436 36.2066,28.0503 36.8949,28.3384C 37.5833,28.6264 38.2782,29.0036 38.9797,29.4698C 39.6812,29.936 40.3684,30.5056 41.0413,31.1785L 45.534,35.6976L 38.5014,42.75L 57,42.75L 57,24.5417L 50.0069,31.4094L 45.4944,26.8705C 44.4916,25.7446 43.4537,24.8275 42.3805,24.1194C 41.3074,23.4113 40.2353,22.8616 39.1644,22.4701C 38.0934,22.0787 37.028,21.8148 35.968,21.6785C 34.9081,21.5421 33.8921,21.474 32.9201,21.474C 31.9129,21.474 30.942,21.563 30.0074,21.7411C 29.0728,21.9193 28.1932,22.17 27.3686,22.4932C 26.5439,22.8165 25.7852,23.198 25.0925,23.6378C 24.3998,24.0777 23.7852,24.5571 23.2486,25.076 Z "/>
</svg>
