<?xml version="1.0" encoding="utf-8"?>
<!DOCTYPE svg PUBLIC "-//W3C//DTD SVG 1.1//EN" "http://www.w3.org/Graphics/SVG/1.1/DTD/svg11.dtd">
<svg xmlns="http://www.w3.org/2000/svg" xmlns:xlink="http://www.w3.org/1999/xlink" version="1.1" baseProfile="full" width="76" height="76" viewBox="0 0 76.00 76.00" enable-background="new 0 0 76.00 76.00" xml:space="preserve">
	<path fill="#000000" fill-opacity="1" stroke-width="0.2" stroke-linejoin="round" d="M 35.9483,32.1784L 39.1637,32.2758L 42.5739,43.6758C 43.938,40.6553 45.3021,36.563 45.497,32.2758L 48.7124,32.2758C 46.0816,43.1886 46.0146,42.2143 44.1329,46.9886L 40.4303,46.9886L 35.9483,32.1784 Z M 14.1226,50.4963C 16.8508,47.963 17.0457,48.3527 17.2406,43.6758C 17.4355,38.9989 17.2406,26.9168 17.2406,26.9168L 20.3585,26.9168L 20.1637,44.4553C 20.1637,44.4553 20.9432,49.9117 15.4867,52.2502L 14.1226,50.4963 Z M 31.2227,38.0246C 31.1723,36.7719 31.1385,35.0473 30.0534,34.4194C 28.2464,33.3738 25.4747,33.9521 23.6714,35.004C 23.5082,34.3053 22.8471,33.2049 23.4765,32.8604C 26.2408,31.3477 30.5471,30.9969 32.9278,33.0614C 34.3274,34.2752 34.2236,36.5618 34.1948,38.4143L 34.1948,46.9886L 31.6611,46.9886L 31.4662,45.5271C 29.4382,46.5271 23.4765,49.522 22.5021,43.3835C 22.3073,41.1425 23.6714,38.0245 31.2227,38.0246 Z M 30.9791,40.1681C 26.0098,39.1938 25.0354,41.7271 25.5226,43.1887C 26.0098,44.6502 27.1791,46.404 31.2226,43.5784C 31.0765,42.8963 30.9466,41.3049 30.9791,40.1681 Z M 58.8945,38.0759C 58.8441,36.8232 58.8103,35.0986 57.7252,34.4707C 55.9182,33.4251 53.1465,34.0034 51.3432,35.0553C 51.18,34.3566 50.5189,33.2562 51.1483,32.9117C 53.9126,31.399 58.2189,31.0482 60.5996,33.1127C 61.9993,34.3265 61.8954,36.6132 61.8662,38.4656L 61.8663,47.0399L 59.3329,47.0399L 59.138,45.5784C 57.11,46.5784 51.1483,49.5733 50.1739,43.4348C 49.9791,41.1938 51.3432,38.0758 58.8945,38.0759 Z M 58.6509,40.2194C 53.6816,39.2451 52.7072,41.7784 53.1944,43.24C 53.6816,44.7015 54.8508,46.4553 58.8944,43.6297C 58.7483,42.9476 58.6184,41.3562 58.6509,40.2194 Z "/>
</svg>
