<?xml version="1.0" encoding="utf-8"?>
<!DOCTYPE svg PUBLIC "-//W3C//DTD SVG 1.1//EN" "http://www.w3.org/Graphics/SVG/1.1/DTD/svg11.dtd">
<svg xmlns="http://www.w3.org/2000/svg" xmlns:xlink="http://www.w3.org/1999/xlink" version="1.1" baseProfile="full" width="48" height="48" viewBox="0 0 48.00 48.00" enable-background="new 0 0 48.00 48.00" xml:space="preserve">
	<path fill="#000000" d="M 14.4703,14.1739L 18.8967,14.1739L 25.0714,33.1774L 21.3503,33.1774L 19.6295,27.792L 13.5963,27.792L 11.9605,33.1774L 8.37939,33.1774L 14.4703,14.1739 Z M 15.6265,20.4893L 14.1597,25.17L 19.0376,25.17L 17.5433,20.4893C 17.1765,19.3334 16.8668,18.0365 16.5846,16.9372L 16.5284,16.9372C 16.2465,18.0365 15.9646,19.3621 15.6265,20.4893 Z M 35.7618,19.4464L 39.2307,19.4464L 39.2307,29.0608C 39.2307,30.6968 39.2864,32.0497 39.3432,33.1774L 36.2983,33.1774L 36.129,31.091L 36.0724,31.091C 35.4802,32.0781 34.1269,33.4877 31.6739,33.4877C 29.1646,33.4877 26.8803,31.9934 26.8803,27.5107L 26.8803,19.4464L 30.3486,19.4464L 30.3486,26.9183C 30.3486,29.202 31.0814,30.6679 32.9144,30.6679C 34.2959,30.6679 35.1981,29.6819 35.5646,28.8073C 35.6774,28.4967 35.7618,28.1305 35.7618,27.7355L 35.7618,19.4464 Z "/>
</svg>
