<?xml version="1.0" encoding="utf-8"?>
<!DOCTYPE svg PUBLIC "-//W3C//DTD SVG 1.1//EN" "http://www.w3.org/Graphics/SVG/1.1/DTD/svg11.dtd">
<svg xmlns="http://www.w3.org/2000/svg" xmlns:xlink="http://www.w3.org/1999/xlink" version="1.1" baseProfile="full" width="76" height="76" viewBox="0 0 76.00 76.00" enable-background="new 0 0 76.00 76.00" xml:space="preserve">
	<path fill="#000000" fill-opacity="1" stroke-width="0.2" stroke-linejoin="round" d="M 26.7982,56.6393L 25.9063,56.0147C 24.9211,55.3249 24.6817,53.9671 25.3715,52.9819L 32.6323,42.6125C 21.6823,25.6237 24.2725,20.4034 24.2725,20.4034L 25.6103,19.4667L 37.2248,36.0537L 37.8618,35.1439C 37.2672,34.7276 36.6726,34.3112 36.5018,32.9732C 36.3311,31.6352 36.8071,29.5317 37.7663,27.2127C 39.8704,23.2585 45.1783,19 45.1783,19L 40.3602,28.2537L 40.8062,28.566L 48.3,21.1858L 43.9278,30.7518L 44.3738,31.0641L 51.8676,23.6839L 47.4955,33.2499L 47.9414,33.5621L 54.9892,25.8697C 54.9892,25.8697 52.803,32.314 49.8069,35.6436C 47.9558,37.3381 46.142,38.5049 44.8262,38.802C 43.5105,39.0992 42.9159,38.6828 42.3213,38.2665L 40.5477,40.7994L 48.0929,51.575C 48.7827,52.5602 48.5433,53.918 47.5581,54.6078L 46.6662,55.2324C 45.681,55.9222 44.3232,55.6827 43.6334,54.6976L 37.3882,45.7786L 36.7468,46.2277L 29.831,56.1045C 29.1412,57.0897 27.7834,57.3291 26.7982,56.6393 Z "/>
</svg>
