<?xml version="1.0" encoding="utf-8"?>
<!DOCTYPE svg PUBLIC "-//W3C//DTD SVG 1.1//EN" "http://www.w3.org/Graphics/SVG/1.1/DTD/svg11.dtd">
<svg xmlns="http://www.w3.org/2000/svg" xmlns:xlink="http://www.w3.org/1999/xlink" version="1.1" baseProfile="full" width="76" height="76" viewBox="0 0 76.00 76.00" enable-background="new 0 0 76.00 76.00" xml:space="preserve">
	<path fill="#000000" fill-opacity="1" stroke-width="0.2" stroke-linejoin="round" d="M 38,3.16666C 57.2379,3.16666 72.8333,18.7621 72.8333,38C 72.8333,57.2379 57.2379,72.8333 38,72.8333C 18.7621,72.8333 3.16667,57.2379 3.16667,38C 3.16667,18.7621 18.7621,3.16666 38,3.16666 Z M 52.252,18.9974L 36.4164,18.9974L 23.75,39.5833L 34.8333,39.5833L 25.3316,60.1667L 50.6667,34.8333L 38,34.8333L 52.252,18.9974 Z M 18.2083,20.5834L 27.3125,29.6876L 29.6875,26.5209L 23.75,20.5834L 18.2083,20.5834 Z M 42.75,45.9167L 53.8334,56.9999L 57.0001,53.8333L 45.9167,42.75L 42.75,45.9167 Z "/>
</svg>
