<?xml version="1.0" encoding="utf-8"?>
<!DOCTYPE svg PUBLIC "-//W3C//DTD SVG 1.1//EN" "http://www.w3.org/Graphics/SVG/1.1/DTD/svg11.dtd">
<svg xmlns="http://www.w3.org/2000/svg" xmlns:xlink="http://www.w3.org/1999/xlink" version="1.1" baseProfile="full" width="76" height="76" viewBox="0 0 76.00 76.00" enable-background="new 0 0 76.00 76.00" xml:space="preserve">
	<path fill="#000000" fill-opacity="1" stroke-width="0.2" stroke-linejoin="round" d="M 62.2371,19.8246C 63.049,19.0127 64.2725,17.9583 65.6613,16.8261C 63.847,14.4594 61.7358,12.3324 59.3834,10.5005C 58.3342,11.8224 57.3514,12.9827 56.5712,13.763C 49.8537,20.4805 43.532,14.5546 41.2928,16.7938L 32.3362,25.7505L 33.4557,26.8701L 15.5424,40.3051C 18.5279,44.037 17.7816,44.7834 24.4991,51.5009C 31.2166,58.2185 31.963,57.4721 35.6949,60.4576L 49.1299,42.5443L 50.2495,43.6638L 59.2062,34.7072C 61.4454,32.468 55.5196,26.5421 62.2371,19.8246 Z M 35.1351,28.5495L 35.6949,29.1092L 32.3362,32.468L 36.8145,30.2288L 37.9341,31.3484L 34.8552,37.2262L 39.0537,32.468L 40.1732,33.5876L 34.0155,41.9845L 41.2928,34.7072L 43.532,36.9463L 38.2139,42.2644L 44.6516,38.0659L 45.7712,39.1855L 42.4124,44.7834L 46.8908,40.3051L 47.4505,40.8649L 37.0944,54.5798C 35.9748,53.4602 37.0944,50.1015 37.0944,47.8623C 36.8145,45.903 32.616,52.3406 30.3769,50.1015C 28.1377,47.8623 30.6568,47.5824 30.6568,45.3432C 30.6568,43.1041 27.8578,44.7834 25.6186,44.7834C 23.3795,44.7834 24.499,43.6638 24.499,41.4247C 24.499,39.1855 18.9011,40.8649 18.9011,40.8649L 35.1351,28.5495 Z "/>
</svg>
