<?xml version="1.0" encoding="utf-8"?>
<!DOCTYPE svg PUBLIC "-//W3C//DTD SVG 1.1//EN" "http://www.w3.org/Graphics/SVG/1.1/DTD/svg11.dtd">
<svg xmlns="http://www.w3.org/2000/svg" xmlns:xlink="http://www.w3.org/1999/xlink" version="1.1" baseProfile="full" width="76" height="76" viewBox="0 0 76.00 76.00" enable-background="new 0 0 76.00 76.00" xml:space="preserve">
	<path fill="#000000" fill-opacity="1" stroke-width="0.2" stroke-linejoin="round" d="M 24.9269,53.8333L 24.9269,21.3222L 36.6106,21.3222C 48.3282,21.3222 54.1869,26.6053 54.1869,37.1714C 54.1869,42.2319 52.588,46.274 49.3901,49.2977C 46.1922,52.3215 41.9324,53.8333 36.6106,53.8333L 24.9269,53.8333 Z M 32.3581,27.36L 32.3581,47.7956L 36.0156,47.7956C 39.2231,47.7956 41.7377,46.8509 43.5591,44.9617C 45.3806,43.0725 46.2914,40.5023 46.2914,37.2512C 46.2914,34.1791 45.3879,31.7625 43.5809,30.0015C 41.7739,28.2405 39.2376,27.36 35.972,27.36L 32.3581,27.36 Z "/>
</svg>
