<?xml version="1.0" encoding="utf-8"?>
<!DOCTYPE svg PUBLIC "-//W3C//DTD SVG 1.1//EN" "http://www.w3.org/Graphics/SVG/1.1/DTD/svg11.dtd">
<svg xmlns="http://www.w3.org/2000/svg" xmlns:xlink="http://www.w3.org/1999/xlink" version="1.1" baseProfile="full" width="76" height="76" viewBox="0 0 76.00 76.00" enable-background="new 0 0 76.00 76.00" xml:space="preserve">
	<path fill="#000000" fill-opacity="1" stroke-linejoin="round" d="M 21.3,17L 46.7,17C 47.418,17 48,17.5821 48,18.3L 48,24.7C 48,25.418 47.418,26 46.7,26L 31.3,26C 30.0298,26 29,27.0298 29,28.3L 29,49.7C 29,50.418 28.418,51 27.7,51L 21.3,51C 20.582,51 20,50.418 20,49.7L 20,18.3C 20,17.582 20.582,17 21.3,17 Z M 33.3,29L 54.7,29C 55.418,29 56,29.582 56,30.3L 56,57.7C 56,58.418 55.418,59 54.7,59L 33.3,59C 32.582,59 32,58.418 32,57.7L 32,30.3C 32,29.582 32.582,29 33.3,29 Z M 49.506,52L 49.506,49.5379L 41.5022,49.5379L 41.5022,49.4746C 41.5022,49.121 41.6197,48.7687 41.8545,48.4177C 42.0894,48.0667 42.3968,47.7164 42.7768,47.3668L 44.0573,46.2921L 45.4843,45.16L 47.032,43.7865C 47.4938,43.3405 47.8877,42.8701 48.2136,42.3753C 48.5395,41.8805 48.7908,41.3468 48.9677,40.7742C 49.1445,40.2015 49.2329,39.5563 49.2329,38.8385C 49.2329,38.0469 49.1069,37.3456 48.8548,36.7347C 48.6028,36.1238 48.2459,35.6145 47.7841,35.2068C 47.3223,34.7991 46.7662,34.4903 46.1157,34.2805C 45.4652,34.0707 44.7402,33.9658 43.9406,33.9658L 42.5413,34.0648L 41.2924,34.3676L 40.1426,34.8743L 39.0402,35.5848L 39.0402,38.3438C 39.7342,37.6682 40.4559,37.1609 41.2054,36.8218C 41.9548,36.4827 42.6924,36.3131 43.4181,36.3131C 43.8403,36.3131 44.2282,36.3732 44.5818,36.4932C 44.9354,36.6133 45.2422,36.7908 45.5021,37.0256C 45.7621,37.2605 45.9646,37.5534 46.1097,37.9044C 46.2549,38.2554 46.3274,38.6657 46.3274,39.1354C 46.3274,39.5629 46.2654,39.9607 46.1414,40.3289C 46.0174,40.697 45.8439,41.046 45.6209,41.3758L 44.8173,42.3338L 43.7783,43.2798L 42.5413,44.2872L 41.3043,45.3263L 40.1663,46.4405C 39.8114,46.8245 39.502,47.2329 39.2381,47.6656C 38.9742,48.0984 38.7637,48.5602 38.6067,49.051C 38.4497,49.5419 38.3712,50.067 38.3712,50.6265L 38.3712,52L 49.506,52 Z "/>
</svg>
