<?xml version="1.0" encoding="utf-8"?>
<!DOCTYPE svg PUBLIC "-//W3C//DTD SVG 1.1//EN" "http://www.w3.org/Graphics/SVG/1.1/DTD/svg11.dtd">
<svg xmlns="http://www.w3.org/2000/svg" xmlns:xlink="http://www.w3.org/1999/xlink" version="1.1" baseProfile="full" width="76" height="76" viewBox="0 0 76.00 76.00" enable-background="new 0 0 76.00 76.00" xml:space="preserve">
	<path fill="#000000" fill-opacity="1" stroke-width="0.2" stroke-linejoin="round" d="M 19.8033,22.5093L 36.8016,22.5093L 36.8016,26.9223L 25.1777,26.9223L 25.1777,35.0501L 36.0143,35.0501L 36.0143,39.4635L 25.1777,39.4635L 25.1777,51.9606L 19.8033,51.9606L 19.8033,22.5093 Z M 39.9499,21.1344L 44.8704,21.1344L 44.8704,33.1952L 44.95,33.1952C 45.83,31.6219 47.7497,30.3977 50.4297,30.3977C 55.1109,30.3977 59.1905,34.6366 59.1496,41.7593C 59.1496,48.3138 55.4699,52.6404 50.8306,52.6404C 47.99,52.6404 45.6307,51.154 44.47,48.7943L 44.3895,48.7943L 44.1906,52.1595L 39.7898,52.1595L 39.9499,46.1732L 39.9499,21.1344 Z M 45.0301,44.5122C 45.5106,46.8278 47.2697,48.3138 49.2699,48.3138C 52.3904,48.3138 54.1504,45.4736 54.1504,41.5848C 54.1504,37.6082 52.3904,34.5493 49.2308,34.5493C 46.9899,34.5493 45.431,36.254 44.9901,38.3509L 44.8704,39.7497L 44.8704,42.9394C 44.8704,43.5076 44.9104,44.0313 45.0301,44.5122 Z "/>
</svg>
