<?xml version="1.0" encoding="utf-8"?>
<!DOCTYPE svg PUBLIC "-//W3C//DTD SVG 1.1//EN" "http://www.w3.org/Graphics/SVG/1.1/DTD/svg11.dtd">
<svg xmlns="http://www.w3.org/2000/svg" xmlns:xlink="http://www.w3.org/1999/xlink" version="1.1" baseProfile="full" width="76" height="76" viewBox="0 0 76.00 76.00" enable-background="new 0 0 76.00 76.00" xml:space="preserve">
	<path fill="#000000" fill-opacity="1" stroke-width="0.2" stroke-linejoin="round" d="M 20,17L 44,17L 56,29L 56,45.1515C 57.8558,47.0453 59,49.639 59,52.5C 59,58.299 54.299,63 48.5,63C 45.1554,63 42.1761,61.4363 40.2532,59L 20,59L 20,17 Z M 24,21L 24,55L 38.2994,55C 38.1037,54.1988 38,53.3615 38,52.5C 38,46.701 42.701,42 48.5,42C 49.7272,42 50.9053,42.2106 52,42.5975L 52,34L 39,34L 39,21L 24,21 Z M 43,21L 43,30L 52,30L 43,21 Z M 52.8658,51.86C 52.8658,51.0317 52.7758,50.2921 52.5958,49.6412C 52.4158,48.9904 52.1554,48.4408 51.8145,47.9925C 51.4737,47.5442 51.0612,47.2017 50.577,46.965C 50.0929,46.7283 49.5458,46.61 48.9358,46.61C 48.3475,46.61 47.8112,46.705 47.327,46.895C 46.8429,47.085 46.4275,47.3546 46.0808,47.7037C 45.7341,48.0529 45.4645,48.4696 45.272,48.9537C 45.0795,49.4379 44.9833,49.9742 44.9833,50.5625C 44.9833,51.0675 45.0625,51.5308 45.2208,51.9525C 45.3791,52.3742 45.6004,52.7375 45.8845,53.0425C 46.1687,53.3475 46.505,53.5858 46.8933,53.7575C 47.2816,53.9292 47.705,54.015 48.1633,54.015C 49.1733,54.015 49.9258,53.6483 50.4208,52.915L 50.4683,52.93C 50.4616,54.0233 50.2187,54.8592 49.7395,55.4375C 49.2604,56.0158 48.5966,56.305 47.7483,56.305C 46.92,56.305 46.2116,56.1125 45.6233,55.7275L 45.6233,57.7575C 46.285,58.0492 47.0741,58.195 47.9908,58.195C 48.7558,58.195 49.4404,58.0504 50.0445,57.7612C 50.6487,57.4721 51.1604,57.0567 51.5795,56.515C 51.9987,55.9733 52.3179,55.3108 52.537,54.5275C 52.7562,53.7442 52.8658,52.855 52.8658,51.86 Z M 50.3733,50.5475L 50.2683,51.1875L 49.972,51.7037L 49.5145,52.0512C 49.337,52.1371 49.1391,52.18 48.9208,52.18C 48.6908,52.18 48.482,52.1396 48.2945,52.0587C 48.107,51.9779 47.947,51.8592 47.8145,51.7025C 47.682,51.5458 47.5791,51.3546 47.5058,51.1287L 47.3958,50.3525L 47.5058,49.6087L 47.8108,49.0187C 47.9408,48.8546 48.0958,48.7258 48.2758,48.6325C 48.4558,48.5392 48.6525,48.4925 48.8658,48.4925C 49.0891,48.4925 49.2945,48.5458 49.482,48.6525C 49.6695,48.7592 49.8287,48.9037 49.9595,49.0862L 50.2645,49.7387L 50.3733,50.5475 Z "/>
</svg>
