<?xml version="1.0" encoding="utf-8"?>
<!DOCTYPE svg PUBLIC "-//W3C//DTD SVG 1.1//EN" "http://www.w3.org/Graphics/SVG/1.1/DTD/svg11.dtd">
<svg xmlns="http://www.w3.org/2000/svg" xmlns:xlink="http://www.w3.org/1999/xlink" version="1.1" baseProfile="full" width="76" height="76" viewBox="0 0 76.00 76.00" enable-background="new 0 0 76.00 76.00" xml:space="preserve">
	<path fill="#000000" fill-opacity="1" stroke-width="0.2" stroke-linejoin="round" d="M 19,17.4167L 57,17.4167L 57,55.4167L 19,55.4167L 19,17.4167 Z M 26.9166,22.1667L 26.9166,34.8334L 49.0833,34.8334L 49.0833,22.1667L 26.9166,22.1667 Z M 26.9166,38.0001L 26.9166,50.6667L 49.0833,50.6667L 49.0833,38.0001L 26.9166,38.0001 Z M 22.9583,20.5834C 21.6466,20.5834 20.5833,21.6467 20.5833,22.9584C 20.5833,24.2701 21.6466,25.3334 22.9583,25.3334C 24.27,25.3334 25.3333,24.2701 25.3333,22.9584C 25.3333,21.6467 24.27,20.5834 22.9583,20.5834 Z M 22.9583,47.5C 21.6466,47.5 20.5833,48.5634 20.5833,49.875C 20.5833,51.1867 21.6466,52.25 22.9583,52.25C 24.27,52.25 25.3333,51.1867 25.3333,49.875C 25.3333,48.5634 24.27,47.5 22.9583,47.5 Z M 22.9583,40.7709C 21.6466,40.7709 20.5833,41.8342 20.5833,43.1459C 20.5833,44.4575 21.6466,45.5209 22.9583,45.5209C 24.27,45.5209 25.3333,44.4575 25.3333,43.1459C 25.3333,41.8342 24.27,40.7709 22.9583,40.7709 Z M 22.9583,34.0417C 21.6466,34.0417 20.5833,35.105 20.5833,36.4167C 20.5833,37.7284 21.6466,38.7917 22.9583,38.7917C 24.27,38.7917 25.3333,37.7284 25.3333,36.4167C 25.3333,35.105 24.27,34.0417 22.9583,34.0417 Z M 22.9583,27.3125C 21.6466,27.3125 20.5833,28.3759 20.5833,29.6875C 20.5833,30.9992 21.6466,32.0625 22.9583,32.0625C 24.27,32.0625 25.3333,30.9992 25.3333,29.6875C 25.3333,28.3759 24.27,27.3125 22.9583,27.3125 Z M 53.0416,20.5834C 51.7299,20.5834 50.6666,21.6467 50.6666,22.9584C 50.6666,24.2701 51.7299,25.3334 53.0416,25.3334C 54.3533,25.3334 55.4166,24.2701 55.4166,22.9584C 55.4166,21.6467 54.3533,20.5834 53.0416,20.5834 Z M 53.0416,47.5C 51.73,47.5 50.6666,48.5633 50.6666,49.875C 50.6666,51.1867 51.73,52.25 53.0416,52.25C 54.3533,52.25 55.4166,51.1867 55.4166,49.875C 55.4166,48.5633 54.3533,47.5 53.0416,47.5 Z M 53.0416,40.7709C 51.73,40.7709 50.6666,41.8342 50.6666,43.1458C 50.6666,44.4575 51.73,45.5208 53.0416,45.5208C 54.3533,45.5208 55.4166,44.4575 55.4166,43.1458C 55.4166,41.8342 54.3533,40.7709 53.0416,40.7709 Z M 53.0416,34.0417C 51.73,34.0417 50.6666,35.105 50.6666,36.4167C 50.6666,37.7284 51.73,38.7917 53.0416,38.7917C 54.3533,38.7917 55.4166,37.7284 55.4166,36.4167C 55.4166,35.105 54.3533,34.0417 53.0416,34.0417 Z M 53.0416,27.3125C 51.73,27.3125 50.6666,28.3759 50.6666,29.6875C 50.6666,30.9992 51.73,32.0625 53.0416,32.0625C 54.3533,32.0625 55.4166,30.9992 55.4166,29.6875C 55.4166,28.3759 54.3533,27.3125 53.0416,27.3125 Z M 47.5,58.5833C 49.2489,58.5833 50.6667,60.0011 50.6667,61.75C 50.6667,63.4989 49.2489,64.9167 47.5,64.9167C 45.7511,64.9167 44.3333,63.4989 44.3333,61.75C 44.3333,60.0011 45.7511,58.5833 47.5,58.5833 Z M 38,58.5833C 39.7489,58.5833 41.1667,60.0011 41.1667,61.75C 41.1667,63.4989 39.7489,64.9167 38,64.9167C 36.2511,64.9167 34.8333,63.4989 34.8333,61.75C 34.8333,60.0011 36.2511,58.5833 38,58.5833 Z M 28.5,58.5833C 30.2489,58.5833 31.6667,60.0011 31.6667,61.75C 31.6667,63.4989 30.2489,64.9167 28.5,64.9167C 26.7511,64.9167 25.3333,63.4989 25.3333,61.75C 25.3333,60.0011 26.7511,58.5833 28.5,58.5833 Z "/>
</svg>
