<?xml version="1.0" encoding="utf-8"?>
<!DOCTYPE svg PUBLIC "-//W3C//DTD SVG 1.1//EN" "http://www.w3.org/Graphics/SVG/1.1/DTD/svg11.dtd">
<svg xmlns="http://www.w3.org/2000/svg" xmlns:xlink="http://www.w3.org/1999/xlink" version="1.1" baseProfile="full" width="76" height="76" viewBox="0 0 76.00 76.00" enable-background="new 0 0 76.00 76.00" xml:space="preserve">
	<path fill="#000000" fill-opacity="1" stroke-width="0.2" stroke-linejoin="round" d="M 38,54.2651C 43.2252,54.2651 48.1316,50.4139 50.2338,45.9886L 25.7662,45.9886C 27.8684,50.4139 32.7748,54.2651 38,54.2651 Z M 54.9656,39.6913C 56.9428,39.6913 58.1863,41.1792 58.5833,43.0379C 57.6384,52.7654 47.9756,61.75 38,61.75C 28.0245,61.75 18.3616,52.7654 17.4167,43.0378C 17.8137,41.1792 19.0572,39.6913 21.1591,39.6928L 21.1591,39.6913L 54.8409,39.6913L 54.9656,39.6913 Z M 26.9167,20.5833C 32.1634,20.5833 36.4167,24.8366 36.4167,30.0833C 36.4167,31.395 35.3533,32.4583 34.0417,32.4583C 32.73,32.4583 31.6667,31.395 31.6667,30.0833C 31.6667,27.46 29.54,25.3333 26.9167,25.3333C 24.2933,25.3333 22.1667,27.46 22.1667,30.0833C 22.1667,31.395 21.1033,32.4583 19.7917,32.4583C 18.48,32.4583 17.4167,31.395 17.4167,30.0833C 17.4167,24.8366 21.67,20.5833 26.9167,20.5833 Z M 49.0833,20.5833C 54.33,20.5833 58.5833,24.8366 58.5833,30.0833C 58.5833,31.395 57.52,32.4583 56.2083,32.4583C 54.8966,32.4583 53.8333,31.395 53.8333,30.0833C 53.8333,27.46 51.7067,25.3333 49.0833,25.3333C 46.46,25.3333 44.3333,27.46 44.3333,30.0833C 44.3333,31.395 43.27,32.4583 41.9583,32.4583C 40.6466,32.4583 39.5833,31.395 39.5833,30.0833C 39.5833,24.8366 43.8366,20.5833 49.0833,20.5833 Z "/>
</svg>
