<?xml version="1.0" encoding="utf-8"?>
<!DOCTYPE svg PUBLIC "-//W3C//DTD SVG 1.1//EN" "http://www.w3.org/Graphics/SVG/1.1/DTD/svg11.dtd">
<svg xmlns="http://www.w3.org/2000/svg" xmlns:xlink="http://www.w3.org/1999/xlink" version="1.1" baseProfile="full" width="76" height="76" viewBox="0 0 76.00 76.00" enable-background="new 0 0 76.00 76.00" xml:space="preserve">
	<path fill="#000000" fill-opacity="1" stroke-width="0.2" stroke-linejoin="round" d="M 16.2013,39.582L 15.4175,39.4096L 14.8094,38.9315L 14.4029,38.2193L 14.25,37.364L 14.25,34.9055C 14.25,33.184 14.6023,31.6057 15.3069,30.1704C 16.0116,28.7352 16.9698,27.4788 18.1818,26.4013C 19.3937,25.3237 20.8095,24.4424 22.429,23.7573C 24.0486,23.0722 25.7732,22.6277 27.6031,22.4239L 31.304,22.0792L 34.9918,21.8256L 39.109,21.715L 42.966,21.8451L 46.101,22.0987L 48.9628,22.489C 50.7276,22.7318 52.3883,23.199 53.945,23.8906C 55.5017,24.5822 56.8567,25.4625 58.0101,26.5313C 59.1635,27.6002 60.0752,28.8468 60.7451,30.2712C 61.4151,31.6956 61.75,33.2599 61.75,34.964L 61.75,37.4486L 61.5874,38.2681L 61.1386,38.9511L 60.4785,39.4096L 59.6752,39.582L 51.8897,39.582L 51.0994,39.4096L 50.4588,38.9413L 50.0327,38.2584L 49.8799,37.4226L 49.8799,32.1217L 49.7075,31.1656L 49.2295,30.3818L 48.5075,29.8452C 48.23,29.7108 47.9286,29.6436 47.6034,29.6436L 28.7413,29.6436C 28.4161,29.6436 28.0974,29.7108 27.7852,29.8452L 26.9722,30.3818L 26.4128,31.1851C 26.2697,31.4973 26.1982,31.8225 26.1982,32.1607L 26.1982,37.364L 26.0356,38.2193L 25.5803,38.9315L 24.9104,39.4096L 24.1038,39.582L 16.2013,39.582 Z M 34.8333,41.1667L 41.1666,41.1667L 41.1667,52.6458L 45.9167,47.8958L 45.9167,54.2292L 38,62.5417L 30.0833,54.2292L 30.0833,47.8958L 34.8333,52.6458L 34.8333,41.1667 Z "/>
</svg>
