<?xml version="1.0" encoding="utf-8"?>
<!DOCTYPE svg PUBLIC "-//W3C//DTD SVG 1.1//EN" "http://www.w3.org/Graphics/SVG/1.1/DTD/svg11.dtd">
<svg xmlns="http://www.w3.org/2000/svg" xmlns:xlink="http://www.w3.org/1999/xlink" version="1.1" baseProfile="full" width="76" height="76" viewBox="0 0 76.00 76.00" enable-background="new 0 0 76.00 76.00" xml:space="preserve">
	<path fill="#000000" fill-opacity="1" stroke-width="0.2" stroke-linejoin="round" d="M 19,47.5L 22.1667,47.5L 22.1667,52.25L 53.8333,52.25L 53.8333,47.5L 57,47.5L 57,55.4167L 19,55.4167L 19,47.5 Z M 40.0922,38.612L 40.7425,42.1442C 40.3311,42.348 39.6833,42.5389 38.7991,42.7168C 37.9148,42.8948 36.868,42.9896 35.6586,43.0013C 32.2164,42.9376 29.6239,41.9894 27.8812,40.1566C 26.1384,38.3239 25.2654,35.9889 25.2621,33.1518C 25.3369,29.8092 26.3898,27.2364 28.4209,25.4333C 30.4519,23.6303 33.0123,22.7187 36.102,22.6984C 37.2781,22.7086 38.288,22.8007 39.1316,22.9745C 39.9752,23.1483 40.6008,23.3426 41.0085,23.5574L 40.0626,27.1716L 38.4481,26.6691C 37.8157,26.5285 37.0927,26.4549 36.2793,26.4483C 34.464,26.4459 32.9664,26.9781 31.7866,28.045C 30.6068,29.1118 29.9959,30.7274 29.954,32.8918C 29.9694,34.8629 30.5298,36.4097 31.6351,37.5322C 32.7404,38.6547 34.2983,39.2265 36.3088,39.2476L 38.3779,39.0706L 40.0922,38.612 Z M 47.1436,22.6707C 48.4687,22.7043 49.5262,23.1234 50.3158,23.928C 51.1054,24.7326 51.51,25.7215 51.5296,26.8945C 51.4931,28.1725 51.0497,29.2047 50.1995,29.9911C 49.3492,30.7776 48.3113,31.1822 47.0856,31.2049C 45.786,31.1749 44.7359,30.7631 43.9354,29.9693C 43.1349,29.1755 42.723,28.1794 42.6999,26.9811C 42.7162,25.7538 43.1413,24.7361 43.9752,23.9279C 44.8091,23.1197 45.8652,22.7006 47.1436,22.6707 Z M 47.0856,24.7026C 46.4545,24.7219 45.9556,24.9502 45.589,25.3876C 45.2224,25.825 45.0352,26.3562 45.0274,26.9811C 45.04,27.6149 45.2393,28.1353 45.6252,28.542C 46.0112,28.9488 46.5076,29.1591 47.1146,29.1729C 47.7342,29.1597 48.2343,28.9482 48.6149,28.5384C 48.9955,28.1287 49.1912,27.5999 49.2021,26.9522C 49.2009,26.3538 49.022,25.8347 48.6656,25.3948C 48.3092,24.955 47.7825,24.7243 47.0856,24.7026 Z "/>
</svg>
