<?xml version="1.0" encoding="utf-8"?>
<!DOCTYPE svg PUBLIC "-//W3C//DTD SVG 1.1//EN" "http://www.w3.org/Graphics/SVG/1.1/DTD/svg11.dtd">
<svg xmlns="http://www.w3.org/2000/svg" xmlns:xlink="http://www.w3.org/1999/xlink" version="1.1" baseProfile="full" width="76" height="76" viewBox="0 0 76.00 76.00" enable-background="new 0 0 76.00 76.00" xml:space="preserve">
	<path fill="#000000" fill-opacity="1" stroke-width="0.2" stroke-linejoin="round" d="M 58.7267,39.2667L 52.9,50.6944L 52.9,57L 48.8467,57L 48.8467,50.7656L 43.2733,39.2667L 47.8373,39.2667L 50.6754,45.881L 51.0792,47.3298L 51.1306,47.3298C 51.2388,46.736 51.3694,46.2703 51.5225,45.9325L 54.4952,39.2667L 58.7267,39.2667 Z M 45.3,52L 37.6875,52L 32.7813,42.8813C 32.5979,42.5438 32.4063,41.9188 32.2062,41.0063L 32.125,41.0063C 32.0333,41.4354 31.8146,42.0875 31.4688,42.9625L 26.5438,52L 18.9,52L 27.975,38L 19.7,24L 27.4937,24L 31.5563,32.3938C 31.8729,33.0604 32.1563,33.8479 32.4063,34.7563L 32.4875,34.7563L 33.3688,32.3188L 37.8438,24L 44.9,24L 36.5188,37.8813L 45.3,52 Z "/>
</svg>
