<?xml version="1.0" encoding="utf-8"?>
<!DOCTYPE svg PUBLIC "-//W3C//DTD SVG 1.1//EN" "http://www.w3.org/Graphics/SVG/1.1/DTD/svg11.dtd">
<svg xmlns="http://www.w3.org/2000/svg" xmlns:xlink="http://www.w3.org/1999/xlink" version="1.1" baseProfile="full" width="76" height="76" viewBox="0 0 76.00 76.00" enable-background="new 0 0 76.00 76.00" xml:space="preserve">
	<path fill="#000000" fill-opacity="1" stroke-width="0.2" stroke-linejoin="round" d="M 42.3542,33.6458L 38,29.2917L 33.6458,33.6458L 31.2708,31.2708L 35.625,26.9167L 31.2708,22.5625L 33.6458,20.1875L 38,24.5417L 42.3542,20.1875L 44.7292,22.5625L 40.375,26.9167L 44.7292,31.2708L 42.3542,33.6458 Z M 33.25,44.3333L 42.75,44.3333L 42.75,41.1667L 33.25,41.1667L 33.25,44.3333 Z M 45.9166,44.3333L 55.4166,44.3333L 55.4166,41.1667L 45.9166,41.1667L 45.9166,44.3333 Z M 20.5833,41.1667L 20.5833,44.3334L 30.0833,44.3334L 30.0833,41.1667L 20.5833,41.1667 Z M 17.4166,38L 60.1667,38L 60.1667,41.1667L 58.5833,41.1667L 58.5833,44.3333L 60.1667,44.3333L 60.1667,47.5L 58.5833,47.5L 58.5833,50.6667L 60.1667,50.6667L 60.1667,53.8333L 58.5833,53.8334L 58.5833,55.4167L 55.4167,55.4167L 55.4167,53.8333L 45.9166,53.8333L 45.9166,55.4167L 42.75,55.4167L 42.75,53.8333L 33.25,53.8333L 33.25,55.4167L 30.0833,55.4167L 30.0833,53.8333L 20.5833,53.8333L 20.5833,55.4167L 17.4167,55.4167L 17.4166,38 Z M 20.5833,47.5L 20.5833,50.6667L 30.0833,50.6667L 30.0833,47.5L 20.5833,47.5 Z M 33.25,47.5L 33.25,50.6667L 42.7499,50.6667L 42.7499,47.5L 33.25,47.5 Z M 45.9166,47.5L 45.9166,50.6667L 55.4166,50.6667L 55.4166,47.5L 45.9166,47.5 Z "/>
</svg>
