<?xml version="1.0" encoding="utf-8"?>
<!DOCTYPE svg PUBLIC "-//W3C//DTD SVG 1.1//EN" "http://www.w3.org/Graphics/SVG/1.1/DTD/svg11.dtd">
<svg xmlns="http://www.w3.org/2000/svg" xmlns:xlink="http://www.w3.org/1999/xlink" version="1.1" baseProfile="full" width="76" height="76" viewBox="0 0 76.00 76.00" enable-background="new 0 0 76.00 76.00" xml:space="preserve">
	<path fill="#000000" fill-opacity="1" stroke-width="0.2" stroke-linejoin="round" d="M 33.25,25.3333L 58.5834,25.3333L 58.5834,30.0833L 33.25,30.0833L 33.25,25.3333 Z M 36.4166,33.25L 58.5833,33.25L 58.5833,38L 36.4166,38L 36.4166,33.25 Z M 36.4166,41.1667L 58.5833,41.1667L 58.5833,45.9167L 36.4166,45.9167L 36.4166,41.1667 Z M 33.25,49.0833L 58.5833,49.0833L 58.5833,53.8333L 33.25,53.8333L 33.25,49.0833 Z M 25.3333,30.0833C 22.71,30.0833 20.5833,32.21 20.5833,34.8333L 20.5833,36.4167C 20.5833,39.04 22.71,41.1667 25.3333,41.1667L 26.9167,41.1667L 26.9166,36.4167L 34.0416,43.5417L 26.9166,50.6667L 26.9167,45.9167L 25.3333,45.9167C 20.0866,45.9167 15.8333,41.6634 15.8333,36.4167L 15.8333,34.8333C 15.8333,29.5866 20.0866,25.3333 25.3333,25.3333L 26.9167,25.3333L 26.9167,30.0833L 25.3333,30.0833 Z "/>
</svg>
