<?xml version="1.0" encoding="utf-8"?>
<!DOCTYPE svg PUBLIC "-//W3C//DTD SVG 1.1//EN" "http://www.w3.org/Graphics/SVG/1.1/DTD/svg11.dtd">
<svg xmlns="http://www.w3.org/2000/svg" xmlns:xlink="http://www.w3.org/1999/xlink" version="1.1" baseProfile="full" width="76" height="76" viewBox="0 0 76.00 76.00" enable-background="new 0 0 76.00 76.00" xml:space="preserve">
	<path fill="#000000" fill-opacity="1" stroke-width="0.2" stroke-linejoin="round" d="M 26.9167,22.1667L 30.0833,22.1667C 30.9578,22.1667 31.6667,22.8756 31.6667,23.75L 31.6667,26.9167C 31.6667,27.7911 30.9578,28.5 30.0833,28.5L 26.9167,28.5C 26.0422,28.5 25.3333,27.7911 25.3333,26.9167L 25.3333,23.75C 25.3333,22.8756 26.0422,22.1667 26.9167,22.1667 Z M 36.4166,22.1667L 39.5833,22.1667C 40.4577,22.1667 41.1666,22.8756 41.1666,23.7501L 41.1666,26.9167C 41.1666,27.7912 40.4577,28.5001 39.5833,28.5001L 36.4166,28.5001C 35.5422,28.5001 34.8333,27.7912 34.8333,26.9167L 34.8333,23.7501C 34.8333,22.8756 35.5422,22.1667 36.4166,22.1667 Z M 26.9167,31.6667L 30.0833,31.6667C 30.9578,31.6667 31.6667,32.3756 31.6667,33.25L 31.6667,36.4167C 31.6667,37.2911 30.9578,38 30.0833,38L 26.9167,38C 26.0422,38 25.3333,37.2911 25.3333,36.4167L 25.3333,33.25C 25.3333,32.3756 26.0422,31.6667 26.9167,31.6667 Z M 26.9167,41.1667L 30.0833,41.1667C 30.9578,41.1667 31.6667,41.8756 31.6667,42.75L 31.6667,45.9167C 31.6667,46.7911 30.9578,47.5 30.0833,47.5L 26.9167,47.5C 26.0422,47.5 25.3333,46.7911 25.3333,45.9167L 25.3333,42.75C 25.3333,41.8756 26.0422,41.1667 26.9167,41.1667 Z M 36.4166,31.6667L 39.5833,31.6667C 40.4578,31.6667 41.1666,32.3756 41.1666,33.25L 41.1666,36.4167C 41.1666,37.2911 40.4578,38 39.5833,38L 36.4166,38C 35.5422,38 34.8333,37.2911 34.8333,36.4167L 34.8333,33.25C 34.8333,32.3756 35.5422,31.6667 36.4166,31.6667 Z M 36.4166,41.1667L 39.5833,41.1667C 40.4578,41.1667 41.1666,41.8756 41.1666,42.75L 41.1666,45.9167C 41.1666,46.7911 40.4578,47.5 39.5833,47.5L 36.4166,47.5C 35.5422,47.5 34.8333,46.7911 34.8333,45.9167L 34.8333,42.75C 34.8333,41.8756 35.5422,41.1667 36.4166,41.1667 Z M 45.9166,22.1667L 49.0833,22.1667C 49.9578,22.1667 50.6666,22.8756 50.6666,23.75L 50.6666,26.9167C 50.6666,27.7912 49.9578,28.5 49.0833,28.5L 45.9166,28.5C 45.0422,28.5 44.3333,27.7912 44.3333,26.9167L 44.3333,23.75C 44.3333,22.8756 45.0422,22.1667 45.9166,22.1667 Z M 45.9167,31.6667L 49.0833,31.6667C 49.9578,31.6667 50.6667,32.3756 50.6667,33.25L 50.6667,36.4167C 50.6667,37.2911 49.9578,38 49.0833,38L 45.9167,38C 45.0422,38 44.3333,37.2911 44.3333,36.4167L 44.3333,33.25C 44.3333,32.3756 45.0422,31.6667 45.9167,31.6667 Z M 45.9167,41.1667L 49.0833,41.1667C 49.9578,41.1667 50.6667,41.8756 50.6667,42.75L 50.6667,45.9167C 50.6667,46.7911 49.9578,47.5 49.0833,47.5L 45.9167,47.5C 45.0422,47.5 44.3333,46.7911 44.3333,45.9167L 44.3333,42.75C 44.3333,41.8756 45.0422,41.1667 45.9167,41.1667 Z M 36.4167,50.6667L 39.5833,50.6667C 40.4578,50.6667 41.1667,51.3755 41.1667,52.25L 41.1667,55.4167C 41.1667,56.2911 40.4578,57 39.5833,57L 36.4167,57C 35.5422,57 34.8333,56.2911 34.8333,55.4167L 34.8333,52.25C 34.8333,51.3755 35.5422,50.6667 36.4167,50.6667 Z "/>
</svg>
