<?xml version="1.0" encoding="utf-8"?>
<!DOCTYPE svg PUBLIC "-//W3C//DTD SVG 1.1//EN" "http://www.w3.org/Graphics/SVG/1.1/DTD/svg11.dtd">
<svg xmlns="http://www.w3.org/2000/svg" xmlns:xlink="http://www.w3.org/1999/xlink" version="1.1" baseProfile="full" width="76" height="76" viewBox="0 0 76.00 76.00" enable-background="new 0 0 76.00 76.00" xml:space="preserve">
	<path fill="#000000" fill-opacity="1" stroke-width="0.2" stroke-linejoin="round" d="M 17.4167,17.4167L 33.25,17.4167L 33.25,33.25L 17.4167,33.25L 17.4167,17.4167 Z M 42.75,42.75L 58.5833,42.75L 58.5833,58.5833L 42.75,58.5833L 42.75,42.75 Z M 50.6666,25.3334L 50.6666,41.1667L 41.1667,41.1667L 41.1667,50.6667L 25.3333,50.6667L 25.3333,34.8333L 34.8333,34.8333L 34.8333,25.3334L 50.6666,25.3334 Z M 45.9167,45.9167L 45.9167,55.4167L 55.4167,55.4167L 55.4167,45.9167L 45.9167,45.9167 Z M 20.5833,20.5833L 20.5833,30.0833L 30.0833,30.0833L 30.0833,20.5833L 20.5833,20.5833 Z "/>
</svg>
