<?xml version="1.0" encoding="utf-8"?>
<!DOCTYPE svg PUBLIC "-//W3C//DTD SVG 1.1//EN" "http://www.w3.org/Graphics/SVG/1.1/DTD/svg11.dtd">
<svg xmlns="http://www.w3.org/2000/svg" xmlns:xlink="http://www.w3.org/1999/xlink" version="1.1" baseProfile="full" width="76.0106" height="76.0106" viewBox="0 0 76.01 76.01" enable-background="new 0 0 76.01 76.01" xml:space="preserve">
	<path fill="#000000" fill-opacity="1" stroke-width="0.2" stroke-linejoin="round" d="M 24.0033,56.0078L 24.0033,38.0053L 21.753,39.7556L 18.5026,34.8799L 38.0053,20.2528L 46.0064,26.2536L 46.0064,21.7531L 50.007,21.0029L 50.007,29.0041L 57.508,34.8799L 54.2576,39.7556L 52.0072,38.0053L 52.0072,56.0078L 24.0033,56.0078 Z M 37.9679,32.6047C 35.4822,32.6047 33.4672,34.9555 33.4672,37.8554C 33.4672,40.7553 35.4822,43.1062 37.9679,43.1062C 40.4535,43.1062 42.4685,40.7553 42.4685,37.8554C 42.4685,34.9555 40.4535,32.6047 37.9679,32.6047 Z M 29.004,53.0076L 47.0065,53.0076C 47.0065,53.0076 46.7065,46.4066 45.5063,44.6064C 44.4406,43.0078 42.806,42.8061 42.2059,42.8061C 41.6058,42.8061 39.5055,44.9064 38.0053,44.9064C 36.5051,44.9064 34.1798,42.8061 33.5797,42.8061C 32.9796,42.8061 29.004,42.5061 29.004,53.0076 Z M 60.9234,11.5516C 62.1841,12.6448 63.3658,13.8265 64.459,15.0872L 51.0071,28.539L 51.0071,21.468L 60.9234,11.5516 Z M 15.0872,64.459C 13.8265,63.3659 12.6448,62.1841 11.5516,60.9235L 23.0032,49.4719L 23.0032,56.543L 15.0872,64.459 Z "/>
</svg>
