<?xml version="1.0" encoding="utf-8"?>
<!DOCTYPE svg PUBLIC "-//W3C//DTD SVG 1.1//EN" "http://www.w3.org/Graphics/SVG/1.1/DTD/svg11.dtd">
<svg xmlns="http://www.w3.org/2000/svg" xmlns:xlink="http://www.w3.org/1999/xlink" version="1.1" baseProfile="full" width="76" height="76" viewBox="0 0 76.00 76.00" enable-background="new 0 0 76.00 76.00" xml:space="preserve">
	<path fill="#000000" fill-opacity="1" stroke-linejoin="round" d="M 19.3919,37.5442C 19.6211,31.4744 22.697,25.8757 28.3209,22.1759C 28.3375,22.1822 28.4831,22.1291 28.4166,22.255C 27.9707,22.668 19.9618,32.1286 27.3341,39.5966C 27.3341,39.5966 31.2074,43.3197 34.2103,39.7866C 34.2103,39.7866 37.1747,35.9499 34.173,30.134C 34.173,30.134 33.4135,28.2344 30.6765,27.057L 32.8808,24.6247C 32.8808,24.6247 34.7436,25.424 36.1859,27.5916C 36.1859,27.5916 36.2626,25.3093 34.5143,22.8771L 37.9323,19L 41.3153,22.8411C 41.3153,22.8411 39.7596,25.0452 39.645,27.6276C 39.645,27.6276 40.7072,25.8795 42.9887,24.6247L 45.1531,27.057C 45.1531,27.057 43.0717,27.7423 41.6775,30.1087C 40.4786,32.3015 39.5556,36.9906 41.7314,39.867C 41.7314,39.867 44.1662,43.3197 48.45,39.663C 48.45,39.663 56.3257,32.6062 47.6423,22.4039C 47.6423,22.4039 47.168,21.9846 47.7007,22.2127C 51.5385,25.0066 56.1339,28.6918 56.6082,37.8876C 56.4214,49.0393 48.9535,57 38.0487,57C 27.3715,57 19.0713,48.0899 19.3919,37.5442 Z "/>
</svg>
