<?xml version="1.0" encoding="utf-8"?>
<!DOCTYPE svg PUBLIC "-//W3C//DTD SVG 1.1//EN" "http://www.w3.org/Graphics/SVG/1.1/DTD/svg11.dtd">
<svg xmlns="http://www.w3.org/2000/svg" xmlns:xlink="http://www.w3.org/1999/xlink" version="1.1" baseProfile="full" width="76" height="76" viewBox="0 0 76.00 76.00" enable-background="new 0 0 76.00 76.00" xml:space="preserve">
	<path fill="#000000" fill-opacity="1" stroke-width="0.2" stroke-linejoin="round" d="M 22,19L 24,19L 24,57L 22,57L 22,19 Z M 26,57L 26,19.0001L 53.9999,19.0001L 53.9999,57L 26,57 Z M 30,24L 30,27L 50,27L 50,24L 30,24 Z M 30,32L 30,35L 33,35L 33,32L 30,32 Z M 36,32L 36,35L 49,35L 49,32L 36,32 Z M 30,40L 30,43L 33,43L 33,40L 30,40 Z M 36,40L 36,43L 48,43L 48,40L 36,40 Z M 30,48L 30,51L 33,51L 33,48L 30,48 Z M 36,48L 36,51L 50,51L 50,48L 36,48 Z "/>
</svg>
