<?xml version="1.0" encoding="utf-8"?>
<!DOCTYPE svg PUBLIC "-//W3C//DTD SVG 1.1//EN" "http://www.w3.org/Graphics/SVG/1.1/DTD/svg11.dtd">
<svg xmlns="http://www.w3.org/2000/svg" xmlns:xlink="http://www.w3.org/1999/xlink" version="1.1" baseProfile="full" width="76" height="76" viewBox="0 0 76.00 76.00" enable-background="new 0 0 76.00 76.00" xml:space="preserve">
	<path fill="#000000" fill-opacity="1" stroke-width="0.2" stroke-linejoin="round" d="M 42.75,19L 42.75,31.4977C 44.5834,31.378 48.9184,32.7881 48.2917,49.0833C 49.0833,53.8333 54.625,53.8333 55.8125,47.5C 57,42.75 53.8333,42.75 52.25,28.5C 52.25,26.9167 52.25,22.1667 45.9167,19L 45.9167,17.4167C 52.25,17.4167 57,25.3333 57,26.9167C 57,28.5 55.4167,28.5 55.4167,28.5C 55.4167,28.5 55.8125,38 57.3958,39.5833C 58.9792,41.1667 58.5833,45.9167 58.5833,49.0833C 58.5833,52.25 53.8333,55.4167 52.25,55.4167C 50.6667,55.4167 45.9167,55.4167 45.9167,50.6667C 45.9167,46.3403 45.2599,36.7598 42.75,35.0854L 42.75,55.4167C 43.6244,55.4167 44.3333,56.1255 44.3333,57L 44.3333,60.1667L 19,60.1667L 19,57C 19,56.1255 19.7089,55.4167 20.5833,55.4167L 20.5833,19C 20.5833,17.2511 22.0011,15.8333 23.75,15.8333L 39.5833,15.8333C 41.3322,15.8333 42.75,17.2511 42.75,19 Z M 25.7291,33.2501L 37.6041,33.25C 38.4786,33.25 39.5833,32.1453 39.5833,31.2709L 39.5833,20.9792C 39.5833,20.1048 38.4786,19 37.6041,19L 25.7292,19C 24.8547,19 23.75,20.1048 23.75,20.9792L 23.75,31.2709C 23.75,32.1453 24.8547,33.2501 25.7291,33.2501 Z "/>
</svg>
