<?xml version="1.0" encoding="utf-8"?>
<!DOCTYPE svg PUBLIC "-//W3C//DTD SVG 1.1//EN" "http://www.w3.org/Graphics/SVG/1.1/DTD/svg11.dtd">
<svg xmlns="http://www.w3.org/2000/svg" xmlns:xlink="http://www.w3.org/1999/xlink" version="1.1" baseProfile="full" width="76" height="76" viewBox="0 0 76.00 76.00" enable-background="new 0 0 76.00 76.00" xml:space="preserve">
	<path fill="#000000" fill-opacity="1" stroke-width="0.2" stroke-linejoin="round" d="M 36.8125,14.4232C 36.8125,20.7565 34.0416,26.694 34.0416,25.1107C 34.0416,23.5274 30.875,29.8607 29.2916,33.0274C 27.7083,36.194 26.125,40.5482 26.125,40.5482L 19.7917,40.1524C 19.7917,40.1524 18.2083,54.0065 21.375,55.5899C 24.5417,57.1732 27.8391,54.9558 30.875,56.7774C 38.7916,61.5274 51.4583,58.3607 49.875,55.194C 49.875,55.194 56.2083,52.0274 54.625,50.444C 54.625,50.444 56.2083,48.069 54.2292,45.694C 56.2083,43.319 55.4167,40.944 54.2292,39.3607C 55.4167,36.9857 56.2083,34.6107 51.4583,33.0274C 48.4542,32.026 40.375,35.7982 40.375,31.444C 40.375,29.8607 43.5416,25.1107 43.5416,21.944C 43.5416,15.6107 36.8125,14.4232 36.8125,14.4232 Z "/>
</svg>
