<?xml version="1.0" encoding="utf-8"?>
<!DOCTYPE svg PUBLIC "-//W3C//DTD SVG 1.1//EN" "http://www.w3.org/Graphics/SVG/1.1/DTD/svg11.dtd">
<svg xmlns="http://www.w3.org/2000/svg" xmlns:xlink="http://www.w3.org/1999/xlink" version="1.1" baseProfile="full" width="76" height="76" viewBox="0 0 76.00 76.00" enable-background="new 0 0 76.00 76.00" xml:space="preserve">
	<path fill="#000000" fill-opacity="1" stroke-width="0.2" stroke-linejoin="round" d="M 28.5,60.1667C 28.5,55.1053 33.1602,52.0664 35.1911,47.8174C 32.9352,44.7868 30.0833,41.1667 37.7482,29.0917C 38,24.5417 36.1473,26.9167 34.8333,26.9167C 31.6667,26.9167 26.9167,28.5 26.9167,28.5C 25.3333,28.5 23.75,26.5209 23.75,24.9375C 23.75,23.3542 28.5,23.75 30.0833,22.1667C 31.6667,20.5833 36.4167,15.8333 39.5833,15.8333C 41.1667,15.8333 39.5833,19 41.1667,19C 42.6006,19 50.5278,31.9865 47.3064,43.846C 47.6479,44.4781 47.7461,45.1783 47.5,45.9167C 45.9167,50.6667 50.6667,52.25 53.8333,60.1667L 28.5,60.1667 Z "/>
</svg>
