<?xml version="1.0" encoding="utf-8"?>
<!DOCTYPE svg PUBLIC "-//W3C//DTD SVG 1.1//EN" "http://www.w3.org/Graphics/SVG/1.1/DTD/svg11.dtd">
<svg xmlns="http://www.w3.org/2000/svg" xmlns:xlink="http://www.w3.org/1999/xlink" version="1.1" baseProfile="full" width="76" height="76" viewBox="0 0 76.00 76.00" enable-background="new 0 0 76.00 76.00" xml:space="preserve">
	<path fill="#000000" fill-opacity="1" stroke-width="0.2" stroke-linejoin="round" d="M 38,15.8333C 40.1861,15.8333 41.9583,17.6055 41.9583,19.7917L 41.8791,20.5834L 53.8333,20.5834L 53.8333,57L 22.1667,57L 22.1667,20.5834L 34.1208,20.5834L 34.0417,19.7917C 34.0417,17.6055 35.8139,15.8333 38,15.8333 Z M 38,18.2083C 37.1255,18.2083 36.4167,18.9172 36.4167,19.7917C 36.4167,20.0801 36.4938,20.3505 36.6285,20.5834L 39.3715,20.5834C 39.5062,20.3505 39.5833,20.0801 39.5833,19.7917C 39.5833,18.9172 38.8744,18.2083 38,18.2083 Z M 25.3333,23.75L 25.3333,53.8333L 50.6667,53.8333L 50.6667,23.75L 45.125,23.75L 47.5,28.5L 28.5,28.5L 30.875,23.75L 25.3333,23.75 Z "/>
</svg>
