<?xml version="1.0" encoding="utf-8"?>
<!DOCTYPE svg PUBLIC "-//W3C//DTD SVG 1.1//EN" "http://www.w3.org/Graphics/SVG/1.1/DTD/svg11.dtd">
<svg xmlns="http://www.w3.org/2000/svg" xmlns:xlink="http://www.w3.org/1999/xlink" version="1.1" baseProfile="full" width="76" height="76" viewBox="0 0 76.00 76.00" enable-background="new 0 0 76.00 76.00" xml:space="preserve">
	<path fill="#000000" fill-opacity="1" stroke-linejoin="round" d="M 49,57.25L 21,51.75L 21,30.75L 49,25L 55,27L 55,55L 49,57.25 Z M 27,35.5L 27,40L 33,40L 33,34.6L 27,35.5 Z M 33,47.15L 33,41L 27,41L 27,46.25L 33,47.15 Z M 42,33.25L 34,34.45L 34,40L 42,40L 42,33.25 Z M 42,48.5L 42,41L 34,41L 34,47.3L 42,48.5 Z M 41,20.1563C 42.6568,19.6903 45,20.4057 45,22.0625L 44.9999,24.8215L 42.9999,25.2857L 42.9999,23.5938C 42.9999,22.4893 42.1045,21.8457 41,22.1563L 39.9995,22.469L 40.0001,25.8929L 38.0001,26.3571L 37.9995,23.2502C 36.8952,23.561 36,23.7082 36,24.8126L 36,26.7857L 34,27.25L 34,24.3438C 34,22.6872 36.3428,21.7164 37.9994,21.2502L 37.9992,20.7758C 37.9991,19.6713 37.1035,18.9693 35.9989,19.2077L 32.9989,19.9464C 31.8943,20.1849 30.999,21.2736 30.9991,22.3782L 31,27.8215L 29,28.2857L 28.9992,21.844C 28.9989,20.1872 30.3419,18.5541 31.9987,18.1964L 36.9988,17.2078C 38.6556,16.85 39.999,17.9031 39.9992,19.5599L 39.9994,20.469L 41,20.1563 Z "/>
</svg>
