<?xml version="1.0" encoding="utf-8"?>
<!DOCTYPE svg PUBLIC "-//W3C//DTD SVG 1.1//EN" "http://www.w3.org/Graphics/SVG/1.1/DTD/svg11.dtd">
<svg xmlns="http://www.w3.org/2000/svg" xmlns:xlink="http://www.w3.org/1999/xlink" version="1.1" baseProfile="full" width="76" height="76" viewBox="0 0 76.00 76.00" enable-background="new 0 0 76.00 76.00" xml:space="preserve">
	<path fill="#000000" fill-opacity="1" stroke-linejoin="round" d="M 17,20L 59,20L 59,56L 17,56L 17,20 Z M 20,23L 20,53L 56,53L 56,23L 20,23 Z M 33.5,30.2058C 37.2227,28.0565 40.6338,27.4206 43.4789,27.4897L 49.8416,38.5103C 48.4789,41.0088 46.2227,43.6449 42.5,45.7943C 38.7773,47.9435 35.3662,48.5794 32.5211,48.5103L 26.1584,37.4897C 27.5211,34.9913 29.7773,32.3551 33.5,30.2058 Z M 51.8564,30C 51.8564,30 52.1497,32.7729 50.8586,36.2718L 45.926,27.7283C 49.6016,28.3596 51.8564,30 51.8564,30 Z M 24.1436,46C 24.1436,46 23.8503,43.2271 25.1414,39.7283L 30.074,48.2718C 26.3984,47.6405 24.1436,46 24.1436,46 Z M 32.9378,43.2321L 33.8038,42.7321L 33.0538,41.433L 34.7859,40.4331L 35.5359,41.7321L 36.4019,41.2321L 35.6519,39.9331L 37.384,38.933L 38.1339,40.2321L 39,39.7321L 38.25,38.433L 39.982,37.433L 40.732,38.7321L 41.5981,38.2321L 40.8481,36.933L 42.5801,35.9331L 43.3301,37.2321L 44.1961,36.7321L 42.1961,33.268L 41.3301,33.768L 42.0801,35.067L 40.3481,36.067L 39.5981,34.768L 38.732,35.268L 39.482,36.567L 37.75,37.567L 37,36.268L 36.1339,36.768L 36.884,38.067L 35.1519,39.067L 34.4019,37.768L 33.5359,38.268L 34.2859,39.567L 32.5538,40.567L 31.8038,39.268L 30.9378,39.768L 32.9378,43.2321 Z "/>
</svg>
