<?xml version="1.0" encoding="utf-8"?>
<!DOCTYPE svg PUBLIC "-//W3C//DTD SVG 1.1//EN" "http://www.w3.org/Graphics/SVG/1.1/DTD/svg11.dtd">
<svg xmlns="http://www.w3.org/2000/svg" xmlns:xlink="http://www.w3.org/1999/xlink" version="1.1" baseProfile="full" width="76" height="76" viewBox="0 0 76.00 76.00" enable-background="new 0 0 76.00 76.00" xml:space="preserve">
	<path fill="#000000" fill-opacity="1" stroke-width="0.2" stroke-linejoin="round" d="M 46.36,58.0806L 46.36,54.7833C 47.6029,55.4589 48.9263,55.7967 50.3302,55.7967C 51.3884,55.7967 52.2157,55.5532 52.8121,55.0664C 53.4085,54.5795 53.7067,53.9204 53.7067,53.0892C 53.7067,51.3475 52.4308,50.4767 49.879,50.4767L 46.8667,50.6983L 46.8667,40.85L 57,40.85L 57,44.1433L 50.1595,44.1433L 50.1595,47.5119L 51.6919,47.4367C 53.5892,47.4367 55.0749,47.9156 56.149,48.8735C 57.223,49.8315 57.76,51.1205 57.76,52.7408C 57.76,54.5326 57.1313,55.9966 55.8739,57.1326C 54.6164,58.2686 52.9124,58.8367 50.7615,58.8367C 49.0174,58.8367 47.5501,58.5846 46.36,58.0806 Z M 34.8333,53.8333C 26.0888,53.8333 19,46.7445 19,38C 19,29.7899 25.2489,23.0392 33.25,22.2448L 33.25,20.5833L 28.5,20.5833L 28.5,15.8333L 41.1667,15.8333L 41.1667,20.5833L 36.4167,20.5833L 36.4167,22.2448C 39.6011,22.561 42.508,23.8207 44.8538,25.7403L 45.9962,24.5979L 43.7571,22.3588L 47.1158,19L 53.8333,25.7175L 50.4746,29.0763L 48.2354,26.8371L 47.093,27.9795C 49.3266,30.709 50.6667,34.198 50.6667,38L 45.125,38L 45.125,39.5834L 42.75,39.5833L 42.75,36.4167L 46.6036,36.4167C 45.8986,31.1249 41.7085,26.9348 36.4166,26.2297L 36.4166,30.0834L 33.25,30.0834L 33.25,26.2297C 27.9581,26.9347 23.768,31.1249 23.0629,36.4167L 26.9166,36.4167L 26.9166,39.5834L 23.0629,39.5834C 23.768,44.8752 27.9581,49.0653 33.25,49.7704L 33.25,45.9167L 36.4166,45.9167L 36.4166,49.7704C 39.6467,49.34 42.4662,47.6113 44.3333,45.1261L 44.3333,50.6678C 41.6871,52.6555 38.3977,53.8333 34.8333,53.8333 Z M 34.8333,34.8334C 36.5822,34.8334 37.9999,36.2512 37.9999,38.0001C 37.9999,39.7489 36.5822,41.1667 34.8333,41.1667L 28.5,45.9167L 31.6666,38.0001C 31.6666,36.2512 33.0844,34.8334 34.8333,34.8334 Z "/>
</svg>
