<?xml version="1.0" encoding="utf-8"?>
<!DOCTYPE svg PUBLIC "-//W3C//DTD SVG 1.1//EN" "http://www.w3.org/Graphics/SVG/1.1/DTD/svg11.dtd">
<svg xmlns="http://www.w3.org/2000/svg" xmlns:xlink="http://www.w3.org/1999/xlink" version="1.1" baseProfile="full" width="76" height="76" viewBox="0 0 76.00 76.00" enable-background="new 0 0 76.00 76.00" xml:space="preserve">
	<path fill="#000000" fill-opacity="1" stroke-width="0.2" stroke-linejoin="round" d="M 23.4425,49.2637L 31.771,41.1598C 30.6957,39.2983 30.4762,37.1377 30.4762,34.8333C 30.4762,27.8377 35.7514,22.1667 42.7471,22.1667C 49.7427,22.1667 55.4137,27.8377 55.4137,34.8333C 55.4137,41.8289 49.7427,47.1042 42.747,47.1042C 40.561,47.1042 38.5043,46.9462 36.7095,45.9713L 28.3166,54.1379C 27.08,55.3746 24.6791,55.3746 23.4425,54.1379C 22.2058,52.9012 22.2058,50.5004 23.4425,49.2637 Z M 42.747,26.9167C 38.3748,26.9167 34.8304,30.4611 34.8304,34.8333C 34.8304,39.2056 38.3748,42.75 42.747,42.75C 47.1193,42.75 50.6637,39.2056 50.6637,34.8333C 50.6637,30.4611 47.1193,26.9167 42.747,26.9167 Z M 41.1667,30.0833L 44.3333,30.0833L 44.3333,33.25L 47.5,33.25L 47.5,36.4167L 44.3333,36.4167L 44.3333,39.5833L 41.1667,39.5833L 41.1667,36.4167L 38,36.4167L 38,33.25L 41.1667,33.25L 41.1667,30.0833 Z "/>
</svg>
