<?xml version="1.0" encoding="utf-8"?>
<!DOCTYPE svg PUBLIC "-//W3C//DTD SVG 1.1//EN" "http://www.w3.org/Graphics/SVG/1.1/DTD/svg11.dtd">
<svg xmlns="http://www.w3.org/2000/svg" xmlns:xlink="http://www.w3.org/1999/xlink" version="1.1" baseProfile="full" width="76" height="76" viewBox="0 0 76.00 76.00" enable-background="new 0 0 76.00 76.00" xml:space="preserve">
	<path fill="#000000" fill-opacity="1" stroke-width="0.2" stroke-linejoin="round" d="M 51.7259,35.7439C 51.8303,36.4594 51.8846,37.1876 51.8846,37.9285C 51.8846,46.6458 44.5235,53.7131 35.4408,53.7131C 26.3619,53.7131 19,46.6458 19,37.9285C 19,29.2112 26.3619,22.1439 35.4408,22.1439C 37.2221,22.1439 38.937,22.4175 40.5436,22.9226L 40.5466,32.4607C 40.5466,32.4607 35.6471,29.7794 31.2661,32.9279C 26.8847,36.0722 27.7093,39.3722 27.7093,39.3722C 27.7093,39.3722 27.9143,44.5833 34.0964,44.5833C 41.0088,44.5833 42.9669,38.2904 42.9669,38.2904L 42.9669,23.8991C 44.3004,24.5557 45.5396,25.3807 46.7299,26.311C 49.6688,28.1294 52.7222,29.2995 56.2138,29.2112C 56.2138,29.2112 56.883,29.068 56.883,30.3981C 56.883,31.1179 56.6258,31.9429 55.904,32.7216C 55.904,32.7216 54.5301,34.7715 51.7259,35.7439 Z "/>
</svg>
