<?xml version="1.0" encoding="utf-8"?>
<!DOCTYPE svg PUBLIC "-//W3C//DTD SVG 1.1//EN" "http://www.w3.org/Graphics/SVG/1.1/DTD/svg11.dtd">
<svg xmlns="http://www.w3.org/2000/svg" xmlns:xlink="http://www.w3.org/1999/xlink" version="1.1" baseProfile="full" width="76" height="76" viewBox="0 0 76.00 76.00" enable-background="new 0 0 76.00 76.00" xml:space="preserve">
	<path fill="#000000" fill-opacity="1" stroke-width="0.2" stroke-linejoin="round" d="M 22.0179,22.0624L 22.0809,22.1254C 22.0809,22.1254 22.5927,19.9499 32.9798,29.3322L 39.2886,28.1373L 38.8747,27.7233C 38.2563,27.105 38.2563,26.1025 38.8747,25.4841C 39.493,24.8658 40.4955,24.8658 41.1138,25.4841L 43.1149,27.4852L 46.0256,27.0371L 45.8721,26.8836C 45.2537,26.2653 45.2537,25.2628 45.8721,24.6445C 46.4904,24.0261 47.4929,24.0261 48.1112,24.6445L 49.988,26.5213C 53.2551,26.1548 56.0759,26.0135 57.6277,26.3239C 57.6277,26.3239 59.587,28.2831 58.4674,29.4027C 58.4674,29.4027 45.5709,33.1958 39.7607,35.7863C 49.9242,45.7831 49.2308,46.4764 49.2308,46.4764C 49.2308,46.4764 55.6685,44.5171 57.9076,46.7563L 50.6303,50.6748L 50.5673,50.6119L 46.6488,57.8892C 44.4096,55.65 46.3689,49.2124 46.3689,49.2124C 46.3689,49.2124 45.6756,49.9057 35.6788,39.7422C 33.0883,45.5524 29.2952,58.449 29.2952,58.449C 28.1756,59.5686 26.2164,57.6093 26.2164,57.6093C 25.906,56.0575 26.0473,53.2366 26.4138,49.9696L 24.537,48.0928C 23.9186,47.4745 23.9186,46.472 24.537,45.8536C 25.1553,45.2353 26.1578,45.2353 26.7761,45.8536L 26.9296,46.0071L 27.3777,43.0964L 25.3766,41.0954C 24.7583,40.4771 24.7583,39.4746 25.3766,38.8562C 25.995,38.2379 26.9975,38.2379 27.6158,38.8562L 28.0298,39.2702L 29.2247,32.9614C 19.8424,22.5743 22.0179,22.0624 22.0179,22.0624 Z "/>
</svg>
