<?xml version="1.0" encoding="utf-8"?>
<!DOCTYPE svg PUBLIC "-//W3C//DTD SVG 1.1//EN" "http://www.w3.org/Graphics/SVG/1.1/DTD/svg11.dtd">
<svg xmlns="http://www.w3.org/2000/svg" xmlns:xlink="http://www.w3.org/1999/xlink" version="1.1" baseProfile="full" width="76" height="76" viewBox="0 0 76.00 76.00" enable-background="new 0 0 76.00 76.00" xml:space="preserve">
	<path fill="#000000" fill-opacity="1" stroke-width="0.2" stroke-linejoin="round" d="M 19,57L 19,34L 26,34L 26,57L 19,57 Z M 19,19L 33,19L 33,22L 19,22.0001L 19,19 Z M 55,19L 55,22L 41,22.0001L 41,19L 55,19 Z M 19,24L 38,24L 38,27L 19,27.0001L 19,24 Z M 49,24L 48.9999,27.0001L 41,27.0001L 41,24L 49,24 Z M 19,29L 35,29L 35,32L 19,32.0001L 19,29 Z M 53,29L 52.9999,32.0001L 41,32.0001L 41,29L 53,29 Z M 27,57L 27,39L 34,39L 34,57L 27,57 Z M 35,57L 35,48L 42,48L 42,57L 35,57 Z M 43,57L 43,52L 50,52L 50,57L 43,57 Z M 51,57L 51,54L 57,54L 57,57L 51,57 Z "/>
</svg>
