<?xml version="1.0" encoding="utf-8"?>
<!DOCTYPE svg PUBLIC "-//W3C//DTD SVG 1.1//EN" "http://www.w3.org/Graphics/SVG/1.1/DTD/svg11.dtd">
<svg xmlns="http://www.w3.org/2000/svg" xmlns:xlink="http://www.w3.org/1999/xlink" version="1.1" baseProfile="full" width="76" height="76" viewBox="0 0 76.00 76.00" enable-background="new 0 0 76.00 76.00" xml:space="preserve">
	<path fill="#000000" fill-opacity="1" stroke-width="0.2" stroke-linejoin="round" d="M 29,58L 29,55.0833C 32.4978,55.0833 35,53.2083 35,49.25L 35,29C 35,25.9394 32.7481,25 29.6875,25C 26.6269,25 24.5,25.9394 24.5,29L 21,29L 21,20L 55,20L 55,29L 51.5,29C 51.5,25.9394 49.373,25 46.3125,25C 43.2519,25 41,25.9394 41,29L 41,49.25C 41,53.2083 43.5022,55.0833 47,55.0833L 47,58L 29,58 Z "/>
</svg>
