<?xml version="1.0" encoding="utf-8"?>
<!DOCTYPE svg PUBLIC "-//W3C//DTD SVG 1.1//EN" "http://www.w3.org/Graphics/SVG/1.1/DTD/svg11.dtd">
<svg xmlns="http://www.w3.org/2000/svg" xmlns:xlink="http://www.w3.org/1999/xlink" version="1.1" baseProfile="full" width="76" height="76" viewBox="0 0 76.00 76.00" enable-background="new 0 0 76.00 76.00" xml:space="preserve">
	<g>
		<path fill="#000000" fill-opacity="1" stroke-width="0.2" stroke-linejoin="round" d="M 15.7462,25.2304L 15.7462,50.6429L 21.3988,50.6429L 21.3988,40.0029L 30.9463,40.0029L 30.9463,50.6429L 36.5988,50.6429L 36.5988,25.2304L 30.9463,25.2304L 30.9463,35.1104L 21.3988,35.1104L 21.3988,25.2304L 15.7462,25.2304 Z "/>
		<path fill="#000000" fill-opacity="1" stroke-width="0.2" stroke-linejoin="round" d="M 39.3062,50.6437C 40.6676,50.8649 42.8161,50.9913 45.7518,51.0229C 48.2564,51.0253 50.5075,50.7551 52.5051,50.2123C 54.5027,49.6696 56.1743,48.8401 57.5197,47.7238C 58.7421,46.6734 59.735,45.2711 60.4985,43.5171C 61.2619,41.763 61.6553,39.632 61.6788,37.1241C 61.6647,34.8074 61.2806,32.8392 60.5266,31.2195C 59.7725,29.5998 58.7327,28.3245 57.4073,27.3936C 56.2251,26.546 54.7925,25.9102 53.1095,25.4863C 51.4264,25.0624 49.3767,24.8504 46.9603,24.8504C 45.5215,24.8526 44.149,24.9013 42.8427,24.9963C 41.5364,25.0913 40.3576,25.2194 39.3062,25.3805L 39.3062,50.6437 Z M 44.9588,29.2177C 45.4497,29.0811 46.3183,29.0028 47.5645,28.9829C 50.0822,28.9895 52.0522,29.6972 53.4747,31.1061C 54.8972,32.5151 55.6211,34.586 55.6463,37.3188C 55.6124,40.4475 54.8209,42.768 53.2717,44.2803C 51.7226,45.7925 49.6187,46.5359 46.9603,46.5104C 46.6102,46.5129 46.253,46.508 45.8887,46.4958C 45.5244,46.4836 45.2144,46.4496 44.9588,46.3936L 44.9588,29.2177 Z "/>
	</g>
</svg>
