<?xml version="1.0" encoding="utf-8"?>
<!DOCTYPE svg PUBLIC "-//W3C//DTD SVG 1.1//EN" "http://www.w3.org/Graphics/SVG/1.1/DTD/svg11.dtd">
<svg xmlns="http://www.w3.org/2000/svg" xmlns:xlink="http://www.w3.org/1999/xlink" version="1.1" baseProfile="full" width="76" height="76" viewBox="0 0 76.00 76.00" enable-background="new 0 0 76.00 76.00" xml:space="preserve">
	<path fill="#000000" fill-opacity="0.701961" stroke-width="0.2" stroke-linejoin="round" d="M 38,33C 47.384,33 54.9921,30.9874 55,28.5039L 55,52.5C 55,54.9853 47.3888,57 38,57L 38,48.9799L 40.06,48.9799L 40.06,37.7799L 38,37.7799L 38,33 Z M 52,23.5L 55,23.5L 55,25.5C 55,27.9853 47.3888,30 38,30L 38,25C 45.732,25 52,24.3285 52,23.5 Z M 49.98,40.9799L 47.5325,40.9799L 46.045,45.8924L 45.79,46.9524L 45.76,46.9524L 45.545,45.8749L 44.0725,40.9799L 41.34,40.9799L 44.565,48.9999L 44.155,49.9974C 43.9116,50.5991 43.4808,50.8999 42.8625,50.8999C 42.4875,50.8999 42.14,50.7933 41.82,50.5799L 41.82,52.4999C 42.2,52.7133 42.685,52.8199 43.275,52.8199C 44.8233,52.8199 45.9825,51.7733 46.7525,49.6799L 49.98,40.9799 Z "/>
	<path fill="#000000" fill-opacity="1" stroke-width="0.2" stroke-linejoin="round" d="M 38,57C 28.6111,57 21,54.9853 21,52.5L 21,28.5C 21,30.9853 28.6112,33 38,33L 38,37.8L 36.41,37.8L 34.1225,44.4225L 33.6775,46.04L 33.63,46.04C 33.5467,45.5033 33.4133,44.97 33.23,44.44L 30.9425,37.8L 27.28,37.8L 27.28,49L 29.52,49L 29.52,42.8075L 29.42,39.9L 29.49,39.9L 29.8425,41.4625L 32.515,49L 34.5775,49L 37.2025,41.385L 37.555,39.9L 37.6175,39.9L 37.52,42.2975L 37.52,49L 38,49L 38,57 Z M 55,23.5L 52,23.5C 52,22.6716 45.732,22 38,22C 30.268,22 24,22.6716 24,23.5C 24,24.3285 30.268,25 38,25L 38,30C 28.6112,30 21,27.9853 21,25.5L 21,23.5C 21,21.0147 28.6112,19 38,19C 47.384,19 54.9922,21.0127 55,23.5 Z "/>
</svg>
