<?xml version="1.0" encoding="utf-8"?>
<!DOCTYPE svg PUBLIC "-//W3C//DTD SVG 1.1//EN" "http://www.w3.org/Graphics/SVG/1.1/DTD/svg11.dtd">
<svg xmlns="http://www.w3.org/2000/svg" xmlns:xlink="http://www.w3.org/1999/xlink" version="1.1" baseProfile="full" width="76" height="76" viewBox="0 0 76.00 76.00" enable-background="new 0 0 76.00 76.00" xml:space="preserve">
	<path fill="#000000" fill-opacity="1" stroke-width="0.2" stroke-linejoin="round" d="M 22,17L 54,17C 56.6233,17 59,19.3767 59,22L 59,54C 59,56.6234 56.6233,59 54,59L 22,59C 19.3766,59 17,56.6234 17,54L 17,22C 17,19.3767 19.3766,17 22,17 Z M 31.8251,49.0833L 44.4409,49.0833L 44.4409,45.5367L 35.0817,45.5367L 44.1781,31.0914L 44.1781,27.8033L 32.8764,27.8033L 32.8764,31.35L 40.5724,31.35L 31.8251,45.2457L 31.8251,49.0833 Z M 52.25,47.5C 51.3756,47.5 50.6667,48.2089 50.6667,49.0833L 50.6667,53.8333C 50.6667,54.7078 51.3756,55.4167 52.25,55.4167L 53.8334,55.4167C 54.7078,55.4167 55.4167,54.7078 55.4167,53.8333L 55.4167,49.0833C 55.4167,48.2089 54.7078,47.5 53.8333,47.5L 52.25,47.5 Z M 52.25,49.0833L 53.8333,49.0833L 53.8333,53.8333L 52.25,53.8333L 52.25,49.0833 Z M 48.2917,47.5C 47.8544,47.5 47.5,47.8545 47.5,48.2917L 47.5,55.4167L 49.0833,55.4167L 49.0833,48.2917C 49.0833,47.8545 48.7289,47.5 48.2917,47.5 Z "/>
</svg>
