<?xml version="1.0" encoding="utf-8"?>
<!DOCTYPE svg PUBLIC "-//W3C//DTD SVG 1.1//EN" "http://www.w3.org/Graphics/SVG/1.1/DTD/svg11.dtd">
<svg xmlns="http://www.w3.org/2000/svg" xmlns:xlink="http://www.w3.org/1999/xlink" version="1.1" baseProfile="full" width="76" height="76" viewBox="0 0 76.00 76.00" enable-background="new 0 0 76.00 76.00" xml:space="preserve">
	<path fill="#000000" fill-opacity="1" stroke-width="0.2" stroke-linejoin="round" d="M 42.75,24.5417L 42.7499,44.3334C 42.7499,46.9567 40.6233,49.0834 37.9999,49.0834C 35.3766,49.0834 33.25,46.9567 33.25,44.3334L 33.25,28.5L 36.4166,28.5L 36.4166,44.3334C 36.4166,45.2078 37.1255,45.9167 37.9999,45.9167C 38.8744,45.9167 38.7916,45.2078 38.7916,44.3334L 38.7917,24.5417C 38.7917,22.3556 37.8111,20.5833 35.625,20.5833C 33.4389,20.5833 31.6667,22.3555 31.6667,24.5417L 31.6667,49.0833C 31.6667,52.5811 34.5022,55.4167 38,55.4167C 41.4978,55.4167 44.3333,52.5811 44.3333,49.0833L 44.3333,30.0833L 49.0833,30.0833L 49.0833,49.0833C 49.0833,55.2045 44.1211,60.1667 38,60.1667C 31.8788,60.1667 26.9167,55.2045 26.9167,49.0833L 26.9167,23.75C 26.9167,19.3778 30.4611,15.8333 34.8333,15.8333C 39.2056,15.8333 42.75,19.3778 42.75,23.75L 42.7109,24.5417L 42.75,24.5417 Z "/>
</svg>
