<?xml version="1.0" encoding="utf-8"?>
<!DOCTYPE svg PUBLIC "-//W3C//DTD SVG 1.1//EN" "http://www.w3.org/Graphics/SVG/1.1/DTD/svg11.dtd">
<svg xmlns="http://www.w3.org/2000/svg" xmlns:xlink="http://www.w3.org/1999/xlink" version="1.1" baseProfile="full" width="76" height="76" viewBox="0 0 76.00 76.00" enable-background="new 0 0 76.00 76.00" xml:space="preserve">
	<path fill="#000000" fill-opacity="1" stroke-width="0.2" stroke-linejoin="round" d="M 57,19L 8.60115,19C 7.57584,20.5832 6.67494,22.2545 5.91229,24L 8.99999,24L 8.99999,29L 4.16798,29C 4.08004,29.3315 3.99685,29.6648 3.91847,30L 8.99999,30L 8.99999,35L 3.12677,35C 3.09858,35.3321 3.07503,35.6654 3.05618,36L 8.99999,36L 8.99999,41L 3.12677,41C 3.15518,41.3347 3.1883,41.6681 3.22607,42L 8.99999,42L 8.99999,47L 4.16799,47C 4.34706,47.6749 4.54578,48.3418 4.76352,49L 8.99999,49L 8.99999,54L 6.86298,54C 7.03626,54.3366 7.21484,54.6699 7.39861,55L 8.99999,55L 8.99999,57.6022C 9.32206,58.0777 9.65552,58.5449 9.99998,59.0034L 9.99998,55L 15,55L 15,60L 10.7772,60C 11.0512,60.3386 11.3313,60.672 11.6175,61L 15,61L 15,64.3825C 15.328,64.6687 15.6614,64.9488 16,65.2228L 16,61L 21,61L 21,66L 16.9966,66C 17.4551,66.3445 17.9223,66.6779 18.3978,67L 21,67L 21,68.6014C 21.3301,68.7852 21.6634,68.9637 22,69.137L 22,67L 27,67L 27,71.2365C 27.6582,71.4542 28.3251,71.6529 29,71.832L 29,67L 34,67L 34,72.7739C 34.3319,72.8117 34.6653,72.8448 35,72.8732L 35,67L 40,67L 40,72.9438C 40.3346,72.925 40.668,72.9014 41,72.8732L 41,67L 46,67L 46,72.0815C 46.3352,72.0031 46.6686,71.9199 47,71.832L 47,67L 52,67L 52,70.0877C 53.7455,69.3251 55.4168,68.4241 57,67.3988L 57,19 Z M 52,61L 52,66L 47,66L 47,61L 52,61 Z M 46,61L 46,66L 41,66L 41,61L 46,61 Z M 40,61L 40,66L 35,66L 35,61L 40,61 Z M 34,61L 34,66L 29,66L 29,61L 34,61 Z M 27,61L 27,66L 22,66L 22,61L 27,61 Z M 52,55L 51.9999,60L 47,60L 47,55L 52,55 Z M 46,55L 46,60L 41,60L 41,55L 46,55 Z M 40,55L 40,60L 35,60L 35,55L 40,55 Z M 34,55L 34,60L 29,60L 29,55L 34,55 Z M 27,55L 27,60L 22,60L 22,55L 27,55 Z M 21,55L 21,60L 16,60L 16,55L 21,55 Z M 51.9999,49L 51.9999,54L 47,54L 47,49L 51.9999,49 Z M 46,49L 46,54L 41,54L 41,49L 46,49 Z M 40,49L 40,54L 35,54L 35,49L 40,49 Z M 34,49L 34,54L 29,54L 29,49L 34,49 Z M 27,49L 27,54L 22,54L 22,49L 27,49 Z M 21,49L 21,54L 16,54L 16,49L 21,49 Z M 15,49L 15,54L 9.99998,54L 9.99998,49L 15,49 Z M 52,42L 52,47L 47,47L 47,42L 52,42 Z M 46,42L 46,47L 41,47L 41,42L 46,42 Z M 40,42L 40,47L 35,47L 35,42L 40,42 Z M 34,42L 34,47L 29,47L 29,42L 34,42 Z M 27,42L 27,47L 22,47L 22,42L 27,42 Z M 21,42L 21,47L 16,47L 16,42L 21,42 Z M 15,42L 15,47L 9.99998,47L 9.99998,42L 15,42 Z M 52,36L 52,41L 47,41L 47,36L 52,36 Z M 46,36L 46,41L 41,41L 41,36L 46,36 Z M 40,36L 40,41L 35,41L 35,36L 40,36 Z M 34,36L 34,41L 29,41L 29,36L 34,36 Z M 27,36L 27,41L 22,41L 22,36L 27,36 Z M 21,36L 21,41L 16,41L 16,36L 21,36 Z M 15,36L 15,41L 9.99998,41L 9.99998,36L 15,36 Z M 51.9999,30L 51.9999,35L 47,35L 47,30L 51.9999,30 Z M 46,30L 46,35L 41,35L 41,30L 46,30 Z M 40,30L 40,35L 35,35L 35,30L 40,30 Z M 34,30L 34,35L 29,35L 29,30L 34,30 Z M 27,30.0001L 27,35L 22,35L 22,30.0001L 27,30.0001 Z M 21,30.0001L 21,35L 16,35L 16,30.0001L 21,30.0001 Z M 15,30.0001L 15,35L 9.99998,35L 9.99998,30.0001L 15,30.0001 Z M 51.9999,24.0001L 51.9999,29.0001L 47,29.0001L 47,24L 51.9999,24.0001 Z M 46,24L 46,29.0001L 41,29.0001L 41,24.0001L 46,24 Z M 40,24.0001L 40,29.0001L 35,29.0001L 35,24.0001L 40,24.0001 Z M 34,24.0001L 34,29.0001L 29,29.0001L 29,24.0001L 34,24.0001 Z M 27,24.0001L 27,29.0001L 22,29.0001L 22,24.0001L 27,24.0001 Z M 21,24.0001L 21,29.0001L 16,29.0001L 16,24.0001L 21,24.0001 Z M 15,24.0001L 15,29.0001L 9.99998,29.0001L 9.99998,24.0001L 15,24.0001 Z "/>
</svg>
