<?xml version="1.0" encoding="utf-8"?>
<!DOCTYPE svg PUBLIC "-//W3C//DTD SVG 1.1//EN" "http://www.w3.org/Graphics/SVG/1.1/DTD/svg11.dtd">
<svg xmlns="http://www.w3.org/2000/svg" xmlns:xlink="http://www.w3.org/1999/xlink" version="1.1" baseProfile="full" width="76" height="76" viewBox="0 0 76.00 76.00" enable-background="new 0 0 76.00 76.00" xml:space="preserve">
	<path fill="#000000" fill-opacity="1" stroke-width="0.2" stroke-linejoin="round" d="M 33,51L 36.4167,61.75L 24,51L 19,51L 19,22L 57,22L 57,51L 33,51 Z M 44.7244,45.3609C 45.2458,44.776 45.7533,44.0978 46.2471,43.3263L 47.5506,40.9739L 48.4534,38.6341C 48.6802,37.8711 48.7936,37.1972 48.7936,36.6122C 48.7936,36.0273 48.6802,35.3533 48.4534,34.5904L 47.5506,32.2379L 46.2471,29.8854L 44.7244,27.8635L 42.6898,27.8635C 43.7622,29.097 44.5729,30.4248 45.1218,31.8469C 45.6707,33.2689 45.9451,34.8574 45.9451,36.6122C 45.9451,38.3543 45.6707,39.9354 45.1218,41.3554C 44.5729,42.7753 43.7622,44.1105 42.6898,45.3609L 44.7244,45.3609 Z M 36.0208,34.8334C 35.1464,34.8334 34.4375,35.5422 34.4375,36.4167C 34.4375,37.2911 35.1464,38 36.0208,38L 39.1875,38C 40.0619,38 41.5625,37.2911 41.5625,36.4167C 41.5625,35.5422 40.0619,34.8334 39.1875,34.8334L 36.0208,34.8334 Z M 29.2917,30.0834C 28.4172,30.0834 27.7083,30.7922 27.7083,31.6667C 27.7083,32.5411 28.4172,32.8542 29.2917,32.8542L 30.875,32.8542C 31.7494,32.8542 32.4583,32.5411 32.4583,31.6667C 32.4583,30.7922 31.7494,30.0834 30.875,30.0834L 29.2917,30.0834 Z M 29.2917,39.9792C 28.4172,39.9792 27.7083,40.2922 27.7083,41.1667C 27.7083,42.0411 28.4172,42.75 29.2917,42.75L 30.875,42.75C 31.7494,42.75 32.4583,42.0411 32.4583,41.1667C 32.4583,40.2922 31.7494,39.9792 30.875,39.9792L 29.2917,39.9792 Z "/>
</svg>
