<?xml version="1.0" encoding="utf-8"?>
<!DOCTYPE svg PUBLIC "-//W3C//DTD SVG 1.1//EN" "http://www.w3.org/Graphics/SVG/1.1/DTD/svg11.dtd">
<svg xmlns="http://www.w3.org/2000/svg" xmlns:xlink="http://www.w3.org/1999/xlink" version="1.1" baseProfile="full" width="76" height="76" viewBox="0 0 76.00 76.00" enable-background="new 0 0 76.00 76.00" xml:space="preserve">
	<path fill="#000000" fill-opacity="1" stroke-width="0.2" stroke-linejoin="round" d="M 20.5811,17.4167L 43.5394,17.4167L 55.4144,29.2917L 55.4144,37.2083L 52.2477,38L 52.2477,33.25L 39.5811,33.25L 39.5811,20.5833L 23.7477,20.5834L 23.7477,55.4167L 38.3935,55.4167L 40.7685,58.5834L 20.5811,58.5833L 20.5811,17.4167 Z M 42.7477,21.375L 42.7477,30.0833L 51.456,30.0833L 42.7477,21.375 Z M 35.7788,47.7506C 34.5668,43.2489 38.0296,39.7861 40.973,39.2667C 43.4359,38.832 45.5352,40.4582 47.575,42.4208L 45.6479,52.9448L 48.7644,51.906L 48.7644,63.3333L 52.9198,47.7506L 49.8033,48.7894L 51.5729,40.98C 53.1173,39.7482 54.7374,38.9463 56.5558,39.2667C 59.4992,39.7861 62.962,43.2489 61.75,47.7506C 60.538,52.2523 54.6512,57.7928 48.7644,63.3333C 42.8776,57.7928 36.9908,52.2523 35.7788,47.7506 Z "/>
</svg>
