<?xml version="1.0" encoding="utf-8"?>
<!DOCTYPE svg PUBLIC "-//W3C//DTD SVG 1.1//EN" "http://www.w3.org/Graphics/SVG/1.1/DTD/svg11.dtd">
<svg xmlns="http://www.w3.org/2000/svg" xmlns:xlink="http://www.w3.org/1999/xlink" version="1.1" baseProfile="full" width="76" height="76" viewBox="0 0 76.00 76.00" enable-background="new 0 0 76.00 76.00" xml:space="preserve">
	<path fill="#000000" fill-opacity="1" stroke-width="0.2" stroke-linejoin="round" d="M 55.4167,39.5833C 55.4167,43.0811 52.5811,45.9167 49.0833,45.9167L 36.4173,45.9167C 38.3398,47.361 39.5833,49.6603 39.5833,52.25C 39.5833,56.6223 36.0389,60.1667 31.6666,60.1667C 27.2944,60.1667 23.75,56.6223 23.75,52.25C 23.75,49.0037 25.704,46.2137 28.5,44.9921L 28.5,31.008C 25.704,29.7864 23.75,26.9964 23.75,23.7501C 23.75,19.3778 27.2944,15.8334 31.6666,15.8334C 36.0389,15.8334 39.5833,19.3778 39.5833,23.7501C 39.5833,26.9964 37.6293,29.7864 34.8333,31.008L 34.8333,39.5833L 45.9167,39.5833C 47.6655,39.5833 49.0833,38.1656 49.0833,36.4167L 49.0833,34.1746C 46.2873,32.953 44.3333,30.163 44.3333,26.9167C 44.3333,22.5444 47.8777,19 52.25,19C 56.6222,19 60.1667,22.5444 60.1667,26.9167C 60.1667,30.163 58.2127,32.953 55.4167,34.1746L 55.4167,39.5833 Z M 52.25,23.75C 50.5011,23.75 49.0833,25.1678 49.0833,26.9167C 49.0833,28.6656 50.5011,30.0833 52.25,30.0833C 53.9989,30.0833 55.4167,28.6656 55.4167,26.9167C 55.4167,25.1678 53.9989,23.75 52.25,23.75 Z M 31.6666,20.5834C 29.9177,20.5834 28.5,22.0012 28.5,23.7501C 28.5,25.499 29.9177,26.9167 31.6666,26.9167C 33.4155,26.9167 34.8333,25.499 34.8333,23.7501C 34.8333,22.0012 33.4155,20.5834 31.6666,20.5834 Z M 31.6666,49.0834C 29.9177,49.0834 28.5,50.5011 28.5,52.25C 28.5,53.9989 29.9177,55.4167 31.6666,55.4167C 33.4155,55.4167 34.8333,53.9989 34.8333,52.25C 34.8333,50.5011 33.4155,49.0834 31.6666,49.0834 Z "/>
</svg>
