<?xml version="1.0" encoding="utf-8"?>
<!DOCTYPE svg PUBLIC "-//W3C//DTD SVG 1.1//EN" "http://www.w3.org/Graphics/SVG/1.1/DTD/svg11.dtd">
<svg xmlns="http://www.w3.org/2000/svg" xmlns:xlink="http://www.w3.org/1999/xlink" version="1.1" baseProfile="full" width="76" height="76" viewBox="0 0 76.00 76.00" enable-background="new 0 0 76.00 76.00" xml:space="preserve">
	<path fill="#000000" fill-opacity="1" stroke-width="0.2" stroke-linejoin="round" d="M 14.25,45.9166L 20.5834,45.9167L 39.1874,23.75L 47.8958,23.75L 41.1667,17.4167L 51.4583,17.4167L 61.75,26.9166L 51.4583,36.4167L 41.1667,36.4167L 47.8958,30.0833L 41.1667,30.0833L 22.1667,52.25L 14.25,52.25L 14.25,45.9166 Z M 14.25,30.0833L 14.25,23.75L 22.1667,23.75L 29.6875,32.5243L 26.1226,36.6834L 20.5833,30.0833L 14.25,30.0833 Z M 41.1667,45.9167L 47.8958,45.9167L 41.1666,39.5833L 51.4583,39.5834L 61.75,49.0834L 51.4583,58.5833L 41.1666,58.5833L 47.8958,52.25L 39.1873,52.25L 31.9416,43.6167L 35.5684,39.3854L 41.1667,45.9167 Z "/>
</svg>
