<?xml version="1.0" encoding="utf-8"?>
<!DOCTYPE svg PUBLIC "-//W3C//DTD SVG 1.1//EN" "http://www.w3.org/Graphics/SVG/1.1/DTD/svg11.dtd">
<svg xmlns="http://www.w3.org/2000/svg" xmlns:xlink="http://www.w3.org/1999/xlink" version="1.1" baseProfile="full" width="76" height="76" viewBox="0 0 76.00 76.00" enable-background="new 0 0 76.00 76.00" xml:space="preserve">
	<path fill="#000000" fill-opacity="1" stroke-width="0.2" stroke-linejoin="round" d="M 27.6073,29.8464L 20.4825,22.7216C 19.8641,22.1033 19.8641,21.1008 20.4825,20.4825C 21.1008,19.8641 22.1033,19.8641 22.7216,20.4825L 29.8464,27.6073C 34.1877,24.3526 40.3735,24.6993 44.3217,28.6475L 28.6475,44.3217C 24.6993,40.3735 24.3526,34.1877 27.6073,29.8464 Z M 47.7483,32.0742C 51.6965,36.0223 52.0433,42.2082 48.7885,46.5494L 55.5175,53.2784C 56.1358,53.8967 56.1358,54.8992 55.5175,55.5175C 54.8992,56.1359 53.8967,56.1359 53.2783,55.5175L 46.5494,48.7886C 42.2081,52.0433 36.0223,51.6965 32.0741,47.7484L 35.4329,44.3896L 32.6339,41.5906C 31.7064,40.6631 31.7064,39.1594 32.6339,38.2319C 33.5614,37.3044 35.0652,37.3044 35.9927,38.2319L 38.7916,41.0308L 41.0308,38.7917L 38.2319,35.9927C 37.3044,35.0652 37.3044,33.5614 38.2319,32.634C 39.1594,31.7065 40.6631,31.7065 41.5906,32.6339L 44.3896,35.4329L 47.7483,32.0742 Z "/>
</svg>
