<?xml version="1.0" encoding="utf-8"?>
<!DOCTYPE svg PUBLIC "-//W3C//DTD SVG 1.1//EN" "http://www.w3.org/Graphics/SVG/1.1/DTD/svg11.dtd">
<svg xmlns="http://www.w3.org/2000/svg" xmlns:xlink="http://www.w3.org/1999/xlink" version="1.1" baseProfile="full" width="76" height="76" viewBox="0 0 76.00 76.00" enable-background="new 0 0 76.00 76.00" xml:space="preserve">
	<path fill="#000000" fill-opacity="1" stroke-width="0.2" stroke-linejoin="round" d="M 41.1667,49.0833C 46.4444,50.6667 49.0833,52.25 53.8333,52.25C 55.4167,52.25 55.4167,52.9589 55.4167,53.8333C 55.4167,54.7078 54.7078,55.4167 53.8333,55.4167L 22.1667,55.4167C 21.2922,55.4167 20.5833,54.7078 20.5833,53.8333C 20.5833,52.9589 20.5833,52.25 22.1667,52.25C 26.9167,52.25 29.5556,50.6667 34.8333,49.0833L 34.8333,38L 22.1667,20.5834L 53.8333,20.5834L 41.1666,38L 41.1667,49.0833 Z M 40.375,26.9167C 39.0633,26.9167 38,27.98 38,29.2917C 38,30.6033 39.0633,31.6667 40.375,31.6667C 41.6867,31.6667 42.75,30.6033 42.75,29.2917C 42.75,27.98 41.6867,26.9167 40.375,26.9167 Z "/>
</svg>
