<?xml version="1.0" encoding="utf-8"?>
<!DOCTYPE svg PUBLIC "-//W3C//DTD SVG 1.1//EN" "http://www.w3.org/Graphics/SVG/1.1/DTD/svg11.dtd">
<svg xmlns="http://www.w3.org/2000/svg" xmlns:xlink="http://www.w3.org/1999/xlink" version="1.1" baseProfile="full" width="76" height="76" viewBox="0 0 76.00 76.00" enable-background="new 0 0 76.00 76.00" xml:space="preserve">
	<path fill="#000000" fill-opacity="1" stroke-width="0.2" stroke-linejoin="round" d="M 39.5,38C 44.1944,38 48,41.8056 48,46.5C 48,51.1944 44.1944,55 39.5,55C 38.0628,55 36.7089,54.6433 35.5219,54.0136L 30.2678,59.2678C 29.2915,60.2441 27.7085,60.2441 26.7322,59.2678C 25.7559,58.2915 25.7559,56.7085 26.7322,55.7322L 31.9864,50.4781C 31.3567,49.2912 31,47.9372 31,46.5C 31,41.8056 34.8056,38 39.5,38 Z M 39.5,42C 37.0147,42 35,44.0147 35,46.5C 35,48.9853 37.0147,51 39.5,51C 41.9853,51 44,48.9853 44,46.5C 44,44.0147 41.9853,42 39.5,42 Z M 24.7333,23C 27.6789,23 30.0667,25.3878 30.0667,28.3333C 30.0667,31.2789 27.6789,33.6667 24.7333,33.6667C 21.7878,33.6667 19.4,31.2789 19.4,28.3333C 19.4,25.3878 21.7878,23 24.7333,23 Z M 19.4,40.3834C 18.6889,40.7389 17.2667,43.5833 17.2667,43.5833C 17.2667,43.5833 16.5556,44.65 16.2,48.9166L 13,47.85L 14.0667,42.5167C 14.0667,42.5167 16.2,35.05 20.4666,35.0501L 27.8503,35.0501C 28.7183,32.8756 30.6793,29.0501 33.7333,29.0501L 42.2666,29.0501C 45.3206,29.0501 47.2817,32.8756 48.1497,35.0501L 55.5332,35.0501C 59.8,35.05 61.9333,42.5167 61.9333,42.5167L 63,47.85L 59.8,48.9167C 59.4444,44.65 58.7334,43.5833 58.7334,43.5833C 58.7334,43.5833 57.3111,40.7389 56.6,40.3833L 57.031,50.0704C 55.4095,50.7029 53.6453,51.05 51.8,51.05C 50.6941,51.05 49.6172,50.9253 48.5828,50.6893C 49.1716,49.415 49.5,47.9959 49.5,46.5C 49.5,40.9772 45.0228,36.5 39.5,36.5C 35.8593,36.5 32.6731,38.4455 30.9242,41.3536C 30.612,40.8873 30.3008,40.5004 30.0666,40.3834L 30.1775,42.8745C 29.74,43.9985 29.5,45.2212 29.5,46.5C 29.5,47.8005 29.7482,49.043 30.2,50.1828C 28.6611,50.7439 26.9996,51.05 25.2666,51.05C 23.0173,51.05 20.8884,50.5343 18.9918,49.6146L 19.4,40.3834 Z M 43.3333,34.3834L 43.4489,36.9807C 43.7874,36.5864 44.156,36.2274 44.5548,35.9288C 44.1353,35.2331 43.6595,34.5464 43.3333,34.3834 Z M 38,17C 40.9455,17 43.3333,19.3878 43.3333,22.3334C 43.3333,25.2789 40.9455,27.6667 38,27.6667C 35.0545,27.6667 32.6667,25.2789 32.6667,22.3334C 32.6667,19.3878 35.0545,17 38,17 Z M 32.6667,34.3834C 32.3405,34.5464 31.8647,35.2332 31.4452,35.9289C 31.8442,36.2276 32.2131,36.5869 32.5518,36.9815L 32.6667,34.3834 Z M 51.2667,23C 54.2122,23 56.6,25.3878 56.6,28.3334C 56.6,31.2789 54.2122,33.6667 51.2667,33.6667C 48.3211,33.6667 45.9333,31.2789 45.9333,28.3334C 45.9333,25.3878 48.3211,23 51.2667,23 Z "/>
</svg>
