<?xml version="1.0" encoding="utf-8"?>
<!DOCTYPE svg PUBLIC "-//W3C//DTD SVG 1.1//EN" "http://www.w3.org/Graphics/SVG/1.1/DTD/svg11.dtd">
<svg xmlns="http://www.w3.org/2000/svg" xmlns:xlink="http://www.w3.org/1999/xlink" version="1.1" baseProfile="full" width="76" height="76" viewBox="0 0 76.00 76.00" enable-background="new 0 0 76.00 76.00" xml:space="preserve">
	<path fill="#000000" fill-opacity="1" stroke-linejoin="round" d="M 38.4282,26.5603C 37.8543,26.5603 37.0892,28.4732 37.663,30.1948C 36.1327,30.1948 36.5153,26.5603 36.5153,26.5603C 36.1327,26.7516 34.985,26.369 34.985,26.369C 35.9415,26.1777 36.3044,25.6225 35.9415,25.2213C 32.307,21.2043 30.2326,28.7961 31.3506,30.0035C 36.1327,35.1682 34.4112,36.6985 34.4112,36.6985C 35.5589,39.7591 42.2539,46.2628 42.2539,46.2628C 45.5058,40.9068 42.4452,37.2724 41.68,36.6985C 40.9149,36.1246 40.7236,37.8462 40.7236,37.8462C 40.1498,36.3159 38.0456,36.6985 38.0456,36.6985C 39.1933,33.8292 42.4452,34.4031 42.4452,34.4031C 42.4452,34.4031 42.2539,34.7856 41.68,34.7856C 41.1062,34.7856 43.5929,35.7421 44.1668,36.1246C 44.7406,36.5072 44.3581,35.3595 44.3581,35.3595C 45.8883,36.6985 45.6971,38.6114 46.0796,39.5678C 46.4622,40.5242 46.8448,39.3765 46.8448,39.3765C 47.4187,41.2894 46.6535,43.2022 46.8448,43.9674C 47.0361,44.7325 47.8012,44.1587 47.8012,44.1587C 47.4187,47.7931 46.0796,49.706 46.0796,49.706C 54.6875,56.9749 61,54.8707 61,54.8707C 59.8523,55.8271 56.0265,58.5052 53.9224,57.3574C 51.8182,56.2097 48.9489,57.9313 48.9489,57.9313C 47.8012,56.2097 43.9755,54.4881 41.4888,55.8271C 27.7802,63.2087 21.7863,51.4276 21.0211,50.4711C 20.256,49.5147 19.6821,51.8101 19.6821,51.8101C 16.239,48.5583 19.2995,44.35 19.1082,43.2022C 18.917,42.0545 17.1954,44.1587 17.1954,44.1587C 15.8564,40.7155 21.595,36.3159 21.595,35.3595C 21.595,34.4031 19.6821,35.3595 19.6821,35.3595C 21.595,31.7251 27.5249,31.9163 27.5249,31.9163C 27.5249,31.9163 27.1423,29.8122 26.5684,29.047C 25.9946,28.2819 25.612,29.6209 25.612,29.6209C 24.8468,27.3255 26.1858,26.369 27.3336,24.4562C 27.9074,23.3085 25.9946,23.691 25.9946,23.691C 27.7161,21.2043 29.8203,22.3042 30.968,20.9652C 31.5418,20.3913 30.2028,19.9131 30.2028,19.9131C 31.7332,19.1002 33.2634,20.8217 34.6024,19.7697C 35.7772,18.8466 32.307,17.7612 32.307,17.7612C 39.1933,17.5699 37.663,20.6304 41.4888,23.4997C 41.4888,24.2649 41.68,25.6039 41.68,25.6039C 43.9755,29.8122 41.2975,30.0035 41.2975,30.0035C 42.4452,28.4732 39.002,26.5603 38.4282,26.5603 Z M 29.629,38.8027C 16.6215,43.7761 30.0116,56.7836 38.0456,51.6189C 38.0456,50.4711 35.3676,50.2798 35.3676,50.2798C 34.985,45.3064 30.7767,45.1151 30.7767,45.1151C 31.5419,42.2458 29.7833,38.4984 29.629,38.8027 Z "/>
</svg>
