<?xml version="1.0" encoding="utf-8"?>
<!DOCTYPE svg PUBLIC "-//W3C//DTD SVG 1.1//EN" "http://www.w3.org/Graphics/SVG/1.1/DTD/svg11.dtd">
<svg xmlns="http://www.w3.org/2000/svg" xmlns:xlink="http://www.w3.org/1999/xlink" version="1.1" baseProfile="full" width="76" height="76" viewBox="0 0 76.00 76.00" enable-background="new 0 0 76.00 76.00" xml:space="preserve">
	<path fill="#000000" fill-opacity="1" stroke-width="0.2" stroke-linejoin="round" d="M 23.3428,25.205L 23.3805,25.4461C 23.9229,27.177 30.261,29.0992 38,29.0992C 45.7386,29.0992 52.0765,27.1771 52.6194,25.4463L 52.6571,25.205C 52.6571,23.3616 46.0949,21.3109 38,21.3109C 29.9051,21.3109 23.3428,23.3616 23.3428,25.205 Z M 23.3428,53.0204L 19.1571,26.2111C 19.0534,25.8817 19,25.5459 19,25.205C 19,20.9036 27.5066,17.4167 38,17.4167C 48.4934,17.4167 57,20.9036 57,25.205C 57,25.5459 56.9466,25.8818 56.8429,26.2112L 52.6571,53.0204L 52.5974,53.0204C 51.9241,56.1393 45.6457,58.5833 38,58.5833C 30.3543,58.5833 24.076,56.1393 23.4026,53.0204L 23.3428,53.0204 Z M 51.8228,30.5485C 48.3585,32.0537 43.4469,32.9933 38,32.9933C 32.5531,32.9933 27.6415,32.0537 24.1771,30.5484L 27.5988,52.464L 27.6857,52.464C 27.6857,53.3857 32.3036,54.6892 38,54.6892C 43.6964,54.6892 48.3143,53.3857 48.3143,52.464L 48.4011,52.464L 51.8228,30.5485 Z "/>
</svg>
