<?xml version="1.0" encoding="utf-8"?>
<!DOCTYPE svg PUBLIC "-//W3C//DTD SVG 1.1//EN" "http://www.w3.org/Graphics/SVG/1.1/DTD/svg11.dtd">
<svg xmlns="http://www.w3.org/2000/svg" xmlns:xlink="http://www.w3.org/1999/xlink" version="1.1" baseProfile="full" width="76" height="76" viewBox="0 0 76.00 76.00" enable-background="new 0 0 76.00 76.00" xml:space="preserve">
	<path fill="#000000" fill-opacity="1" stroke-width="0.2" stroke-linejoin="round" d="M 31.886,55.6716L 35.4216,52.1361L 31.886,48.6005L 34.4645,46.0221L 38,49.5576L 41.5355,46.0221L 44.1139,48.6005L 40.5784,52.136L 44.114,55.6716L 41.5355,58.25L 38,54.7145L 34.4645,58.25L 31.886,55.6716 Z M 19,23L 27,23L 27,31L 19,31L 19,23 Z M 30.9999,23.0003L 56.9997,23.0003L 56.9997,31.0003L 30.9999,31.0003L 30.9999,23.0003 Z M 19,34L 27,34L 27,42L 19,42L 19,34 Z M 20,35L 20,41L 26,41L 26,35L 20,35 Z M 21,36L 25,36L 25,40L 21,40L 21,36 Z M 31,34L 57,34L 57,42L 31,42L 31,34 Z "/>
</svg>
