<?xml version="1.0" encoding="utf-8"?>
<!DOCTYPE svg PUBLIC "-//W3C//DTD SVG 1.1//EN" "http://www.w3.org/Graphics/SVG/1.1/DTD/svg11.dtd">
<svg xmlns="http://www.w3.org/2000/svg" xmlns:xlink="http://www.w3.org/1999/xlink" version="1.1" baseProfile="full" width="76" height="76" viewBox="0 0 76.00 76.00" enable-background="new 0 0 76.00 76.00" xml:space="preserve">
	<path fill="#000000" fill-opacity="1" stroke-width="0.2" stroke-linejoin="round" d="M 41.5625,38C 45.4975,38 48.6875,34.81 48.6875,30.875C 48.6875,26.94 45.4975,23.75 41.5625,23.75L 34.8333,23.75L 34.8333,38L 41.5625,38 Z M 28.5,19L 41.9583,19C 48.5167,19 53.8333,24.3166 53.8333,30.875C 53.8333,37.4334 48.5167,42.75 41.9583,42.75L 34.8333,42.75L 34.8333,47.5L 49.0833,47.5L 49.0833,52.25L 34.8333,52.25L 34.8333,57L 28.5,57L 28.5,52.25L 22.1667,52.25L 22.1667,47.5L 28.5,47.5L 28.5,42.75L 22.1667,42.75L 22.1667,38L 28.5,38L 28.5,19 Z "/>
</svg>
