<?xml version="1.0" encoding="utf-8"?>
<!DOCTYPE svg PUBLIC "-//W3C//DTD SVG 1.1//EN" "http://www.w3.org/Graphics/SVG/1.1/DTD/svg11.dtd">
<svg xmlns="http://www.w3.org/2000/svg" xmlns:xlink="http://www.w3.org/1999/xlink" version="1.1" baseProfile="full" width="76" height="76" viewBox="0 0 76.00 76.00" enable-background="new 0 0 76.00 76.00" xml:space="preserve">
	<path fill="#000000" fill-opacity="1" stroke-linejoin="round" d="M 18.9999,23.5L 41,20L 41,56L 18.9999,52.5L 18.9999,23.5 Z M 32.7241,44.2682L 32.715,42.5626L 28.7314,42.3814L 28.7346,32.3116L 27.8813,32.3572L 27.0279,32.4028L 27.0311,43.9175L 32.7241,44.2682 Z M 50.9947,34.9775L 44.5,35C 43.1193,35 42,36.3693 42,37.75L 42,32.5998C 42.75,32.2163 43.5997,32 44.5,32L 42.5043,30.0226C 42.0162,29.5345 42.0162,28.743 42.5043,28.2549C 42.9925,27.7667 43.7839,27.7667 44.2721,28.2549L 50.9947,34.9775 Z M 43.0007,40.5008L 46.5,44L 44.4999,44C 43.5997,44 42.75,43.7838 42,43.4003L 42,38.25C 42,39.0683 42.3931,40.0447 43.0007,40.5008 Z M 52.9993,35.4993L 49.5,32L 51.5,32C 54.5375,32 57,34.4625 57,37.5L 57,38.5L 57,38.5C 57,41.5376 54.5375,44 51.5,44L 53.5171,45.9774C 54.0053,46.4656 54.0053,47.257 53.5171,47.7452C 53.029,48.2333 52.2375,48.2333 51.7494,47.7452L 45,41L 51.5,41C 52.8807,41 54,39.8807 54,38.5L 54,37.5C 54,36.6818 53.6069,35.9554 52.9993,35.4993 Z "/>
</svg>
