<?xml version="1.0" encoding="utf-8"?>
<!DOCTYPE svg PUBLIC "-//W3C//DTD SVG 1.1//EN" "http://www.w3.org/Graphics/SVG/1.1/DTD/svg11.dtd">
<svg xmlns="http://www.w3.org/2000/svg" xmlns:xlink="http://www.w3.org/1999/xlink" version="1.1" baseProfile="full" width="76" height="76" viewBox="0 0 76.00 76.00" enable-background="new 0 0 76.00 76.00" xml:space="preserve">
	<path fill="#000000" fill-opacity="1" stroke-width="0.2" stroke-linejoin="round" d="M 14,51L 14,24L 40,24L 40,32L 46,32L 46,43L 40,43L 40,51L 14,51 Z M 43,40L 43,35L 17,35L 17,40L 43,40 Z M 37,43L 17,43L 17,48L 37,48L 37,43 Z M 37,32L 37,27L 17,27L 17,32L 37,32 Z M 50.2708,42.3542L 54.625,38L 50.2708,33.6458L 52.6458,31.2708L 57,35.625L 61.3542,31.2708L 63.7291,33.6458L 59.375,38L 63.7292,42.3542L 61.3542,44.7292L 57,40.375L 52.6458,44.7292L 50.2708,42.3542 Z "/>
</svg>
