<?xml version="1.0" encoding="utf-8"?>
<!DOCTYPE svg PUBLIC "-//W3C//DTD SVG 1.1//EN" "http://www.w3.org/Graphics/SVG/1.1/DTD/svg11.dtd">
<svg xmlns="http://www.w3.org/2000/svg" xmlns:xlink="http://www.w3.org/1999/xlink" version="1.1" baseProfile="full" width="76" height="76" viewBox="0 0 76.00 76.00" enable-background="new 0 0 76.00 76.00" xml:space="preserve">
	<path fill="#000000" fill-opacity="1" stroke-width="0.2" stroke-linejoin="round" d="M 19.0001,23.5L 41.0002,19.9999L 41.0002,55.9999L 19.0001,52.5L 19.0001,23.5 Z M 28.9898,39.9572L 30.0923,39.9784C 31.3742,39.9021 32.8663,39.3726 33.5545,38.2883C 34.5013,36.7965 34.4981,34.2219 33.2239,32.9978C 31.6458,31.4819 28.872,32.2686 26.6872,32.3915L 26.6882,43.8668L 27.8457,43.9349L 29.0033,44.003L 28.9898,39.9572 Z M 28.9942,34.2921L 29.9044,34.259C 30.3659,34.3962 30.9434,34.3353 31.2888,34.6708C 32.0579,35.4178 31.7203,37.4869 30.7059,37.8341C 30.4483,37.9222 30.1693,37.9335 29.8977,37.9522L 28.988,37.9527L 28.9942,34.2921 Z M 57.0002,23.9999L 57.0002,51.9999L 42.0002,51.9999L 42.0002,44.9497L 45.5002,48.4496L 50.45,43.4999L 45.5002,38.5501L 42.0002,42.0502L 42.0002,30.9999L 50.0002,30.9999L 50.0002,36.9999L 47.0002,36.9999L 51.0001,41L 55.0002,36.9999L 52.0002,36.9999L 52.0002,30.9999L 52.0002,28.9999L 42.0002,28.9999L 42.0002,23.9999L 57.0002,23.9999 Z "/>
</svg>
