<?xml version="1.0" encoding="utf-8"?>
<!DOCTYPE svg PUBLIC "-//W3C//DTD SVG 1.1//EN" "http://www.w3.org/Graphics/SVG/1.1/DTD/svg11.dtd">
<svg xmlns="http://www.w3.org/2000/svg" xmlns:xlink="http://www.w3.org/1999/xlink" version="1.1" baseProfile="full" width="76" height="76" viewBox="0 0 76.00 76.00" enable-background="new 0 0 76.00 76.00" xml:space="preserve">
	<path fill="#000000" fill-opacity="1" stroke-width="0.2" stroke-linejoin="round" d="M 40.3687,37.9665L 41.1245,32.8372C 40.739,32.7647 40.2956,32.7217 39.7944,32.7081L 38.9479,32.7878C 37.5829,33.1162 36.4146,33.8851 35.443,35.0947C 34.4097,36.381 33.7788,37.9105 33.5503,39.6833L 33.5319,40.1592C 33.5331,41.2743 33.7733,42.15 34.2867,42.8306C 34.7292,43.1765 35.2968,43.3538 35.9896,43.3627C 37.0834,43.3211 38.0917,42.7222 39.0143,41.566L 39.3668,41.0869C 39.8391,40.1822 40.173,39.1421 40.3687,37.9665 Z M 22.8035,52.313C 19.8817,49.3593 18.35,45.3197 18.2083,40.1942C 18.275,35.7706 19.3628,31.8765 21.4716,28.5121C 22.2949,27.0574 23.3001,25.697 24.4873,24.431C 28.269,20.3979 33.3586,18.2999 39.7562,18.1369C 44.8808,18.2159 48.9641,19.7079 52.0062,22.6132C 52.1598,22.7598 52.3096,22.9089 52.4557,23.0604C 53.8149,24.3709 54.8744,25.8712 55.6342,27.5612C 56.7636,29.7907 57.3508,32.3634 57.3958,35.2794C 57.3437,39.5903 56.3519,42.9591 54.4204,45.386C 52.4889,47.8129 49.9302,49.0472 46.7445,49.089C 45.9767,49.0883 45.2849,48.9789 44.6692,48.7609C 43.9462,48.5961 43.3152,48.2997 42.7763,47.8717C 42.5893,47.7233 42.4187,47.5594 42.2643,47.3799C 41.7361,46.9253 41.348,46.3373 41.0999,45.616C 39.2901,47.9309 36.9547,49.1052 34.0938,49.1387C 33.0756,49.1322 32.1621,48.927 31.3533,48.523C 30.5971,48.2123 29.9271,47.7378 29.3435,47.0994C 29.1853,46.9552 29.0327,46.8003 28.8856,46.6348C 27.7503,45.3569 27.1646,43.5147 27.1286,41.1082C 27.1573,38.3045 27.8656,35.8265 29.2536,33.6743C 29.7593,32.7528 30.3811,31.8869 31.1188,31.0766C 33.4272,28.5409 36.6488,27.2174 40.7835,27.1061C 42.0759,27.1166 43.3433,27.2493 44.5858,27.5042C 45.8282,27.7592 46.8246,28.0735 47.5748,28.4472L 47.5424,28.6473C 47.6931,28.7106 47.8358,28.7758 47.9707,28.843L 47.8861,29.3644L 48.1372,29.4832L 46.3963,40.2164C 46.1839,41.3725 46.1013,42.3302 46.1486,43.0895C 46.2188,43.3461 46.3143,43.5641 46.4351,43.7434C 46.67,43.896 46.9548,43.9722 47.2895,43.9722C 48.5938,44.0322 49.8233,43.2675 51.0612,41.5609C 51.8595,40.0043 52.2905,37.8694 52.3544,35.1561C 52.3391,31.4249 51.2052,28.3763 48.9525,26.0104C 46.6446,23.8205 43.3636,22.6896 39.1095,22.6178C 35.9232,22.6494 33.0866,23.4472 30.5997,25.0112C 29.7101,25.6044 28.8656,26.2965 28.0663,27.0877C 26.3971,28.74 25.1518,30.748 24.3304,33.1117C 23.7603,34.9932 23.4478,37.0908 23.3927,39.4045C 23.4654,43.8266 24.6571,47.2517 27.0529,49.76C 29.6794,52.2084 33.1148,53.4394 37.3593,53.4531C 38.8372,53.4508 40.3043,53.308 41.7608,53.0247C 43.2173,52.7413 44.5275,52.3308 45.6915,51.7931L 45.8293,52.305C 45.9161,52.267 46.0021,52.2283 46.0874,52.1889L 46.9268,55.3082L 47.2667,56.3144C 45.5597,57.0335 43.8671,57.5398 42.1891,57.8335C 40.511,58.1272 38.6443,58.269 36.5891,58.2589C 31.731,58.2213 27.5831,56.6766 24.1454,53.6247L 23.1994,52.7088C 23.1317,52.6405 23.0649,52.5715 22.9987,52.502L 22.8035,52.313 Z "/>
</svg>
