<?xml version="1.0" encoding="utf-8"?>
<!DOCTYPE svg PUBLIC "-//W3C//DTD SVG 1.1//EN" "http://www.w3.org/Graphics/SVG/1.1/DTD/svg11.dtd">
<svg xmlns="http://www.w3.org/2000/svg" xmlns:xlink="http://www.w3.org/1999/xlink" version="1.1" baseProfile="full" width="76" height="76" viewBox="0 0 76.00 76.00" enable-background="new 0 0 76.00 76.00" xml:space="preserve">
	<path fill="#000000" fill-opacity="1" stroke-width="0.2" stroke-linejoin="round" d="M 62.2499,43L 48.9999,29.7501L 35.75,43L 62.2499,43 Z M 24,35.8456L 24,23.08L 22.9781,23.5451L 22.0558,23.8657L 21.0781,24.0874L 19.9896,24.2438L 19.9896,20.2854L 21.5294,19.9371L 23.0197,19.4186L 24.51,18.6882C 25.0088,18.4072 25.522,18.2151 26.0498,17.8456L 29,17.8456L 29,35.8456L 24,35.8456 Z M 32.1866,48.2467C 32.1866,49.582 32.0316,50.8499 31.7215,52.0506C 31.4115,53.2513 30.9286,54.3029 30.2728,55.2054C 29.617,56.1079 28.7739,56.825 27.7434,57.3568C 26.7129,57.8885 25.4799,58.1544 24.0444,58.1544L 22.649,58.0811L 21.4991,57.901L 20.6085,57.6774L 19.9752,57.4617L 19.9752,53.3925L 20.5511,53.7013L 21.3685,53.9922L 22.3264,54.2079L 23.316,54.295C 24.5537,54.295 25.5004,53.9526 26.1561,53.2678C 26.8119,52.583 27.1477,51.577 27.1635,50.2496L 27.0883,50.2496C 26.7347,50.7035 26.2795,51.0644 25.7227,51.3322C 25.1659,51.6 24.4916,51.734 23.7,51.734C 23.0825,51.734 22.4867,51.6146 21.9128,51.3757C 21.3388,51.1369 20.8295,50.7886 20.3849,50.3307C 19.9402,49.8729 19.7408,49.3368 19.473,48.6613C 19.2052,47.9857 19.0712,47.2138 19.0712,46.3456C 19.0712,45.2901 19.2421,44.3566 19.5838,43.5451C 19.9256,42.7337 20.2364,42.0229 20.8302,41.474C 21.4239,40.9251 22.1226,40.5108 22.9261,40.2311C 23.7297,39.9513 24.5932,39.8115 25.5169,39.8115C 25.9866,39.8115 26.4794,39.8649 26.9953,39.9718C 27.5112,40.0787 28.0146,40.2581 28.5054,40.5101C 28.9962,40.7621 29.464,41.0979 29.9086,41.5175C 30.3533,41.9371 30.7452,42.4603 31.0842,43.087C 31.4233,43.7137 31.6919,44.452 31.8898,45.3017C 32.0877,46.1514 32.1866,47.1331 32.1866,48.2467 Z M 26.9656,45.935L 26.8726,45.1552L 26.5935,44.4546C 26.4695,44.2435 26.3151,44.0746 26.1304,43.9479C 25.9457,43.8213 25.7253,43.7579 25.4694,43.7579C 25.0234,43.7579 24.6539,43.9367 24.361,44.2943C 24.0681,44.6518 23.9216,45.2067 23.9216,45.9588C 23.9216,46.6581 24.0661,47.1891 24.3551,47.552C 24.644,47.9148 25.0075,48.0963 25.4456,48.0963C 25.7095,48.0963 25.9358,48.0408 26.1245,47.93C 26.3131,47.8192 26.4695,47.6648 26.5935,47.4669L 26.8726,46.7742L 26.9656,45.935 Z "/>
</svg>
