<?xml version="1.0" encoding="utf-8"?>
<!DOCTYPE svg PUBLIC "-//W3C//DTD SVG 1.1//EN" "http://www.w3.org/Graphics/SVG/1.1/DTD/svg11.dtd">
<svg xmlns="http://www.w3.org/2000/svg" xmlns:xlink="http://www.w3.org/1999/xlink" version="1.1" baseProfile="full" width="76.0106" height="76.0106" viewBox="0 0 76.01 76.01" enable-background="new 0 0 76.01 76.01" xml:space="preserve">
	<path fill="#000000" fill-opacity="1" stroke-width="0.2" stroke-linejoin="round" d="M 20.5862,38.0051L 20.6015,38.0229C 20.7201,35.6901 21.5254,33.4955 22.8635,31.5595C 20.1783,28.1147 20.2328,23.5812 22.9871,21.4293C 25.7438,19.2756 30.161,20.323 32.8532,23.7689L 33.41,24.5569C 35.3471,24.0359 37.4258,23.7531 39.5889,23.7531C 41.7519,23.7531 43.8306,24.0359 45.7677,24.5569L 46.3245,23.7689C 49.0167,20.323 53.4339,19.2756 56.1906,21.4293C 58.9449,23.5812 58.9994,28.1147 56.3142,31.5595C 57.6523,33.4955 58.4576,35.6901 58.5762,38.0229L 58.5915,38.0051C 58.5915,38.0051 58.5915,42.7558 64.9257,49.09C 60.1751,49.09 58.5915,47.5064 58.5915,47.5064C 58.5915,47.5064 60.1751,49.09 61.7586,52.2571C 60.1751,52.2571 58.5915,50.6735 58.5915,50.6735L 58.5915,52.2571L 55.4244,50.6735L 55.4244,53.8406L 52.2573,50.6735L 52.2573,53.8406L 50.3028,50.909C 47.2526,52.5415 43.5632,53.4964 39.5889,53.4964C 35.6145,53.4964 31.9251,52.5415 28.8749,50.909L 26.9204,53.8406L 26.9204,50.6735L 23.7533,53.8406L 23.7533,50.6735L 20.5862,52.2571L 20.5862,50.6735C 20.5862,50.6735 19.0026,52.2571 17.4191,52.2571C 19.0026,49.09 20.5862,47.5064 20.5862,47.5064C 20.5862,47.5064 19.0026,49.09 14.252,49.09C 20.5862,42.7558 20.5862,38.0051 20.5862,38.0051 Z M 24.9371,23.9253C 23.6724,24.9134 23.7299,27.1409 24.9958,29.0987C 26.4763,27.7112 28.2737,26.5381 30.301,25.6475C 28.6861,23.633 26.2995,22.8609 24.9371,23.9253 Z M 54.2405,23.9253C 52.8782,22.8609 50.4916,23.633 48.8766,25.6475C 50.904,26.5381 52.7014,27.7112 54.1818,29.0987C 55.4478,27.1409 55.5053,24.9134 54.2405,23.9253 Z M 31.6711,33.2545C 29.9219,33.2545 28.504,34.6724 28.504,36.4216C 28.504,38.1707 29.9219,39.5887 31.6711,39.5887C 33.4202,39.5887 34.8382,38.1707 34.8382,36.4216C 34.8382,34.6724 33.4202,33.2545 31.6711,33.2545 Z M 47.5066,33.2545C 45.7575,33.2545 44.3395,34.6724 44.3395,36.4216C 44.3395,38.1707 45.7575,39.5887 47.5066,39.5887C 49.2557,39.5887 50.6737,38.1707 50.6737,36.4216C 50.6737,34.6724 49.2557,33.2545 47.5066,33.2545 Z M 39.5888,44.3393C 39.5888,44.3393 36.4217,44.3393 36.4217,45.1311C 36.4217,48.1921 37.8397,50.6735 39.5888,50.6735C 41.338,50.6735 42.7559,48.1921 42.7559,45.1311C 42.756,44.3393 39.5888,44.3393 39.5888,44.3393 Z M 39.5889,39.5886C 38.7143,39.5886 38.0053,40.2976 38.0053,41.1722C 38.0053,42.0468 38.7143,42.7558 39.5889,42.7558C 40.4634,42.7558 41.1724,42.0468 41.1724,41.1722C 41.1724,40.2976 40.4634,39.5886 39.5889,39.5886 Z "/>
</svg>
