<?xml version="1.0" encoding="utf-8"?>
<!DOCTYPE svg PUBLIC "-//W3C//DTD SVG 1.1//EN" "http://www.w3.org/Graphics/SVG/1.1/DTD/svg11.dtd">
<svg xmlns="http://www.w3.org/2000/svg" xmlns:xlink="http://www.w3.org/1999/xlink" version="1.1" baseProfile="full" width="76" height="76" viewBox="0 0 76.00 76.00" enable-background="new 0 0 76.00 76.00" xml:space="preserve">
	<path fill="#000000" fill-opacity="1" stroke-width="0.2" stroke-linejoin="round" d="M 25.3333,20.5833C 23.5844,20.5833 22.1667,22.0011 22.1667,23.75C 22.1667,25.4989 23.5844,26.9167 25.3333,26.9167C 27.0822,26.9167 28.5,25.4989 28.5,23.75C 28.5,22.0011 27.0822,20.5833 25.3333,20.5833 Z M 25.3333,15.8334C 29.7056,15.8334 33.2499,19.3778 33.2499,23.75C 33.2499,26.9964 31.296,29.7863 28.5,31.008L 28.5,44.9921C 31.296,46.2137 33.25,49.0037 33.25,52.25C 33.25,56.6223 29.7056,60.1667 25.3333,60.1667C 20.9611,60.1667 17.4167,56.6223 17.4167,52.25C 17.4167,49.0037 19.3706,46.2137 22.1666,44.9921L 22.1666,31.008C 19.3706,29.7863 17.4166,26.9964 17.4166,23.75C 17.4166,19.3778 20.9611,15.8334 25.3333,15.8334 Z M 25.3333,49.0834C 23.5844,49.0834 22.1667,50.5011 22.1667,52.25C 22.1667,53.9989 23.5844,55.4167 25.3333,55.4167C 27.0822,55.4167 28.5,53.9989 28.5,52.25C 28.5,50.5011 27.0822,49.0834 25.3333,49.0834 Z M 42.75,26.9167L 42.75,31.6667L 34.8333,23.75L 42.7499,15.8334L 42.7499,20.5834L 47.5,20.5834C 50.9978,20.5834 53.8333,23.4189 53.8333,26.9167L 53.8333,44.9921C 56.6293,46.2137 58.5833,49.0037 58.5833,52.25C 58.5833,56.6223 55.0389,60.1667 50.6666,60.1667C 46.2944,60.1667 42.75,56.6223 42.75,52.25C 42.75,49.0037 44.7039,46.2137 47.5,44.9921L 47.5,30.0833C 47.5,28.3344 46.0822,26.9167 44.3333,26.9167L 42.75,26.9167 Z M 50.6666,49.0834C 48.9177,49.0834 47.5,50.5011 47.5,52.25C 47.5,53.9989 48.9177,55.4167 50.6666,55.4167C 52.4155,55.4167 53.8333,53.9989 53.8333,52.25C 53.8333,50.5011 52.4155,49.0834 50.6666,49.0834 Z "/>
</svg>
