<?xml version="1.0" encoding="utf-8"?>
<!DOCTYPE svg PUBLIC "-//W3C//DTD SVG 1.1//EN" "http://www.w3.org/Graphics/SVG/1.1/DTD/svg11.dtd">
<svg xmlns="http://www.w3.org/2000/svg" xmlns:xlink="http://www.w3.org/1999/xlink" version="1.1" baseProfile="full" width="76" height="76" viewBox="0 0 76.00 76.00" enable-background="new 0 0 76.00 76.00" xml:space="preserve">
	<path fill="#000000" fill-opacity="1" stroke-width="0.2" stroke-linejoin="round" d="M 39.9486,56.9642L 36.1486,56.9642C 27.7675,56.9642 20.9486,50.1435 20.9486,41.7642L 20.9486,22.7641C 20.9486,20.6637 22.6501,18.9641 24.7486,18.9641C 26.847,18.9641 28.5486,20.6637 28.5486,22.7641L 28.5486,41.7642C 28.5486,45.9538 31.9601,49.3642 36.1486,49.3642L 39.9486,49.3642C 44.1371,49.3642 47.5486,46.3806 47.5486,42.7142C 47.5486,38.9661 45.5051,36.0641 43.7486,36.0641L 36.1486,36.0641C 34.0502,36.0641 32.3486,34.3608 32.3486,32.2641C 32.3486,30.1637 34.0502,28.4641 36.1486,28.4641L 43.7486,28.4641C 50.0355,28.4641 55.1486,34.8544 55.1486,42.7142C 55.1486,50.5702 48.3297,56.9642 39.9486,56.9642 Z "/>
</svg>
