<?xml version="1.0" encoding="utf-8"?>
<!DOCTYPE svg PUBLIC "-//W3C//DTD SVG 1.1//EN" "http://www.w3.org/Graphics/SVG/1.1/DTD/svg11.dtd">
<svg xmlns="http://www.w3.org/2000/svg" xmlns:xlink="http://www.w3.org/1999/xlink" version="1.1" baseProfile="full" width="76.0106" height="76.0106" viewBox="0 0 76.01 76.01" enable-background="new 0 0 76.01 76.01" xml:space="preserve">
	<path fill="#000000" fill-opacity="1" stroke-width="0.2" stroke-linejoin="round" d="M 34.0047,52.0073L 31.0042,52.0073L 31.0042,38.5053C 29.6649,39.8964 28.157,40.7849 26.3412,41.4502L 26.3412,37.7553C 27.2998,37.4474 28.3405,36.8645 29.4634,36.0068C 30.5862,35.149 31.3572,34.1483 31.7762,33.0046L 34.0047,33.0046L 34.0047,52.0073 Z M 45.0063,52.0073L 45.0063,48.0067L 37.0052,48.0067L 37.0052,45.0063L 45.0063,33.0046L 48.0067,33.0046L 48.0067,45.0063L 50.007,45.0063L 50.007,48.0067L 48.0067,48.0067L 48.0067,52.0073L 45.0063,52.0073 Z M 45.0063,45.0063L 45.0063,38.2555L 40.2556,45.0063L 45.0063,45.0063 Z M 18.0025,57.0082L 18.0025,23.0033L 23.0032,23.0033L 23.0032,20.0029C 23.0033,18.898 23.8988,18.0026 25.0035,18.0026L 29.004,18.0026C 30.1087,18.0026 31.0042,18.898 31.0043,20.0026L 31.0043,23.0033L 45.0063,23.0033L 45.0062,20.0026C 45.0062,18.8979 45.9018,18.0023 47.0065,18.0023L 51.0071,18.0023C 52.1118,18.0023 53.0074,18.8979 53.0074,20.0026L 53.0074,23.0033L 58.0081,23.0033L 58.0081,57.0082L 18.0025,57.0082 Z M 21.0029,54.0078L 55.0076,54.0078L 55.0076,31.0044L 21.0029,31.0044L 21.0029,54.0078 Z M 48.5067,20.0029C 47.6782,20.0029 47.0065,20.6746 47.0065,21.5031L 47.0065,24.5035C 47.0065,25.3321 47.6782,26.0038 48.5067,26.0038L 49.5068,26.0038C 50.3354,26.0038 51.007,25.3321 51.007,24.5035L 51.007,21.5031C 51.007,20.6746 50.3354,20.0029 49.5068,20.0029L 48.5067,20.0029 Z M 26.5037,20.0029C 25.6751,20.0029 25.0035,20.6745 25.0035,21.5031L 25.0035,24.5035C 25.0035,25.3321 25.6751,26.0037 26.5037,26.0037L 27.5038,26.0037C 28.3324,26.0037 29.004,25.3321 29.004,24.5035L 29.004,21.5031C 29.004,20.6745 28.3324,20.0029 27.5038,20.0029L 26.5037,20.0029 Z "/>
</svg>
