<?xml version="1.0" encoding="utf-8"?>
<!DOCTYPE svg PUBLIC "-//W3C//DTD SVG 1.1//EN" "http://www.w3.org/Graphics/SVG/1.1/DTD/svg11.dtd">
<svg xmlns="http://www.w3.org/2000/svg" xmlns:xlink="http://www.w3.org/1999/xlink" version="1.1" baseProfile="full" width="76" height="76" viewBox="0 0 76.00 76.00" enable-background="new 0 0 76.00 76.00" xml:space="preserve">
	<path fill="#000000" fill-opacity="1" stroke-width="0.2" stroke-linejoin="round" d="M 23.75,19C 26.125,20.3195 28.5,21.6389 30.875,21.6389C 33.25,21.6389 35.625,20.3195 38,19C 40.375,20.3195 42.75,21.6389 45.125,21.6389C 47.5,21.6389 49.875,20.3195 52.25,19L 56.2083,26.5209L 38,26.5209L 19.7916,26.5209L 23.75,19 Z M 56.9999,33.2501C 56.9999,38.5278 55.4167,42.75 52.25,47.5C 49.0833,52.25 41.1666,56.6042 38,56.6042C 34.8333,56.6042 26.9167,52.25 23.75,47.5C 20.5833,42.75 19,38.5278 19,33.2501C 19,31.5012 19,30.0833 19.3958,28.1042L 56.6041,28.1042C 57,30.0833 56.9999,31.5012 56.9999,33.2501 Z M 26.7847,43.799C 26.9892,45.0986 27.4521,46.0756 28.1734,46.7298C 28.8947,47.384 29.8414,47.7111 31.0135,47.7111C 32.6386,47.7111 33.9586,47.1009 34.9735,45.8804C 35.9884,44.6599 36.4958,42.6708 36.4958,39.9132C 36.4958,37.2039 36.0126,35.2578 35.0461,34.0747C 34.0796,32.8916 32.8432,32.3 31.3368,32.3C 29.9514,32.3 28.8111,32.7624 27.9161,33.6871C 27.0211,34.6118 26.5736,35.8284 26.5736,37.337C 26.5736,38.7862 27.0107,39.9627 27.8848,40.8665C 28.7589,41.7703 29.7985,42.2222 31.0036,42.2222C 32.112,42.2222 33.0356,41.8 33.7745,40.9556C 33.6579,42.6796 33.3885,43.8144 32.9663,44.3597C 32.5441,44.9051 32.0317,45.1778 31.4291,45.1778C 30.9541,45.1778 30.571,45.0398 30.2796,44.7638C 29.9882,44.4878 29.8084,44.0629 29.7403,43.4889L 26.7847,43.799 Z M 33.5403,37.4162C 33.5403,38.1616 33.3489,38.7268 32.9663,39.1116C 32.5837,39.4965 32.1131,39.6889 31.5545,39.6889C 30.9761,39.6889 30.494,39.4888 30.108,39.0886C 29.7221,38.6883 29.5291,38.0616 29.5291,37.2083C 29.5291,36.3661 29.7067,35.7597 30.0619,35.3892C 30.417,35.0186 30.8629,34.8333 31.3995,34.8333C 31.9646,34.8333 32.4627,35.0588 32.8937,35.5096C 33.3247,35.9604 33.5403,36.5959 33.5403,37.4162 Z M 44.9403,47.5L 47.8958,47.5L 47.8958,44.5444L 49.7958,44.5444L 49.7958,42.0111L 47.8958,42.0111L 47.8958,32.5111L 45.3328,32.5111L 38.818,42.021L 38.818,44.5444L 44.9403,44.5444L 44.9403,47.5 Z M 44.9403,42.0111L 41.5922,42.0111L 44.9403,37.1292L 44.9403,42.0111 Z "/>
</svg>
