<?xml version="1.0" encoding="utf-8"?>
<!DOCTYPE svg PUBLIC "-//W3C//DTD SVG 1.1//EN" "http://www.w3.org/Graphics/SVG/1.1/DTD/svg11.dtd">
<svg xmlns="http://www.w3.org/2000/svg" xmlns:xlink="http://www.w3.org/1999/xlink" version="1.1" baseProfile="full" width="76" height="76" viewBox="0 0 76.00 76.00" enable-background="new 0 0 76.00 76.00" xml:space="preserve">
	<path fill="#000000" fill-opacity="1" stroke-width="0.2" stroke-linejoin="round" d="M 55.7107,34.156L 36.6837,49.1306L 29.519,42.785C 28.8595,42.9775 28.159,43.0839 27.4354,43.0839C 23.4352,43.0839 20.1934,39.9354 20.1934,36.0489C 20.1934,32.1657 23.4352,29.0147 27.4354,29.0147C 31.4346,29.0147 34.679,32.1657 34.679,36.0489C 34.679,37.0914 34.4388,38.0781 34.0199,38.9681L 36.9493,43.711L 55.7242,24.3563M 56.9998,21.7448L 42.7852,36.2452L 37.6734,31.3183L 35.5298,33.3808C 34.391,30.1361 31.2185,27.8003 27.4903,27.8003C 22.8049,27.8003 19.0002,31.4893 19.0002,36.0383C 19.0002,40.5498 22.7309,44.2113 27.3606,44.2742L 37.6371,54.256L 49.4428,42.7871L 48.3164,41.6188L 56.9998,34.8983L 56.9998,21.7448 Z "/>
</svg>
