<?xml version="1.0" encoding="utf-8"?>
<!DOCTYPE svg PUBLIC "-//W3C//DTD SVG 1.1//EN" "http://www.w3.org/Graphics/SVG/1.1/DTD/svg11.dtd">
<svg xmlns="http://www.w3.org/2000/svg" xmlns:xlink="http://www.w3.org/1999/xlink" version="1.1" baseProfile="full" width="76" height="76" viewBox="0 0 76.00 76.00" enable-background="new 0 0 76.00 76.00" xml:space="preserve">
	<path fill="#000000" fill-opacity="1" stroke-width="0.2" stroke-linejoin="round" d="M 41.1667,34.8333C 41.1667,36.5822 39.7489,38 38,38C 36.2511,38 34.8333,36.5822 34.8333,34.8333C 34.8333,33.6612 35.4701,32.6378 36.4167,32.0903L 36.4167,22.1667L 34.9773,22.1667L 28.5,38L 34.8333,47.5L 41.1667,47.5L 47.5,38L 41.0227,22.1667L 39.5833,22.1667L 39.5833,32.0903C 40.5299,32.6378 41.1667,33.6612 41.1667,34.8333 Z M 31.6667,47.5L 25.3333,38L 33.25,19L 42.75,19L 50.6666,38L 44.3333,47.5L 45.9167,47.5C 46.7911,47.5 47.5,48.2089 47.5,49.0833L 47.5,53.8333C 47.5,55.5822 46.0822,57 44.3333,57L 31.6667,57C 29.9178,57 28.5,55.5822 28.5,53.8333L 28.5,49.0833C 28.5,48.2089 29.2089,47.5 30.0833,47.5L 31.6667,47.5 Z M 33.25,53.8333L 42.75,53.8333C 43.6244,53.8333 44.3333,53.1245 44.3333,52.25C 44.3333,51.3756 43.6244,50.6667 42.75,50.6667L 33.25,50.6667C 32.3755,50.6667 31.6667,51.3756 31.6667,52.25C 31.6667,53.1245 32.3755,53.8333 33.25,53.8333 Z "/>
</svg>
