<?xml version="1.0" encoding="utf-8"?>
<!DOCTYPE svg PUBLIC "-//W3C//DTD SVG 1.1//EN" "http://www.w3.org/Graphics/SVG/1.1/DTD/svg11.dtd">
<svg xmlns="http://www.w3.org/2000/svg" xmlns:xlink="http://www.w3.org/1999/xlink" version="1.1" baseProfile="full" width="76" height="76" viewBox="0 0 76.00 76.00" enable-background="new 0 0 76.00 76.00" xml:space="preserve">
	<path fill="#000000" fill-opacity="1" stroke-width="0.2" stroke-linejoin="round" d="M 19,19L 28.5,19L 28.5,28.5L 19,28.5L 19,19 Z M 39.5833,18.9999L 42.7501,18.9998L 42.7502,23.7498L 44.3335,23.7498L 44.3334,18.9998L 47.5,18.9999L 47.5001,25.3332L 49.0834,25.3332L 49.0834,18.9999L 52.25,19L 52.2501,23.7499L 53.8334,23.7499L 53.8333,19L 57,19L 57,28.4999L 30.0833,28.5L 30.0833,19L 33.25,19L 33.25,23.7499L 34.8333,23.7499L 34.8333,19L 38,18.9999L 38.0001,25.3332L 39.5834,25.3332L 39.5833,18.9999 Z M 19.0001,47.5L 19,44.3333L 23.7499,44.3332L 23.7499,42.7498L 19,42.7499L 19.0001,39.5833L 25.3333,39.5833L 25.3333,37.9999L 19.0001,38L 19.0001,34.8334L 23.75,34.8333L 23.75,33.25L 19.0001,33.2501L 19.0001,30.0834L 28.5001,30.0833L 28.5001,57.0001L 19.0002,57.0001L 19.0001,53.8334L 23.7501,53.8334L 23.7501,52.25L 19.0001,52.2501L 19.0001,49.0834L 25.3334,49.0833L 25.3334,47.5L 19.0001,47.5 Z "/>
</svg>
