<?xml version="1.0" encoding="utf-8"?>
<!DOCTYPE svg PUBLIC "-//W3C//DTD SVG 1.1//EN" "http://www.w3.org/Graphics/SVG/1.1/DTD/svg11.dtd">
<svg xmlns="http://www.w3.org/2000/svg" xmlns:xlink="http://www.w3.org/1999/xlink" version="1.1" baseProfile="full" width="76" height="76" viewBox="0 0 76.00 76.00" enable-background="new 0 0 76.00 76.00" xml:space="preserve">
	<path fill="#000000" fill-opacity="1" stroke-width="0.2" stroke-linejoin="round" d="M 53.4146,43.0458C 53.4192,44.1799 53.0616,46.2311 52.1825,47.5159C 51.3098,48.8024 50.7605,49.2812 49.7281,49.2111C 48.404,49.1055 45.744,45.0167 44.0551,44.9488C 41.9263,44.8855 37.3144,49.4096 33.6769,49.4248C 31.4716,49.4336 30.8113,49.1068 30.0758,48.6322C 28.9683,47.868 28.4126,46.6993 28.4422,45.0877C 28.4692,42.2301 31.1368,39.5498 34.5184,39.5008C 38.8132,39.4451 41.8102,43.7138 43.9749,43.6707C 45.8129,43.6285 49.3257,40.0235 51.0526,40.0168C 52.888,40.0092 53.4099,41.908 53.4146,43.0458 Z M 40.1846,50.0784C 40.587,49.7093 41.2486,49.1208 41.8718,48.8628C 42.4959,48.6031 42.8223,48.6386 43.4129,48.636C 43.999,48.6339 44.6268,48.6682 45.0668,48.9612C 45.5076,49.2525 45.7694,49.9086 45.915,50.2713C 46.0649,50.6395 45.9176,50.8586 45.6267,51.0077C 45.3708,51.1534 45.3328,51.0811 45.0735,50.6078C 44.8168,50.1333 44.5939,49.6561 43.3074,49.6617C 42.0226,49.6671 41.6193,50.1096 40.9966,50.6243C 40.375,51.1386 40.1538,51.3231 39.9317,51.0309C 39.7105,50.74 39.7827,50.4457 40.1846,50.0784 Z M 46.5636,53.1344C 46.3791,53.3164 44.6944,54.4957 42.7125,54.6882C 40.7293,54.8778 38.0473,54.9994 36.4264,53.541C 36.1689,53.2851 36.2385,52.9216 36.4235,52.7747C 36.6059,52.6248 36.7524,52.5137 36.9732,52.5129C 37.1953,52.5125 37.1548,52.5125 37.2679,52.5855C 38.0051,53.1694 39.108,53.6386 41.4572,53.6289C 43.8103,53.6191 45.4616,52.9571 46.1924,52.4019C 46.5222,52.1452 46.6695,52.3643 46.7084,52.5112C 46.7443,52.6569 46.8194,52.8781 46.5636,53.1344 Z M 46.3026,25.8947C 44.3515,24.6926 42.5094,24.2257 40.6689,23.0236C 39.5276,22.2598 37.9422,20.4358 36.6105,18.8676C 36.366,21.3951 35.598,22.4249 34.7181,23.1617C 32.8536,24.631 31.6789,25.0743 30.0644,25.961C 28.709,26.6627 21.3434,31.0847 21.3818,40.5311C 21.4206,49.9758 29.4217,56.8973 38.2724,56.8609C 47.1268,56.8247 54.7779,50.3875 54.7384,40.6864C 54.6985,30.9846 47.4806,26.6218 46.3026,25.8947 Z "/>
</svg>
