<?xml version="1.0" encoding="utf-8"?>
<!DOCTYPE svg PUBLIC "-//W3C//DTD SVG 1.1//EN" "http://www.w3.org/Graphics/SVG/1.1/DTD/svg11.dtd">
<svg xmlns="http://www.w3.org/2000/svg" xmlns:xlink="http://www.w3.org/1999/xlink" version="1.1" baseProfile="full" width="76" height="76" viewBox="0 0 76.00 76.00" enable-background="new 0 0 76.00 76.00" xml:space="preserve">
	<path fill="#000000" fill-opacity="1" stroke-width="0.2" stroke-linejoin="round" d="M 22.1667,23.75L 53.8333,23.75C 55.5822,23.75 57,25.1678 57,26.9167L 57,49.0833C 57,50.8322 55.5822,52.25 53.8333,52.25L 22.1667,52.25C 20.4178,52.25 19,50.8322 19,49.0833L 19,26.9167C 19,25.1678 20.4178,23.75 22.1667,23.75 Z M 22.1667,29.2917L 22.1667,46.7083C 22.1667,48.02 23.23,49.0833 24.5417,49.0833L 51.4583,49.0833C 52.77,49.0833 53.8333,48.02 53.8333,46.7083L 53.8333,29.4798L 40.6563,42.6567C 39.4197,43.8933 37.4146,43.8933 36.178,42.6567L 22.237,28.7156C 22.191,28.9001 22.1667,29.093 22.1667,29.2917 Z M 51.4583,26.9167L 24.9164,26.9167L 36.7378,38.7381C 37.6653,39.6656 39.169,39.6656 40.0965,38.7381L 51.8807,26.9541C 51.7436,26.9295 51.6025,26.9167 51.4583,26.9167 Z "/>
</svg>
