<?xml version="1.0" encoding="utf-8"?>
<!DOCTYPE svg PUBLIC "-//W3C//DTD SVG 1.1//EN" "http://www.w3.org/Graphics/SVG/1.1/DTD/svg11.dtd">
<svg xmlns="http://www.w3.org/2000/svg" xmlns:xlink="http://www.w3.org/1999/xlink" version="1.1" baseProfile="full" width="76" height="76" viewBox="0 0 76.00 76.00" enable-background="new 0 0 76.00 76.00" xml:space="preserve">
	<path fill="#000000" fill-opacity="1" stroke-width="0.2" stroke-linejoin="round" d="M 24.2467,52.1597L 24.2467,22.708L 29.6216,22.708L 29.6216,52.1597L 24.2467,52.1597 Z M 48.1075,21.1342L 53.0289,21.1342L 53.0289,46.1733L 53.1886,52.1597L 48.7882,52.1597L 48.5889,48.7949L 48.5084,48.7949C 47.3476,51.1546 44.9888,52.6406 42.1477,52.6406C 37.5088,52.6406 33.8286,48.3144 33.8286,41.7594C 33.7881,34.6371 37.8678,30.3981 42.5486,30.3981C 45.229,30.3981 47.1487,31.6218 48.0288,33.1951L 48.1075,33.1951L 48.1075,21.1342 Z M 38.8274,41.5849C 38.8274,45.4738 40.5879,48.3144 43.7093,48.3144C 45.7091,48.3144 47.4677,46.8289 47.9482,44.5128C 48.0684,44.0319 48.1075,43.5077 48.1075,42.9395L 48.1075,39.7497L 47.9892,38.3514C 47.5483,36.254 45.9889,34.5498 43.7484,34.5498C 40.5879,34.5498 38.8274,37.6082 38.8274,41.5849 Z "/>
</svg>
