<?xml version="1.0" encoding="utf-8"?>
<!DOCTYPE svg PUBLIC "-//W3C//DTD SVG 1.1//EN" "http://www.w3.org/Graphics/SVG/1.1/DTD/svg11.dtd">
<svg xmlns="http://www.w3.org/2000/svg" xmlns:xlink="http://www.w3.org/1999/xlink" version="1.1" baseProfile="full" width="76" height="76" viewBox="0 0 76.00 76.00" enable-background="new 0 0 76.00 76.00" xml:space="preserve">
	<path fill="#000000" fill-opacity="1" stroke-linejoin="round" d="M 21.3,17L 46.7,17C 47.418,17 48,17.5821 48,18.3L 48,24.7C 48,25.418 47.418,26 46.7,26L 31.3,26C 30.0298,26 29,27.0298 29,28.3L 29,49.7C 29,50.418 28.418,51 27.7,51L 21.3,51C 20.582,51 20,50.418 20,49.7L 20,18.3C 20,17.582 20.582,17 21.3,17 Z M 33.3,29L 54.7,29C 55.418,29 56,29.5821 56,30.3L 56,57.7C 56,58.418 55.418,59 54.7,59L 33.3,59C 32.582,59 32,58.418 32,57.7L 32,30.3C 32,29.5821 32.582,29 33.3,29 Z M 50.1117,42.1675C 50.1117,40.6897 49.9527,39.4316 49.6347,38.3932C 49.3167,37.3548 48.8879,36.5077 48.3482,35.852C 47.8086,35.1962 47.1819,34.7179 46.468,34.4171C 45.7542,34.1162 44.9975,33.9658 44.1979,33.9658C 43.3482,33.9658 42.5605,34.1077 41.8348,34.3914C 41.1091,34.675 40.4784,35.0788 39.9427,35.6026C 39.407,36.1264 38.9868,36.7617 38.682,37.5085C 38.3772,38.2553 38.2248,39.0906 38.2248,40.0142C 38.2248,40.856 38.3587,41.6186 38.6266,42.3021C 38.8944,42.9856 39.2632,43.5668 39.7329,44.0457C 40.2027,44.5247 40.7575,44.8941 41.3974,45.1541C 42.0373,45.414 42.7281,45.544 43.4696,45.544C 43.905,45.544 44.3147,45.4899 44.6987,45.3817C 45.0826,45.2735 45.4316,45.131 45.7456,44.9542C 46.0597,44.7774 46.3381,44.5715 46.5809,44.3367C 46.8236,44.1018 47.0189,43.8524 47.1667,43.5885L 47.2181,43.5885C 47.2181,44.6362 47.1086,45.5578 46.8896,46.3534C 46.6706,47.1491 46.3592,47.8147 45.9554,48.3504C 45.5517,48.8861 45.0628,49.2899 44.4889,49.5617C 43.9149,49.8335 43.2783,49.9694 42.579,49.9694L 41.631,49.8902L 40.6909,49.6804L 39.8556,49.3835L 39.2144,49.055L 39.2144,51.6398L 39.8378,51.8694L 40.679,52.0871L 41.6567,52.2474L 42.6779,52.3087C 43.7177,52.3087 44.6888,52.1128 45.5913,51.7209C 46.4938,51.3291 47.2808,50.7208 47.9524,49.8961C 48.624,49.0715 49.1518,48.0199 49.5357,46.7413C 49.9197,45.4628 50.1117,43.9382 50.1117,42.1675 Z M 47.1192,40.2715C 47.1192,40.6778 47.0446,41.0578 46.8955,41.4115C 46.7464,41.7651 46.5419,42.0718 46.282,42.3318C 46.0221,42.5917 45.7173,42.7982 45.3676,42.9513C 45.018,43.1043 44.636,43.1808 44.2217,43.1808C 43.7599,43.1808 43.3377,43.1043 42.955,42.9513C 42.5724,42.7982 42.2452,42.5752 41.9734,42.2823C 41.7015,41.9894 41.4891,41.6285 41.3361,41.1997C 41.183,40.7709 41.1065,40.2767 41.1065,39.7173C 41.1065,39.2053 41.185,38.7389 41.342,38.318C 41.499,37.8971 41.7114,37.5382 41.9793,37.2414C 42.2471,36.9445 42.5605,36.7156 42.9194,36.5546C 43.2783,36.3936 43.6556,36.3131 44.0515,36.3131C 44.4948,36.3131 44.9045,36.4081 45.2805,36.5981C 45.6566,36.7881 45.9805,37.0566 46.2523,37.4036C 46.5241,37.7507 46.7365,38.1669 46.8896,38.6525C 47.0426,39.1381 47.1192,39.6777 47.1192,40.2715 Z "/>
</svg>
