<?xml version="1.0" encoding="utf-8"?>
<!DOCTYPE svg PUBLIC "-//W3C//DTD SVG 1.1//EN" "http://www.w3.org/Graphics/SVG/1.1/DTD/svg11.dtd">
<svg xmlns="http://www.w3.org/2000/svg" xmlns:xlink="http://www.w3.org/1999/xlink" version="1.1" baseProfile="full" width="76" height="76" viewBox="0 0 76.00 76.00" enable-background="new 0 0 76.00 76.00" xml:space="preserve">
	<path fill="#000000" fill-opacity="1" stroke-width="0.2" stroke-linejoin="round" d="M 51.8159,38L 57.006,41.0281L 50.6228,48.6281L 50.6228,48.7469L 60.1667,46.8469L 60.1667,52.8438L 50.5631,51.2406L 50.5631,51.3594L 57.006,58.7219L 51.7562,61.75L 48.2962,52.6062L 48.1769,52.6062L 44.7765,61.75L 39.6461,58.7219L 46.0293,51.3L 45.9696,51.1813L 36.6037,52.8438L 36.6037,46.8469L 45.91,48.7469L 45.91,48.6281L 39.6461,41.0875L 44.9555,38L 48.2365,47.2031L 48.3559,47.2031L 51.8159,38 Z M 20.5833,17.4167L 43.5417,17.4167L 55.4167,29.2917L 55.4166,36.8125L 52.25,36.4167L 52.25,33.25L 39.5833,33.25L 39.5833,20.5833L 23.75,20.5834L 23.75,55.4167L 38.3958,55.4167L 38,58.5833L 20.5833,58.5833L 20.5833,17.4167 Z M 42.75,21.375L 42.75,30.0833L 51.4583,30.0833L 42.75,21.375 Z "/>
</svg>
