<?xml version="1.0" encoding="utf-8"?>
<!DOCTYPE svg PUBLIC "-//W3C//DTD SVG 1.1//EN" "http://www.w3.org/Graphics/SVG/1.1/DTD/svg11.dtd">
<svg xmlns="http://www.w3.org/2000/svg" xmlns:xlink="http://www.w3.org/1999/xlink" version="1.1" baseProfile="full" width="76.0106" height="76.0106" viewBox="0 0 76.01 76.01" enable-background="new 0 0 76.01 76.01" xml:space="preserve">
	<path fill="#000000" fill-opacity="1" stroke-width="0.2" stroke-linejoin="round" d="M 57.0079,20.5862L 57.0079,23.7533L 31.671,23.7534L 31.671,20.5863L 57.0079,20.5862 Z M 57.0079,26.9204L 57.0079,30.0876L 26.9209,30.0876L 26.9209,26.9205L 57.0079,26.9204 Z M 57.0079,33.2547L 57.0079,36.4218L 33.2543,36.4219L 33.2543,33.2548L 57.0079,33.2547 Z M 57.0079,39.5889L 57.0079,42.756L 23.7543,42.756L 23.7543,39.5889L 57.0079,39.5889 Z M 57.0079,45.9231L 57.0079,49.0902L 30.0877,49.0903L 30.0877,45.9231L 57.0079,45.9231 Z M 57.0079,52.2573L 57.0079,55.4244L 25.3376,55.4244L 25.3376,52.2573L 57.0079,52.2573 Z "/>
</svg>
