<?xml version="1.0" encoding="utf-8"?>
<!DOCTYPE svg PUBLIC "-//W3C//DTD SVG 1.1//EN" "http://www.w3.org/Graphics/SVG/1.1/DTD/svg11.dtd">
<svg xmlns="http://www.w3.org/2000/svg" xmlns:xlink="http://www.w3.org/1999/xlink" version="1.1" baseProfile="full" width="76" height="76" viewBox="0 0 76.00 76.00" enable-background="new 0 0 76.00 76.00" xml:space="preserve">
	<path fill="#000000" fill-opacity="1" stroke-linejoin="round" d="M 21.3,17L 46.7,17C 47.418,17 48,17.5821 48,18.3L 48,24.7C 48,25.418 47.418,26 46.7,26L 31.3,26C 30.0298,26 29,27.0298 29,28.3L 29,49.7C 29,50.418 28.418,51 27.7,51L 21.3,51C 20.582,51 20,50.418 20,49.7L 20,18.3C 20,17.582 20.582,17 21.3,17 Z M 33.3,29L 54.7,29C 55.4179,29 56,29.5821 56,30.3L 56,57.7C 56,58.418 55.4179,59 54.7,59L 33.3,59C 32.582,59 32,58.418 32,57.7L 32,30.3C 32,29.5821 32.582,29 33.3,29 Z M 48.1087,34.2627L 45.2152,34.2627C 44.8009,35.1784 44.2929,36.135 43.6912,37.1325C 43.0896,38.13 42.4365,39.1255 41.7319,40.1191L 39.531,43.0383L 37.2985,45.6904L 37.2985,48.105L 45.326,48.105L 45.326,52L 48.1087,52L 48.1087,48.105L 50.741,48.105L 50.741,45.7142L 48.1087,45.7142L 48.1087,34.2627 Z M 45.326,45.7142L 40.1921,45.7142L 42.6581,42.5C 43.5369,41.2967 44.4262,39.8862 45.326,38.2685L 45.326,45.7142 Z "/>
</svg>
