<?xml version="1.0" encoding="utf-8"?>
<!DOCTYPE svg PUBLIC "-//W3C//DTD SVG 1.1//EN" "http://www.w3.org/Graphics/SVG/1.1/DTD/svg11.dtd">
<svg xmlns="http://www.w3.org/2000/svg" xmlns:xlink="http://www.w3.org/1999/xlink" version="1.1" baseProfile="full" width="76" height="76" viewBox="0 0 76.00 76.00" enable-background="new 0 0 76.00 76.00" xml:space="preserve">
	<path fill="#000000" fill-opacity="1" stroke-width="0.2" stroke-linejoin="round" d="M 25.3333,23.75L 50.6667,23.75C 51.5411,23.75 51.8541,27.3125 51.8541,27.3125L 24.1458,27.3125C 24.1458,27.3125 24.4589,23.75 25.3333,23.75 Z M 35.625,19.7917L 40.375,19.7917C 40.8122,19.7917 41.9583,20.9378 41.9583,21.375C 41.9583,21.8122 40.8122,22.9584 40.375,22.9584L 35.625,22.9584C 35.1878,22.9584 34.0416,21.8122 34.0416,21.375C 34.0416,20.9378 35.1878,19.7917 35.625,19.7917 Z M 27.7083,28.5L 48.2916,28.5C 49.1661,28.5 49.875,29.2089 49.875,30.0834L 48.2916,53.8334C 48.2916,54.7078 47.5828,55.4167 46.7083,55.4167L 29.2917,55.4167C 28.4172,55.4167 27.7083,54.7078 27.7083,53.8334L 26.125,30.0834C 26.125,29.2089 26.8339,28.5 27.7083,28.5 Z M 30.0833,31.6667L 30.4792,52.25L 33.25,52.25L 32.8542,31.6667L 30.0833,31.6667 Z M 36.4167,31.6667L 36.4167,52.25L 39.5833,52.25L 39.5833,31.6667L 36.4167,31.6667 Z M 43.1458,31.6667L 42.75,52.25L 45.5208,52.25L 45.9167,31.6667L 43.1458,31.6667 Z "/>
</svg>
