<?xml version="1.0" encoding="utf-8"?>
<!DOCTYPE svg PUBLIC "-//W3C//DTD SVG 1.1//EN" "http://www.w3.org/Graphics/SVG/1.1/DTD/svg11.dtd">
<svg xmlns="http://www.w3.org/2000/svg" xmlns:xlink="http://www.w3.org/1999/xlink" version="1.1" baseProfile="full" width="76" height="76" viewBox="0 0 76.00 76.00" enable-background="new 0 0 76.00 76.00" xml:space="preserve">
	<path fill="#000000" fill-opacity="1" stroke-width="0.2" stroke-linejoin="round" d="M 34.8333,63.3333L 34.8333,52.25C 32.11,52.25 29.6543,51.1996 27.9221,49.5166C 26.9866,50.2377 25.8142,50.6667 24.5417,50.6667C 21.4811,50.6667 19,48.1856 19,45.125C 19,43.1018 20.0842,41.3319 21.7033,40.3644C 20.0307,38.9374 19,36.9857 19,34.8333C 19,31.6757 21.2185,28.9498 24.4274,27.679C 23.0709,26.7033 22.1667,24.954 22.1667,22.9583C 22.1667,19.8978 24.2933,17.4167 26.9167,17.4167C 27.4893,17.4167 28.0382,17.5349 28.5465,17.7515C 30.713,15.5963 33.7922,14.25 37.2083,14.25C 39.8704,14.25 42.3279,15.0676 44.3083,16.4483C 45.2106,15.8116 46.3116,15.4375 47.5,15.4375C 50.5606,15.4375 53.0417,17.9186 53.0417,20.9792C 53.0417,22.3206 52.5651,23.5506 51.772,24.5093C 54.8731,25.6822 57,28.0923 57,30.875C 57,32.8169 55.9642,34.5773 54.2844,35.8625C 55.9642,37.4333 57,39.5849 57,41.9583C 57,46.7678 52.7467,50.6667 47.5,50.6667C 45.501,50.6667 43.6462,50.1007 42.1159,49.134L 41.1667,50.0326L 41.1667,63.3333L 34.8333,63.3333 Z "/>
</svg>
