<?xml version="1.0" encoding="utf-8"?>
<!DOCTYPE svg PUBLIC "-//W3C//DTD SVG 1.1//EN" "http://www.w3.org/Graphics/SVG/1.1/DTD/svg11.dtd">
<svg xmlns="http://www.w3.org/2000/svg" xmlns:xlink="http://www.w3.org/1999/xlink" version="1.1" baseProfile="full" width="76" height="76" viewBox="0 0 76.00 76.00" enable-background="new 0 0 76.00 76.00" xml:space="preserve">
	<path fill="#000000" fill-opacity="1" stroke-linejoin="round" d="M 50.839,52.2824C 49.2599,54.5988 47.6263,56.9011 45.0474,56.9493C 42.509,56.9976 41.6954,55.4412 38.7989,55.4412C 35.8995,55.4412 34.9926,56.9011 32.596,56.9976C 30.1062,57.0912 28.2129,54.4958 26.6207,52.1896C 23.3679,47.4744 20.8853,38.8576 24.2242,33.0424C 25.8776,30.1544 28.8404,28.3272 32.051,28.279C 34.496,28.2338 36.806,29.9326 38.2994,29.9326C 39.7954,29.9326 42.5989,27.893 45.5465,28.1922C 46.7802,28.2433 50.2429,28.6909 52.4667,31.9551C 52.291,32.0709 48.3336,34.3806 48.3817,39.1922C 48.4303,44.9399 53.4028,46.8504 53.4606,46.8764C 53.4154,47.0114 52.6656,49.6039 50.839,52.2824 Z M 40.0103,21.8782C 41.3753,20.2737 43.6819,19.0802 45.5853,19C 45.8285,21.2288 44.9347,23.4607 43.6144,25.069C 42.2916,26.6744 40.126,27.925 38.0009,27.758C 37.7121,25.5774 38.7833,23.3032 40.0103,21.8782 Z "/>
</svg>
