<?xml version="1.0" encoding="utf-8"?>
<!DOCTYPE svg PUBLIC "-//W3C//DTD SVG 1.1//EN" "http://www.w3.org/Graphics/SVG/1.1/DTD/svg11.dtd">
<svg xmlns="http://www.w3.org/2000/svg" xmlns:xlink="http://www.w3.org/1999/xlink" version="1.1" baseProfile="full" width="76" height="76" viewBox="0 0 76.00 76.00" enable-background="new 0 0 76.00 76.00" xml:space="preserve">
	<path fill="#000000" fill-opacity="1" stroke-width="0.2" stroke-linejoin="round" d="M 54.0001,24L 58.0002,28L 55.0002,27.9999L 55.0002,45.9999L 46.0002,45.9999L 46.0002,43.9999L 53.0002,43.9999L 53.0002,27.9999L 50.0002,27.9999L 54.0001,24 Z M 51,31.0001L 51,33.0001L 44.0001,33L 44.0001,49L 47.0001,49L 43.0002,52.9998L 42.0002,52L 42.0002,31L 51,31.0001 Z M 19.0001,23.5L 41.0002,20L 41.0002,56L 19.0001,52.5L 19.0001,23.5 Z M 31.0001,45.5L 31,31.2501L 28.1875,31.8408L 28.191,44.7389L 31.0001,45.5 Z "/>
</svg>
