<?xml version="1.0" encoding="utf-8"?>
<!DOCTYPE svg PUBLIC "-//W3C//DTD SVG 1.1//EN" "http://www.w3.org/Graphics/SVG/1.1/DTD/svg11.dtd">
<svg xmlns="http://www.w3.org/2000/svg" xmlns:xlink="http://www.w3.org/1999/xlink" version="1.1" baseProfile="full" width="76" height="76" viewBox="0 0 76.00 76.00" enable-background="new 0 0 76.00 76.00" xml:space="preserve">
	<path fill="#000000" fill-opacity="1" stroke-width="0.2" stroke-linejoin="round" d="M 21,18L 55,18L 55,58L 21,58L 21,18 Z M 24,21L 24,27L 30,27L 30,21L 24,21 Z M 24,31L 30,31L 30,28L 24,28L 24,31 Z M 24,55L 30,55L 30,52L 24,52L 24,55 Z M 30,48L 24,48L 24,51L 30,51L 30,48 Z M 30,44L 24,44L 24,47L 30,47L 30,44 Z M 30,40L 24,40L 24,43L 30,43L 30,40 Z M 30,36L 24,36L 24,39L 30,39L 30,36 Z M 30,32L 24,32L 24,35L 30,35L 30,32 Z M 52,55L 52,52L 31,52L 31,55L 52,55 Z M 52,48L 31,48L 31,51L 52,51L 52,48 Z M 52,44L 31,44L 31,47L 52,47L 52,44 Z M 52,40L 31,40L 31,43L 52,43L 52,40 Z M 52,36L 31,36L 31,39L 52,39L 52,36 Z M 52,32L 31,32L 31,35L 52,35L 52,32 Z M 52,21L 31,21L 31,27L 52,27L 52,21 Z M 31,31L 52,31L 52,28L 31,28L 31,31 Z "/>
</svg>
