<?xml version="1.0" encoding="utf-8"?>
<!DOCTYPE svg PUBLIC "-//W3C//DTD SVG 1.1//EN" "http://www.w3.org/Graphics/SVG/1.1/DTD/svg11.dtd">
<svg xmlns="http://www.w3.org/2000/svg" xmlns:xlink="http://www.w3.org/1999/xlink" version="1.1" baseProfile="full" width="76" height="76" viewBox="0 0 76.00 76.00" enable-background="new 0 0 76.00 76.00" xml:space="preserve">
	<path fill="#000000" fill-opacity="1" stroke-linejoin="round" d="M 38,19C 40,19 43,19.75 43,19.75L 40.25,28L 38,28L 35.75,28L 33,19.75C 33,19.75 36,19 38,19 Z M 38,29L 41,29L 44,20C 44,20 48,21 49,23C 50,25 50.2968,30.0626 50.4999,35.7501C 50.4999,46.8594 48,52 43.194,56.3842C 42.717,56.8193 39.8582,57 38,57C 36.1417,57 33.2829,56.8193 32.8059,56.3842C 28,52 25.5001,46.8594 25.5001,35.7501C 25.7032,30.0626 26,25 27,23C 28,21 32,20 32,20L 35,29L 38,29 Z M 38,50L 42,50L 43,52C 43,52 44,50 45,50L 45,49C 45,49 43,50 43,51L 42.25,49.25L 38,49.25L 33.75,49.25L 33,51C 33,50 31,49 31,49L 31,50C 32,50 33,52 33,52L 34,50L 38,50 Z M 41,36.75L 41,38.5C 47,39.5 48.5,37.25 48.5,37.25L 48,35C 46,37 41,36.25 41,36.25L 35,36.25C 35,36.25 30,37 28,35L 27.5,37.25C 27.5,37.25 29,39.5 35,38.5L 35,36.75L 41,36.75 Z "/>
</svg>
