<?xml version="1.0" encoding="utf-8"?>
<!DOCTYPE svg PUBLIC "-//W3C//DTD SVG 1.1//EN" "http://www.w3.org/Graphics/SVG/1.1/DTD/svg11.dtd">
<svg xmlns="http://www.w3.org/2000/svg" xmlns:xlink="http://www.w3.org/1999/xlink" version="1.1" baseProfile="full" width="76" height="76" viewBox="0 0 76.00 76.00" enable-background="new 0 0 76.00 76.00" xml:space="preserve">
	<path fill="#000000" fill-opacity="1" stroke-width="0.2" stroke-linejoin="round" d="M 19,47.5L 22.1667,47.5L 22.1667,52.25L 53.8333,52.25L 53.8333,47.5L 57,47.5L 57,55.4167L 19,55.4167L 19,47.5 Z M 26.7399,42.7315L 26.7399,22.994L 38.7916,22.994L 38.7916,26.7438L 31.1362,26.7438L 31.1362,31.2418L 38.2891,31.2418L 38.2891,34.7515L 31.1362,34.7515L 31.1362,42.7315L 26.7399,42.7315 Z M 45.6658,22.6707C 46.991,22.7043 48.0484,23.1234 48.838,23.928C 49.6277,24.7326 50.0323,25.7215 50.0518,26.8945C 50.0153,28.1725 49.5719,29.2047 48.7217,29.9911C 47.8714,30.7776 46.8335,31.1822 45.6078,31.2049C 44.3082,31.1749 43.2581,30.7631 42.4576,29.9693C 41.6571,29.1755 41.2453,28.1794 41.2221,26.9811C 41.2384,25.7538 41.6635,24.7361 42.4974,23.9279C 43.3313,23.1197 44.3874,22.7006 45.6658,22.6707 Z M 45.6078,24.7026C 44.9767,24.7219 44.4778,24.9502 44.1112,25.3876C 43.7446,25.825 43.5574,26.3562 43.5496,26.9811C 43.5623,27.6149 43.7616,28.1353 44.1475,28.542C 44.5334,28.9488 45.0298,29.1591 45.6368,29.1729C 46.2565,29.1597 46.7566,28.9482 47.1371,28.5384C 47.5177,28.1287 47.7134,27.5999 47.7243,26.9522C 47.7231,26.3538 47.5443,25.8346 47.1879,25.3948C 46.8315,24.955 46.3048,24.7243 45.6078,24.7026 Z "/>
</svg>
