<?xml version="1.0" encoding="utf-8"?>
<!DOCTYPE svg PUBLIC "-//W3C//DTD SVG 1.1//EN" "http://www.w3.org/Graphics/SVG/1.1/DTD/svg11.dtd">
<svg xmlns="http://www.w3.org/2000/svg" xmlns:xlink="http://www.w3.org/1999/xlink" version="1.1" baseProfile="full" width="76" height="76" viewBox="0 0 76.00 76.00" enable-background="new 0 0 76.00 76.00" xml:space="preserve">
	<path fill="#000000" fill-opacity="1" stroke-width="0.2" stroke-linejoin="round" d="M 38,36C 36.8954,36 36,36.8954 36,38C 36,39.1046 36.8954,40 38,40C 39.1046,40 40,39.1046 40,38C 40,36.8954 39.1046,36 38,36 Z M 38,34C 40.2091,34 42,35.7909 42,38C 42,40.2091 40.2091,42 38,42C 35.7909,42 34,40.2091 34,38C 34,35.7909 35.7909,34 38,34 Z M 57.75,36C 56.6454,36 55.75,36.8954 55.75,38C 55.75,39.1046 56.6454,40 57.75,40C 58.8546,40 59.75,39.1046 59.75,38C 59.75,36.8954 58.8546,36 57.75,36 Z M 61.75,38C 61.75,39.9038 60.4199,41.497 58.6383,41.901C 56.8098,51.635 48.265,59 38,59C 26.402,59 17,49.598 17,38C 17,26.402 26.402,17 38,17C 48.265,17 56.8098,24.365 58.6383,34.099C 60.4199,34.503 61.75,36.0962 61.75,38 Z M 53.75,38C 53.75,36.5505 54.521,35.281 55.6754,34.5794C 54.0776,26.2741 46.7715,20 38,20C 28.0589,20 20,28.0589 20,38C 20,47.9411 28.0589,56 38,56C 46.7715,56 54.0776,49.7259 55.6754,41.4206C 54.521,40.719 53.75,39.4496 53.75,38 Z "/>
</svg>
