<?xml version="1.0" encoding="utf-8"?>
<!DOCTYPE svg PUBLIC "-//W3C//DTD SVG 1.1//EN" "http://www.w3.org/Graphics/SVG/1.1/DTD/svg11.dtd">
<svg xmlns="http://www.w3.org/2000/svg" xmlns:xlink="http://www.w3.org/1999/xlink" version="1.1" baseProfile="full" width="76" height="76" viewBox="0 0 76.00 76.00" enable-background="new 0 0 76.00 76.00" xml:space="preserve">
	<path fill="#000000" fill-opacity="1" stroke-width="0.2" stroke-linejoin="round" d="M 36.4167,34.8333C 36.4167,36.5822 34.9989,38 33.25,38C 31.5011,38 30.0834,36.5822 30.0834,34.8333C 30.0834,33.6612 30.7202,32.6378 31.6667,32.0903L 31.6667,22.1667L 30.2273,22.1667L 23.75,38L 30.0834,47.5L 36.4167,47.5L 42.75,38L 36.2728,22.1667L 34.8334,22.1667L 34.8334,32.0903C 35.7799,32.6378 36.4167,33.6612 36.4167,34.8333 Z M 26.9167,47.5L 20.5833,38L 28.5,19L 38,19L 45.9167,38L 39.5833,47.5L 41.1667,47.5C 42.0411,47.5 42.75,48.2089 42.75,49.0833L 42.75,53.8333C 42.75,55.5822 41.3322,57 39.5833,57L 26.9167,57C 25.1678,57 23.75,55.5822 23.75,53.8333L 23.75,49.0833C 23.75,48.2089 24.4589,47.5 25.3334,47.5L 26.9167,47.5 Z M 28.5,53.8333L 38,53.8333C 38.8745,53.8333 39.5833,53.1245 39.5833,52.25C 39.5833,51.3756 38.8745,50.6667 38,50.6667L 28.5,50.6667C 27.6256,50.6667 26.9167,51.3756 26.9167,52.25C 26.9167,53.1245 27.6256,53.8333 28.5,53.8333 Z M 44.3333,45.9167L 58.5833,45.9167L 58.5833,50.6667L 44.3333,50.6667L 44.3333,45.9167 Z "/>
</svg>
