<?xml version="1.0" encoding="utf-8"?>
<!DOCTYPE svg PUBLIC "-//W3C//DTD SVG 1.1//EN" "http://www.w3.org/Graphics/SVG/1.1/DTD/svg11.dtd">
<svg xmlns="http://www.w3.org/2000/svg" xmlns:xlink="http://www.w3.org/1999/xlink" version="1.1" baseProfile="full" width="76" height="76" viewBox="0 0 76.00 76.00" enable-background="new 0 0 76.00 76.00" xml:space="preserve">
	<path fill="#000000" fill-opacity="1" stroke-linejoin="round" d="M 37.75,19L 38.25,19C 38.25,19 57,19 57,39C 57,48 55,51 54,52C 54,52 51,54 51.9999,51.25C 51.9999,48.9362 53,44 53,44C 53,44 54,44 54,39C 54,33 50,22.5 39,22.5L 37,22.5C 26,22.5 22,33 22,39C 22,44 23,44 23,44C 23,44 24.0001,48.9362 24.0001,51.25C 25,54 22,52 22,52C 21,51 19,48 19,39C 19,19 37.75,19 37.75,19 Z M 26.5533,39.1655C 28.194,38.9349 29.711,40.0781 29.9416,41.7188L 31.4725,52.6117C 31.7031,54.2524 30.56,55.7694 28.9192,56C 27.2785,56.2306 25.2615,55.0875 25.0309,53.4467L 23.5,42.5538C 23.2694,40.9131 24.9126,39.3961 26.5533,39.1655 Z M 49.4467,39.1655C 51.0874,39.3961 52.7306,40.9131 52.5,42.5538L 50.9691,53.4467C 50.7385,55.0875 48.7215,56.2306 47.0808,56C 45.44,55.7694 44.2969,54.2524 44.5275,52.6117L 46.0584,41.7188C 46.289,40.0781 47.806,38.9349 49.4467,39.1655 Z "/>
</svg>
