<?xml version="1.0" encoding="utf-8"?>
<!DOCTYPE svg PUBLIC "-//W3C//DTD SVG 1.1//EN" "http://www.w3.org/Graphics/SVG/1.1/DTD/svg11.dtd">
<svg xmlns="http://www.w3.org/2000/svg" xmlns:xlink="http://www.w3.org/1999/xlink" version="1.1" baseProfile="full" width="76" height="76" viewBox="0 0 76.00 76.00" enable-background="new 0 0 76.00 76.00" xml:space="preserve">
	<path fill="#000000" fill-opacity="1" stroke-width="0.2" stroke-linejoin="round" d="M 38.0333,18.5C 39.4877,18.5 40.6667,19.679 40.6667,21.1333C 40.6667,22.5877 39.4877,23.7667 38.0333,23.7667C 36.579,23.7667 35.4,22.5877 35.4,21.1333C 35.4,19.679 36.579,18.5 38.0333,18.5 Z M 56.4666,26.4C 57.921,26.4 59.1,27.579 59.1,29.0333C 59.1,30.4877 57.921,31.6667 56.4666,31.6667C 55.0123,31.6667 53.8333,30.4877 53.8333,29.0333C 53.8333,27.579 55.0123,26.4 56.4666,26.4 Z M 19.6,26.4C 21.0543,26.4 22.2333,27.579 22.2333,29.0333C 22.2333,30.4877 21.0543,31.6667 19.6,31.6667C 18.1456,31.6667 16.9667,30.4877 16.9667,29.0333C 16.9667,27.579 18.1456,26.4 19.6,26.4 Z M 27.5,40.8833L 31.45,54.05L 44.6167,54.05L 48.5667,40.8833C 41.9833,40.8833 38.0333,34.3 38.0333,34.3C 38.0333,34.3 34.0833,40.8833 27.5,40.8833 Z M 38.0333,25.0833C 38.0333,25.0833 41.9833,46.15 55.15,32.9833L 47.25,58L 28.8167,58C 25.7444,50.1 20.9167,32.9833 20.9167,32.9833C 34.0833,46.15 38.0333,25.0833 38.0333,25.0833 Z M 32,51L 31.25,49L 44.75,49L 44,51L 32,51 Z "/>
</svg>
