<?xml version="1.0" encoding="utf-8"?>
<!DOCTYPE svg PUBLIC "-//W3C//DTD SVG 1.1//EN" "http://www.w3.org/Graphics/SVG/1.1/DTD/svg11.dtd">
<svg xmlns="http://www.w3.org/2000/svg" xmlns:xlink="http://www.w3.org/1999/xlink" version="1.1" baseProfile="full" width="76" height="76" viewBox="0 0 76.00 76.00" enable-background="new 0 0 76.00 76.00" xml:space="preserve">
	<path fill="#000000" fill-opacity="1" stroke-width="0.2" stroke-linejoin="round" d="M 32.8542,20.1875C 31.9797,20.1875 31.2708,19.4786 31.2708,18.6042C 31.2708,18.1764 31.4405,17.7882 31.7162,17.5033L 31.6667,17.4167C 31.6667,17.4167 41.1667,12.6667 49.875,18.2084C 58.8345,24.1814 59.375,32.4332 59.375,32.4584C 59.375,33.3328 58.6661,34.0417 57.7917,34.0417C 57.0517,34.0417 56.4303,33.5341 56.2083,32.8542C 56.2083,32.8542 54.966,24.7122 46.7083,20.5833C 39.5833,17.4167 32.9819,20.1875 32.8542,20.1875 Z M 47.8958,47.1042C 50.3106,42.5429 51.8541,32.4584 45.5208,27.7084C 39.1875,22.9584 31.6667,25.3333 26.9167,30.0833C 22.1667,34.8333 20.5833,44.3333 25.3333,48.2917C 28.7737,51.1586 35.3377,53.5088 41.1667,46.7083C 45.9167,41.1667 43.5416,34.8334 41.9583,33.25C 40.375,31.6667 34.8333,30.0833 31.6667,33.25C 26.9167,38 28.5,44.7292 33.25,44.7292C 38,44.7292 38.3861,37.4293 36.8125,37.6042C 33.25,38 37.2083,39.9792 33.25,41.9584C 31.4798,42.8435 31.2708,38 32.8542,36.4167C 34.4375,34.8333 36.7283,32.8386 39.9791,35.625C 42.75,38 41.1667,42.75 38,45.9167C 36.4167,47.5 31.2708,49.4792 28.1042,46.3125C 24.9375,43.1458 24.0462,35.8631 29.2917,31.6667C 33.25,28.5 38,26.9167 43.1458,29.6875C 50.1162,33.4408 47.5,43.1458 44.3333,47.5C 38.9031,54.9665 30.3949,56.7145 24.1458,51.8542C 20.5833,49.0833 15.8333,38 23.75,28.5C 31.6667,19 44.3333,22.1667 47.1041,24.5417C 50.355,27.3281 57,34.8333 51.0625,47.5C 44.4438,61.6197 31.2708,60.5625 29.6875,60.5625C 28.1041,60.5625 26.5208,60.1667 26.5208,58.5833C 26.5208,57 28.5,57 28.5,57C 36.4167,58.5833 44.3333,53.8333 47.8958,47.1042 Z "/>
</svg>
