<?xml version="1.0" encoding="utf-8"?>
<!DOCTYPE svg PUBLIC "-//W3C//DTD SVG 1.1//EN" "http://www.w3.org/Graphics/SVG/1.1/DTD/svg11.dtd">
<svg xmlns="http://www.w3.org/2000/svg" xmlns:xlink="http://www.w3.org/1999/xlink" version="1.1" baseProfile="full" width="76" height="76" viewBox="0 0 76.00 76.00" enable-background="new 0 0 76.00 76.00" xml:space="preserve">
	<path fill="#000000" fill-opacity="1" stroke-width="0.2" stroke-linejoin="round" d="M 41.1667,33.25L 52.25,33.25L 47.5,28.5L 52.25,28.5L 58.5833,34.8333L 52.25,41.1667L 47.5,41.1667L 52.25,36.4167L 41.1667,36.4167L 41.1667,33.25 Z M 32.4583,49.0833L 45.125,49.0833L 47.5,53.8333L 30.0833,53.8333L 32.4583,49.0833 Z M 22.1666,22.1667L 53.8333,22.1667C 55.5822,22.1667 56.9999,23.5845 56.9999,25.3334L 56.9999,30.0833L 53.0416,26.125L 53.0416,25.3334L 22.9583,25.3334L 22.9583,44.3334L 53.0416,44.3334L 53.0416,43.5417L 56.9999,39.5834L 56.9999,44.3334C 56.9999,46.0823 55.5822,47.5 53.8333,47.5L 22.1666,47.5C 20.4177,47.5 19,46.0823 19,44.3334L 19,25.3334C 19,23.5845 20.4177,22.1667 22.1666,22.1667 Z "/>
</svg>
