<?xml version="1.0" encoding="utf-8"?>
<!DOCTYPE svg PUBLIC "-//W3C//DTD SVG 1.1//EN" "http://www.w3.org/Graphics/SVG/1.1/DTD/svg11.dtd">
<svg xmlns="http://www.w3.org/2000/svg" xmlns:xlink="http://www.w3.org/1999/xlink" version="1.1" baseProfile="full" width="76" height="76" viewBox="0 0 76.00 76.00" enable-background="new 0 0 76.00 76.00" xml:space="preserve">
	<path fill="#000000" fill-opacity="1" stroke-width="0.2" stroke-linejoin="round" d="M 15.8333,53.8333L 22.1666,53.8333L 22.1667,45.9166L 28.5,45.9167L 28.5,53.8333L 34.8333,53.8333L 34.8333,39.5833L 28.5,39.5833L 28.5,33.25L 47.5,33.25L 47.5,39.5833L 41.1667,39.5833L 41.1666,53.8333L 47.5,53.8333L 47.5,45.9166L 53.8333,45.9167L 53.8333,53.8333L 60.1666,53.8333L 60.1667,39.5833L 53.8333,39.5833L 53.8333,26.9167L 41.1667,26.9167L 41.1667,19L 34.8333,19L 34.8333,26.9167L 22.1667,26.9167L 22.1667,39.5833L 15.8333,39.5833L 15.8333,53.8333 Z "/>
</svg>
