<?xml version="1.0" encoding="utf-8"?>
<!DOCTYPE svg PUBLIC "-//W3C//DTD SVG 1.1//EN" "http://www.w3.org/Graphics/SVG/1.1/DTD/svg11.dtd">
<svg xmlns="http://www.w3.org/2000/svg" xmlns:xlink="http://www.w3.org/1999/xlink" version="1.1" baseProfile="full" width="76" height="76" viewBox="0 0 76.00 76.00" enable-background="new 0 0 76.00 76.00" xml:space="preserve">
	<path fill="#000000" fill-opacity="1" stroke-width="0.2" stroke-linejoin="round" d="M 44.3333,31.6667L 30.0833,31.6667L 38,39.5833L 28.7309,39.5833L 17.4167,28.6649L 28.7309,17.4167L 38,17.4167L 30.0833,25.3333L 44.3333,25.3333C 53.0778,25.3333 60.1667,32.4222 60.1667,41.1667C 60.1667,49.9112 53.0778,57 44.3333,57L 39.5833,57L 39.5833,50.6667L 44.3333,50.6667C 49.58,50.6667 53.8333,46.4134 53.8333,41.1667C 53.8333,35.92 49.58,31.6667 44.3333,31.6667 Z M 34.8333,50.6667L 34.8333,57L 28.5,57L 28.5,50.6667L 34.8333,50.6667 Z "/>
</svg>
