<?xml version="1.0" encoding="utf-8"?>
<!DOCTYPE svg PUBLIC "-//W3C//DTD SVG 1.1//EN" "http://www.w3.org/Graphics/SVG/1.1/DTD/svg11.dtd">
<svg xmlns="http://www.w3.org/2000/svg" xmlns:xlink="http://www.w3.org/1999/xlink" version="1.1" baseProfile="full" width="76" height="76" viewBox="0 0 76.00 76.00" enable-background="new 0 0 76.00 76.00" xml:space="preserve">
	<path fill="#000000" fill-opacity="1" stroke-width="0.2" stroke-linejoin="round" d="M 33.25,39.5833L 42.75,39.5833L 42.75,36.4166L 33.25,36.4166L 33.25,39.5833 Z M 45.9166,39.5833L 55.4166,39.5833L 55.4166,36.4167L 45.9166,36.4167L 45.9166,39.5833 Z M 20.5833,36.4167L 20.5833,39.5833L 30.0833,39.5833L 30.0833,36.4167L 20.5833,36.4167 Z M 58.5833,33.25L 60.1666,33.25L 60.1666,36.4167L 58.5833,36.4167L 58.5833,39.5833L 60.1666,39.5833L 60.1666,42.75L 58.5833,42.75L 58.5833,45.9167L 60.1667,45.9167L 60.1667,49.0833L 58.5833,49.0833L 58.5833,50.6667L 55.4166,50.6667L 55.4166,49.0833L 45.9166,49.0833L 45.9166,50.6667L 42.75,50.6667L 42.75,49.0833L 33.25,49.0833L 33.25,50.6667L 30.0833,50.6667L 30.0833,49.0833L 20.5833,49.0833L 20.5833,50.6667L 17.4166,50.6667L 17.4166,26.9167L 60.1667,26.9167L 60.1667,30.0833L 58.5833,30.0833L 58.5833,33.25 Z M 20.5833,30.0834L 20.5833,33.25L 30.0833,33.25L 30.0833,30.0833L 20.5833,30.0834 Z M 42.75,33.25L 42.75,30.0833L 33.25,30.0833L 33.25,33.25L 42.75,33.25 Z M 55.4166,33.25L 55.4166,30.0833L 45.9166,30.0833L 45.9166,33.25L 55.4166,33.25 Z M 20.5833,42.75L 20.5833,45.9167L 30.0833,45.9167L 30.0833,42.75L 20.5833,42.75 Z M 33.25,42.75L 33.25,45.9167L 42.7499,45.9167L 42.7499,42.75L 33.25,42.75 Z M 45.9166,42.75L 45.9166,45.9167L 55.4165,45.9167L 55.4165,42.75L 45.9166,42.75 Z "/>
</svg>
