<?xml version="1.0" encoding="utf-8"?>
<!DOCTYPE svg PUBLIC "-//W3C//DTD SVG 1.1//EN" "http://www.w3.org/Graphics/SVG/1.1/DTD/svg11.dtd">
<svg xmlns="http://www.w3.org/2000/svg" xmlns:xlink="http://www.w3.org/1999/xlink" version="1.1" baseProfile="full" width="76" height="76" viewBox="0 0 76.00 76.00" enable-background="new 0 0 76.00 76.00" xml:space="preserve">
	<path fill="#000000" fill-opacity="1" stroke-linejoin="round" d="M 21.3,17L 46.7,17C 47.418,17 48,17.5821 48,18.3L 48,24.7C 48,25.418 47.418,26 46.7,26L 31.3,26C 30.0298,26 29,27.0298 29,28.3L 29,49.7C 29,50.418 28.418,51 27.7,51L 21.3,51C 20.582,51 20,50.418 20,49.7L 20,18.3C 20,17.582 20.582,17 21.3,17 Z M 33.3,29L 54.7,29C 55.418,29 56,29.5821 56,30.3L 56,57.7C 56,58.418 55.418,59 54.7,59L 33.3,59C 32.582,59 32,58.418 32,57.7L 32,30.3C 32,29.5821 32.582,29 33.3,29 Z M 50.3848,35.6956L 50.3848,34.2627L 38.5336,34.2627L 38.5336,36.709L 46.9331,36.709L 44.9718,40.5822C 44.3582,41.8607 43.8041,43.1327 43.3093,44.398C 42.8145,45.6634 42.383,46.9294 42.0149,48.196C 41.6468,49.4627 41.3638,50.7307 41.1659,52L 44.1742,52C 44.3879,50.5724 44.6927,49.1764 45.0886,47.8121C 45.4844,46.4478 45.9502,45.0934 46.4859,43.7489C 47.0215,42.4043 47.6193,41.0664 48.279,39.7351L 50.3848,35.6956 Z "/>
</svg>
