<?xml version="1.0" encoding="utf-8"?>
<!DOCTYPE svg PUBLIC "-//W3C//DTD SVG 1.1//EN" "http://www.w3.org/Graphics/SVG/1.1/DTD/svg11.dtd">
<svg xmlns="http://www.w3.org/2000/svg" xmlns:xlink="http://www.w3.org/1999/xlink" version="1.1" baseProfile="full" width="76" height="76" viewBox="0 0 76.00 76.00" enable-background="new 0 0 76.00 76.00" xml:space="preserve">
	<path fill="#000000" fill-opacity="1" stroke-width="0.2" stroke-linejoin="round" d="M 45.9167,52.25C 47.1257,52.25 48.2291,52.7017 49.0676,53.4455C 53.871,49.9974 57,44.3641 57,38C 57,36.1893 56.7467,34.4378 56.2736,32.779L 51.7052,34.0842C 52.06,35.3284 52.25,36.642 52.25,38C 52.25,45.8701 45.87,52.25 38,52.25C 35.2894,52.25 32.7555,51.4932 30.5982,50.1793C 29.9655,50.4914 29.2532,50.6667 28.5,50.6667C 25.8766,50.6667 23.75,48.54 23.75,45.9167C 23.75,44.8563 24.0974,43.8771 24.6847,43.0867C 24.0808,41.5069 23.75,39.7921 23.75,38C 23.75,34.4235 25.0676,31.1547 27.2439,28.6526C 27.0327,28.1149 26.9167,27.5293 26.9167,26.9167C 26.9167,24.2933 29.0433,22.1667 31.6667,22.1667C 33.184,22.1667 34.5353,22.8782 35.4049,23.9858C 36.2463,23.8309 37.1137,23.75 38,23.75C 39.358,23.75 40.6716,23.94 41.9158,24.2948L 43.221,19.7264C 41.5622,19.2533 39.8107,19 38,19C 30.0377,19 23.2194,23.8978 20.3933,30.845C 21.6988,31.6915 22.5625,33.1615 22.5625,34.8333C 22.5625,37.0278 21.0744,38.8747 19.0522,39.4199C 19.7785,49.2502 27.9842,57 38,57C 39.0814,57 40.1418,56.9097 41.1739,56.7361C 41.3108,54.2355 43.3819,52.25 45.9167,52.25 Z M 50.6667,57C 50.6667,59.6234 48.54,61.75 45.9167,61.75C 44.3372,61.75 42.9378,60.9791 42.0742,59.7931C 40.7535,60.0384 39.3917,60.1667 38,60.1667C 26.1489,60.1667 16.47,50.8665 15.8635,39.1664C 14.2121,38.4224 13.0625,36.7621 13.0625,34.8334C 13.0625,32.3909 14.906,30.379 17.2774,30.1131C 20.4566,21.7648 28.5356,15.8334 38,15.8334C 40.1124,15.8334 42.1559,16.1288 44.0912,16.6808C 45.1491,16.9824 46.1747,17.3607 47.1616,17.8093L 46.2802,20.8944L 44.9483,25.5559L 44.0471,28.7102L 42.75,33.25L 47.2898,31.9529L 50.4441,31.0517L 55.1056,29.7198L 58.1907,28.8384C 58.6393,29.8253 59.0176,30.8509 59.3192,31.9088C 59.8712,33.8441 60.1666,35.8876 60.1666,38C 60.1666,45.5594 56.3827,52.235 50.6055,56.236C 50.6458,56.4847 50.6667,56.7399 50.6667,57 Z M 31.6667,31.6667C 30.8267,31.6667 30.0376,31.4487 29.353,31.0661C 27.8287,32.9646 26.9167,35.3758 26.9167,38C 26.9167,39.1461 27.0906,40.2516 27.4136,41.2915C 27.7625,41.2099 28.1262,41.1667 28.5,41.1667C 31.1233,41.1667 33.25,43.2933 33.25,45.9167C 33.25,46.593 33.1086,47.2364 32.8539,47.8187C 34.3916,48.6264 36.1424,49.0833 38,49.0833C 44.1211,49.0833 49.0833,44.1212 49.0833,38C 49.0833,36.9438 48.9356,35.9221 48.6596,34.9544L 44.0912,36.2597C 44.2489,36.8126 44.3333,37.3965 44.3333,38C 44.3333,41.4978 41.4978,44.3333 38,44.3333C 34.5022,44.3333 31.6667,41.4978 31.6667,38C 31.6667,34.5022 34.5022,31.6667 38,31.6667C 38.6035,31.6667 39.1874,31.7511 39.7403,31.9088L 41.0456,27.3404C 40.0779,27.0644 39.0562,26.9167 38,26.9167C 37.462,26.9167 36.9329,26.955 36.4154,27.0291C 36.3556,29.6005 34.2524,31.6667 31.6667,31.6667 Z M 34.8333,38C 34.8333,39.7489 36.2511,41.1667 38,41.1667C 39.7489,41.1667 41.1667,39.7489 41.1667,38L 41.0456,37.1298L 38,38L 38.8702,34.9544L 38,34.8333C 36.2511,34.8333 34.8333,36.2511 34.8333,38 Z "/>
</svg>
