<?xml version="1.0" encoding="utf-8"?>
<!DOCTYPE svg PUBLIC "-//W3C//DTD SVG 1.1//EN" "http://www.w3.org/Graphics/SVG/1.1/DTD/svg11.dtd">
<svg xmlns="http://www.w3.org/2000/svg" xmlns:xlink="http://www.w3.org/1999/xlink" version="1.1" baseProfile="full" width="76" height="76" viewBox="0 0 76.00 76.00" enable-background="new 0 0 76.00 76.00" xml:space="preserve">
	<path fill="#000000" fill-opacity="1" stroke-width="0.2" stroke-linejoin="round" d="M 19,19C 39.9868,19 57,36.0132 57,57L 49.0833,57C 49.0833,40.3854 35.969,26.9167 19.7917,26.9167L 19,26.9274L 19,19 Z M 19,31.6667C 32.9912,31.6667 44.3333,43.0088 44.3333,57L 36.4167,57C 36.4167,47.3811 28.619,39.5834 19,39.5834L 19,31.6667 Z M 24.5417,45.9167C 27.6022,45.9167 30.0833,48.3978 30.0833,51.4583C 30.0833,54.5189 27.6022,57 24.5417,57C 21.4811,57 19,54.5189 19,51.4583C 19,48.3978 21.4811,45.9167 24.5417,45.9167 Z "/>
</svg>
