<?xml version="1.0" encoding="utf-8"?>
<!DOCTYPE svg PUBLIC "-//W3C//DTD SVG 1.1//EN" "http://www.w3.org/Graphics/SVG/1.1/DTD/svg11.dtd">
<svg xmlns="http://www.w3.org/2000/svg" xmlns:xlink="http://www.w3.org/1999/xlink" version="1.1" baseProfile="full" width="76" height="76" viewBox="0 0 76.00 76.00" enable-background="new 0 0 76.00 76.00" xml:space="preserve">
	<path fill="#000000" fill-opacity="1" stroke-width="0.2" stroke-linejoin="round" d="M 39,51L 44.3513,51L 48.9643,34.9126C 48.3668,34.2847 48,33.4352 48,32.5L 48.0031,32.3506L 35.1469,28.1734L 29.9419,38.3865L 19.9833,30.0302L 30.6377,22L 32.8628,23.8671L 34.8966,21.3556L 36.4509,22.6143L 34.6376,24.8535L 49.4467,29.6653C 50.0234,29.2468 50.7329,29 51.5,29C 53.433,29 55,30.567 55,32.5C 55,34.3399 53.5802,35.8483 51.7765,35.9892L 47.4722,51L 52,51C 53.6568,51 55,52.3432 55,54L 55,55L 36,55L 36,54C 36,52.3432 37.3431,51 39,51 Z "/>
</svg>
