<?xml version="1.0" encoding="utf-8"?>
<!DOCTYPE svg PUBLIC "-//W3C//DTD SVG 1.1//EN" "http://www.w3.org/Graphics/SVG/1.1/DTD/svg11.dtd">
<svg xmlns="http://www.w3.org/2000/svg" xmlns:xlink="http://www.w3.org/1999/xlink" version="1.1" baseProfile="full" width="76" height="76" viewBox="0 0 76.00 76.00" enable-background="new 0 0 76.00 76.00" xml:space="preserve">
	<path fill="#000000" fill-opacity="1" stroke-width="1.33364" stroke-linejoin="round" d="M 42.5537,32.7397C 43.6529,30.0702 45.6942,23.7892 46.0083,22.6901C 46.3223,21.5909 47.1074,21.4339 47.5785,21.4339L 51.3471,21.4339C 51.9752,21.4339 52.3285,21.905 52.1715,22.6901C 48.2066,36.6653 45.5372,40.7479 45.5372,41.6901C 45.5372,44.0454 48.0496,48.4421 50.405,48.4421C 51.8182,48.4421 51.5041,46.4008 53.0744,46.4008L 56.0579,46.4008C 56.5289,46.4008 57,46.8719 57,47.657C 57,48.4421 56.1266,54.5661 50.1596,54.5661C 44.1927,54.5661 41.9649,47.3528 41.9649,47.3528C 41.1798,48.9231 36.5868,54.5661 30.9339,54.5661C 20.8843,54.5661 19,43.8884 19,37.6074C 19,31.3264 21.9835,21.4339 30.4628,21.4339C 38.9422,21.4339 42.5537,32.7397 42.5537,32.7397 Z M 24.1818,37.1363C 24.1818,40.7479 24.0248,48.2851 30.6394,48.4421C 34.3884,48.5992 37.843,43.8884 39.4819,40.1198C 37.2149,32.2686 35.6446,27.5578 30.6198,27.5578C 23.8678,27.7149 24.1818,37.1364 24.1818,37.1363 Z "/>
</svg>
