<?xml version="1.0" encoding="utf-8"?>
<!DOCTYPE svg PUBLIC "-//W3C//DTD SVG 1.1//EN" "http://www.w3.org/Graphics/SVG/1.1/DTD/svg11.dtd">
<svg xmlns="http://www.w3.org/2000/svg" xmlns:xlink="http://www.w3.org/1999/xlink" version="1.1" baseProfile="full" width="76" height="76" viewBox="0 0 76.00 76.00" enable-background="new 0 0 76.00 76.00" xml:space="preserve">
	<path fill="#000000" fill-opacity="1" stroke-width="0.2" stroke-linejoin="round" d="M 14,37L 53,17L 53,37L 14,37 Z M 26.5,34L 50,34L 50,22.5L 26.5,34 Z M 14,39L 21.0801,39L 24.6107,40.799L 22.579,43.3995L 14,39 Z M 44,39L 44,42L 40,42L 40,39L 44,39 Z M 35.2663,42L 29.4805,39L 37,39L 37,42L 35.2663,42 Z M 34.0126,45.6764L 32.012,48.237L 26.0342,45.1714L 27.9555,42.7123L 34.0126,45.6764 Z M 43.2705,50.2069L 41.1489,52.9225L 35.4673,50.0089L 37.5136,47.3897L 43.2705,50.2069 Z M 53,39L 53,42L 47,42L 47,39L 53,39 Z M 53,59L 44.6041,54.6945L 46.7716,51.9202L 50,53.5L 50,52L 53,52L 53,59 Z M 50,45L 53,45L 53,49L 50,49L 50,45 Z "/>
</svg>
