<?xml version="1.0" encoding="utf-8"?>
<!DOCTYPE svg PUBLIC "-//W3C//DTD SVG 1.1//EN" "http://www.w3.org/Graphics/SVG/1.1/DTD/svg11.dtd">
<svg xmlns="http://www.w3.org/2000/svg" xmlns:xlink="http://www.w3.org/1999/xlink" version="1.1" baseProfile="full" width="76" height="76" viewBox="0 0 76.00 76.00" enable-background="new 0 0 76.00 76.00" xml:space="preserve">
	<path fill="#000000" fill-opacity="1" stroke-width="0.2" stroke-linejoin="round" d="M 21.5,33.25L 17.75,29.5L 22,25.5L 17.75,21.5L 21.5,17.75L 25.5,22L 29.5,17.75L 33.25,21.5L 29,25.5L 33.25,29.5L 29.5,33.25L 25.5,29L 21.5,33.25 Z M 24,19L 27,19L 25.5,20.5L 24,19 Z M 40,19L 40,31L 52,31L 52,57L 24,57L 24,32L 25.5,30.5L 29.5,34.5L 34.5,29.5L 30.5,25.5L 34.5,21.5L 32,19L 40,19 Z M 41,30L 41,19L 52,30L 41,30 Z "/>
</svg>
