<?xml version="1.0" encoding="utf-8"?>
<!DOCTYPE svg PUBLIC "-//W3C//DTD SVG 1.1//EN" "http://www.w3.org/Graphics/SVG/1.1/DTD/svg11.dtd">
<svg xmlns="http://www.w3.org/2000/svg" xmlns:xlink="http://www.w3.org/1999/xlink" version="1.1" baseProfile="full" width="76" height="76" viewBox="0 0 76.00 76.00" enable-background="new 0 0 76.00 76.00" xml:space="preserve">
	<path fill="#000000" fill-opacity="1" stroke-width="0.2" stroke-linejoin="round" d="M 31.6667,19L 44.3333,19L 57,31.6667L 57,44.3333L 44.3333,57L 31.6667,57L 19,44.3333L 19,31.6667L 31.6667,19 Z M 30.875,33.25L 30.875,34.8334L 33.25,34.8334L 33.25,42.75L 34.8333,42.75L 34.8333,34.8334L 37.2083,34.8334L 37.2083,33.25L 30.875,33.25 Z M 37.9999,36.4168L 37.9999,39.5834C 38,40.6389 38,41.6945 38.5278,42.2222C 39.0555,42.75 40.1111,42.75 41.1666,42.75C 42.2221,42.75 43.2777,42.75 43.8055,42.2223C 44.3333,41.6945 44.3333,40.6389 44.3333,39.5834L 44.3333,36.4167C 44.3333,35.3612 44.3333,34.3056 43.8055,33.7778C 43.2777,33.25 42.2222,33.25 41.1666,33.25C 40.1111,33.25 39.0555,33.25 38.5277,33.7778C 38,34.3056 37.9999,35.3612 37.9999,36.4168 Z M 39.8472,40.375C 39.5833,39.0556 39.5833,36.9445 40.1111,35.8889C 40.6389,34.8334 41.6944,34.8334 42.2222,35.8889C 42.75,36.9445 42.75,39.0556 42.2222,40.1111C 41.6944,41.1667 40.6389,41.1667 39.8472,40.375 Z M 45.9167,33.25L 45.9167,42.75L 47.5,42.75L 47.5,39.5833L 49.875,39.5834C 50.4027,39.5834 50.9305,39.5834 51.3923,39.0556C 51.8541,38.5278 52.25,37.4723 52.6458,36.4167C 52.25,35.3611 51.8541,34.3056 51.3923,33.7778C 50.9305,33.25 50.4027,33.2501 49.8749,33.2501L 45.9167,33.25 Z M 49.6111,34.5695C 51.0625,35.8889 51.0625,36.9445 50.4687,37.4722C 49.875,38 48.6875,38 47.5,38L 47.5,34.8334C 48.6875,34.8334 49.875,34.8334 49.6111,34.5695 Z M 28.5,33.25L 25.3333,33.25C 24.8056,33.25 24.2778,33.25 24.0139,33.382C 23.75,33.5139 23.75,33.7778 23.75,34.0417L 23.75,36.4167C 23.75,36.9445 23.75,37.4722 24.0139,37.7361C 24.2778,38 24.8056,38 25.3333,38C 26.3889,38 27.4444,38 27.9722,38.5278C 28.5,39.0556 28.5,40.1111 27.9722,40.6389C 27.4444,41.1667 26.3889,41.1667 25.8611,40.9688C 25.3333,40.7708 25.3333,40.375 25.3333,39.9792L 23.75,39.9792L 23.75,41.1667C 23.75,41.6945 23.75,42.2222 24.2778,42.4861C 24.8056,42.75 25.8611,42.75 26.9167,42.75C 27.9722,42.75 29.0278,42.75 29.5556,42.4861C 30.0833,42.2222 30.0833,41.6945 30.0833,41.1667L 30.0833,38C 30.0833,37.4722 30.0833,36.9445 29.8194,36.6806C 29.5555,36.4167 29.0278,36.4167 28.5,36.4167C 27.4444,36.4167 26.3889,36.4167 25.8611,36.1528C 25.3333,35.8889 25.3333,35.3611 25.8611,35.0972C 26.3889,34.8333 27.4444,34.8333 27.9722,34.9653C 28.5,35.0972 28.5,35.3611 28.5,35.625L 30.0833,35.625L 30.0833,34.8333C 30.0833,34.3056 30.0833,33.7778 29.8194,33.5139C 29.5556,33.25 29.0278,33.25 28.5,33.25 Z "/>
</svg>
