<?xml version="1.0" encoding="utf-8"?>
<!DOCTYPE svg PUBLIC "-//W3C//DTD SVG 1.1//EN" "http://www.w3.org/Graphics/SVG/1.1/DTD/svg11.dtd">
<svg xmlns="http://www.w3.org/2000/svg" xmlns:xlink="http://www.w3.org/1999/xlink" version="1.1" baseProfile="full" width="76" height="76" viewBox="0 0 76.00 76.00" enable-background="new 0 0 76.00 76.00" xml:space="preserve">
	<path fill="#000000" fill-opacity="1" stroke-width="0.2" stroke-linejoin="round" d="M 14,25L 14,52L 40,52L 40,36L 46,36L 46,25L 14,25 Z M 43,33L 17,33L 17,28L 43,28L 43,33 Z M 37,36L 37,41L 17,41L 17,36L 37,36 Z M 37,44L 37,49L 17,49L 17,44L 37,44 Z M 57,28L 49,28L 49,33L 52,33L 52,44.25L 46,38.25L 46,43.75L 54.5,52.25L 63,43.75L 63,38.25L 57,44.25L 57,28 Z "/>
</svg>
