<?xml version="1.0" encoding="utf-8"?>
<!DOCTYPE svg PUBLIC "-//W3C//DTD SVG 1.1//EN" "http://www.w3.org/Graphics/SVG/1.1/DTD/svg11.dtd">
<svg xmlns="http://www.w3.org/2000/svg" xmlns:xlink="http://www.w3.org/1999/xlink" version="1.1" baseProfile="full" width="76" height="76" viewBox="0 0 76.00 76.00" enable-background="new 0 0 76.00 76.00" xml:space="preserve">
	<path fill="#000000" fill-opacity="1" stroke-width="0.2" stroke-linejoin="round" d="M 19,43L 22,43L 22,42L 19,42L 19,19L 57,19L 57,42L 54,42L 54,43L 57,43L 57,46L 40,46L 40,57L 36,57L 36,46L 19,46L 19,43 Z M 48,42L 48,43L 51,43L 51,42L 48,42 Z M 42,42L 42,43L 45,43L 45,42L 42,42 Z M 37,42L 37,43L 39,43L 39,42L 37,42 Z M 31,42L 31,43L 34,43L 34,42L 31,42 Z M 25,42L 25,43L 28,43L 28,42L 25,42 Z M 20,20.0001L 20,41L 55.9999,41L 55.9999,20.0001L 20,20.0001 Z M 21,21.0001L 54.9999,21.0001L 54.9999,40L 21,40L 21,21.0001 Z M 48,57L 45.625,57C 45.625,55.4167 44.8333,52.25 44.8333,52.25C 44.8333,52.25 46.4167,52.25 48,57 Z M 29,57C 30.5833,52.25 32.1667,52.25 32.1667,52.25C 32.1667,52.25 30.5833,55.4167 30.5833,57L 29,57 Z M 49.5833,57C 51.1667,52.25 52.75,52.25 52.75,52.25C 52.75,52.25 51.1667,55.4167 51.1667,57L 49.5833,57 Z M 27.1667,57L 24.7916,57C 24.7916,55.4167 24,52.25 24,52.25C 24,52.25 25.5833,52.25 27.1667,57 Z "/>
</svg>
