<?xml version="1.0" encoding="utf-8"?>
<!DOCTYPE svg PUBLIC "-//W3C//DTD SVG 1.1//EN" "http://www.w3.org/Graphics/SVG/1.1/DTD/svg11.dtd">
<svg xmlns="http://www.w3.org/2000/svg" xmlns:xlink="http://www.w3.org/1999/xlink" version="1.1" baseProfile="full" width="76" height="76" viewBox="0 0 76.00 76.00" enable-background="new 0 0 76.00 76.00" xml:space="preserve">
	<path fill="#000000" fill-opacity="1" stroke-width="0.2" stroke-linejoin="round" d="M 46,40L 56.4955,50.4954L 52.446,51.1547L 55.8622,57.3576L 52.7732,59L 49.334,52.759L 46,56.093L 46,40 Z M 45,37.75L 45,41L 38,41L 38,37L 48,37L 48,40.5466L 45,37.75 Z M 24,37L 34,37L 34,41L 24,41L 24,37 Z M 19,42L 21,42L 21,36L 19,36L 19,34L 21,34L 21,28L 19,28L 19,26L 21,26L 21,24.0001L 23,24.0001L 23,26L 35,26L 35,24.0001L 37,24.0001L 37,26L 49,26L 49,24L 51,24L 51,26L 53,26L 53,28L 51,28L 51,34L 53,34L 53,36L 51,36L 51,42L 52.9999,42L 52.9999,44L 51.7045,44L 49,41.4788L 49,36L 37,36L 37,42L 45,42L 45,44L 37,44L 37,46L 35,46L 35,44L 23,44L 23,46L 21,46L 21,44L 19,44L 19,42 Z M 23,34L 35,34L 35,28L 23,28L 23,34 Z M 37,34L 49,34L 49,28L 37,28L 37,34 Z M 23,36L 23,42L 35,42L 35,36L 23,36 Z M 24,29L 34,29L 34,33L 24,33L 24,29 Z M 38,29L 48,29L 48,33L 38,33L 38,29 Z "/>
</svg>
