<?xml version="1.0" encoding="utf-8"?>
<!DOCTYPE svg PUBLIC "-//W3C//DTD SVG 1.1//EN" "http://www.w3.org/Graphics/SVG/1.1/DTD/svg11.dtd">
<svg xmlns="http://www.w3.org/2000/svg" xmlns:xlink="http://www.w3.org/1999/xlink" version="1.1" baseProfile="full" width="76" height="76" viewBox="0 0 76.00 76.00" enable-background="new 0 0 76.00 76.00" xml:space="preserve">
	<path fill="#000000" fill-opacity="1" stroke-width="0.2" stroke-linejoin="round" d="M 18.2084,32.5903C 16.3611,25.7292 21.6389,20.4514 26.125,19.6598C 30.6111,18.8681 34.3056,22.5625 38,26.2569C 41.6945,22.5625 45.3889,18.8681 49.875,19.6598C 54.3611,20.4514 59.6389,25.7292 57.7916,32.5903C 55.9444,39.4514 46.9722,47.8958 38.0001,56.3402C 29.0278,47.8958 20.0556,39.4514 18.2084,32.5903 Z M 21.8307,32.6093C 23.2659,37.9402 31.0288,45.0286 38.0001,51.5898C 44.9713,45.0286 52.7342,37.9402 54.1694,32.6093C 55.6046,27.2784 52.2956,23.5735 48.81,22.9584C 45.3244,22.3433 40.8705,28.3805 38,31.251C 35.1295,28.3805 30.6757,22.3432 27.1901,22.9584C 23.7045,23.5735 20.3954,27.2784 21.8307,32.6093 Z "/>
</svg>
