<?xml version="1.0" encoding="utf-8"?>
<!DOCTYPE svg PUBLIC "-//W3C//DTD SVG 1.1//EN" "http://www.w3.org/Graphics/SVG/1.1/DTD/svg11.dtd">
<svg xmlns="http://www.w3.org/2000/svg" xmlns:xlink="http://www.w3.org/1999/xlink" version="1.1" baseProfile="full" width="76" height="76" viewBox="0 0 76.00 76.00" enable-background="new 0 0 76.00 76.00" xml:space="preserve">
	<path fill="#000000" fill-opacity="1" stroke-width="0.2" stroke-linejoin="round" d="M 21.6665,44.7628C 21.6986,44.5839 21.7362,44.4061 21.7776,44.2292C 21.8561,43.8973 21.9515,43.5691 22.0626,43.2454C 22.4877,42.001 23.1312,40.8469 23.8211,39.7324C 24.164,39.1799 24.5148,38.6323 24.864,38.0839C 25.2204,37.5236 25.5839,36.9667 25.993,36.4435C 26.6572,35.5941 27.4733,34.6783 28.5319,34.3363C 30.0193,33.8561 31.1319,35.4044 31.9924,36.3604C 32.4822,36.9028 33.0095,37.4741 33.6838,37.7838C 33.9946,37.9264 34.3332,38 34.6752,37.9788C 35.1734,37.947 35.6155,37.6046 35.987,37.297C 37.0046,36.4544 37.8322,35.3894 38.6217,34.34C 39.4873,33.1917 40.3233,32.0192 41.3155,30.9727C 41.7208,30.5441 42.1557,29.9755 42.7384,29.7859C 43.0002,29.6995 43.2915,29.7261 43.5448,29.8426C 43.6842,29.9065 43.8108,29.9962 43.9206,30.1027C 44.043,30.2233 44.1908,30.3186 44.3301,30.4231C 45.3941,31.2276 46.3779,32.1361 47.3068,33.0915C 48.1133,33.9225 48.8817,34.7921 49.6163,35.6898C 50.3299,36.5666 51.0182,37.4597 51.6135,38.4278C 52.3313,39.6071 52.9393,40.8473 53.6106,42.0542C 54.2228,43.1556 54.8435,44.4288 54.2313,45.6707C 54.1975,45.7363 54.1637,45.8019 54.1257,45.8645C 53.0406,47.699 51.0857,48.8415 49.1519,49.5895C 46.8255,50.4892 44.3217,50.918 41.8433,51.0912C 39.2804,51.271 36.6879,51.2627 34.1284,51.0227C 31.8163,50.8059 29.4882,50.3939 27.3129,49.554C 25.4952,48.8518 23.7422,47.814 22.5262,46.2562C 22.2424,45.8926 21.9912,45.5042 21.7767,45.0951C 21.7514,45.0465 21.726,44.9966 21.7007,44.9467C 21.6657,44.8741 21.6522,44.8444 21.6665,44.7628 Z M 19.1902,46.441C 19.4574,46.8352 19.7463,47.2145 20.0541,47.5782C 20.6692,48.303 21.3621,48.9603 22.1124,49.5433C 23.7084,50.7824 25.5488,51.6717 27.4619,52.2977C 29.6744,53.0229 31.9882,53.4097 34.3032,53.6023C 36.9877,53.8257 39.711,53.8229 42.3879,53.5412C 44.8706,53.2802 47.3448,52.7644 49.6671,51.8404C 51.7275,51.0223 53.6191,49.8538 55.2741,48.3764C 55.7006,47.993 56.1186,47.5839 56.4564,47.1184C 56.7477,46.7255 56.9757,46.2909 57.0179,45.7977C 57.0644,45.2197 56.9715,44.6317 56.8575,44.0676C 56.7308,43.4421 56.5619,42.8265 56.4057,42.2089C 56.3466,41.9837 56.2917,41.7586 56.241,41.5326C 55.633,38.8562 54.7084,36.2497 53.4459,33.8118C 52.3819,31.7463 51.0646,29.7962 49.5361,28.0456C 48.109,26.4106 46.4455,24.9802 44.5413,23.9385C 43.5279,23.3855 42.4555,22.9441 41.3535,22.613C 40.7582,22.4337 40.1502,22.2863 39.5379,22.1671C 39.3817,22.1364 39.2255,22.0968 39.065,22.0968C 38.8624,22.0968 38.6597,22.0968 38.457,22.0968C 38.0686,22.0968 37.6801,22.0968 37.2917,22.0968C 37.1144,22.0968 36.937,22.0886 36.7597,22.11C 36.5993,22.1296 36.4346,22.1525 36.2742,22.1791C 35.9617,22.2296 35.656,22.2914 35.3503,22.3646C 34.7449,22.5102 34.1491,22.7004 33.569,22.9285C 32.4091,23.3845 31.3101,23.991 30.2845,24.6984C 28.2811,26.0799 26.5411,27.8382 25.0764,29.7791C 23.5239,31.8374 22.283,34.1254 21.3249,36.5177C 20.3061,39.062 19.6023,41.7281 19.1674,44.4338C 19.1112,44.7809 19.0306,45.1413 19.0306,45.493C 19.0306,45.6823 19.0306,45.8711 19.0306,46.0592C 19.0306,46.1499 19.0285,46.1985 19.0783,46.2736C 19.1154,46.3296 19.1518,46.3849 19.1902,46.441 Z "/>
</svg>
