<?xml version="1.0" encoding="utf-8"?>
<!DOCTYPE svg PUBLIC "-//W3C//DTD SVG 1.1//EN" "http://www.w3.org/Graphics/SVG/1.1/DTD/svg11.dtd">
<svg xmlns="http://www.w3.org/2000/svg" xmlns:xlink="http://www.w3.org/1999/xlink" version="1.1" baseProfile="full" width="76" height="76" viewBox="0 0 76.00 76.00" enable-background="new 0 0 76.00 76.00" xml:space="preserve">
	<path fill="#000000" fill-opacity="1" stroke-width="0.2" stroke-linejoin="round" d="M 20.5833,17.4167L 43.5417,17.4167L 55.4167,29.2917L 55.4166,58.5833L 20.5833,58.5833L 20.5833,17.4167 Z M 23.75,20.5834L 23.75,55.4167L 52.25,55.4167L 52.25,33.25L 39.5833,33.25L 39.5833,20.5834L 23.75,20.5834 Z M 42.75,21.3751L 42.75,30.0834L 51.4583,30.0834L 42.75,21.3751 Z M 26.9167,23.75L 36.4166,23.75L 36.4166,26.9167L 26.9167,26.9167L 26.9167,23.75 Z M 26.9167,30.0833L 36.4166,30.0833L 36.4166,33.25L 26.9167,33.25L 26.9167,30.0833 Z M 26.9167,36.4167L 49.0833,36.4167L 49.0833,39.5833L 26.9167,39.5833L 26.9167,36.4167 Z M 26.9167,42.75L 49.0833,42.75L 49.0833,45.9167L 26.9167,45.9167L 26.9167,42.75 Z M 49.0833,49.0833L 49.0833,52.25L 26.9167,52.25L 26.9167,49.0833L 49.0833,49.0833 Z "/>
</svg>
