<?xml version="1.0" encoding="utf-8"?>
<!DOCTYPE svg PUBLIC "-//W3C//DTD SVG 1.1//EN" "http://www.w3.org/Graphics/SVG/1.1/DTD/svg11.dtd">
<svg xmlns="http://www.w3.org/2000/svg" xmlns:xlink="http://www.w3.org/1999/xlink" version="1.1" baseProfile="full" width="76" height="76" viewBox="0 0 76.00 76.00" enable-background="new 0 0 76.00 76.00" xml:space="preserve">
	<path fill="#000000" fill-opacity="1" stroke-width="0.2" stroke-linejoin="round" d="M 20.5833,60.1667L 21.8333,56.6042L 19,56.6042L 20.5833,52.2497L 23.3612,52.2497L 24.4722,49.0834L 21.7708,49.0833L 22.9583,45.5208L 25.7222,45.5208L 26.9722,41.9583L 24.9375,41.9583L 26.5208,39.1875L 27.9444,39.1875L 28.9166,36.4167L 26.9167,36.4167L 28.5,34.4375L 29.611,34.4375L 31.1388,30.0833L 34.8333,30.0833L 33.6875,34.4375L 42.3125,34.4375L 41.1667,30.0833L 44.8612,30.0833L 46.389,34.4375L 47.5,34.4375L 49.0833,36.4167L 47.0834,36.4167L 48.0556,39.1875L 49.4792,39.1875L 51.0625,41.9583L 49.0279,41.9583L 50.2778,45.5208L 52.6458,45.5208L 53.8333,49.0837L 51.5279,49.0837L 52.6388,52.2497L 55.4166,52.2497L 57,56.6042L 54.1667,56.6042L 55.4167,60.1667L 49.0833,60.1667L 48.1458,56.6042L 27.8542,56.6042L 26.9167,60.1667L 20.5833,60.1667 Z M 32.4375,39.1875L 43.5625,39.1875L 42.8333,36.4167L 33.1667,36.4167L 32.4375,39.1875 Z M 30.7708,45.5208L 45.2292,45.5208L 44.2917,41.9584L 31.7083,41.9584L 30.7708,45.5208 Z M 29.0001,52.2497L 46.9999,52.2497L 46.1667,49.0836L 29.8333,49.0834L 29.0001,52.2497 Z M 38,12.6667C 49.1028,12.6667 58.1523,21.4574 58.5684,32.4583L 58.5833,32.4583L 58.5833,33.25L 58.5833,33.6458L 50.6667,33.6459L 50.6667,32.4584L 53.0293,32.4583C 52.7393,23.2068 47.3536,15.8334 38,15.8334C 28.6464,15.8334 23.2607,23.2068 22.9707,32.4583L 25.3333,32.4583L 25.3333,33.6458L 17.4167,33.6459L 17.4167,33.25L 17.4167,32.4584L 17.4316,32.4584C 17.8476,21.4574 26.8972,12.6667 38,12.6667 Z "/>
</svg>
