<?xml version="1.0" encoding="utf-8"?>
<!DOCTYPE svg PUBLIC "-//W3C//DTD SVG 1.1//EN" "http://www.w3.org/Graphics/SVG/1.1/DTD/svg11.dtd">
<svg xmlns="http://www.w3.org/2000/svg" xmlns:xlink="http://www.w3.org/1999/xlink" version="1.1" baseProfile="full" width="76" height="76" viewBox="0 0 76.00 76.00" enable-background="new 0 0 76.00 76.00" xml:space="preserve">
	<path fill="#000000" fill-opacity="1" stroke-width="0.2" stroke-linejoin="round" d="M 47.5,30.0833L 56.2083,30.0833L 47.5,21.375L 47.5,30.0833 Z M 57,33.25L 47.5,33.25L 44.3333,33.25L 44.3333,20.5833L 28.5,20.5834L 28.5,29.2917L 25.3333,26.125L 25.3333,17.4167L 48.2917,17.4167L 60.1667,29.2917L 60.1667,58.5833L 25.3333,58.5833L 25.3333,43.5417L 28.5,46.7083L 28.5,55.4167L 57,55.4167L 57,33.25 Z M 24.5417,28.5L 39.5833,43.5417L 34.0417,49.0833L 19,34.0417L 24.5417,28.5 Z M 17.8125,32.8542L 14.6458,30.314C 13.6303,29.2984 14.0262,27.1405 15.0417,26.125L 16.625,24.5417C 17.6405,23.5262 19.5678,23.1303 20.5833,24.1459L 23.3541,27.3126L 17.8125,32.8542 Z M 41.9715,52.25L 35.2292,50.2709L 40.7708,44.7292L 42.6216,51.5999L 41.9715,52.25 Z "/>
</svg>
