<?xml version="1.0" encoding="utf-8"?>
<!DOCTYPE svg PUBLIC "-//W3C//DTD SVG 1.1//EN" "http://www.w3.org/Graphics/SVG/1.1/DTD/svg11.dtd">
<svg xmlns="http://www.w3.org/2000/svg" xmlns:xlink="http://www.w3.org/1999/xlink" version="1.1" baseProfile="full" width="76" height="76" viewBox="0 0 76.00 76.00" enable-background="new 0 0 76.00 76.00" xml:space="preserve">
	<path fill="#000000" fill-opacity="1" stroke-width="0.2" stroke-linejoin="round" d="M 41.5,49C 41.5,52.0376 39.0376,54.5 36,54.5C 32.9624,54.5 30.5,52.0376 30.5,49C 30.5,46.3039 32.4399,44.0609 35,43.5907L 35,31L 37,31L 37,43.5907C 39.5601,44.061 41.5,46.3039 41.5,49 Z M 45,49C 45,53.9706 40.9705,58 36,58C 31.0294,58 27,53.9706 27,49C 27,45.4663 29.0365,42.4083 32,40.9356L 32,22.0001C 32,19.7909 33.7908,18.0001 36,18.0001C 38.2091,18.0001 40,19.7909 40,22.0001L 40,40.9355C 42.9634,42.4082 45,45.4663 45,49 Z M 34,42.2899C 31.1085,43.1505 29,45.829 29,49C 29,52.866 32.134,56 36,56C 39.866,56 42.9999,52.866 42.9999,49C 42.9999,45.829 40.8914,43.1505 38,42.2899L 38,22.0001C 38,20.8955 37.1045,20.0001 36,20.0001C 34.8954,20.0001 34,20.8955 34,22.0001L 34,42.2899 Z M 31,21L 31,22L 25,22L 25,21L 31,21 Z M 31,24L 31,25L 27,25L 27,24L 31,24 Z M 31,27L 31,28L 25,28L 25,27L 31,27 Z M 31,30L 31,31L 27,31L 27,30L 31,30 Z M 31,33L 31,34L 25,34L 25,33L 31,33 Z M 31,36L 31,37L 27,37L 27,36L 31,36 Z M 31,39L 31,40L 25,40L 25,39L 31,39 Z M 52.8267,37.4983C 51.8836,37.9572 50.6518,38.1867 49.1312,38.1867C 47.146,38.1867 45.5855,37.6004 44.45,36.4279C 43.3144,35.2554 42.7467,33.694 42.7467,31.7438C 42.7467,29.6651 43.3854,27.9793 44.6629,26.6863C 45.9404,25.3932 47.598,24.7467 49.6358,24.7467C 50.8978,24.7467 51.9614,24.91 52.8267,25.2367L 52.8267,28.1067C 51.975,27.6089 51.0047,27.36 49.9158,27.36C 48.72,27.36 47.7551,27.7353 47.021,28.4858C 46.287,29.2364 45.92,30.2533 45.92,31.5367C 45.92,32.7675 46.2661,33.748 46.9583,34.4781C 47.6505,35.2083 48.5829,35.5733 49.7554,35.5733C 50.8735,35.5733 51.8972,35.3245 52.8267,34.8267L 52.8267,37.4983 Z M 57.3008,29.7867C 56.5736,29.7867 55.9572,29.5407 55.4517,29.0488C 54.9461,28.5568 54.6933,27.9579 54.6933,27.2521C 54.6933,26.5482 54.9461,25.9547 55.4517,25.4715C 55.9572,24.9883 56.5736,24.7467 57.3008,24.7467C 58.0242,24.7467 58.6415,24.9883 59.1529,25.4715C 59.6643,25.9547 59.92,26.5482 59.92,27.2521C 59.92,27.9579 59.6643,28.5568 59.1529,29.0488C 58.6415,29.5407 58.0242,29.7867 57.3008,29.7867 Z M 57.3067,26.0533C 56.9936,26.0533 56.7287,26.17 56.5119,26.4033C 56.2951,26.6367 56.1867,26.9215 56.1867,27.2579C 56.1867,27.5943 56.2951,27.8821 56.5119,28.1213C 56.7287,28.3604 56.9936,28.48 57.3067,28.48C 57.6139,28.48 57.8774,28.3604 58.0971,28.1213C 58.3168,27.8821 58.4267,27.5943 58.4267,27.2579C 58.4267,26.9215 58.3183,26.6367 58.1015,26.4033C 57.8846,26.17 57.6197,26.0533 57.3067,26.0533 Z "/>
</svg>
