<?xml version="1.0" encoding="utf-8"?>
<!DOCTYPE svg PUBLIC "-//W3C//DTD SVG 1.1//EN" "http://www.w3.org/Graphics/SVG/1.1/DTD/svg11.dtd">
<svg xmlns="http://www.w3.org/2000/svg" xmlns:xlink="http://www.w3.org/1999/xlink" version="1.1" baseProfile="full" width="76.0106" height="76.0106" viewBox="0 0 76.01 76.01" enable-background="new 0 0 76.01 76.01" xml:space="preserve">
	<path fill="#000000" fill-opacity="1" stroke-width="0.2" stroke-linejoin="round" d="M 50.0059,49.0063C 52.215,49.0063 54.0059,50.7971 54.0059,53.0063C 54.0059,55.2154 52.215,57.0063 50.0059,57.0063C 47.7967,57.0063 46.0059,55.2154 46.0059,53.0063C 46.0059,50.7971 47.7967,49.0063 50.0059,49.0063 Z M 50.0059,44.0063C 54.9764,44.0063 59.0059,48.0357 59.0059,53.0063C 59.0059,57.9768 54.9764,62.0063 50.0059,62.0063C 45.0353,62.0063 41.0059,57.9768 41.0059,53.0063C 41.0059,48.0357 45.0353,44.0063 50.0059,44.0063 Z M 50.0059,47.0063C 46.6921,47.0063 44.0059,49.6926 44.0059,53.0063C 44.0059,56.32 46.6922,59.0063 50.0059,59.0063C 53.3196,59.0063 56.0059,56.32 56.0059,53.0063C 56.0059,49.6926 53.3196,47.0063 50.0059,47.0063 Z M 23.0033,55.0078L 23.0033,37.0053L 21.0031,39.0056L 18.0027,34.0049L 37.0053,19.0028L 44.0063,24.5299L 44.0063,20.753L 48.0068,20.0029L 48.0068,27.6882L 56.0079,34.0049L 53.0075,39.0056L 51.0073,37.0053L 51.0073,42.051L 50.0071,42.0061C 49.324,42.0061 48.6555,42.0684 48.0068,42.1875L 48.0068,35.005L 37.0053,25.9205L 26.0038,35.005L 26.0038,52.0074L 32.0046,52.0074L 32.0046,41.006L 42.006,41.006L 42.006,45.4568C 40.1459,47.4271 39.0056,50.0842 39.0056,53.0077C 39.0056,53.6907 39.0678,54.3592 39.187,55.0078L 23.0033,55.0078 Z "/>
</svg>
