<?xml version="1.0" encoding="utf-8"?>
<!DOCTYPE svg PUBLIC "-//W3C//DTD SVG 1.1//EN" "http://www.w3.org/Graphics/SVG/1.1/DTD/svg11.dtd">
<svg xmlns="http://www.w3.org/2000/svg" xmlns:xlink="http://www.w3.org/1999/xlink" version="1.1" baseProfile="full" width="76" height="76" viewBox="0 0 76.00 76.00" enable-background="new 0 0 76.00 76.00" xml:space="preserve">
	<path fill="#000000" fill-opacity="1" stroke-width="0.2" stroke-linejoin="round" d="M 43.7867,58.7615L 43.7867,52.6392C 46.3174,52.427 48.3583,51.9831 49.9093,51.3077L 48.8073,44.9072C 47.2766,45.5636 45.2562,45.9216 42.7459,45.9813C 40.5325,45.9801 38.6435,45.3112 37.0788,43.9747C 35.5142,42.6383 34.6966,40.6416 34.6262,37.9848C 34.6596,35.5345 35.3981,33.5877 36.8416,32.1446C 38.2851,30.7015 40.2328,29.9631 42.6847,29.9296C 45.0521,29.9591 46.8685,30.3169 48.1338,31.0028L 49.6032,23.8847C 48.7601,23.5587 47.8289,23.291 46.8098,23.0817C 45.7906,22.8724 44.7829,22.7508 43.7867,22.7169L 43.7867,17.2643L 37.7866,17.2643L 37.7866,23.1949C 33.7592,24.0518 30.71,25.8645 28.639,28.6329C 26.5681,31.4014 25.5282,34.6181 25.5194,38.2832C 25.5683,42.306 26.6454,45.5987 28.7507,48.1614C 30.7991,50.6347 33.811,52.1692 37.7866,52.7648L 37.7866,58.7615L 43.7867,58.7615 Z "/>
</svg>
