<?xml version="1.0" encoding="utf-8"?>
<!DOCTYPE svg PUBLIC "-//W3C//DTD SVG 1.1//EN" "http://www.w3.org/Graphics/SVG/1.1/DTD/svg11.dtd">
<svg xmlns="http://www.w3.org/2000/svg" xmlns:xlink="http://www.w3.org/1999/xlink" version="1.1" baseProfile="full" width="76" height="76" viewBox="0 0 76.00 76.00" enable-background="new 0 0 76.00 76.00" xml:space="preserve">
	<g>
		<path fill="#000000" fill-opacity="1" stroke-width="0.2" stroke-linejoin="round" d="M 32.5137,50.6429L 32.5137,44.5629L 35.4399,44.5629L 35.4399,40.4304L 32.5137,40.4304L 32.5137,25.9904L 25.6071,25.9904L 16.2966,40.974L 16.2966,44.5629L 27.2412,44.5629L 27.2412,50.6429L 32.5137,50.6429 Z M 21.6549,40.4304L 21.6929,40.3526L 24.9611,34.8295C 25.7531,33.2802 26.5253,31.7114 27.2779,30.1229L 27.3877,30.1229C 27.3023,31.7502 27.2535,33.3191 27.2412,34.8295L 27.2412,40.4304L 21.6549,40.4304 Z "/>
		<path fill="#000000" fill-opacity="1" stroke-width="0.2" stroke-linejoin="round" d="M 59.8408,35.8704L 50.3695,35.8704L 50.3695,40.3829L 54.2545,40.3829L 54.2545,46.1452C 53.7437,46.3684 52.8222,46.4901 51.49,46.5104C 49.1158,46.4879 47.2061,45.7112 45.761,44.1801C 44.3159,42.6491 43.5736,40.4985 43.5339,37.7284C 43.586,35.0179 44.3875,33.002 45.9385,31.681C 47.4894,30.3599 49.4769,29.702 51.9009,29.7073C 53.2709,29.7126 54.4229,29.8115 55.3569,30.0038C 56.2908,30.1961 57.1014,30.4499 57.7887,30.7652L 59.0047,25.9904C 58.3658,25.7458 57.4396,25.5051 56.2261,25.268C 55.0126,25.031 53.5833,24.9037 51.9383,24.886C 47.7275,24.9181 44.2942,26.0776 41.6383,28.3647C 38.9825,30.6518 37.6035,33.8742 37.5014,38.0318C 37.5069,39.9795 37.8163,41.7928 38.4298,43.4716C 39.0432,45.1505 39.9276,46.567 41.083,47.7212C 43.3737,49.904 46.7929,51.0046 51.3406,51.0229C 53.0409,51.0015 54.6508,50.8426 56.1704,50.546C 57.69,50.2494 58.9134,49.9437 59.8408,49.6288L 59.8408,35.8704 Z "/>
	</g>
</svg>
