<?xml version="1.0" encoding="utf-8"?>
<!DOCTYPE svg PUBLIC "-//W3C//DTD SVG 1.1//EN" "http://www.w3.org/Graphics/SVG/1.1/DTD/svg11.dtd">
<svg xmlns="http://www.w3.org/2000/svg" xmlns:xlink="http://www.w3.org/1999/xlink" version="1.1" baseProfile="full" width="76" height="76" viewBox="0 0 76.00 76.00" enable-background="new 0 0 76.00 76.00" xml:space="preserve">
	<path fill="#000000" fill-opacity="1" stroke-width="0.2" stroke-linejoin="round" d="M 38,53.8333L 42.75,53.8333L 42.75,58.5833L 38,58.5833L 38,63.3333L 31.6667,63.3333L 31.6667,58.5833L 26.9167,58.5833L 26.9167,53.8333L 31.6667,53.8333L 31.6667,50.2676C 26.2034,48.8615 22.1667,43.9022 22.1667,38C 22.1667,31.0044 27.8377,25.3333 34.8333,25.3333C 37.1114,25.3333 39.249,25.9347 41.096,26.9873L 45.9167,22.1667L 41.1667,17.4167L 55.4167,17.4167L 55.4167,31.6667L 50.6667,26.9167L 45.846,31.7373C 46.8986,33.5844 47.5,35.722 47.5,38C 47.5,43.9022 43.4632,48.8615 38,50.2676L 38,53.8333 Z M 34.8333,30.0834C 30.4611,30.0834 26.9167,33.6278 26.9167,38C 26.9167,42.3723 30.4611,45.9167 34.8333,45.9167C 39.2056,45.9167 42.75,42.3723 42.75,38C 42.75,33.6278 39.2056,30.0834 34.8333,30.0834 Z "/>
</svg>
