<?xml version="1.0" encoding="utf-8"?>
<!DOCTYPE svg PUBLIC "-//W3C//DTD SVG 1.1//EN" "http://www.w3.org/Graphics/SVG/1.1/DTD/svg11.dtd">
<svg xmlns="http://www.w3.org/2000/svg" xmlns:xlink="http://www.w3.org/1999/xlink" version="1.1" baseProfile="full" width="76" height="76" viewBox="0 0 76.00 76.00" enable-background="new 0 0 76.00 76.00" xml:space="preserve">
	<path fill="#000000" fill-opacity="1" stroke-width="0.2" stroke-linejoin="round" d="M 46.2574,50.0858L 49.5858,53.4142L 55.7426,47.2573L 58.0711,49.5858L 49.5858,58.0711L 43.9289,52.4142L 46.2574,50.0858 Z M 54.75,46L 51.75,49L 43,49L 43,59L 53,59L 53,57.4286L 56,54L 56,62L 40,62L 40,46L 54.75,46 Z M 36,15.1667C 40.3723,15.1667 43.9167,18.7111 43.9167,23.0833C 43.9167,27.4556 40.3723,31 36,31C 31.6278,31 28.0833,27.4556 28.0833,23.0833C 28.0833,18.7111 31.6278,15.1667 36,15.1667 Z M 28.0833,42.0834C 27.0278,42.6111 24.9167,46.8333 24.9167,46.8333C 24.9167,46.8333 23.8611,48.4166 23.3333,54.7499L 18.5833,53.1666L 20.1667,45.25C 20.1667,45.25 23.3333,34.1667 29.6666,34.1668L 42.3332,34.1668C 48.1003,34.1667 51.2417,43.3565 51.7574,45L 46.0953,45C 45.4022,43.7894 44.4989,42.3744 43.9167,42.0833L 44.0464,45L 39,45L 39,57.804L 36.7917,57.9167C 33.4528,57.9167 30.2927,57.1511 27.4774,55.786L 28.0833,42.0834 Z "/>
</svg>
