<?xml version="1.0" encoding="utf-8"?>
<!DOCTYPE svg PUBLIC "-//W3C//DTD SVG 1.1//EN" "http://www.w3.org/Graphics/SVG/1.1/DTD/svg11.dtd">
<svg xmlns="http://www.w3.org/2000/svg" xmlns:xlink="http://www.w3.org/1999/xlink" version="1.1" baseProfile="full" width="101.356" height="101.356" viewBox="0 0 101.36 101.36" enable-background="new 0 0 101.36 101.36" xml:space="preserve">
	<path fill="#000000" fill-opacity="1" stroke-width="0.2" stroke-linejoin="round" d="M 38.0087,23.2275L 63.3478,23.2275L 63.3478,46.455L 84.4637,46.455L 84.4637,73.9057L 16.8927,73.9057L 16.8927,40.1202L 38.0087,40.1202L 38.0087,23.2275 Z M 32.7822,59.0883L 32.7822,56.142L 27.1449,56.142L 27.1449,56.0957L 28.5383,54.9397C 29.6516,53.9783 30.5798,52.9706 31.3228,51.9166C 32.0658,50.8627 32.4516,49.7047 32.4803,48.4427C 32.4754,47.0745 32.0306,45.967 31.1461,45.1202C 30.2615,44.2734 28.9664,43.8375 27.261,43.8124C 26.2416,43.8233 25.3078,43.9711 24.4596,44.256C 23.6115,44.5409 22.9041,44.8979 22.3376,45.3269L 23.3362,47.7953L 24.7586,46.966C 25.3083,46.717 25.9101,46.585 26.5643,46.5701C 27.4289,46.585 28.0569,46.7979 28.4483,47.2087C 28.8397,47.6196 29.0323,48.1388 29.026,48.7664C 29.0173,49.6171 28.6051,50.5342 27.7893,51.5178C 26.9736,52.5014 25.7369,53.7191 24.0793,55.1709L 22.1518,56.9198L 22.1518,59.0883L 32.7822,59.0883 Z M 49.7193,42.2173L 53.1331,42.2173L 53.1331,27.1519L 50.2302,27.1519L 46.2125,29.0061L 46.7931,31.6484L 49.6728,30.2809L 49.7193,30.2809L 49.7193,42.2173 Z M 68.4907,64.643C 68.9416,64.9173 69.5551,65.1557 70.3312,65.3582C 71.1072,65.5607 71.9878,65.667 72.9729,65.6771C 74.8638,65.6519 76.3269,65.2197 77.362,64.3805C 78.3971,63.5414 78.9215,62.4464 78.9353,61.0955C 78.9135,60.0816 78.6128,59.2532 78.0335,58.6101C 77.4541,57.9671 76.7272,57.5603 75.8527,57.3897L 75.8527,57.3433C 76.7245,57.0238 77.3787,56.5642 77.8155,55.9647C 78.2523,55.3653 78.4707,54.6665 78.4709,53.8684C 78.4644,52.8193 78.0455,51.9436 77.2143,51.2415C 76.3831,50.5393 75.1783,50.1745 73.5999,50.1472C 72.5984,50.1582 71.6869,50.2741 70.8653,50.4948C 70.0438,50.7156 69.3993,50.9751 68.932,51.2733L 69.6519,53.7996L 70.9844,53.2146C 71.5548,53.0224 72.1557,52.9192 72.7871,52.9048C 73.5404,52.9139 74.1007,53.0621 74.4679,53.3493C 74.8351,53.6366 75.018,54.0084 75.0166,54.4647C 74.9793,55.0883 74.6822,55.5327 74.1254,55.7979C 73.5685,56.0631 72.9753,56.1922 72.3458,56.185L 70.9524,56.185L 70.9524,58.7104L 72.3923,58.7104C 73.222,58.707 73.9371,58.8834 74.5375,59.2395C 75.138,59.5956 75.4525,60.1519 75.481,60.9085C 75.4805,61.4833 75.2493,61.9588 74.7872,62.3348C 74.3251,62.7109 73.6352,62.9058 72.7174,62.9194C 71.9805,62.9024 71.2945,62.7903 70.6592,62.5833L 69.2106,61.9841L 68.4907,64.643 Z "/>
</svg>
