<?xml version="1.0" encoding="utf-8"?>
<!DOCTYPE svg PUBLIC "-//W3C//DTD SVG 1.1//EN" "http://www.w3.org/Graphics/SVG/1.1/DTD/svg11.dtd">
<svg xmlns="http://www.w3.org/2000/svg" xmlns:xlink="http://www.w3.org/1999/xlink" version="1.1" baseProfile="full" width="76" height="76" viewBox="0 0 76.00 76.00" enable-background="new 0 0 76.00 76.00" xml:space="preserve">
	<path fill="#000000" fill-opacity="1" stroke-width="0.2" stroke-linejoin="round" d="M 43.5,20.5C 44.1183,19.8817 45.3817,19.8817 46,20.5C 46.6183,21.1183 46.6183,22.1317 46,22.75L 41.75,27L 54,27C 56.6234,27 59,29.3766 59,32L 59,52C 59,54.6234 56.6234,57 54,57L 22,57C 19.3766,57 17,54.6234 17,52L 17,32C 17,29.3766 19.3766,27 22,27L 31.25,27L 27,22.75C 26.3817,22.1317 26.3817,21.1183 27,20.5C 27.6183,19.8817 28.8817,19.8817 29.5,20.5L 36,27L 37.25,27L 43.5,20.5 Z M 22,32L 22,52L 46,52L 46,32L 22,32 Z M 52.25,31.6667C 50.5011,31.6667 49.0833,33.0845 49.0833,34.8334C 49.0833,36.5823 50.5011,38 52.25,38C 53.9989,38 55.4166,36.5823 55.4166,34.8334C 55.4166,33.0845 53.9989,31.6667 52.25,31.6667 Z M 52.2499,41.1667C 50.501,41.1667 49.0833,42.5845 49.0833,44.3334C 49.0833,46.0823 50.501,47.5 52.2499,47.5C 53.9988,47.5 55.4166,46.0823 55.4166,44.3334C 55.4166,42.5845 53.9988,41.1667 52.2499,41.1667 Z "/>
</svg>
