<?xml version="1.0" encoding="utf-8"?>
<!DOCTYPE svg PUBLIC "-//W3C//DTD SVG 1.1//EN" "http://www.w3.org/Graphics/SVG/1.1/DTD/svg11.dtd">
<svg xmlns="http://www.w3.org/2000/svg" xmlns:xlink="http://www.w3.org/1999/xlink" version="1.1" baseProfile="full" width="76" height="76" viewBox="0 0 76.00 76.00" enable-background="new 0 0 76.00 76.00" xml:space="preserve">
	<path fill="#000000" fill-opacity="1" stroke-width="0.2" stroke-linejoin="round" d="M 26.455,50.6456L 20.4642,50.633L 13.1944,28.0567L 18.815,28.0567L 21.5748,37.5809L 22.6729,41.5697L 23.5942,45.6336L 23.6952,45.6336C 24.2785,42.9115 24.9629,40.2696 25.7482,37.708L 28.6426,28.0567L 34.0944,28.0567L 26.455,50.6456 Z M 36.8389,28.0567L 41.8633,28.0567L 41.8633,50.6456L 36.8389,50.6456L 36.8389,28.0567 Z M 46.6344,50.6456L 46.6344,28.1622C 48.1506,27.8878 50.4422,27.74 53.5091,27.7189C 56.6418,27.7189 58.942,28.2889 60.4098,29.4289C 61.1502,29.9743 61.7325,30.7025 62.1567,31.6138C 62.581,32.525 62.7972,33.5769 62.8056,34.7696C 62.8049,35.9653 62.6316,37.04 62.2857,37.9935C 61.9397,38.947 61.4254,39.7191 60.7426,40.31C 59.8692,41.0621 58.809,41.6219 57.5619,41.9895C 56.3148,42.3571 54.9303,42.5402 53.4082,42.5389L 51.6589,42.4133L 51.6589,50.6456L 46.6344,50.6456 Z M 51.6589,31.572L 51.6589,38.7218C 52.0626,38.8236 52.6345,38.8715 53.3746,38.8656C 54.7503,38.8551 55.8253,38.5078 56.5997,37.8236C 57.374,37.1395 57.7678,36.1814 57.7811,34.9493C 57.7748,33.8265 57.4259,32.9552 56.7342,32.3354C 56.0426,31.7156 55.0461,31.4012 53.7446,31.3922C 52.7298,31.3982 52.0345,31.4581 51.6589,31.572 Z "/>
</svg>
