<?xml version="1.0" encoding="utf-8"?>
<!DOCTYPE svg PUBLIC "-//W3C//DTD SVG 1.1//EN" "http://www.w3.org/Graphics/SVG/1.1/DTD/svg11.dtd">
<svg xmlns="http://www.w3.org/2000/svg" xmlns:xlink="http://www.w3.org/1999/xlink" version="1.1" baseProfile="full" width="76" height="76" viewBox="0 0 76.00 76.00" enable-background="new 0 0 76.00 76.00" xml:space="preserve">
	<path fill="#000000" fill-opacity="1" stroke-width="0.2" stroke-linejoin="round" d="M 27.0986,51.6256L 27.0961,51.6352L 27.2903,51.6352C 27.3908,51.6391 27.49,51.6505 27.5914,51.6505C 27.6935,51.6505 27.7923,51.6391 27.8928,51.6352L 46.9359,51.6352L 46.9359,51.6298C 47.0756,51.6352 47.2116,51.6505 47.3518,51.6505C 52.6937,51.6505 57.0245,47.2851 57.0245,41.8997C 57.0245,36.5142 52.6937,32.1489 47.3518,32.1489C 47.155,32.1489 46.9621,32.1666 46.7678,32.1784C 45.9377,27.6442 42.0022,24.206 37.2636,24.206C 31.9221,24.206 27.5914,28.5718 27.5914,33.9572C 27.5914,34.0986 27.6066,34.2372 27.6125,34.3778L 27.5914,34.3765C 22.8604,34.3765 19.0245,38.2432 19.0245,43.013C 19.0245,47.6157 22.5982,51.3667 27.0986,51.6256 Z "/>
</svg>
