<?xml version="1.0" encoding="utf-8"?>
<!DOCTYPE svg PUBLIC "-//W3C//DTD SVG 1.1//EN" "http://www.w3.org/Graphics/SVG/1.1/DTD/svg11.dtd">
<svg xmlns="http://www.w3.org/2000/svg" xmlns:xlink="http://www.w3.org/1999/xlink" version="1.1" baseProfile="full" width="76" height="76" viewBox="0 0 76.00 76.00" enable-background="new 0 0 76.00 76.00" xml:space="preserve">
	<path fill="#000000" fill-opacity="1" stroke-width="0.2" stroke-linejoin="round" d="M 55.4167,34.8333L 20.5833,34.8333L 20.5833,7.82676L 23.7499,6.20538L 23.75,31.6667L 52.2499,31.6667L 52.2499,6.2053L 55.4166,7.82671L 55.4167,34.8333 Z M 22.1666,38L 25.3333,38L 25.3333,41.1667L 22.1666,41.1667L 22.1666,38 Z M 26.9166,38L 30.0833,38L 30.0833,41.1667L 26.9166,41.1667L 26.9166,38 Z M 31.6666,38L 34.8333,38L 34.8333,41.1667L 31.6666,41.1667L 31.6666,38 Z M 36.4166,38L 39.5833,38L 39.5833,41.1667L 36.4166,41.1667L 36.4166,38 Z M 41.1666,38L 44.3333,38L 44.3333,41.1667L 41.1666,41.1667L 41.1666,38 Z M 45.9166,38L 49.0833,38L 49.0833,41.1667L 45.9166,41.1667L 45.9166,38 Z M 50.6666,38L 53.8333,38L 53.8333,41.1667L 50.6666,41.1667L 50.6666,38 Z M 20.5833,44.3333L 55.4166,44.3333L 55.4166,68.1733L 52.25,69.7947L 52.25,47.5L 23.75,47.5L 23.75,69.7947L 20.5833,68.1733L 20.5833,44.3333 Z M 20.5833,38L 20.5833,41.1667L 17.4167,41.1667L 17.4167,38L 20.5833,38 Z M 58.5833,38L 58.5833,41.1667L 55.4167,41.1667L 55.4167,38L 58.5833,38 Z "/>
</svg>
