<?xml version="1.0" encoding="utf-8"?>
<!DOCTYPE svg PUBLIC "-//W3C//DTD SVG 1.1//EN" "http://www.w3.org/Graphics/SVG/1.1/DTD/svg11.dtd">
<svg xmlns="http://www.w3.org/2000/svg" xmlns:xlink="http://www.w3.org/1999/xlink" version="1.1" baseProfile="full" width="76" height="76" viewBox="0 0 76.00 76.00" enable-background="new 0 0 76.00 76.00" xml:space="preserve">
	<path fill="#000000" fill-opacity="1" stroke-width="0.2" stroke-linejoin="round" d="M 49.0833,25.3333C 53.4555,25.3333 57,28.8777 57,33.2499C 57,37.6222 53.4557,41.1665 49.0511,41.1665L 46.3853,41.1665C 45.5086,42.281 44.6428,42.9667 44.3333,42.75C 44.1034,42.589 44.2366,41.969 44.6268,41.1666L 36.8853,41.1666C 36.0086,42.281 35.1428,42.9667 34.8333,42.75C 34.6034,42.589 34.7366,41.969 35.1268,41.1666L 27.3853,41.1666C 26.5085,42.281 25.6428,42.9667 25.3333,42.75C 25.1034,42.589 25.2366,41.969 25.6268,41.1667L 22.9583,41.1667C 20.7722,41.1666 19,39.3944 19,37.2083C 19,35.2699 20.3931,33.657 22.2328,33.3163L 22.1667,32.4582C 22.1667,29.4826 24.5123,27.0545 27.4553,26.9222C 28.7579,23.2295 32.2783,20.5832 36.4167,20.5832C 40.3459,20.5832 43.7179,22.9686 45.1637,26.3701C 46.3193,25.7103 47.6573,25.3333 49.0833,25.3333 Z M 23.3345,47.1807C 24.3376,45.7481 25.4411,44.79 25.7993,45.0408C 26.1574,45.2916 25.6346,46.6562 24.6315,48.0888C 23.6283,49.5215 22.5248,50.4795 22.1666,50.2287C 21.8085,49.978 22.3313,48.6133 23.3345,47.1807 Z M 20.1678,53.952C 21.1709,52.5193 22.2745,51.5613 22.6326,51.8121C 22.9908,52.0629 22.4679,53.4275 21.4648,54.8601C 20.4617,56.2927 19.3581,57.2508 19,57C 18.6418,56.7492 19.1647,55.3846 20.1678,53.952 Z M 29.6678,44.014C 30.6709,42.5814 31.7745,41.6233 32.1326,41.8741C 32.4908,42.1249 31.9679,43.4896 30.9648,44.9222C 29.9617,46.3548 28.8581,47.3128 28.5,47.0621C 28.1418,46.8113 28.6647,45.4466 29.6678,44.014 Z M 26.5011,50.7853C 27.5043,49.3527 28.6078,48.3946 28.966,48.6454C 29.3241,48.8962 28.8013,50.2608 27.7981,51.6935C 26.795,53.1261 25.6915,54.0841 25.3333,53.8334C 24.9752,53.5826 25.498,52.2179 26.5011,50.7853 Z M 32.8345,47.1807C 33.8376,45.748 34.9411,44.79 35.2993,45.0408C 35.6574,45.2915 35.1346,46.6562 34.1315,48.0888C 33.1283,49.5214 32.0248,50.4795 31.6666,50.2287C 31.3085,49.9779 31.8313,48.6133 32.8345,47.1807 Z M 29.6678,53.952C 30.6709,52.5193 31.7745,51.5613 32.1326,51.8121C 32.4908,52.0628 31.9679,53.4275 30.9648,54.8601C 29.9617,56.2927 28.8581,57.2508 28.5,57C 28.1418,56.7492 28.6647,55.3846 29.6678,53.952 Z M 39.1678,44.014C 40.1709,42.5814 41.2745,41.6233 41.6326,41.8741C 41.9908,42.1249 41.4679,43.4895 40.4648,44.9222C 39.4617,46.3548 38.3581,47.3128 38,47.062C 37.6418,46.8113 38.1647,45.4466 39.1678,44.014 Z M 36.0011,50.7853C 37.0043,49.3527 38.1078,48.3946 38.466,48.6454C 38.8241,48.8962 38.3013,50.2608 37.2981,51.6934C 36.295,53.1261 35.1915,54.0841 34.8333,53.8333C 34.4752,53.5826 34.998,52.2179 36.0011,50.7853 Z M 42.3345,47.1807C 43.3376,45.748 44.4411,44.79 44.7993,45.0408C 45.1575,45.2915 44.6346,46.6562 43.6315,48.0888C 42.6283,49.5214 41.5248,50.4795 41.1667,50.2287C 40.8085,49.9779 41.3313,48.6133 42.3345,47.1807 Z M 39.1678,53.9519C 40.171,52.5193 41.2745,51.5613 41.6326,51.812C 41.9908,52.0628 41.4679,53.4275 40.4648,54.8601C 39.4617,56.2927 38.3581,57.2508 38,57C 37.6418,56.7492 38.1647,55.3846 39.1678,53.9519 Z M 48.6678,44.014C 49.671,42.5814 50.7745,41.6233 51.1326,41.8741C 51.4908,42.1249 50.9679,43.4895 49.9648,44.9221C 48.9617,46.3548 47.8581,47.3128 47.5,47.062C 47.1418,46.8113 47.6647,45.4466 48.6678,44.014 Z M 45.5012,50.7853C 46.5043,49.3527 47.6078,48.3946 47.966,48.6454C 48.3241,48.8962 47.8013,50.2608 46.7981,51.6934C 45.795,53.1261 44.6915,54.0841 44.3333,53.8333C 43.9752,53.5826 44.498,52.2179 45.5012,50.7853 Z "/>
</svg>
