<?xml version="1.0" encoding="utf-8"?>
<!DOCTYPE svg PUBLIC "-//W3C//DTD SVG 1.1//EN" "http://www.w3.org/Graphics/SVG/1.1/DTD/svg11.dtd">
<svg xmlns="http://www.w3.org/2000/svg" xmlns:xlink="http://www.w3.org/1999/xlink" version="1.1" baseProfile="full" width="76" height="76" viewBox="0 0 76.00 76.00" enable-background="new 0 0 76.00 76.00" xml:space="preserve">
	<path fill="#000000" fill-opacity="1" stroke-width="0.2" stroke-linejoin="round" d="M 47.9513,35.922C 47.9513,34.2839 47.1908,33.4649 45.6697,33.4649C 44.1346,33.4649 43.367,34.2839 43.367,35.922C 43.367,37.5928 44.1346,38.4282 45.6697,38.4282C 47.1908,38.4282 47.9513,37.5928 47.9513,35.922 Z M 20.5833,53.8333L 15.8333,38L 25.3333,38L 25.3333,28.5L 30.0833,28.5L 32.4583,20.5833L 38,20.5833L 38,28.5L 50.6667,28.5L 50.6667,33.25L 55.4167,33.25L 55.4167,38L 60.1667,38L 55.4167,53.8333L 20.5833,53.8333 Z M 40.4887,35.922C 40.4887,34.2839 39.7282,33.4649 38.2071,33.4649C 36.6579,33.4649 35.8834,34.2839 35.8834,35.922C 35.8834,37.5928 36.6579,38.4282 38.2071,38.4282C 39.7282,38.4282 40.4887,37.5928 40.4887,35.922 Z M 33.1595,35.922C 33.1595,34.2839 32.3849,33.4649 30.8358,33.4649C 29.2866,33.4649 28.512,34.2839 28.512,35.922C 28.512,37.5928 29.2866,38.4282 30.8358,38.4282C 32.3849,38.4282 33.1595,37.5928 33.1595,35.922 Z "/>
</svg>
