<?xml version="1.0" encoding="utf-8"?>
<!DOCTYPE svg PUBLIC "-//W3C//DTD SVG 1.1//EN" "http://www.w3.org/Graphics/SVG/1.1/DTD/svg11.dtd">
<svg xmlns="http://www.w3.org/2000/svg" xmlns:xlink="http://www.w3.org/1999/xlink" version="1.1" baseProfile="full" width="76" height="76" viewBox="0 0 76.00 76.00" enable-background="new 0 0 76.00 76.00" xml:space="preserve">
	<path fill="#000000" fill-opacity="1" stroke-linejoin="round" d="M 42,16C 42,16 47.25,18.75 48.25,22.75C 48.25,22.75 49,19 48,17C 50.9819,17.994 56.9275,30.8432 48.1616,31.9805C 48.4653,32.9827 49.124,33.312 49.4999,33.5001C 51.2156,34.3582 49.8034,35.4 49.3675,35.6787C 50.3575,36.3158 51,37.3422 51,38.5C 51,39.7029 50.3065,40.764 49.2503,41.394C 50.1022,41.4636 51,41.8174 50.9999,43C 50.9999,44.025 50.3871,44.583 49.5803,44.8736L 52.75,49.75C 51.9295,51.2738 48.5808,51.1489 45.2551,50.5863C 45.4016,50.9469 45.3167,51.4333 44.75,52C 44.75,52 42,53 41,56C 41,56 35,58 32,55C 32,55 34,48.25 33,44.25C 33,44.25 30.4819,44.0402 29.6752,40.929C 28.5626,40.6408 24.9612,39.3189 24.75,34.25C 24.75,34.25 24.75,29.75 26.75,28.75C 26.75,28.75 23.75,27 22.75,26L 27.75,26C 27.75,26 26,22.5 26,21.5C 26,21.5 28.75,24.5 29.75,24.5C 29.75,24.5 33,18 43,23C 43,23 43,18 42,16 Z M 33,28.25C 33,28.25 35,29.25 36,32.25C 36,32.25 34,31.25 33,31.25C 33,31.25 36,36 35,41C 35,41 34,38.5 32,38.5C 30.6366,38.5 30.2026,39.6618 30.0645,40.4014C 30.2718,41.4814 31.057,44.3143 33.5,43.5C 33.5,43.5 34,52 32.5,54.75C 32.5,54.75 35.5,57.5 40.5,55.5C 40.5,55.5 42.5,52.5 44.5,51.5C 44.5,51.5 44.7996,51.0505 44.761,50.4995C 41.1678,49.8463 37.75,48.75 37.75,48.75L 37,49.75L 36.5,49.5L 38.5,46.75L 39,47.25L 38.25,48.25C 51.25,52.25 52,49.75 52,49.75L 49.0187,45.0297C 47.5313,45.3393 45.75,45 45.75,45L 45.75,44.5C 47.75,44.5 50.5,45 50.5,43C 50.5,41.6772 49.1876,41.6668 48.2989,41.8114L 47.6568,41.953L 47.5,42L 44.7881,39.2881C 44.2519,40.8653 42.7585,42 41,42C 38.7908,42 37,40.2092 37,38C 37,35.7909 38.7908,34 41,34C 42.4206,34 43.6683,34.7406 44.3779,35.8568C 45.0801,35.3231 45.9969,35 47,35C 47.701,35 48.3599,35.1578 48.9328,35.435C 49.6819,35.2016 50.0598,34.3859 49,33.75C 48.0353,33.2677 47.6522,32.4364 47.5142,31.705C 45.9173,30.785 40.5004,28.0417 33,28.25 Z M 48,37.5C 48.5522,37.5 49,37.9477 49,38.5C 49,39.0523 48.5522,39.5 48,39.5C 47.4477,39.5 47,39.0523 47,38.5C 47,37.9477 47.4477,37.5 48,37.5 Z M 42,37C 42.5523,37 43,37.4477 43,38C 43,38.5523 42.5523,39 42,39C 41.4477,39 41,38.5523 41,38C 41,37.4477 41.4477,37 42,37 Z M 50.5,38.5C 50.5,36.8432 48.933,35.5 47,35.5C 46.0816,35.5 45.2458,35.8032 44.6214,36.2992C 44.8642,36.8153 45,37.3918 45,38L 44.9704,38.4889L 47.6953,41.4408C 49.2952,41.1644 50.5,39.9528 50.5,38.5 Z M 41,34.5C 39.067,34.5 37.5,36.067 37.5,38C 37.5,39.933 39.067,41.5 41,41.5C 42.933,41.5 44.5,39.933 44.5,38C 44.5,36.067 42.933,34.5 41,34.5 Z M 33,41C 33,41 30.5,39 32.5,42L 32.25,42.25C 32.25,42.25 29,38 33.75,40.5L 33,41 Z "/>
</svg>
