<?xml version="1.0" encoding="utf-8"?>
<!DOCTYPE svg PUBLIC "-//W3C//DTD SVG 1.1//EN" "http://www.w3.org/Graphics/SVG/1.1/DTD/svg11.dtd">
<svg xmlns="http://www.w3.org/2000/svg" xmlns:xlink="http://www.w3.org/1999/xlink" version="1.1" baseProfile="full" width="76" height="76" viewBox="0 0 76.00 76.00" enable-background="new 0 0 76.00 76.00" xml:space="preserve">
	<path fill="#000000" fill-opacity="1" stroke-width="0.2" stroke-linejoin="round" d="M 35.625,29.6875C 36.4995,29.6875 37.2083,30.3964 37.2083,31.2708C 37.2083,32.1453 36.4994,32.8542 35.625,32.8542C 34.7505,32.8542 34.0417,32.1453 34.0417,31.2708C 34.0417,30.3964 34.7505,29.6875 35.625,29.6875 Z M 40.7708,29.6875C 41.6453,29.6875 42.3542,30.3964 42.3542,31.2708C 42.3542,32.1453 41.6453,32.8542 40.7708,32.8542C 39.8964,32.8542 39.1875,32.1453 39.1875,31.2708C 39.1875,30.3964 39.8964,29.6875 40.7708,29.6875 Z M 25.6695,50.3757C 24.9442,48.0415 24.5417,45.4621 24.5417,42.75L 24.5568,41.8418C 22.3238,43.0668 19.8176,44.3333 19,44.3333C 16.8873,44.3333 20.8257,39.4499 25.9794,34.1962C 26.4655,32.8374 27.0638,31.5722 27.7572,30.4249C 28.2641,24.0121 32.6565,19 38,19C 43.3435,19 47.7358,24.0121 48.2428,30.4249C 48.9362,31.5722 49.5345,32.8374 50.0206,34.1962C 55.1743,39.4499 59.1127,44.3333 57,44.3333C 56.1824,44.3333 53.6762,43.0669 51.4432,41.8418L 51.4583,42.75C 51.4583,45.4621 51.0558,48.0415 50.3305,50.3757L 48.2917,49.875C 48.2917,43.7841 45.5317,38.5857 41.649,36.5467L 38,42.75L 34.3514,36.5475C 30.4685,38.59 27.7084,43.8045 27.7085,49.9664L 25.6695,50.3757 Z M 34.0416,26.125C 31.8555,26.125 30.0833,28.2517 30.0833,30.875C 30.0833,33.4984 31.8555,35.625 34.0416,35.625C 36.2278,35.625 38,33.4984 38,30.875C 38,28.2517 36.2278,26.125 34.0416,26.125 Z M 38,30.875C 38,32.6239 39.7722,34.4375 41.9583,34.4375C 44.1444,34.4375 45.9166,32.6239 45.9166,30.875C 45.9166,29.1261 44.1444,27.3125 41.9583,27.3125C 39.7722,27.3125 38,29.1261 38,30.875 Z M 30.0833,50.6667C 33.1473,50.6667 35.7032,52.0266 36.29,53.8333L 36.8125,53.8333L 36.8125,55.4167L 36.29,55.4167C 35.7032,57.2234 33.1473,58.5833 30.0833,58.5833C 26.5855,58.5833 23.75,56.8111 23.75,54.625C 23.75,52.4389 26.5855,50.6667 30.0833,50.6667 Z M 45.9166,50.6667C 49.4144,50.6667 52.25,52.4389 52.25,54.625C 52.25,56.8111 49.4144,58.5833 45.9166,58.5833C 42.8526,58.5833 40.2968,57.2234 39.71,55.4167L 39.1875,55.4167L 39.1875,53.8333L 39.71,53.8333C 40.2968,52.0266 42.8526,50.6667 45.9166,50.6667 Z "/>
</svg>
