<?xml version="1.0" encoding="utf-8"?>
<!DOCTYPE svg PUBLIC "-//W3C//DTD SVG 1.1//EN" "http://www.w3.org/Graphics/SVG/1.1/DTD/svg11.dtd">
<svg xmlns="http://www.w3.org/2000/svg" xmlns:xlink="http://www.w3.org/1999/xlink" version="1.1" baseProfile="full" width="76" height="76" viewBox="0 0 76.00 76.00" enable-background="new 0 0 76.00 76.00" xml:space="preserve">
	<g>
		<path fill="#000000" fill-opacity="1" stroke-width="0.2" stroke-linejoin="round" d="M 14.25,32.165L 20.479,49.0255L 25.7981,49.0255L 32.1671,32.165L 26.568,32.165L 24.3633,39.9922C 23.9959,41.4233 23.681,42.8056 23.4185,44.139L 23.3135,44.139C 23.0569,42.8182 22.7303,41.4454 22.3337,40.0207L 20.0241,32.165L 14.25,32.165 Z "/>
		<path fill="#000000" fill-opacity="1" stroke-width="0.2" stroke-linejoin="round" d="M 39.915,49.0255L 39.915,32.165L 34.6763,32.165L 34.6763,49.0255L 39.915,49.0255 Z M 37.4891,24.4171C 36.6275,24.4336 35.946,24.6849 35.4446,25.1711C 34.9433,25.6573 34.6872,26.2791 34.6763,27.0366C 34.6865,27.7789 34.9353,28.3964 35.4229,28.8889C 35.9105,29.3814 36.5761,29.637 37.4196,29.6557C 38.3131,29.637 39.0091,29.3814 39.5075,28.8889C 40.006,28.3964 40.2592,27.7789 40.2677,27.0366C 40.2426,26.2791 39.9879,25.6573 39.5032,25.1711C 39.0185,24.6849 38.3471,24.4336 37.4891,24.4171 Z "/>
		<path fill="#000000" fill-opacity="1" stroke-width="0.2" stroke-linejoin="round" d="M 44.1851,56.0691L 49.4238,56.0691L 49.4238,47.5447L 49.4957,47.5447C 49.8997,48.0793 50.4949,48.5157 51.2811,48.854C 52.0674,49.1922 52.9953,49.3668 54.0649,49.3777C 56.0656,49.3912 57.8266,48.6768 59.3479,47.2346C 60.8692,45.7923 61.6699,43.5413 61.75,40.4814C 61.6918,37.7576 60.9918,35.6378 59.6502,34.122C 58.3085,32.6062 56.6746,31.8365 54.7485,31.8126C 52.1604,31.842 50.213,32.7675 48.9065,34.5891L 48.8375,34.5891L 48.5963,32.165L 44.0443,32.165C 44.1264,33.761 44.1734,35.6713 44.1851,37.8958L 44.1851,56.0691 Z M 49.4238,39.5729C 49.4238,39.272 49.4598,38.971 49.5317,38.6699C 49.7288,37.8746 50.1261,37.2334 50.7235,36.7462C 51.3209,36.2591 52.0149,36.0087 52.8057,35.9949C 54.0304,36.0239 54.9538,36.4784 55.576,37.3585C 56.1981,38.2386 56.5099,39.3704 56.5114,40.7541C 56.5024,42.2152 56.1696,43.3745 55.513,44.2321C 54.8564,45.0896 53.93,45.5282 52.7337,45.5477C 51.9302,45.5325 51.2437,45.2937 50.674,44.8313C 50.1044,44.3689 49.7236,43.774 49.5317,43.0467C 49.4598,42.7109 49.4238,42.3404 49.4238,41.9352L 49.4238,39.5729 Z "/>
	</g>
</svg>
