<?xml version="1.0" encoding="utf-8"?>
<!DOCTYPE svg PUBLIC "-//W3C//DTD SVG 1.1//EN" "http://www.w3.org/Graphics/SVG/1.1/DTD/svg11.dtd">
<svg xmlns="http://www.w3.org/2000/svg" xmlns:xlink="http://www.w3.org/1999/xlink" version="1.1" baseProfile="full" width="76" height="76" viewBox="0 0 76.00 76.00" enable-background="new 0 0 76.00 76.00" xml:space="preserve">
	<path fill="#000000" fill-opacity="1" stroke-width="0.2" stroke-linejoin="round" d="M 17.4166,20.5834L 38,20.5834L 38,57L 17.4167,57L 17.4166,20.5834 Z M 20.5833,23.75L 20.5833,53.8333L 34.8333,53.8334L 34.8333,23.7501L 20.5833,23.75 Z M 41.1667,20.5833C 46.1574,20.5833 50.6579,22.6825 53.8333,26.046L 53.8333,17.4167L 58.5833,22.1667L 58.5833,34.8333L 45.9167,34.8333L 41.1667,30.0833L 50.0179,30.0833C 47.8435,27.6539 44.6836,26.125 41.1667,26.125L 39.5833,26.2296L 39.5833,20.6543L 41.1667,20.5833 Z M 39.5833,57L 39.5833,53.8334L 44.3333,53.8333L 44.3333,57L 39.5833,57 Z M 52.25,53.8333L 52.25,57L 47.5,57L 47.5,53.8333L 52.25,53.8333 Z M 55.4167,52.25L 58.5833,52.25L 58.5833,57L 55.4167,57L 55.4167,52.25 Z M 55.4167,44.3333L 58.5833,44.3333L 58.5833,49.0833L 55.4167,49.0833L 55.4167,44.3333 Z M 55.4166,36.4167L 58.5833,36.4167L 58.5833,41.1667L 55.4166,41.1667L 55.4166,36.4167 Z M 47.5,39.5834L 47.5,36.4167L 52.25,36.4167L 52.25,39.5834L 47.5,39.5834 Z M 39.5833,39.5834L 39.5833,36.4167L 44.3333,36.4167L 44.3333,39.5834L 39.5833,39.5834 Z "/>
</svg>
