<?xml version="1.0" encoding="utf-8"?>
<!DOCTYPE svg PUBLIC "-//W3C//DTD SVG 1.1//EN" "http://www.w3.org/Graphics/SVG/1.1/DTD/svg11.dtd">
<svg xmlns="http://www.w3.org/2000/svg" xmlns:xlink="http://www.w3.org/1999/xlink" version="1.1" baseProfile="full" width="76" height="76" viewBox="0 0 76.00 76.00" enable-background="new 0 0 76.00 76.00" xml:space="preserve">
	<path fill="#000000" fill-opacity="1" stroke-width="0.2" stroke-linejoin="round" d="M 48.3911,32.2789C 49.0583,33.4442 49.8394,34.9474 49.8394,37.1133C 49.8394,38.6164 49.3918,40.5037 48.5051,42.7837L 46.7529,48.6272L 40.4155,29.7794C 41.4752,29.7203 42.421,29.6105 42.421,29.6105C 43.3668,29.5008 43.2528,28.1116 42.3112,28.1665C 42.3112,28.1665 39.4697,28.3903 37.6373,28.3903C 35.9138,28.3903 33.0199,28.1665 33.0199,28.1665C 32.0741,28.1116 31.9648,29.5556 32.9076,29.6105C 32.9076,29.6105 33.8035,29.7203 34.7493,29.7794L 37.4768,37.2653L 33.6423,48.7708L 27.2554,29.7794C 28.313,29.7203 29.2639,29.6105 29.2639,29.6105C 30.2096,29.5008 30.0944,28.1116 29.1515,28.1665C 29.1515,28.1665 26.313,28.3903 24.4768,28.3903C 24.1487,28.3903 23.7619,28.3819 23.3494,28.3692C 26.4857,23.6066 31.8757,20.4653 38.0004,20.4653C 42.5645,20.4653 46.7234,22.209 49.8394,25.0675C 49.7676,25.0632 49.6916,25.0548 49.6156,25.0548C 47.8887,25.0548 46.6685,26.5537 46.6685,28.1665C 46.6685,29.6105 47.5045,30.8349 48.3911,32.2789 Z M 52.1742,37.6707C 53.1707,35.1669 53.5084,33.1698 53.5084,31.3881C 53.5084,30.7463 53.462,30.1468 53.386,29.5852C 54.754,32.0847 55.5351,34.9515 55.5351,38C 55.5351,44.4683 52.0264,50.1176 46.8163,53.1534M 38.0004,55.5347C 36.2777,55.5347 34.6167,55.2856 33.0457,54.8211L 38.3086,39.5369L 43.7003,54.3018C 43.7341,54.3862 43.7763,54.4665 43.8228,54.5382C 42.003,55.1842 40.0397,55.5347 38.0004,55.5347 Z M 20.4648,38C 20.4648,35.4582 21.0124,33.0432 21.984,30.8603L 30.3481,53.7783C 24.5,50.941 20.4648,44.9412 20.4648,38 Z M 19.0002,38C 19.0002,48.4921 27.5057,56.9998 38.0004,56.9998C 48.4925,56.9998 57.0002,48.4921 57.0002,38C 57.0002,27.5079 48.4925,19.0002 38.0004,19.0002C 27.5057,19.0002 19.0002,27.5079 19.0002,38 Z "/>
</svg>
