<?xml version="1.0" encoding="utf-8"?>
<!DOCTYPE svg PUBLIC "-//W3C//DTD SVG 1.1//EN" "http://www.w3.org/Graphics/SVG/1.1/DTD/svg11.dtd">
<svg xmlns="http://www.w3.org/2000/svg" xmlns:xlink="http://www.w3.org/1999/xlink" version="1.1" baseProfile="full" width="76" height="76" viewBox="0 0 76.00 76.00" enable-background="new 0 0 76.00 76.00" xml:space="preserve">
	<path fill="#000000" fill-opacity="1" stroke-width="0.2" stroke-linejoin="round" d="M 33,51L 36.4167,61.75L 24,51L 19,51L 19,22L 57,22L 57,51L 33,51 Z M 26.275,41.9375C 27.2133,41.7975 27.9454,41.4696 28.4712,40.9538C 28.9971,40.4379 29.26,39.7967 29.26,39.03C 29.26,38.4 29.0492,37.835 28.6275,37.335C 28.2058,36.835 27.4217,36.32 26.275,35.79L 26.275,32.1875C 27.2183,32.2192 27.9742,32.4434 28.5425,32.86L 28.5425,31.1875C 28.1258,30.9275 27.37,30.7817 26.275,30.75L 26.275,29.375L 25.315,29.375L 25.315,30.78C 24.4667,30.895 23.7662,31.235 23.2137,31.8C 22.6612,32.365 22.385,33.0359 22.385,33.8125C 22.385,34.4692 22.5658,35.0371 22.9275,35.5163C 23.2892,35.9954 24.085,36.5183 25.315,37.085L 25.315,40.5625C 24.8417,40.5625 24.3325,40.4688 23.7875,40.2813C 23.2425,40.0938 22.8117,39.8617 22.495,39.585L 22.495,41.3275C 23.2183,41.7758 24.1583,42 25.315,42L 25.315,43.6325L 26.275,43.6325L 26.275,41.9375 Z M 25.315,35.3425C 24.8417,35.0925 24.5112,34.8454 24.3237,34.6013C 24.1362,34.3571 24.0425,34.0417 24.0425,33.655C 24.0425,33.2917 24.1571,32.9821 24.3862,32.7263C 24.6154,32.4704 24.925,32.3042 25.315,32.2275L 25.315,35.3425 Z M 26.275,37.5075C 27.1617,37.9758 27.605,38.5175 27.605,39.1325C 27.605,39.8675 27.1617,40.3283 26.275,40.515L 26.275,37.5075 Z M 39.36,33.805L 37.58,33.805L 38.205,30.7975L 36.97,30.7975L 36.33,33.805L 34.44,33.805L 35.055,30.7975L 33.7975,30.7975L 33.1725,33.805L 31.2675,33.805L 31.04,34.8975L 32.9475,34.8975L 32.5175,37.055L 30.705,37.055L 30.485,38.1475L 32.275,38.1475L 31.665,41.04L 32.9075,41.04L 33.5175,38.1475L 35.4075,38.1475L 34.7825,41.04L 36.025,41.04L 36.665,38.1475L 38.555,38.1475L 38.83,37.055L 36.8925,37.055L 37.345,34.8975L 39.1175,34.8975L 39.36,33.805 Z M 36.11,34.8975L 35.65,37.055L 33.735,37.055L 34.205,34.8975L 36.11,34.8975 Z M 42.9575,30.7975L 41.12,30.7975L 41.325,38.7025L 42.8075,38.7025L 42.9575,30.7975 Z M 42.09,42.155C 42.3917,42.155 42.6533,42.055 42.875,41.855C 43.0967,41.655 43.2075,41.4117 43.2075,41.125C 43.2075,40.8283 43.0967,40.5758 42.875,40.3675C 42.6533,40.1592 42.3917,40.055 42.09,40.055C 41.7767,40.055 41.5108,40.1592 41.2925,40.3675C 41.0742,40.5758 40.965,40.8283 40.965,41.125C 40.965,41.4117 41.0742,41.655 41.2925,41.855C 41.5108,42.055 41.7767,42.155 42.09,42.155 Z M 53.7575,38.015L 53.7575,36.7275L 50.67,36.7275L 50.67,33.6325L 49.3825,33.6325L 49.3825,36.7275L 46.295,36.7275L 46.295,38.015L 49.3825,38.015L 49.3825,41.1025L 50.67,41.1025L 50.67,38.015L 53.7575,38.015 Z "/>
</svg>
