<?xml version="1.0" encoding="utf-8"?>
<!DOCTYPE svg PUBLIC "-//W3C//DTD SVG 1.1//EN" "http://www.w3.org/Graphics/SVG/1.1/DTD/svg11.dtd">
<svg xmlns="http://www.w3.org/2000/svg" xmlns:xlink="http://www.w3.org/1999/xlink" version="1.1" baseProfile="full" width="76" height="76" viewBox="0 0 76.00 76.00" enable-background="new 0 0 76.00 76.00" xml:space="preserve">
	<path fill="#000000" fill-opacity="1" stroke-width="0.2" stroke-linejoin="round" d="M 33.25,28.5C 33.25,32.8723 30.7689,36.4167 27.7083,36.4167C 24.6478,36.4167 22.1667,32.8723 22.1667,28.5L 28.5,20.6635C 31.1856,21.2123 33.25,24.5117 33.25,28.5 Z M 42.75,28.5C 42.75,24.5117 44.8144,21.2123 47.5,20.6635L 53.8333,28.5C 53.8333,32.8723 51.3522,36.4167 48.2916,36.4167C 45.2311,36.4167 42.75,32.8723 42.75,28.5 Z M 27.7083,47.5L 45.125,47.5C 47.3111,47.5 49.0833,49.2722 49.0833,51.4583C 49.0833,53.6445 47.3111,55.4167 45.125,55.4167L 27.7083,55.4167C 25.5222,55.4167 23.75,53.6445 23.75,51.4584C 23.75,49.2722 25.5222,47.5 27.7083,47.5 Z M 56.2083,50.5865C 50.6667,49.0833 55.6806,40.0844 55.4167,34.8333C 61.75,42.6698 63.3333,50.6667 56.2083,50.5865 Z "/>
</svg>
