<?xml version="1.0" encoding="utf-8"?>
<!DOCTYPE svg PUBLIC "-//W3C//DTD SVG 1.1//EN" "http://www.w3.org/Graphics/SVG/1.1/DTD/svg11.dtd">
<svg xmlns="http://www.w3.org/2000/svg" xmlns:xlink="http://www.w3.org/1999/xlink" version="1.1" baseProfile="full" width="76" height="76" viewBox="0 0 76.00 76.00" enable-background="new 0 0 76.00 76.00" xml:space="preserve">
	<path fill="#000000" fill-opacity="1" stroke-width="0.2" stroke-linejoin="round" d="M 39.07,29.8956L 36.2317,30.25L 38.23,32.3598L 36.3761,33.61L 34.9816,31.0047L 33.5837,33.61L 31.72,32.3598L 33.7281,30.25L 30.8802,29.8956L 31.6183,27.94L 34.24,28.99L 33.8203,26.05L 36.13,26.05L 35.71,28.99L 38.312,27.94L 39.07,29.8956 Z M 17,20L 59,20L 59,56L 17,56L 17,20 Z M 20,23L 20,53L 56,53L 56,23L 20,23 Z M 26.456,26.7596L 26.9443,26.5354C 25.515,28.6847 25.2556,31.5218 26.5108,33.9854C 27.7661,36.449 30.2139,37.9067 32.7928,38.0137L 32.3244,38.277C 29.144,39.8975 25.252,38.633 23.6315,35.4525C 22.011,32.272 23.2755,28.3801 26.456,26.7596 Z M 44.8963,30.2C 47.4327,30.2 49.4889,32.2562 49.4889,34.7926C 49.4889,37.329 47.4327,39.3852 44.8963,39.3852C 42.3599,39.3852 40.3037,37.329 40.3037,34.7926C 40.3037,32.2562 42.3599,30.2 44.8963,30.2 Z M 40.3037,45.8148C 39.6914,46.121 38.4667,48.5703 38.4667,48.5703C 38.4667,48.5703 38.109,49.1069 37.8037,51L 35.0415,51L 35.7111,47.6519C 35.7111,47.6519 37.5482,41.2222 41.2222,41.2223L 48.5703,41.2223C 51.7977,41.2222 53.6075,46.1832 54,47.3898L 54,51L 51.9889,51C 51.6836,49.1069 51.326,48.5704 51.326,48.5704C 51.326,48.5704 50.1012,46.121 49.4889,45.8148L 49.7196,51L 40.0744,51L 40.3037,45.8148 Z "/>
</svg>
