<?xml version="1.0" encoding="utf-8"?>
<!DOCTYPE svg PUBLIC "-//W3C//DTD SVG 1.1//EN" "http://www.w3.org/Graphics/SVG/1.1/DTD/svg11.dtd">
<svg xmlns="http://www.w3.org/2000/svg" xmlns:xlink="http://www.w3.org/1999/xlink" version="1.1" baseProfile="full" width="76" height="76" viewBox="0 0 76.00 76.00" enable-background="new 0 0 76.00 76.00" xml:space="preserve">
	<path fill="#000000" fill-opacity="1" stroke-width="0.2" stroke-linejoin="round" d="M 19,19L 20.1875,19L 20.1875,57L 19,57L 19,19 Z M 22.1666,19L 23.75,19L 23.75,57L 22.1666,57L 22.1666,19 Z M 25.3333,19L 28.5,19L 28.5,57L 25.3333,57L 25.3333,19 Z M 30.0833,19L 31.6666,19L 31.6666,57L 30.0833,57L 30.0833,19 Z M 33.25,19L 34.0416,19L 34.0416,57L 33.25,57L 33.25,19 Z M 38,19L 42.75,19L 42.75,57L 38,57L 38,19 Z M 44.3333,19L 45.9166,19L 45.9166,57L 44.3333,57L 44.3333,19 Z M 50.6667,19L 53.8333,19L 53.8333,57L 50.6667,57L 50.6667,19 Z M 55.4167,19L 57,19L 57,57L 55.4167,57L 55.4167,19 Z M 47.5,19L 48.2917,19L 48.2917,57L 47.5,57L 47.5,19 Z "/>
</svg>
