<?xml version="1.0" encoding="utf-8"?>
<!DOCTYPE svg PUBLIC "-//W3C//DTD SVG 1.1//EN" "http://www.w3.org/Graphics/SVG/1.1/DTD/svg11.dtd">
<svg xmlns="http://www.w3.org/2000/svg" xmlns:xlink="http://www.w3.org/1999/xlink" version="1.1" baseProfile="full" width="60.9583" height="39.5833" viewBox="0 0 60.96 39.58" enable-background="new 0 0 60.96 39.58" xml:space="preserve">
	<path fill="#000000" fill-opacity="1" stroke-width="0.2" stroke-linejoin="round" d="M 41.1666,28.5L 44.3333,39.5834L 31.6666,28.5L 26.9167,28.5L 26.9166,0.00012207L 57.2553,0.00012207C 59.6255,4.76965 60.9583,10.1459 60.9583,15.8334C 60.9583,20.2947 60.1383,24.5643 58.6407,28.5001L 41.1666,28.5 Z M 20.5833,20.5834C 22.3322,20.5834 23.75,22.0011 23.75,23.75C 23.75,25.4989 22.3322,26.9167 20.5833,26.9167L 12.6667,26.9167C 10.9178,26.9167 9.49999,25.4989 9.49999,23.75C 9.49999,22.0011 10.9178,20.5834 12.6667,20.5834L 20.5833,20.5834 Z M 19,11.0834C 20.7489,11.0834 22.1666,12.5012 22.1666,14.2501C 22.1666,15.999 20.7489,17.4167 19,17.4167L 7.91667,17.4167C 6.16777,17.4167 4.75,15.9989 4.75,14.25C 4.75,12.5011 6.16777,11.0834 7.91667,11.0834L 19,11.0834 Z M 17.4166,1.58337C 19.1655,1.58337 20.5833,3.00122 20.5833,4.75012C 20.5833,6.49902 19.1655,7.91675 17.4166,7.91675L 3.16666,7.91675C 1.41776,7.91675 0,6.4989 0,4.75C 0,3.0011 1.41776,1.58337 3.16666,1.58337L 17.4166,1.58337 Z "/>
</svg>
