<?xml version="1.0" encoding="utf-8"?>
<!DOCTYPE svg PUBLIC "-//W3C//DTD SVG 1.1//EN" "http://www.w3.org/Graphics/SVG/1.1/DTD/svg11.dtd">
<svg xmlns="http://www.w3.org/2000/svg" xmlns:xlink="http://www.w3.org/1999/xlink" version="1.1" baseProfile="full" width="76" height="76" viewBox="0 0 76.00 76.00" enable-background="new 0 0 76.00 76.00" xml:space="preserve">
	<path fill="#000000" fill-opacity="1" stroke-width="0.2" stroke-linejoin="round" d="M 29.9796,22.2C 33.4365,22.2 36.2389,25.0024 36.2389,28.4593C 36.2389,31.9162 33.4365,34.7185 29.9796,34.7185C 26.5228,34.7185 23.7204,31.9162 23.7204,28.4593C 23.7204,25.0024 26.5228,22.2 29.9796,22.2 Z M 23.7204,43.2315C 22.8858,43.6488 21.2167,46.987 21.2167,46.987C 21.2167,46.987 20.3821,48.2388 19.9648,53.2462L 16.2093,51.9944L 17.4611,45.7352C 17.4611,45.7352 19.9648,36.9722 24.9722,36.9723L 34.9869,36.9723C 39.9944,36.9722 42.4981,45.7352 42.4981,45.7352L 43.75,51.9945L 39.9944,53.2463C 39.5772,48.2389 38.7427,46.987 38.7427,46.987C 38.7427,46.987 37.0735,43.6488 36.2389,43.2315L 36.7447,54.6004C 34.8417,55.3427 32.7712,55.75 30.6056,55.75C 27.9657,55.75 25.4672,55.1447 23.2413,54.0654L 23.7204,43.2315 Z M 39,24L 57,24L 57,27L 39,27L 39,24 Z M 39,30L 57,30L 57,33L 39,33L 39,30 Z M 41,36L 57,36L 57,39L 41,39L 41,36 Z M 44,42L 57,42L 57,45L 44,45L 44,42 Z M 46,48L 57,48L 57,51L 46,51L 46,48 Z "/>
</svg>
