<?xml version="1.0" encoding="utf-8"?>
<!DOCTYPE svg PUBLIC "-//W3C//DTD SVG 1.1//EN" "http://www.w3.org/Graphics/SVG/1.1/DTD/svg11.dtd">
<svg xmlns="http://www.w3.org/2000/svg" xmlns:xlink="http://www.w3.org/1999/xlink" version="1.1" baseProfile="full" width="76" height="76" viewBox="0 0 76.00 76.00" enable-background="new 0 0 76.00 76.00" xml:space="preserve">
	<path fill="#000000" fill-opacity="1" stroke-width="0.2" stroke-linejoin="round" d="M 20,17L 44,17L 56,29L 56,45.1515C 57.8558,47.0453 59,49.639 59,52.5C 59,58.299 54.299,63 48.5,63C 45.1554,63 42.1761,61.4363 40.2532,59L 20,59L 20,17 Z M 24,21L 24,55L 38.2994,55C 38.1038,54.1988 38,53.3615 38,52.5C 38,46.701 42.701,42 48.5,42C 49.7272,42 50.9053,42.2105 52,42.5975L 52,34L 39,34L 39,21L 24,21 Z M 43,21L 43,30L 52,30L 43,21 Z M 52.8933,48.2175L 52.8933,46.7975L 45.0808,46.7975L 45.0808,48.8125L 50.2983,48.8125L 49.0845,50.9212L 48.0383,53.1362C 47.7233,53.8937 47.4458,54.6762 47.2058,55.4837C 46.9658,56.2912 46.7733,57.13 46.6283,58L 49.2058,58C 49.3408,57.0833 49.515,56.2279 49.7283,55.4337C 49.9416,54.6396 50.1996,53.8583 50.502,53.09L 51.5495,50.7537L 52.8933,48.2175 Z "/>
</svg>
