<?xml version="1.0" encoding="utf-8"?>
<!DOCTYPE svg PUBLIC "-//W3C//DTD SVG 1.1//EN" "http://www.w3.org/Graphics/SVG/1.1/DTD/svg11.dtd">
<svg xmlns="http://www.w3.org/2000/svg" xmlns:xlink="http://www.w3.org/1999/xlink" version="1.1" baseProfile="full" width="76" height="76" viewBox="0 0 76.00 76.00" enable-background="new 0 0 76.00 76.00" xml:space="preserve">
	<path fill="#000000" fill-opacity="1" stroke-width="0.2" stroke-linejoin="round" d="M 38,73C 42.0996,73 46.0346,72.2951 49.6905,71L 34.9999,71L 34.9999,64L 51.9999,64L 51.9999,70.0877C 53.7454,69.3251 55.4167,68.4242 56.9999,67.3989L 57,19L 8.60116,19C 7.57585,20.5832 6.67495,22.2545 5.91231,24L 13,24L 13,31L 3.70013,31C 3.50007,31.9856 3.34142,32.9862 3.22608,34L 13,34L 13,41L 3.12678,41C 3.21277,42.0129 3.3419,43.0135 3.51232,44L 13,44L 13,51L 5.49385,51C 5.90406,52.0248 6.36134,53.0257 6.863,54L 13,54L 13,61L 11.6176,61C 12.9531,62.5307 14.4198,63.9442 16,65.2228L 16,64L 31.9999,64L 31.9999,71L 26.3096,71C 29.9654,72.2951 33.9004,73 38,73 Z M 52,24L 51.9999,31.0001L 35,31.0001L 35,24.0001L 52,24 Z M 51.9999,34L 51.9999,41L 35,41L 35,34.0001L 51.9999,34 Z M 51.9999,44L 51.9999,51.0001L 34.9999,51.0001L 35,44.0001L 51.9999,44 Z M 51.9999,54L 51.9999,61L 34.9999,61L 34.9999,54.0001L 51.9999,54 Z M 32,24.0001L 32,31.0001L 16,31.0001L 16,24.0001L 32,24.0001 Z M 32,34.0001L 32,41L 16,41L 16,34.0001L 32,34.0001 Z M 32,44.0001L 31.9999,51.0001L 16,51.0001L 16,44.0001L 32,44.0001 Z M 31.9999,54.0001L 31.9999,61L 16,61L 16,54.0001L 31.9999,54.0001 Z "/>
</svg>
