<?xml version="1.0" encoding="utf-8"?>
<!DOCTYPE svg PUBLIC "-//W3C//DTD SVG 1.1//EN" "http://www.w3.org/Graphics/SVG/1.1/DTD/svg11.dtd">
<svg xmlns="http://www.w3.org/2000/svg" xmlns:xlink="http://www.w3.org/1999/xlink" version="1.1" baseProfile="full" width="76" height="76" viewBox="0 0 76.00 76.00" enable-background="new 0 0 76.00 76.00" xml:space="preserve">
	<path fill="#000000" fill-opacity="1" stroke-linejoin="round" d="M 47.4501,47.5263C 47.4501,52.7585 43.2086,57 37.9764,57C 32.7442,57 28.5027,52.7585 28.5027,47.5263C 28.5027,44.8791 29.5884,42.4856 31.3389,40.7666C 30.7389,39.6812 30.3974,38.4331 30.3974,37.1053C 30.3974,36.6364 30.44,36.1776 30.5215,35.7323L 23.9967,32.9424L 20.3196,33.92L 20.0762,33.0044L 23.3338,32.1384L 20.1471,30.7758L 20.5196,29.9047L 23.6932,31.2617L 22.0753,28.3247L 22.9051,27.8676L 24.7407,31.1998L 31.0981,33.9182C 31.9856,32.0062 33.6468,30.5263 35.6796,29.8806C 34.2243,29.0722 33.2395,27.5196 33.2395,25.7368C 33.2395,24.2184 33.954,22.8669 35.0651,22L 33,22L 33,20L 35,20L 35,17L 41,17L 41,20L 43,20L 43,22L 40.8877,22C 41.9988,22.8669 42.7132,24.2184 42.7132,25.7368C 42.7132,27.5196 41.7284,29.0722 40.2732,29.8806C 42.2607,30.5119 43.893,31.9407 44.7942,33.7911L 49.9695,29.187L 50.6501,25.4435L 51.5822,25.6129L 50.9793,28.9293L 53.5687,26.6257L 54.1984,27.3335L 51.6196,29.6277L 54.9659,29.4138L 55.0263,30.3592L 51.2297,30.6019L 45.4357,35.7564L 45.5553,37.1053C 45.5553,38.4331 45.2138,39.6812 44.6139,40.7666C 46.3643,42.4856 47.4501,44.8791 47.4501,47.5263 Z "/>
</svg>
