<?xml version="1.0" encoding="utf-8"?>
<!DOCTYPE svg PUBLIC "-//W3C//DTD SVG 1.1//EN" "http://www.w3.org/Graphics/SVG/1.1/DTD/svg11.dtd">
<svg xmlns="http://www.w3.org/2000/svg" xmlns:xlink="http://www.w3.org/1999/xlink" version="1.1" baseProfile="full" width="76" height="76" viewBox="0 0 76.00 76.00" enable-background="new 0 0 76.00 76.00" xml:space="preserve">
	<path fill="#000000" fill-opacity="1" stroke-width="0.2" stroke-linejoin="round" d="M 23.75,14.25L 41.1667,14.25L 41.1667,19L 38,19L 38,17.4167L 26.9167,17.4167L 26.9167,58.5833L 23.75,58.5833L 23.75,14.25 Z M 35.625,20.5834C 37.8111,20.5834 39.5833,22.3556 39.5833,24.5417C 39.5833,26.4567 38.2234,28.0541 36.4167,28.4208L 36.815,33.25L 45.9167,33.25L 45.9167,36.4167L 37.0116,36.4167L 37.2083,39.5833L 48.2917,39.5833L 53.2123,50.6353L 56.4104,49.2778L 57.6478,52.1927L 51.6105,54.823L 51.5851,54.7662L 51.5081,54.7988L 46.2352,42.75L 33.25,42.75L 33.25,27.7086C 32.2886,26.9865 31.6667,25.8367 31.6667,24.5417C 31.6667,22.3556 33.4389,20.5834 35.625,20.5834 Z M 36.4166,58.5833C 33.3753,58.5833 30.6009,57.44 28.5,55.5596L 28.5,50.3413C 29.8769,53.3368 32.9039,55.4167 36.4166,55.4167C 41.2261,55.4167 45.125,51.5178 45.125,46.7083L 45.1209,46.6171L 47.1271,51.8433C 45.2119,55.8306 41.1357,58.5833 36.4166,58.5833 Z M 31.6667,35.8215L 31.6667,39.4083C 30.2944,40.3031 29.19,41.5743 28.5,43.0754L 28.5,37.8571C 29.4343,37.0209 30.5017,36.3304 31.6667,35.8215 Z "/>
</svg>
