<?xml version="1.0" encoding="utf-8"?>
<!DOCTYPE svg PUBLIC "-//W3C//DTD SVG 1.1//EN" "http://www.w3.org/Graphics/SVG/1.1/DTD/svg11.dtd">
<svg xmlns="http://www.w3.org/2000/svg" xmlns:xlink="http://www.w3.org/1999/xlink" version="1.1" baseProfile="full" width="76" height="76" viewBox="0 0 76.00 76.00" enable-background="new 0 0 76.00 76.00" xml:space="preserve">
	<path fill="#000000" fill-opacity="1" stroke-width="0.2" stroke-linejoin="round" d="M 30.4822,22.8009L 37.3426,22.8009L 46.9122,52.2525L 41.1446,52.2525L 38.4785,43.9062L 29.1276,43.9062L 26.5929,52.2525L 21.0439,52.2525L 30.4822,22.8009 Z M 32.2736,32.5887L 30.0017,39.8432L 37.5616,39.8432L 35.2452,32.5887C 34.6774,30.7977 34.1965,28.7872 33.7601,27.083L 33.6723,27.083C 33.2351,28.7872 32.7982,30.8409 32.2736,32.5887 Z M 48.7023,25.0292C 48.7023,23.3687 49.9255,22.1014 51.717,22.1014C 53.5521,22.1014 54.6885,23.3687 54.7322,25.0292C 54.7322,26.6462 53.5521,27.9135 51.6733,27.9135C 49.8819,27.9135 48.7023,26.6462 48.7023,25.0292 Z M 49.0077,52.2525L 49.0077,30.9723L 54.4267,30.9723L 54.4267,52.2525L 49.0077,52.2525 Z "/>
</svg>
