<?xml version="1.0" encoding="utf-8"?>
<!DOCTYPE svg PUBLIC "-//W3C//DTD SVG 1.1//EN" "http://www.w3.org/Graphics/SVG/1.1/DTD/svg11.dtd">
<svg xmlns="http://www.w3.org/2000/svg" xmlns:xlink="http://www.w3.org/1999/xlink" version="1.1" baseProfile="full" width="76" height="76" viewBox="0 0 76.00 76.00" enable-background="new 0 0 76.00 76.00" xml:space="preserve">
	<path fill="#000000" fill-opacity="1" stroke-width="0.2" stroke-linejoin="round" d="M 18.2083,31.6667L 23.75,31.6667L 23.75,25.3333C 23.75,21.8355 26.5855,19 30.0833,19L 36.4167,19L 36.4167,25.3333L 33.25,25.3333C 31.5011,25.3333 30.0833,26.7511 30.0833,28.5L 30.0833,31.6667L 36.4167,31.6667L 36.4167,36.4167L 30.0833,36.4167L 30.0833,57L 23.75,57L 23.75,36.4167L 17.4167,36.4167L 18.2083,31.6667 Z M 36.4167,43.4676C 35.3641,39.5583 38.3713,36.5511 40.9275,36.1C 43.0663,35.7226 44.8893,37.1348 46.6608,38.8392L 44.9872,47.9784L 47.6937,47.0763L 47.6937,57L 51.3023,43.4676L 48.5958,44.3698L 50.1326,37.5879C 51.4738,36.5182 52.8807,35.8213 54.4599,36.1C 57.016,36.5511 60.0231,39.5583 58.9706,43.4676C 57.9181,47.377 52.8059,52.1885 47.6937,57C 42.5814,52.1885 37.4692,47.377 36.4167,43.4676 Z "/>
</svg>
