<?xml version="1.0" encoding="utf-8"?>
<!DOCTYPE svg PUBLIC "-//W3C//DTD SVG 1.1//EN" "http://www.w3.org/Graphics/SVG/1.1/DTD/svg11.dtd">
<svg xmlns="http://www.w3.org/2000/svg" xmlns:xlink="http://www.w3.org/1999/xlink" version="1.1" baseProfile="full" width="76" height="76" viewBox="0 0 76.00 76.00" enable-background="new 0 0 76.00 76.00" xml:space="preserve">
	<path fill="#000000" fill-opacity="1" stroke-width="0.2" stroke-linejoin="round" d="M 36.4167,15.8333C 38.6028,15.8333 40.375,17.6055 40.375,19.7917L 40.2958,20.5833L 52.25,20.5833L 52.25,33.25L 49.0833,33.25L 49.0833,23.75L 43.5417,23.75L 45.9167,28.5L 26.9167,28.5L 29.2917,23.75L 23.75,23.75L 23.75,53.8333L 47.5,53.8333L 49.0833,53.8333L 52.25,53.8333L 52.25,57L 20.5833,57L 20.5833,20.5833L 32.5375,20.5833L 32.4583,19.7917C 32.4583,17.6055 34.2305,15.8333 36.4167,15.8333 Z M 36.4166,18.2084C 35.5422,18.2084 34.8333,18.9173 34.8333,19.7917C 34.8333,20.0801 34.9104,20.3505 35.0451,20.5834L 37.7881,20.5834C 37.9229,20.3505 38,20.0801 38,19.7917C 38,18.9173 37.2911,18.2084 36.4166,18.2084 Z M 58.5833,52.25L 38,52.25L 38,34.8334L 53.0416,34.8334L 58.5833,40.375L 58.5833,52.25 Z M 39.5833,36.4167L 39.5833,50.6667L 57,50.6667L 57,41.1667L 53.8333,41.1667L 52.25,41.1667L 52.25,39.5833L 52.25,36.4167L 39.5833,36.4167 Z M 53.8333,38.0001L 53.8333,39.5833L 55.4166,39.5833L 53.8333,38.0001 Z M 41.1667,38L 50.6667,38L 50.6667,39.5834L 41.1667,39.5834L 41.1667,38 Z M 41.1667,41.1667L 49.0833,41.1667L 49.0833,42.75L 41.1667,42.75L 41.1667,41.1667 Z M 41.1667,44.3333L 52.25,44.3333L 52.25,45.9167L 41.1667,45.9167L 41.1667,44.3333 Z M 41.1667,47.5L 55.4167,47.5L 55.4167,49.0833L 41.1667,49.0833L 41.1667,47.5 Z "/>
</svg>
