<?xml version="1.0" encoding="utf-8"?>
<!DOCTYPE svg PUBLIC "-//W3C//DTD SVG 1.1//EN" "http://www.w3.org/Graphics/SVG/1.1/DTD/svg11.dtd">
<svg xmlns="http://www.w3.org/2000/svg" xmlns:xlink="http://www.w3.org/1999/xlink" version="1.1" baseProfile="full" width="76" height="76" viewBox="0 0 76.00 76.00" enable-background="new 0 0 76.00 76.00" xml:space="preserve">
	<path fill="#000000" fill-opacity="1" stroke-width="0.2" stroke-linejoin="round" d="M 58.0746,26.9242C 58.0746,34.5584 53.6059,43.5302 44.6685,53.8394L 38.0631,61.1958L 31.1903,53.8394C 22.2597,43.5302 17.7944,34.5584 17.7944,26.9242C 17.7944,23.9817 18.813,21.4335 20.8502,19.2798C 22.6747,17.4141 25.2709,16.4812 28.6387,16.4812C 31.6636,16.4812 34.0265,17.3283 35.7276,19.0225C 36.8731,20.2092 37.6242,21.4335 37.9808,22.6956C 38.2758,21.4335 38.9308,20.2983 39.946,19.29C 41.9625,17.4175 44.3907,16.4812 47.2303,16.4812C 50.5913,16.4812 53.1875,17.4141 55.0189,19.2798C 57.056,21.4404 58.0746,23.9885 58.0746,26.9242 Z "/>
</svg>
