<?xml version="1.0" encoding="utf-8"?>
<!DOCTYPE svg PUBLIC "-//W3C//DTD SVG 1.1//EN" "http://www.w3.org/Graphics/SVG/1.1/DTD/svg11.dtd">
<svg xmlns="http://www.w3.org/2000/svg" xmlns:xlink="http://www.w3.org/1999/xlink" version="1.1" baseProfile="full" width="76" height="76" viewBox="0 0 76.00 76.00" enable-background="new 0 0 76.00 76.00" xml:space="preserve">
	<path fill="#000000" fill-opacity="1" stroke-width="0.2" stroke-linejoin="round" d="M 42,21L 48,21L 48,27L 42,27L 42,21 Z M 42,28L 47.9999,28L 47.9999,34L 42,34L 42,28 Z M 48.9999,21.0001L 54.9999,21.0001L 54.9999,27L 48.9999,27L 48.9999,21.0001 Z M 48.9999,28L 54.9999,28L 54.9999,34L 48.9999,34L 48.9999,28 Z M 28,21.0001L 34,21.0001L 34,27L 28,27L 28,21.0001 Z M 28,28L 34,28L 34,34L 28,34L 28,28 Z M 35,21L 41,21L 41,27L 35,27L 35,21 Z M 35,28L 41,28L 41,34L 35,34L 35,28 Z M 42,35L 48,35L 48,41L 42,41L 42,35 Z M 28,35L 34,35L 34,41L 28,41L 28,35 Z M 28,42L 34,42L 34,48L 28,48L 28,42 Z M 28,49L 34,49L 34,55L 28,55L 28,49 Z M 35,35L 41,35L 41,41L 35,41L 35,35 Z M 35,42L 41,42L 41,48L 35,48L 35,42 Z M 21,21.0001L 27,21.0001L 27,27L 21,27L 21,21.0001 Z M 21,28L 27,28L 27,34L 21,34L 21,28 Z M 21,35L 27,35L 27,41L 21,41L 21,35 Z M 21,42L 27,42L 27,48L 21,48L 21,42 Z M 21,49L 27,49L 27,55L 21,55L 21,49 Z M 35,49L 41,49L 41,55L 35,55L 35,49 Z M 36,50L 36,54L 40,54L 40,50L 36,50 Z M 49,35L 55,35L 55,41L 49,41L 49,35 Z M 50,36L 50,40L 54,40L 54,36L 50,36 Z M 42,42L 48,42L 48,48L 42,48L 42,42 Z M 43,43L 43,47L 47,47L 47,43L 43,43 Z M 49,42L 55,42L 55,48L 49,48L 49,42 Z M 50,43L 50,47L 54,47L 54,43L 50,43 Z M 42,49L 48,49L 48,55L 42,55L 42,49 Z M 43,50L 43,54L 47,54L 47,50L 43,50 Z M 49,49L 55,49L 55,55L 49,55L 49,49 Z M 50,50L 50,54L 54,54L 54,50L 50,50 Z "/>
</svg>
