<?xml version="1.0" encoding="utf-8"?>
<!DOCTYPE svg PUBLIC "-//W3C//DTD SVG 1.1//EN" "http://www.w3.org/Graphics/SVG/1.1/DTD/svg11.dtd">
<svg xmlns="http://www.w3.org/2000/svg" xmlns:xlink="http://www.w3.org/1999/xlink" version="1.1" baseProfile="full" width="76" height="76" viewBox="0 0 76.00 76.00" enable-background="new 0 0 76.00 76.00" xml:space="preserve">
	<path fill="#000000" fill-opacity="1" stroke-linejoin="round" d="M 37.6083,57C 34.6633,57 32.2291,56.0267 30.3057,54.0801L 28.5,57L 24,57L 27.9249,50.6534C 26.464,47.6564 25.7335,43.686 25.7335,38.7422C 25.7335,32.2494 26.8238,27.3359 29.0043,24.0015C 31.1848,20.6672 34.3334,19 38.45,19C 41.4747,19 43.9187,19.926 45.782,21.778L 47.5,19L 52,19L 48.1386,25.244C 49.5572,28.3127 50.2665,32.5124 50.2665,37.8433C 50.2665,44.0667 49.154,48.8153 46.929,52.0892C 44.7041,55.3631 41.5972,57 37.6083,57 Z M 38.2167,22.6945C 32.739,22.6945 30.0001,27.9695 30.0001,38.5195C 30.0001,41.4995 30.2453,44.029 30.7358,46.1081L 43.4524,25.5451C 42.1822,23.6447 40.4369,22.6945 38.2167,22.6945 Z M 38.05,53.3056C 43.3499,53.3056 45.9999,48.2917 45.9999,38.2639C 45.9999,34.977 45.7397,32.2105 45.2194,29.9644L 32.5407,50.4661C 33.8618,52.3591 35.6983,53.3056 38.05,53.3056 Z "/>
</svg>
