<?xml version="1.0" encoding="utf-8"?>
<!DOCTYPE svg PUBLIC "-//W3C//DTD SVG 1.1//EN" "http://www.w3.org/Graphics/SVG/1.1/DTD/svg11.dtd">
<svg xmlns="http://www.w3.org/2000/svg" xmlns:xlink="http://www.w3.org/1999/xlink" version="1.1" baseProfile="full" width="76" height="76" viewBox="0 0 76.00 76.00" enable-background="new 0 0 76.00 76.00" xml:space="preserve">
	<ellipse fill="#000000" fill-opacity="1" stroke-width="0.2" stroke-linejoin="round" cx="38" cy="38" rx="3.16667" ry="3.16667"/>
	<path fill="#000000" fill-opacity="1" stroke-width="0.2" stroke-linejoin="round" d="M 39.0926,27.7941L 44.1899,23.4223C 45.1468,23.8291 46.0554,24.3274 46.9048,24.9062L 45.9892,31.5559L 52.685,32.0689C 53.068,33.0162 53.362,34.009 53.5566,35.037L 48.2059,39.0926L 52.5777,44.1899C 52.1709,45.1468 51.6726,46.0554 51.0938,46.9048L 44.4441,45.9892L 43.9311,52.685C 42.9838,53.068 41.9909,53.3619 40.963,53.5565L 36.9074,48.2059L 31.8101,52.5777C 30.8532,52.1709 29.9446,51.6726 29.0952,51.0938L 30.0108,44.4441L 23.315,43.931C 22.932,42.9837 22.638,41.9909 22.4434,40.963L 27.7941,36.9074L 23.4223,31.8101C 23.8291,30.8532 24.3274,29.9446 24.9062,29.0952L 31.5559,30.0108L 32.0689,23.315C 33.0162,22.932 34.0091,22.638 35.037,22.4434L 39.0926,27.7941 Z M 38,31.6667C 34.5022,31.6667 31.6667,34.5022 31.6667,38C 31.6667,41.4978 34.5022,44.3333 38,44.3333C 41.4978,44.3333 44.3333,41.4978 44.3333,38C 44.3333,34.5022 41.4978,31.6667 38,31.6667 Z "/>
</svg>
