<?xml version="1.0" encoding="utf-8"?>
<!DOCTYPE svg PUBLIC "-//W3C//DTD SVG 1.1//EN" "http://www.w3.org/Graphics/SVG/1.1/DTD/svg11.dtd">
<svg xmlns="http://www.w3.org/2000/svg" xmlns:xlink="http://www.w3.org/1999/xlink" version="1.1" baseProfile="full" width="76" height="76" viewBox="0 0 76.00 76.00" enable-background="new 0 0 76.00 76.00" xml:space="preserve">
	<path fill="#000000" fill-opacity="1" stroke-width="0.2" stroke-linejoin="round" d="M 39.5833,45.125C 39.5833,48.1856 37.1022,50.6667 34.0417,50.6667C 31.1142,50.6667 28.7169,48.3967 28.5139,45.5208L 32.5082,45.5208C 32.684,46.2037 33.3039,46.7083 34.0417,46.7083C 34.9161,46.7083 35.625,45.9995 35.625,45.125L 35.625,44.1039C 35.1233,44.2532 34.5919,44.3333 34.0417,44.3333C 30.9811,44.3333 28.5,41.8522 28.5,38.7917L 28.5,35.625L 28.5,34.8333L 28.5,33.25L 32.4583,33.25L 32.4583,38.7917C 32.4583,39.6661 33.1672,40.375 34.0417,40.375C 34.9161,40.375 35.625,39.6661 35.625,38.7917L 35.625,33.25L 39.5833,33.25L 39.5833,45.125 Z M 41.1666,44.3334L 41.1666,30.8751C 41.1666,28.6889 42.9388,26.9167 45.1249,26.9167L 49.0833,26.9167L 49.0833,30.4792L 44.7291,30.4792L 44.7291,33.2501L 47.5,33.25L 47.5,36.4167L 44.7291,36.4167L 44.7291,44.3334L 41.1666,44.3334 Z M 60.1666,45.125C 60.1666,48.1856 57.6855,50.6667 54.625,50.6667C 51.6975,50.6667 49.3002,48.3967 49.0972,45.5209L 53.0915,45.5209C 53.2673,46.2038 53.8872,46.7084 54.625,46.7084C 55.4994,46.7084 56.2083,45.9995 56.2083,45.125L 56.2083,44.1039C 55.7066,44.2532 55.1751,44.3334 54.625,44.3334C 51.5644,44.3334 49.0833,41.8523 49.0833,38.7917L 49.0833,33.25L 53.0416,33.25L 53.0416,38.7917C 53.0416,39.6662 53.7505,40.375 54.625,40.375C 55.4994,40.375 56.2083,39.6662 56.2083,38.7917L 56.2083,33.25L 60.1666,33.25L 60.1666,45.125 Z M 21.7616,26.9302C 24.4134,27.1156 26.4986,29.5336 26.861,32.0625L 22.5762,32.0625C 22.1667,30.0833 21.7637,30.8983 21.4854,30.8789C 20.6131,30.8179 19.8565,31.4756 19.7955,32.3479C 19.7731,32.6685 19.8477,32.9735 19.9945,33.234C 20.4913,33.1695 21.054,33.1928 21.7246,33.2572L 26.0948,36.3164C 26.6132,37.1576 26.986,38.1999 26.9167,39.1917C 26.7032,42.2449 24.0551,44.5468 21.0019,44.3333C 18.3501,44.1479 16.2649,42.1258 15.9025,39.5968L 20.1873,39.5968C 20.5365,39.9468 20.9998,40.3652 21.2781,40.3846C 22.1504,40.4456 22.907,39.7879 22.968,38.9156C 22.9904,38.595 22.9157,38.2901 22.769,38.0295L 21.811,38.0615L 16.3327,34.5753C 15.96,33.8674 15.7799,33.0284 15.8468,32.0718C 16.0603,29.0187 18.7084,26.7167 21.7616,26.9302 Z "/>
</svg>
