<?xml version="1.0" encoding="utf-8"?>
<!DOCTYPE svg PUBLIC "-//W3C//DTD SVG 1.1//EN" "http://www.w3.org/Graphics/SVG/1.1/DTD/svg11.dtd">
<svg xmlns="http://www.w3.org/2000/svg" xmlns:xlink="http://www.w3.org/1999/xlink" version="1.1" baseProfile="full" width="76" height="76" viewBox="0 0 76.00 76.00" enable-background="new 0 0 76.00 76.00" xml:space="preserve">
	<path fill="#000000" fill-opacity="1" stroke-width="0.2" stroke-linejoin="round" d="M 36,17L 36,20L 39,20L 39,17L 36,17 Z M 16,32L 21,32L 21,32.7876L 30,31.5437L 30,30.0001L 32.3778,30.0001L 36.0266,21L 35,21L 35,16L 40,16L 40,21L 39.3469,21L 43.711,30L 46,30L 46,31.0123L 55.9999,31.7236L 55.9999,31.0001L 60.9999,31.0001L 60.9999,36L 55.9999,36L 55.9999,35.0523L 50,40.8199L 50,45L 48.9567,45L 51.1892,54L 52.9999,54L 52.9999,59L 47.9999,59L 47.9999,54.9961L 40.5258,51L 37.0074,51L 29,56.0382L 29,59L 24,59L 24,54L 26.6921,54L 28.0205,45.75L 27,45.75L 27,41.8756L 21,36.8287L 21,37L 16,37L 16,32 Z M 48.9999,44L 49,41L 45.9999,41L 46,44L 48.9999,44 Z M 31,31.0001L 31,33.8497L 31,34L 34,34L 34,31L 31,31.0001 Z M 28,45L 31,45L 31,42L 28,42L 28,45 Z M 40,50L 40,47L 37,47L 37,50L 40,50 Z M 56.9999,32.0001L 56.9999,35L 59.9999,35L 59.9999,32.0001L 56.9999,32.0001 Z M 48.9999,55L 48.9999,58L 51.9999,58L 51.9999,55L 48.9999,55 Z M 25,55L 25,58L 28,58L 28,55L 25,55 Z M 48.2473,52.2638L 46.4455,45L 44.9999,45L 44.9999,40L 47.2547,40L 53.5274,33.9702L 45.9999,33.4348L 45.9999,35L 41,35L 41,30.0001L 41.012,30.0001L 37.761,23.2956L 35,30.1059L 35,35L 30,35L 30,33.9879L 22.7366,34.9917L 29.5825,40.75L 32,40.75L 32,45.75L 30.4943,45.75L 29.2175,52.8951L 36,48.6682L 36,46L 41,46L 41,48.3889L 48.2473,52.2638 Z M 42,34L 44.9999,34L 45,31L 42,31L 42,34 Z M 17,33L 17,36L 20,36L 20,33L 17,33 Z "/>
</svg>
