<?xml version="1.0" encoding="utf-8"?>
<!DOCTYPE svg PUBLIC "-//W3C//DTD SVG 1.1//EN" "http://www.w3.org/Graphics/SVG/1.1/DTD/svg11.dtd">
<svg xmlns="http://www.w3.org/2000/svg" xmlns:xlink="http://www.w3.org/1999/xlink" version="1.1" baseProfile="full" width="76" height="76" viewBox="0 0 76.00 76.00" enable-background="new 0 0 76.00 76.00" xml:space="preserve">
	<path fill="#000000" fill-opacity="1" stroke-width="0.2" stroke-linejoin="round" d="M 57,38L 57,61.75L 52.25,61.75L 50.6667,61.75L 39.5833,43.6296L 39.5833,61.75L 36.4167,61.3542L 36.4167,38L 39.5833,38L 42.75,38L 52.25,54.8889L 52.25,41.9583C 51.5903,41.6945 50.9306,41.4306 50.3368,40.7708C 49.7431,40.1111 49.2153,39.0556 48.6875,38L 52.25,38L 53.8333,38L 57,38 Z M 20.5833,17.4167L 43.5417,17.4167L 55.4167,29.2917L 55.4166,36.4167L 52.25,36.4167L 52.25,33.25L 39.5833,33.25L 39.5833,20.5833L 23.75,20.5834L 23.75,55.4167L 34.0416,55.4167L 35.2292,58.5833L 20.5833,58.5833L 20.5833,17.4167 Z M 41.1666,58.5834L 41.1666,55.4167L 44.7291,55.4167L 46.3125,58.5834L 41.1666,58.5834 Z M 42.75,21.3751L 42.75,30.0833L 51.4583,30.0833L 42.75,21.3751 Z "/>
</svg>
