<?xml version="1.0" encoding="utf-8"?>
<!DOCTYPE svg PUBLIC "-//W3C//DTD SVG 1.1//EN" "http://www.w3.org/Graphics/SVG/1.1/DTD/svg11.dtd">
<svg xmlns="http://www.w3.org/2000/svg" xmlns:xlink="http://www.w3.org/1999/xlink" version="1.1" baseProfile="full" width="76" height="76" viewBox="0 0 76.00 76.00" enable-background="new 0 0 76.00 76.00" xml:space="preserve">
	<path fill="#000000" fill-opacity="1" stroke-width="0.2" stroke-linejoin="round" d="M 16,25.0001L 29.9999,25.0001C 31.6568,25.0001 32.9999,26.3433 32.9999,28.0001C 32.9999,29.657 31.6568,31.0001 29.9999,31.0001L 16,31.0001C 14.3432,31.0001 13,29.657 13,28.0001C 13,26.3432 14.3432,25.0001 16,25.0001 Z M 20,34L 31.9999,34C 33.6567,34 34.9999,35.3432 34.9999,37C 34.9999,38.6569 33.6567,40 31.9999,40L 20,39.9999C 18.3431,39.9999 17,38.6568 17,36.9999C 17,35.3431 18.3431,34 20,34 Z M 46,23L 46,47L 71.832,47C 70.982,50.2035 69.6891,53.2267 68.0228,56L 42,56L 42,18L 66.7265,18C 67.8263,19.5768 68.7997,21.2484 69.6318,23L 46,23 Z M 52.4999,31.0001L 55,31L 55,30.5C 55,29.3955 56.3954,28 57.5,28L 60.5,28C 61.6045,28 63,29.3955 63,30.5L 63,31L 65.4999,31.0001C 66.8807,31.0001 67.9999,32.1194 67.9999,33.5001L 68,39.5C 68,40.8807 66.8807,42 65.5,42L 52.5,42C 51.1192,42 50,40.8807 50,39.5L 49.9999,33.5001C 49.9999,32.1194 51.1192,31.0001 52.4999,31.0001 Z M 52.9999,32.7501C 52.4477,32.7501 51.9999,33.1978 51.9999,33.75C 51.9999,34.3023 52.4477,34.75 52.9999,34.75C 53.5522,34.75 53.9999,34.3023 53.9999,33.75C 53.9999,33.1978 53.5522,32.7501 52.9999,32.7501 Z M 59,33C 57.3431,33 56,34.3432 56,36C 56,37.6569 57.3431,39 59,39C 60.6568,39 62,37.6569 62,36C 62,34.3432 60.6568,33 59,33 Z M 25,43L 33.9999,43.0001C 35.6567,43.0001 36.9999,44.3433 36.9999,46.0001C 36.9999,47.657 35.6567,49.0001 33.9999,49.0001L 25,49C 23.3431,49 22,47.6568 22,46C 22,44.3431 23.3431,43 25,43 Z "/>
</svg>
