<?xml version="1.0" encoding="utf-8"?>
<!DOCTYPE svg PUBLIC "-//W3C//DTD SVG 1.1//EN" "http://www.w3.org/Graphics/SVG/1.1/DTD/svg11.dtd">
<svg xmlns="http://www.w3.org/2000/svg" xmlns:xlink="http://www.w3.org/1999/xlink" version="1.1" baseProfile="full" width="76" height="76" viewBox="0 0 76.00 76.00" enable-background="new 0 0 76.00 76.00" xml:space="preserve">
	<path fill="#000000" fill-opacity="1" stroke-width="0.2" stroke-linejoin="round" d="M 20,23.0002L 55.9998,23.0002C 57.1044,23.0002 57.9998,23.8956 57.9998,25.0002L 57.9999,46C 57.9999,47.1046 57.1045,48 55.9999,48L 41,48L 41,53L 45,53C 46.1046,53 47,53.8954 47,55L 47,57L 29,57L 29,55C 29,53.8954 29.8955,53 31,53L 35,53L 35,48L 20,48C 18.8954,48 18,47.1046 18,46L 18,25.0002C 18,23.8956 18.8954,23.0002 20,23.0002 Z M 21,26.0002L 21,45.0001L 54.9999,45.0001L 54.9998,26.0002L 21,26.0002 Z M 47,27L 47,44L 42,44L 34,44L 29,44L 29,27L 34,27L 42,27L 47,27 Z M 34,35L 42,35L 42,28L 34,28L 34,35 Z M 42,36L 34,36L 34,43L 42,43L 42,36 Z M 44.5,36C 43.6715,36 43,36.6716 43,37.5C 43,38.3285 43.6715,39 44.5,39C 45.3284,39 46,38.3285 46,37.5C 46,36.6716 45.3284,36 44.5,36 Z M 44.5,40C 43.6715,40 43,40.6716 43,41.5C 43,42.3284 43.6715,43 44.5,43C 45.3284,43 46,42.3284 46,41.5C 46,40.6716 45.3284,40 44.5,40 Z M 44.5,28C 43.6715,28 43,28.6716 43,29.5C 43,30.3285 43.6715,31 44.5,31C 45.3284,31 46,30.3285 46,29.5C 46,28.6716 45.3284,28 44.5,28 Z M 44.5,32C 43.6715,32 43,32.6716 43,33.5C 43,34.3284 43.6715,35 44.5,35C 45.3284,35 46,34.3284 46,33.5C 46,32.6716 45.3284,32 44.5,32 Z M 31.5,36C 30.6715,36 30,36.6716 30,37.5C 30,38.3284 30.6715,39 31.5,39C 32.3284,39 33,38.3284 33,37.5C 33,36.6716 32.3284,36 31.5,36 Z M 31.5,40C 30.6715,40 30,40.6716 30,41.5C 30,42.3284 30.6715,43 31.5,43C 32.3284,43 33,42.3284 33,41.5C 33,40.6716 32.3284,40 31.5,40 Z M 31.5,28C 30.6715,28 30,28.6716 30,29.5C 30,30.3285 30.6715,31 31.5,31C 32.3284,31 33,30.3285 33,29.5C 33,28.6716 32.3284,28 31.5,28 Z M 31.5,32C 30.6716,32 30,32.6716 30,33.5C 30,34.3284 30.6716,35 31.5,35C 32.3284,35 33,34.3284 33,33.5C 33,32.6716 32.3284,32 31.5,32 Z "/>
</svg>
