<?xml version="1.0" encoding="utf-8"?>
<!DOCTYPE svg PUBLIC "-//W3C//DTD SVG 1.1//EN" "http://www.w3.org/Graphics/SVG/1.1/DTD/svg11.dtd">
<svg xmlns="http://www.w3.org/2000/svg" xmlns:xlink="http://www.w3.org/1999/xlink" version="1.1" baseProfile="full" width="76" height="76" viewBox="0 0 76.00 76.00" enable-background="new 0 0 76.00 76.00" xml:space="preserve">
	<path fill="#000000" fill-opacity="1" stroke-width="0.2" stroke-linejoin="round" d="M 33,28L 33,48L 43,38L 33,28 Z M 17,43L 17,55L 30,55L 30,43L 17,43 Z M 14,43L 3.35444,43C 3.96978,47.3019 5.36741,51.3515 7.3986,55L 14,55L 14,43 Z M 30,33L 3.35444,33C 3.12086,34.633 3,36.3024 3,38L 30,38L 30,33 Z M 30,24L 5.9123,24C 5.21003,25.6073 4.62499,27.2776 4.16799,29L 30,29L 30,24 Z M 30,14L 12.5244,14C 11.0717,15.5415 9.75732,17.2147 8.60116,19L 30.0833,19L 30,14 Z M 38,67L 38,46L 35,49L 35,67L 38,67 Z M 38,30L 38,9.00001L 35,9.00002L 35,27L 38,30 Z "/>
</svg>
