<?xml version="1.0" encoding="utf-8"?>
<!DOCTYPE svg PUBLIC "-//W3C//DTD SVG 1.1//EN" "http://www.w3.org/Graphics/SVG/1.1/DTD/svg11.dtd">
<svg xmlns="http://www.w3.org/2000/svg" xmlns:xlink="http://www.w3.org/1999/xlink" version="1.1" baseProfile="full" width="76" height="76" viewBox="0 0 76.00 76.00" enable-background="new 0 0 76.00 76.00" xml:space="preserve">
	<path fill="#000000" fill-opacity="1" stroke-width="0.2" stroke-linejoin="round" d="M 40,44L 39.9999,51L 44,51C 45.1046,51 46,51.8954 46,53L 46,57C 46,58.1046 45.1045,59 44,59L 32,59C 30.8954,59 30,58.1046 30,57L 30,53C 30,51.8954 30.8954,51 32,51L 36,51L 36,44L 40,44 Z M 47,53L 57,53L 57,57L 47,57L 47,53 Z M 29,53L 29,57L 19,57L 19,53L 29,53 Z M 29,42L 29,30.5L 27.8611,31.7778L 25.9444,28.5833L 38.0833,19L 43,23L 43,20.5873L 45,19.5907L 45,24.5L 50.2222,28.5833L 48.3056,31.7778L 47,30.5L 47,42L 29,42 Z M 38.0833,23.419L 31,29.1389L 31,40L 35,40L 35,33L 41,33L 41,40L 45,40L 45,29.1389L 38.0833,23.419 Z "/>
</svg>
