<?xml version="1.0" encoding="utf-8"?>
<!DOCTYPE svg PUBLIC "-//W3C//DTD SVG 1.1//EN" "http://www.w3.org/Graphics/SVG/1.1/DTD/svg11.dtd">
<svg xmlns="http://www.w3.org/2000/svg" xmlns:xlink="http://www.w3.org/1999/xlink" version="1.1" baseProfile="full" width="76" height="76" viewBox="0 0 76.00 76.00" enable-background="new 0 0 76.00 76.00" xml:space="preserve">
	<path fill="#000000" fill-opacity="1" stroke-width="0.2" stroke-linejoin="round" d="M 23.75,53.8334L 23.75,49.0834L 36.4167,37.824L 36.4166,23.75L 39.5833,23.75L 39.5833,37.8242L 52.25,49.0834L 52.25,53.8334L 37.9998,41.1668L 23.75,53.8334 Z M 22.0149,44.8611L 18.4689,50.2016L 21.9555,55.4167L 19.9896,55.4167L 17.9213,51.996L 17.4562,51.1912L 17.4167,51.1912L 16.9318,51.996L 14.824,55.4167L 12.8778,55.4167L 16.4766,50.2411L 13.0328,44.8611L 14.9988,44.8611L 17.034,48.4698L 17.476,49.2944L 17.5189,49.2944L 20.1512,44.8611L 22.0149,44.8611 Z M 63.9667,44.8611L 59.1342,57.1254C 58.2832,59.364 57.088,60.4833 55.5486,60.4833L 54.4667,60.3448L 54.4667,58.7944L 55.4464,59.0056C 56.2798,59.0056 56.9043,58.4877 57.32,57.4519L 58.1479,55.4167L 54.0444,44.8611L 55.9214,44.8611L 58.7549,53.0021L 58.9693,53.8069L 59.0319,53.8069L 59.2365,53.0219L 62.2118,44.8611L 63.9667,44.8611 Z M 42.3278,10.5226L 36.1363,19.1056L 42.3278,19.1056L 42.3278,20.5833L 33.6722,20.5833L 33.6722,20.0457L 39.8637,11.5056L 34.3056,11.5056L 34.3056,10.0278L 42.3278,10.0278L 42.3278,10.5226 Z "/>
</svg>
