<?xml version="1.0" encoding="utf-8"?>
<!DOCTYPE svg PUBLIC "-//W3C//DTD SVG 1.1//EN" "http://www.w3.org/Graphics/SVG/1.1/DTD/svg11.dtd">
<svg xmlns="http://www.w3.org/2000/svg" xmlns:xlink="http://www.w3.org/1999/xlink" version="1.1" baseProfile="full" width="76" height="76" viewBox="0 0 76.00 76.00" enable-background="new 0 0 76.00 76.00" xml:space="preserve">
	<path fill="#000000" fill-opacity="1" stroke-width="0.2" stroke-linejoin="round" d="M 42.3542,33.6458L 38,29.2917L 33.6458,33.6458L 31.2708,31.2708L 35.625,26.9167L 31.2708,22.5625L 33.6458,20.1875L 38,24.5417L 42.3542,20.1875L 44.7292,22.5625L 40.375,26.9167L 44.7292,31.2708L 42.3542,33.6458 Z M 33,44L 43,44L 43,41L 33,41L 33,44 Z M 46,44L 55,44L 55,41L 46,41L 46,44 Z M 21,41L 21,44L 30,44L 30,41L 21,41 Z M 18,38L 30,38L 30,36L 33,36L 33,38L 43,38L 43,36L 46,36L 46,38L 58,38L 58,53L 18,53L 18,38 Z M 21,47L 21,50L 30,50L 30,47L 21,47 Z M 33,47L 33,50L 43,50L 43,47L 33,47 Z M 46,47L 46,50L 55,50L 55,47L 46,47 Z "/>
</svg>
