<?xml version="1.0" encoding="utf-8"?>
<!DOCTYPE svg PUBLIC "-//W3C//DTD SVG 1.1//EN" "http://www.w3.org/Graphics/SVG/1.1/DTD/svg11.dtd">
<svg xmlns="http://www.w3.org/2000/svg" xmlns:xlink="http://www.w3.org/1999/xlink" version="1.1" baseProfile="full" width="101.356" height="101.356" viewBox="0 0 101.36 101.36" enable-background="new 0 0 101.36 101.36" xml:space="preserve">
	<path fill="#000000" fill-opacity="1" stroke-width="0.2" stroke-linejoin="round" d="M 50.6782,21.1159C 55.343,21.1159 59.1246,24.8975 59.1246,29.5623C 59.1246,34.2271 55.343,38.0087 50.6782,38.0087L 57.013,38.0087L 58.0688,38.0087L 69.6825,50.6782L 69.5468,50.8139C 70.8474,51.2081 71.7941,52.4163 71.7941,53.8456C 71.7941,55.5949 70.376,57.013 68.6267,57.013C 67.1974,57.013 65.9892,56.0663 65.595,54.7657L 65.4593,54.9014L 58.2196,47.6616L 59.1245,54.9014L 42.2318,54.9014L 43.1368,47.6616L 35.8971,54.9014L 35.7613,54.7657C 35.3671,56.0663 34.159,57.013 32.7297,57.013C 30.9804,57.013 29.5623,55.5949 29.5623,53.8456C 29.5623,52.4163 30.509,51.2081 31.8096,50.8139L 31.6739,50.6782L 43.2876,38.0087L 44.3434,38.0087L 50.6782,38.0087C 46.0134,38.0087 42.2318,34.2271 42.2318,29.5623C 42.2318,24.8975 46.0134,21.1159 50.6782,21.1159 Z M 60.1803,76.0173C 60.1803,78.3497 58.2896,80.2405 55.9572,80.2405C 53.6248,80.2405 51.734,78.3497 51.734,76.0173C 51.734,74.0111 53.1328,72.3317 58.0688,68.6267L 52.2619,62.8199L 59.6524,57.013L 67.5709,67.5709L 60.1803,76.0173 Z M 41.176,76.0173L 33.7855,67.5709L 41.7039,57.013L 49.0945,62.8198L 43.2876,68.6267C 48.2235,72.3317 49.6224,74.0111 49.6224,76.0173C 49.6224,78.3497 47.7316,80.2405 45.3992,80.2405C 43.0668,80.2405 41.176,78.3497 41.176,76.0173 Z "/>
</svg>
