<?xml version="1.0" encoding="utf-8"?>
<!DOCTYPE svg PUBLIC "-//W3C//DTD SVG 1.1//EN" "http://www.w3.org/Graphics/SVG/1.1/DTD/svg11.dtd">
<svg xmlns="http://www.w3.org/2000/svg" xmlns:xlink="http://www.w3.org/1999/xlink" version="1.1" baseProfile="full" width="76" height="76" viewBox="0 0 76.00 76.00" enable-background="new 0 0 76.00 76.00" xml:space="preserve">
	<path fill="#000000" fill-opacity="1" stroke-width="0.2" stroke-linejoin="round" d="M 32.4113,38C 32.4113,38.1309 32.3817,38.2533 32.3742,38.3843L 45.9897,45.1862C 47.1549,44.2024 48.6467,43.586 50.2943,43.586C 53.9978,43.586 57,46.588 57,50.2909C 57,53.998 53.9978,57 50.2943,57C 46.5871,57 43.5887,53.998 43.5887,50.2909C 43.5887,50.1558 43.6183,50.0376 43.6258,49.9067L 30.0103,43.1047C 28.8414,44.0843 27.3533,44.7007 25.7056,44.7007C 22.0021,44.7007 19,41.7029 19,38C 19,34.2929 22.0021,31.2909 25.7056,31.2909C 27.3533,31.2909 28.8414,31.9116 30.0103,32.8954L 43.6258,26.0891C 43.6183,25.9582 43.5887,25.8358 43.5887,25.7007C 43.5887,22.002 46.5871,19 50.2943,19C 53.9978,19 57,22.002 57,25.7007C 57,29.4078 53.9978,32.4098 50.2943,32.4098C 48.6429,32.4098 47.1549,31.7934 45.9897,30.8053L 32.3742,37.6158C 32.3817,37.7425 32.4113,37.8649 32.4113,38 Z "/>
</svg>
