<?xml version="1.0" encoding="utf-8"?>
<!DOCTYPE svg PUBLIC "-//W3C//DTD SVG 1.1//EN" "http://www.w3.org/Graphics/SVG/1.1/DTD/svg11.dtd">
<svg xmlns="http://www.w3.org/2000/svg" xmlns:xlink="http://www.w3.org/1999/xlink" version="1.1" baseProfile="full" width="76" height="76" viewBox="0 0 76.00 76.00" enable-background="new 0 0 76.00 76.00" xml:space="preserve">
	<path fill="#000000" fill-opacity="1" stroke-width="0.2" stroke-linejoin="round" d="M 45.9167,38L 38,38L 28.5,28.5L 38,19L 45.9167,19L 39.5833,25.3333L 49.875,25.3333C 57.3078,25.3333 63.3333,31.3588 63.3333,38.7917C 63.3333,46.2245 57.3078,52.25 49.875,52.25L 49.875,45.9167C 53.81,45.9167 57,42.7267 57,38.7917C 57,34.8566 53.81,31.6667 49.875,31.6667L 39.5833,31.6667L 45.9167,38 Z M 19.7917,17.4167C 24.1639,17.4167 27.7083,20.9611 27.7083,25.3333C 27.7083,29.7056 24.1639,33.25 19.7917,33.25C 15.4194,33.25 11.875,29.7056 11.875,25.3333C 11.875,20.9611 15.4194,17.4167 19.7917,17.4167 Z M 11.875,44.3334C 10.8194,44.8611 8.70839,49.0833 8.70839,49.0833C 8.70839,49.0833 7.86176,49.5615 7.30583,54.3758L 4.74838,45.9118C 5.7757,43.0486 8.41513,36.4167 13.4583,36.4168L 26.1249,36.4168C 32.4583,36.4167 35.625,47.5 35.625,47.5L 37.2083,55.4167L 32.4583,57C 31.9306,50.6667 30.8751,49.0833 30.8751,49.0833C 30.8751,49.0833 28.7639,44.8611 27.7083,44.3333L 28.3481,58.7126C 25.9412,59.6515 23.3225,60.1667 20.5833,60.1667C 17.2444,60.1667 14.0844,59.4011 11.269,58.036L 11.875,44.3334 Z "/>
</svg>
