<?xml version="1.0" encoding="utf-8"?>
<!DOCTYPE svg PUBLIC "-//W3C//DTD SVG 1.1//EN" "http://www.w3.org/Graphics/SVG/1.1/DTD/svg11.dtd">
<svg xmlns="http://www.w3.org/2000/svg" xmlns:xlink="http://www.w3.org/1999/xlink" version="1.1" baseProfile="full" width="76" height="76" viewBox="0 0 76.00 76.00" enable-background="new 0 0 76.00 76.00" xml:space="preserve">
	<path fill="#000000" fill-opacity="1" stroke-width="0.2" stroke-linejoin="round" d="M 57,28.0001L 57.0002,44.9999L 55.0002,44.9999L 55.0002,30L 42.0002,29.9999L 42.0002,28L 57,28.0001 Z M 54,49.0002L 42.0001,49L 42,38.0001L 45.5032,40.7501L 53.9998,33.5004L 54,49.0002 Z M 54,31.0001L 53.9998,31.7503L 45.4998,38.7503L 42.0001,36L 42.0002,31L 54,31.0001 Z M 18.9998,23.5002L 40.9999,20.0001L 40.9999,56.0001L 18.9998,52.5002L 18.9998,23.5002 Z M 29.7823,44.5427C 31.1047,44.6242 32.6081,44.0316 33.4484,43.0072C 35.2038,40.8676 35.3479,37.1917 34.085,34.729C 33.491,33.5706 32.2772,32.5478 30.9911,32.3455C 29.9414,32.1803 28.7908,32.3617 27.8419,32.8397C 25.3245,34.1079 24.2313,38.1775 25.1295,40.8493C 25.7605,42.7263 27.8059,44.421 29.7823,44.5427 Z M 29.87,34.5962C 32.1888,34.5309 33.0384,39.4058 31.7104,41.3077C 31.5008,41.6079 31.216,41.8734 30.8877,42.0353C 30.5612,42.1963 30.1792,42.2576 29.8155,42.2423C 29.4521,42.2269 29.0805,42.1272 28.7653,41.9457C 28.4352,41.7557 28.1522,41.4733 27.9357,41.16C 26.6387,39.2837 27.5899,34.6605 29.87,34.5962 Z "/>
</svg>
