<?xml version="1.0" encoding="utf-8"?>
<!DOCTYPE svg PUBLIC "-//W3C//DTD SVG 1.1//EN" "http://www.w3.org/Graphics/SVG/1.1/DTD/svg11.dtd">
<svg xmlns="http://www.w3.org/2000/svg" xmlns:xlink="http://www.w3.org/1999/xlink" version="1.1" baseProfile="full" width="76" height="76" viewBox="0 0 76.00 76.00" enable-background="new 0 0 76.00 76.00" xml:space="preserve">
	<path fill="#000000" fill-opacity="1" stroke-linejoin="round" d="M 34.0001,60C 32.3433,60 31.0001,58.6569 31.0001,57L 31.0001,54.0001L 23,54.0001C 21.3431,54.0001 20,52.6569 20,51.0001L 20,24.0001C 20,22.3432 21.3431,21.0001 23,21.0001L 26.5001,20.9999C 26.5001,20.9999 27.4999,20.8807 27.4999,19.5C 27.4999,18.1193 29.1191,17 30.4999,17L 38.4998,17.0001C 39.8798,17.0001 41.4988,18.6176 41.5,19.9979L 41.4998,19.5024C 41.5009,20.881 42.5,21 42.5,21L 46,21.0001C 47.6569,21.0001 49,22.3432 49,24.0001L 49,31L 56,38L 56.0001,57C 56.0001,58.6569 54.657,60 53.0001,60L 34.0001,60 Z M 33.9999,31.0001L 33.9999,57.0001L 53.0001,57L 53.0001,43L 42.0002,43L 42.0001,31L 33.9999,31.0001 Z M 53,40.0001L 45,32.0001L 45.0001,40L 53,40.0001 Z M 28.5,25L 40.5,25C 40.5,25 39.4998,23.8809 39.4998,22.5002C 39.4998,21.1194 38.3805,20.0002 36.9998,20.0002L 31.9998,20.0002C 30.6191,20.0002 29.4998,21.1194 29.4998,22.5002C 29.4998,23.8809 28.5,25 28.5,25 Z "/>
</svg>
