<?xml version="1.0" encoding="utf-8"?>
<!DOCTYPE svg PUBLIC "-//W3C//DTD SVG 1.1//EN" "http://www.w3.org/Graphics/SVG/1.1/DTD/svg11.dtd">
<svg xmlns="http://www.w3.org/2000/svg" xmlns:xlink="http://www.w3.org/1999/xlink" version="1.1" baseProfile="full" width="76.0106" height="76.0106" viewBox="0 0 76.01 76.01" enable-background="new 0 0 76.01 76.01" xml:space="preserve">
	<path fill="#000000" fill-opacity="1" stroke-width="0.2" stroke-linejoin="round" d="M 40.3806,19.0027C 49.5637,19.0027 57.008,23.611 57.008,29.2958C 57.008,32.9008 54.0141,36.073 49.4815,37.9115C 50.4478,39.7772 52.1442,41.8291 53.8406,44.4135C 50.3128,43.1826 45.0382,41.9924 41.9082,39.546L 40.3806,39.5889C 31.1976,39.5889 23.7533,34.9805 23.7533,29.2958C 23.7533,23.611 31.1976,19.0027 40.3806,19.0027 Z M 44.3395,43.5477C 44.3395,48.3579 38.6677,52.2573 31.6711,52.2573L 30.7082,52.2325C 28.1329,54.6161 24.5589,57.008 20.5862,57.008C 21.5113,55.1577 23.5174,53.3075 24.7099,50.8257C 21.2717,49.2683 19.0026,46.5902 19.0026,43.5477C 19.0026,40.5065 21.27,37.8293 24.706,36.2715C 27.6472,39.1709 32.8586,41.0982 38.7973,41.0982L 40.3249,41.0553C 41.4454,41.9312 42.8409,42.646 44.3327,43.2594L 44.3395,43.5477 Z "/>
</svg>
