<?xml version="1.0" encoding="utf-8"?>
<!DOCTYPE svg PUBLIC "-//W3C//DTD SVG 1.1//EN" "http://www.w3.org/Graphics/SVG/1.1/DTD/svg11.dtd">
<svg xmlns="http://www.w3.org/2000/svg" xmlns:xlink="http://www.w3.org/1999/xlink" version="1.1" baseProfile="full" width="76" height="76" viewBox="0 0 76.00 76.00" enable-background="new 0 0 76.00 76.00" xml:space="preserve">
	<path fill="#000000" fill-opacity="1" stroke-linejoin="round" d="M 21.3,17L 46.7,17C 47.418,17 48,17.582 48,18.3L 48,24.7C 48,25.418 47.418,26 46.7,26L 31.3,26C 30.0298,26 29,27.0298 29,28.3L 29,49.7C 29,50.418 28.418,51 27.7,51L 21.3,51C 20.582,51 20,50.418 20,49.7L 20,18.3C 20,17.582 20.582,17 21.3,17 Z M 33.3,29L 54.7,29C 55.418,29 56,29.582 56,30.3L 56,57.7C 56,58.418 55.418,59 54.7,59L 33.3,59C 32.582,59 32,58.418 32,57.7L 32,30.3C 32,29.582 32.582,29 33.3,29 Z M 38.68,51.3429C 39.7277,51.9789 41.1302,52.2969 42.8877,52.2969C 44.8431,52.2969 46.4186,51.808 47.614,50.8303C 48.8094,49.8526 49.4071,48.5681 49.4071,46.9769C 49.4071,45.8237 49.0357,44.8611 48.2928,44.0893C 47.55,43.3174 46.54,42.8694 45.2627,42.7454L 45.2627,42.6979C 47.6377,42.0303 48.8252,40.5287 48.8252,38.1933C 48.8252,36.9583 48.3509,35.945 47.4022,35.1533C 46.4535,34.3617 45.1915,33.9658 43.6161,33.9658C 41.9747,33.9658 40.5523,34.3036 39.349,34.9792L 39.349,37.5283C 40.3966,36.6786 41.5142,36.2537 42.7017,36.2537C 44.8286,36.2537 45.8921,37.1272 45.8921,38.8742C 45.8921,40.7715 44.5278,41.7202 41.7992,41.7202L 40.489,41.7202L 40.489,44.02L 41.8625,44.02C 44.9368,44.02 46.474,45.0267 46.474,47.0402C 46.474,47.9559 46.1217,48.6816 45.4171,49.2173C 44.7125,49.753 43.7704,50.0208 42.5909,50.0208C 41.1395,50.0208 39.8359,49.563 38.68,48.6473L 38.68,51.3429 Z "/>
</svg>
