<?xml version="1.0" encoding="utf-8"?>
<!DOCTYPE svg PUBLIC "-//W3C//DTD SVG 1.1//EN" "http://www.w3.org/Graphics/SVG/1.1/DTD/svg11.dtd">
<svg xmlns="http://www.w3.org/2000/svg" xmlns:xlink="http://www.w3.org/1999/xlink" version="1.1" baseProfile="full" width="76" height="76" viewBox="0 0 76.00 76.00" enable-background="new 0 0 76.00 76.00" xml:space="preserve">
	<path fill="#000000" fill-opacity="1" stroke-linejoin="round" d="M 49,33.5C 46.5147,33.5 44.5,35.5147 44.5,38C 44.5,40.4853 46.5147,42.5 49,42.5C 51.4853,42.5 53.5,40.4853 53.5,38C 53.5,35.5147 51.4853,33.5 49,33.5 Z M 49,30C 53.4182,30 57,33.5817 57,38C 57,42.4183 53.4182,46 49,46C 44.5817,46 41,42.4183 41,38C 41,36.5429 41.3896,35.1767 42.0702,34L 33.9297,34C 34.6104,35.1767 35,36.5429 35,38C 35,42.4183 31.4183,46 27,46C 22.5817,46 19,42.4183 19,38C 19,33.5817 22.5817,30 27,30L 49,30 Z M 27,33.5C 24.5147,33.5 22.5,35.5147 22.5,38C 22.5,40.4853 24.5147,42.5 27,42.5C 29.4853,42.5 31.5,40.4853 31.5,38C 31.5,35.5147 29.4853,33.5 27,33.5 Z "/>
</svg>
