<?xml version="1.0" encoding="utf-8"?>
<!DOCTYPE svg PUBLIC "-//W3C//DTD SVG 1.1//EN" "http://www.w3.org/Graphics/SVG/1.1/DTD/svg11.dtd">
<svg xmlns="http://www.w3.org/2000/svg" xmlns:xlink="http://www.w3.org/1999/xlink" version="1.1" baseProfile="full" width="76" height="76" viewBox="0 0 76.00 76.00" enable-background="new 0 0 76.00 76.00" xml:space="preserve">
	<path fill="#000000" fill-opacity="1" stroke-width="0.2" stroke-linejoin="round" d="M 28.5,15.8333L 32.4583,15.8333L 33.25,20.5833L 34.8333,20.5833L 34.8333,15.8333L 41.1667,15.8333L 41.1667,20.5833L 42.75,20.5833L 44.3333,15.8333L 47.5,15.8333C 47.5,20.0556 47.5,24.2778 44.3333,26.3889C 43.9489,26.6452 43.9136,26.4746 43.4471,26.6686L 44.3333,41.1667L 48.6875,41.1667L 48.6875,42.75L 45.9167,43.1458C 45.9167,47.8958 51.0625,53.8333 51.0625,60.1667L 24.9375,60.1667C 24.9375,53.8333 30.0833,47.8958 30.0833,43.1458L 27.3125,42.75L 27.3125,41.1667L 31.6667,41.1667L 32.5529,26.6686C 32.0864,26.4745 32.0511,26.6452 31.6667,26.3889C 28.5,24.2778 28.5,20.0556 28.5,15.8333 Z "/>
</svg>
