<?xml version="1.0" encoding="utf-8"?>
<!DOCTYPE svg PUBLIC "-//W3C//DTD SVG 1.1//EN" "http://www.w3.org/Graphics/SVG/1.1/DTD/svg11.dtd">
<svg xmlns="http://www.w3.org/2000/svg" xmlns:xlink="http://www.w3.org/1999/xlink" version="1.1" baseProfile="full" width="76" height="76" viewBox="0 0 76.00 76.00" enable-background="new 0 0 76.00 76.00" xml:space="preserve">
	<path fill="#000000" fill-opacity="1" stroke-width="0.2" stroke-linejoin="round" d="M 41.9583,32.7947L 51.9176,26.3271C 55.2178,24.1839 59.6305,25.1219 61.7736,28.4221C 63.9168,31.7222 62.9788,36.1349 59.6787,38.2781L 49.7194,44.7457L 41.9583,32.7947 Z M 34.0416,32.7947L 26.2806,44.7457L 16.3213,38.2781C 13.0212,36.135 12.0832,31.7223 14.2264,28.4221C 16.3695,25.1219 20.7822,24.184 24.0824,26.3271L 34.0416,32.7947 Z M 44.3333,44.3334C 45.2078,44.3334 45.9166,45.0422 45.9166,45.9167C 45.9166,46.7911 45.2078,47.5 44.3333,47.5C 43.4589,47.5 42.75,46.7911 42.75,45.9167C 42.75,45.0422 43.4589,44.3334 44.3333,44.3334 Z M 38,41.1667C 38.8744,41.1667 39.5833,41.8756 39.5833,42.75C 39.5833,43.6245 38.8744,44.3334 38,44.3334C 37.1255,44.3334 36.4166,43.6245 36.4166,42.75C 36.4166,41.8756 37.1255,41.1667 38,41.1667 Z M 33.25,45.9167C 34.1244,45.9167 34.8333,46.6256 34.8333,47.5C 34.8333,48.3745 34.1244,49.0833 33.25,49.0833C 32.3755,49.0833 31.6667,48.3745 31.6667,47.5C 31.6667,46.6256 32.3755,45.9167 33.25,45.9167 Z M 34.8333,52.25C 35.7078,52.25 36.4166,52.9589 36.4166,53.8333C 36.4166,54.7078 35.7078,55.4167 34.8333,55.4167C 33.9589,55.4167 33.25,54.7078 33.25,53.8333C 33.25,52.9589 33.9589,52.25 34.8333,52.25 Z M 28.5,53.8333C 29.3744,53.8333 30.0833,54.5422 30.0833,55.4167C 30.0833,56.2911 29.3744,57 28.5,57C 27.6255,57 26.9167,56.2911 26.9167,55.4167C 26.9167,54.5422 27.6255,53.8333 28.5,53.8333 Z M 47.5,53.8333C 48.3744,53.8333 49.0833,54.5422 49.0833,55.4167C 49.0833,56.2911 48.3744,57 47.5,57C 46.6255,57 45.9167,56.2911 45.9167,55.4167C 45.9167,54.5422 46.6255,53.8333 47.5,53.8333 Z M 41.1667,49.0833C 42.0411,49.0833 42.75,49.7922 42.75,50.6667C 42.75,51.5411 42.0411,52.25 41.1667,52.25C 40.2922,52.25 39.5833,51.5411 39.5833,50.6667C 39.5833,49.7922 40.2922,49.0833 41.1667,49.0833 Z "/>
</svg>
