<?xml version="1.0" encoding="utf-8"?>
<!DOCTYPE svg PUBLIC "-//W3C//DTD SVG 1.1//EN" "http://www.w3.org/Graphics/SVG/1.1/DTD/svg11.dtd">
<svg xmlns="http://www.w3.org/2000/svg" xmlns:xlink="http://www.w3.org/1999/xlink" version="1.1" baseProfile="full" width="76" height="76" viewBox="0 0 76.00 76.00" enable-background="new 0 0 76.00 76.00" xml:space="preserve">
	<path fill="#000000" fill-opacity="1" stroke-width="0.2" stroke-linejoin="round" d="M 27.7083,23.75L 38.7917,26.9167L 48.2917,20.5833L 62,24L 62,51L 48.2917,47.5L 38.7917,53.8333L 27.7083,50.6667L 16,55.5L 16,28.5L 27.7083,23.75 Z M 27,46.25L 27,29L 20,31.75L 20,49L 27,46.25 Z M 49,25.5L 49,42.75L 58,45.25L 58,28L 49,25.5 Z M 39,31.5L 39,49L 48,43L 48,25.5L 39,31.5 Z M 28,28.75L 28,46L 38,48.5L 38,31.75L 28,28.75 Z "/>
</svg>
