<?xml version="1.0" encoding="utf-8"?>
<!DOCTYPE svg PUBLIC "-//W3C//DTD SVG 1.1//EN" "http://www.w3.org/Graphics/SVG/1.1/DTD/svg11.dtd">
<svg xmlns="http://www.w3.org/2000/svg" xmlns:xlink="http://www.w3.org/1999/xlink" version="1.1" baseProfile="full" width="76" height="76" viewBox="0 0 76.00 76.00" enable-background="new 0 0 76.00 76.00" xml:space="preserve">
	<path fill="#000000" fill-opacity="1" stroke-width="0.2" stroke-linejoin="round" d="M 46.3895,50.1926C 45.6379,46.5121 44.6922,43.1934 43.6535,40.2315C 44.6162,40.0938 45.6253,40.0153 46.6935,40.0153L 46.7315,40.0153L 46.7357,40.0153L 46.7357,40.0153C 48.5048,40.0153 50.4471,40.2353 52.5539,40.7141C 51.8235,44.6336 49.5562,48.0093 46.3895,50.1926 Z M 38,52.8247C 34.7024,52.8247 31.6582,51.7337 29.1924,49.9029C 29.716,49.039 30.8433,47.3823 32.6335,45.6689C 34.4744,43.904 37.0162,42.0876 40.3349,41.0063C 41.4622,44.1688 42.4839,47.7842 43.2608,51.8536C 41.6226,52.4776 39.8535,52.8247 38,52.8247 Z M 23.1757,38.0009C 23.1757,37.9312 23.18,37.8599 23.1842,37.7869C 23.6064,37.8025 24.1468,37.8164 24.8013,37.8164L 24.8055,37.8164C 27.7864,37.7966 32.9882,37.5475 38.2617,35.8835C 38.5489,36.5113 38.8317,37.1657 39.1146,37.8455C 35.5933,39.0231 32.8193,40.8991 30.7673,42.7674C 28.7955,44.566 27.4613,46.347 26.6801,47.5368C 24.5015,44.9536 23.1757,41.6354 23.1757,38.0009 Z M 31.4513,24.722C 32.4815,25.9376 34.542,28.6102 36.7417,32.7844C 32.2662,34.1164 27.7611,34.4289 25.0335,34.4281C 24.9575,34.4281 24.8815,34.4281 24.8055,34.4272L 24.8013,34.4272C 24.3411,34.4272 23.9484,34.4205 23.619,34.4099C 24.683,30.1543 27.5964,26.6296 31.4513,24.722 Z M 38,23.1771C 41.496,23.1771 44.7048,24.3995 47.2424,26.4345C 45.3002,28.7606 42.733,30.4461 39.9633,31.6355C 38.0169,27.8705 36.1337,25.1772 34.8502,23.5305C 35.8677,23.305 36.919,23.1771 38,23.1771 Z M 49.6406,28.8509C 51.4942,31.2048 52.6553,34.1198 52.8031,37.303C 50.6582,36.8483 48.6315,36.6266 46.7399,36.6266L 46.7399,36.6258L 46.7273,36.6258C 45.2073,36.6258 43.7801,36.7638 42.4333,37.0024C 42.1039,36.201 41.7746,35.4317 41.4411,34.6945C 44.4388,33.3797 47.3142,31.5088 49.6406,28.8509 Z M 38,19C 27.5035,19.0009 19,27.507 19,38.0009C 19,48.4931 27.5035,57 38,57C 48.4922,57 57,48.4931 57,38.0009C 57,27.507 48.4922,19.0009 38,19 Z "/>
</svg>
