<?xml version="1.0" encoding="utf-8"?>
<!DOCTYPE svg PUBLIC "-//W3C//DTD SVG 1.1//EN" "http://www.w3.org/Graphics/SVG/1.1/DTD/svg11.dtd">
<svg xmlns="http://www.w3.org/2000/svg" xmlns:xlink="http://www.w3.org/1999/xlink" version="1.1" baseProfile="full" width="76" height="76" viewBox="0 0 76.00 76.00" enable-background="new 0 0 76.00 76.00" xml:space="preserve">
	<path fill="#000000" fill-opacity="1" stroke-width="0.2" stroke-linejoin="round" d="M 27.7083,49.0833L 48.2917,49.0833C 50.4778,49.0833 52.25,50.8555 52.25,53.0417C 52.25,55.2278 50.4778,57 48.2917,57L 27.7083,57C 25.5222,57 23.75,55.2278 23.75,53.0417C 23.75,50.8555 25.5222,49.0833 27.7083,49.0833 Z M 26.1969,30.0835C 29.2972,30.0835 31.8105,32.5968 31.8105,35.6971C 31.8105,38.7974 29.2972,41.3107 26.1969,41.3107C 23.0966,41.3107 20.5833,38.7974 20.5833,35.6971C 20.5833,32.5968 23.0966,30.0835 26.1969,30.0835 Z M 49.8029,29.9395C 52.9032,29.9395 55.4166,32.4528 55.4166,35.5531C 55.4166,38.6535 52.9032,41.1668 49.8029,41.1668C 46.7026,41.1668 44.1893,38.6535 44.1893,35.5531C 44.1893,32.4528 46.7026,29.9395 49.8029,29.9395 Z M 44.4109,29.3694C 43.275,30.0252 41.8224,29.636 41.1666,28.5001C 40.5108,27.3641 40.9,25.9116 42.0359,25.2558L 53.0056,18.9224C 54.1415,18.2666 55.594,18.6558 56.2499,19.7917C 56.9057,20.9277 56.5165,22.3802 55.3806,23.036L 44.4109,29.3694 Z M 20.6193,23.036C 19.4834,22.3802 19.0942,20.9277 19.75,19.7917C 20.4059,18.6558 21.8584,18.2666 22.9943,18.9224L 33.964,25.2557C 35.0999,25.9116 35.4891,27.3641 34.8333,28.5C 34.1774,29.636 32.7249,30.0252 31.589,29.3694L 20.6193,23.036 Z "/>
</svg>
