<?xml version="1.0" encoding="utf-8"?>
<!DOCTYPE svg PUBLIC "-//W3C//DTD SVG 1.1//EN" "http://www.w3.org/Graphics/SVG/1.1/DTD/svg11.dtd">
<svg xmlns="http://www.w3.org/2000/svg" xmlns:xlink="http://www.w3.org/1999/xlink" version="1.1" baseProfile="full" width="76" height="76" viewBox="0 0 76.00 76.00" enable-background="new 0 0 76.00 76.00" xml:space="preserve">
	<path fill="#FFFFFF" fill-opacity="1" stroke-width="0.2" stroke-linejoin="round" d="M 24.5417,50.6667C 18.8577,50.6667 14.25,46.0589 14.25,40.375C 14.25,34.9288 18.4803,30.4707 23.8343,30.1073C 24.6111,22.9708 30.6569,17.4167 38,17.4167C 45.87,17.4167 52.25,23.7966 52.25,31.6667L 52.163,33.25L 54.625,33.25C 59.4345,33.25 63.3333,37.1489 63.3333,41.9583C 63.3333,46.7678 59.4345,50.6667 54.625,50.6667L 34.8333,50.6667C 34.8333,55.0389 31.2889,58.5833 26.9167,58.5833C 25.0832,58.5833 23.3954,57.9601 22.0534,56.9139L 22.9583,57C 25.5817,57 27.7083,54.8734 27.7083,52.25C 27.7083,51.6948 27.6131,51.1619 27.438,50.6667L 24.5417,50.6667 Z "/>
</svg>
