<?xml version="1.0" encoding="utf-8"?>
<!DOCTYPE svg PUBLIC "-//W3C//DTD SVG 1.1//EN" "http://www.w3.org/Graphics/SVG/1.1/DTD/svg11.dtd">
<svg xmlns="http://www.w3.org/2000/svg" xmlns:xlink="http://www.w3.org/1999/xlink" version="1.1" baseProfile="full" width="76" height="76" viewBox="0 0 76.00 76.00" enable-background="new 0 0 76.00 76.00" xml:space="preserve">
	<path fill="#000000" fill-opacity="1" stroke-width="0.2" stroke-linejoin="round" d="M 19,31.6667C 22.4978,31.6667 25.3333,34.5022 25.3333,38C 25.3333,40.0017 24.4047,41.7865 22.9548,42.9471C 24.9536,49.0304 30.5383,53.4894 37.2083,53.8333C 37.2083,56.2887 38.2245,58.5067 39.8593,60.0898L 38,60.1667C 27.79,60.1667 19.1923,53.2639 16.619,43.8706C 14.3012,42.9295 12.6667,40.6557 12.6667,38C 12.6667,34.5022 15.5022,31.6667 19,31.6667 Z M 45.125,15.8333C 48.6228,15.8333 51.4583,18.6689 51.4583,22.1667C 51.4583,25.6645 48.6228,28.5 45.125,28.5C 41.6337,28.5 38.8022,25.675 38.7917,22.1861C 38.5294,22.1732 38.2655,22.1667 38,22.1667C 31.8493,22.1667 26.5178,25.6738 23.896,30.7973C 22.5009,29.8471 20.8153,29.2917 19,29.2917L 17.559,29.4103C 20.9149,21.4339 28.8034,15.8333 38,15.8333C 39.6024,15.8333 41.165,16.0034 42.6709,16.3263C 43.4256,16.0088 44.2548,15.8333 45.125,15.8333 Z M 45.9167,47.5C 47.3141,47.5 48.6058,47.9526 49.6532,48.7191C 52.2485,45.8991 53.8333,42.1347 53.8333,38C 53.8333,34.5408 52.724,31.3407 50.8417,28.736C 52.6012,27.2036 53.7393,24.9758 53.8278,22.4809C 57.7488,26.4794 60.1667,31.9574 60.1667,38C 60.1667,44.8738 57.0379,51.0169 52.1268,55.0828C 51.5466,57.9822 48.9868,60.1667 45.9167,60.1667C 42.4189,60.1667 39.5833,57.3311 39.5833,53.8333C 39.5833,50.3355 42.4189,47.5 45.9167,47.5 Z "/>
</svg>
