<?xml version="1.0" encoding="utf-8"?>
<!DOCTYPE svg PUBLIC "-//W3C//DTD SVG 1.1//EN" "http://www.w3.org/Graphics/SVG/1.1/DTD/svg11.dtd">
<svg xmlns="http://www.w3.org/2000/svg" xmlns:xlink="http://www.w3.org/1999/xlink" version="1.1" baseProfile="full" width="76" height="76" viewBox="0 0 76.00 76.00" enable-background="new 0 0 76.00 76.00" xml:space="preserve">
	<path fill="#000000" fill-opacity="1" stroke-width="0.2" stroke-linejoin="round" d="M 16.3997,47.9811L 18.0607,46.7936L 25.5038,59.2898L 56.356,40.6856L 58.017,42.6648L 25.5039,62.0606L 16.3997,47.9811 Z M 17.0264,41.2053L 18.2915,40.4136L 25.7347,53.3056L 56.5869,35.0973L 57.852,37.4723L 25.7347,56.4723L 17.0264,41.2053 Z M 16.625,34.0417L 49.5339,15.0417L 59.0339,31.4962L 26.125,50.4962L 16.625,34.0417 Z M 38,25.3333C 34.065,25.3333 30.875,28.5233 30.875,32.4583C 30.875,36.3934 34.065,39.5833 38,39.5833C 41.935,39.5833 45.125,36.3934 45.125,32.4583C 45.125,28.5233 41.935,25.3333 38,25.3333 Z M 41.2778,36.9577L 40.1946,37.5831L 39.5993,36.5521L 38.4606,36.9961L 37.5089,37.1367L 37.091,35.6699L 38.0824,35.5512L 39.157,35.129C 39.4812,34.9396 39.7158,34.7233 39.8607,34.4801C 40.0056,34.2369 40.0189,34.0038 39.9008,33.781C 39.7801,33.5738 39.5707,33.4558 39.2727,33.427L 38.0917,33.5366C 37.3964,33.6816 36.784,33.6962 36.2545,33.5807C 35.7251,33.4651 35.3027,33.1441 34.9876,32.6177C 34.7014,32.1166 34.6178,31.601 34.7366,31.0709C 34.8555,30.5408 35.1846,30.0428 35.7239,29.5769L 35.1229,28.536L 36.198,27.9153L 36.7547,28.8795L 37.7516,28.4683L 38.5445,28.3282L 38.9425,29.7566L 38.2097,29.8536L 37.0885,30.3081C 36.742,30.5175 36.5343,30.7263 36.4653,30.9348C 36.3963,31.1432 36.4113,31.3272 36.5103,31.4868C 36.6061,31.6626 36.8028,31.7607 37.1005,31.7811L 38.4193,31.6438C 39.2025,31.4956 39.8317,31.5058 40.3067,31.6744C 40.7818,31.8431 41.1605,32.1794 41.4427,32.6834C 41.7325,33.1857 41.8179,33.7144 41.6988,34.2694C 41.5797,34.8245 41.2242,35.3479 40.6324,35.8398L 41.2778,36.9577 Z "/>
</svg>
