<?xml version="1.0" encoding="utf-8"?>
<!DOCTYPE svg PUBLIC "-//W3C//DTD SVG 1.1//EN" "http://www.w3.org/Graphics/SVG/1.1/DTD/svg11.dtd">
<svg xmlns="http://www.w3.org/2000/svg" xmlns:xlink="http://www.w3.org/1999/xlink" version="1.1" baseProfile="full" width="76" height="76" viewBox="0 0 76.00 76.00" enable-background="new 0 0 76.00 76.00" xml:space="preserve">
	<path fill="#000000" fill-opacity="1" stroke-width="0.2" stroke-linejoin="round" d="M 4.75,28.5L 15.8333,28.5C 15.8333,26.7511 17.2511,25.3333 19,25.3333L 33.25,25.3333C 34.9989,25.3333 36.4167,26.7511 36.4167,28.5L 39.5833,28.5C 39.5833,26.7511 41.0011,25.3333 42.75,25.3333L 57,25.3333C 58.7489,25.3333 60.1667,26.7511 60.1667,28.5L 71.25,28.5L 72.8333,33.25L 60.1666,33.25L 60.1666,36.4167C 60.1666,38.1656 58.7489,39.5834 57,39.5834L 42.75,39.5834C 41.0011,39.5834 39.5833,38.1656 39.5833,36.4167L 39.5833,33.25L 36.4167,33.25L 36.4166,36.4167C 36.4166,38.1656 34.9989,39.5833 33.25,39.5833L 19,39.5833C 17.2511,39.5833 15.8333,38.1656 15.8333,36.4167L 15.8333,33.25L 3.16667,33.25L 4.75,28.5 Z M 20.5833,28.5C 19.7089,28.5 19,29.2089 19,30.0834L 19,34.8334C 19,35.7078 19.7089,36.4167 20.5833,36.4167L 31.6666,36.4167C 32.5411,36.4167 33.25,35.7078 33.25,34.8334L 33.25,30.0834C 33.25,29.2089 32.5411,28.5 31.6666,28.5L 20.5833,28.5 Z M 44.3333,28.5C 43.4589,28.5 42.75,29.2089 42.75,30.0834L 42.75,34.8334C 42.75,35.7078 43.4588,36.4167 44.3333,36.4167L 55.4166,36.4167C 56.2911,36.4167 57,35.7078 57,34.8334L 57,30.0834C 57,29.2089 56.2911,28.5 55.4166,28.5L 44.3333,28.5 Z M 24.9015,46.9722L 25.0963,47.2818C 26.1684,52.1431 31.5377,55.0472 38,55.0472C 44.4622,55.0472 49.8315,52.1431 50.9037,47.2818L 51.0985,46.9722C 51.0985,45.1767 52.6921,44.0167 54.9656,44.0167C 56.9428,44.0167 58.1863,45.5043 58.5833,46.9722C 57.6384,54.6545 47.9756,61.75 38,61.75C 28.0244,61.75 18.3616,54.6545 17.4167,46.9722C 17.8137,45.5043 19.0572,44.0167 21.0343,44.0167C 23.3079,44.0167 24.9015,45.1767 24.9015,46.9722 Z "/>
</svg>
