<?xml version="1.0" encoding="utf-8"?>
<!DOCTYPE svg PUBLIC "-//W3C//DTD SVG 1.1//EN" "http://www.w3.org/Graphics/SVG/1.1/DTD/svg11.dtd">
<svg xmlns="http://www.w3.org/2000/svg" xmlns:xlink="http://www.w3.org/1999/xlink" version="1.1" baseProfile="full" width="76" height="76" viewBox="0 0 76.00 76.00" enable-background="new 0 0 76.00 76.00" xml:space="preserve">
	<path fill="#000000" fill-opacity="1" stroke-width="0.2" stroke-linejoin="round" d="M 31.6667,20.5833L 25.3333,20.5833C 28.5,17.4167 38,19 38,19C 44.3333,14.25 47.5,17.4167 47.5,17.4167C 45.9167,17.4167 42.75,19 42.75,19C 55.4167,19 57,22.1667 57,22.1667C 49.0833,20.5833 42.75,22.1667 42.75,22.1667C 52.25,26.9167 53.8333,33.25 53.8333,33.25C 45.9167,25.3333 39.5833,25.3333 39.5833,25.3333C 36.4167,31.6667 36.4167,39.5833 36.4167,39.5833C 33.25,36.4167 34.8333,26.9167 34.8333,26.9167C 31.6667,26.9167 23.75,33.25 23.75,33.25C 23.75,28.5 31.6667,23.75 31.6667,23.75C 22.1667,25.3333 19,28.5 19,28.5C 22.1667,22.1667 31.6667,20.5833 31.6667,20.5833 Z M 39.1875,29.2917L 40.7708,25.7292L 43.1458,33.25C 44.7292,33.25 43.5416,39.5834 43.5417,39.5833C 45.125,39.5833 43.5417,45.9167 43.5417,45.9167C 45.125,45.9167 42.75,50.6667 42.75,50.6667C 44.3333,50.6667 43.1458,55.4167 43.1458,55.4167C 49.4792,55.4167 52.25,58.5833 52.25,58.5833L 28.5,58.5833C 28.5,58.5833 32.8542,55.4167 37.6042,55.4167C 37.6042,55.4167 38,50.6667 39.5833,50.6667C 39.5833,50.6667 38.7917,45.9167 40.375,45.9167C 40.375,45.9167 38.7917,39.5833 40.375,39.5833C 40.375,39.5834 38.3958,33.25 39.9792,33.25L 39.1875,29.2917 Z "/>
</svg>
