<?xml version="1.0" encoding="utf-8"?>
<!DOCTYPE svg PUBLIC "-//W3C//DTD SVG 1.1//EN" "http://www.w3.org/Graphics/SVG/1.1/DTD/svg11.dtd">
<svg xmlns="http://www.w3.org/2000/svg" xmlns:xlink="http://www.w3.org/1999/xlink" version="1.1" baseProfile="full" width="76" height="76" viewBox="0 0 76.00 76.00" enable-background="new 0 0 76.00 76.00" xml:space="preserve">
	<path fill="#000000" fill-opacity="1" stroke-width="0.2" stroke-linejoin="round" d="M 55.0001,29L 55.0001,50L 42.0001,50L 42.0001,48L 52.0001,48L 52.0001,46L 42.0001,46L 42.0001,44L 52.0001,44L 52.0001,42L 42.0001,42L 42.0001,40.5839C 42.6126,40.8515 43.289,41 44.0001,41C 46.7616,41 49.0001,38.7614 49.0001,36L 44.0002,35.9999L 44.0001,31C 43.289,31 42.6126,31.1484 42.0001,31.416L 42.0001,29L 55.0001,29 Z M 44.9998,35.0003L 49.9997,35.0003C 49.9997,32.239 47.7611,30.0004 44.9998,30.0004L 44.9998,35.0003 Z M 42,27L 57,27L 57.0001,45L 56.0001,45L 56.0001,28L 42,28L 42,27 Z M 19,23.5001L 41.0001,20L 41.0001,56L 19,52.5001L 19,23.5001 Z M 29.2404,40.2485L 30.3429,40.2728C 31.6241,40.1999 33.1175,39.6722 33.8046,38.5883C 34.7531,37.0922 34.7468,34.515 33.4726,33.2844C 31.8982,31.764 29.122,32.5407 26.9364,32.6575L 26.9396,44.1616L 28.0972,44.2329L 29.2549,44.3042L 29.2404,40.2485 Z M 29.2434,34.5695L 30.1536,34.539C 30.615,34.6779 31.1931,34.6191 31.5379,34.9558C 32.3064,35.7062 31.9726,37.7791 30.9558,38.1251C 30.6982,38.2128 30.4193,38.2232 30.1477,38.2413L 29.238,38.2391L 29.2434,34.5695 Z "/>
</svg>
