<?xml version="1.0" encoding="utf-8"?>
<!DOCTYPE svg PUBLIC "-//W3C//DTD SVG 1.1//EN" "http://www.w3.org/Graphics/SVG/1.1/DTD/svg11.dtd">
<svg xmlns="http://www.w3.org/2000/svg" xmlns:xlink="http://www.w3.org/1999/xlink" version="1.1" baseProfile="full" width="76" height="76" viewBox="0 0 76.00 76.00" enable-background="new 0 0 76.00 76.00" xml:space="preserve">
	<path fill="#000000" fill-opacity="1" stroke-width="0.2" stroke-linejoin="round" d="M 29.1334,34.8333L 38.0001,43.7L 46.8667,34.8334L 50.6666,38.6334L 41.8,47.5L 50.6667,56.3666L 46.8667,60.1666L 38.0001,51.2999L 29.1334,60.1666L 25.3334,56.3666L 34.2001,47.4999L 25.3334,38.6333L 29.1334,34.8333 Z M 47.5,45.9166L 57,45.9166L 57,50.6666L 47.5,50.6666L 47.5,45.9166 Z M 28.5,45.9166L 28.5,50.6666L 19,50.6666L 19,45.9166L 28.5,45.9166 Z M 22.1667,20.5833L 53.8333,20.5833C 56.4567,20.5833 58.5833,22.71 58.5833,25.3333L 58.5833,31.6667L 17.4167,31.6667L 17.4167,25.3333C 17.4167,22.71 19.5433,20.5833 22.1667,20.5833 Z M 53.0417,22.1667C 51.73,22.1667 50.6667,23.23 50.6667,24.5417C 50.6667,25.8533 51.73,26.9167 53.0417,26.9167C 54.3533,26.9167 55.4167,25.8533 55.4167,24.5417C 55.4167,23.23 54.3533,22.1667 53.0417,22.1667 Z "/>
</svg>
