<?xml version="1.0" encoding="utf-8"?>
<!DOCTYPE svg PUBLIC "-//W3C//DTD SVG 1.1//EN" "http://www.w3.org/Graphics/SVG/1.1/DTD/svg11.dtd">
<svg xmlns="http://www.w3.org/2000/svg" xmlns:xlink="http://www.w3.org/1999/xlink" version="1.1" baseProfile="full" width="76" height="76" viewBox="0 0 76.00 76.00" enable-background="new 0 0 76.00 76.00" xml:space="preserve">
	<path fill="#000000" fill-opacity="1" stroke-linejoin="round" d="M 37,47C 37,47 33.75,50 38.75,52C 42.5782,53.5313 41.3818,48.4961 42.25,48C 44,47 48,46 49,48C 50,50 44.5,59 37.5,57C 30.5,55 23.3032,46.5175 25.25,40.5C 28,32 48.5832,28.003 48.25,36C 48,42 41,43 37,47 Z M 43.25,25C 47,15 58,18 52,26C 46,34 41.7785,28.924 43.25,25 Z M 35.3186,26.5262C 33.7165,19.8239 40.6831,17.4597 40.36,23.904C 40.037,30.3483 35.9473,29.1561 35.3186,26.5262 Z M 28.9383,29.3443C 26.2184,24.3232 31.2876,20.9367 32.4112,26.1642C 33.5347,31.3917 30.0055,31.3146 28.9383,29.3443 Z M 24.496,33.7561C 20.741,30.0589 24.3009,25.7026 26.7028,30.0127C 29.1047,34.3228 25.9694,35.2069 24.496,33.7561 Z "/>
</svg>
