<?xml version="1.0" encoding="utf-8"?>
<!DOCTYPE svg PUBLIC "-//W3C//DTD SVG 1.1//EN" "http://www.w3.org/Graphics/SVG/1.1/DTD/svg11.dtd">
<svg xmlns="http://www.w3.org/2000/svg" xmlns:xlink="http://www.w3.org/1999/xlink" version="1.1" baseProfile="full" width="76" height="76" viewBox="0 0 76.00 76.00" enable-background="new 0 0 76.00 76.00" xml:space="preserve">
	<path fill="#000000" fill-opacity="1" stroke-linejoin="round" d="M 39.616,54.0333C 39.2789,56.5368 37.0296,58.3005 34.5901,57.9724C 32.1527,57.6448 30.4512,55.3486 30.7885,52.8465C 31.1257,50.344 33.3729,48.5815 35.8105,48.9098C 38.2487,49.2386 39.9513,51.5312 39.616,54.0333 Z M 41.6356,41.5132L 41.8387,40.8491L 38.7673,40.1489L 33.4006,38.9254L 33.3525,40.6044L 33.4025,42.2559L 36.4371,42.9027L 39.8623,43.6327L 40.7233,43.8162L 40.7777,43.8279L 41.0572,43.1822L 41.6356,41.5132 Z M 33.8088,34.7846L 33.7116,35.4961L 41.1175,29.2372L 38.0268,28.5394L 35.5385,27.9775C 35.4956,27.9679 35.0818,29.309 35.0392,29.44L 34.529,31.1999C 34.2435,32.3854 34.0535,33.5907 33.8088,34.7846 Z M 36.8972,24.8549L 36.5118,25.6293L 43.2157,27.1632C 43.1173,26.0545 42.9081,24.8981 42.545,23.8444C 42.2713,23.0495 41.889,22.0928 41.1867,21.5738C 40.366,20.9672 39.4132,21.596 38.7963,22.1929C 37.9985,22.9649 37.4508,23.9048 36.8972,24.8549 Z M 35.6933,36.7506L 36.868,37.011L 42.4786,38.255C 42.7683,36.8685 43.022,35.4667 43.1805,34.0588C 43.3378,32.6594 43.382,31.2492 43.3674,29.8417L 35.6933,36.7506 Z M 41.2383,18.0307C 43.3157,18.473 44.2857,20.5622 44.7394,22.4392C 45.241,24.5128 45.3136,26.6856 45.245,28.8089C 45.1645,31.31 44.8908,33.8078 44.4643,36.2729C 44.0444,38.698 43.4441,41.087 42.6614,43.4204C 42.2903,44.5269 41.8865,45.6254 41.3801,46.6783L 40.5393,48.2072L 40.2275,47.9633L 39.8665,47.7066L 39.1392,47.2523C 38.1117,46.6641 37.0178,46.3052 35.8343,46.2242C 34.7363,46.1492 33.5683,46.2038 32.491,46.4337L 32.2879,46.4547L 32.1947,46.023L 32.0447,45.1511L 31.8637,43.3121C 31.7909,42.0682 31.7896,40.8182 31.8305,39.5732C 31.9133,37.0509 32.2034,34.5372 32.6708,32.0577C 33.1251,29.6476 33.7089,27.2392 34.5394,24.9292C 35.1654,23.187 35.9354,21.4078 37.096,19.9471C 38.1042,18.6786 39.5459,17.6711 41.2383,18.0307 Z "/>
</svg>
