<?xml version="1.0" encoding="utf-8"?>
<!DOCTYPE svg PUBLIC "-//W3C//DTD SVG 1.1//EN" "http://www.w3.org/Graphics/SVG/1.1/DTD/svg11.dtd">
<svg xmlns="http://www.w3.org/2000/svg" xmlns:xlink="http://www.w3.org/1999/xlink" version="1.1" baseProfile="full" width="76" height="76" viewBox="0 0 76.00 76.00" enable-background="new 0 0 76.00 76.00" xml:space="preserve">
	<path fill="#000000" fill-opacity="1" stroke-width="0.2" stroke-linejoin="round" d="M 15.0311,53.8333L 15.0311,21.3222L 26.7148,21.3222C 38.4323,21.3222 44.2911,26.6053 44.2911,37.1714C 44.2911,42.2319 42.6922,46.274 39.4943,49.2977C 36.2964,52.3215 32.0365,53.8333 26.7148,53.8333L 15.0311,53.8333 Z M 22.4622,27.36L 22.4622,47.7956L 26.1197,47.7956C 29.3273,47.7956 31.8418,46.8509 33.6633,44.9617C 35.4848,43.0725 36.3955,40.5023 36.3955,37.2512C 36.3955,34.1791 35.4921,31.7625 33.6851,30.0015C 31.8781,28.2405 29.3418,27.36 26.0762,27.36L 22.4622,27.36 Z M 46.3125,34.8333L 64.5208,34.8333L 64.5208,41.1667L 46.3125,41.1667L 46.3125,34.8333 Z "/>
</svg>
