<?xml version="1.0" encoding="utf-8"?>
<!DOCTYPE svg PUBLIC "-//W3C//DTD SVG 1.1//EN" "http://www.w3.org/Graphics/SVG/1.1/DTD/svg11.dtd">
<svg xmlns="http://www.w3.org/2000/svg" xmlns:xlink="http://www.w3.org/1999/xlink" version="1.1" baseProfile="full" width="76" height="76" viewBox="0 0 76.00 76.00" enable-background="new 0 0 76.00 76.00" xml:space="preserve">
	<path fill="#000000" fill-opacity="1" stroke-width="0.2" stroke-linejoin="round" d="M 26.9167,47.5L 28.5,47.6496L 28.5,23.75L 53.8333,19L 53.8333,47.5C 53.8333,50.1234 50.9978,52.25 47.5,52.25C 44.0022,52.25 41.1667,50.1234 41.1667,47.5C 41.1667,44.8766 44.0022,42.75 47.5,42.75C 48.0467,42.75 48.5773,42.802 49.0833,42.8997L 49.0833,24.6406L 33.25,27.6094L 33.25,52.25C 33.25,54.8734 30.4145,57 26.9167,57C 23.4189,57 20.5833,54.8734 20.5833,52.25C 20.5833,49.6266 23.4189,47.5 26.9167,47.5 Z "/>
</svg>
