<?xml version="1.0" encoding="utf-8"?>
<!DOCTYPE svg PUBLIC "-//W3C//DTD SVG 1.1//EN" "http://www.w3.org/Graphics/SVG/1.1/DTD/svg11.dtd">
<svg xmlns="http://www.w3.org/2000/svg" xmlns:xlink="http://www.w3.org/1999/xlink" version="1.1" baseProfile="full" width="76" height="76" viewBox="0 0 76.00 76.00" enable-background="new 0 0 76.00 76.00" xml:space="preserve">
	<path fill="#000000" fill-opacity="1" stroke-width="0.2" stroke-linejoin="round" d="M 39.5833,28.5L 39.5833,47.5L 30.0833,38L 39.5833,28.5 Z M 55.4166,42.75L 55.4166,55.4167L 42.75,55.4167L 42.75,42.75L 55.4166,42.75 Z M 66.9084,42.75C 66.1437,47.4398 64.2653,51.7555 61.5535,55.4167L 58.5833,55.4167L 58.5833,42.75L 66.9084,42.75 Z M 66.9085,33.25C 67.1606,34.7961 67.2916,36.3827 67.2916,38L 42.75,38L 42.75,33.25L 66.9085,33.25 Z M 63.5978,23.75C 64.4383,25.2565 65.1496,26.8448 65.7168,28.5L 42.75,28.5L 42.75,23.75L 63.5978,23.75 Z M 55.1483,14.25C 57.0477,15.6238 58.7757,17.2199 60.2943,19L 42.75,19L 42.75,14.25L 55.1483,14.25 Z M 34.8333,67.1225L 34.8333,45.9167L 38,49.0833L 38,67.2917L 34.8333,67.1225 Z M 34.8333,30.0834L 34.8333,8.87753L 38,8.70834L 38,26.9167L 34.8333,30.0834 Z "/>
</svg>
