<?xml version="1.0" encoding="utf-8"?>
<!DOCTYPE svg PUBLIC "-//W3C//DTD SVG 1.1//EN" "http://www.w3.org/Graphics/SVG/1.1/DTD/svg11.dtd">
<svg xmlns="http://www.w3.org/2000/svg" xmlns:xlink="http://www.w3.org/1999/xlink" version="1.1" baseProfile="full" width="76" height="76" viewBox="0 0 76.00 76.00" enable-background="new 0 0 76.00 76.00" xml:space="preserve">
	<path fill="#000000" fill-opacity="1" stroke-linejoin="round" d="M 24,44C 27.3137,44 30,46.6863 30,50C 30,53.3137 27.3137,56 24,56C 20.6863,56 18,53.3137 18,50C 18,46.6863 20.6863,44 24,44 Z M 23,46L 23,48L 25,48L 25,46L 23,46 Z M 23,49L 23,54L 25,54L 25,49L 23,49 Z M 57,25L 57,51L 45.5,51C 42.8572,51 41,54 41,54L 35,54C 35,54 33.7748,52.0208 31.8985,51.2776L 32,50C 32,49.3407 31.9202,48.7001 31.7699,48.0872C 32.5343,48.2864 33.7671,48.9007 35,50.75L 35,29.652C 34.3526,28.8549 33.5338,28 33,28L 22,28L 22,42.252C 20.888,42.5382 19.8696,43.0575 19,43.7546L 19,25L 34.5,25C 34.5,25 35.9205,25.7102 37.4765,27.3448C 39.3408,25 41.25,25 41.25,25L 57,25 Z M 41,50.75C 43,47.75 45,48 45,48L 54,48L 54,28L 43,28C 42.4662,28 41.6474,28.8549 41,29.652L 41,50.75 Z "/>
</svg>
