<?xml version="1.0" encoding="utf-8"?>
<!DOCTYPE svg PUBLIC "-//W3C//DTD SVG 1.1//EN" "http://www.w3.org/Graphics/SVG/1.1/DTD/svg11.dtd">
<svg xmlns="http://www.w3.org/2000/svg" xmlns:xlink="http://www.w3.org/1999/xlink" version="1.1" baseProfile="full" width="76" height="76" viewBox="0 0 76.00 76.00" enable-background="new 0 0 76.00 76.00" xml:space="preserve">
	<path fill="#000000" fill-opacity="1" stroke-width="0.2" stroke-linejoin="round" d="M 20.5833,17.4167L 22.1667,17.4167L 22.1667,19L 20.5833,19L 20.5833,17.4167 Z M 22.1667,19L 25.3332,19.0002L 25.3332,20.5836L 23.7499,20.5836L 23.7499,22.1669L 22.1666,22.1669L 22.1667,19 Z M 25.3332,19.0002L 25.3332,17.4169L 28.4999,17.4169L 28.4999,19.0002L 25.3332,19.0002 Z M 28.4999,19.0002L 31.6666,19.0002L 31.6666,20.5836L 28.4999,20.5836L 28.4999,19.0002 Z M 31.6666,19.0002L 31.6666,17.4169L 34.8331,17.4169L 34.8331,19.0002L 31.6666,19.0002 Z M 34.8331,19.0002L 37.9998,19.0002L 37.9998,20.5835L 34.8331,20.5836L 34.8331,19.0002 Z M 37.9998,19.0002L 37.9998,17.4169L 41.1666,17.4169L 41.1667,19L 44.3333,19L 44.3333,22.1667L 43.5412,22.1667L 42.7498,21.3753L 42.7498,22.1667L 41.1666,22.1667L 41.1665,19.0002L 37.9998,19.0002 Z M 44.3333,18.2087L 45.1246,19L 44.3333,19L 44.3333,18.2087 Z M 55.4165,34.8334L 53.8333,34.8333L 53.8333,31.6667L 50.6666,31.6667L 50.6666,30.0836L 51.4581,30.0836L 50.6666,29.2921L 50.6666,28.5001L 49.8746,28.5001L 47.5,26.1255L 47.5,25.3334L 50.6666,25.3334L 50.6667,28.5L 53.8333,28.5L 53.8333,31.6667L 55.4165,31.6667L 55.4165,34.8334 Z M 53.8333,28.5L 53.8333,27.7087L 54.6246,28.5L 53.8333,28.5 Z M 50.6666,25.3334L 50.6666,24.542L 51.458,25.3334L 50.6666,25.3334 Z M 47.5,25.3334L 46.7079,25.3334L 44.3333,22.9588L 44.3333,22.1667L 47.5,22.1667L 47.5,25.3334 Z M 47.5,22.1667L 47.5,21.3754L 48.2913,22.1667L 47.5,22.1667 Z M 53.8333,34.8334L 53.8333,38.0001L 52.2498,38.0001L 52.2498,34.8334L 53.8333,34.8334 Z M 53.8333,38.0001L 55.4165,38.0001L 55.4165,41.1667L 53.8333,41.1667L 53.8333,38.0001 Z M 53.8333,41.1667L 53.8332,44.3334L 52.2498,44.3334L 52.2498,41.1667L 53.8333,41.1667 Z M 53.8332,44.3334L 55.4165,44.3334L 55.4165,47.5L 53.8332,47.5L 53.8332,44.3334 Z M 53.8332,47.5L 53.8332,50.6667L 52.2498,50.6667L 52.2498,47.5L 53.8332,47.5 Z M 53.8332,50.6667L 55.4165,50.6667L 55.4165,53.8334L 53.8332,53.8334L 53.8332,50.6667 Z M 53.8332,53.8334L 53.8332,57L 50.6666,57.0001L 50.6666,55.4168L 52.2498,55.4168L 52.2498,53.8334L 53.8332,53.8334 Z M 53.8332,57L 55.4165,57L 55.4165,58.5834L 53.8332,58.5834L 53.8332,57 Z M 50.6666,57.0001L 50.6666,58.5834L 47.4999,58.5834L 47.4999,57.0001L 50.6666,57.0001 Z M 47.4999,57.0001L 44.3332,57.0001L 44.3332,55.4168L 47.4999,55.4168L 47.4999,57.0001 Z M 44.3332,57.0001L 44.3332,58.5834L 41.1665,58.5834L 41.1665,57.0001L 44.3332,57.0001 Z M 41.1665,57.0001L 37.9999,57.0001L 37.9999,55.4168L 41.1665,55.4168L 41.1665,57.0001 Z M 37.9999,57.0001L 37.9999,58.5834L 34.8332,58.5834L 34.8332,57.0001L 37.9999,57.0001 Z M 34.8332,57.0001L 31.6666,57.0001L 31.6666,55.4168L 34.8332,55.4168L 34.8332,57.0001 Z M 31.6666,57.0001L 31.6666,58.5834L 28.4999,58.5834L 28.4999,57.0001L 31.6666,57.0001 Z M 28.4999,57.0001L 25.3333,57.0001L 25.3333,55.4168L 28.4999,55.4168L 28.4999,57.0001 Z M 25.3333,57.0001L 25.3333,58.5834L 22.1666,58.5834L 22.1666,57.0001L 25.3333,57.0001 Z M 22.1666,57.0001L 20.5832,57.0001L 20.5832,53.8334L 22.1666,53.8334L 22.1666,57.0001 Z M 22.1666,53.8334L 22.1666,50.6667L 23.7499,50.6667L 23.7499,53.8334L 22.1666,53.8334 Z M 22.1666,50.6667L 20.5832,50.6667L 20.5832,47.5001L 22.1666,47.5001L 22.1666,50.6667 Z M 22.1666,47.5001L 22.1666,44.3334L 23.7499,44.3334L 23.7499,47.5001L 22.1666,47.5001 Z M 22.1666,44.3334L 20.5832,44.3334L 20.5832,41.1668L 22.1666,41.1668L 22.1666,44.3334 Z M 22.1666,41.1668L 22.1666,38.0002L 23.7499,38.0002L 23.7499,41.1668L 22.1666,41.1668 Z M 22.1666,38.0002L 20.5832,38.0002L 20.5832,34.8335L 22.1666,34.8335L 22.1666,38.0002 Z M 22.1666,34.8335L 22.1666,31.6668L 23.7499,31.6668L 23.7499,34.8335L 22.1666,34.8335 Z M 22.1666,31.6668L 20.5832,31.6668L 20.5832,28.5002L 22.1666,28.5002L 22.1666,31.6668 Z M 22.1666,28.5002L 22.1666,25.3335L 23.7499,25.3335L 23.7499,28.5002L 22.1666,28.5002 Z M 22.1666,25.3335L 20.5832,25.3335L 20.5832,22.1669L 22.1666,22.1669L 22.1666,25.3335 Z M 50.6666,31.6667L 50.6666,33.2502L 47.4999,33.2502L 47.4999,31.6667L 50.6666,31.6667 Z M 47.4999,31.6667L 44.3333,31.6667L 44.3333,30.0836L 47.4999,30.0836L 47.4999,31.6667 Z M 44.3333,31.6667L 44.3333,33.2502L 41.1666,33.2502L 41.1666,31.6667L 44.3333,31.6667 Z M 41.1666,31.6667L 39.5831,31.6667L 39.5831,28.5001L 41.1666,28.5001L 41.1666,31.6667 Z M 41.1666,28.5001L 41.1666,25.3334L 42.7498,25.3334L 42.7498,28.5001L 41.1666,28.5001 Z M 41.1666,25.3334L 39.5831,25.3334L 39.5831,22.1669L 41.1665,22.1669L 41.1666,25.3334 Z "/>
</svg>
