<?xml version="1.0" encoding="utf-8"?>
<!DOCTYPE svg PUBLIC "-//W3C//DTD SVG 1.1//EN" "http://www.w3.org/Graphics/SVG/1.1/DTD/svg11.dtd">
<svg xmlns="http://www.w3.org/2000/svg" xmlns:xlink="http://www.w3.org/1999/xlink" version="1.1" baseProfile="full" width="76" height="76" viewBox="0 0 76.00 76.00" enable-background="new 0 0 76.00 76.00" xml:space="preserve">
	<path fill="#000000" fill-opacity="1" stroke-linejoin="round" d="M 54,41C 54,49.8366 46.8366,57 38,57C 29.1635,57 22,49.8366 22,41C 22,34.6738 25.6715,29.2051 31,26.6085L 31,25C 31,23.3432 32.3431,22 34,22L 34,21C 34,18.7909 35.7909,17 38,17C 40.2091,17 42,18.7909 42,21L 42,22C 43.6568,22 45,23.3432 45,25L 45,26.6084C 50.3284,29.205 54,34.6737 54,41 Z M 40,21C 40,19.8955 39.1045,19 38,19C 36.8954,19 36,19.8955 36,21L 36,22.0001L 40,22.0001L 40,21 Z M 38,28C 34.3133,28 30.985,29.5347 28.6191,32L 47.3808,32C 45.0149,29.5347 41.6867,28 38,28 Z M 25,41C 25,41.2515 25.0071,41.5012 25.0212,41.7491L 29.2721,46L 33.5147,46L 25.3803,37.8657C 25.1318,38.8695 25,39.9194 25,41 Z M 50.0036,46C 50.0511,45.8862 50.097,45.7715 50.1413,45.6561L 40.4853,36L 36.2426,36L 46.2426,46L 50.0036,46 Z M 51,41C 51,39.8139 50.8411,38.6648 50.5435,37.5729L 48.9706,36L 44.7279,36L 50.9438,42.216C 50.981,41.8156 51,41.41 51,41 Z M 38,54C 41.6867,54 45.015,52.4654 47.3808,50L 28.6191,50C 30.985,52.4654 34.3133,54 38,54 Z M 37.7573,46L 42,46L 32,36L 27.7573,36L 37.7573,46 Z "/>
</svg>
