<?xml version="1.0" encoding="utf-8"?>
<!DOCTYPE svg PUBLIC "-//W3C//DTD SVG 1.1//EN" "http://www.w3.org/Graphics/SVG/1.1/DTD/svg11.dtd">
<svg xmlns="http://www.w3.org/2000/svg" xmlns:xlink="http://www.w3.org/1999/xlink" version="1.1" baseProfile="full" width="76" height="76" viewBox="0 0 76.00 76.00" enable-background="new 0 0 76.00 76.00" xml:space="preserve">
	<path fill="#000000" fill-opacity="1" stroke-width="0.2" stroke-linejoin="round" d="M 24.5417,17.4167L 51.4583,17.4167C 52.77,17.4167 53.8333,18.48 53.8333,19.7917L 53.8333,56.2083C 53.8333,57.52 52.77,58.5833 51.4583,58.5833L 24.5417,58.5833C 23.23,58.5833 22.1667,57.52 22.1667,56.2083L 22.1667,19.7917C 22.1667,18.48 23.23,17.4167 24.5417,17.4167 Z M 27.7083,20.5834C 26.3966,20.5834 25.3333,21.6467 25.3333,22.9584L 25.3333,24.5417C 25.3333,25.8534 26.3966,26.9167 27.7083,26.9167L 48.2916,26.9167C 49.6033,26.9167 50.6666,25.8534 50.6666,24.5417L 50.6666,22.9584C 50.6666,21.6467 49.6033,20.5834 48.2916,20.5834L 27.7083,20.5834 Z M 27.7083,30.0834C 26.3966,30.0834 25.3333,31.1467 25.3333,32.4584L 25.3333,34.0417C 25.3333,35.3534 26.3966,36.4167 27.7083,36.4167L 29.2916,36.4167C 30.6033,36.4167 31.6666,35.3534 31.6666,34.0417L 31.6666,32.4584C 31.6666,31.1467 30.6033,30.0834 29.2916,30.0834L 27.7083,30.0834 Z M 37.2083,30.0834C 35.8966,30.0834 34.8333,31.1467 34.8333,32.4584L 34.8333,34.0417C 34.8333,35.3534 35.8966,36.4167 37.2083,36.4167L 38.7916,36.4167C 40.1033,36.4167 41.1666,35.3534 41.1666,34.0417L 41.1666,32.4584C 41.1666,31.1467 40.1033,30.0834 38.7916,30.0834L 37.2083,30.0834 Z M 46.7083,30.0834C 45.3966,30.0834 44.3333,31.1467 44.3333,32.4584L 44.3333,34.0417C 44.3333,35.3534 45.3966,36.4167 46.7083,36.4167L 48.2916,36.4167C 49.6033,36.4167 50.6666,35.3534 50.6666,34.0417L 50.6666,32.4584C 50.6666,31.1467 49.6033,30.0834 48.2916,30.0834L 46.7083,30.0834 Z M 27.7083,39.5834C 26.3966,39.5834 25.3333,40.6467 25.3333,41.9584L 25.3333,43.5417C 25.3333,44.8534 26.3966,45.9167 27.7083,45.9167L 29.2917,45.9167C 30.6033,45.9167 31.6667,44.8534 31.6667,43.5417L 31.6667,41.9584C 31.6667,40.6467 30.6033,39.5834 29.2917,39.5834L 27.7083,39.5834 Z M 37.2083,39.5834C 35.8966,39.5834 34.8333,40.6467 34.8333,41.9584L 34.8333,43.5417C 34.8333,44.8534 35.8966,45.9167 37.2083,45.9167L 38.7916,45.9167C 40.1033,45.9167 41.1666,44.8534 41.1666,43.5417L 41.1666,41.9584C 41.1666,40.6467 40.1033,39.5834 38.7916,39.5834L 37.2083,39.5834 Z M 46.7083,39.5833C 45.3966,39.5833 44.3333,40.6467 44.3333,41.9583L 44.3333,43.5417C 44.3333,44.8533 45.3966,45.9167 46.7083,45.9167L 48.2917,45.9167C 49.6033,45.9167 50.6667,44.8533 50.6667,43.5417L 50.6667,41.9583C 50.6667,40.6467 49.6033,39.5833 48.2917,39.5833L 46.7083,39.5833 Z M 27.7083,49.0834C 26.3966,49.0834 25.3333,50.1467 25.3333,51.4584L 25.3333,53.0417C 25.3333,54.3534 26.3966,55.4167 27.7083,55.4167L 29.2917,55.4167C 30.6033,55.4167 31.6667,54.3534 31.6667,53.0417L 31.6667,51.4584C 31.6667,50.1467 30.6033,49.0834 29.2917,49.0834L 27.7083,49.0834 Z M 37.2083,49.0834C 35.8966,49.0834 34.8333,50.1467 34.8333,51.4584L 34.8333,53.0417C 34.8333,54.3534 35.8966,55.4167 37.2083,55.4167L 38.7917,55.4167C 40.1033,55.4167 41.1667,54.3534 41.1667,53.0417L 41.1667,51.4584C 41.1667,50.1467 40.1033,49.0834 38.7917,49.0834L 37.2083,49.0834 Z M 46.7083,49.0833C 45.3967,49.0833 44.3333,50.1467 44.3333,51.4583L 44.3333,53.0417C 44.3333,54.3533 45.3967,55.4167 46.7083,55.4167L 48.2917,55.4167C 49.6033,55.4167 50.6667,54.3533 50.6667,53.0417L 50.6667,51.4583C 50.6667,50.1467 49.6033,49.0833 48.2917,49.0833L 46.7083,49.0833 Z "/>
</svg>
