<?xml version="1.0" encoding="utf-8"?>
<!DOCTYPE svg PUBLIC "-//W3C//DTD SVG 1.1//EN" "http://www.w3.org/Graphics/SVG/1.1/DTD/svg11.dtd">
<svg xmlns="http://www.w3.org/2000/svg" xmlns:xlink="http://www.w3.org/1999/xlink" version="1.1" baseProfile="full" width="76" height="76" viewBox="0 0 76.00 76.00" enable-background="new 0 0 76.00 76.00" xml:space="preserve">
	<path fill="#000000" fill-opacity="1" stroke-width="0.2" stroke-linejoin="round" d="M 25,17L 51,17C 52.3117,17 54,18.6883 54,20L 54,56C 54,57.3117 52.3117,59 51,59L 25,59C 23.6883,59 22,57.3117 22,56L 22,20C 22,18.6883 23.6883,17 25,17 Z M 26.9999,20.0001C 25.8954,20.0001 24.9999,20.8956 24.9999,22.0001L 24.9999,25.0001C 24.9999,26.1047 25.8954,27.0001 26.9999,27.0001L 48.9999,27.0001C 50.1044,27.0001 50.9999,26.1047 50.9999,25.0001L 50.9999,22.0001C 50.9999,20.8956 50.1044,20.0001 48.9999,20.0001L 26.9999,20.0001 Z M 27,30.0001C 25.8954,30.0001 25,30.8955 25,32.0001L 25,34C 25,35.1046 25.8954,36 27,36L 28.9999,36.0001C 30.1045,36.0001 30.9999,35.1046 30.9999,34.0001L 31,32.0001C 31,30.8955 30.1045,30.0001 29,30.0001L 27,30.0001 Z M 37,30.0001C 35.8954,30.0001 35,30.8955 35,32.0001L 34.9999,34C 34.9999,35.1046 35.8954,36 36.9999,36L 39,36C 40.1045,36 41,35.1046 41,34L 41,32.0001C 41,30.8955 40.1045,30.0001 39,30.0001L 37,30.0001 Z M 46.9999,30.0001C 45.8954,30.0001 44.9999,30.8955 44.9999,32.0001L 44.9999,34C 44.9999,35.1046 45.8953,36 46.9999,36L 48.9999,36C 50.1045,36 50.9999,35.1046 50.9999,34L 50.9999,32.0001C 50.9999,30.8955 50.1045,30.0001 48.9999,30.0001L 46.9999,30.0001 Z M 27,39C 25.8954,39 25,39.8955 25,41L 25,43C 25,44.1046 25.8954,45 27,45L 29,45.0001C 30.1045,45.0001 31,44.1046 31,43.0001L 31,41.0001C 31,39.8955 30.1045,39.0001 29,39.0001L 27,39 Z M 37,39.0001C 35.8954,39.0001 35,39.8955 35,41.0001L 35,43.0001C 35,44.1046 35.8954,45.0001 37,45.0001L 39,45C 40.1045,45 41,44.1046 41,43L 41,41.0001C 41,39.8955 40.1045,39.0001 39,39.0001L 37,39.0001 Z M 47,39C 45.8954,39 45,39.8955 45,41L 44.9999,43C 44.9999,44.1046 45.8954,45 46.9999,45L 49,45C 50.1045,45 51,44.1046 51,43L 51,41C 51,39.8955 50.1045,39 49,39L 47,39 Z M 27,49.0001C 25.8954,49.0001 25,49.8955 25,51.0001L 25,53C 25,54.1046 25.8954,55 27,55L 29,55C 30.1045,55 31,54.1046 31,53.0001L 31,51.0001C 31,49.8955 30.1045,49.0001 29,49.0001L 27,49.0001 Z M 37,49.0001C 35.8954,49.0001 35,49.8955 35,51.0001L 35,53.0001C 35,54.1046 35.8954,55 37,55L 39,55C 40.1045,55 41,54.1046 41,53L 41,51.0001C 41,49.8955 40.1045,49.0001 39,49.0001L 37,49.0001 Z M 47,49C 45.8954,49 45,49.8955 45,51L 45,53C 45,54.1046 45.8954,55 47,55L 49,55C 50.1045,55 51,54.1046 51,53L 51,51C 51,49.8954 50.1046,49 49,49L 47,49 Z "/>
</svg>
