<?xml version="1.0" encoding="utf-8"?>
<!DOCTYPE svg PUBLIC "-//W3C//DTD SVG 1.1//EN" "http://www.w3.org/Graphics/SVG/1.1/DTD/svg11.dtd">
<svg xmlns="http://www.w3.org/2000/svg" xmlns:xlink="http://www.w3.org/1999/xlink" version="1.1" baseProfile="full" width="76" height="76" viewBox="0 0 76.00 76.00" enable-background="new 0 0 76.00 76.00" xml:space="preserve">
	<path fill="#000000" fill-opacity="1" stroke-width="0.2" stroke-linejoin="round" d="M 38,23C 44.382,23 49.8331,26.9856 52,32.6036L 52,43.3964C 49.8331,49.0144 44.382,53 38,53C 36.9694,53 35.9631,52.8961 34.991,52.6981C 34.835,50.0773 32.6601,48 30,48C 29.0779,48 28.214,48.2496 27.4724,48.685C 25.9673,47.202 24.7741,45.4033 24,43.3964L 24,32.6036C 26.1669,26.9856 31.618,23 38,23 Z M 23,33.5L 23,42.5L 22.8835,43.2565C 23.792,45.8695 25.3589,48.1744 27.3856,49.9725C 28.0868,49.3665 29.0006,49 30,49C 32.2091,49 34,50.7909 34,53C 34,55.2091 32.2091,57 30,57C 27.7909,57 26,55.2091 26,53L 26.0084,52.7385C 23.508,50.7017 21.5357,48.0412 20.3287,44.9942C 19.0279,44.9062 18,43.8232 18,42.5L 18,33.5C 18,32.1769 19.0279,31.0938 20.3287,31.0058C 23.1144,23.9735 29.9764,19 38,19C 46.0236,19 52.8856,23.9735 55.6713,31.0058C 56.9721,31.0938 58,32.1769 58,33.5L 58,42.5C 58,43.8807 56.8807,45 55.5,45C 54.1193,45 53,43.8807 53,42.5L 53,33.5L 53.1165,32.7435C 50.9419,26.4891 44.9952,22 38,22C 31.0048,22 25.0581,26.4891 22.8835,32.7435L 23,33.5 Z "/>
</svg>
