<?xml version="1.0" encoding="utf-8"?>
<!DOCTYPE svg PUBLIC "-//W3C//DTD SVG 1.1//EN" "http://www.w3.org/Graphics/SVG/1.1/DTD/svg11.dtd">
<svg xmlns="http://www.w3.org/2000/svg" xmlns:xlink="http://www.w3.org/1999/xlink" version="1.1" baseProfile="full" width="48" height="48" viewBox="0 0 48.00 48.00" enable-background="new 0 0 48.00 48.00" xml:space="preserve">
	<path fill="#000000" d="M 8.71778,14.4992C 10.0669,14.2509 11.7911,14.1128 13.6147,14.1128C 16.7621,14.1128 18.9361,14.8302 20.4844,16.2654C 22.1086,17.7285 23.1079,19.936 23.1079,23.1101C 23.1079,26.4213 22.0833,28.905 20.4844,30.5058C 18.8108,32.1896 16.1376,33.0449 12.8648,33.0449C 11.0662,33.0449 9.71682,32.9347 8.71778,32.7966L 8.71778,14.4992 Z M 13.4897,30.3404L 13.5576,30.3407C 17.5143,30.341 19.8599,27.913 19.8599,23.2204C 19.8849,19.1083 17.7365,16.7624 13.8895,16.7624C 12.9148,16.7624 12.2153,16.8451 11.7911,16.9556L 11.7911,30.2578C 12.2153,30.3404 12.8648,30.3404 13.4897,30.3404 Z M 37.9964,19.4115L 40.9251,19.4115L 37.2213,32.8517L 34.4617,32.8517L 33.0575,27.3876C 32.6952,25.98 32.4284,24.7104 32.1621,23.0817L 32.113,23.0817C 31.8714,24.7383 31.5566,26.0627 31.2179,27.3876L 29.7168,32.8517L 26.933,32.8517L 23.4475,19.4115L 26.4977,19.4115L 27.7321,25.5109L 28.4819,29.8713L 28.5308,29.8713C 28.7729,28.4083 29.1602,26.9182 29.4991,25.5387L 31.0238,19.4115L 33.445,19.4115L 34.9214,25.3728L 35.8656,29.8713L 35.9142,29.8713C 36.1074,28.4083 36.3743,26.9458 36.6888,25.3728L 37.9964,19.4115 Z "/>
</svg>
