<?xml version="1.0" encoding="utf-8"?>
<!DOCTYPE svg PUBLIC "-//W3C//DTD SVG 1.1//EN" "http://www.w3.org/Graphics/SVG/1.1/DTD/svg11.dtd">
<svg xmlns="http://www.w3.org/2000/svg" xmlns:xlink="http://www.w3.org/1999/xlink" version="1.1" baseProfile="full" width="76" height="76" viewBox="0 0 76.00 76.00" enable-background="new 0 0 76.00 76.00" xml:space="preserve">
	<path fill="#000000" fill-opacity="1" stroke-width="0.2" stroke-linejoin="round" d="M 55.4167,38L 55.3457,39.5833L 49.7704,39.5833L 49.875,38C 49.875,34.483 48.3461,31.3231 45.9167,29.1488L 45.9167,38L 41.1667,33.25L 41.1667,20.5833L 53.8333,20.5834L 58.5833,25.3333L 49.954,25.3333C 53.3175,28.5088 55.4167,33.0092 55.4167,38 Z M 58.5833,41.1667L 58.5833,57L 17.4167,57L 17.4167,41.1667L 58.5833,41.1667 Z M 20.5833,44.3333L 20.5833,53.8333L 55.4167,53.8333L 55.4167,44.3333L 20.5833,44.3333 Z M 17.4166,20.5834L 22.1667,20.5833L 22.1667,23.75L 20.5833,23.75L 17.4167,23.75L 17.4166,20.5834 Z M 37.9999,20.5834L 38,23.75L 34.8333,23.75L 33.25,23.75L 33.25,20.5834L 37.9999,20.5834 Z M 17.4167,34.8333L 20.5833,34.8333L 20.5833,39.5833L 17.4167,39.5833L 17.4167,34.8333 Z M 34.8333,34.8333L 38,34.8333L 38,39.5833L 34.8333,39.5833L 34.8333,34.8333 Z M 17.4167,26.9167L 20.5833,26.9167L 20.5833,31.6667L 17.4167,31.6667L 17.4167,26.9167 Z M 34.8333,26.9167L 38,26.9167L 38,31.6667L 34.8333,31.6667L 34.8333,26.9167 Z M 25.3333,23.75L 25.3333,20.5834L 30.0833,20.5834L 30.0833,23.75L 25.3333,23.75 Z "/>
</svg>
