<?xml version="1.0" encoding="utf-8"?>
<!DOCTYPE svg PUBLIC "-//W3C//DTD SVG 1.1//EN" "http://www.w3.org/Graphics/SVG/1.1/DTD/svg11.dtd">
<svg xmlns="http://www.w3.org/2000/svg" xmlns:xlink="http://www.w3.org/1999/xlink" version="1.1" baseProfile="full" width="76" height="76" viewBox="0 0 76.00 76.00" enable-background="new 0 0 76.00 76.00" xml:space="preserve">
	<path fill="#000000" fill-opacity="1" stroke-width="0.2" stroke-linejoin="round" d="M 38,19C 48.4934,19 57,27.5066 57,38C 57,48.4934 48.4934,57 38,57C 27.5066,57 19,48.4934 19,38C 19,27.5066 27.5066,19 38,19 Z M 33.25,33.25L 33.25,36.4167L 36.4166,36.4167L 36.4166,47.5L 33.25,47.5L 33.25,50.6667L 44.3333,50.6667L 44.3333,47.5L 41.1666,47.5L 41.1666,36.4167L 41.1666,33.25L 33.25,33.25 Z M 38.7917,25.3333C 37.48,25.3333 36.4167,26.3967 36.4167,27.7083C 36.4167,29.02 37.48,30.0833 38.7917,30.0833C 40.1033,30.0833 41.1667,29.02 41.1667,27.7083C 41.1667,26.3967 40.1033,25.3333 38.7917,25.3333 Z "/>
</svg>
