<?xml version="1.0" encoding="utf-8"?>
<!DOCTYPE svg PUBLIC "-//W3C//DTD SVG 1.1//EN" "http://www.w3.org/Graphics/SVG/1.1/DTD/svg11.dtd">
<svg xmlns="http://www.w3.org/2000/svg" xmlns:xlink="http://www.w3.org/1999/xlink" version="1.1" baseProfile="full" width="76" height="76" viewBox="0 0 76.00 76.00" enable-background="new 0 0 76.00 76.00" xml:space="preserve">
	<path fill="#000000" fill-opacity="1" stroke-width="0.2" stroke-linejoin="round" d="M 26.9167,19C 31.237,19 35.1082,21.5635 37.7215,25.6118L 33.1477,30.1856C 31.6984,27.2313 29.446,25.3333 26.9167,25.3333C 22.5444,25.3333 19,31.0044 19,38C 19,44.9956 22.5444,50.6667 26.9167,50.6667C 29.4461,50.6667 31.6984,48.7687 33.1477,45.8144L 37.7215,50.3882C 35.1082,54.4365 31.237,57 26.9167,57C 19.0466,57 12.6667,48.4934 12.6667,38C 12.6667,27.5066 19.0466,19 26.9167,19 Z M 50.9452,19C 55.2655,19 59.1367,21.5635 61.75,25.6118L 57.1762,30.1856C 55.7269,27.2313 53.4745,25.3333 50.9452,25.3333C 46.5729,25.3333 43.0285,31.0044 43.0285,38C 43.0285,44.9956 46.5729,50.6667 50.9452,50.6667C 53.4745,50.6667 55.7269,48.7687 57.1762,45.8144L 61.75,50.3882C 59.1367,54.4365 55.2655,57 50.9452,57C 43.0751,57 36.6952,48.4934 36.6952,38C 36.6952,27.5066 43.0751,19 50.9452,19 Z "/>
</svg>
