<?xml version="1.0" encoding="utf-8"?>
<!DOCTYPE svg PUBLIC "-//W3C//DTD SVG 1.1//EN" "http://www.w3.org/Graphics/SVG/1.1/DTD/svg11.dtd">
<svg xmlns="http://www.w3.org/2000/svg" xmlns:xlink="http://www.w3.org/1999/xlink" version="1.1" baseProfile="full" width="76" height="76" viewBox="0 0 76.00 76.00" enable-background="new 0 0 76.00 76.00" xml:space="preserve">
	<path fill="#000000" fill-opacity="1" stroke-width="0.2" stroke-linejoin="round" d="M 38,15.8333C 41.4978,15.8333 44.3333,18.6689 44.3333,22.1667C 44.3333,25.6645 41.4978,28.5 38,28.5L 42.75,28.5L 43.5417,28.5L 52.25,38L 52.1482,38.1018C 53.1234,38.3974 53.8333,39.3033 53.8333,40.375C 53.8333,41.6867 52.77,42.75 51.4583,42.75C 50.3866,42.75 49.4807,42.0401 49.1851,41.0649L 49.0833,41.1667L 43.6548,35.7381L 44.3333,41.1667L 31.6667,41.1667L 32.3452,35.7381L 26.9167,41.1667L 26.8149,41.0649C 26.5193,42.0401 25.6134,42.75 24.5417,42.75C 23.23,42.75 22.1667,41.6867 22.1667,40.375C 22.1667,39.3033 22.8765,38.3973 23.8518,38.1018L 23.75,38L 32.4583,28.5L 33.25,28.5L 38,28.5C 34.5022,28.5 31.6667,25.6645 31.6667,22.1667C 31.6667,18.6689 34.5022,15.8333 38,15.8333 Z M 45.125,57C 45.125,58.7489 43.7072,60.1667 41.9583,60.1667C 40.2094,60.1667 38.7917,58.7489 38.7917,57C 38.7917,55.4957 39.8406,54.2364 43.5417,51.4583L 39.1875,47.1042L 44.7291,42.75L 50.6666,50.6667L 45.125,57 Z M 30.875,57L 25.3333,50.6667L 31.2708,42.75L 36.8125,47.1042L 32.4583,51.4583C 36.1594,54.2364 37.2083,55.4957 37.2083,57C 37.2083,58.7489 35.7906,60.1667 34.0417,60.1667C 32.2928,60.1667 30.875,58.7489 30.875,57 Z "/>
</svg>
