<?xml version="1.0" encoding="utf-8"?>
<!DOCTYPE svg PUBLIC "-//W3C//DTD SVG 1.1//EN" "http://www.w3.org/Graphics/SVG/1.1/DTD/svg11.dtd">
<svg xmlns="http://www.w3.org/2000/svg" xmlns:xlink="http://www.w3.org/1999/xlink" version="1.1" baseProfile="full" width="76" height="76" viewBox="0 0 76.00 76.00" enable-background="new 0 0 76.00 76.00" xml:space="preserve">
	<path fill="#000000" fill-opacity="1" stroke-width="0.2" stroke-linejoin="round" d="M 23,54L 23,26C 23,24.3432 24.3431,23 26,23L 30.0001,22.9999C 30.0001,22.9999 30.9999,22.8807 30.9999,21.5C 30.9999,20.1192 32.6191,19 33.9999,19L 41.9998,19.0001C 43.3798,19.0001 44.9988,20.6176 45,21.9978L 44.9998,21.5024C 45.0009,22.8809 46,23 46,23L 50,23C 51.6569,23 53,24.3432 53,26L 52.9999,54C 52.9999,55.6568 51.6568,57 49.9999,57L 26,57C 24.3431,57 23,55.6569 23,54 Z M 32,27L 44,27C 44,27 42.9998,25.8809 42.9998,24.5001C 42.9998,23.1194 41.8805,22.0001 40.4998,22.0001L 35.4998,22.0001C 34.1191,22.0001 32.9998,23.1194 32.9998,24.5001C 32.9998,25.8809 32,27 32,27 Z "/>
</svg>
