<?xml version="1.0" encoding="utf-8"?>
<!DOCTYPE svg PUBLIC "-//W3C//DTD SVG 1.1//EN" "http://www.w3.org/Graphics/SVG/1.1/DTD/svg11.dtd">
<svg xmlns="http://www.w3.org/2000/svg" xmlns:xlink="http://www.w3.org/1999/xlink" version="1.1" baseProfile="full" width="76" height="76" viewBox="0 0 76.00 76.00" enable-background="new 0 0 76.00 76.00" xml:space="preserve">
	<path fill="#000000" fill-opacity="1" stroke-width="0.2" stroke-linejoin="round" d="M 20,17L 44,17L 56,29L 56,45.1515C 57.8558,47.0453 59,49.639 59,52.5C 59,58.299 54.299,63 48.5,63C 45.1554,63 42.1761,61.4363 40.2532,59L 20,59L 20,17 Z M 24,21L 24,55L 38.2994,55C 38.1037,54.1988 38,53.3615 38,52.5C 38,46.701 42.701,42 48.5,42C 49.7272,42 50.9053,42.2105 52,42.5975L 52,34L 39,34L 39,21L 24,21 Z M 43,21L 43,30L 52,30L 43,21 Z M 47.7258,55.9525C 47.7258,55.8075 47.7779,55.6542 47.882,55.4925L 48.3033,54.9962L 48.9158,54.48L 49.6383,53.9525L 50.7095,53.16C 51.0537,52.8867 51.357,52.5858 51.6195,52.2575C 51.882,51.9292 52.0929,51.5646 52.252,51.1637C 52.4112,50.7629 52.4908,50.305 52.4908,49.79C 52.4908,49.305 52.4087,48.8658 52.2445,48.4725C 52.0804,48.0792 51.842,47.7446 51.5295,47.4687C 51.217,47.1929 50.8354,46.9808 50.3845,46.8325C 49.9337,46.6842 49.425,46.61 48.8583,46.61C 47.6333,46.61 46.5341,46.925 45.5608,47.555L 45.5608,49.7275C 46.4408,48.9608 47.3625,48.5775 48.3258,48.5775C 48.8841,48.5775 49.2987,48.7 49.5695,48.945C 49.8404,49.19 49.9758,49.5517 49.9758,50.03C 49.9758,50.275 49.9341,50.5058 49.8508,50.7225L 49.472,51.3637L 48.847,52L 47.9833,52.6725L 46.9945,53.425C 46.6487,53.7033 46.33,54.0237 46.0383,54.3862C 45.7466,54.7487 45.5041,55.1579 45.3108,55.6137C 45.1175,56.0696 45.0208,56.5833 45.0208,57.155L 45.0208,58L 52.4758,58L 52.4758,55.9525L 47.7258,55.9525 Z "/>
</svg>
