<?xml version="1.0" encoding="utf-8"?>
<!DOCTYPE svg PUBLIC "-//W3C//DTD SVG 1.1//EN" "http://www.w3.org/Graphics/SVG/1.1/DTD/svg11.dtd">
<svg xmlns="http://www.w3.org/2000/svg" xmlns:xlink="http://www.w3.org/1999/xlink" version="1.1" baseProfile="full" width="76" height="76" viewBox="0 0 76.00 76.00" enable-background="new 0 0 76.00 76.00" xml:space="preserve">
	<path fill="#000000" fill-opacity="1" stroke-width="0.2" stroke-linejoin="round" d="M 19,17.4167L 41.9583,17.4167L 53.8333,29.2917L 53.8333,36.4167L 50.6666,36.4167L 50.6667,33.25L 38,33.25L 38,20.5833L 22.1667,20.5834L 22.1667,55.4167L 32.4583,55.4167L 30.0833,58.5833L 19,58.5833L 19,17.4167 Z M 53.8333,54.1161L 50.6667,49.9543L 50.6667,47.892L 53.8333,43.8056L 53.8333,54.1161 Z M 41.8264,58.5833L 43.4851,56.0953L 45.125,58.5833L 41.8264,58.5833 Z M 41.1666,21.3751L 41.1666,30.0834L 49.8749,30.0834L 41.1666,21.3751 Z M 32.4583,38L 39.5833,38L 44.0374,44.4221L 49.0833,38L 55.4167,38L 47.0067,48.7036L 56.6041,62.5417L 49.4791,62.5417L 43.2223,53.5201L 38,60.1667L 31.6667,60.1667L 40.2529,49.2387L 32.4583,38 Z "/>
</svg>
