<?xml version="1.0" encoding="utf-8"?>
<!DOCTYPE svg PUBLIC "-//W3C//DTD SVG 1.1//EN" "http://www.w3.org/Graphics/SVG/1.1/DTD/svg11.dtd">
<svg xmlns="http://www.w3.org/2000/svg" xmlns:xlink="http://www.w3.org/1999/xlink" version="1.1" baseProfile="full" width="76" height="76" viewBox="0 0 76.00 76.00" enable-background="new 0 0 76.00 76.00" xml:space="preserve">
	<path fill="#000000" fill-opacity="1" stroke-width="0.2" stroke-linejoin="round" d="M 23.4454,49.2637L 31.7739,41.1598C 30.6986,39.2983 30.4792,37.1377 30.4792,34.8333C 30.4792,27.8377 35.7544,22.1667 42.75,22.1667C 49.7456,22.1667 55.4167,27.8377 55.4167,34.8333C 55.4167,41.8289 49.7456,47.1042 42.75,47.1042C 40.5639,47.1042 38.5072,46.9462 36.7125,45.9713L 28.3196,54.1379C 27.0829,55.3746 24.6821,55.3746 23.4454,54.1379C 22.2088,52.9013 22.2088,50.5004 23.4454,49.2637 Z M 42.75,26.9167C 38.3777,26.9167 34.8333,30.4611 34.8333,34.8333C 34.8333,39.2056 38.3777,42.75 42.75,42.75C 47.1222,42.75 50.6667,39.2056 50.6667,34.8333C 50.6667,30.4611 47.1222,26.9167 42.75,26.9167 Z "/>
</svg>
