<?xml version="1.0" encoding="utf-8"?>
<!DOCTYPE svg PUBLIC "-//W3C//DTD SVG 1.1//EN" "http://www.w3.org/Graphics/SVG/1.1/DTD/svg11.dtd">
<svg xmlns="http://www.w3.org/2000/svg" xmlns:xlink="http://www.w3.org/1999/xlink" version="1.1" baseProfile="full" width="76" height="76" viewBox="0 0 76.00 76.00" enable-background="new 0 0 76.00 76.00" xml:space="preserve">
	<path fill="#000000" fill-opacity="1" stroke-width="0.2" stroke-linejoin="round" d="M 46.75,53L 57,53L 57,57L 46.75,57L 44.75,55L 46.75,53 Z M 29.25,53L 31.25,55L 29.25,57L 19,57L 19,53L 29.25,53 Z M 29.5147,59.9926L 34.5073,55L 29.5147,50.0074L 33.0073,46.5147L 38,51.5074L 42.9926,46.5147L 46.4852,50.0074L 41.7426,55L 46.4852,59.9926L 42.9926,63.4853L 38,58.7426L 33.0073,63.4853L 29.5147,59.9926 Z M 36,46.25L 36,44L 40,44L 40,46.25L 38,48.25L 36,46.25 Z M 29.9923,41.9999L 31.0398,36L 26.0475,36L 26.7458,32L 31.7381,32L 32.2619,29L 27.2696,29L 27.9679,25L 32.9602,25L 34.0077,18.9999L 38.0077,18.9999L 36.9602,25L 40.9603,25L 42.0078,18.9999L 46.0078,18.9999L 44.9603,25L 48.9679,25L 48.2696,29L 44.2619,29L 43.7382,32L 47.7458,32L 47.0475,36L 43.0398,36L 41.9924,41.9999L 37.9924,41.9999L 39.0398,36L 35.0398,36L 33.9923,41.9999L 29.9923,41.9999 Z M 35.7381,32L 39.7382,32L 40.2619,29L 36.2619,29L 35.7381,32 Z "/>
</svg>
