<?xml version="1.0" encoding="utf-8"?>
<!DOCTYPE svg PUBLIC "-//W3C//DTD SVG 1.1//EN" "http://www.w3.org/Graphics/SVG/1.1/DTD/svg11.dtd">
<svg xmlns="http://www.w3.org/2000/svg" xmlns:xlink="http://www.w3.org/1999/xlink" version="1.1" baseProfile="full" width="76" height="76" viewBox="0 0 76.00 76.00" enable-background="new 0 0 76.00 76.00" xml:space="preserve">
	<path fill="#000000" fill-opacity="1" stroke-width="0.2" stroke-linejoin="round" d="M 58.5833,65.3125L 58.5834,36.7136C 42.5206,39.396 33.25,49.559 33.25,61.75L 31.6667,64.6L 31.6667,72.0417L 23.75,70.0625L 23.75,64.5982C 21.8826,49.6288 14.383,40.084 3.95833,38L 5.54514,25.7135C 14.9543,22.0935 20.5765,15.2459 21.8757,6.95812L 32.4817,3.16666C 35.2857,18.5301 45.0246,26.9167 57,26.9167L 60.1667,28.5L 71.25,28.5L 72.8333,36.4167L 66.5,36.4167L 66.5,58.5834L 58.5833,65.3125 Z M 62.5416,57.0001L 62.5416,55.4167L 61.75,55.4167L 61.75,57.0001L 62.5416,57.0001 Z M 62.5416,52.2501L 62.5416,49.0834L 61.75,49.0834L 61.75,52.2501L 62.5416,52.2501 Z M 62.5416,45.9167L 62.5416,44.3334L 61.75,44.3334L 61.75,45.9167L 62.5416,45.9167 Z M 62.5416,41.1667L 62.5416,38.0001L 61.75,38.0001L 61.75,41.1667L 62.5416,41.1667 Z M 23.75,28.5L 23.75,19.5638C 22.2307,21.9752 16.6561,27.0483 12.624,28.5L 22.9583,28.5L 22.9583,36.4167L 14.8138,36.4167C 17.2252,37.936 22.2982,43.5107 23.75,47.5427L 23.75,36.4167L 23.75,28.5 Z M 40.6289,28.5C 38.2282,26.9412 33.1237,21.1101 31.6667,16.9966L 31.6667,28.5L 31.6666,31.6667L 31.6666,32.4584L 31.6667,36.4167L 31.6667,36.4167L 31.6667,45.3528C 33.186,42.9414 38.7605,37.8685 42.7925,36.4167L 32.4583,36.4167L 32.4583,32.4584L 33.2499,32.4584L 33.2499,31.6667L 32.4583,31.6667L 32.4583,28.5L 40.6289,28.5 Z M 7.91665,32.4584L 11.0833,32.4584L 11.0833,31.6668L 7.91665,31.6668L 7.91665,32.4584 Z M 14.25,32.4584L 15.8333,32.4584L 15.8333,31.6668L 14.25,31.6668L 14.25,32.4584 Z M 19,32.4584L 22.1666,32.4584L 22.1666,31.6667L 19,31.6667L 19,32.4584 Z M 36.4166,32.4584L 37.9999,32.4584L 37.9999,31.6667L 36.4166,31.6667L 36.4166,32.4584 Z M 41.1666,32.4584L 44.3333,32.4584L 44.3333,31.6667L 41.1666,31.6667L 41.1666,32.4584 Z M 47.4999,32.4584L 49.0833,32.4584L 49.0833,31.6667L 47.4999,31.6667L 47.4999,32.4584 Z M 52.2499,32.4584L 55.4166,32.4584L 55.4166,31.6667L 52.2499,31.6667L 52.2499,32.4584 Z M 58.5833,32.4584L 60.1666,32.4584L 60.1666,31.6667L 58.5833,31.6667L 58.5833,32.4584 Z M 63.3333,32.4584L 66.4999,32.4584L 66.4999,31.6667L 63.3333,31.6667L 63.3333,32.4584 Z M 27.7084,66.5L 27.7084,63.3334L 26.9167,63.3334L 26.9167,66.5L 27.7084,66.5 Z M 27.7084,60.1667L 27.7084,58.5834L 26.9167,58.5834L 26.9167,60.1667L 27.7084,60.1667 Z M 27.7084,55.4167L 27.7084,52.25L 26.9167,52.25L 26.9167,55.4167L 27.7084,55.4167 Z M 27.7083,49.0834L 27.7083,47.5L 26.9167,47.5L 26.9167,49.0834L 27.7083,49.0834 Z M 27.7083,44.3334L 27.7083,41.1667L 26.9167,41.1667L 26.9167,44.3334L 27.7083,44.3334 Z M 27.7083,38.0001L 27.7083,36.4167L 26.9167,36.4167L 26.9167,38.0001L 27.7083,38.0001 Z M 27.7083,26.9167L 27.7083,25.3334L 26.9167,25.3334L 26.9167,26.9167L 27.7083,26.9167 Z M 27.7083,22.1667L 27.7083,19.0001L 26.9167,19.0001L 26.9167,22.1667L 27.7083,22.1667 Z M 27.7083,15.8334L 27.7083,14.2501L 26.9167,14.2501L 26.9167,15.8334L 27.7083,15.8334 Z M 27.7083,11.0834L 27.7083,7.91678L 26.9167,7.91678L 26.9167,11.0834L 27.7083,11.0834 Z M 27.7083,33.25L 27.7083,30.0834L 26.9166,30.0834L 26.9166,33.25L 27.7083,33.25 Z "/>
</svg>
