<?xml version="1.0" encoding="utf-8"?>
<!DOCTYPE svg PUBLIC "-//W3C//DTD SVG 1.1//EN" "http://www.w3.org/Graphics/SVG/1.1/DTD/svg11.dtd">
<svg xmlns="http://www.w3.org/2000/svg" xmlns:xlink="http://www.w3.org/1999/xlink" version="1.1" baseProfile="full" width="76" height="76" viewBox="0 0 76.00 76.00" enable-background="new 0 0 76.00 76.00" xml:space="preserve">
	<path fill="#000000" fill-opacity="1" stroke-width="0.2" stroke-linejoin="round" d="M 17,20L 59,20L 59,56L 17,56L 17,20 Z M 20,23L 20,53L 56,53L 56,23L 20,23 Z M 24,51L 30.0833,44.3333L 33.25,47.5L 45.9167,34.8333L 50.6667,39.5833L 54,36L 54,51L 24,51 Z M 30.0833,26.9167C 30.0833,30.4145 27.2478,33.25 23.75,33.25C 23.2033,33.25 22.5061,33.1302 22,33L 22,25L 29.6666,25C 29.7968,25.5061 30.0833,26.3699 30.0833,26.9167 Z "/>
</svg>
