<?xml version="1.0" encoding="utf-8"?>
<!DOCTYPE svg PUBLIC "-//W3C//DTD SVG 1.1//EN" "http://www.w3.org/Graphics/SVG/1.1/DTD/svg11.dtd">
<svg xmlns="http://www.w3.org/2000/svg" xmlns:xlink="http://www.w3.org/1999/xlink" version="1.1" baseProfile="full" width="76" height="76" viewBox="0 0 76.00 76.00" enable-background="new 0 0 76.00 76.00" xml:space="preserve">
	<path fill="#000000" fill-opacity="1" stroke-width="0.2" stroke-linejoin="round" d="M 15.8333,25.3333L 60.1667,25.3333L 60.1667,52.25L 15.8333,52.25L 15.8333,25.3333 Z M 19,28.5L 19,49.0833L 57,49.0833L 57,28.5L 19,28.5 Z M 32.015,39.1558L 28.591,39.5833L 31.0017,42.1286L 28.7652,43.6367L 27.0829,40.4938L 25.3967,43.6367L 23.1483,42.1286L 25.5708,39.5833L 22.135,39.1558L 23.0256,36.7967L 26.1883,38.0633L 25.6817,34.5167L 28.4683,34.5167L 27.9617,38.0633L 31.1006,36.7967L 32.015,39.1558 Z M 43.6683,39.1558L 40.2444,39.5833L 42.655,42.1285L 40.4185,43.6367L 38.7362,40.4938L 37.05,43.6367L 34.8017,42.1285L 37.2242,39.5833L 33.7883,39.1558L 34.679,36.7967L 37.8417,38.0633L 37.335,34.5167L 40.1217,34.5167L 39.615,38.0633L 42.754,36.7967L 43.6683,39.1558 Z M 45.5208,47.5L 45.5208,30.0833L 47.5,30.0833L 47.5,47.5L 45.5208,47.5 Z "/>
</svg>
