<?xml version="1.0" encoding="utf-8"?>
<!DOCTYPE svg PUBLIC "-//W3C//DTD SVG 1.1//EN" "http://www.w3.org/Graphics/SVG/1.1/DTD/svg11.dtd">
<svg xmlns="http://www.w3.org/2000/svg" xmlns:xlink="http://www.w3.org/1999/xlink" version="1.1" baseProfile="full" width="76" height="76" viewBox="0 0 76.00 76.00" enable-background="new 0 0 76.00 76.00" xml:space="preserve">
	<path fill="#000000" fill-opacity="1" stroke-width="0.2" stroke-linejoin="round" d="M 56.9368,27.36C 51.9175,29.3708 49.1308,34.0575 49.0833,41.1667L 55.4167,41.1667L 55.4167,53.8333L 41.1667,53.8333L 41.1667,42.0533C 41.1667,38.7442 41.9425,35.5062 42.3542,33.0679C 42.7658,30.6296 43.8465,29.7706 45.5961,27.3244C 47.3456,24.8781 50.0333,22.8633 53.6592,21.28L 56.9368,27.36 Z M 34.77,27.36C 29.7983,29.3708 27.0117,34.0575 26.9167,41.1667L 33.25,41.1667L 33.25,53.8333L 19,53.8333L 19,42.0533C 19,38.7442 19.7758,35.5062 20.1875,33.0679C 20.5992,30.6296 21.664,29.7706 23.3819,27.3244C 25.0998,24.8781 27.8033,22.8633 31.4925,21.28L 34.77,27.36 Z "/>
</svg>
