<?xml version="1.0" encoding="utf-8"?>
<!DOCTYPE svg PUBLIC "-//W3C//DTD SVG 1.1//EN" "http://www.w3.org/Graphics/SVG/1.1/DTD/svg11.dtd">
<svg xmlns="http://www.w3.org/2000/svg" xmlns:xlink="http://www.w3.org/1999/xlink" version="1.1" baseProfile="full" width="76" height="76" viewBox="0 0 76.00 76.00" enable-background="new 0 0 76.00 76.00" xml:space="preserve">
	<path fill="#000000" fill-opacity="1" stroke-width="0.2" stroke-linejoin="round" d="M 30.5,38L 22.75,30L 27.5,30L 35.5,38L 27.5,46L 22.75,46L 30.5,38 Z M 18,29.75L 26.25,38L 18,46.25L 18,29.75 Z M 28,25L 58,25L 58,51L 28,51L 28,47.25L 31,44.25L 31,48L 55,48L 55,28L 31,28L 31,31.75L 28,28.75L 28,25 Z M 34,46L 37.1667,41.1667L 40.3333,44.3333L 48.25,36.4167L 51.4166,39.5834L 53,36.5L 53,46L 34,46 Z M 38.75,31.6667C 38.75,33.7164 37.3177,35.5468 35.4306,36.1806L 33,33.75L 33,30L 38.75,30.0834C 38.8447,30.4514 38.75,31.2691 38.75,31.6667 Z "/>
</svg>
