<?xml version="1.0" encoding="utf-8"?>
<!DOCTYPE svg PUBLIC "-//W3C//DTD SVG 1.1//EN" "http://www.w3.org/Graphics/SVG/1.1/DTD/svg11.dtd">
<svg xmlns="http://www.w3.org/2000/svg" xmlns:xlink="http://www.w3.org/1999/xlink" version="1.1" baseProfile="full" width="76" height="76" viewBox="0 0 76.00 76.00" enable-background="new 0 0 76.00 76.00" xml:space="preserve">
	<path fill="#000000" fill-opacity="1" stroke-width="0.2" stroke-linejoin="round" d="M 22,17L 54,17C 56.6233,17 59,19.3767 59,22L 59,54C 59,56.6234 56.6233,59 54,59L 22,59C 19.3766,59 17,56.6234 17,54L 17,22C 17,19.3767 19.3766,17 22,17 Z M 51.4583,47.5L 49.0833,49.0833L 49.0833,49.875L 50.6667,49.875L 50.6667,55.4167L 52.25,55.4167L 52.25,48.2917C 52.25,47.8544 51.8956,47.5 51.4583,47.5 Z M 31.8235,27.8033L 31.8235,39.1176C 31.8235,42.2917 32.0275,44.4699 32.4354,45.6521C 32.8433,46.8343 33.5004,47.751 34.4066,48.4022C 35.3128,49.0533 36.5722,49.3789 38.1848,49.3789C 39.7399,49.3789 40.9917,48.9856 41.9404,48.199C 42.889,47.4124 43.4989,46.3848 43.7699,45.1164C 44.041,43.848 44.1765,41.7914 44.1765,38.9467L 44.1765,27.8033L 41.2854,27.8033L 41.2854,39.6117C 41.2854,41.7391 41.195,43.1253 41.0143,43.7703C 40.8336,44.4153 40.4989,44.9202 40.0102,45.285C 39.5215,45.6498 38.8884,45.8322 38.1109,45.8322C 37.1965,45.8322 36.4593,45.5752 35.8994,45.061C 35.3395,44.5469 34.9857,43.8188 34.8378,42.8767L 34.7146,39.3669L 34.7146,27.8033L 31.8235,27.8033 Z "/>
</svg>
