<?xml version="1.0" encoding="utf-8"?>
<!DOCTYPE svg PUBLIC "-//W3C//DTD SVG 1.1//EN" "http://www.w3.org/Graphics/SVG/1.1/DTD/svg11.dtd">
<svg xmlns="http://www.w3.org/2000/svg" xmlns:xlink="http://www.w3.org/1999/xlink" version="1.1" baseProfile="full" width="76" height="76" viewBox="0 0 76.00 76.00" enable-background="new 0 0 76.00 76.00" xml:space="preserve">
	<path fill="#000000" fill-opacity="1" stroke-width="0.2" stroke-linejoin="round" d="M 58.5833,55.4167L 53.8333,55.4167L 53.8333,50.6667L 58.5833,50.6667L 58.5833,55.4167 Z M 49.0833,55.4167L 44.3333,55.4167L 44.3333,49.0833L 49.0833,50.6667L 49.0833,55.4167 Z M 39.5833,55.4167L 34.8333,55.4167L 34.8333,52.25L 39.5833,47.5L 39.5833,55.4167 Z M 30.0833,55.4167L 25.3333,55.4167L 25.3333,41.1667L 28.5,38L 30.0833,45.9167L 30.0833,55.4167 Z M 20.5833,55.4167L 15.8333,55.4167L 15.8333,33.25L 20.5833,38L 20.5833,55.4167 Z "/>
	<path fill="#000000" fill-opacity="1" stroke-width="0.2" stroke-linejoin="round" d="M 15.8332,20.5831L 15.8332,27.8932L 25.3332,36.4164L 30.0832,31.6664L 34.8332,47.4997L 44.3331,36.4164L 50.6664,42.7497L 45.9164,47.4997L 58.583,47.4997L 58.583,34.8331L 53.8331,39.5831L 44.3331,30.0831L 36.4165,39.5831L 31.6665,23.7498L 25.3332,30.0831L 15.8332,20.5831 Z "/>
</svg>
