<?xml version="1.0" encoding="utf-8"?>
<!DOCTYPE svg PUBLIC "-//W3C//DTD SVG 1.1//EN" "http://www.w3.org/Graphics/SVG/1.1/DTD/svg11.dtd">
<svg xmlns="http://www.w3.org/2000/svg" xmlns:xlink="http://www.w3.org/1999/xlink" version="1.1" baseProfile="full" width="76" height="76" viewBox="0 0 76.00 76.00" enable-background="new 0 0 76.00 76.00" xml:space="preserve">
	<path fill="#000000" fill-opacity="1" stroke-linejoin="round" d="M 21.3,17L 46.7,17C 47.418,17 48,17.5821 48,18.3L 48,24.7C 48,25.418 47.418,26 46.7,26L 31.3,26C 30.0298,26 29,27.0298 29,28.3L 29,49.7C 29,50.418 28.418,51 27.7,51L 21.3,51C 20.582,51 20,50.418 20,49.7L 20,18.3C 20,17.582 20.582,17 21.3,17 Z M 33.3,29L 54.7,29C 55.418,29 56,29.5821 56,30.3L 56,57.7C 56,58.418 55.418,59 54.7,59L 33.3,59C 32.582,59 32,58.418 32,57.7L 32,30.3C 32,29.5821 32.582,29 33.3,29 Z M 46.8012,33.8669L 45.59,33.8669L 44.2224,34.7694L 42.9102,35.4858L 41.5941,36.0677L 40.2067,36.5625L 40.2067,39.0127C 40.9746,38.8148 41.6574,38.5859 42.2551,38.3259C 42.8528,38.066 43.4116,37.75 43.9314,37.3779L 43.9314,52L 46.8012,52L 46.8012,33.8669 Z "/>
</svg>
