<?xml version="1.0" encoding="utf-8"?>
<!DOCTYPE svg PUBLIC "-//W3C//DTD SVG 1.1//EN" "http://www.w3.org/Graphics/SVG/1.1/DTD/svg11.dtd">
<svg xmlns="http://www.w3.org/2000/svg" xmlns:xlink="http://www.w3.org/1999/xlink" version="1.1" baseProfile="full" width="76" height="76" viewBox="0 0 76.00 76.00" enable-background="new 0 0 76.00 76.00" xml:space="preserve">
	<path fill="#000000" fill-opacity="1" stroke-width="0.2" stroke-linejoin="round" d="M 38,38L 51.416,38C 52.1876,36.2341 53.9497,35 56,35C 58.7614,35 61,37.2386 61,40C 61,42.7614 58.7614,45 56,45C 53.9497,45 52.1876,43.7659 51.416,42L 36.8284,42L 25.8284,53L 34,53L 30,57L 19,57L 19,46L 23,42L 23,50.1716L 34,39.1716L 34,24.584C 32.2341,23.8124 31,22.0503 31,20C 31,17.2386 33.2386,15 36,15C 38.7614,15 41,17.2386 41,20C 41,22.0503 39.7659,23.8124 38,24.584L 38,38 Z "/>
</svg>
