<?xml version="1.0" encoding="utf-8"?>
<!DOCTYPE svg PUBLIC "-//W3C//DTD SVG 1.1//EN" "http://www.w3.org/Graphics/SVG/1.1/DTD/svg11.dtd">
<svg xmlns="http://www.w3.org/2000/svg" xmlns:xlink="http://www.w3.org/1999/xlink" version="1.1" baseProfile="full" width="76" height="76" viewBox="0 0 76.00 76.00" enable-background="new 0 0 76.00 76.00" xml:space="preserve">
	<path fill="#000000" fill-opacity="1" stroke-width="0.2" stroke-linejoin="round" d="M 39.5639,54.473L 44.627,49.5464C 43.9733,48.4147 43.8398,47.1012 43.8398,45.7004C 43.8398,41.4476 47.0468,38 51.2996,38C 55.5524,38 59,41.4476 59,45.7004C 59,49.9532 55.5524,53.1602 51.2996,53.1602C 49.9706,53.1602 48.7203,53.0641 47.6292,52.4715L 42.527,57.4361C 41.7752,58.1879 40.3157,58.1879 39.5639,57.4361C 38.8121,56.6844 38.8121,55.2248 39.5639,54.473 Z M 51.2996,40.8877C 48.6416,40.8877 46.4868,43.0424 46.4868,45.7004C 46.4868,48.3584 48.6416,50.5131 51.2996,50.5131C 53.9576,50.5131 56.1123,48.3584 56.1123,45.7004C 56.1123,43.0424 53.9576,40.8877 51.2996,40.8877 Z M 36,16C 40.3723,16 43.9167,19.5444 43.9167,23.9167C 43.9167,28.2889 40.3723,31.8333 36,31.8333C 31.6278,31.8333 28.0833,28.2889 28.0833,23.9167C 28.0833,19.5444 31.6278,16 36,16 Z M 28.0833,42.9167C 27.0278,43.4445 24.9167,47.6666 24.9167,47.6666C 24.9167,47.6666 23.8611,49.2499 23.3333,55.5833L 18.5833,53.9999L 20.1667,46.0834C 20.1667,46.0834 23.3333,35 29.6666,35.0001L 42.3332,35.0001C 44.2958,35.0001 45.9544,36.0644 47.3088,37.5334C 44.4493,39.0409 42.5,42.0428 42.5,45.5C 42.5,46.6993 42.7345,47.8437 43.1603,48.89L 38.8431,53.2072C 37.4763,54.574 37.4763,57.2901 38.8431,58.6569C 39.1865,59.0003 38.0589,58.75 36.7917,58.75C 33.4528,58.75 30.2927,57.9845 27.4774,56.6193L 28.0833,42.9167 Z "/>
</svg>
