<?xml version="1.0" encoding="utf-8"?>
<!DOCTYPE svg PUBLIC "-//W3C//DTD SVG 1.1//EN" "http://www.w3.org/Graphics/SVG/1.1/DTD/svg11.dtd">
<svg xmlns="http://www.w3.org/2000/svg" xmlns:xlink="http://www.w3.org/1999/xlink" version="1.1" baseProfile="full" width="76" height="76" viewBox="0 0 76.00 76.00" enable-background="new 0 0 76.00 76.00" xml:space="preserve">
	<path fill="#000000" fill-opacity="1" stroke-width="0.2" stroke-linejoin="round" d="M 23.75,18.9999L 53.8333,19L 53.8333,57L 23.75,57L 23.75,55.4167C 22.0011,55.4167 20.5833,54.3533 20.5833,53.0417C 20.5833,52.4334 20.8882,51.8785 21.3897,51.4583C 20.8882,51.0382 20.5833,50.4833 20.5833,49.875C 20.5833,49.2667 20.8882,48.7118 21.3897,48.2917C 20.8882,47.8715 20.5833,47.3166 20.5833,46.7083C 20.5833,46.1001 20.8882,45.5452 21.3897,45.125C 20.8882,44.7048 20.5833,44.1499 20.5833,43.5417C 20.5833,42.9334 20.8882,42.3785 21.3897,41.9583C 20.8882,41.5381 20.5833,40.9833 20.5833,40.375C 20.5833,39.7667 20.8882,39.2118 21.3897,38.7917C 20.8882,38.3715 20.5833,37.8166 20.5833,37.2083C 20.5833,36.6 20.8882,36.0452 21.3897,35.625C 20.8882,35.2048 20.5833,34.6499 20.5833,34.0417C 20.5833,33.4334 20.8882,32.8785 21.3897,32.4583C 20.8882,32.0381 20.5833,31.4833 20.5833,30.875C 20.5833,30.2667 20.8882,29.7118 21.3897,29.2917C 20.8882,28.8715 20.5833,28.3166 20.5833,27.7083C 20.5833,27.1001 20.8882,26.5452 21.3897,26.125C 20.8882,25.7048 20.5833,25.1499 20.5833,24.5417C 20.5833,23.23 22.0011,22.1667 23.75,22.1667L 23.75,18.9999 Z M 23.75,23.75C 22.8755,23.75 22.1666,24.1045 22.1666,24.5417C 22.1666,24.9789 22.8755,25.3334 23.75,25.3334C 24.6244,25.3334 25.3333,24.9789 25.3333,24.5417C 25.3333,24.1045 24.6244,23.75 23.75,23.75 Z M 23.75,26.9167C 22.8755,26.9167 22.1666,27.2712 22.1666,27.7084C 22.1666,28.1456 22.8755,28.5 23.75,28.5C 24.6244,28.5 25.3333,28.1456 25.3333,27.7084C 25.3333,27.2712 24.6244,26.9167 23.75,26.9167 Z M 23.75,30.0834C 22.8755,30.0834 22.1666,30.4378 22.1666,30.875C 22.1666,31.3123 22.8755,31.6667 23.75,31.6667C 24.6244,31.6667 25.3333,31.3123 25.3333,30.875C 25.3333,30.4378 24.6244,30.0834 23.75,30.0834 Z M 23.75,33.25C 22.8755,33.25 22.1666,33.6045 22.1666,34.0417C 22.1666,34.4789 22.8755,34.8334 23.75,34.8334C 24.6244,34.8334 25.3333,34.4789 25.3333,34.0417C 25.3333,33.6045 24.6244,33.25 23.75,33.25 Z M 23.75,36.4167C 22.8755,36.4167 22.1666,36.7711 22.1666,37.2084C 22.1666,37.6456 22.8755,38 23.75,38C 24.6244,38 25.3333,37.6456 25.3333,37.2084C 25.3333,36.7711 24.6244,36.4167 23.75,36.4167 Z M 23.75,39.5834C 22.8755,39.5834 22.1667,39.9378 22.1667,40.375C 22.1667,40.8123 22.8755,41.1667 23.75,41.1667C 24.6244,41.1667 25.3333,40.8123 25.3333,40.375C 25.3333,39.9378 24.6244,39.5834 23.75,39.5834 Z M 23.75,42.75C 22.8755,42.75 22.1667,43.1045 22.1667,43.5417C 22.1667,43.9789 22.8755,44.3334 23.75,44.3334C 24.6244,44.3334 25.3333,43.9789 25.3333,43.5417C 25.3333,43.1045 24.6244,42.75 23.75,42.75 Z M 23.75,45.9167C 22.8755,45.9167 22.1667,46.2711 22.1667,46.7083C 22.1667,47.1456 22.8755,47.5 23.75,47.5C 24.6244,47.5 25.3333,47.1456 25.3333,46.7083C 25.3333,46.2711 24.6244,45.9167 23.75,45.9167 Z M 23.75,49.0833C 22.8755,49.0833 22.1667,49.4378 22.1667,49.875C 22.1667,50.3122 22.8755,50.6667 23.75,50.6667C 24.6244,50.6667 25.3333,50.3122 25.3333,49.875C 25.3333,49.4378 24.6244,49.0833 23.75,49.0833 Z M 23.75,52.25C 22.8755,52.25 22.1667,52.6045 22.1667,53.0417C 22.1667,53.4789 22.8755,53.8333 23.75,53.8333C 24.6244,53.8333 25.3333,53.4789 25.3333,53.0417C 25.3333,52.6045 24.6244,52.25 23.75,52.25 Z M 30.0833,25.3333L 30.0833,28.5L 47.5,28.5L 47.5,25.3334L 30.0833,25.3333 Z M 33.25,31.6667L 33.25,33.25L 44.3333,33.25L 44.3333,31.6667L 33.25,31.6667 Z "/>
</svg>
