<?xml version="1.0" encoding="utf-8"?>
<!DOCTYPE svg PUBLIC "-//W3C//DTD SVG 1.1//EN" "http://www.w3.org/Graphics/SVG/1.1/DTD/svg11.dtd">
<svg xmlns="http://www.w3.org/2000/svg" xmlns:xlink="http://www.w3.org/1999/xlink" version="1.1" baseProfile="full" width="76" height="76" viewBox="0 0 76.00 76.00" enable-background="new 0 0 76.00 76.00" xml:space="preserve">
	<path fill="#000000" fill-opacity="1" stroke-width="0.2" stroke-linejoin="round" d="M 28.9081,44.8238C 28.9081,43.5688 29.9369,42.5434 31.2096,42.5434L 44.7517,42.5434C 46.016,42.5434 47.0426,43.5688 47.0426,44.8238C 47.0426,46.0623 46.016,47.1037 44.7517,47.1037L 31.2096,47.1037C 29.9369,47.1037 28.9081,46.0623 28.9081,44.8238 Z M 31.2096,28.8269L 37.874,28.8269C 39.1467,28.8269 40.1771,29.8597 40.1771,31.1156C 40.1771,32.3656 39.1467,33.4074 37.874,33.4074L 31.2096,33.4074C 29.9369,33.4074 28.9081,32.3656 28.9081,31.1156C 28.9081,29.8597 29.9369,28.8269 31.2096,28.8269 Z M 44.868,56.9642C 51.4806,56.9642 56.8529,51.5776 56.89,45.0008L 56.9642,35.3172L 56.8529,34.7905L 56.5352,34.1276L 55.9979,33.712C 55.3,33.1642 51.7638,33.7491 50.8114,32.8843C 50.1367,32.2674 50.0313,31.1523 49.8261,29.6419C 49.4468,26.7159 49.2074,26.5634 48.7489,25.5714C 47.0839,22.0486 42.5666,19.4021 39.4628,19.0358L 31.0562,19.0358C 24.4427,19.0358 19.0358,24.4314 19.0358,31.0204L 19.0358,45.0008C 19.0358,51.5776 24.4427,56.9642 31.0562,56.9642L 44.868,56.9642 Z "/>
</svg>
