<?xml version="1.0" encoding="utf-8"?>
<!DOCTYPE svg PUBLIC "-//W3C//DTD SVG 1.1//EN" "http://www.w3.org/Graphics/SVG/1.1/DTD/svg11.dtd">
<svg xmlns="http://www.w3.org/2000/svg" xmlns:xlink="http://www.w3.org/1999/xlink" version="1.1" baseProfile="full" width="76" height="76" viewBox="0 0 76.00 76.00" enable-background="new 0 0 76.00 76.00" xml:space="preserve">
	<path fill="#000000" fill-opacity="1" stroke-width="0.2" stroke-linejoin="round" d="M 22.1667,57C 22.1667,55.2511 20.7489,53.8333 19,53.8333L 19,50.6667C 20.7489,50.6667 22.1667,49.2489 22.1667,47.5C 22.1667,45.7511 20.7489,44.3333 19,44.3333L 19,41.1667C 20.7489,41.1667 22.1667,39.7489 22.1667,38C 22.1667,36.2511 20.7489,34.8333 19,34.8333L 19,31.6667C 20.7489,31.6667 22.1667,30.2489 22.1667,28.5C 22.1667,26.7511 20.7489,25.3333 19,25.3333L 19,22.1667C 20.7489,22.1667 22.1667,20.7489 22.1667,19L 25.3333,19C 25.3333,20.7489 26.7511,22.1667 28.5,22.1667C 30.2489,22.1667 31.6667,20.7489 31.6667,19L 34.8333,19C 34.8333,20.7489 36.2511,22.1667 38,22.1667C 39.7489,22.1667 41.1667,20.7489 41.1667,19L 44.3333,19C 44.3333,20.7489 45.7511,22.1667 47.5,22.1667C 49.2489,22.1667 50.6667,20.7489 50.6667,19L 53.8333,19C 53.8333,20.7489 55.2511,22.1667 57,22.1667L 57,25.3333C 55.2511,25.3333 53.8333,26.7511 53.8333,28.5C 53.8333,30.2489 55.2511,31.6667 57,31.6667L 57,34.8333C 55.2511,34.8333 53.8333,36.2511 53.8333,38C 53.8333,39.7489 55.2511,41.1667 57,41.1667L 57,44.3333C 55.2511,44.3333 53.8333,45.7511 53.8333,47.5C 53.8333,49.2489 55.2511,50.6667 57,50.6667L 57,53.8333C 55.2511,53.8333 53.8333,55.2511 53.8333,57L 50.6667,57C 50.6667,55.2511 49.2489,53.8333 47.5,53.8333C 45.7511,53.8333 44.3333,55.2511 44.3333,57L 41.1667,57C 41.1667,55.2511 39.7489,53.8333 38,53.8333C 36.2511,53.8333 34.8333,55.2511 34.8333,57L 31.6667,57C 31.6667,55.2511 30.2489,53.8333 28.5,53.8333C 26.7511,53.8333 25.3333,55.2511 25.3333,57L 22.1667,57 Z M 39.8783,38.0076C 39.7118,39.0082 39.3679,39.8351 38.8467,40.4882C 38.3255,41.1413 37.7559,41.4796 37.138,41.5031C 36.6054,41.4963 36.2038,41.3132 35.9331,40.9538C 35.6624,40.5944 35.5268,40.0998 35.5261,39.4699C 35.5516,38.1711 35.9197,37.0794 36.6303,36.1948C 37.3409,35.3101 38.2409,34.8497 39.3303,34.8135L 40.3297,34.9442L 39.8783,38.0076 Z M 42.6186,46.2654C 41.9611,46.5692 41.2209,46.8011 40.3982,46.9611C 39.5754,47.1212 38.7466,47.2019 37.9118,47.2031C 35.5141,47.1954 33.5734,46.5 32.0897,45.1169C 30.606,43.7339 29.8423,41.7094 29.7985,39.0436C 29.873,35.9091 30.7843,33.4768 32.5322,31.7465C 34.2801,30.0163 36.4171,29.1386 38.9434,29.1136C 41.4507,29.1559 43.3596,29.8494 44.6701,31.1942C 45.9806,32.5389 46.6402,34.2809 46.649,36.42C 46.6053,38.2764 46.2573,39.6535 45.605,40.5514C 44.9527,41.4493 44.2581,41.8813 43.5213,41.8474C 42.6401,41.8474 42.3715,40.9117 42.7153,39.0401L 43.6825,33.0774C 43.2587,32.8663 42.6959,32.6887 41.994,32.5447C 41.2921,32.4007 40.5762,32.3257 39.8461,32.3198C 37.5104,32.3827 35.6906,33.1303 34.3865,34.5627C 33.0825,35.9951 32.42,37.735 32.399,39.7823C 32.4194,41.1417 32.7502,42.1824 33.3916,42.9043C 34.0329,43.6262 34.8626,43.9904 35.8807,43.9969C 37.6324,43.9764 39.0294,43.1861 40.0718,41.6261L 40.1362,41.6261C 40.2276,42.4025 40.5204,42.9869 41.0147,43.3795C 41.5091,43.772 42.1404,43.9686 42.9088,43.9692C 44.6786,43.946 46.1,43.2603 47.1731,41.9121C 48.2461,40.5638 48.7971,38.6923 48.8261,36.2974C 48.7844,33.5948 47.9043,31.4229 46.1858,29.7817C 44.4673,28.1406 42.1606,27.2977 39.2658,27.2531C 35.6518,27.3452 32.7767,28.5303 30.6404,30.8086C 28.5041,33.0869 27.4106,35.906 27.36,39.266C 27.4462,42.3859 28.4442,44.7936 30.354,46.4891C 32.2638,48.1845 34.5681,49.0427 37.267,49.0635C 38.4088,49.0692 39.4458,48.9904 40.378,48.8272C 41.3103,48.6641 42.2506,48.3828 43.1989,47.9833L 42.6186,46.2654 Z "/>
</svg>
