<?xml version="1.0" encoding="utf-8"?>
<!DOCTYPE svg PUBLIC "-//W3C//DTD SVG 1.1//EN" "http://www.w3.org/Graphics/SVG/1.1/DTD/svg11.dtd">
<svg xmlns="http://www.w3.org/2000/svg" xmlns:xlink="http://www.w3.org/1999/xlink" version="1.1" baseProfile="full" width="76" height="76" viewBox="0 0 76.00 76.00" enable-background="new 0 0 76.00 76.00" xml:space="preserve">
	<path fill="#000000" fill-opacity="1" stroke-width="0.2" stroke-linejoin="round" d="M 21.375,17.4167L 54.625,17.4167C 56.8111,17.4167 58.5833,19.1889 58.5833,21.375L 58.5833,54.625C 58.5833,56.8111 56.8111,58.5833 54.625,58.5833L 21.375,58.5833C 21.0201,58.5833 20.6762,58.5366 20.3489,58.4491L 20.4629,58.3098L 27.2012,50.4534L 28.8878,48.4054L 29.3433,47.9838L 29.4035,47.8031C 31.1159,47.9435 32.6192,49.0146 34.2223,49.6327C 36.7006,50.5883 39.1111,51.7112 41.552,52.7586L 44.5003,54.0237L 45.09,54.2767L 45.6797,54.5298L 46.2693,54.7828L 46.5705,54.6548L 46.6947,54.3084L 46.9959,53.7964C 47.4065,53.0985 47.7068,52.3407 48.0293,51.5979L 48.2734,51.0357L 48.5175,50.4735L 48.7616,49.9113L 48.8331,49.6703L 48.6787,49.4896L 48.1366,49.2224L 47.5945,48.8666C 46.7714,48.3264 45.9598,47.7538 45.2453,47.0765C 44.2245,46.1087 43.4156,44.9344 42.6013,43.7874L 41.7429,42.3217C 41.583,42.0147 41.4101,41.6041 41.571,41.2977C 42.2079,41.4022 42.5849,42.1146 42.9828,42.6228C 43.571,43.3744 44.2887,44.017 44.9874,44.6671L 46.5103,45.9471L 47.5945,46.7866L 47.8957,47.0802L 48.1968,47.3739L 48.4378,47.3852L 48.9197,47.8558L 49.2811,47.8746L 49.4618,47.7428C 49.6462,47.3194 49.6102,46.8311 49.6964,46.3775C 49.9266,45.1673 49.9675,43.902 49.7893,42.6831C 49.7022,42.0868 49.9165,41.4523 49.7404,40.876L 49.5408,40.6351L 49.5201,40.093L 49.4994,39.5509L 49.2999,39.3099L 49.2792,38.8883L 49.2585,38.4666L 48.5043,36.1978L 48.311,35.6757C 48.2466,35.5017 48.2538,35.2799 48.1178,35.1537C 47.9743,35.0205 47.7444,35.0355 47.5577,34.9763L 45.8774,34.4443L 43.637,33.7348L 43.0769,33.5575C 42.9105,33.4913 42.6881,33.4732 42.595,33.3203C 42.5154,33.1895 42.6351,33.0166 42.6552,32.8648C 43.7166,32.9522 44.7554,33.22 45.8025,33.4144L 47.4941,33.7507C 48.2382,33.9031 49.0209,34.122 49.763,33.9603C 50.0437,33.8991 50.0847,33.453 50.098,33.166C 50.1705,31.602 49.7993,30.0297 49.3571,28.5278C 48.9967,27.3037 48.7143,25.9833 47.9333,24.974C 47.4929,24.4048 46.6392,24.3262 45.9481,24.1257C 44.5141,23.7096 43.0551,23.3376 41.571,23.1745L 41.0289,23.1594L 40.4868,23.1443L 40.2458,22.9448C 39.6694,22.7694 39.0169,23.0693 38.4388,22.8996L 38.1978,22.7076C 37.6293,22.5688 37.0275,22.6883 36.4424,22.6786C 35.5413,22.6637 34.6268,22.6156 33.7404,22.7792C 32.8357,22.9461 31.7747,22.7587 31.0299,23.2987L 33.2586,23.7505C 33.9415,23.8751 34.7899,23.8486 35.2463,24.3716C 34.9947,24.8877 34.1114,24.621 33.5381,24.5909C 32.6328,24.5434 31.7331,24.3846 30.8492,24.1834C 30.0604,24.0039 29.2449,23.9714 28.4398,23.8935L 27.8976,23.8785L 27.3555,23.8634L 27.1146,23.6714C 26.5702,23.5302 25.9615,23.4445 25.428,23.6225C 25.0382,23.7525 24.8652,24.2236 24.6186,24.5523C 24.2824,25.0007 23.8979,25.4275 23.6661,25.9377C 23.3585,26.6148 23.2976,27.4723 23.5645,28.1664C 24.1515,29.6933 25.6714,30.7845 27.1146,31.5547L 29.7649,32.8685C 30.237,33.109 30.8617,33.2035 31.1503,33.6478C 31.2277,33.7669 31.1102,33.9289 31.0901,34.0695C 29.5428,33.883 28.1633,32.9973 26.6929,32.4808L 26.2412,32.2907L 25.7894,32.1005L 17.4167,35.3466L 17.4167,21.375C 17.4167,19.1889 19.1889,17.4167 21.375,17.4167 Z "/>
</svg>
