<?xml version="1.0" encoding="utf-8"?>
<!DOCTYPE svg PUBLIC "-//W3C//DTD SVG 1.1//EN" "http://www.w3.org/Graphics/SVG/1.1/DTD/svg11.dtd">
<svg xmlns="http://www.w3.org/2000/svg" xmlns:xlink="http://www.w3.org/1999/xlink" version="1.1" baseProfile="full" width="76" height="76" viewBox="0 0 76.00 76.00" enable-background="new 0 0 76.00 76.00" xml:space="preserve">
	<path fill="#000000" fill-opacity="1" stroke-width="0.2" stroke-linejoin="round" d="M 36.3069,56.4426C 34.0702,58.5195 30.0833,62.75 32.7881,62.0168C 37.1473,59.3959 39.8714,50.9915 42.094,45.3712C 39.5065,39.6288 42.0013,35.1728 43.9683,35.0417C 46.3648,34.8819 46.9895,39.4244 46.9895,39.4244C 46.9895,39.4244 44.3333,37.4167 43.9284,36.1928C 43.4703,36.3073 42.9792,40.0292 44.3333,44.1458C 45.9167,42.1667 46.7083,40.1875 46.7083,40.1875C 46.7083,40.1875 48.6875,42.1667 45.7172,45.205C 46.2479,46.3813 49.1405,51.1227 50.4509,51.9807C 58.75,49.75 59.1457,54.1261 59.1457,54.1261C 57.8643,52.9561 55.0287,52.8353 51.8787,53.1741C 55.8527,55.2618 59.2167,54.5712 59.2167,54.5712C 59.2167,56.206 53.8333,58 49.8596,54.2353C 45.6983,54.888 41.4481,56.8904 39.7663,57.3957C 35.2719,65.2481 30.3574,64.6256 29.6875,62.75C 28.5,59.5833 36.3069,56.4426 36.3069,56.4426 Z M 43.9949,46.8185L 41.0559,54.9219C 42.7814,54.4274 44.6885,53.4792 48.1081,52.8076C 47,52 46,51 43.9949,46.8185 Z M 20,17L 43.25,17L 56,29.75L 56,50L 52,50.25L 52,34L 39,34L 39,21L 24,21L 24,55L 34.5,55L 30,59L 20,59L 20,17 Z M 40,59L 40,58.5L 49,55.5L 56,59L 40,59 Z M 43,22.25L 43,30L 50.75,30L 43,22.25 Z "/>
</svg>
