<?xml version="1.0" encoding="utf-8"?>
<!DOCTYPE svg PUBLIC "-//W3C//DTD SVG 1.1//EN" "http://www.w3.org/Graphics/SVG/1.1/DTD/svg11.dtd">
<svg xmlns="http://www.w3.org/2000/svg" xmlns:xlink="http://www.w3.org/1999/xlink" version="1.1" baseProfile="full" width="76" height="76" viewBox="0 0 76.00 76.00" enable-background="new 0 0 76.00 76.00" xml:space="preserve">
	<path fill="#000000" fill-opacity="1" stroke-width="0.2" stroke-linejoin="round" d="M 20,17L 44,17L 56,29L 56,45.1515C 57.8558,47.0453 59,49.639 59,52.5C 59,58.299 54.299,63 48.5,63C 45.1554,63 42.1761,61.4363 40.2532,59L 20,59L 20,17 Z M 24,21L 24,55L 38.2994,55C 38.1038,54.1988 38,53.3615 38,52.5C 38,46.701 42.701,42 48.5,42C 49.7272,42 50.9053,42.2106 52,42.5975L 52,34L 39,34L 39,21L 24,21 Z M 43,21L 43,30L 52,30L 43,21 Z M 53.0458,54.2725C 53.0458,53.7525 52.9729,53.2787 52.8271,52.8512C 52.6812,52.4237 52.4754,52.0579 52.2096,51.7537C 51.9437,51.4496 51.6233,51.2142 51.2483,51.0475C 50.8733,50.8808 50.4541,50.7975 49.9908,50.7975C 48.9541,50.7975 48.17,51.1642 47.6383,51.8975L 47.5933,51.8975C 47.6033,51.3825 47.6771,50.9154 47.8146,50.4962C 47.9521,50.0771 48.1421,49.7192 48.3846,49.4225C 48.6271,49.1258 48.9175,48.8967 49.2558,48.735C 49.5941,48.5733 49.9716,48.4925 50.3883,48.4925C 51.06,48.4925 51.68,48.6542 52.2483,48.9775L 52.2483,46.915C 51.77,46.7117 51.0983,46.61 50.2333,46.61C 49.4516,46.61 48.7483,46.7621 48.1233,47.0662C 47.4983,47.3704 46.9658,47.8012 46.5258,48.3587C 46.0858,48.9162 45.7475,49.5871 45.5108,50.3712C 45.2741,51.1554 45.1558,52.0292 45.1558,52.9925C 45.1558,53.8092 45.2466,54.5404 45.4283,55.1862C 45.61,55.8321 45.8729,56.3779 46.2171,56.8237C 46.5612,57.2696 46.9821,57.6096 47.4796,57.8437C 47.9771,58.0779 48.5408,58.195 49.1708,58.195C 49.7325,58.195 50.2504,58.0946 50.7246,57.8937C 51.1987,57.6929 51.6079,57.4171 51.9521,57.0662C 52.2962,56.7154 52.5645,56.3004 52.7571,55.8212C 52.9496,55.3421 53.0458,54.8258 53.0458,54.2725 Z M 50.6308,54.43L 50.5295,55.1912C 50.462,55.4237 50.3645,55.6217 50.237,55.785C 50.1095,55.9483 49.9558,56.0758 49.7758,56.1675C 49.5958,56.2592 49.3941,56.305 49.1708,56.305C 48.9458,56.305 48.7425,56.2529 48.5608,56.1487C 48.3791,56.0446 48.2216,55.9025 48.0883,55.7225L 47.7795,55.0937L 47.6708,54.32L 47.7758,53.6362L 48.0758,53.1012C 48.2058,52.9504 48.362,52.8333 48.5445,52.75C 48.727,52.6667 48.9308,52.625 49.1558,52.625C 50.1391,52.625 50.6308,53.2267 50.6308,54.43 Z "/>
</svg>
