<?xml version="1.0" encoding="utf-8"?>
<!DOCTYPE svg PUBLIC "-//W3C//DTD SVG 1.1//EN" "http://www.w3.org/Graphics/SVG/1.1/DTD/svg11.dtd">
<svg xmlns="http://www.w3.org/2000/svg" xmlns:xlink="http://www.w3.org/1999/xlink" version="1.1" baseProfile="full" width="76" height="76" viewBox="0 0 76.00 76.00" enable-background="new 0 0 76.00 76.00" xml:space="preserve">
	<path fill="#000000" fill-opacity="1" stroke-width="0.2" stroke-linejoin="round" d="M 24,20L 27,20L 27,26L 24,26L 24,20 Z M 15.0784,24.5239L 17.1998,22.4026L 21.4424,26.6452L 19.3211,28.7665L 15.0784,24.5239 Z M 11.9687,34.0313L 11.9687,31.0313L 17.9687,31.0313L 17.9687,34.0313L 11.9687,34.0313 Z M 33.5074,23.1096L 35.6287,25.231L 31.386,29.4736L 29.2647,27.3523L 33.5074,23.1096 Z M 16.3208,42.8028L 14.2368,40.6448L 18.5529,36.4768L 20.6369,38.6348L 16.3208,42.8028 Z M 31.2322,40.1274L 27.8446,36.8697L 27.8446,43.2725L 31.2322,40.1274 Z M 23,32.1892L 28.5135,30.3514L 35.5911,36.0591L 50.5676,22.0811L 57,26.6757L 57,53.3243L 48.7297,57L 35.4447,44.1894L 27.5946,50.5676L 23,47.8108L 23,32.1892 Z M 40.5396,40.0498L 48.9797,46.9048L 48.9797,33.1453L 40.5396,40.0498 Z "/>
</svg>
