<?xml version="1.0" encoding="utf-8"?>
<!DOCTYPE svg PUBLIC "-//W3C//DTD SVG 1.1//EN" "http://www.w3.org/Graphics/SVG/1.1/DTD/svg11.dtd">
<svg xmlns="http://www.w3.org/2000/svg" xmlns:xlink="http://www.w3.org/1999/xlink" version="1.1" baseProfile="full" width="76" height="76" viewBox="0 0 76.00 76.00" enable-background="new 0 0 76.00 76.00" xml:space="preserve">
	<path fill="#000000" fill-opacity="1" stroke-width="0.2" stroke-linejoin="round" d="M 22.9583,38C 25.1445,38 26.9167,39.7722 26.9167,41.9583C 26.9167,44.1445 25.1445,45.9167 22.9583,45.9167C 20.7722,45.9167 19,44.1445 19,41.9583C 19,39.7722 20.7722,38 22.9583,38 Z M 49.875,38C 52.0611,38 53.8333,39.7722 53.8333,41.9583C 53.8333,44.1445 52.0611,45.9167 49.875,45.9167C 47.6889,45.9167 45.9167,44.1445 45.9167,41.9583C 45.9167,39.7722 47.6889,38 49.875,38 Z M 61.75,41.1667L 55.3605,41.1667C 54.9764,38.4811 52.6668,36.4167 49.875,36.4167C 47.0832,36.4167 44.7736,38.4811 44.3894,41.1667L 28.4439,41.1667C 28.0597,38.4811 25.7501,36.4167 22.9583,36.4167C 20.1665,36.4167 17.8569,38.4811 17.4728,41.1667L 14.25,41.1667L 14.25,23.75C 14.25,22.0011 15.6678,20.5833 17.4167,20.5833L 57.7917,20.5833C 59.5406,20.5833 60.9583,22.0011 60.9583,23.75L 61.75,41.1667 Z M 59.7708,23.75L 57,23.75L 57,34.8333L 60.1667,34.8333L 59.7708,23.75 Z M 53.8333,30.0833L 53.8333,23.75L 45.9167,23.75L 45.9167,30.0833L 53.8333,30.0833 Z M 44.3333,23.75L 36.4167,23.75L 36.4167,30.0833L 44.3333,30.0833L 44.3333,23.75 Z M 34.8333,23.75L 26.9167,23.75L 26.9167,30.0833L 34.8333,30.0833L 34.8333,23.75 Z M 25.3334,23.75L 17.4167,23.75L 17.4167,30.0833L 25.3334,30.0833L 25.3334,23.75 Z M 28.5,52.25L 41.1667,52.25L 34.8333,45.9167L 41.1667,45.9167L 49.875,53.8333L 41.1667,61.75L 34.8333,61.75L 41.1667,55.4167L 28.5,55.4167L 28.5,52.25 Z "/>
</svg>
