<?xml version="1.0" encoding="utf-8"?>
<!DOCTYPE svg PUBLIC "-//W3C//DTD SVG 1.1//EN" "http://www.w3.org/Graphics/SVG/1.1/DTD/svg11.dtd">
<svg xmlns="http://www.w3.org/2000/svg" xmlns:xlink="http://www.w3.org/1999/xlink" version="1.1" baseProfile="full" width="76" height="76" viewBox="0 0 76.00 76.00" enable-background="new 0 0 76.00 76.00" xml:space="preserve">
	<path fill="#000000" fill-opacity="1" stroke-width="0.2" stroke-linejoin="round" d="M 44.4519,26C 47.6019,26 50.1556,28.5536 50.1556,31.7037C 50.1556,34.8538 47.6019,37.4074 44.4519,37.4074C 41.3018,37.4074 38.7482,34.8538 38.7482,31.7037C 38.7482,28.5536 41.3018,26 44.4519,26 Z M 38.7481,45.3926C 37.9876,45.7729 36.4667,48.8148 36.4667,48.8148C 36.4667,48.8148 35.7062,49.9555 35.3259,54.5185L 31.9037,53.3777L 33.0444,47.6741C 33.0444,47.6741 35.3259,39.6889 39.8889,39.689L 49.0147,39.689C 53.5778,39.6889 55.8592,47.6741 55.8592,47.6741L 57,53.3778L 53.5778,54.5185C 53.1975,49.9556 52.4371,48.8148 52.4371,48.8148C 52.4371,48.8148 50.916,45.7728 50.1555,45.3926L 50.6165,55.7524C 48.8824,56.4288 46.9957,56.8 45.0222,56.8C 42.6167,56.8 40.3399,56.2484 38.3116,55.2649L 38.7481,45.3926 Z M 26,19L 26,23C 26,24.6569 24.6568,26 23,26L 19,26L 19,19L 26,19 Z M 23.4999,31L 22.9999,30.9836L 22.9999,28.9775L 23.4999,29C 26.5375,29 28.9999,26.5375 28.9999,23.5L 28.9775,23L 30.9835,23L 30.9999,23.5C 30.9999,27.6421 27.6421,31 23.4999,31 Z M 36,24C 36,30.6274 30.6274,36 24,36L 23,35.9589L 23,33.9506L 24,34C 29.5228,34 34,29.5229 34,24L 33.9506,23L 35.9589,23L 36,24 Z M 41,24L 40.9886,24.6291C 40.1998,24.9753 39.482,25.4534 38.8631,26.0354C 38.9534,25.3698 39,24.6904 39,24L 38.9672,23L 40.9711,23L 41,24 Z M 24,41L 23,40.9711L 23,38.9672L 24,39C 29.2408,39 33.8539,36.3123 36.536,32.24C 36.6214,33.1113 36.8558,33.9389 37.2135,34.6969C 34.0967,38.5421 29.3354,41 24,41 Z "/>
</svg>
