<?xml version="1.0" encoding="utf-8"?>
<!DOCTYPE svg PUBLIC "-//W3C//DTD SVG 1.1//EN" "http://www.w3.org/Graphics/SVG/1.1/DTD/svg11.dtd">
<svg xmlns="http://www.w3.org/2000/svg" xmlns:xlink="http://www.w3.org/1999/xlink" version="1.1" baseProfile="full" width="76" height="76" viewBox="0 0 76.00 76.00" enable-background="new 0 0 76.00 76.00" xml:space="preserve">
	<path fill="#000000" fill-opacity="1" stroke-width="0.2" stroke-linejoin="round" d="M 34.8333,30.0833L 41.1667,36.4167L 34.8333,42.75L 34.8333,30.0833 Z M 22.1667,19L 53.8333,19C 55.5822,19 57,20.4178 57,22.1667C 57,23.9156 55.5822,25.3333 53.8333,25.3333L 53.8333,47.5L 55.4167,47.5C 56.2911,47.5 57,48.2089 57,49.0833C 57,49.9578 56.2911,50.6667 55.4167,50.6667L 38,50.6667C 38.5278,51.7222 39.0556,52.7778 39.1215,53.8333C 39.1875,54.8889 38.7917,55.9445 38.3958,57L 36.8125,57C 37.2083,55.9445 37.6042,54.8889 37.5382,53.8333C 37.4722,52.7778 36.9444,51.7222 36.4167,50.6667L 20.5833,50.6667C 19.7089,50.6667 19,49.9578 19,49.0833C 19,48.2089 19.7089,47.5 20.5833,47.5L 22.1667,47.5L 22.1667,25.3333C 20.4178,25.3333 19,23.9156 19,22.1667C 19,20.4178 20.4178,19 22.1667,19 Z M 25.3333,25.3334L 25.3333,47.5L 50.6666,47.5L 50.6666,25.3334L 25.3333,25.3334 Z "/>
</svg>
