<?xml version="1.0" encoding="utf-8"?>
<!DOCTYPE svg PUBLIC "-//W3C//DTD SVG 1.1//EN" "http://www.w3.org/Graphics/SVG/1.1/DTD/svg11.dtd">
<svg xmlns="http://www.w3.org/2000/svg" xmlns:xlink="http://www.w3.org/1999/xlink" version="1.1" baseProfile="full" width="76" height="76" viewBox="0 0 76.00 76.00" enable-background="new 0 0 76.00 76.00" xml:space="preserve">
	<path fill="#000000" fill-opacity="1" stroke-width="0.2" stroke-linejoin="round" d="M 19,20L 33,20L 33,23L 19,23L 19,20 Z M 35,17.0001L 56.9999,17.0001L 56.9999,26.0001L 35,26.0001L 35,17.0001 Z M 37,19.0001L 37,24.0001L 54.9999,24.0001L 54.9999,19.0001L 37,19.0001 Z M 19,39L 42,39L 42,42L 19,42L 19,39 Z M 22,47L 23,47L 23,51L 22,51L 22,47 Z M 19,44L 57,44L 57,60L 19,60L 19,44 Z M 21,46L 21,58L 55,58L 55,46L 21,46 Z M 19,31L 33,31L 33,34L 19,34L 19,31 Z M 35,28L 57,28L 57,37L 35,37L 35,28 Z M 37,30L 37,35L 54.9999,35L 55,30L 37,30 Z M 38,33L 39,33L 39,34L 38,34L 38,33 Z M 38,22L 39,22L 39,23L 38,23L 38,22 Z M 40,33L 41,33L 41,34L 40,34L 40,33 Z M 42,33L 43,33L 43,34L 42,34L 42,33 Z M 40,22L 41,22L 41,23L 40,23L 40,22 Z M 42,22L 43,22L 43,23L 42,23L 42,22 Z "/>
</svg>
