<?xml version="1.0" encoding="utf-8"?>
<!DOCTYPE svg PUBLIC "-//W3C//DTD SVG 1.1//EN" "http://www.w3.org/Graphics/SVG/1.1/DTD/svg11.dtd">
<svg xmlns="http://www.w3.org/2000/svg" xmlns:xlink="http://www.w3.org/1999/xlink" version="1.1" baseProfile="full" width="76" height="76" viewBox="0 0 76.00 76.00" enable-background="new 0 0 76.00 76.00" xml:space="preserve">
	<path fill="#000000" fill-opacity="1" stroke-width="0.2" stroke-linejoin="round" d="M 41.25,40L 28,53.25L 14.75,40L 41.25,40 Z M 61.25,36L 34.75,36L 48,22.75L 61.25,36 Z M 27.9079,36L 27.1281,32.7344L 21.8358,32.7344L 20.9927,36L 15.25,36L 21.25,18L 27.75,18L 33.75,36L 27.9079,36 Z M 24.5433,22.1221L 24.4206,22.1221L 22.7502,28.9383L 26.1385,28.9383L 24.5433,22.1221 Z M 48,54L 56,54L 56,58L 42.006,58L 42.006,54.2515L 50,44L 42,44L 42,40L 56,40L 56,44L 48,54 Z "/>
</svg>
