<?xml version="1.0" encoding="utf-8"?>
<!DOCTYPE svg PUBLIC "-//W3C//DTD SVG 1.1//EN" "http://www.w3.org/Graphics/SVG/1.1/DTD/svg11.dtd">
<svg xmlns="http://www.w3.org/2000/svg" xmlns:xlink="http://www.w3.org/1999/xlink" version="1.1" baseProfile="full" width="76" height="76" viewBox="0 0 76.00 76.00" enable-background="new 0 0 76.00 76.00" xml:space="preserve">
	<path fill="#000000" fill-opacity="1" stroke-width="0.2" stroke-linejoin="round" d="M 42.75,38L 34.8333,38L 25.3333,28.5L 34.8333,19L 42.75,19L 36.4167,25.3333L 46.7083,25.3333C 54.1412,25.3333 60.1667,31.3588 60.1667,38.7917C 60.1667,46.2245 54.1412,52.25 46.7083,52.25L 46.7083,45.9167C 50.6434,45.9167 53.8333,42.7267 53.8333,38.7917C 53.8333,34.8566 50.6434,31.6667 46.7083,31.6667L 36.4167,31.6667L 42.75,38 Z M 4.74999,47.5L 30.0833,47.5L 30.0833,38L 34.8333,42.75L 34.8333,52.25L 6.33333,52.25L 4.74999,47.5 Z M 23.75,25.3334L 6.33333,25.3334L 7.91665,20.5834L 28.5,20.5834L 23.75,25.3334 Z M 26.125,34.0417L 15.0417,42.75L 3.16667,33.25L 5.14583,28.5L 15.0417,36.4167L 22.5625,30.4792L 26.125,34.0417 Z "/>
</svg>
