<?xml version="1.0" encoding="utf-8"?>
<!DOCTYPE svg PUBLIC "-//W3C//DTD SVG 1.1//EN" "http://www.w3.org/Graphics/SVG/1.1/DTD/svg11.dtd">
<svg xmlns="http://www.w3.org/2000/svg" xmlns:xlink="http://www.w3.org/1999/xlink" version="1.1" baseProfile="full" width="76" height="76" viewBox="0 0 76.00 76.00" enable-background="new 0 0 76.00 76.00" xml:space="preserve">
	<path fill="#000000" fill-opacity="1" stroke-width="0.2" stroke-linejoin="round" d="M 28.9999,47.0001L 28.9999,39L 29.9999,39L 29.9999,47.0001L 28.9999,47.0001 Z M 31,39L 34,39L 34,47L 31,47L 31,39 Z M 35,39L 36,39L 36,47L 35,47L 35,39 Z M 37,47L 37,39L 38,39L 38,47L 37,47 Z M 39,39L 41,39L 41,47L 39,47L 39,39 Z M 42,39L 42.9999,39L 42.9999,47L 42,47L 42,39 Z M 43.9999,39L 44.9999,39L 44.9999,47L 43.9999,47L 43.9999,39 Z M 45.9999,39L 46.9999,39L 46.9999,47L 45.9999,47L 45.9999,39 Z M 27.51,33.64C 27.7033,33.64 27.8,33.7354 27.8,33.9263C 27.8,34.1629 27.515,34.4544 26.945,34.8006C 26.375,35.1469 25.8237,35.32 25.2912,35.32C 24.8212,35.32 24.3885,35.1652 23.9931,34.8556C 23.5977,34.5461 23.4,34.095 23.4,33.5025C 23.4,32.8992 23.6081,32.2294 24.0244,31.4932C 24.4406,30.7569 24.9564,30.1573 25.5719,29.6944C 26.1873,29.2315 26.7875,29 27.3725,29C 27.7208,29 27.9991,29.1036 28.2075,29.3107C 28.4158,29.5177 28.52,29.76 28.52,30.0375L 28.4494,30.6838C 28.4023,30.8146 28.3014,30.9267 28.1469,31.02L 27.77,31.16L 27.51,31.0532C 27.4366,30.9819 27.4,30.8859 27.4,30.765L 27.4825,30.3963L 27.56,29.9925C 27.56,29.8109 27.4991,29.72 27.3775,29.72C 27.005,29.72 26.5873,29.9227 26.1244,30.3282C 25.6614,30.7336 25.265,31.2369 24.935,31.8382C 24.605,32.4394 24.44,32.97 24.44,33.43C 24.44,33.7359 24.5254,33.994 24.6962,34.2044C 24.8671,34.4148 25.1166,34.52 25.445,34.52L 26.1775,34.3581C 26.4716,34.2502 26.7437,34.1042 26.9937,33.92C 27.2462,33.7334 27.4183,33.64 27.51,33.64 Z M 32.7725,33.005C 32.595,33.6109 32.2577,34.1215 31.7606,34.5369C 31.2635,34.9523 30.7671,35.16 30.2712,35.16C 29.8796,35.16 29.5564,35.0196 29.3019,34.7388C 29.0473,34.4579 28.92,34.1129 28.92,33.7038C 28.92,33.0354 29.1533,32.3777 29.62,31.7307C 30.0866,31.0836 30.6525,30.76 31.3175,30.76C 31.7708,30.76 32.1379,30.9238 32.4187,31.2513C 32.6996,31.5788 32.84,31.9692 32.84,32.4225L 32.7725,33.0013L 32.7725,33.005 Z M 30.6912,31.76C 30.5054,31.9225 30.3237,32.1819 30.1462,32.5382C 29.9687,32.8944 29.88,33.2517 29.88,33.61C 29.88,33.8275 29.9204,34.0069 30.0012,34.1481C 30.0821,34.2894 30.1887,34.36 30.3212,34.36C 30.6504,34.36 30.9925,34.1675 31.3475,33.7825C 31.7025,33.3975 31.88,32.9655 31.88,32.4863C 31.88,32.2171 31.8223,31.9955 31.7069,31.8213C 31.5914,31.6471 31.4304,31.56 31.2237,31.56C 31.0279,31.56 30.8516,31.6267 30.695,31.76L 30.6912,31.76 Z M 36.28,33.5713C 36.0358,34.0329 35.7529,34.3998 35.4312,34.6719C 35.1096,34.944 34.7833,35.08 34.4525,35.08C 34.2566,35.08 34.0589,34.9754 33.8594,34.7663C 33.6598,34.5571 33.56,34.2354 33.56,33.8013C 33.56,33.4946 33.6312,33.0313 33.7737,32.4113L 33.96,31.245C 34.0616,31.0284 34.2204,30.92 34.4362,30.92C 34.5837,30.92 34.7012,30.9694 34.7887,31.0682L 34.92,31.365L 34.755,32.1413L 34.55,32.9882L 34.44,33.6888C 34.44,34.0296 34.5104,34.2 34.6512,34.2C 34.8737,34.2 35.1746,33.979 35.5537,33.5369C 35.9329,33.0948 36.18,32.6425 36.295,32.18L 36.6075,31.2907C 36.6983,31.1502 36.8271,31.08 36.9937,31.08C 37.2646,31.08 37.4,31.2325 37.4,31.5375L 37.3287,31.805C 37.1629,32.2709 37.08,32.7954 37.08,33.3788C 37.08,34.0621 37.1946,34.4708 37.4237,34.605L 37.5362,34.7688C 37.5362,34.8629 37.4698,34.9517 37.3369,35.035L 36.9525,35.16C 36.7366,35.16 36.5706,35.0163 36.4544,34.7288C 36.3381,34.4413 36.28,34.0554 36.28,33.5713 Z M 39.2837,34.7138L 39.1512,35.5363L 38.9637,37.06C 38.9329,37.3083 38.8725,37.4804 38.7825,37.5763C 38.6925,37.6721 38.5825,37.72 38.4525,37.72C 38.335,37.72 38.2235,37.6763 38.1181,37.5888C 38.0127,37.5013 37.96,37.4042 37.96,37.2975L 38.0562,36.5663C 38.4362,35.0146 38.6442,33.4046 38.68,31.7363L 38.68,31.6575L 38.71,30.96L 38.8819,30.6532C 38.9764,30.5644 39.1104,30.52 39.2837,30.52C 39.5746,30.52 39.72,30.7363 39.72,31.1688L 39.605,32.0663L 39.5587,32.3338C 39.8554,31.8354 40.2077,31.4219 40.6156,31.0932C 41.0235,30.7644 41.3887,30.6 41.7112,30.6C 42.0021,30.6 42.2496,30.7054 42.4537,30.9163C 42.6579,31.1271 42.76,31.3921 42.76,31.7113C 42.76,32.5629 42.4356,33.3373 41.7869,34.0344C 41.1381,34.7315 40.4967,35.08 39.8625,35.08C 39.5625,35.08 39.3696,34.9579 39.2837,34.7138 Z M 41.565,31.48C 41.2458,31.48 40.8319,31.7965 40.3231,32.4294C 39.8144,33.0623 39.56,33.5596 39.56,33.9213C 39.56,34.0146 39.6052,34.0977 39.6956,34.1706L 40.0112,34.28C 40.3429,34.28 40.7239,34.0148 41.1544,33.4844C 41.5848,32.954 41.8,32.4413 41.8,31.9463L 41.7256,31.5894L 41.565,31.48 Z M 47.2525,33.005C 47.075,33.6108 46.7377,34.1215 46.2406,34.5369C 45.7435,34.9523 45.2471,35.16 44.7512,35.16C 44.3596,35.16 44.0364,35.0196 43.7818,34.7388C 43.5273,34.4579 43.4,34.1129 43.4,33.7038C 43.4,33.0354 43.6333,32.3777 44.1,31.7306C 44.5666,31.0836 45.1325,30.76 45.7975,30.76C 46.2508,30.76 46.6179,30.9238 46.8987,31.2513C 47.1796,31.5788 47.32,31.9692 47.32,32.4225L 47.2525,33.0013L 47.2525,33.005 Z M 45.1712,31.76C 44.9854,31.9225 44.8037,32.1819 44.6262,32.5381C 44.4487,32.8944 44.36,33.2517 44.36,33.61C 44.36,33.8275 44.4004,34.0069 44.4812,34.1481C 44.5621,34.2894 44.6687,34.36 44.8012,34.36C 45.1304,34.36 45.4725,34.1675 45.8275,33.7825C 46.1825,33.3975 46.36,32.9654 46.36,32.4863C 46.36,32.2171 46.3023,31.9954 46.1868,31.8213C 46.0714,31.6471 45.9104,31.56 45.7037,31.56C 45.5079,31.56 45.3316,31.6267 45.175,31.76L 45.1712,31.76 Z M 51.2837,34.4438C 51.1537,34.2079 51.0591,33.7683 51,33.125C 50.9425,32.455 50.815,32.12 50.6175,32.12C 50.43,32.12 50.1058,32.4715 49.645,33.1744C 49.1841,33.8773 48.9004,34.3963 48.7937,34.7313L 48.6631,34.9813L 48.4737,35.08C 48.0779,35.08 47.88,34.8975 47.88,34.5325L 47.9837,33.6888C 48.0746,33.1213 48.12,32.4275 48.12,31.6075C 48.12,31.4833 48.1729,31.3511 48.2787,31.2106C 48.3846,31.0702 48.4966,31 48.615,31C 48.765,31 48.88,31.0379 48.96,31.1138C 49.04,31.1896 49.08,31.3913 49.08,31.7188L 48.8587,33.165C 49.4371,31.8284 50.0816,31.16 50.7925,31.16C 51.4108,31.16 51.7733,31.6354 51.88,32.5863C 51.9825,33.5554 52.1004,34.04 52.2337,34.04L 52.4362,34.0013L 52.6562,33.955C 52.7787,33.955 52.84,34.0296 52.84,34.1788C 52.84,34.3138 52.756,34.4577 52.5881,34.6106C 52.4202,34.7635 52.2087,34.84 51.9537,34.84C 51.6587,34.84 51.4475,34.7079 51.32,34.4438L 51.2837,34.4438 Z M 22,24L 54,24C 56.2091,24 58,25.7909 58,28L 58,48C 58,50.2092 56.2091,52 54,52L 22,52C 19.7909,52 18,50.2092 18,48L 18,28C 18,25.7909 19.7909,24 22,24 Z M 53.9999,27.0001L 22,27.0001C 21.4477,27.0001 21,27.4478 21,28.0001L 21,48C 21,48.5523 21.4477,49 22,49L 53.9999,49C 54.5522,49 54.9999,48.5523 54.9999,48L 54.9999,28.0001C 54.9999,27.4478 54.5522,27.0001 53.9999,27.0001 Z "/>
</svg>
