<?xml version="1.0" encoding="utf-8"?>
<!DOCTYPE svg PUBLIC "-//W3C//DTD SVG 1.1//EN" "http://www.w3.org/Graphics/SVG/1.1/DTD/svg11.dtd">
<svg xmlns="http://www.w3.org/2000/svg" xmlns:xlink="http://www.w3.org/1999/xlink" version="1.1" baseProfile="full" width="76" height="76" viewBox="0 0 76.00 76.00" enable-background="new 0 0 76.00 76.00" xml:space="preserve">
	<path fill="#000000" fill-opacity="1" stroke-width="0.2" stroke-linejoin="round" d="M 25.4385,44.2585C 25.4385,44.2585 23.5805,40.1307 28.9884,36.5962L 31.8642,42.5158M 33.1844,31.39C 33.0621,31.4091 32.9548,31.4381 32.8324,31.4595L 30.811,27.3289L 24.8167,28.0142L 27.2597,33.0412C 14.6199,38.2913 20.2201,50.6712 20.2201,50.6712L 39.5069,45.0867L 34.2073,34.2657C 43.7183,31.516 51.6603,37.1378 51.6603,37.1378L 45.1137,38.9164L 43.2291,35.3946C 41.4555,35.0636 39.4369,34.9627 37.2847,35.3232L 41.7426,44.4355L 61,38.8557C 61,38.8557 54.0165,27.8224 33.1844,31.39 Z "/>
</svg>
