<?xml version="1.0" encoding="utf-8"?>
<!DOCTYPE svg PUBLIC "-//W3C//DTD SVG 1.1//EN" "http://www.w3.org/Graphics/SVG/1.1/DTD/svg11.dtd">
<svg xmlns="http://www.w3.org/2000/svg" xmlns:xlink="http://www.w3.org/1999/xlink" version="1.1" baseProfile="full" width="76" height="76" viewBox="0 0 76.00 76.00" enable-background="new 0 0 76.00 76.00" xml:space="preserve">
	<path fill="#000000" fill-opacity="1" stroke-width="0.2" stroke-linejoin="round" d="M 15.8333,49.0833L 60.1667,49.0833C 60.1667,49.3789 59.4555,49.491 59.3631,49.8631C 59.2708,50.2352 59.1547,50.631 59.0148,51.0506C 58.8749,51.4702 58.714,51.8951 58.5319,52.3252C 58.3498,52.7553 58.1611,53.1763 57.9658,53.5879C 57.5225,54.5432 57.0185,55.5407 56.4538,56.5804C 54.5749,56.8285 52.7118,57.0501 50.8646,57.2454C 50.0729,57.3457 49.2522,57.442 48.403,57.5344C 47.5528,57.6267 46.707,57.7138 45.8652,57.7956C 45.0234,57.8774 44.2067,57.9513 43.415,58.0173C 42.6233,58.0833 41.8897,58.14 41.2142,58.1875C 40.4594,58.2403 39.706,58.2825 38.954,58.3142C 38.2019,58.3458 37.4458,58.3617 36.6858,58.3617C 34.6433,58.3617 32.5916,58.2337 30.5306,57.9777C 28.4697,57.7217 26.3572,57.2718 24.1933,56.6279C 23.5019,56.4168 22.8515,56.1331 22.2419,55.7769C 21.6323,55.4206 21.0715,55.0288 20.5596,54.6012C 19.7996,53.9732 19.1636,53.3293 18.6517,52.6696C 18.1397,52.0099 17.7201,51.3924 17.3929,50.8171C 17.0129,50.1574 16.7147,49.5055 16.4983,48.8617L 15.8333,49.0833 Z M 38,14.25L 38,45.9167L 23.75,45.9167L 38,14.25 Z M 41.1667,23.75L 53.8333,45.9167L 41.1667,45.9167L 41.1667,23.75 Z "/>
</svg>
