<?xml version="1.0" encoding="utf-8"?>
<!DOCTYPE svg PUBLIC "-//W3C//DTD SVG 1.1//EN" "http://www.w3.org/Graphics/SVG/1.1/DTD/svg11.dtd">
<svg xmlns="http://www.w3.org/2000/svg" xmlns:xlink="http://www.w3.org/1999/xlink" version="1.1" baseProfile="full" width="76" height="76" viewBox="0 0 76.00 76.00" enable-background="new 0 0 76.00 76.00" xml:space="preserve">
	<path fill="#000000" fill-opacity="1" stroke-width="0.2" stroke-linejoin="round" d="M 42,24L 57,24L 57,52L 42,52L 42,49L 53.9999,49L 54,47L 42,47L 42,45L 54,45L 54,43L 42,43L 42,41L 54,41L 54,39L 42,39L 42,37L 54,37L 54,35L 42,35L 42,33L 54,33L 53.9999,31L 41.9999,31L 41.9999,29L 53.9999,29L 54,27L 42,27L 42,24 Z M 18.9999,23.5001L 41,20L 41,56L 18.9999,52.5L 18.9999,23.5001 Z M 36.88,32.1262L 34.5424,32.2511L 32.9646,41.8358L 32.9349,41.8347C 32.5315,38.6677 31.741,35.5618 31.0946,32.4353L 28.6148,32.5678L 26.538,41.6211L 26.4945,41.6195C 26.1811,38.638 25.4794,35.7097 24.9146,32.7655L 22.3844,32.9007L 25.0893,44.0476L 27.7649,44.2124L 29.6873,35.4199L 29.7148,35.4192C 30.0891,38.4712 30.9304,41.4481 31.6015,44.4488L 34.1692,44.607L 36.88,32.1262 Z "/>
</svg>
