<?xml version="1.0" encoding="utf-8"?>
<!DOCTYPE svg PUBLIC "-//W3C//DTD SVG 1.1//EN" "http://www.w3.org/Graphics/SVG/1.1/DTD/svg11.dtd">
<svg xmlns="http://www.w3.org/2000/svg" xmlns:xlink="http://www.w3.org/1999/xlink" version="1.1" baseProfile="full" width="76" height="76" viewBox="0 0 76.00 76.00" enable-background="new 0 0 76.00 76.00" xml:space="preserve">
	<path fill="#000000" fill-opacity="1" stroke-width="0.2" stroke-linejoin="round" d="M 53.2929,21.2929L 54.7071,22.7071C 56.4645,24.4645 56.4645,27.3137 54.7071,29.0711L 52.2323,31.5459L 44.4541,23.7677L 46.9289,21.2929C 48.6863,19.5355 51.5355,19.5355 53.2929,21.2929 Z M 31.7262,52.052L 23.948,44.2738L 43.0399,25.182L 50.818,32.9601L 31.7262,52.052 Z M 23.2409,47.1023L 28.8977,52.7591L 21.0463,54.9537L 23.2409,47.1023 Z M 17,28L 17,23L 23,23L 23,17L 28,17L 28,23L 34,23L 34,28L 28,28L 28,34L 23,34L 23,28L 17,28 Z "/>
</svg>
