<?xml version="1.0" encoding="utf-8"?>
<!DOCTYPE svg PUBLIC "-//W3C//DTD SVG 1.1//EN" "http://www.w3.org/Graphics/SVG/1.1/DTD/svg11.dtd">
<svg xmlns="http://www.w3.org/2000/svg" xmlns:xlink="http://www.w3.org/1999/xlink" version="1.1" baseProfile="full" width="76" height="76" viewBox="0 0 76.00 76.00" enable-background="new 0 0 76.00 76.00" xml:space="preserve">
	<path fill="#000000" fill-opacity="1" stroke-width="0.2" stroke-linejoin="round" d="M 24.9015,44.6116L 25.0963,44.9212C 26.1685,49.7824 31.5377,52.6866 38,52.6866C 44.4623,52.6866 49.8315,49.7824 50.9037,44.9212L 51.0985,44.6116C 51.0985,42.8161 52.6921,41.6561 54.9656,41.6561C 56.9428,41.6561 58.1863,43.1437 58.5833,44.6116C 57.6384,52.2939 47.9756,59.3894 38,59.3894C 28.0244,59.3894 18.3616,52.2939 17.4167,44.6116C 17.8137,43.1437 19.0572,41.656 21.0343,41.656C 23.3079,41.656 24.9015,42.8161 24.9015,44.6116 Z M 20.5833,25.3333C 22.4625,25.3333 23.9417,26.125 26.2209,26.125C 28.5,26.125 29.8514,25.3333 31.6666,25.3333C 33.4155,25.3333 34.8333,26.7511 34.8333,28.5C 34.8333,30.2489 33.4155,31.6667 31.6666,31.6667L 20.5833,31.6667C 18.8344,31.6667 17.4167,30.2489 17.4167,28.5C 17.4167,26.7511 18.8344,25.3333 20.5833,25.3333 Z M 44.3333,25.3333C 46.2125,25.3333 47.6917,26.125 49.9709,26.125C 52.25,26.125 53.6014,25.3333 55.4166,25.3333C 57.1655,25.3333 58.5833,26.7511 58.5833,28.5C 58.5833,30.2489 57.1655,31.6667 55.4166,31.6667L 44.3333,31.6667C 42.5844,31.6667 41.1667,30.2489 41.1667,28.5C 41.1667,26.7511 42.5844,25.3333 44.3333,25.3333 Z "/>
</svg>
