<?xml version="1.0" encoding="utf-8"?>
<!DOCTYPE svg PUBLIC "-//W3C//DTD SVG 1.1//EN" "http://www.w3.org/Graphics/SVG/1.1/DTD/svg11.dtd">
<svg xmlns="http://www.w3.org/2000/svg" xmlns:xlink="http://www.w3.org/1999/xlink" version="1.1" baseProfile="full" width="76" height="76" viewBox="0 0 76.00 76.00" enable-background="new 0 0 76.00 76.00" xml:space="preserve">
	<path fill="#000000" fill-opacity="1" stroke-linejoin="round" d="M 38,21C 46.0622,21 52.6389,26.9365 52.9856,34.3815L 53,34C 53,31.1992 52.1188,28.5905 50.601,26.4022C 54.5262,29.6081 57,34.288 57,39.5C 57,49.165 48.4934,57 38,57C 27.5066,57 19,49.165 19,39.5C 19,34.2879 21.4738,29.6081 25.399,26.4021C 23.8812,28.5904 23,31.1992 23,34L 23.0144,34.3815C 23.3611,26.9365 29.9378,21 38,21 Z M 53,35C 53,42.732 46.2843,49 38,49C 29.7157,49 23,42.732 23,35L 23,39C 23,46.732 29.7157,52.5 38,52.5C 46.2843,52.5 53,46.732 53,39L 53,35 Z "/>
</svg>
