<?xml version="1.0" encoding="utf-8"?>
<!DOCTYPE svg PUBLIC "-//W3C//DTD SVG 1.1//EN" "http://www.w3.org/Graphics/SVG/1.1/DTD/svg11.dtd">
<svg xmlns="http://www.w3.org/2000/svg" xmlns:xlink="http://www.w3.org/1999/xlink" version="1.1" baseProfile="full" width="76" height="76" viewBox="0 0 76.00 76.00" enable-background="new 0 0 76.00 76.00" xml:space="preserve">
	<path fill="#000000" fill-opacity="1" stroke-width="0.2" stroke-linejoin="round" d="M 42,21L 48,21L 48,27L 42,27L 42,21 Z M 41.9999,28.0001L 47.9998,28.0001L 47.9998,34.0001L 41.9999,34.0001L 41.9999,28.0001 Z M 48.9998,21.0002L 54.9998,21.0002L 54.9998,27.0001L 48.9998,27.0001L 48.9998,21.0002 Z M 48.9998,28.0001L 54.9998,28.0001L 54.9998,34.0001L 48.9998,34.0001L 48.9998,28.0001 Z M 27.9999,21.0002L 33.9999,21.0002L 33.9999,27.0001L 27.9999,27.0001L 27.9999,21.0002 Z M 27.9999,28.0001L 33.9999,28.0001L 33.9999,34.0001L 27.9999,34.0001L 27.9999,28.0001 Z M 34.9999,21.0001L 40.9999,21.0001L 40.9999,27.0001L 34.9999,27.0001L 34.9999,21.0001 Z M 34.9999,28.0001L 40.9999,28.0001L 40.9999,34L 34.9999,34L 34.9999,28.0001 Z M 41.9999,35.0001L 47.9999,35.0001L 47.9999,41.0001L 41.9999,41.0001L 41.9999,35.0001 Z M 28,35.0001L 34,35.0001L 34,41.0001L 28,41.0001L 28,35.0001 Z M 27.9999,42.0001L 33.9999,42.0001L 33.9999,48.0001L 27.9999,48.0001L 27.9999,42.0001 Z M 28,49.0001L 34,49.0001L 34,55L 28,55L 28,49.0001 Z M 35,35.0001L 40.9999,35.0001L 40.9999,41.0001L 35,41.0001L 35,35.0001 Z M 35,42.0001L 40.9999,42.0001L 40.9999,48.0001L 35,48.0001L 35,42.0001 Z M 21,21.0002L 26.9999,21.0002L 26.9999,27.0001L 21,27.0001L 21,21.0002 Z M 21,28.0001L 26.9999,28.0001L 26.9999,34.0001L 21,34.0001L 21,28.0001 Z M 21,35.0001L 27,35.0001L 27,41.0001L 21,41.0001L 21,35.0001 Z M 21,42.0001L 27,42.0001L 27,48.0001L 21,48.0001L 21,42.0001 Z M 21,49.0001L 27,49.0001L 27,55L 21,55L 21,49.0001 Z M 34.9999,49.0001L 40.9999,49.0001L 40.9999,55L 34.9999,55L 34.9999,49.0001 Z M 35.9999,50.0001L 35.9999,54.0001L 39.9999,54.0001L 39.9999,50.0001L 35.9999,50.0001 Z M 48.9999,35.0001L 54.9999,35.0001L 54.9999,41.0001L 48.9999,41.0001L 48.9999,35.0001 Z M 49.9999,36.0001L 49.9999,40.0001L 53.9999,40.0001L 53.9999,36.0001L 49.9999,36.0001 Z M 41.9999,42.0001L 47.9999,42.0001L 47.9999,48.0001L 41.9999,48.0001L 41.9999,42.0001 Z M 42.9999,43.0001L 42.9999,47.0001L 46.9999,47.0001L 46.9999,43.0001L 42.9999,43.0001 Z M 48.9999,42.0001L 54.9999,42.0001L 54.9999,48.0001L 48.9999,48.0001L 48.9999,42.0001 Z M 49.9999,43.0001L 49.9999,47.0001L 53.9999,47.0001L 53.9999,43.0001L 49.9999,43.0001 Z M 41.9999,49.0001L 47.9999,49.0001L 47.9999,55L 41.9999,55L 41.9999,49.0001 Z M 42.9999,50.0001L 42.9999,54.0001L 46.9999,54.0001L 46.9999,50.0001L 42.9999,50.0001 Z M 48.9999,49.0001L 54.9999,49.0001L 54.9999,55L 48.9999,55L 48.9999,49.0001 Z M 49.9999,50.0001L 49.9999,54.0001L 53.9999,54.0001L 53.9999,50.0001L 49.9999,50.0001 Z M 22,22.0001L 22,26.0001L 26,26.0001L 26,22.0001L 22,22.0001 Z M 36,29.0001L 36,33.0001L 40,33.0001L 40,29.0001L 36,29.0001 Z M 29,29.0001L 29,33.0001L 33,33.0001L 33,29.0001L 29,29.0001 Z M 22,36L 22,40L 26,40L 26,36L 22,36 Z M 22,29.0001L 22,33.0001L 26,33.0001L 26,29.0001L 22,29.0001 Z M 42.9999,29.0001L 42.9999,33.0001L 46.9999,33.0001L 46.9999,29.0001L 42.9999,29.0001 Z M 49.9999,29.0001L 49.9999,33.0001L 53.9999,33.0001L 53.9999,29.0001L 49.9999,29.0001 Z M 29,22.0001L 29,26.0001L 33,26.0001L 33,22.0001L 29,22.0001 Z M 36,22.0001L 36,26.0001L 40,26.0001L 40,22.0001L 36,22.0001 Z M 29,36L 29,40L 33,40L 33,36L 29,36 Z M 22,43L 22,47L 26,47L 26,43L 22,43 Z M 29,43L 29,47L 33,47L 33,43L 29,43 Z M 36,43L 36,47L 40,47L 40,43L 36,43 Z M 22,50L 22,54L 26,54L 26,50L 22,50 Z M 29,50L 29,54L 33,54L 33,50L 29,50 Z M 43,22L 43,26L 47,26L 47,22L 43,22 Z M 50,22L 50,26L 54,26L 54,22L 50,22 Z M 43,36L 43,40L 47,40L 47,36L 43,36 Z M 36,36L 36,40L 40,40L 40,36L 36,36 Z "/>
</svg>
