<?xml version="1.0" encoding="utf-8"?>
<!DOCTYPE svg PUBLIC "-//W3C//DTD SVG 1.1//EN" "http://www.w3.org/Graphics/SVG/1.1/DTD/svg11.dtd">
<svg xmlns="http://www.w3.org/2000/svg" xmlns:xlink="http://www.w3.org/1999/xlink" version="1.1" baseProfile="full" width="76" height="76" viewBox="0 0 76.00 76.00" enable-background="new 0 0 76.00 76.00" xml:space="preserve">
	<path fill="#000000" fill-opacity="1" stroke-width="0.2" stroke-linejoin="round" d="M 42,53L 42,55L 34,57L 34,55L 42,53 Z M 42,56L 42,58L 34,60L 34,58L 42,56 Z M 42,52L 34,54C 34,54 34,51 32.2656,50C 32.2656,50 32.25,37 27.25,28C 27.25,28 25,22 38,22C 51,22 48.75,28 48.75,28C 43.75,37 44,50 44,50C 42,50 42,52 42,52 Z M 38,33C 41,33 44,33.5 44,33.5L 46.25,29C 48.5,24 42,24.0001 38,24C 34,24 27.5,24 29.75,29L 32,33.5C 32,33.5 35,33 38,33 Z M 40,59.5L 40,61L 36,61L 36,60.5L 40,59.5 Z M 23.9156,24.4578C 23.6181,25.2099 23.5739,25.911 23.6105,26.4429L 19.0833,25.3141C 18.9905,24.8571 18.8952,24.1154 18.9861,23.2287L 23.9156,24.4578 Z M 28.8959,20.6181C 28.0718,20.8816 27.3723,21.1805 26.7794,21.5025L 22.237,17.9536C 22.7674,17.5704 23.38,17.2031 24.0864,16.8605L 28.8959,20.6181 Z M 35.6264,19.5548L 33.5541,19.7088L 31.7808,14.8367L 33.8381,14.6414L 35.6264,19.5548 Z M 42.4459,19.7088L 40.3736,19.5548L 42.1619,14.6414L 44.2192,14.8367L 42.4459,19.7088 Z M 48.8349,21.3039C 48.2142,21.0006 47.4891,20.7216 46.6431,20.4783L 51.5129,16.6736C 52.2382,16.9994 52.8715,17.3504 53.424,17.7185L 48.8349,21.3039 Z M 52.3895,26.443C 52.4261,25.911 52.3818,25.2099 52.0844,24.4578L 57.0139,23.2287C 57.1048,24.1155 57.0094,24.8572 56.9167,25.3142L 52.3895,26.443 Z M 49.7141,32.9513L 50.4471,31.0728L 54.0977,31.983L 53.4322,33.8783L 49.7141,32.9513 Z M 48.1235,38.1784L 48.6911,36.0838L 52.005,38.6729L 51.4738,40.796L 48.1235,38.1784 Z M 27.2228,35.6511L 27.822,37.7209L 24.4932,40.3217L 23.9356,38.2193L 27.2228,35.6511 Z M 25.5615,31.0707L 26.3047,32.9466L 22.594,33.8718L 21.9181,31.9791L 25.5615,31.0707 Z "/>
</svg>
