<?xml version="1.0" encoding="utf-8"?>
<!DOCTYPE svg PUBLIC "-//W3C//DTD SVG 1.1//EN" "http://www.w3.org/Graphics/SVG/1.1/DTD/svg11.dtd">
<svg xmlns="http://www.w3.org/2000/svg" xmlns:xlink="http://www.w3.org/1999/xlink" version="1.1" baseProfile="full" width="76" height="76" viewBox="0 0 76.00 76.00" enable-background="new 0 0 76.00 76.00" xml:space="preserve">
	<path fill="#000000" fill-opacity="1" stroke-width="0.2" stroke-linejoin="round" d="M 34.8333,26.9167L 37.2083,12.6667L 38.7917,12.6667L 41.1667,26.9167L 34.8333,26.9167 Z M 42.75,37.2083L 55.4167,49.875L 53.0416,51.4583L 38,35.625L 22.9583,51.4583L 20.5833,49.875L 33.25,37.2083L 33.25,32.0625L 34.8333,32.0625L 34.8333,28.1042L 41.1667,28.1042L 41.1667,32.0625L 42.75,32.0625L 42.75,37.2083 Z M 38,39.5833L 50.6667,52.25L 50.6667,60.1667L 41.1667,60.1667L 41.1667,53.8333C 41.1667,52.0844 39.7489,50.6667 38,50.6667C 36.2511,50.6667 34.8333,52.0844 34.8333,53.8333L 34.8333,60.1667L 25.3333,60.1667L 25.3333,52.25L 38,39.5833 Z "/>
</svg>
