<?xml version="1.0" encoding="utf-8"?>
<!DOCTYPE svg PUBLIC "-//W3C//DTD SVG 1.1//EN" "http://www.w3.org/Graphics/SVG/1.1/DTD/svg11.dtd">
<svg xmlns="http://www.w3.org/2000/svg" xmlns:xlink="http://www.w3.org/1999/xlink" version="1.1" baseProfile="full" width="76" height="76" viewBox="0 0 76.00 76.00" enable-background="new 0 0 76.00 76.00" xml:space="preserve">
	<path fill="#000000" fill-opacity="1" stroke-width="0.2" stroke-linejoin="round" d="M 30,27C 30,24.3766 32.3767,22 35,22L 41,22C 43.6234,22 46,24.3766 46,27L 50.9999,27.0001C 53.7613,27.0001 55.9999,29.2387 55.9999,32.0001L 55.9999,46.0001C 55.9999,48.7615 53.7613,51.0001 50.9999,51.0001L 25,51.0001C 22.2385,51.0001 20,48.7615 20,46.0001L 20,32.0001C 20,29.2387 22.2385,27.0001 25,27.0001L 30,27 Z M 25.5,30C 24.6716,30 24,30.8954 24,32C 24,33.1046 24.6716,34 25.5,34C 26.3284,34 27,33.1046 27,32C 27,30.8954 26.3284,30 25.5,30 Z M 38,32C 34.134,32 31,35.134 31,39C 31,42.866 34.134,46 38,46C 41.866,46 45,42.866 45,39C 45,35.134 41.866,32 38,32 Z M 38,34.5C 40.4853,34.5 42.5,36.5147 42.5,39C 42.5,41.4853 40.4853,43.5 38,43.5C 35.5147,43.5 33.5,41.4853 33.5,39C 33.5,36.5147 35.5147,34.5 38,34.5 Z "/>
</svg>
