<?xml version="1.0" encoding="utf-8"?>
<!DOCTYPE svg PUBLIC "-//W3C//DTD SVG 1.1//EN" "http://www.w3.org/Graphics/SVG/1.1/DTD/svg11.dtd">
<svg xmlns="http://www.w3.org/2000/svg" xmlns:xlink="http://www.w3.org/1999/xlink" version="1.1" baseProfile="full" width="76" height="76" viewBox="0 0 76.00 76.00" enable-background="new 0 0 76.00 76.00" xml:space="preserve">
	<path fill="#000000" fill-opacity="1" stroke-width="0.2" stroke-linejoin="round" d="M 27.7083,44.3333C 29.8945,44.3333 31.6667,46.1055 31.6667,48.2917C 31.6667,50.4778 29.8945,52.25 27.7083,52.25C 25.5222,52.25 23.75,50.4778 23.75,48.2917C 23.75,46.1055 25.5222,44.3333 27.7083,44.3333 Z M 49.875,44.3333C 52.0611,44.3333 53.8333,46.1056 53.8333,48.2917C 53.8333,50.4778 52.0611,52.25 49.875,52.25C 47.6888,52.25 45.9166,50.4778 45.9166,48.2917C 45.9166,46.1056 47.6888,44.3333 49.875,44.3333 Z M 34.8333,45.9167L 34.8333,25.3333L 58.5833,25.3333L 58.5833,45.9167L 55.748,45.9167C 54.8084,43.5956 52.5329,41.9583 49.875,41.9583C 47.2171,41.9583 44.9416,43.5956 44.002,45.9167L 34.8333,45.9167 Z M 17.4167,45.9167L 17.4167,36.4167L 23.75,30.0833L 33.25,30.0834L 33.25,45.2231C 32.1696,43.2761 30.0928,41.9583 27.7083,41.9583C 25.0504,41.9583 22.7749,43.5956 21.8354,45.9167L 17.4167,45.9167 Z "/>
</svg>
