<?xml version="1.0" encoding="utf-8"?>
<!DOCTYPE svg PUBLIC "-//W3C//DTD SVG 1.1//EN" "http://www.w3.org/Graphics/SVG/1.1/DTD/svg11.dtd">
<svg xmlns="http://www.w3.org/2000/svg" xmlns:xlink="http://www.w3.org/1999/xlink" version="1.1" baseProfile="full" width="76" height="76" viewBox="0 0 76.00 76.00" enable-background="new 0 0 76.00 76.00" xml:space="preserve">
	<path fill="#000000" fill-opacity="1" stroke-width="0.2" stroke-linejoin="round" d="M 20.5835,15.8325L 33.25,15.8324L 33.25,12.6658L 34.8333,12.6658L 34.8333,3.16666L 36.8126,3.16666L 36.8126,12.6658L 39.1874,12.6658L 39.1874,3.16668L 41.1667,3.16667L 41.1667,12.6658L 42.75,12.6658L 42.75,15.8324L 55.4162,15.8325L 55.4161,47.4992L 20.5835,47.4992L 20.5835,15.8325 Z M 25.3337,18.9992L 25.3337,44.3325L 50.6661,44.3325L 50.6661,18.9992L 25.3337,18.9992 Z M 52.2495,31.6658L 52.2495,34.8325L 53.8328,34.8325L 53.8328,31.6658L 52.2495,31.6658 Z M 37.8241,20.5825C 40.2531,20.5825 42.2222,22.5516 42.2222,24.9806C 42.2222,27.4096 40.2531,29.3787 37.8241,29.3787C 35.395,29.3787 33.4259,27.4096 33.4259,24.9806C 33.4259,22.5516 35.395,20.5825 37.8241,20.5825 Z M 33.4259,35.5362C 32.8395,35.8294 31.6667,38.175 31.6667,38.175C 31.6667,38.175 31.0803,39.0546 30.787,42.5732L 28.1481,41.6935L 29.0278,37.2954C 29.0278,37.2954 30.787,31.138 34.3055,31.1381L 41.3425,31.1381C 44.8611,31.138 46.6204,37.2954 46.6204,37.2954L 47.5,41.6936L 44.8611,42.5732C 44.5679,39.0547 43.9815,38.175 43.9815,38.175C 43.9815,38.175 42.8086,35.8294 42.2222,35.5362L 42.5431,42.7491L 33.1069,42.7491L 33.4259,35.5362 Z M 34.8333,49.0833L 41.1667,49.0833L 41.1666,58.1875L 47.5,51.4583L 47.5,57.396L 38,67.2918L 28.5,57.396L 28.5,51.4583L 34.8333,58.1875L 34.8333,49.0833 Z "/>
</svg>
