<?xml version="1.0" encoding="utf-8"?>
<!DOCTYPE svg PUBLIC "-//W3C//DTD SVG 1.1//EN" "http://www.w3.org/Graphics/SVG/1.1/DTD/svg11.dtd">
<svg xmlns="http://www.w3.org/2000/svg" xmlns:xlink="http://www.w3.org/1999/xlink" version="1.1" baseProfile="full" width="76" height="76" viewBox="0 0 76.00 76.00" enable-background="new 0 0 76.00 76.00" xml:space="preserve">
	<path fill="#000000" fill-opacity="1" stroke-width="0.2" stroke-linejoin="round" d="M 38,30.0833C 42.3722,30.0833 45.9167,33.6278 45.9167,38C 45.9167,38.9466 45.7505,39.8543 45.4459,40.6957L 52.25,47.5L 52.25,39.5833L 57,44.3333L 57,57L 44.3333,57L 39.5833,52.25L 47.5,52.25L 40.6959,45.4458C 39.8545,45.7505 38.9466,45.9167 38,45.9167C 33.6277,45.9167 30.0833,42.3723 30.0833,38C 30.0833,37.0534 30.2495,36.1456 30.5542,35.3042L 23.75,28.4999L 23.75,36.4166L 19,31.6666L 19,18.9999L 31.6667,18.9999L 36.4167,23.7499L 28.5,23.7499L 35.3042,30.5542C 36.1456,30.2495 37.0534,30.0833 38,30.0833 Z M 38,33.25C 35.3766,33.25 33.25,35.3767 33.25,38C 33.25,40.6234 35.3766,42.75 38,42.75C 40.6233,42.75 42.75,40.6234 42.75,38C 42.75,35.3767 40.6233,33.25 38,33.25 Z "/>
</svg>
