<?xml version="1.0" encoding="utf-8"?>
<!DOCTYPE svg PUBLIC "-//W3C//DTD SVG 1.1//EN" "http://www.w3.org/Graphics/SVG/1.1/DTD/svg11.dtd">
<svg xmlns="http://www.w3.org/2000/svg" xmlns:xlink="http://www.w3.org/1999/xlink" version="1.1" baseProfile="full" width="69.6667" height="69.6667" viewBox="0 0 69.67 69.67" enable-background="new 0 0 69.67 69.67" xml:space="preserve">
	<path fill="#FFFFFF" fill-opacity="1" stroke-width="0.2" stroke-linejoin="round" d="M 34.8333,-3.8147e-006C 54.0712,-3.8147e-006 69.6667,15.5954 69.6667,34.8333C 69.6667,54.0713 54.0713,69.6667 34.8333,69.6667C 15.5954,69.6667 0,54.0713 0,34.8333C 0,15.5954 15.5954,-3.8147e-006 34.8333,-3.8147e-006 Z M 49.0853,15.8307L 33.2498,15.8307L 20.5833,36.4167L 31.6667,36.4167L 22.1649,57L 47.5,31.6667L 34.8333,31.6667L 49.0853,15.8307 Z M 15.0416,17.4167L 24.1458,26.5209L 26.5208,23.3542L 20.5833,17.4167L 15.0416,17.4167 Z M 39.5834,42.75L 50.6667,53.8333L 53.8334,50.6666L 42.75,39.5833L 39.5834,42.75 Z "/>
</svg>
