<?xml version="1.0" encoding="utf-8"?>
<!DOCTYPE svg PUBLIC "-//W3C//DTD SVG 1.1//EN" "http://www.w3.org/Graphics/SVG/1.1/DTD/svg11.dtd">
<svg xmlns="http://www.w3.org/2000/svg" xmlns:xlink="http://www.w3.org/1999/xlink" version="1.1" baseProfile="full" width="76" height="76" viewBox="0 0 76.00 76.00" enable-background="new 0 0 76.00 76.00" xml:space="preserve">
	<path fill="#000000" fill-opacity="1" stroke-width="0.2" stroke-linejoin="round" d="M 28.5,58.5833L 28.5,55.4167C 31.9978,55.4167 34.8333,53.8333 34.8333,49.875L 34.8333,29.2917C 34.8333,26.2311 32.7481,25.3334 29.6875,25.3334C 26.6269,25.3334 24.5417,26.2311 24.5417,29.2917L 20.5833,29.2917L 20.5833,20.5833L 55.4167,20.5833L 55.4167,29.2917L 51.4583,29.2917C 51.4583,26.2311 49.373,25.3334 46.3125,25.3334C 43.2519,25.3334 41.1666,26.2311 41.1666,29.2917L 41.1666,49.875C 41.1667,53.8333 44.0022,55.4167 47.5,55.4167L 47.5,58.5833L 28.5,58.5833 Z "/>
</svg>
