<?xml version="1.0" encoding="utf-8"?>
<!DOCTYPE svg PUBLIC "-//W3C//DTD SVG 1.1//EN" "http://www.w3.org/Graphics/SVG/1.1/DTD/svg11.dtd">
<svg xmlns="http://www.w3.org/2000/svg" xmlns:xlink="http://www.w3.org/1999/xlink" version="1.1" baseProfile="full" width="76" height="76" viewBox="0 0 76.00 76.00" enable-background="new 0 0 76.00 76.00" xml:space="preserve">
	<path fill="#000000" fill-opacity="1" stroke-width="0.2" stroke-linejoin="round" d="M 22.2448,39.5833L 19,39.5833L 19,36.4167L 22.2448,36.4167C 22.9875,28.9363 28.9363,22.9875 36.4167,22.2448L 36.4167,19L 39.5833,19L 39.5833,22.2448C 47.0637,22.9875 53.0125,28.9363 53.7552,36.4167L 57,36.4167L 57,39.5833L 53.7552,39.5833C 53.0125,47.0637 47.0637,53.0125 39.5833,53.7552L 39.5833,57L 36.4167,57L 36.4167,53.7552C 28.9363,53.0125 22.9875,47.0637 22.2448,39.5833 Z M 25.4313,36.4167L 28.5,36.4167L 28.5,39.5833L 25.4313,39.5833C 26.1458,45.313 30.687,49.8542 36.4167,50.5687L 36.4167,47.5L 39.5833,47.5L 39.5833,50.5687C 45.313,49.8542 49.8542,45.313 50.5686,39.5833L 47.5,39.5833L 47.5,36.4167L 50.5686,36.4167C 49.8542,30.687 45.313,26.1458 39.5833,25.4314L 39.5833,28.5L 36.4167,28.5L 36.4167,25.4314C 30.687,26.1458 26.1458,30.687 25.4313,36.4167 Z "/>
</svg>
