<?xml version="1.0" encoding="utf-8"?>
<!DOCTYPE svg PUBLIC "-//W3C//DTD SVG 1.1//EN" "http://www.w3.org/Graphics/SVG/1.1/DTD/svg11.dtd">
<svg xmlns="http://www.w3.org/2000/svg" xmlns:xlink="http://www.w3.org/1999/xlink" version="1.1" baseProfile="full" width="76" height="76" viewBox="0 0 76.00 76.00" enable-background="new 0 0 76.00 76.00" xml:space="preserve">
	<path fill="#000000" fill-opacity="1" stroke-width="0.2" stroke-linejoin="round" d="M 20.9655,25.5628C 20.7672,26.7454 19.7389,27.6465 18.5,27.6465C 17.1193,27.6465 16,26.5272 16,25.1465C 16,23.7658 17.1193,22.6465 18.5,22.6465C 19.6778,22.6465 20.6653,23.4609 20.9302,24.5573L 47.6012,20.6473C 52.4588,19.0119 56.9161,18.1864 58,18L 58,17L 63,17L 63,22L 58,22L 58,21C 55.5704,21.4714 36.25,25.503 36.25,33C 36.25,40 49,38 49,45C 49,49.4239 40.1318,53.2363 32.2035,55.7606L 57.0285,52.1212C 57.2111,50.9202 58.2481,50 59.5,50C 60.8807,50 62,51.1193 62,52.5C 62,53.8807 60.8807,55 59.5,55C 58.3349,55 57.356,54.203 57.0786,53.1245L 24.9161,57.8396C 21.9849,58.5893 20,59 20,59L 20,60L 15,60L 15,55L 20,55L 20,56C 24,55 45.5,49 45.5,45C 45.5,41 33,42 33,33C 33,28.1682 37.8719,24.6778 43.3358,22.2833L 20.9655,25.5628 Z M 18.5,26.6465C 19.3284,26.6465 20,25.9749 20,25.1465C 20,24.3181 19.3284,23.6465 18.5,23.6465C 17.6716,23.6465 17,24.3181 17,25.1465C 17,25.9749 17.6716,26.6465 18.5,26.6465 Z M 59,18L 59,21L 62,21L 62,18L 59,18 Z M 16,56L 16,59L 19,59L 19,56L 16,56 Z M 59.5,51C 58.6716,51 58,51.6716 58,52.5C 58,53.3284 58.6716,54 59.5,54C 60.3284,54 61,53.3284 61,52.5C 61,51.6716 60.3284,51 59.5,51 Z "/>
</svg>
