<?xml version="1.0" encoding="utf-8"?>
<!DOCTYPE svg PUBLIC "-//W3C//DTD SVG 1.1//EN" "http://www.w3.org/Graphics/SVG/1.1/DTD/svg11.dtd">
<svg xmlns="http://www.w3.org/2000/svg" xmlns:xlink="http://www.w3.org/1999/xlink" version="1.1" baseProfile="full" width="76" height="76" viewBox="0 0 76.00 76.00" enable-background="new 0 0 76.00 76.00" xml:space="preserve">
	<path fill="#000000" fill-opacity="1" stroke-width="0.2" stroke-linejoin="round" d="M 26.197,25.3333C 29.2973,25.3333 31.8106,27.8466 31.8106,30.947C 31.8106,34.0473 29.2973,36.5606 26.197,36.5606C 23.0966,36.5606 20.5833,34.0473 20.5833,30.947C 20.5833,27.8466 23.0966,25.3333 26.197,25.3333 Z M 27.7083,49.0833L 48.2917,49.0833C 50.4778,49.0833 52.25,50.8555 52.25,53.0417C 52.25,55.2278 50.4778,57 48.2917,57L 27.7083,57C 25.5222,57 23.75,55.2278 23.75,53.0417C 23.75,50.8556 25.5222,49.0833 27.7083,49.0833 Z M 47.5,20.5833C 51.8722,20.5833 55.4167,24.8366 55.4167,30.0833C 55.4167,35.33 51.8723,39.5833 47.5,39.5833C 43.1277,39.5833 39.5833,35.33 39.5833,30.0833C 39.5833,24.8366 43.1277,20.5833 47.5,20.5833 Z "/>
</svg>
