<?xml version="1.0" encoding="utf-8"?>
<!DOCTYPE svg PUBLIC "-//W3C//DTD SVG 1.1//EN" "http://www.w3.org/Graphics/SVG/1.1/DTD/svg11.dtd">
<svg xmlns="http://www.w3.org/2000/svg" xmlns:xlink="http://www.w3.org/1999/xlink" version="1.1" baseProfile="full" width="76" height="76" viewBox="0 0 76.00 76.00" enable-background="new 0 0 76.00 76.00" xml:space="preserve">
	<path fill="#000000" fill-opacity="1" stroke-width="0.2" stroke-linejoin="round" d="M 17.4167,31.6667C 19.1656,31.6667 20.5833,33.0844 20.5833,34.8333C 20.5833,36.5822 19.1656,38 17.4167,38C 15.6678,38 14.25,36.5822 14.25,34.8333C 14.25,33.0844 15.6678,31.6667 17.4167,31.6667 Z M 12.6667,39.5834C 14.4156,39.5834 15.8333,41.0011 15.8333,42.75C 15.8333,44.4989 14.4156,45.9167 12.6667,45.9167C 10.9178,45.9167 9.49999,44.4989 9.49999,42.75C 9.49999,41.0011 10.9178,39.5834 12.6667,39.5834 Z M 23.75,39.5834C 25.4989,39.5834 26.9166,41.0011 26.9166,42.75C 26.9166,44.4989 25.4989,45.9167 23.75,45.9167C 22.0011,45.9167 20.5833,44.4989 20.5833,42.75C 20.5833,41.0011 22.0011,39.5834 23.75,39.5834 Z M 23.8485,49.2153L 23.8485,51.3581L 19.6944,51.3581L 19.458,52.9479L 20.1673,52.915L 21.7021,53.0975C 22.1946,53.2209 22.6256,53.417 22.995,53.6858C 23.3932,53.9555 23.7039,54.3186 23.927,54.775C 24.1501,55.2315 24.2635,55.7868 24.2672,56.4408C 24.2581,57.513 23.8576,58.4205 23.0654,59.1632C 22.2733,59.906 21.144,60.2932 19.6775,60.325L 17.8766,60.1333L 16.6205,59.7014L 17.0934,57.7679L 18.13,58.1342L 19.5593,58.3195C 20.1163,58.3227 20.6153,58.187 21.0562,57.9123C 21.4971,57.6376 21.73,57.2046 21.755,56.6132C 21.7634,56.0304 21.5227,55.5758 21.0329,55.2494C 20.5431,54.923 19.7535,54.7571 18.6641,54.7517L 17.8661,54.7776L 17.1947,54.8552L 17.9041,49.2153L 23.8485,49.2153 Z M 33.0734,49.0306L 33.0734,51.0024L 32.1109,51.0361C 30.9489,51.1443 30.076,51.4394 29.4922,51.9215C 28.9084,52.4035 28.5472,52.9676 28.4086,53.6138L 28.4614,53.6138C 29.025,53.0564 29.8351,52.7693 30.8918,52.7524C 31.8355,52.7583 32.622,53.0716 33.2514,53.6921C 33.8806,54.3127 34.2074,55.2049 34.2316,56.3687C 34.2142,57.504 33.8453,58.4407 33.1249,59.1787C 32.4045,59.9167 31.437,60.2988 30.2226,60.325C 28.7261,60.2919 27.6154,59.8257 26.8904,58.9263C 26.1654,58.0269 25.8047,56.893 25.8083,55.5243C 25.8149,54.48 25.9889,53.5446 26.3303,52.7181C 26.6717,51.8916 27.141,51.2017 27.7383,50.6485C 28.8564,49.6597 30.3031,49.126 32.0783,49.0474L 33.0734,49.0306 Z M 30.1874,58.4883C 30.6596,58.4769 31.0316,58.2887 31.3034,57.924C 31.5753,57.5592 31.7139,57.0868 31.7194,56.5066C 31.7198,55.9738 31.5782,55.5229 31.2946,55.1538C 31.011,54.7847 30.5832,54.5923 30.0112,54.5765C 29.6454,54.583 29.3248,54.6778 29.0492,54.8609C 28.7737,55.044 28.5719,55.2766 28.4438,55.5588L 28.3205,56.2309C 28.3444,56.8451 28.508,57.37 28.8115,57.8055C 29.1149,58.241 29.5735,58.4686 30.1874,58.4883 Z M 22.2652,17.5486L 22.2652,19.6914L 18.1111,19.6914L 17.8746,21.2813L 18.584,21.2484L 20.1188,21.4308C 20.6113,21.5542 21.0422,21.7503 21.4117,22.0192C 21.8099,22.2888 22.1206,22.6519 22.3437,23.1084C 22.5668,23.5649 22.6802,24.1201 22.6839,24.7742C 22.6748,25.8464 22.2742,26.7538 21.4821,27.4966C 20.69,28.2393 19.5607,28.6266 18.0942,28.6584L 16.2933,28.4666L 15.0371,28.0348L 15.51,26.1013L 16.5467,26.4675L 17.976,26.6528C 18.533,26.656 19.0319,26.5203 19.4728,26.2456C 19.9137,25.9709 20.1467,25.5379 20.1717,24.9465C 20.1801,24.3637 19.9394,23.9091 19.4496,23.5827C 18.9598,23.2563 18.1702,23.0904 17.0808,23.085L 16.2828,23.1109L 15.6114,23.1885L 16.3208,17.5486L 22.2652,17.5486 Z M 24.5628,17.5486L 32.3105,17.5486L 32.3105,19.1943L 27.7868,28.4895L 25.0692,28.4895L 29.5929,19.7248L 29.5929,19.6914L 24.5628,19.6914L 24.5628,17.5486 Z M 46.8081,41.7758C 46.4057,42.7237 45.8675,43.5724 45.2257,44.3088L 55.1921,55.7738L 52.8022,57.8513L 49.2173,60.9676L 47.1398,58.5777L 50.7246,55.4614L 42.7734,46.3146C 40.2864,47.7319 37.1898,48.0135 34.3513,46.8086C 29.5217,44.7586 27.2684,39.1815 29.3185,34.3519C 31.3685,29.5223 36.9456,27.269 41.7752,29.319C 46.6048,31.3691 48.8581,36.9462 46.8081,41.7758 Z M 44.6219,40.8478C 46.1594,37.2256 44.4695,33.0428 40.8472,31.5052C 37.225,29.9677 33.0422,31.6577 31.5047,35.2799C 29.9672,38.9021 31.6571,43.0849 35.2793,44.6224C 38.9015,46.16 43.0843,44.47 44.6219,40.8478 Z M 51.1839,38.3167L 55.5539,38.3167L 55.5539,39.9845L 51.1839,39.9845L 51.1839,38.3167 Z M 63.8534,32.4056L 63.8534,34.3774L 62.8909,34.4111C 61.7289,34.5193 60.856,34.8144 60.2722,35.2965C 59.6884,35.7785 59.3272,36.3426 59.1886,36.9888L 59.2414,36.9888C 59.805,36.4314 60.6151,36.1443 61.6718,36.1274C 62.6155,36.1333 63.4021,36.4466 64.0314,37.0671C 64.6607,37.6877 64.9874,38.5799 65.0117,39.7437C 64.9942,40.879 64.6253,41.8156 63.9049,42.5537C 63.1845,43.2917 62.217,43.6738 61.0026,43.7C 59.5061,43.6669 58.3954,43.2007 57.6704,42.3013C 56.9454,41.4019 56.5847,40.2679 56.5883,38.8993C 56.5949,37.855 56.7689,36.9196 57.1103,36.0931C 57.4517,35.2666 57.921,34.5767 58.5183,34.0235C 59.6364,33.0347 61.0831,32.501 62.8583,32.4224L 63.8534,32.4056 Z M 60.9674,41.8633C 61.4396,41.8519 61.8116,41.6637 62.0834,41.299C 62.3553,40.9342 62.4939,40.4618 62.4994,39.8816C 62.4998,39.3488 62.3582,38.8979 62.0746,38.5288C 61.791,38.1597 61.3633,37.9673 60.7912,37.9515C 60.4254,37.958 60.1048,38.0528 59.8292,38.2359C 59.5537,38.419 59.3519,38.6516 59.2238,38.9338L 59.1005,39.6059C 59.1244,40.2201 59.288,40.745 59.5915,41.1805C 59.8949,41.616 60.3535,41.8436 60.9674,41.8633 Z M 45.0404,28.6584L 45.0404,26.8217L 45.5271,26.8392L 46.1385,26.8217L 47.3267,26.6052L 48.3616,26.1073C 48.7398,25.8444 49.0499,25.5307 49.292,25.1662C 49.5341,24.8017 49.7038,24.4099 49.801,23.9907L 49.766,23.9739C 49.2628,24.4918 48.4962,24.7564 47.4663,24.7677C 46.5032,24.7594 45.7007,24.455 45.0588,23.8544C 44.4168,23.2538 44.0835,22.4064 44.0588,21.3123C 44.0782,20.195 44.4637,19.2647 45.2155,18.5214C 45.9673,17.7782 46.9692,17.3924 48.2212,17.364C 49.6254,17.3983 50.6599,17.8617 51.3247,18.7543C 51.9895,19.647 52.319,20.7629 52.3133,22.1022C 52.3082,23.2583 52.1452,24.2671 51.8241,25.1285C 51.503,25.9898 51.0541,26.6995 50.4774,27.2575C 49.9587,27.6933 49.3345,28.028 48.6046,28.2615C 47.8748,28.495 47.0694,28.6273 46.1884,28.6584L 45.5645,28.6774L 45.0404,28.6584 Z M 48.1159,19.2006C 47.6598,19.2092 47.2904,19.3894 47.0077,19.7414C 46.725,20.0933 46.5795,20.5654 46.571,21.1578C 46.5714,21.6529 46.7067,22.0707 46.977,22.4113C 47.2473,22.7518 47.6503,22.9293 48.1861,22.9436C 48.5555,22.9382 48.8656,22.8674 49.1165,22.7311C 49.3674,22.5948 49.5546,22.4252 49.6782,22.2224L 49.801,21.5527C 49.8158,20.9364 49.6927,20.3963 49.4319,19.9324C 49.1711,19.4685 48.7324,19.2246 48.1159,19.2006 Z M 55.553,22.8169L 55.553,22.7832C 55.0407,22.5001 54.6576,22.1496 54.4037,21.7318C 54.1497,21.314 54.0229,20.8626 54.0233,20.3776C 54.0444,19.4507 54.4049,18.7195 55.1047,18.1839C 55.8044,17.6484 56.7165,17.375 57.841,17.364C 59.1107,17.3958 60.0294,17.6883 60.5971,18.2413C 61.1649,18.7944 61.4436,19.4167 61.4333,20.1084C 61.436,20.5871 61.3076,21.0386 61.048,21.4626C 60.7884,21.8867 60.3811,22.2372 59.8261,22.5141L 59.8261,22.5645C 60.3609,22.7668 60.8147,23.0941 61.1875,23.5466C 61.5603,23.999 61.7548,24.5745 61.771,25.273C 61.7584,26.2859 61.3825,27.0968 60.6434,27.7056C 59.9042,28.3145 58.8776,28.6268 57.5636,28.6426C 56.1633,28.6069 55.1369,28.2785 54.4844,27.6576C 53.8319,27.0366 53.5093,26.3371 53.5166,25.559C 53.5419,24.2496 54.2207,23.3356 55.553,22.8169 Z M 57.6707,26.8376C 58.1506,26.8292 58.5336,26.6988 58.8194,26.4464C 59.1053,26.1941 59.2518,25.8702 59.2588,25.4749C 59.2488,24.9972 59.077,24.611 58.7436,24.3162C 58.4101,24.0215 57.9751,23.8077 57.4387,23.6749C 56.9895,23.7965 56.643,23.999 56.3991,24.2826C 56.1552,24.5661 56.0318,24.9075 56.0288,25.3067C 56.0265,25.7164 56.1709,26.0704 56.4622,26.3686C 56.7534,26.6669 57.1562,26.8232 57.6707,26.8376 Z M 57.7196,19.0317C 57.2686,19.0422 56.9303,19.1684 56.7048,19.4102C 56.4794,19.6521 56.3666,19.9465 56.3666,20.2935C 56.376,20.6622 56.5263,20.9678 56.8176,21.2103C 57.1089,21.4528 57.4847,21.6407 57.9451,21.7739C 58.2584,21.6848 58.5251,21.518 58.7452,21.2734C 58.9653,21.0287 59.0802,20.7358 59.0899,20.3944C 59.0935,20.0358 58.9866,19.7225 58.769,19.4544C 58.5515,19.1863 58.2017,19.0454 57.7196,19.0317 Z "/>
</svg>
