<?xml version="1.0" encoding="utf-8"?>
<!DOCTYPE svg PUBLIC "-//W3C//DTD SVG 1.1//EN" "http://www.w3.org/Graphics/SVG/1.1/DTD/svg11.dtd">
<svg xmlns="http://www.w3.org/2000/svg" xmlns:xlink="http://www.w3.org/1999/xlink" version="1.1" baseProfile="full" width="76" height="76" viewBox="0 0 76.00 76.00" enable-background="new 0 0 76.00 76.00" xml:space="preserve">
	<path fill="#000000" fill-opacity="1" stroke-width="0.2" stroke-linejoin="round" d="M 49,47C 51.2091,47 53,48.7909 53,51C 53,53.2091 51.2091,55 49,55C 46.7909,55 45,53.2091 45,51C 45,48.7909 46.7909,47 49,47 Z M 49,45C 45.6863,45 43,47.6863 43,51C 43,54.3137 45.6863,57 49,57C 52.3137,57 55,54.3137 55,51C 55,47.6863 52.3137,45 49,45 Z M 49,42C 53.9705,42 58,46.0294 58,51C 58,55.9706 53.9705,60 49,60C 44.0294,60 40,55.9706 40,51C 40,46.0294 44.0294,42 49,42 Z M 27.7083,22.75L 38.7917,25.9167L 48.2917,19.5833L 62,23L 62,50L 58.837,49.1924C 58.4379,47.0061 57.3278,45.068 55.7551,43.6264L 58,44.25L 58,27L 49,24.5L 49,41L 48,41.0494L 48,24.5L 39,30.5L 39,48L 39.5906,47.6063C 39.2083,48.6659 39,49.8086 39,51C 39,51.5476 39.044,52.0849 39.1287,52.6087L 38.7917,52.8333L 27.7083,49.6667L 16,54.5L 16,27.5L 27.7083,22.75 Z M 27,45.25L 27,28L 20,30.75L 20,48L 27,45.25 Z M 28,27.75L 28,45L 38,47.5L 38,30.75L 28,27.75 Z "/>
</svg>
