<?xml version="1.0" encoding="utf-8"?>
<!DOCTYPE svg PUBLIC "-//W3C//DTD SVG 1.1//EN" "http://www.w3.org/Graphics/SVG/1.1/DTD/svg11.dtd">
<svg xmlns="http://www.w3.org/2000/svg" xmlns:xlink="http://www.w3.org/1999/xlink" version="1.1" baseProfile="full" width="76" height="76" viewBox="0 0 76.00 76.00" enable-background="new 0 0 76.00 76.00" xml:space="preserve">
	<path fill="#000000" fill-opacity="1" stroke-width="0.2" stroke-linejoin="round" d="M 31,19L 45,19L 45,38L 57,38L 57,57L 19,57L 19,32L 31,32L 31,19 Z M 30.581,46.0561L 30.581,43.8469L 26.354,43.8469L 26.354,43.8122L 27.3988,42.9454C 28.2336,42.2245 28.9296,41.4689 29.4867,40.6786C 30.0438,39.8883 30.3332,39.0201 30.3547,38.0738C 30.351,37.0478 30.0175,36.2174 29.3542,35.5824C 28.6909,34.9475 27.7199,34.6206 26.4411,34.6018C 25.6767,34.61 24.9765,34.7208 24.3405,34.9345C 23.7046,35.1481 23.1742,35.4157 22.7494,35.7374L 23.4981,37.5883L 24.5647,36.9664C 24.9769,36.7797 25.4282,36.6808 25.9187,36.6696C 26.567,36.6808 27.0379,36.8404 27.3313,37.1485C 27.6248,37.4565 27.7692,37.8459 27.7645,38.3165C 27.758,38.9543 27.4489,39.642 26.8372,40.3796C 26.2256,41.1171 25.2983,42.0302 24.0554,43.1188L 22.61,44.4301L 22.61,46.0561L 30.581,46.0561 Z M 37.281,33.1558L 39.8408,33.1558L 39.8408,21.8593L 37.6641,21.8593L 34.6515,23.2496L 35.0868,25.2309L 37.2461,24.2055L 37.281,24.2055L 37.281,33.1558 Z M 46.8563,51.9712C 47.1944,52.1769 47.6544,52.3557 48.2363,52.5075C 48.8182,52.6593 49.4785,52.739 50.2171,52.7466C 51.635,52.7277 52.7321,52.4036 53.5082,51.7744C 54.2844,51.1452 54.6776,50.3241 54.688,49.3112C 54.6716,48.5509 54.4462,47.9297 54.0117,47.4476C 53.5773,46.9655 53.0322,46.6604 52.3765,46.5325L 52.3765,46.4977C 53.0302,46.2581 53.5208,45.9135 53.8483,45.464C 54.1758,45.0145 54.3396,44.4905 54.3397,43.8921C 54.3349,43.1054 54.0208,42.4488 53.3975,41.9223C 52.7742,41.3958 51.8708,41.1223 50.6873,41.1018C 49.9364,41.1101 49.2529,41.197 48.6369,41.3625C 48.0209,41.528 47.5376,41.7226 47.1872,41.9462L 47.727,43.8405L 48.7261,43.4018C 49.1539,43.2578 49.6044,43.1803 50.0779,43.1696C 50.6427,43.1764 51.0628,43.2875 51.3382,43.5029C 51.6135,43.7183 51.7507,43.9971 51.7496,44.3392C 51.7216,44.8068 51.4989,45.14 51.0813,45.3389C 50.6637,45.5378 50.219,45.6345 49.747,45.6291L 48.7022,45.6291L 48.7022,47.5228L 49.7818,47.5228C 50.404,47.5202 50.9402,47.6525 51.3904,47.9195C 51.8406,48.1865 52.0764,48.6037 52.0978,49.171C 52.0975,49.602 51.924,49.9585 51.5776,50.2405C 51.2311,50.5225 50.7138,50.6686 50.0256,50.6788C 49.4731,50.666 48.9586,50.582 48.4823,50.4268L 47.3961,49.9775L 46.8563,51.9712 Z "/>
</svg>
