<?xml version="1.0" encoding="utf-8"?>
<!DOCTYPE svg PUBLIC "-//W3C//DTD SVG 1.1//EN" "http://www.w3.org/Graphics/SVG/1.1/DTD/svg11.dtd">
<svg xmlns="http://www.w3.org/2000/svg" xmlns:xlink="http://www.w3.org/1999/xlink" version="1.1" baseProfile="full" width="76" height="76" viewBox="0 0 76.00 76.00" enable-background="new 0 0 76.00 76.00" xml:space="preserve">
	<path fill="#000000" fill-opacity="1" stroke-width="0.2" stroke-linejoin="round" d="M 22,17L 54,17C 56.6233,17 59,19.3767 59,22L 59,54C 59,56.6234 56.6233,59 54,59L 22,59C 19.3766,59 17,56.6234 17,54L 17,22C 17,19.3767 19.3766,17 22,17 Z M 38.2628,41.1033L 42.2053,41.1033L 42.2053,43.9296C 41.655,44.5176 41.028,44.9817 40.3244,45.3219C 39.6208,45.6621 38.9418,45.8322 38.2875,45.8322C 36.8912,45.8322 35.7837,45.2519 34.9651,44.0912C 34.0096,42.7458 33.5319,40.7801 33.5319,38.194C 33.5319,35.7864 33.9672,33.9946 34.8378,32.8185C 35.7084,31.6425 36.8474,31.0545 38.2546,31.0545C 39.1608,31.0545 39.9411,31.3592 40.5954,31.9688C 41.2498,32.5784 41.6988,33.4558 41.9424,34.6011L 44.8336,34.01C 44.5187,31.8765 43.8083,30.2594 42.7022,29.1587C 41.5961,28.0581 40.1245,27.5078 38.2875,27.5078C 36.7598,27.5078 35.447,27.9165 34.3491,28.7339C 33.2513,29.5513 32.3587,30.7874 31.6716,32.4422C 30.9844,34.097 30.6408,36.0881 30.6408,38.4156C 30.6408,40.6846 30.9816,42.6581 31.6633,44.336C 32.3451,46.0139 33.2691,47.2738 34.4354,48.1159C 35.6017,48.9579 36.9473,49.3789 38.4723,49.3789C 39.7234,49.3789 40.9712,49.0533 42.2155,48.4022C 43.4599,47.751 44.4202,46.9729 45.0964,46.0677L 45.0964,37.5567L 38.2628,37.5567L 38.2628,41.1033 Z M 53.0416,53.8334L 50.7986,53.8334C 50.7986,53.8334 53.8333,49.4128 53.8333,49.0834L 53.8333,48.2917C 53.8333,47.8544 53.4789,47.5 53.0417,47.5L 49.0833,47.5C 48.6461,47.5 48.2916,47.8545 48.2916,48.2917C 48.2916,48.7289 48.6461,49.0834 49.0833,49.0834L 51.8542,49.0833C 51.8542,49.0833 48.2916,54.2956 48.2916,54.625C 48.2916,55.0623 48.646,55.4167 49.0833,55.4167L 53.0416,55.4167C 53.4788,55.4167 53.8333,55.0622 53.8333,54.625C 53.8333,54.1878 53.4788,53.8334 53.0416,53.8334 Z "/>
</svg>
