<?xml version="1.0" encoding="utf-8"?>
<!DOCTYPE svg PUBLIC "-//W3C//DTD SVG 1.1//EN" "http://www.w3.org/Graphics/SVG/1.1/DTD/svg11.dtd">
<svg xmlns="http://www.w3.org/2000/svg" xmlns:xlink="http://www.w3.org/1999/xlink" version="1.1" baseProfile="full" width="76" height="76" viewBox="0 0 76.00 76.00" enable-background="new 0 0 76.00 76.00" xml:space="preserve">
	<path fill="#000000" fill-opacity="1" stroke-linejoin="round" d="M 41.5,49C 41.5,52.0376 39.0376,54.5 36,54.5C 32.9624,54.5 30.5,52.0376 30.5,49C 30.5,46.3039 32.4399,44.0609 35,43.5907L 35,31L 37,31L 37,43.5907C 39.5601,44.061 41.5,46.3039 41.5,49 Z M 45,49C 45,53.9706 40.9705,58 36,58C 31.0294,58 27,53.9706 27,49C 27,45.4663 29.0365,42.4083 32,40.9356L 32,22.0001C 32,19.7909 33.7908,18.0001 36,18.0001C 38.2091,18.0001 40,19.7909 40,22.0001L 40,40.9355C 42.9634,42.4082 45,45.4663 45,49 Z M 34,42.2899C 31.1085,43.1505 29,45.829 29,49C 29,52.866 32.134,56 36,56C 39.866,56 42.9999,52.866 42.9999,49C 42.9999,45.829 40.8914,43.1505 38,42.2899L 38,22.0001C 38,20.8955 37.1045,20.0001 36,20.0001C 34.8954,20.0001 34,20.8955 34,22.0001L 34,42.2899 Z M 31,21L 31,22L 25,22L 25,21L 31,21 Z M 31,24L 31,25L 27,25L 27,24L 31,24 Z M 31,27L 31,28L 25,28L 25,27L 31,27 Z M 31,30L 31,31L 27,31L 27,30L 31,30 Z M 31,33L 31,34L 25,34L 25,33L 31,33 Z M 31,36L 31,37L 27,37L 27,36L 31,36 Z M 31,39L 31,40L 25,40L 25,39L 31,39 Z M 50.46,27.36L 45.98,27.36L 45.98,30.5333L 50.0867,30.5333L 50.0867,32.96L 45.98,32.96L 45.98,38L 42.9933,38L 42.9933,24.9333L 50.46,24.9333L 50.46,27.36 Z M 54.9342,29.7867C 54.2069,29.7867 53.5905,29.5407 53.085,29.0488C 52.5794,28.5568 52.3267,27.9579 52.3267,27.2521C 52.3267,26.5482 52.5794,25.9547 53.085,25.4715C 53.5905,24.9883 54.2069,24.7467 54.9342,24.7467C 55.6575,24.7467 56.2749,24.9883 56.7862,25.4715C 57.2976,25.9547 57.5533,26.5482 57.5533,27.2521C 57.5533,27.9579 57.2976,28.5568 56.7862,29.0488C 56.2749,29.5407 55.6575,29.7867 54.9342,29.7867 Z M 54.94,26.0533C 54.6269,26.0533 54.362,26.17 54.1452,26.4033C 53.9284,26.6367 53.82,26.9215 53.82,27.2579C 53.82,27.5943 53.9284,27.8821 54.1452,28.1213C 54.362,28.3604 54.6269,28.48 54.94,28.48C 55.2472,28.48 55.5107,28.3604 55.7304,28.1213C 55.9501,27.8821 56.06,27.5943 56.06,27.2579C 56.06,26.9215 55.9516,26.6367 55.7348,26.4033C 55.518,26.17 55.253,26.0533 54.94,26.0533 Z "/>
</svg>
