<?xml version="1.0" encoding="utf-8"?>
<!DOCTYPE svg PUBLIC "-//W3C//DTD SVG 1.1//EN" "http://www.w3.org/Graphics/SVG/1.1/DTD/svg11.dtd">
<svg xmlns="http://www.w3.org/2000/svg" xmlns:xlink="http://www.w3.org/1999/xlink" version="1.1" baseProfile="full" width="76" height="76" viewBox="0 0 76.00 76.00" enable-background="new 0 0 76.00 76.00" xml:space="preserve">
	<path fill="#000000" fill-opacity="0.701961" stroke-width="0.2" stroke-linejoin="round" d="M 36,37L 40,37L 45.034,44.3575L 43.4889,57L 36,57L 36,37 Z M 47.9928,20.1486L 46.1785,34.9932C 42.1855,34.8249 39,31.5345 39,27.5C 39,23.3579 42.3578,20 46.5,20C 47.0111,20 47.5104,20.0512 47.9928,20.1486 Z M 22.5,46L 25.7794,51.3876L 25.374,57L 19,57L 19,46L 22.5,46 Z M 26,36L 26.8839,36.098L 26.3139,43.9879L 26,44C 23.7908,44 22,42.2091 22,40C 22,37.7909 23.7908,36 26,36 Z "/>
	<path fill="#000000" fill-opacity="1" stroke-width="0.2" stroke-linejoin="round" d="M 46.5,35L 46.1785,34.9932L 47.9928,20.1486C 51.4198,20.8407 54,23.869 54,27.5C 54,31.6421 50.6421,35 46.5,35 Z M 45.034,44.3575L 46.5,46.5L 53,37L 57,37L 57,57L 43.4889,57L 45.034,44.3575 Z M 33,57L 25.374,57L 25.7794,51.3876L 26,51.75L 29.5,46L 33,46L 33,57 Z M 30,40C 30,42.1035 28.3763,43.8278 26.3139,43.9879L 26.8839,36.098C 28.6677,36.5003 30,38.0946 30,40 Z "/>
</svg>
