<?xml version="1.0" encoding="utf-8"?>
<!DOCTYPE svg PUBLIC "-//W3C//DTD SVG 1.1//EN" "http://www.w3.org/Graphics/SVG/1.1/DTD/svg11.dtd">
<svg xmlns="http://www.w3.org/2000/svg" xmlns:xlink="http://www.w3.org/1999/xlink" version="1.1" baseProfile="full" width="76" height="76" viewBox="0 0 76.00 76.00" enable-background="new 0 0 76.00 76.00" xml:space="preserve">
	<path fill="#000000" fill-opacity="1" stroke-width="0.2" stroke-linejoin="round" d="M 32.8527,37.0018C 31.5126,38.9265 29.9922,40.8059 27.0425,43.2683C 24.0916,45.7307 22.8401,47.4312 22.8401,49.9373C 22.8401,52.4438 24.2706,56.6063 28.3388,56.6063C 32.4065,56.6063 34.3732,55.7107 37.5918,55.7107C 40.8099,55.7107 42.9561,56.9642 47.0234,56.9642C 51.0915,56.9642 52.7901,53.1151 52.7901,50.609C 52.7901,48.1024 52.0842,46.6836 48.8254,43.8225C 46.7371,41.9876 44.9676,40.4934 42.1957,36.6439C 40.8252,34.7406 39.2452,34.4957 37.5918,34.4957C 35.9375,34.4957 34.1941,35.0774 32.8527,37.0018 Z M 33.3898,18.9641C 31.0693,18.9641 29.1883,21.5651 29.1883,24.7722C 29.1883,27.9792 31.0693,30.579 33.3898,30.579C 35.7103,30.579 37.5918,27.9792 37.5918,24.7722C 37.5918,21.5651 35.7103,18.9641 33.3898,18.9641 Z M 51.0586,30.3328C 48.6198,30.3691 46.6848,32.6884 46.7384,36.281C 46.7916,39.8732 48.809,41.511 51.2494,41.4747C 53.6869,41.4384 55.6228,39.7429 55.57,36.1491C 55.4995,31.4733 51.6425,30.3241 51.0586,30.3328 Z M 45.6229,19.7554C 43.3044,19.1637 40.7787,21.2286 39.9807,24.3664C 39.1814,27.5042 40.4135,30.5274 42.7315,31.1191C 45.0491,31.7104 47.5761,29.6463 48.3741,26.5081C 49.4127,22.424 46.1785,19.8968 45.6229,19.7554 Z M 29.1874,33.1461C 29.4133,36.3763 27.6624,39.1306 25.276,39.2976C 22.89,39.465 20.7721,36.9828 20.5462,33.7518C 20.3203,30.5216 22.0709,27.7673 24.4577,27.5995C 26.8441,27.4325 28.962,29.9155 29.1874,33.1461 Z "/>
</svg>
