<?xml version="1.0" encoding="utf-8"?>
<!DOCTYPE svg PUBLIC "-//W3C//DTD SVG 1.1//EN" "http://www.w3.org/Graphics/SVG/1.1/DTD/svg11.dtd">
<svg xmlns="http://www.w3.org/2000/svg" xmlns:xlink="http://www.w3.org/1999/xlink" version="1.1" baseProfile="full" width="76" height="76" viewBox="0 0 76.00 76.00" enable-background="new 0 0 76.00 76.00" xml:space="preserve">
	<path fill="#000000" fill-opacity="1" stroke-width="0.2" stroke-linejoin="round" d="M 29.2917,20.5834L 46.7083,20.5833C 48.4572,20.5833 50.6667,22.7928 50.6667,24.5417L 50.6667,46.7083C 50.6667,48.4572 48.4572,50.6667 46.7083,50.6667L 45.9167,50.6667L 45.9167,52.5667L 52.25,60.1667L 49.0833,60.1667L 43.8056,53.8333L 32.1944,53.8333L 26.9167,60.1667L 23.75,60.1667L 30.0833,52.5667L 30.0833,50.6667L 29.2917,50.6667C 27.5427,50.6667 25.3333,48.4573 25.3333,46.7083L 25.3333,24.5417C 25.3333,22.7928 27.5427,20.5834 29.2917,20.5834 Z M 34.8333,22.1667C 33.9588,22.1667 33.25,22.8756 33.25,23.7501C 33.25,24.6245 33.9588,25.3334 34.8333,25.3334L 41.1666,25.3334C 42.041,25.3334 42.7499,24.6245 42.7499,23.7501C 42.7499,22.8756 42.041,22.1667 41.1666,22.1667L 34.8333,22.1667 Z M 31.6666,26.9167C 29.9177,26.9167 28.5,28.3345 28.5,30.0834L 28.5,31.6667C 28.5,33.4156 29.9177,34.8334 31.6666,34.8334L 44.3333,34.8334C 46.0822,34.8334 47.4999,33.4156 47.4999,31.6667L 47.4999,30.0834C 47.4999,28.3345 46.0822,26.9167 44.3333,26.9167L 31.6666,26.9167 Z M 30.875,42.75C 29.5633,42.75 28.5,43.8133 28.5,45.125C 28.5,46.4367 29.5633,47.5 30.875,47.5C 32.1867,47.5 33.25,46.4367 33.25,45.125C 33.25,43.8133 32.1867,42.75 30.875,42.75 Z M 45.125,42.75C 43.8133,42.75 42.75,43.8133 42.75,45.125C 42.75,46.4367 43.8133,47.5 45.125,47.5C 46.4366,47.5 47.5,46.4367 47.5,45.125C 47.5,43.8133 46.4366,42.75 45.125,42.75 Z M 41.9583,14.25C 43.27,14.25 44.3333,15.3133 44.3333,16.625C 44.3333,17.9367 43.27,19 41.9583,19C 40.6466,19 39.5833,17.9367 39.5833,16.625C 39.5833,15.3133 40.6466,14.25 41.9583,14.25 Z M 34.0417,14.25C 35.3533,14.25 36.4167,15.3133 36.4167,16.625C 36.4167,17.9367 35.3533,19 34.0417,19C 32.73,19 31.6667,17.9367 31.6667,16.625C 31.6667,15.3133 32.73,14.25 34.0417,14.25 Z "/>
</svg>
