<?xml version="1.0" encoding="utf-8"?>
<!DOCTYPE svg PUBLIC "-//W3C//DTD SVG 1.1//EN" "http://www.w3.org/Graphics/SVG/1.1/DTD/svg11.dtd">
<svg xmlns="http://www.w3.org/2000/svg" xmlns:xlink="http://www.w3.org/1999/xlink" version="1.1" baseProfile="full" width="76" height="76" viewBox="0 0 76.00 76.00" enable-background="new 0 0 76.00 76.00" xml:space="preserve">
	<path fill="#000000" fill-opacity="1" stroke-width="0.2" stroke-linejoin="round" d="M 20.6759,29.1612C 22.4332,27.4039 25.2825,27.4039 27.0399,29.1612L 35.8787,38.0001L 29.5147,44.364L 20.6759,35.5252C 18.9185,33.7678 18.9185,30.9186 20.6759,29.1612 Z M 46.8388,48.9602C 48.5962,50.7175 48.5962,53.5668 46.8388,55.3241C 45.0815,57.0815 42.2322,57.0815 40.4748,55.3242L 38,52.8493L 44.3639,46.4853L 46.8388,48.9602 Z "/>
	<path fill="#000000" fill-opacity="0.803922" stroke-width="0.2" stroke-linejoin="round" d="M 29.1612,20.6759C 30.9185,18.9186 33.7678,18.9186 35.5251,20.6759L 38,23.1508L 31.636,29.5147L 29.1612,27.0399C 27.4038,25.2825 27.4038,22.4333 29.1612,20.6759 Z M 55.3241,40.4749C 57.0814,42.2322 57.0814,45.0815 55.3241,46.8388C 53.5667,48.5962 50.7175,48.5962 48.9601,46.8388L 40.1213,38L 46.4852,31.6361L 55.3241,40.4749 Z "/>
	<path fill="#000000" fill-opacity="0.403922" stroke-width="0.2" stroke-linejoin="round" d="M 20.6759,46.8388C 18.9185,45.0815 18.9185,42.2322 20.6759,40.4749L 23.1507,38L 29.5147,44.364L 27.0398,46.8388C 25.2825,48.5962 22.4332,48.5962 20.6759,46.8388 Z M 40.4748,20.6759C 42.2322,18.9186 45.0814,18.9186 46.8388,20.6759C 48.5961,22.4333 48.5961,25.2825 46.8388,27.0399L 38,35.8787L 31.636,29.5148L 40.4748,20.6759 Z "/>
	<path fill="#000000" fill-opacity="0.603922" stroke-width="0.2" stroke-linejoin="round" d="M 29.1612,55.3241C 27.4038,53.5667 27.4038,50.7175 29.1612,48.9601L 38,40.1214L 44.364,46.4853L 35.5251,55.3241C 33.7678,57.0815 30.9185,57.0815 29.1612,55.3241 Z M 48.9601,29.1612C 50.7175,27.4038 53.5667,27.4038 55.3241,29.1612C 57.0815,30.9185 57.0815,33.7678 55.3241,35.5251L 52.8492,38L 46.4853,31.636L 48.9601,29.1612 Z "/>
</svg>
