<?xml version="1.0" encoding="utf-8"?>
<!DOCTYPE svg PUBLIC "-//W3C//DTD SVG 1.1//EN" "http://www.w3.org/Graphics/SVG/1.1/DTD/svg11.dtd">
<svg xmlns="http://www.w3.org/2000/svg" xmlns:xlink="http://www.w3.org/1999/xlink" version="1.1" baseProfile="full" width="76" height="76" viewBox="0 0 76.00 76.00" enable-background="new 0 0 76.00 76.00" xml:space="preserve">
	<path fill="#000000" fill-opacity="1" stroke-width="0.2" stroke-linejoin="round" d="M 44.5,49C 44.5,52.0376 42.0376,54.5 39,54.5C 35.9624,54.5 33.5,52.0376 33.5,49C 33.5,46.3039 35.4399,44.0609 38,43.5907L 38,31L 40,31L 40,43.5907C 42.5601,44.061 44.5,46.3039 44.5,49 Z M 48,49C 48,53.9706 43.9705,58 39,58C 34.0294,58 30,53.9706 30,49C 30,45.4663 32.0365,42.4083 35,40.9356L 35,22.0001C 35,19.7909 36.7908,18.0001 39,18.0001C 41.2091,18.0001 43,19.7909 43,22.0001L 43,40.9355C 45.9634,42.4082 48,45.4663 48,49 Z M 37,42.2899C 34.1085,43.1505 32,45.829 32,49C 32,52.866 35.134,56 39,56C 42.866,56 45.9999,52.866 45.9999,49C 45.9999,45.829 43.8914,43.1505 41,42.2899L 41,22.0001C 41,20.8955 40.1045,20.0001 39,20.0001C 37.8954,20.0001 37,20.8955 37,22.0001L 37,42.2899 Z M 34,21L 34,22L 28,22L 28,21L 34,21 Z M 34,24L 34,25L 30,25L 30,24L 34,24 Z M 34,27L 34,28L 28,28L 28,27L 34,27 Z M 34,30L 34,31L 30,31L 30,30L 34,30 Z M 34,33L 34,34L 28,34L 28,33L 34,33 Z M 34,36L 34,37L 30,37L 30,36L 34,36 Z M 34,39L 34,40L 28,40L 28,39L 34,39 Z "/>
</svg>
