<?xml version="1.0" encoding="utf-8"?>
<!DOCTYPE svg PUBLIC "-//W3C//DTD SVG 1.1//EN" "http://www.w3.org/Graphics/SVG/1.1/DTD/svg11.dtd">
<svg xmlns="http://www.w3.org/2000/svg" xmlns:xlink="http://www.w3.org/1999/xlink" version="1.1" baseProfile="full" width="76" height="76" viewBox="0 0 76.00 76.00" enable-background="new 0 0 76.00 76.00" xml:space="preserve">
	<path fill="#000000" fill-opacity="1" stroke-width="0.2" stroke-linejoin="round" d="M 17,20L 59,20L 59,56L 17,56L 17,20 Z M 20,23L 20,53L 56,53L 56,23L 20,23 Z M 38,35.0313C 39.6396,35.0313 40.9688,36.3604 40.9688,38C 40.9688,39.6396 39.6396,40.9688 38,40.9688C 36.3604,40.9688 35.0313,39.6396 35.0313,38C 35.0313,36.3604 36.3604,35.0313 38,35.0313 Z M 38,30.0834C 44.9271,30.0834 50.8646,35.0313 50.8646,38C 50.8646,40.9688 44.9271,45.9167 38,45.9167C 31.0729,45.9167 25.1354,40.9688 25.1354,38C 25.1354,35.0313 31.0729,30.0834 38,30.0834 Z M 38,32.5573C 34.9941,32.5573 32.5573,34.9941 32.5573,38C 32.5573,41.0059 34.9941,43.4427 38,43.4427C 41.0059,43.4427 43.4427,41.0059 43.4427,38C 43.4427,34.9941 41.0059,32.5573 38,32.5573 Z M 29,26L 29,28L 25,28L 25,32L 23,32L 23,26L 29,26 Z M 53,26L 53,32L 51,32L 51,28L 47,28L 47,26L 53,26 Z M 53,50L 47,50L 47,48L 51,48L 51,44L 53,44L 53,50 Z M 23,50L 23,44L 25,44L 25,48L 29,48L 29,50L 23,50 Z "/>
</svg>
