<?xml version="1.0" encoding="utf-8"?>
<!DOCTYPE svg PUBLIC "-//W3C//DTD SVG 1.1//EN" "http://www.w3.org/Graphics/SVG/1.1/DTD/svg11.dtd">
<svg xmlns="http://www.w3.org/2000/svg" xmlns:xlink="http://www.w3.org/1999/xlink" version="1.1" baseProfile="full" width="76" height="76" viewBox="0 0 76.00 76.00" enable-background="new 0 0 76.00 76.00" xml:space="preserve">
	<path fill="#000000" fill-opacity="1" stroke-width="0.2" stroke-linejoin="round" d="M 22,17L 54,17C 56.6233,17 59,19.3767 59,22L 59,54C 59,56.6234 56.6233,59 54,59L 22,59C 19.3766,59 17,56.6234 17,54L 17,22C 17,19.3767 19.3766,17 22,17 Z M 31.8235,27.8033L 31.8235,49.0833L 37.651,49.0833C 38.9021,49.0833 39.9261,48.8824 40.7228,48.4807C 41.5195,48.0789 42.1985,47.4816 42.7597,46.6889C 43.321,45.8961 43.785,44.8193 44.1519,43.4585C 44.5187,42.0978 44.7022,40.4984 44.7022,38.6604C 44.7022,36.6192 44.5276,34.9113 44.1786,33.5366C 43.8295,32.162 43.3483,31.0444 42.7351,30.1839C 42.1218,29.3234 41.451,28.7115 40.7228,28.3483C 39.9945,27.985 38.9145,27.8033 37.4826,27.8033L 31.8235,27.8033 Z M 34.7146,31.35L 36.23,31.35C 37.5716,31.35 38.4764,31.4131 38.9446,31.5393C 39.5688,31.7056 40.0992,32.0519 40.5359,32.5784C 40.9726,33.1049 41.2943,33.8253 41.501,34.7397C 41.7077,35.654 41.8111,36.9055 41.8111,38.4941C 41.8111,40.0243 41.7098,41.2565 41.5072,42.1909C 41.3046,43.1253 41.0499,43.8095 40.7433,44.2436C 40.4367,44.6777 40.0417,45.0017 39.5585,45.2157C 39.0753,45.4297 38.2971,45.5367 37.2239,45.5367L 34.7146,45.5367L 34.7146,31.35 Z M 53.0416,53.8333L 50.7986,53.8333C 50.7986,53.8333 53.8333,49.4127 53.8333,49.0833L 53.8333,48.2916C 53.8333,47.8544 53.4789,47.5 53.0417,47.5L 49.0833,47.5C 48.6461,47.5 48.2916,47.8544 48.2916,48.2917C 48.2916,48.7289 48.6461,49.0833 49.0833,49.0833L 51.8542,49.0833C 51.8542,49.0833 48.2916,54.2956 48.2916,54.625C 48.2916,55.0622 48.646,55.4167 49.0833,55.4166L 53.0416,55.4167C 53.4788,55.4167 53.8333,55.0622 53.8333,54.625C 53.8333,54.1878 53.4788,53.8333 53.0416,53.8333 Z "/>
</svg>
