<?xml version="1.0" encoding="utf-8"?>
<!DOCTYPE svg PUBLIC "-//W3C//DTD SVG 1.1//EN" "http://www.w3.org/Graphics/SVG/1.1/DTD/svg11.dtd">
<svg xmlns="http://www.w3.org/2000/svg" xmlns:xlink="http://www.w3.org/1999/xlink" version="1.1" baseProfile="full" width="76" height="76" viewBox="0 0 76.00 76.00" enable-background="new 0 0 76.00 76.00" xml:space="preserve">
	<g>
		<path fill="#000000" fill-opacity="1" stroke-width="0.2" stroke-linejoin="round" d="M 12.1906,33.9467L 17.3016,41.8837L 12.0644,50.1178L 17.3332,50.1178L 18.7845,47.2077C 19.1736,46.4251 19.5627,45.6094 19.9518,44.7607L 20.0465,44.7607C 20.4145,45.5929 20.8142,46.4086 21.2453,47.2077L 22.7913,50.1178L 28.2178,50.1178L 23.0752,41.6522L 28.1547,33.9467L 22.949,33.9467L 21.5924,36.5927C 21.1928,37.3698 20.7931,38.1966 20.3935,39.0729L 20.3304,39.0729C 19.9255,38.2847 19.5049,37.4801 19.0684,36.6589L 17.554,33.9467L 12.1906,33.9467 Z "/>
		<path fill="#000000" fill-opacity="1" stroke-width="0.2" stroke-linejoin="round" d="M 33.0385,38.7725C 30.5336,39.8099 29.2575,41.638 29.21,44.2568C 29.1962,45.8129 29.8027,47.2119 31.0294,48.4539C 32.2561,49.6958 34.1858,50.3525 36.8183,50.4239C 39.2887,50.3924 41.2187,49.7678 42.6083,48.55C 43.998,47.3323 44.7046,45.7106 44.7284,43.6848C 44.6979,42.2878 44.3322,41.1369 43.6313,40.2319C 42.9305,39.327 42.0773,38.6723 41.0718,38.2678L 41.0718,38.1669C 42.1153,37.6132 42.8811,36.9122 43.3691,36.064C 43.8571,35.2159 44.0985,34.3131 44.0934,33.3556C 44.1127,31.9723 43.5887,30.7276 42.5214,29.6215C 41.454,28.5154 39.7268,27.9304 37.3399,27.8667C 35.2259,27.8889 33.5111,28.4355 32.1955,29.5066C 30.88,30.5777 30.2023,32.0401 30.1625,33.8939C 30.1619,34.864 30.4003,35.7668 30.8777,36.6024C 31.3551,37.4379 32.0754,38.1389 33.0385,38.7052L 33.0385,38.7725 Z M 37.0196,46.8139C 36.0524,46.7851 35.2951,46.4725 34.7476,45.876C 34.2002,45.2795 33.9286,44.5715 33.933,43.7521C 33.9386,42.9537 34.1706,42.271 34.6291,41.7039C 35.0877,41.1369 35.7391,40.7317 36.5835,40.4885C 37.5921,40.7541 38.4098,41.1817 39.0367,41.7712C 39.6636,42.3607 39.9865,43.1332 40.0054,44.0886C 39.9921,44.8792 39.7168,45.5269 39.1793,46.0316C 38.6419,46.5363 37.922,46.7971 37.0196,46.8139 Z M 37.1116,31.2022C 38.0179,31.2296 38.6756,31.5113 39.0846,32.0476C 39.4936,32.5838 39.6947,33.2105 39.6879,33.9275C 39.6695,34.6103 39.4535,35.1963 39.0397,35.6855C 38.626,36.1748 38.1246,36.5084 37.5356,36.6865C 36.67,36.4201 35.9635,36.0444 35.4159,35.5594C 34.8683,35.0743 34.5857,34.4631 34.568,33.7257C 34.568,33.0317 34.78,32.4429 35.2039,31.9593C 35.6278,31.4756 36.2637,31.2233 37.1116,31.2022 Z "/>
		<path fill="#000000" fill-opacity="1" stroke-width="0.2" stroke-linejoin="round" d="M 60.3314,27.8667C 59.9225,27.8104 59.2989,27.8216 58.4607,27.9003C 55.1233,28.0576 52.4035,29.125 50.3013,31.1025C 49.1786,32.209 48.2963,33.5887 47.6544,35.2417C 47.0126,36.8947 46.6854,38.7655 46.6731,40.8542C 46.6663,43.5914 47.3445,45.8594 48.7074,47.6582C 50.0704,49.4569 52.1585,50.3894 54.9719,50.4556C 57.2551,50.4031 59.0738,49.6389 60.4282,48.1629C 61.7826,46.6868 62.4757,44.8135 62.509,42.543C 62.4634,40.2153 61.8491,38.4309 60.666,37.1898C 59.4829,35.9487 58.0043,35.3222 56.2301,35.3103C 54.2435,35.3441 52.7204,35.9184 51.6609,37.0331L 51.5616,37.0331C 51.8222,35.7407 52.5012,34.6125 53.5988,33.6484C 54.6963,32.6844 56.3374,32.0942 58.522,31.8778C 59.2325,31.8047 59.8356,31.7823 60.3314,31.8104L 60.3314,27.8667 Z M 54.9057,46.7822C 53.7517,46.7427 52.8894,46.2875 52.319,45.4165C 51.7485,44.5456 51.4409,43.4958 51.3961,42.2673C 51.3905,41.6641 51.4678,41.2161 51.6278,40.9231C 51.8686,40.3587 52.2479,39.8935 52.766,39.5272C 53.284,39.161 53.8869,38.9715 54.5746,38.9586C 55.6499,38.9902 56.4542,39.375 56.9873,40.1132C 57.5205,40.8513 57.7867,41.7532 57.786,42.8187C 57.7756,43.979 57.5149,44.924 57.0039,45.6535C 56.4928,46.383 55.7934,46.7592 54.9057,46.7822 Z "/>
	</g>
</svg>
