<?xml version="1.0" encoding="utf-8"?>
<!DOCTYPE svg PUBLIC "-//W3C//DTD SVG 1.1//EN" "http://www.w3.org/Graphics/SVG/1.1/DTD/svg11.dtd">
<svg xmlns="http://www.w3.org/2000/svg" xmlns:xlink="http://www.w3.org/1999/xlink" version="1.1" baseProfile="full" width="76" height="76" viewBox="0 0 76.00 76.00" enable-background="new 0 0 76.00 76.00" xml:space="preserve">
	<path fill="#000000" fill-opacity="1" stroke-width="0.2" stroke-linejoin="round" d="M 14.25,50.6666L 14.25,23.75L 39.5833,23.75L 39.5833,31.6667L 45.9167,31.6667L 45.9167,42.75L 39.5833,42.75L 39.5833,50.6667L 14.25,50.6666 Z M 42.75,39.5834L 42.75,34.8334L 17.4166,34.8334L 17.4166,39.5834L 42.75,39.5834 Z M 36.4166,42.75L 17.4166,42.75L 17.4166,47.5L 36.4166,47.5L 36.4166,42.75 Z M 36.4166,31.6667L 36.4166,26.9167L 17.4166,26.9167L 17.4166,31.6667L 36.4166,31.6667 Z M 50.2708,42.3542L 54.625,38L 50.2708,33.6458L 52.6458,31.2708L 57,35.625L 61.3542,31.2708L 63.7291,33.6458L 59.375,38L 63.7292,42.3542L 61.3542,44.7292L 57,40.375L 52.6458,44.7292L 50.2708,42.3542 Z "/>
</svg>
