<?xml version="1.0" encoding="utf-8"?>
<!DOCTYPE svg PUBLIC "-//W3C//DTD SVG 1.1//EN" "http://www.w3.org/Graphics/SVG/1.1/DTD/svg11.dtd">
<svg xmlns="http://www.w3.org/2000/svg" xmlns:xlink="http://www.w3.org/1999/xlink" version="1.1" baseProfile="full" width="76" height="76" viewBox="0 0 76.00 76.00" enable-background="new 0 0 76.00 76.00" xml:space="preserve">
	<path fill="#000000" fill-opacity="1" stroke-width="0.2" stroke-linejoin="round" d="M 44.3333,59.375C 44.3333,60.6867 45.3967,61.75 46.7083,61.75L 63.3333,61.75L 55.4167,68.0833L 42.75,68.0833C 40.1267,68.0833 38,65.9567 38,63.3333L 38,42.75L 27.7083,42.75C 26.3967,42.75 25.3333,43.8133 25.3333,45.125C 25.3333,45.3875 25.3759,45.6401 25.3333,70.4583L 19,66.8958L 19,45.125C 19,43.8133 17.9367,42.75 16.625,42.75L 3.16667,42.75L 3.16667,36.4167L 16.625,36.4167C 17.9367,36.4167 19,35.3533 19,34.0417L 19,8.31258L 25.3333,5.14584L 25.3333,11.875C 25.3333,13.1768 26.3807,14.2342 27.7074,14.25L 63.3333,14.25L 68.4791,20.5834L 27.7083,20.5834C 26.3967,20.5834 25.3333,21.6467 25.3333,22.9584L 25.3333,34.0417C 25.3333,35.3533 26.3967,36.4167 27.7083,36.4167L 39.5833,36.4167C 42.2067,36.4167 44.3333,38.5433 44.3333,41.1667L 44.3333,59.375 Z "/>
</svg>
