<?xml version="1.0" encoding="utf-8"?>
<!DOCTYPE svg PUBLIC "-//W3C//DTD SVG 1.1//EN" "http://www.w3.org/Graphics/SVG/1.1/DTD/svg11.dtd">
<svg xmlns="http://www.w3.org/2000/svg" xmlns:xlink="http://www.w3.org/1999/xlink" version="1.1" baseProfile="full" width="48" height="48" viewBox="0 0 48.00 48.00" enable-background="new 0 0 48.00 48.00" xml:space="preserve">
	<path fill="#000000" d="M 15.1084,14.0795L 19.5353,14.0795L 25.7109,33.0832L 21.9883,33.0832L 20.269,27.6982L 14.2349,27.6982L 12.5994,33.0832L 9.01889,33.0832L 15.1084,14.0795 Z M 16.2648,20.3954L 14.7989,25.0761L 19.6765,25.0761L 18.1822,20.3954C 17.8154,19.2395 17.5054,17.9424 17.2235,16.843L 17.1673,16.843C 16.8851,17.9424 16.603,19.2676 16.2648,20.3954 Z M 26.9801,26.4292C 26.9801,22.6231 29.2922,19.042 33.6907,19.042C 38.1734,19.042 39.6117,22.7078 39.6117,25.7245C 39.6117,26.3726 39.5555,26.8804 39.4989,27.1904L 30.3075,27.1904C 30.3919,29.6721 32.3371,30.7428 34.5364,30.7428C 36.1435,30.7428 37.2996,30.518 38.343,30.123L 38.8505,32.5198C 37.6662,32.9986 36.0312,33.3938 34.0567,33.3938C 29.6022,33.3938 26.9801,30.6302 26.9801,26.4292 Z M 33.4933,21.4106C 31.3503,21.4106 30.4478,23.3559 30.3075,24.7655L 36.3412,24.7655C 36.3694,23.4971 35.805,21.4106 33.4933,21.4106 Z "/>
</svg>
