<?xml version="1.0" encoding="utf-8"?>
<!DOCTYPE svg PUBLIC "-//W3C//DTD SVG 1.1//EN" "http://www.w3.org/Graphics/SVG/1.1/DTD/svg11.dtd">
<svg xmlns="http://www.w3.org/2000/svg" xmlns:xlink="http://www.w3.org/1999/xlink" version="1.1" baseProfile="full" width="76" height="76" viewBox="0 0 76.00 76.00" enable-background="new 0 0 76.00 76.00" xml:space="preserve">
	<path fill="#000000" fill-opacity="1" stroke-width="0.2" stroke-linejoin="round" d="M 47.8958,57L 54.2292,49.0833L 60.5625,57L 47.8958,57 Z M 49.0833,58.5833L 60.1667,58.5833L 60.1667,60.1667L 49.0833,60.1667L 49.0833,58.5833 Z M 18.3161,31.982C 21.6397,21.1109 33.1469,14.9924 44.018,18.3161C 54.8891,21.6397 61.0076,33.1468 57.684,44.018C 57.2577,45.4122 56.6968,46.7283 56.0199,47.9563L 54.2291,45.5209L 45.2473,57.2663C 41.139,58.8151 36.5055,59.0669 31.982,57.6839C 21.1109,54.3603 14.9925,42.8531 18.3161,31.982 Z M 33.4576,36.6113C 32.6906,39.12 34.1026,41.7755 36.6113,42.5425C 39.12,43.3095 41.7755,41.8975 42.5425,39.3888C 43.3095,36.8801 41.8975,34.2246 39.3888,33.4576C 36.8801,32.6906 34.2246,34.1025 33.4576,36.6113 Z M 53.7188,30.499C 52.458,27.8589 50.5386,25.5398 48.1006,23.8055L 42.5912,31.548C 43.6994,32.3363 44.5718,33.3904 45.1449,34.5905L 53.7188,30.499 Z M 55.3879,36.9195C 55.3105,35.6774 55.0998,34.4566 54.766,33.2762L 45.6209,35.8528L 45.9036,37.5088L 55.3879,36.9195 Z M 22.0783,45.0603C 23.593,48.4721 26.1919,51.3851 29.5842,53.2524L 34.1746,44.9329C 32.6327,44.0842 31.4514,42.76 30.7629,41.2092L 22.0783,45.0603 Z "/>
</svg>
