<?xml version="1.0" encoding="utf-8"?>
<!DOCTYPE svg PUBLIC "-//W3C//DTD SVG 1.1//EN" "http://www.w3.org/Graphics/SVG/1.1/DTD/svg11.dtd">
<svg xmlns="http://www.w3.org/2000/svg" xmlns:xlink="http://www.w3.org/1999/xlink" version="1.1" baseProfile="full" width="76" height="76" viewBox="0 0 76.00 76.00" enable-background="new 0 0 76.00 76.00" xml:space="preserve">
	<path fill="#000000" fill-opacity="1" stroke-width="0.2" stroke-linejoin="round" d="M 46.7083,49.0833C 48.8945,49.0833 50.6667,50.8555 50.6667,53.0417C 50.6667,55.2278 48.8945,57 46.7083,57C 44.5222,57 42.75,55.2278 42.75,53.0417C 42.75,50.8555 44.5222,49.0833 46.7083,49.0833 Z M 46.7083,46.7083C 43.2105,46.7083 40.375,49.5439 40.375,53.0417C 40.375,56.5395 43.2105,59.375 46.7083,59.375C 50.2061,59.375 53.0417,56.5395 53.0417,53.0417C 53.0417,49.5439 50.2061,46.7083 46.7083,46.7083 Z M 46.7083,42.75C 52.3923,42.75 57,47.3577 57,53.0417C 57,58.7256 52.3923,63.3333 46.7083,63.3333C 41.0244,63.3333 36.4167,58.7256 36.4167,53.0417C 36.4167,47.3577 41.0244,42.75 46.7083,42.75 Z M 47.5,36.4167C 47.5,37.504 47.3904,38.5658 47.1816,39.5915L 46.7083,39.5833C 45.4057,39.5833 44.1462,39.7684 42.9548,40.1137C 43.1773,39.4341 43.3401,38.7275 43.437,38L 39.5833,38L 39.5833,34.8334L 43.437,34.8334C 42.7319,29.5415 38.5418,25.3514 33.25,24.6464L 33.25,28.5L 30.0833,28.5L 30.0833,24.6464C 24.7915,25.3514 20.6013,29.5415 19.8963,34.8334L 23.75,34.8334L 23.75,38L 19.8963,38C 20.6013,43.2919 24.7915,47.482 30.0833,48.1871L 30.0833,44.3333L 33.25,44.3333L 33.25,48.187L 34.2195,48.0166C 33.6974,49.313 33.3713,50.7094 33.2778,52.169L 31.6667,52.25C 22.9222,52.25 15.8333,45.1612 15.8333,36.4167C 15.8333,28.2065 22.0822,21.4559 30.0833,20.6615L 30.0833,19L 25.3333,19L 25.3333,14.25L 38,14.25L 38,19L 33.25,19L 33.25,20.6615C 36.4344,20.9777 39.3413,22.2374 41.6872,24.157L 42.8296,23.0146L 40.5904,20.7754L 43.9491,17.4167L 50.6667,24.1342L 47.3079,27.4929L 45.0687,25.2538L 43.9263,26.3962C 46.1599,29.1256 47.5,32.6147 47.5,36.4167 Z M 31.6666,33.2501C 33.4155,33.2501 34.8333,34.6678 34.8333,36.4167C 34.8333,38.1656 33.4155,39.5834 31.6666,39.5834L 25.3333,44.3334L 28.4999,36.4167C 28.4999,34.6678 29.9177,33.2501 31.6666,33.2501 Z "/>
</svg>
