<?xml version="1.0" encoding="utf-8"?>
<!DOCTYPE svg PUBLIC "-//W3C//DTD SVG 1.1//EN" "http://www.w3.org/Graphics/SVG/1.1/DTD/svg11.dtd">
<svg xmlns="http://www.w3.org/2000/svg" xmlns:xlink="http://www.w3.org/1999/xlink" version="1.1" baseProfile="full" width="76" height="76" viewBox="0 0 76.00 76.00" enable-background="new 0 0 76.00 76.00" xml:space="preserve">
	<path fill="#000000" fill-opacity="1" stroke-width="0.2" stroke-linejoin="round" d="M 54.2291,23.75L 59.375,23.75C 60.2494,23.75 60.9583,24.4589 60.9583,25.3334L 57,45.125C 57,45.9995 56.2911,46.7083 55.4167,46.7083L 53.4375,46.7083C 52.563,46.7083 51.8542,45.9995 51.8542,45.125L 52.6458,25.3334C 52.6458,24.4589 53.3547,23.75 54.2291,23.75 Z M 54.2292,53.8333L 51.8541,53.8333C 50.9797,53.8333 50.2708,53.1245 50.2708,52.25L 50.6666,50.6667C 50.6666,49.7922 51.3755,49.0833 52.25,49.0833L 54.625,49.0833C 55.4994,49.0833 56.2083,49.7922 56.2083,50.6667L 55.8125,52.25C 55.8125,53.1245 55.1036,53.8333 54.2292,53.8333 Z M 31.6667,23.75C 41.2856,23.75 49.0833,30.4844 49.0833,38.7917C 49.0833,47.0989 41.2856,53.8333 31.6667,53.8333C 22.0477,53.8333 14.25,47.0989 14.25,38.7917C 14.25,30.4844 22.0477,23.75 31.6667,23.75 Z M 27.7083,46.7083L 27.7083,49.0834L 37.2083,49.0834L 37.2083,46.7083L 34.0416,46.7083L 34.0416,42.75L 39.9791,35.625L 41.9583,35.625L 41.9583,33.25L 34.0417,33.25L 34.0417,35.625L 36.8125,35.625L 32.7083,40.0028L 28.1041,33.25L 30.875,33.25L 30.875,30.875L 22.9583,30.875L 22.9583,33.25L 24.9375,33.25L 30.875,42.75L 30.875,46.7083L 27.7083,46.7083 Z "/>
</svg>
