<?xml version="1.0" encoding="utf-8"?>
<!DOCTYPE svg PUBLIC "-//W3C//DTD SVG 1.1//EN" "http://www.w3.org/Graphics/SVG/1.1/DTD/svg11.dtd">
<svg xmlns="http://www.w3.org/2000/svg" xmlns:xlink="http://www.w3.org/1999/xlink" version="1.1" baseProfile="full" width="76" height="76" viewBox="0 0 76.00 76.00" enable-background="new 0 0 76.00 76.00" xml:space="preserve">
	<path fill="#000000" fill-opacity="0.85098" stroke-linejoin="round" d="M 30,57L 34,47L 32,38L 35,19C 35.9759,19 35.8555,18.75 37.9277,18.75C 40,18.75 39.9759,19 41,19L 44,38L 42,47L 46,57C 42,58 37.9276,58 37.9276,58C 37.9276,58 34,58 30,57 Z M 35,43L 35.5,43C 35.5,43 37.5,41 37.5,39C 37.5,37 36.5,37.5 36.5,36.5C 36.5,35 38.25,35 38.25,35C 38.25,35 40,35 40,36.5C 40,37.5 39,38 39,39C 39,40 39.5,43 40.5,43L 41,43L 42,38L 39.75,23.0001L 36.25,23.0001L 35.1133,30.2068C 35.3805,30.0744 35.6816,30 36,30C 37.1046,30 38,30.8954 38,32C 38,33.1046 37.1046,34 36,34C 35.4781,34 35.0029,33.8001 34.6467,33.4727L 34,38L 35,43 Z M 38,25C 38.5523,25 39,25.4478 39,26C 39,26.5523 38.5523,27 38,27C 37.4477,27 37,26.5523 37,26C 37,25.4478 37.4477,25 38,25 Z M 39,28C 39.5523,28 40,28.4477 40,29C 40,29.5523 39.5523,30 39,30C 38.4477,30 38,29.5523 38,29C 38,28.4477 38.4477,28 39,28 Z "/>
</svg>
