<?xml version="1.0" encoding="utf-8"?>
<!DOCTYPE svg PUBLIC "-//W3C//DTD SVG 1.1//EN" "http://www.w3.org/Graphics/SVG/1.1/DTD/svg11.dtd">
<svg xmlns="http://www.w3.org/2000/svg" xmlns:xlink="http://www.w3.org/1999/xlink" version="1.1" baseProfile="full" width="76" height="76" viewBox="0 0 76.00 76.00" enable-background="new 0 0 76.00 76.00" xml:space="preserve">
	<path fill="#000000" fill-opacity="1" stroke-width="0.2" stroke-linejoin="round" d="M 23.75,22.1667L 28.5,22.1667L 28.5,30.0833L 23.75,30.0833L 23.75,22.1667 Z M 45.9167,22.1667L 50.6667,22.1667L 50.6667,30.0833L 45.9167,30.0833L 45.9167,22.1667 Z M 48.6875,11.0834C 36.0208,25.3334 36.0208,39.5834 36.0208,39.5834L 45.5208,39.5834C 44.3082,42.8169 43.8179,45.1557 43.7601,48.0248C 47.8182,47.6309 50.9982,46.5426 55.4166,44.3334L 57,47.5C 57,47.5 52.3454,50.548 43.8266,51.4646C 44.3144,58.4513 47.1041,63.3333 47.1041,63.3333L 44.3333,64.9167C 41.5658,60.7654 40.6123,55.8583 40.4159,51.6486C 34.3242,52.001 27.1168,51.1626 19.7917,47.5L 21.375,44.3334C 21.375,44.3334 29.5225,48.6011 40.3854,48.1736C 40.4788,44.0901 41.1666,42.75 41.1666,42.75L 31.6667,42.75C 31.6667,42.75 31.6667,24.1458 45.125,9.89585L 48.6875,11.0834 Z "/>
</svg>
