<?xml version="1.0" encoding="utf-8"?>
<!DOCTYPE svg PUBLIC "-//W3C//DTD SVG 1.1//EN" "http://www.w3.org/Graphics/SVG/1.1/DTD/svg11.dtd">
<svg xmlns="http://www.w3.org/2000/svg" xmlns:xlink="http://www.w3.org/1999/xlink" version="1.1" baseProfile="full" width="76" height="76" viewBox="0 0 76.00 76.00" enable-background="new 0 0 76.00 76.00" xml:space="preserve">
	<path fill="#000000" fill-opacity="1" stroke-width="0.2" stroke-linejoin="round" d="M 15,23L 61,23L 61,53L 15,53L 15,23 Z M 18,26L 18,50L 58,50L 58,26L 18,26 Z M 26,48L 32.0833,41.3333L 35.25,44.5L 47.9167,31.8333L 52.6667,36.5833L 56,33L 56,48L 26,48 Z M 36.07,31.8956L 33.2317,32.25L 35.23,34.3598L 33.3761,35.61L 31.9816,33.0047L 30.5837,35.61L 28.72,34.3598L 30.7281,32.25L 27.8802,31.8956L 28.6183,29.94L 31.24,30.99L 30.8203,28.05L 33.13,28.05L 32.71,30.99L 35.312,29.94L 36.07,31.8956 Z M 23.456,28.7595L 23.9443,28.5354C 22.515,30.6846 22.2556,33.5218 23.5109,35.9854C 24.7661,38.449 27.2139,39.9067 29.7928,40.0137L 29.3244,40.277C 26.144,41.8975 22.252,40.6329 20.6315,37.4525C 19.011,34.272 20.2755,30.3801 23.456,28.7595 Z "/>
</svg>
