<?xml version="1.0" encoding="utf-8"?>
<!DOCTYPE svg PUBLIC "-//W3C//DTD SVG 1.1//EN" "http://www.w3.org/Graphics/SVG/1.1/DTD/svg11.dtd">
<svg xmlns="http://www.w3.org/2000/svg" xmlns:xlink="http://www.w3.org/1999/xlink" version="1.1" baseProfile="full" width="76" height="76" viewBox="0 0 76.00 76.00" enable-background="new 0 0 76.00 76.00" xml:space="preserve">
	<path fill="#000000" fill-opacity="1" stroke-width="0.2" stroke-linejoin="round" d="M 48.0542,39.5833L 53.0417,44.5708L 58.0291,39.5834L 60.1666,41.7209L 55.1792,46.7083L 60.1667,51.6958L 58.0292,53.8333L 53.0417,48.8458L 48.0542,53.8333L 45.9167,51.6958L 50.9042,46.7083L 45.9167,41.7208L 48.0542,39.5833 Z M 23.7499,23.7501L 26.9166,23.7501L 26.9166,33.25L 23.75,33.2501L 23.7499,23.7501 Z M 28.4999,25.3335L 31.6666,25.3335L 31.6666,39.5835L 28.5,39.5834L 26.9166,41.1667L 26.9166,50.6667L 23.7499,50.6667L 23.75,41.1667L 22.1666,39.5834L 18.9999,39.5835L 18.9999,25.3335L 22.1666,25.3335L 22.1666,34.8334L 22.9583,34.8335L 27.7083,34.8334L 28.5,34.8334L 28.4999,25.3335 Z M 28.5,47.5001L 28.5,44.3334L 45.6792,44.3334L 48.0541,46.7083L 47.2624,47.5001L 39.5833,47.5L 39.5833,50.6667L 43.5416,50.6667L 44.3333,53.8334L 31.6667,53.8334L 32.4583,50.6667L 36.4166,50.6667L 36.4166,47.5L 28.5,47.5001 Z M 49.0833,30.0834L 33.25,30.0834L 33.25,26.9167L 53.8333,26.9167L 53.8332,40.9293L 53.0416,41.7209L 49.0833,37.7625L 49.0833,30.0834 Z "/>
</svg>
