<?xml version="1.0" encoding="utf-8"?>
<!DOCTYPE svg PUBLIC "-//W3C//DTD SVG 1.1//EN" "http://www.w3.org/Graphics/SVG/1.1/DTD/svg11.dtd">
<svg xmlns="http://www.w3.org/2000/svg" xmlns:xlink="http://www.w3.org/1999/xlink" version="1.1" baseProfile="full" width="76" height="76" viewBox="0 0 76.00 76.00" enable-background="new 0 0 76.00 76.00" xml:space="preserve">
	<path fill="#000000" fill-opacity="1" stroke-width="0.2" stroke-linejoin="round" d="M 22.1667,23.75L 47.0692,23.75L 58.9209,35.6017C 60.1575,36.8384 60.1575,38.8434 58.9209,40.08L 47.1468,52.25L 22.1667,52.25C 20.4178,52.25 19,50.8322 19,49.0833L 19,26.9167C 19,25.1678 20.4178,23.75 22.1667,23.75 Z M 24.6296,26.9167C 23.2694,26.9167 22.1667,28.0194 22.1667,29.3796L 22.1667,46.6204C 22.1667,47.9806 23.2694,49.0833 24.6296,49.0833L 45.125,49.0833L 54.7996,39.6178C 55.7614,38.656 55.7614,37.0965 54.7995,36.1347L 45.125,26.9167L 24.6296,26.9167 Z M 40.4314,45.8369L 34.8335,40.239L 29.2355,45.8369L 26.9963,43.5977L 32.5943,37.9998L 26.9964,32.4019L 29.2356,30.1627L 34.8335,35.7606L 40.4314,30.1628L 42.6705,32.4019L 37.0726,37.9998L 42.6706,43.5978L 40.4314,45.8369 Z "/>
</svg>
