<?xml version="1.0" encoding="utf-8"?>
<!DOCTYPE svg PUBLIC "-//W3C//DTD SVG 1.1//EN" "http://www.w3.org/Graphics/SVG/1.1/DTD/svg11.dtd">
<svg xmlns="http://www.w3.org/2000/svg" xmlns:xlink="http://www.w3.org/1999/xlink" version="1.1" baseProfile="full" width="76" height="76" viewBox="0 0 76.00 76.00" enable-background="new 0 0 76.00 76.00" xml:space="preserve">
	<path fill="#000000" fill-opacity="1" stroke-width="0.2" stroke-linejoin="round" d="M 30,28L 30,48L 40,38L 30,28 Z M 56,43L 43,43L 43,55L 56,55L 56,43 Z M 59,55L 68.6014,55C 70.6326,51.3515 72.0302,47.3019 72.6455,43L 59,43L 59,55 Z M 43,38L 73,38C 73,36.3024 72.8791,34.633 72.6455,33L 43,33L 43,38 Z M 43,29L 71.832,29C 71.375,27.2776 70.7899,25.6073 70.0877,24L 43,24L 43,29 Z M 43,19L 67.3988,19C 66.2427,17.2147 64.9283,15.5415 63.4756,14L 43,14L 43,19 Z M 35,67L 38,67L 38,43L 35,46L 35,67 Z M 35,30L 38,33L 38,9.00001L 35,9.00001L 35,30 Z "/>
</svg>
