<?xml version="1.0" encoding="utf-8"?>
<!DOCTYPE svg PUBLIC "-//W3C//DTD SVG 1.1//EN" "http://www.w3.org/Graphics/SVG/1.1/DTD/svg11.dtd">
<svg xmlns="http://www.w3.org/2000/svg" xmlns:xlink="http://www.w3.org/1999/xlink" version="1.1" baseProfile="full" width="76" height="76" viewBox="0 0 76.00 76.00" enable-background="new 0 0 76.00 76.00" xml:space="preserve">
	<path fill="#000000" fill-opacity="1" stroke-width="0.2" stroke-linejoin="round" d="M 24,31C 24,32.1046 23.3284,33 22.5,33C 21.6716,33 21,32.1046 21,31C 21,29.8955 21.6716,29 22.5,29C 23.3284,29 24,29.8955 24,31 Z M 73,38C 73,57.33 57.33,73 38,73C 18.67,73 3,57.33 3,38C 3,18.67 18.67,3.00002 38,3.00002C 57.3299,3.00002 73,18.6701 73,38 Z M 22,26.0001C 19.2386,26.0001 17,28.2387 17,31.0001L 17,45.0001C 17,47.7615 19.2386,50.0001 22,50.0001L 33.2316,50.0001C 33.3923,48.5774 33.6626,46.7702 34.1154,44.8522C 31.1907,44.2177 29,41.6147 29,38.5C 29,34.9102 31.9101,32 35.5,32C 37.2666,32 38.8686,32.7048 40.0402,33.8485C 41.1646,32.9855 42.468,32.3696 43.9792,32.1075C 42.4693,30.9173 41.5,29.0718 41.5,27C 41.5,25.8018 41.8242,24.6792 42.3897,23.7154C 41.5176,22.1415 39.8181,21 38,21L 32,21C 29.3767,21 27,23.3766 27,26L 22,26.0001 Z M 44.7499,34C 44.75,34 34.75,33 35,53.5L 38.25,54.25C 38.25,54.25 38.75,46.75 40.75,42.75L 40.75,55.25C 40.75,55.25 44.5,57 48.5,56.9686C 52.5,56.9371 56,55.25 56,55.25L 55.9999,42.75C 57.9999,46.75 58.5,54.25 58.5,54.25L 61.75,53.5C 62,33 52,34 52,34L 44.7499,34 Z M 43,27C 43,29.7614 45.2386,32 48,32C 50.7614,32 53,29.7614 53,27C 53,24.2386 50.7614,22 48,22C 45.2386,22 43,24.2386 43,27 Z "/>
</svg>
