<?xml version="1.0" encoding="utf-8"?>
<!DOCTYPE svg PUBLIC "-//W3C//DTD SVG 1.1//EN" "http://www.w3.org/Graphics/SVG/1.1/DTD/svg11.dtd">
<svg xmlns="http://www.w3.org/2000/svg" xmlns:xlink="http://www.w3.org/1999/xlink" version="1.1" baseProfile="full" width="76.0106" height="76.0106" viewBox="0 0 76.01 76.01" enable-background="new 0 0 76.01 76.01" xml:space="preserve">
	<path fill="#000000" fill-opacity="1" stroke-width="0.2" stroke-linejoin="round" d="M 26.9204,19.0027L 28.504,19.0027C 29.3785,19.0027 30.0875,19.7116 30.0875,20.5862L 30.0875,55.4244C 30.0875,56.299 29.3785,57.008 28.504,57.008L 26.9204,57.008C 26.0459,57.008 25.3369,56.299 25.3369,55.4244L 25.3369,20.5862C 25.3369,19.7116 26.0459,19.0027 26.9204,19.0027 Z M 31.6711,23.7533C 33.2546,22.6976 34.8382,21.6419 37.4775,21.9059C 40.1167,22.1698 43.8117,23.7535 46.7148,23.7535C 49.618,23.7535 51.7294,22.1698 53.8408,20.5862L 53.8408,34.838C 51.7294,36.4216 49.618,38.0052 46.7148,38.0052C 43.8117,38.0052 40.1167,36.4216 37.4775,36.1576C 34.8382,35.8937 33.2546,36.9494 31.6711,38.0051L 31.6711,23.7533 Z "/>
</svg>
