<?xml version="1.0" encoding="utf-8"?>
<!DOCTYPE svg PUBLIC "-//W3C//DTD SVG 1.1//EN" "http://www.w3.org/Graphics/SVG/1.1/DTD/svg11.dtd">
<svg xmlns="http://www.w3.org/2000/svg" xmlns:xlink="http://www.w3.org/1999/xlink" version="1.1" baseProfile="full" width="76" height="76" viewBox="0 0 76.00 76.00" enable-background="new 0 0 76.00 76.00" xml:space="preserve">
	<path fill="#000000" fill-opacity="1" stroke-linejoin="round" d="M 58,49L 44.3346,49L 37.9952,59.9575L 31.6558,49L 18.9279,49L 25.2919,38L 18.9279,27L 31.6558,27L 37.9952,16.0425L 44.3346,27L 57.0625,27L 50.6985,38L 58,49 Z M 29.3417,45L 27.6024,41.9938L 25.8632,45L 29.3417,45 Z M 39.7134,27L 37.9952,24.0301L 36.277,27L 39.7134,27 Z M 46.6487,45L 50.1271,45L 48.3879,41.9938L 46.6487,45 Z M 33.9628,45L 42.0275,45L 46.0773,38L 42.0275,31L 33.9628,31L 29.913,38L 33.9628,45 Z M 25.8632,31L 27.6024,34.0062L 29.3417,31L 25.8632,31 Z M 50.1271,31L 46.6487,31L 48.3879,34.0062L 50.1271,31 Z M 39.7134,49L 36.277,49L 37.9952,51.9699L 39.7134,49 Z "/>
</svg>
