<?xml version="1.0" encoding="utf-8"?>
<!DOCTYPE svg PUBLIC "-//W3C//DTD SVG 1.1//EN" "http://www.w3.org/Graphics/SVG/1.1/DTD/svg11.dtd">
<svg xmlns="http://www.w3.org/2000/svg" xmlns:xlink="http://www.w3.org/1999/xlink" version="1.1" baseProfile="full" width="76" height="76" viewBox="0 0 76.00 76.00" enable-background="new 0 0 76.00 76.00" xml:space="preserve">
	<path fill="#000000" fill-opacity="1" stroke-width="0.2" stroke-linejoin="round" d="M 30.875,22.9583C 35.6845,22.9583 39.5833,27.5247 39.5833,33.6458C 39.5833,39.767 35.6845,44.3333 30.875,44.3333C 26.0655,44.3333 22.1667,39.767 22.1667,33.6458C 22.1667,27.5247 26.0655,22.9583 30.875,22.9583 Z M 30.875,27.7084C 28.6889,27.7084 27.3125,30.1481 27.3125,33.6459C 27.3125,37.1437 28.6889,39.5834 30.875,39.5834C 33.0611,39.5834 34.4375,37.1437 34.4375,33.6459C 34.4375,30.1481 33.0611,27.7084 30.875,27.7084 Z M 28.8958,49.875L 30.875,45.9167C 33.6162,45.9167 36.1072,44.5976 37.9516,42.4471L 41.1315,48.3796L 58.1875,44.7292L 53.8333,55.4167L 15.8333,55.4167L 15.8333,31.6668C 15.8333,23.7967 22.2132,17.4168 30.0833,17.4168L 53.8333,17.4167L 53.8333,25.6612C 53.0783,25.4476 52.2817,25.3333 51.4583,25.3333L 50.6666,25.3689L 50.6666,20.5834L 37.9998,20.5836L 34.8323,20.5834L 30.0832,20.5836C 23.9621,20.5836 18.9999,25.5457 18.9999,31.6669L 19,36.4167L 18.9999,39.5836L 19,52.25L 34.9652,52.25L 28.8958,49.875 Z M 41.0778,34.9222L 41.1666,34.8334L 56.8314,43.3418L 41.8791,46.3125L 39.1927,40.7109C 40.1818,39.0435 40.8479,37.0675 41.0778,34.9222 Z M 51.4583,26.9167C 55.3933,26.9167 58.5833,30.1067 58.5833,34.0417C 58.5833,36.761 57.06,39.1244 54.8201,40.3253L 44.3746,34.6517L 44.3333,34.0417C 44.3333,30.1067 47.5233,26.9167 51.4583,26.9167 Z M 54.6249,32.0626L 51.8541,34.0417L 49.4791,29.2917L 48.2916,30.875L 51.8541,36.0208L 55.4166,33.6459L 54.6249,32.0626 Z "/>
</svg>
