<?xml version="1.0" encoding="utf-8"?>
<!DOCTYPE svg PUBLIC "-//W3C//DTD SVG 1.1//EN" "http://www.w3.org/Graphics/SVG/1.1/DTD/svg11.dtd">
<svg xmlns="http://www.w3.org/2000/svg" xmlns:xlink="http://www.w3.org/1999/xlink" version="1.1" baseProfile="full" width="76" height="76" viewBox="0 0 76.00 76.00" enable-background="new 0 0 76.00 76.00" xml:space="preserve">
	<path fill="#000000" fill-opacity="1" stroke-linejoin="round" d="M 22.5223,26.7985C 24.989,26.4956 27.3434,29.1385 27.7809,32.7016C 28.2184,36.2647 26.5733,39.3987 24.1066,39.7016C 21.6398,40.0044 19.2855,37.3615 18.848,33.7984C 18.4105,30.2353 20.0555,27.1013 22.5223,26.7985 Z M 33.0644,18C 35.5497,18 37.5644,21.5817 37.5644,26C 37.5644,30.4183 35.5497,34 33.0644,34C 30.5791,34 28.5644,30.4183 28.5644,26C 28.5644,21.5817 30.5791,18 33.0644,18 Z M 44.8725,19.5195C 47.3517,19.6929 49.1117,23.4064 48.8035,27.8139C 48.4953,32.2214 46.2356,35.6539 43.7564,35.4805C 41.2772,35.3072 39.5172,31.5936 39.8254,27.1861C 40.1336,22.7786 42.3933,19.3461 44.8725,19.5195 Z M 54.4882,29.3946C 56.829,29.935 58.0217,33.4268 57.152,37.1937C 56.2824,40.9606 53.6797,43.5762 51.3388,43.0358C 48.998,42.4953 47.8053,39.0035 48.675,35.2366C 49.5447,31.4697 52.1473,28.8542 54.4882,29.3946 Z M 36.0644,55.5C 36.0644,55.5 28.8144,57 26.8144,57C 24.8144,57 20.0644,55.5 20.0644,50.5C 20.0644,44.5 25.0644,45.5 28.0644,42.5C 31.0644,39.5 31.0644,35.5 37.0644,35.5C 43.0644,35.5 44.0644,40.5 47.0644,43.5C 50.0644,46.5 54.0644,47.25 54.0644,51.25C 54.0644,55.25 51.0644,57 46.0644,57C 41.0644,57 43.0644,55.5 36.0644,55.5 Z "/>
</svg>
