<?xml version="1.0" encoding="utf-8"?>
<!DOCTYPE svg PUBLIC "-//W3C//DTD SVG 1.1//EN" "http://www.w3.org/Graphics/SVG/1.1/DTD/svg11.dtd">
<svg xmlns="http://www.w3.org/2000/svg" xmlns:xlink="http://www.w3.org/1999/xlink" version="1.1" baseProfile="full" width="76" height="76" viewBox="0 0 76.00 76.00" enable-background="new 0 0 76.00 76.00" xml:space="preserve">
	<path fill="#000000" fill-opacity="1" stroke-linejoin="round" d="M 40,38L 40,48L 36,48L 36,38L 34,38C 32.3431,38 31,36.6569 31,35L 31,28L 34,28L 34,24L 37,24L 37,28L 39,28L 39,24L 42,24L 42,28L 45,28L 45,35C 45,36.6569 43.6568,38 42,38L 40,38 Z M 59,34L 59,42L 56,42L 56,48L 41,48L 41,44L 52,44L 52,32L 46,32L 46,28L 56,28L 56,34L 59,34 Z M 24,32L 24,44L 35,44L 35,48L 20,48L 20,28L 30,28L 30,32L 24,32 Z "/>
</svg>
