<?xml version="1.0" encoding="utf-8"?>
<!DOCTYPE svg PUBLIC "-//W3C//DTD SVG 1.1//EN" "http://www.w3.org/Graphics/SVG/1.1/DTD/svg11.dtd">
<svg xmlns="http://www.w3.org/2000/svg" xmlns:xlink="http://www.w3.org/1999/xlink" version="1.1" baseProfile="full" width="76.0106" height="76.0106" viewBox="0 0 76.01 76.01" enable-background="new 0 0 76.01 76.01" xml:space="preserve">
	<path fill="#000000" fill-opacity="1" stroke-width="0.2" stroke-linejoin="round" d="M 38.0053,19.0027C 48.5002,19.0027 57.008,27.5104 57.008,38.0053C 57.008,48.5002 48.5002,57.008 38.0053,57.008C 27.5104,57.008 19.0027,48.5002 19.0027,38.0053C 19.0027,27.5104 27.5104,19.0027 38.0053,19.0027 Z M 38.0053,28.504C 32.7579,28.504 28.504,32.7579 28.504,38.0053C 28.504,43.2528 32.7579,47.5066 38.0053,47.5066C 43.2527,47.5066 47.5066,43.2528 47.5066,38.0053C 47.5066,32.7579 43.2527,28.504 38.0053,28.504 Z M 38.0053,20.9821C 35.6305,20.9821 33.3668,21.4573 31.3039,22.3178L 33.7408,27.7705C 35.0535,27.2228 36.4941,26.9204 38.0053,26.9204C 39.5165,26.9204 40.9571,27.2228 42.2698,27.7705L 44.7067,22.3178C 42.6438,21.4573 40.3801,20.9821 38.0053,20.9821 Z M 26.9204,38.0053C 26.9204,36.4941 27.2228,35.0535 27.7704,33.7408L 22.3178,31.3039C 21.4572,33.3668 20.982,35.6306 20.982,38.0053C 20.982,40.3801 21.4572,42.6438 22.3178,44.7067L 27.7704,42.2698C 27.2228,40.9571 26.9204,39.5165 26.9204,38.0053 Z M 55.0285,38.0053C 55.0285,35.6306 54.5533,33.3668 53.6928,31.3039L 48.2401,33.7408C 48.7878,35.0535 49.0902,36.4941 49.0902,38.0053C 49.0902,39.5165 48.7878,40.9571 48.2402,42.2698L 53.6928,44.7067C 54.5533,42.6438 55.0285,40.3801 55.0285,38.0053 Z M 38.0053,55.0286C 40.38,55.0286 42.6438,54.5534 44.7067,53.6929L 42.2698,48.2402C 40.9571,48.7878 39.5165,49.0902 38.0053,49.0902C 36.4941,49.0902 35.0535,48.7878 33.7408,48.2402L 31.3039,53.6929C 33.3668,54.5534 35.6305,55.0286 38.0053,55.0286 Z "/>
</svg>
