<?xml version="1.0" encoding="utf-8"?>
<!DOCTYPE svg PUBLIC "-//W3C//DTD SVG 1.1//EN" "http://www.w3.org/Graphics/SVG/1.1/DTD/svg11.dtd">
<svg xmlns="http://www.w3.org/2000/svg" xmlns:xlink="http://www.w3.org/1999/xlink" version="1.1" baseProfile="full" width="76" height="76" viewBox="0 0 76.00 76.00" enable-background="new 0 0 76.00 76.00" xml:space="preserve">
	<path fill="#000000" fill-opacity="1" stroke-width="0.2" stroke-linejoin="round" d="M 17.4167,17.4167L 58.5833,17.4167L 58.5833,55.4167L 17.4167,55.4167L 17.4167,17.4167 Z M 20.5833,20.5834L 20.5833,37.9999L 55.4166,37.9999L 55.4166,20.5834L 20.5833,20.5834 Z M 20.5833,52.25L 55.4166,52.25L 55.4166,49.0832L 20.5833,49.0832L 20.5833,52.25 Z M 55.4166,44.3332L 20.5833,44.3332L 20.5833,47.4999L 55.4166,47.4999L 55.4166,44.3332 Z M 55.4166,39.5832L 20.5833,39.5832L 20.5833,42.7499L 55.4166,42.7499L 55.4166,39.5832 Z M 27.0011,34.8333L 24.7844,34.8333L 24.7844,23.8978L 27.0011,23.8978L 27.0011,34.8333 Z M 30.0306,26.2622C 29.6626,26.2622 29.3613,26.1472 29.1266,25.917C 28.8918,25.6869 28.7744,25.404 28.7744,25.0685C 28.7744,24.7252 28.8918,24.4443 29.1266,24.2257C 29.3613,24.0071 29.6626,23.8978 30.0306,23.8978C 30.4031,23.8978 30.7056,24.0071 30.938,24.2257C 31.1704,24.4443 31.2867,24.7252 31.2867,25.0685C 31.2867,25.4179 31.1704,25.7042 30.938,25.9274C 30.7056,26.1506 30.4031,26.2622 30.0306,26.2622 Z M 31.1389,34.8333L 28.9222,34.8333L 28.9222,27.4445L 31.1389,27.4445L 31.1389,34.8333 Z M 32.4689,34.5817L 32.4689,32.6167L 33.6107,33.1732L 34.6855,33.3556L 35.66,33.2124C 35.897,33.117 36.0155,32.9723 36.0155,32.7783L 35.8539,32.4204L 35.4394,32.1699L 34.8853,31.9771L 34.3046,31.7831L 33.5149,31.4287L 32.9422,30.9877L 32.5901,30.4081L 32.4689,29.6288C 32.4689,29.2193 32.5609,28.8664 32.7448,28.5701C 32.9288,28.2738 33.1735,28.0317 33.4791,27.8439L 34.5297,27.4294L 35.7616,27.2967L 36.7752,27.3729L 37.7889,27.5945L 37.7889,29.3656L 36.8283,29.0331L 35.8216,28.9222L 35.3852,28.9557L 35.0227,29.0538L 34.7756,29.2201L 34.6855,29.451L 34.8195,29.795L 35.1693,30.0421L 35.6484,30.228L 36.1726,30.3954L 37.02,30.7383L 37.67,31.1747L 38.0867,31.7623L 38.2322,32.5636C 38.2322,32.9977 38.1356,33.3683 37.9424,33.6754C 37.7492,33.9825 37.4926,34.2326 37.1724,34.4258L 36.0652,34.8483L 34.7641,34.9811C 33.9374,34.9811 33.1724,34.848 32.4689,34.5817 Z M 43.8478,34.6856C 43.5184,34.8826 43.0227,34.9811 42.3608,34.9811C 40.7906,34.9811 40.0056,34.1429 40.0056,32.4666L 40.0056,29.07L 38.8233,29.07L 38.8233,27.4444L 40.0056,27.4444L 40.0056,25.8697L 42.2222,25.2278L 42.2222,27.4444L 43.8478,27.4444L 43.8478,29.07L 42.2222,29.07L 42.2222,32.0533C 42.2222,32.8229 42.5216,33.2078 43.1204,33.2078L 43.8478,33.06L 43.8478,34.6856 Z "/>
</svg>
