<?xml version="1.0" encoding="utf-8"?>
<!DOCTYPE svg PUBLIC "-//W3C//DTD SVG 1.1//EN" "http://www.w3.org/Graphics/SVG/1.1/DTD/svg11.dtd">
<svg xmlns="http://www.w3.org/2000/svg" xmlns:xlink="http://www.w3.org/1999/xlink" version="1.1" baseProfile="full" width="69.6667" height="69.6667" viewBox="0 0 69.67 69.67" enable-background="new 0 0 69.67 69.67" xml:space="preserve">
	<path fill="#000000" fill-opacity="1" stroke-width="0.2" stroke-linejoin="round" d="M 34.8333,-3.8147e-006C 54.0712,-3.8147e-006 69.6667,15.5954 69.6667,34.8333C 69.6667,54.0713 54.0713,69.6667 34.8333,69.6667C 15.5954,69.6667 0,54.0713 0,34.8333C 0,15.5954 15.5954,-3.8147e-006 34.8333,-3.8147e-006 Z M 45.9186,15.8307L 30.0831,15.8307L 17.4167,36.4167L 28.5,36.4167L 18.9982,57L 44.3333,31.6667L 31.6667,31.6667L 45.9186,15.8307 Z M 47.7719,46.4722L 48.9832,50.6522L 52.8259,50.6522L 47.935,35.1223L 43.2761,35.1223L 38.5007,50.6522L 42.158,50.6522L 43.2761,46.4722L 47.7719,46.4722 Z M 43.7886,43.9467L 44.7204,40.6861L 45.0902,39.1608L 45.4425,37.6477L 45.4891,37.6477L 45.8676,39.1472L 46.2811,40.647L 47.2595,43.9467L 43.7886,43.9467 Z "/>
</svg>
