<?xml version="1.0" encoding="utf-8"?>
<!DOCTYPE svg PUBLIC "-//W3C//DTD SVG 1.1//EN" "http://www.w3.org/Graphics/SVG/1.1/DTD/svg11.dtd">
<svg xmlns="http://www.w3.org/2000/svg" xmlns:xlink="http://www.w3.org/1999/xlink" version="1.1" baseProfile="full" width="76" height="76" viewBox="0 0 76.00 76.00" enable-background="new 0 0 76.00 76.00" xml:space="preserve">
	<path fill="#000000" fill-opacity="1" stroke-width="0.2" stroke-linejoin="round" d="M 22,17L 54,17C 56.6233,17 59,19.3767 59,22L 59,54C 59,56.6234 56.6233,59 54,59L 22,59C 19.3766,59 17,56.6234 17,54L 17,22C 17,19.3767 19.3766,17 22,17 Z M 43.6221,46.3356C 44.3148,45.2765 44.8213,44.1266 45.1416,42.8859C 45.4619,41.6452 45.6221,40.1643 45.6221,38.4433C 45.6221,34.8936 44.9342,32.1836 43.5584,30.3133C 42.1827,28.4429 40.3846,27.5078 38.1643,27.5078C 35.9165,27.5078 34.1007,28.4406 32.7167,30.3063C 31.3328,32.172 30.6408,34.8844 30.6408,38.4433C 30.6408,41.9931 31.3204,44.7031 32.6798,46.5734C 34.0391,48.4437 35.8207,49.3789 38.0246,49.3789C 39.3224,49.3789 40.475,49.0756 41.4825,48.4691L 43.6057,50.3672L 44.9896,51.1522L 46.1477,48.1228C 45.236,47.6702 44.3942,47.0745 43.6221,46.3356 Z M 41.08,43.8973C 40.1328,42.9182 39.1389,42.184 38.0986,41.6945L 37.2115,44.1743C 37.8549,44.4884 38.5065,44.9379 39.1663,45.5228C 38.7502,45.7291 38.3121,45.8322 37.8522,45.8322C 36.6256,45.8322 35.5989,45.2242 34.7721,44.0081C 33.9453,42.792 33.5319,40.9202 33.5319,38.3926C 33.5319,35.9019 33.9631,34.0562 34.8255,32.8555C 35.6879,31.6548 36.7926,31.0545 38.1396,31.0545C 39.4839,31.0545 40.5852,31.654 41.4435,32.8532C 42.3018,34.0523 42.7309,35.9003 42.7309,38.3972C 42.7309,40.8047 42.1806,42.6381 41.08,43.8973 Z M 52.25,47.5C 51.3755,47.5 50.6666,48.2089 50.6666,49.0833L 50.6667,53.8333C 50.6667,54.7078 51.3755,55.4167 52.25,55.4167L 53.8333,55.4167C 54.7078,55.4167 55.4167,54.7078 55.4167,53.8333L 55.4166,49.0833C 55.4166,48.2089 54.7078,47.5 53.8333,47.5L 52.25,47.5 Z M 52.25,49.0833L 53.8333,49.0833L 53.8333,53.8333L 52.25,53.8333L 52.25,49.0833 Z M 48.2916,47.5C 47.8544,47.5 47.5,47.8545 47.5,48.2917L 47.5,55.4167L 49.0833,55.4167L 49.0833,48.2917C 49.0833,47.8545 48.7289,47.5 48.2916,47.5 Z "/>
</svg>
