<?xml version="1.0" encoding="utf-8"?>
<!DOCTYPE svg PUBLIC "-//W3C//DTD SVG 1.1//EN" "http://www.w3.org/Graphics/SVG/1.1/DTD/svg11.dtd">
<svg xmlns="http://www.w3.org/2000/svg" xmlns:xlink="http://www.w3.org/1999/xlink" version="1.1" baseProfile="full" width="76" height="76" viewBox="0 0 76.00 76.00" enable-background="new 0 0 76.00 76.00" xml:space="preserve">
	<path fill="#000000" fill-opacity="1" stroke-width="0.2" stroke-linejoin="round" d="M 20.5271,20.5271C 24.5462,16.5079 30.7065,16.1519 33.9745,19.4273C 35.272,19.1474 36.6188,19 38,19C 48.4934,19 57,27.5066 57,38C 57,39.3812 56.8526,40.728 56.7565,42.2019C 59.8481,45.2935 59.4921,51.4538 55.4729,55.4729C 51.4538,59.4921 45.2935,59.8481 42.0255,56.5727C 40.728,56.8526 39.3812,57 38,57C 27.5066,57 19,48.4934 19,38C 19,36.6188 19.1474,35.272 19.2435,33.7981C 16.1519,30.7065 16.5079,24.5462 20.5271,20.5271 Z M 32.8685,26.4596C 31.3695,27.0139 30.2052,27.8222 29.408,28.862C 28.6048,29.9092 28.1974,31.123 28.1974,32.4698C 28.1974,33.8827 28.5854,35.0848 29.351,36.0426C 30.1047,36.9862 31.1351,37.7401 32.4136,38.284C 33.6638,38.8157 35.2357,39.2861 37.0858,39.6823L 40.3567,40.4922C 41.1339,40.7345 41.7738,41.0876 42.2588,41.5412C 42.7221,41.9752 42.9474,42.5285 42.9474,43.2323C 42.9474,44.1231 42.5159,44.8506 41.628,45.4568C 40.7191,46.0773 39.5109,46.3921 38.037,46.3921C 36.9653,46.3921 36.094,46.2369 35.4478,45.9309C 34.8052,45.6271 34.3022,45.2382 33.9526,44.7753C 33.5888,44.294 33.2442,43.6831 32.9283,42.9596C 32.6455,42.295 32.2934,41.7805 31.883,41.4327C 31.4535,41.0697 30.9252,40.8859 30.3126,40.8859C 29.5663,40.8859 28.9405,41.1186 28.452,41.578C 27.9587,42.0415 27.7083,42.6079 27.7083,43.2612C 27.7083,44.3064 28.0924,45.3903 28.8497,46.4826C 29.5996,47.5641 30.5871,48.4403 31.785,49.0873C 33.4605,49.9762 35.6075,50.4265 38.1679,50.4265C 40.3012,50.4265 42.1756,50.0969 43.7391,49.4471C 45.3177,48.7907 46.5363,47.866 47.361,46.6989C 48.1886,45.5273 48.6083,44.1887 48.6083,42.7203C 48.6083,41.4929 48.3645,40.4367 47.8835,39.581C 47.4037,38.7285 46.7275,38.0143 45.8736,37.4582C 45.037,36.914 44.0109,36.4453 42.8239,36.0653L 38.8826,35.0339L 36.4158,34.4293L 34.9809,33.873C 34.5291,33.647 34.1718,33.3753 33.9184,33.0658C 33.6791,32.7738 33.5627,32.4342 33.5627,32.0281C 33.5627,31.3658 33.9243,30.8068 34.6679,30.3192C 35.4394,29.8132 36.4788,29.5567 37.7568,29.5567C 39.1329,29.5567 40.1341,29.7879 40.7331,30.2437C 41.3503,30.7128 41.8885,31.3787 42.3331,32.2234C 42.7172,32.8849 43.0634,33.3447 43.397,33.6396C 43.7556,33.9572 44.2723,34.1184 44.9325,34.1184C 45.6593,34.1184 46.2753,33.861 46.7635,33.3532C 47.2487,32.8487 47.4949,32.27 47.4949,31.633C 47.4949,30.971 47.3071,30.2868 46.9372,29.5992C 46.5711,28.9185 45.9877,28.263 45.2038,27.6506C 44.4254,27.0424 43.4348,26.5483 42.2596,26.1824C 41.0912,25.819 39.6914,25.635 38.0993,25.635C 36.1079,25.635 34.348,25.9124 32.8685,26.4596 Z "/>
</svg>
