<?xml version="1.0" encoding="utf-8"?>
<!DOCTYPE svg PUBLIC "-//W3C//DTD SVG 1.1//EN" "http://www.w3.org/Graphics/SVG/1.1/DTD/svg11.dtd">
<svg xmlns="http://www.w3.org/2000/svg" xmlns:xlink="http://www.w3.org/1999/xlink" version="1.1" baseProfile="full" width="76" height="76" viewBox="0 0 76.00 76.00" enable-background="new 0 0 76.00 76.00" xml:space="preserve">
	<path fill="#000000" fill-opacity="1" stroke-width="0.2" stroke-linejoin="round" d="M 51.3993,40.6839L 55.3313,37.3116C 56.0694,37.6255 56.7703,38.0098 57.4255,38.4563L 56.7193,43.5857L 61.8843,43.9815C 62.1797,44.7122 62.4064,45.478 62.5566,46.271L 58.4292,49.3994L 61.8015,53.3313C 61.4877,54.0694 61.1033,54.7703 60.6568,55.4255L 55.5274,54.7193L 55.1317,59.8843C 54.4009,60.1797 53.6351,60.4064 52.8421,60.5566L 49.7138,56.4292L 45.7818,59.8015C 45.0437,59.4877 44.3428,59.1033 43.6876,58.6568L 44.3938,53.5274L 39.2288,53.1317C 38.9334,52.4009 38.7067,51.6351 38.5566,50.8421L 42.6839,47.7138L 39.3116,43.7818C 39.6255,43.0437 40.0098,42.3428 40.4563,41.6876L 45.5857,42.3938L 45.9815,37.2289C 46.7122,36.9334 47.478,36.7067 48.271,36.5566L 51.3993,40.6839 Z M 50.5565,43.6712C 47.8584,43.6712 45.6711,45.8584 45.6711,48.5566C 45.6711,51.2547 47.8584,53.442 50.5565,53.442C 53.2547,53.442 55.4419,51.2547 55.4419,48.5566C 55.4419,45.8584 53.2547,43.6712 50.5565,43.6712 Z M 17,21L 25,21L 25,29L 17,29L 17,21 Z M 17,32L 25,32L 25,40L 17,40L 17,32 Z M 29,21L 55,21L 55,29L 29,29L 29,21 Z M 17,43L 25,43L 25,51L 17,51L 17,43 Z M 29,32L 55,32L 55,36.1321L 51.5534,38.9092L 48.3929,35L 45.0311,36.3404L 44.3091,40L 42.75,40L 38.3746,39.4138L 37.9945,40L 29,40L 29,32 Z M 29,43L 37.2744,43L 40.4092,47.4465L 36.2778,51L 29,51L 29,43 Z M 50.5,45C 52.433,45 54,46.567 54,48.5C 54,50.433 52.433,52 50.5,52C 48.567,52 47,50.433 47,48.5C 47,46.567 48.567,45 50.5,45 Z "/>
</svg>
