<?xml version="1.0" encoding="utf-8"?>
<!DOCTYPE svg PUBLIC "-//W3C//DTD SVG 1.1//EN" "http://www.w3.org/Graphics/SVG/1.1/DTD/svg11.dtd">
<svg xmlns="http://www.w3.org/2000/svg" xmlns:xlink="http://www.w3.org/1999/xlink" version="1.1" baseProfile="full" width="76" height="76" viewBox="0 0 76.00 76.00" enable-background="new 0 0 76.00 76.00" xml:space="preserve">
	<path fill="#000000" fill-opacity="1" stroke-width="0.2" stroke-linejoin="round" d="M 19,15.8333L 57,15.8333L 57,53.8333L 19,53.8333L 19,15.8333 Z M 26.9166,20.5834L 26.9166,33.2501L 49.0832,33.2501L 49.0832,20.5834L 26.9166,20.5834 Z M 26.9166,36.4168L 26.9166,49.0834L 49.0832,49.0834L 49.0832,36.4168L 26.9166,36.4168 Z M 22.9583,19.0001C 21.6466,19.0001 20.5833,20.0634 20.5833,21.3751C 20.5833,22.6868 21.6466,23.7501 22.9583,23.7501C 24.27,23.7501 25.3333,22.6868 25.3333,21.3751C 25.3333,20.0634 24.27,19.0001 22.9583,19.0001 Z M 22.9583,45.9167C 21.6466,45.9167 20.5833,46.98 20.5833,48.2917C 20.5833,49.6034 21.6466,50.6667 22.9583,50.6667C 24.27,50.6667 25.3333,49.6034 25.3333,48.2917C 25.3333,46.98 24.27,45.9167 22.9583,45.9167 Z M 22.9583,39.1876C 21.6466,39.1876 20.5833,40.2509 20.5833,41.5626C 20.5833,42.8742 21.6466,43.9375 22.9583,43.9375C 24.27,43.9375 25.3333,42.8742 25.3333,41.5626C 25.3333,40.2509 24.27,39.1876 22.9583,39.1876 Z M 22.9583,32.4584C 21.6466,32.4584 20.5833,33.5217 20.5833,34.8334C 20.5833,36.1451 21.6466,37.2084 22.9583,37.2084C 24.27,37.2084 25.3333,36.1451 25.3333,34.8334C 25.3333,33.5217 24.27,32.4584 22.9583,32.4584 Z M 22.9583,25.7293C 21.6466,25.7293 20.5833,26.7926 20.5833,28.1043C 20.5833,29.4159 21.6466,30.4793 22.9583,30.4793C 24.27,30.4793 25.3333,29.4159 25.3333,28.1043C 25.3333,26.7926 24.27,25.7293 22.9583,25.7293 Z M 53.0416,19.0001C 51.7299,19.0001 50.6666,20.0634 50.6666,21.3751C 50.6666,22.6868 51.7299,23.7501 53.0416,23.7501C 54.3533,23.7501 55.4166,22.6868 55.4166,21.3751C 55.4166,20.0634 54.3533,19.0001 53.0416,19.0001 Z M 53.0416,45.9167C 51.7299,45.9167 50.6666,46.98 50.6666,48.2917C 50.6666,49.6034 51.7299,50.6667 53.0416,50.6667C 54.3533,50.6667 55.4166,49.6034 55.4166,48.2917C 55.4166,46.98 54.3533,45.9167 53.0416,45.9167 Z M 53.0416,39.1876C 51.7299,39.1876 50.6666,40.2509 50.6666,41.5625C 50.6666,42.8742 51.7299,43.9375 53.0416,43.9375C 54.3533,43.9375 55.4166,42.8742 55.4166,41.5625C 55.4166,40.2509 54.3533,39.1876 53.0416,39.1876 Z M 53.0416,32.4584C 51.7299,32.4584 50.6666,33.5217 50.6666,34.8334C 50.6666,36.1451 51.7299,37.2084 53.0416,37.2084C 54.3533,37.2084 55.4166,36.1451 55.4166,34.8334C 55.4166,33.5217 54.3533,32.4584 53.0416,32.4584 Z M 53.0416,25.7292C 51.7299,25.7292 50.6666,26.7926 50.6666,28.1042C 50.6666,29.4159 51.7299,30.4792 53.0416,30.4792C 54.3533,30.4792 55.4166,29.4159 55.4166,28.1042C 55.4166,26.7926 54.3533,25.7292 53.0416,25.7292 Z M 26.9166,57L 28.5,57L 28.5,63.3333L 31.6667,63.3333L 31.6667,64.9167L 28.5,64.9167L 26.9166,64.9167L 26.9166,57 Z M 33.25,64.9167L 33.25,57L 34.8333,57L 34.8333,64.9167L 33.25,64.9167 Z M 36.8125,57L 38.7916,57L 40.375,62.2779L 41.9583,57L 43.9375,57L 41.1667,64.9167L 41.1666,64.9167L 39.5833,64.9167L 39.5833,64.9167L 36.8125,57 Z M 45.9166,57L 47.5,57L 50.6667,57L 50.6667,58.5833L 47.5,58.5833L 47.5,60.1667L 50.6667,60.1667L 50.6667,61.75L 47.5,61.75L 47.5,63.3333L 50.6667,63.3333L 50.6667,64.9167L 47.5,64.9167L 45.9166,64.9167L 45.9166,57 Z "/>
</svg>
