<?xml version="1.0" encoding="utf-8"?>
<!DOCTYPE svg PUBLIC "-//W3C//DTD SVG 1.1//EN" "http://www.w3.org/Graphics/SVG/1.1/DTD/svg11.dtd">
<svg xmlns="http://www.w3.org/2000/svg" xmlns:xlink="http://www.w3.org/1999/xlink" version="1.1" baseProfile="full" width="76" height="76" viewBox="0 0 76.00 76.00" enable-background="new 0 0 76.00 76.00" xml:space="preserve">
	<path fill="#000000" fill-opacity="1" stroke-width="0.2" stroke-linejoin="round" d="M 58.0001,37.9999C 58.0001,39.9179 56.6502,41.5205 54.8487,41.9097C 53.8309,44.8647 51.6914,47.2975 48.939,48.6995C 48.6082,50.5751 46.9705,52 44.9999,52C 43.8053,52 42.7329,51.4763 42,50.6459L 42,45.3541C 42.7329,44.5237 43.8053,44 44.9999,44C 46.6902,44 48.1355,45.0483 48.7213,46.5303C 50.519,45.4276 51.9413,43.7725 52.752,41.8014C 51.1541,41.2771 50.0001,39.7733 50.0001,37.9999C 50.0001,36.2266 51.1541,34.7228 52.752,34.1985C 51.9413,32.2275 50.519,30.5725 48.7214,29.4698C 48.1357,30.9517 46.6903,31.9999 45.0002,31.9999C 43.8054,31.9999 42.733,31.4762 42.0001,30.6457L 42.0001,25.3542C 42.733,24.5237 43.8054,23.9999 45.0002,23.9999C 46.9707,23.9999 48.6085,25.4248 48.9392,27.3005C 51.6916,28.7025 53.8309,31.1352 54.8487,34.0901C 56.6502,34.4793 58.0001,36.082 58.0001,37.9999 Z M 18.9998,23.5L 41,20L 41,56L 18.9998,52.5L 18.9998,23.5 Z M 25.9623,43.6642C 27.3639,44.2549 29.008,44.8406 30.465,44.404C 31.5446,44.0804 32.6757,43.1495 32.8842,42.0419C 33.1477,40.642 32.5461,38.872 31.3917,38.0376C 30.3434,37.2799 28.3626,36.9265 28.3463,35.6332C 28.3286,34.2362 31.3295,34.4065 32.5099,35.1537L 32.5146,33.8878L 32.5204,32.6219C 30.4141,32.0863 27.1405,32.3865 26.237,34.3632C 25.6349,35.6803 26.0983,37.7032 27.2437,38.5895C 28.3616,39.4545 30.4396,39.8632 30.5262,41.2741C 30.5938,42.3738 28.318,42.4959 27.3123,42.046L 26.6067,41.653L 25.9549,41.1219L 25.9582,42.393L 25.9623,43.6642 Z "/>
</svg>
