<?xml version="1.0" encoding="utf-8"?>
<!DOCTYPE svg PUBLIC "-//W3C//DTD SVG 1.1//EN" "http://www.w3.org/Graphics/SVG/1.1/DTD/svg11.dtd">
<svg xmlns="http://www.w3.org/2000/svg" xmlns:xlink="http://www.w3.org/1999/xlink" version="1.1" baseProfile="full" width="76" height="76" viewBox="0 0 76.00 76.00" enable-background="new 0 0 76.00 76.00" xml:space="preserve">
	<path fill="#000000" fill-opacity="1" stroke-width="0.2" stroke-linejoin="round" d="M 46.8902,10.7149C 50.5335,10.7149 53.4869,13.6315 53.4869,17.2291L 53.4806,17.5169C 56.192,18.326 58.1664,20.8121 58.1664,23.7536C 58.1664,25.8009 57.2101,27.6275 55.7145,28.8217C 54.4478,26.5917 52.1734,25.0271 49.5235,24.7701C 49.364,20.6099 45.3624,16.6518 40.4585,16.6518C 37.7071,16.6518 35.2419,17.7878 33.5784,19.5815L 33.532,18.8783C 33.532,15.9182 35.9686,13.5185 38.9743,13.5185C 39.7573,13.5185 40.5018,13.6814 41.1746,13.9747C 42.3148,12.0261 44.4475,10.7149 46.8902,10.7149 Z M 48.7403,26.382C 52.3009,26.382 55.2372,29.5157 55.6525,33.5592C 57.7595,33.2653 60.2729,32.3053 61.0008,29.4845C 61.0008,29.4845 61.5504,34.2139 55.687,35.1002C 55.6177,36.3113 55.2303,37.45 54.7592,38.4592C 46.3435,37.5685 33.0373,24.5267 24.8972,23.5699C 26.1182,22.156 27.8723,21.2696 29.8214,21.2696C 31.1925,21.2696 32.4671,21.7083 33.5275,22.4606C 34.8655,19.8812 37.431,18.1362 40.376,18.1362C 44.6583,18.1362 48.1381,21.8256 48.2084,26.4055L 48.7403,26.382 Z M 52.7662,41.2321C 51.6353,42.1626 50.2268,42.7088 48.7403,42.7088L 22.3177,42.75L 22.3177,42.7269C 20.5871,42.5911 18.875,41.7003 17.6737,40.1317C 15.9264,37.8502 15.788,34.8246 17.1279,32.6252C 15.751,31.0935 15.1917,29.1632 15.8333,27.4521C 16.8489,24.7435 20.4926,23.5993 24.0082,24.8665L 24.092,24.7142C 38.6444,28.5259 47.8797,44.0281 60.8185,38.7783C 60.0285,40.0687 57.9506,42.1072 52.7662,41.2321 Z M 18.4227,31.143C 19.839,29.9961 21.6351,29.6537 23.3307,30.0406C 23.2075,29.5022 23.1744,27.5565 23.2362,27.1689C 23.0805,27.0936 17.8649,25.846 17.4348,28.5964C 17.0725,29.5626 17.3066,30.6376 17.9696,31.5516L 18.4227,31.143 Z M 34.8333,66.5L 34.8333,55.0208L 30.0833,59.7708L 30.0833,53.4375L 38,45.125L 45.9167,53.4375L 45.9167,59.7708L 41.1667,55.0208L 41.1667,66.5L 34.8333,66.5 Z "/>
</svg>
