<?xml version="1.0" encoding="utf-8"?>
<!DOCTYPE svg PUBLIC "-//W3C//DTD SVG 1.1//EN" "http://www.w3.org/Graphics/SVG/1.1/DTD/svg11.dtd">
<svg xmlns="http://www.w3.org/2000/svg" xmlns:xlink="http://www.w3.org/1999/xlink" version="1.1" baseProfile="full" width="76" height="76" viewBox="0 0 76.00 76.00" enable-background="new 0 0 76.00 76.00" xml:space="preserve">
	<path fill="#000000" fill-opacity="1" stroke-width="0.2" stroke-linejoin="round" d="M 22,17L 54,17C 56.6233,17 59,19.3767 59,22L 59,54C 59,56.6234 56.6233,59 54,59L 22,59C 19.3766,59 17,56.6234 17,54L 17,22C 17,19.3767 19.3766,17 22,17 Z M 31.7249,49.0833L 34.8994,49.0833L 38,33.0264L 41.0349,49.0833L 44.3449,49.0833L 48.1189,27.8033L 45.1826,27.8033L 42.7309,42.8166L 39.8932,27.8033L 36.115,27.8033L 33.2691,42.5211L 30.8132,27.8033L 27.8811,27.8033L 31.7249,49.0833 Z M 52.25,55.4167L 53.8334,55.4167L 53.8333,52.25L 54.625,52.25L 54.625,50.6667L 53.8333,50.6667L 53.8334,47.5L 52.25,47.5L 52.25,50.6667L 50.6667,50.6667L 50.6667,47.5L 49.0833,47.5L 49.0833,52.25L 52.25,52.25L 52.25,55.4167 Z "/>
</svg>
