<?xml version="1.0" encoding="utf-8"?>
<!DOCTYPE svg PUBLIC "-//W3C//DTD SVG 1.1//EN" "http://www.w3.org/Graphics/SVG/1.1/DTD/svg11.dtd">
<svg xmlns="http://www.w3.org/2000/svg" xmlns:xlink="http://www.w3.org/1999/xlink" version="1.1" baseProfile="full" width="76.0106" height="76.0106" viewBox="0 0 76.01 76.01" enable-background="new 0 0 76.01 76.01" xml:space="preserve">
	<path fill="#000000" fill-opacity="1" stroke-width="0.2" stroke-linejoin="round" d="M 18.5088,44.0374L 21.8676,40.6786L 27.4655,46.2765L 33.0634,40.6786L 36.4222,44.0374L 30.8243,49.6353L 36.4222,55.2332L 33.0634,58.592L 27.4655,52.994L 21.8676,58.592L 18.5088,55.2332L 24.1068,49.6353L 18.5088,44.0374 Z M 57.0079,38.0053L 38.0053,47.5066L 36.7482,46.8781L 39.5889,44.0374L 35.2559,39.7977L 38.0053,41.1724L 50.6737,34.8382L 57.0079,38.0053 Z M 19.0026,38.0053L 25.3369,34.8382L 32.3326,38.3361L 29.8968,40.7719L 28.1098,42.5589L 25.7193,41.3636L 21.8676,37.6052L 20.6459,38.8269L 19.0026,38.0053 Z M 38.0053,19.0027L 57.0079,28.504L 38.0053,38.0053L 19.0026,28.504L 38.0053,19.0027 Z M 57.0079,47.5066L 38.0053,57.008L 37.8778,56.9442L 39.5889,55.2332L 33.9909,49.6353L 34.6367,48.9895L 38.0053,50.6738L 50.6737,44.3395L 57.0079,47.5066 Z "/>
</svg>
