<?xml version="1.0" encoding="utf-8"?>
<!DOCTYPE svg PUBLIC "-//W3C//DTD SVG 1.1//EN" "http://www.w3.org/Graphics/SVG/1.1/DTD/svg11.dtd">
<svg xmlns="http://www.w3.org/2000/svg" xmlns:xlink="http://www.w3.org/1999/xlink" version="1.1" baseProfile="full" width="76" height="76" viewBox="0 0 76.00 76.00" enable-background="new 0 0 76.00 76.00" xml:space="preserve">
	<path fill="#000000" fill-opacity="1" stroke-width="0.2" stroke-linejoin="round" d="M 43.1527,57.4948C 43.1527,58.9704 41.9564,60.1667 40.4808,60.1667C 39.0051,60.1667 37.8089,58.9704 37.8089,57.4948L 37.0172,48.8557L 34.1199,43.7381L 33.5734,49.1154C 33.5116,49.4994 33.3707,49.8511 33.1701,50.1565L 32.8002,51.0177L 28.062,58.438C 27.2518,59.6713 25.5953,60.0144 24.3619,59.2043C 23.1285,58.3941 22.7855,56.7376 23.5956,55.5042L 28.3339,48.0839L 28.3438,48.0689L 29.908,39.7477L 29.7933,38.7917L 29.7933,29.4401C 29.7933,27.2267 31.5876,25.4323 33.8011,25.4323C 35.3354,25.4323 36.6684,26.2945 37.3419,27.5608L 42.005,32.0476L 48.0235,33.5394C 49.0977,33.8056 49.7527,34.8923 49.4865,35.9665C 49.2202,37.0407 48.1335,37.6957 47.0593,37.4295L 40.9296,35.9102C 40.5636,35.8195 40.2463,35.6336 39.9975,35.3853C 39.7099,35.2957 39.4383,35.1395 39.2064,34.9164L 37.8089,33.5718L 37.8089,38.7917L 37.7265,39.604L 41.928,46.5308C 42.3578,47.1466 42.4921,47.8803 42.361,48.5638L 43.1527,57.4948 Z M 32.4651,16.2292C 34.6786,16.2292 36.4729,18.0235 36.4729,20.237C 36.4729,22.4505 34.6786,24.2448 32.4651,24.2448C 30.2517,24.2448 28.4573,22.4505 28.4573,20.237C 28.4573,18.0235 30.2517,16.2292 32.4651,16.2292 Z M 52.8202,36.0486L 57.9191,45.4414L 52.0486,48.6282L 46.9497,39.2355L 52.8202,36.0486 Z M 50.8746,49.2656C 49.5777,49.9696 47.9556,49.489 47.2516,48.1921L 44.7022,43.4957C 43.9982,42.1989 44.4788,40.5768 45.7756,39.8728L 50.8746,49.2656 Z M 53.9943,35.4113C 55.2912,34.7073 56.9132,35.1879 57.6172,36.4847L 60.1667,41.1811C 60.8707,42.478 60.3901,44.1 59.0932,44.804L 53.9943,35.4113 Z "/>
</svg>
