<?xml version="1.0" encoding="utf-8"?>
<!DOCTYPE svg PUBLIC "-//W3C//DTD SVG 1.1//EN" "http://www.w3.org/Graphics/SVG/1.1/DTD/svg11.dtd">
<svg xmlns="http://www.w3.org/2000/svg" xmlns:xlink="http://www.w3.org/1999/xlink" version="1.1" baseProfile="full" width="76" height="76" viewBox="0 0 76.00 76.00" enable-background="new 0 0 76.00 76.00" xml:space="preserve">
	<g>
		<path fill="#000000" fill-opacity="1" stroke-linejoin="round" d="M 19.2346,45.1867C 18.764,45.1867 18.3717,45.0418 18.0577,44.7521C 17.7437,44.4624 17.5867,44.1065 17.5867,43.6846C 17.5867,43.249 17.7481,42.8927 18.0708,42.6156C 18.3936,42.3385 18.7971,42.2 19.2813,42.2C 19.7693,42.2 20.1689,42.3405 20.48,42.6215C 20.7911,42.9024 20.9467,43.2568 20.9467,43.6846C 20.9467,44.124 20.7882,44.4842 20.4713,44.7652C 20.1543,45.0462 19.7421,45.1867 19.2346,45.1867 Z "/>
		<path fill="#000000" fill-opacity="1" stroke-linejoin="round" d="M 34.9467,45L 31.9542,45L 26.6021,36.7896C 26.289,36.3093 26.0713,35.9476 25.9488,35.7046L 25.9138,35.7046C 25.9624,36.1654 25.9867,36.8703 25.9867,37.8192L 25.9867,45L 23.1867,45L 23.1867,31.9333L 26.3775,31.9333L 31.5313,39.8871C 31.7665,40.2468 31.9843,40.6026 32.1846,40.9546L 32.2196,40.9546C 32.171,40.6512 32.1467,40.0533 32.1467,39.1608L 32.1467,31.9333L 34.9467,31.9333L 34.9467,45 Z "/>
		<path fill="#000000" fill-opacity="1" stroke-linejoin="round" d="M 45.7733,45L 37.9333,45L 37.9333,31.9333L 45.4,31.9333L 45.4,34.36L 40.92,34.36L 40.92,37.16L 45.2133,37.16L 45.2133,39.5867L 40.92,39.5867L 40.92,42.5733L 45.7733,42.5733L 45.7733,45 Z "/>
		<path fill="#000000" fill-opacity="1" stroke-linejoin="round" d="M 57.16,34.36L 53.4267,34.36L 53.4267,45L 50.44,45L 50.44,34.36L 46.7067,34.36L 46.7067,31.9333L 57.16,31.9333L 57.16,34.36 Z "/>
	</g>
</svg>
