<?xml version="1.0" encoding="utf-8"?>
<!DOCTYPE svg PUBLIC "-//W3C//DTD SVG 1.1//EN" "http://www.w3.org/Graphics/SVG/1.1/DTD/svg11.dtd">
<svg xmlns="http://www.w3.org/2000/svg" xmlns:xlink="http://www.w3.org/1999/xlink" version="1.1" baseProfile="full" width="76.0106" height="76.0106" viewBox="0 0 76.01 76.01" enable-background="new 0 0 76.01 76.01" xml:space="preserve">
	<path fill="#000000" fill-opacity="1" stroke-width="0.2" stroke-linejoin="round" d="M 19.0027,21.0029L 19.0027,25.0034L 44.0061,25.0034L 44.0061,21.0029L 19.0027,21.0029 Z M 19.0027,27.0038L 19.0027,31.0042L 49.0068,31.0042L 49.0068,27.0038L 19.0027,27.0038 Z M 19.0027,33.0046L 19.0027,37.005L 43.006,37.005L 43.006,33.0046L 19.0027,33.0046 Z M 19.0027,39.0054L 19.0027,43.0059L 52.0073,43.0059L 52.0073,39.0054L 19.0027,39.0054 Z M 19.0027,45.0064L 19.0027,49.0068L 46.0064,49.0068L 46.0064,45.0064L 19.0027,45.0064 Z M 19.0027,51.0073L 19.0027,55.0077L 51.0071,55.0077L 51.0071,51.0073L 19.0027,51.0073 Z "/>
</svg>
