<?xml version="1.0" encoding="utf-8"?>
<!DOCTYPE svg PUBLIC "-//W3C//DTD SVG 1.1//EN" "http://www.w3.org/Graphics/SVG/1.1/DTD/svg11.dtd">
<svg xmlns="http://www.w3.org/2000/svg" xmlns:xlink="http://www.w3.org/1999/xlink" version="1.1" baseProfile="full" width="76.0106" height="76.0106" viewBox="0 0 76.01 76.01" enable-background="new 0 0 76.01 76.01" xml:space="preserve">
	<path fill="#000000" fill-opacity="1" stroke-width="0.2" stroke-linejoin="round" d="M 19.0027,20.5862L 44.3397,20.5863L 44.3397,23.7534L 19.0027,23.7533L 19.0027,20.5862 Z M 19.0026,26.9204L 49.0897,26.9205L 49.0897,30.0876L 19.0026,30.0876L 19.0026,26.9204 Z M 19.0026,33.2547L 42.7563,33.2548L 42.7563,36.4219L 19.0026,36.4218L 19.0026,33.2547 Z M 19.0026,39.5889L 52.2563,39.5889L 52.2563,42.756L 19.0026,42.756L 19.0026,39.5889 Z M 19.0026,45.9231L 45.923,45.9232L 45.923,49.0903L 19.0026,49.0902L 19.0026,45.9231 Z M 19.0026,52.2573L 50.673,52.2573L 50.673,55.4244L 19.0026,55.4244L 19.0026,52.2573 Z "/>
</svg>
