<?xml version="1.0" encoding="utf-8"?>
<!DOCTYPE svg PUBLIC "-//W3C//DTD SVG 1.1//EN" "http://www.w3.org/Graphics/SVG/1.1/DTD/svg11.dtd">
<svg xmlns="http://www.w3.org/2000/svg" xmlns:xlink="http://www.w3.org/1999/xlink" version="1.1" baseProfile="full" width="76" height="76" viewBox="0 0 76.00 76.00" enable-background="new 0 0 76.00 76.00" xml:space="preserve">
	<path fill="#000000" fill-opacity="1" stroke-width="0.2" stroke-linejoin="round" d="M 57,38L 57,62L 50.5,62L 40,43.25L 40,62L 36,61L 36,38L 38.8333,38L 42.6008,38.7903L 53,56L 53,42C 52.3403,41.7361 50.9306,41.4306 50.3368,40.7708C 49.7431,40.1111 49.0278,39.0556 48.5,38L 57,38 Z M 20,17L 43.25,17L 56,29.75L 56,37L 52,37L 52,34L 39,34L 39,21L 24,21L 24,55L 35,55L 35,59L 20,59L 20,17 Z M 41,59L 41,55L 45,55L 47.25,59L 41,59 Z M 43,22.25L 43,30L 50.75,30L 43,22.25 Z "/>
</svg>
