<?xml version="1.0" encoding="utf-8"?>
<!DOCTYPE svg PUBLIC "-//W3C//DTD SVG 1.1//EN" "http://www.w3.org/Graphics/SVG/1.1/DTD/svg11.dtd">
<svg xmlns="http://www.w3.org/2000/svg" xmlns:xlink="http://www.w3.org/1999/xlink" version="1.1" baseProfile="full" width="76" height="76" viewBox="0 0 76.00 76.00" enable-background="new 0 0 76.00 76.00" xml:space="preserve">
	<path fill="#000000" fill-opacity="1" stroke-width="0.2" stroke-linejoin="round" d="M 43.25,30.8456L 40.4117,31.2L 42.41,33.3098L 40.5561,34.56L 39.1616,31.9547L 37.7637,34.56L 35.9,33.3098L 37.9081,31.2L 35.0602,30.8456L 35.7983,28.89L 38.42,29.94L 38.0003,27L 40.31,27L 39.89,29.94L 42.492,28.89L 43.25,30.8456 Z M 36.1898,39.0356L 33.3515,39.39L 35.3498,41.4998L 33.4959,42.75L 32.1013,40.1447L 30.7035,42.75L 28.8398,41.4998L 30.8479,39.39L 28,39.0356L 28.7381,37.08L 31.3598,38.13L 30.9401,35.19L 33.2498,35.19L 32.8298,38.13L 35.4318,37.08L 36.1898,39.0356 Z M 53.25,28.8456L 50.4117,29.2L 52.41,31.3098L 50.5561,32.56L 49.1616,29.9547L 47.7637,32.56L 45.9,31.3098L 47.9081,29.2L 45.0602,28.8456L 45.7983,26.89L 48.42,27.94L 48.0003,25L 50.31,25L 49.89,27.94L 52.492,26.89L 53.25,28.8456 Z M 30.2362,30.0357L 27.3979,30.39L 29.3962,32.4999L 27.5423,33.75L 26.1478,31.1447L 24.75,33.75L 22.8862,32.4999L 24.8944,30.39L 22.0464,30.0357L 22.7845,28.0801L 25.4062,29.1301L 24.9865,26.1901L 27.2962,26.1901L 26.8762,29.1301L 29.4783,28.0801L 30.2362,30.0357 Z M 17,20L 59,20L 59,56L 17,56L 17,20 Z M 20,23L 20,53L 56,53L 56,23L 20,23 Z M 24,51L 30.0833,44.3334L 33.25,47.5L 40.3651,40.5191L 44.5,43L 46.5,41L 48.5,43L 52.32,40.708L 54,42.5L 54,51L 24,51 Z M 46.5,34.5L 51.27,39.588L 48.5,41.25L 46.5,39.25L 44.5,41.25L 41.4719,39.4332L 46.5,34.5 Z "/>
</svg>
