<?xml version="1.0" encoding="utf-8"?>
<!DOCTYPE svg PUBLIC "-//W3C//DTD SVG 1.1//EN" "http://www.w3.org/Graphics/SVG/1.1/DTD/svg11.dtd">
<svg xmlns="http://www.w3.org/2000/svg" xmlns:xlink="http://www.w3.org/1999/xlink" version="1.1" baseProfile="full" width="76" height="76" viewBox="0 0 76.00 76.00" enable-background="new 0 0 76.00 76.00" xml:space="preserve">
	<path fill="#000000" fill-opacity="1" stroke-width="0.2" stroke-linejoin="round" d="M 50.9225,54.2329C 51.037,54.5029 51.0943,54.7769 51.0943,55.0551C 51.0943,55.4396 50.992,55.7986 50.7875,56.132C 50.583,56.4654 50.2966,56.72 49.9285,56.8959L 48.1981,57.7059C 47.5231,58.0127 46.8471,58.2356 46.1701,58.3747C 45.4931,58.5138 44.809,58.5833 44.1176,58.5833C 43.005,58.5833 41.9056,58.3982 40.8195,58.028C 39.7334,57.6578 38.6944,57.1281 37.7024,56.4388C 36.7104,55.7495 35.7798,54.916 34.9105,53.9384C 34.0412,52.9607 33.263,51.8705 32.5757,50.6678C 32.138,50.0011 31.6778,49.2402 31.1951,48.3852C 30.7861,47.6571 30.3187,46.7848 29.7931,45.7682C 29.2674,44.7517 28.7366,43.6237 28.2008,42.3842C 27.6526,41.1447 27.218,40.0617 26.8968,39.1352C 26.5757,38.2086 26.3272,37.4386 26.1513,36.825C 25.9468,36.1091 25.8057,35.4955 25.7279,34.9841C 25.4457,34.0351 25.2381,33.0912 25.1051,32.1524C 24.9722,31.2136 24.9057,30.2839 24.9057,29.3635C 24.9057,28.1609 25.0264,27.0032 25.2677,25.8905C 25.5091,24.7779 25.8793,23.7429 26.3783,22.7857C 26.8774,21.8285 27.5104,20.9725 28.2775,20.2178C 29.0445,19.463 29.9516,18.8484 30.9988,18.3739L 32.7046,17.5885C 32.9746,17.4739 33.2446,17.4167 33.5146,17.4167C 33.895,17.4167 34.2488,17.522 34.5761,17.7327C 34.9033,17.9433 35.1488,18.2348 35.3124,18.6071L 38.5952,26.0623C 38.7097,26.3323 38.767,26.6023 38.767,26.8723C 38.767,27.2691 38.6647,27.6362 38.4602,27.9737C 38.2557,28.3112 37.9673,28.5638 37.595,28.7319L 34.2202,30.2839C 33.7743,30.4885 33.4327,30.7891 33.1955,31.1859C 32.9582,31.5827 32.8396,32.0102 32.8396,32.4684C 32.8396,32.8161 32.905,33.1433 33.0359,33.4501L 38.5768,46.1026C 38.7936,46.5894 39.0932,46.9474 39.4757,47.1764C 39.8582,47.4055 40.2744,47.5201 40.7244,47.5201C 41.0312,47.5201 41.3441,47.4505 41.6632,47.3114L 45.038,45.759C 45.3039,45.6445 45.5719,45.5872 45.8419,45.5872C 46.2141,45.5872 46.5659,45.6925 46.8973,45.9032C 47.2286,46.1139 47.4781,46.4033 47.6458,46.7715L 50.9225,54.2329 Z "/>
</svg>
