<?xml version="1.0" encoding="utf-8"?>
<!DOCTYPE svg PUBLIC "-//W3C//DTD SVG 1.1//EN" "http://www.w3.org/Graphics/SVG/1.1/DTD/svg11.dtd">
<svg xmlns="http://www.w3.org/2000/svg" xmlns:xlink="http://www.w3.org/1999/xlink" version="1.1" baseProfile="full" width="76" height="76" viewBox="0 0 76.00 76.00" enable-background="new 0 0 76.00 76.00" xml:space="preserve">
	<path fill="#000000" fill-opacity="1" stroke-linejoin="round" d="M 21.3,17L 46.7,17C 47.418,17 48,17.582 48,18.3L 48,24.7C 48,25.418 47.418,26 46.7,26L 31.3,26C 30.0298,26 29,27.0298 29,28.3L 29,49.7C 29,50.418 28.418,51 27.7,51L 21.3,51C 20.582,51 20,50.418 20,49.7L 20,18.3C 20,17.582 20.582,17 21.3,17 Z M 33.3,29L 54.7,29C 55.418,29 56,29.582 56,30.3L 56,57.7C 56,58.418 55.418,59 54.7,59L 33.3,59C 32.582,59 32,58.418 32,57.7L 32,30.3C 32,29.582 32.582,29 33.3,29 Z M 39.0759,51.5923C 39.9256,52.0778 41.2173,52.3206 42.9511,52.3206C 45.0041,52.3206 46.6178,51.7909 47.7921,50.7313C 48.9664,49.6718 49.5536,48.2633 49.5536,46.5058C 49.5536,44.8328 49.0403,43.514 48.0138,42.5495C 46.9872,41.585 45.5345,41.1027 43.6556,41.1027L 42.1079,41.1502L 42.4048,36.7089L 48.75,36.7089L 48.75,34.2627L 40.0179,34.2627L 39.3886,43.5885L 42.294,43.4381C 43.6873,43.4381 44.7574,43.7185 45.5042,44.2793C 46.251,44.84 46.6244,45.6244 46.6244,46.6325C 46.6244,47.6537 46.2569,48.4718 45.522,49.0867C 44.7871,49.7015 43.8179,50.0089 42.6146,50.0089C 41.4192,50.0089 40.2396,49.6171 39.0759,48.8333L 39.0759,51.5923 Z "/>
</svg>
