<?xml version="1.0" encoding="utf-8"?>
<!DOCTYPE svg PUBLIC "-//W3C//DTD SVG 1.1//EN" "http://www.w3.org/Graphics/SVG/1.1/DTD/svg11.dtd">
<svg xmlns="http://www.w3.org/2000/svg" xmlns:xlink="http://www.w3.org/1999/xlink" version="1.1" baseProfile="full" width="76" height="76" viewBox="0 0 76.00 76.00" enable-background="new 0 0 76.00 76.00" xml:space="preserve">
	<path fill="#000000" fill-opacity="1" stroke-width="0.2" stroke-linejoin="round" d="M 20.5306,50.2497L 15.5061,50.2497L 15.5061,34.0786L 20.5306,34.0786L 20.5306,50.2497 Z M 18.2039,26.6475C 19.0268,26.6634 19.6707,26.9044 20.1356,27.3707C 20.6005,27.837 20.8447,28.4334 20.8683,29.1599C 20.8607,29.8719 20.6178,30.4641 20.1398,30.9365C 19.6617,31.4089 18.9942,31.6541 18.1373,31.672C 17.3282,31.654 16.6898,31.4089 16.2222,30.9365C 15.7545,30.4641 15.5158,29.8719 15.5061,29.1599C 15.5165,28.4334 15.7621,27.837 16.243,27.3707C 16.7238,26.9044 17.3775,26.6634 18.2039,26.6475 Z M 33.6839,27.3231C 37.1427,27.4071 39.3841,28.5263 41.1996,30.6808C 43.0151,32.8352 43.9295,35.5206 43.9428,38.737C 43.8955,42.4846 42.8826,45.3894 40.904,47.4513C 38.9255,49.5132 36.6606,50.5586 33.3177,50.5875C 29.9797,50.5132 27.7883,49.4078 25.952,47.2712C 24.1157,45.1346 23.1846,42.4128 23.1589,39.1056C 23.202,35.6539 24.1982,32.8443 26.1476,30.6766C 28.097,28.5089 30.3452,27.391 33.6839,27.3231 Z M 33.584,31.3342C 31.8421,31.3795 30.8954,32.1094 29.9524,33.5239C 29.0093,34.9383 28.5322,36.7654 28.5211,39.0051C 28.5364,41.2699 29.0218,43.0887 29.9773,44.4616C 30.9329,45.8345 31.8712,46.5394 33.584,46.5764C 35.3086,46.531 36.24,45.801 37.17,44.3862C 38.1,42.9715 38.5701,41.1443 38.5805,38.9046C 38.5743,36.801 38.1124,35.0283 37.195,33.5867C 36.2775,32.145 35.3377,31.3942 33.584,31.3342 Z M 45.5672,47.9284L 49.0323,44.6423C 49.0323,44.6423 51.0512,46.2556 52.1747,46.2703C 53.4195,46.2605 54.3626,46.0367 55.0041,45.599C 55.6456,45.1613 55.9679,44.5683 55.9708,43.8202C 55.9834,43.1307 55.6745,42.5461 55.0441,42.0665C 54.4136,41.5868 53.3862,41.1197 51.9618,40.6652C 50.0767,40.0037 48.5902,39.1283 47.5025,38.0389C 46.4148,36.9495 45.8598,35.5873 45.8375,33.9525C 45.8554,32.0072 46.6056,30.4253 48.0881,29.2071C 49.5706,27.9888 51.6779,27.3608 54.41,27.3231C 55.7177,27.3323 56.8361,27.831 57.7651,28.0275C 58.6942,28.2241 60.1198,29.9197 60.1198,29.9197L 57.2052,32.4994C 57.2052,32.4994 55.4647,31.3517 54.339,31.3342C 53.1697,31.3538 52.2974,31.5748 51.7223,31.9973C 51.1473,32.4197 50.8605,32.926 50.8619,33.5162C 50.8516,34.2112 51.2005,34.7846 51.9086,35.2363C 52.6167,35.688 53.7462,36.1775 55.297,36.7047C 57.2473,37.4326 58.6865,38.343 59.6143,39.4359C 60.5422,40.5289 61.0025,41.8672 60.9953,43.451C 61.0114,45.4154 60.2821,47.0762 58.8073,48.4335C 57.3325,49.7907 55.0152,50.4981 51.8554,50.5558C 50.5414,50.5408 49.326,49.995 48.2091,49.71C 47.0921,49.425 45.5672,47.9284 45.5672,47.9284 Z "/>
</svg>
