<?xml version="1.0" encoding="utf-8"?>
<!DOCTYPE svg PUBLIC "-//W3C//DTD SVG 1.1//EN" "http://www.w3.org/Graphics/SVG/1.1/DTD/svg11.dtd">
<svg xmlns="http://www.w3.org/2000/svg" xmlns:xlink="http://www.w3.org/1999/xlink" version="1.1" baseProfile="full" width="76" height="76" viewBox="0 0 76.00 76.00" enable-background="new 0 0 76.00 76.00" xml:space="preserve">
	<path fill="#000000" fill-opacity="1" stroke-width="0.2" stroke-linejoin="round" d="M 52.0524,35.7346C 51.778,34.8438 49.8746,32.2218 48.844,31.3309C 47.8137,30.4316 46.6353,30.5455 45.9716,31.3309L 42.0479,36.0049C 41.3833,36.7944 41.2051,38.04 41.6489,38.7747C 42.0918,39.5093 43.2736,39.9231 44.2764,39.6993L 51.0632,38.4411C 52.2876,38.1455 52.3315,36.6255 52.0524,35.7346 Z M 50.57,45.6231L 44.4816,43.8751C 43.4944,43.588 42.3738,43.6176 41.9942,43.9385C 41.6142,44.2551 41.7088,45.26 42.2053,46.1636L 46.0484,53.1978C 46.545,54.1013 48.5324,53.9493 49.0791,53.0669C 49.0791,53.0669 51.3955,49.6511 51.8211,48.3718C 52.2471,47.0882 51.5563,45.906 50.57,45.6231 Z M 38.5004,46.9784C 38.5202,45.9398 37.9667,45.0447 37.2691,44.9813C 36.5708,44.918 35.4629,45.5133 34.8017,46.3029L 29.9461,52.1254C 29.2849,52.9149 29.613,54.7769 30.5769,55.1274L 35.6546,56.8922C 36.621,57.2427 38.323,56.1998 38.3429,55.1653M 26.3581,45.7498L 33.3188,43.284C 34.2887,42.942 35.158,41.9836 35.2551,41.1518C 35.3493,40.32 34.6442,39.3362 33.6874,38.9562L 26.3348,36.0386C 25.3777,35.6629 24.2736,36.558 23.9822,38.0273C 23.9822,38.0273 23.8074,43.1405 23.9822,44.196C 24.1596,45.2558 25.3882,46.0918 26.3581,45.7498 Z M 28.6541,20.6908C 30.5706,19.1835 34.2549,18.7529 35.7715,19.0484C 37.289,19.3398 38.0815,20.1884 38.0912,21.2229L 38.1786,34.4004C 38.1854,35.4349 37.6483,36.3849 36.9837,36.5115C 36.3158,36.6382 35.3328,36.0218 34.792,35.1435L 27.8781,23.8448C 27.3418,22.9624 26.261,22.574 28.6541,20.6908 Z "/>
</svg>
