<?xml version="1.0" encoding="utf-8"?>
<!DOCTYPE svg PUBLIC "-//W3C//DTD SVG 1.1//EN" "http://www.w3.org/Graphics/SVG/1.1/DTD/svg11.dtd">
<svg xmlns="http://www.w3.org/2000/svg" xmlns:xlink="http://www.w3.org/1999/xlink" version="1.1" baseProfile="full" width="76" height="76" viewBox="0 0 76.00 76.00" enable-background="new 0 0 76.00 76.00" xml:space="preserve">
	<path fill="#000000" fill-opacity="1" stroke-width="0.2" stroke-linejoin="round" d="M 18.4526,21.8355L 35.9529,21.8355L 35.9529,26.3447L 23.944,26.3447L 23.944,34.1126L 35.283,34.1126L 35.283,38.5768L 23.944,38.5768L 23.944,47.4158L 36.6223,47.4158L 36.6223,51.9246L 18.4526,51.9246L 18.4526,21.8355 Z M 45.8347,33.4427C 46.6949,31.7457 48.8661,29.6924 52.1831,29.6924C 55.6644,29.6924 59.2684,32.1479 59.2684,39.0231L 59.2684,51.9246L 54.2306,51.9246L 54.2306,39.648C 54.2306,36.5231 53.1661,34.1571 50.4218,34.1571C 48.4157,34.1571 47.0238,35.7191 46.4907,37.3716C 46.3264,37.8624 46.2855,38.5318 46.2855,39.1567L 46.2855,51.9246L 41.2063,51.9246L 41.2063,36.6567C 41.2063,34.1571 41.1648,32.0588 41.0429,30.1837L 45.4658,30.1837L 45.7115,33.4427L 45.8347,33.4427 Z "/>
</svg>
