<?xml version="1.0" encoding="utf-8"?>
<!DOCTYPE svg PUBLIC "-//W3C//DTD SVG 1.1//EN" "http://www.w3.org/Graphics/SVG/1.1/DTD/svg11.dtd">
<svg xmlns="http://www.w3.org/2000/svg" xmlns:xlink="http://www.w3.org/1999/xlink" version="1.1" baseProfile="full" width="76" height="76" viewBox="0 0 76.00 76.00" enable-background="new 0 0 76.00 76.00" xml:space="preserve">
	<path fill="#000000" fill-opacity="1" stroke-width="0.2" stroke-linejoin="round" d="M 51.4237,48.8848C 50.7931,49.2215 49.8882,49.5476 48.7089,49.8629C 47.5297,50.1782 46.2685,50.3472 44.9253,50.3698C 43.486,50.3769 42.1321,50.1485 40.8638,49.6844C 39.5955,49.2203 38.4982,48.4778 37.5719,47.4568C 36.7168,46.4954 36.0898,45.1626 35.6908,43.4585L 49.9986,43.4585L 49.9986,39.5398L 34.8927,39.5398C 34.8927,39.2394 34.8927,38.9079 34.8927,38.5453C 34.8832,37.8721 34.9022,37.2298 34.9497,36.6185L 49.9986,36.6185L 49.9986,32.6998L 35.8048,32.6998C 36.1848,31.1509 36.7928,29.8925 37.6289,28.9245C 38.5243,27.8536 39.5694,27.0623 40.7641,26.5506C 41.9588,26.0389 43.2318,25.7849 44.5833,25.7885C 45.854,25.8067 47.0463,25.9591 48.1603,26.2457C 49.2742,26.5323 50.21,26.8444 50.9677,27.182L 52.5638,20.7122C 51.5235,20.2469 50.2694,19.852 48.8016,19.5276C 47.3337,19.2032 45.7376,19.0339 44.0133,19.0198C 41.2942,19.0327 38.8275,19.5428 36.6132,20.5499C 34.3988,21.557 32.505,22.9836 30.9319,24.8297C 29.0913,26.9158 27.8084,29.5392 27.0833,32.6998L 23.2788,32.6998L 23.2788,36.6185L 26.4697,36.6185C 26.4511,37.2401 26.4326,37.8617 26.414,38.4832C 26.414,38.8665 26.414,39.2187 26.414,39.5398L 23.2788,39.5398L 23.2788,43.4585L 26.9717,43.4585C 27.5109,46.4794 28.5521,48.9483 30.0953,50.8652C 31.6842,52.9082 33.6699,54.4627 36.0523,55.5289C 38.4347,56.5951 41.0504,57.1317 43.8993,57.1385C 45.7448,57.1168 47.4406,56.8989 48.9868,56.4851C 50.533,56.0712 51.8014,55.592 52.7918,55.0474L 51.4237,48.8848 Z "/>
</svg>
