<?xml version="1.0" encoding="utf-8"?>
<!DOCTYPE svg PUBLIC "-//W3C//DTD SVG 1.1//EN" "http://www.w3.org/Graphics/SVG/1.1/DTD/svg11.dtd">
<svg xmlns="http://www.w3.org/2000/svg" xmlns:xlink="http://www.w3.org/1999/xlink" version="1.1" baseProfile="full" width="76" height="76" viewBox="0 0 76.00 76.00" enable-background="new 0 0 76.00 76.00" xml:space="preserve">
	<path fill="#000000" fill-opacity="1" stroke-width="0.2" stroke-linejoin="round" d="M 37.6158,26.645L 43.6775,20.5833C 44.2958,19.965 45.2983,19.965 45.9167,20.5833C 46.535,21.2016 46.535,22.2042 45.9167,22.8225L 41.8225,26.9167L 53.8333,26.9167C 56.4567,26.9167 58.5833,29.0433 58.5833,31.6667L 58.5833,52.25C 58.5833,54.8734 56.4567,57 53.8333,57L 22.1667,57C 19.5433,57 17.4167,54.8734 17.4167,52.25L 17.4167,31.6667C 17.4167,29.0433 19.5433,26.9167 22.1667,26.9167L 31.0108,26.9167L 26.9167,22.8225C 26.2983,22.2042 26.2983,21.2017 26.9167,20.5833C 27.535,19.965 28.5375,19.965 29.1558,20.5833L 35.2175,26.645C 35.3016,26.7291 35.3742,26.8203 35.4354,26.9167L 37.3978,26.9167C 37.4591,26.8203 37.5317,26.7291 37.6158,26.645 Z M 22.1667,31.6667L 22.1667,52.25L 45.9166,52.25L 45.9166,31.6667L 22.1667,31.6667 Z M 52.25,31.6667C 50.5011,31.6667 49.0833,33.0845 49.0833,34.8334C 49.0833,36.5823 50.5011,38 52.25,38C 53.9989,38 55.4166,36.5823 55.4166,34.8334C 55.4166,33.0845 53.9989,31.6667 52.25,31.6667 Z M 52.2499,41.1667C 50.501,41.1667 49.0833,42.5845 49.0833,44.3334C 49.0833,46.0823 50.501,47.5 52.2499,47.5C 53.9988,47.5 55.4166,46.0823 55.4166,44.3334C 55.4166,42.5845 53.9988,41.1667 52.2499,41.1667 Z "/>
</svg>
