<?xml version="1.0" encoding="utf-8"?>
<!DOCTYPE svg PUBLIC "-//W3C//DTD SVG 1.1//EN" "http://www.w3.org/Graphics/SVG/1.1/DTD/svg11.dtd">
<svg xmlns="http://www.w3.org/2000/svg" xmlns:xlink="http://www.w3.org/1999/xlink" version="1.1" baseProfile="full" width="76" height="76" viewBox="0 0 76.00 76.00" enable-background="new 0 0 76.00 76.00" xml:space="preserve">
	<path fill="#000000" fill-opacity="1" stroke-width="0.2" stroke-linejoin="round" d="M 57.0001,25.3338C 57.0001,22.0059 53.9939,19.0001 50.6668,19.0001L 25.3343,19.0001C 22.0047,19.0001 19.0001,22.0059 19.0001,25.3338L 19.0001,50.6663C 19.0001,53.9943 22.0047,57.0001 25.3343,57.0001L 38,57L 38,42.9999L 33,42.9999L 33.0001,36.9998L 38.0001,36.9998L 38.0001,33.8437C 38.0001,29.5882 41.1963,25.7556 45.1272,25.7556L 50.2446,25.7556L 50.2446,32.089L 45.1272,32.089C 44.5657,32.089 44.0001,32.7307 44.0001,33.75L 44.0001,36.9998L 50.5001,36.9997L 50,42.9999L 44,42.9999L 44,57L 50.6668,57.0001C 53.9939,57.0001 57.0001,53.9943 57.0001,50.6663L 57.0001,25.3338 Z "/>
</svg>
