<?xml version="1.0" encoding="utf-8"?>
<!DOCTYPE svg PUBLIC "-//W3C//DTD SVG 1.1//EN" "http://www.w3.org/Graphics/SVG/1.1/DTD/svg11.dtd">
<svg xmlns="http://www.w3.org/2000/svg" xmlns:xlink="http://www.w3.org/1999/xlink" version="1.1" baseProfile="full" width="76" height="76" viewBox="0 0 76.00 76.00" enable-background="new 0 0 76.00 76.00" xml:space="preserve">
	<path fill="#000000" fill-opacity="1" stroke-linejoin="round" d="M 30,23C 30,20.3766 32.3767,18 35,18L 41,18C 43.6234,18 46,20.3766 46,23L 50.9999,23.0001C 53.7613,23.0001 55.9999,25.2387 55.9999,28.0001L 55.9999,42.0001C 55.9999,44.7615 53.7613,47.0001 50.9999,47.0001L 25,47.0001C 22.2385,47.0001 20,44.7615 20,42.0001L 20,28.0001C 20,25.2387 22.2385,23.0001 25,23.0001L 30,23 Z M 25.5,26C 24.6716,26 24,26.8955 24,28C 24,29.1046 24.6716,30 25.5,30C 26.3284,30 27,29.1046 27,28C 27,26.8955 26.3284,26 25.5,26 Z M 38,28C 34.134,28 31,31.134 31,35C 31,38.866 34.134,42 38,42C 41.866,42 45,38.866 45,35C 45,31.134 41.866,28 38,28 Z M 38,30.5C 40.4853,30.5 42.5,32.5147 42.5,35C 42.5,37.4853 40.4853,39.5 38,39.5C 35.5147,39.5 33.5,37.4853 33.5,35C 33.5,32.5147 35.5147,30.5 38,30.5 Z M 28.97,58L 26.7356,58L 26.1506,56.18L 22.8011,56.18L 22.2222,58L 20,58L 23.2725,49L 25.7718,49L 28.97,58 Z M 25.6042,54.36L 24.6495,51.3436L 24.4951,50.525L 24.4444,50.525L 24.2839,51.3172L 23.3109,54.36L 25.6042,54.36 Z M 37.225,54.0431C 37.225,56.7677 35.9494,57.88 33.3981,57.88C 30.9227,57.88 29.685,56.7995 29.685,54.1386L 29.685,49L 31.765,49L 31.765,53.8744C 31.765,55.3315 32.3337,56.06 33.4712,56.06C 34.5871,56.06 35.145,55.3565 35.145,53.9495L 35.145,49L 37.225,49L 37.225,54.0431 Z M 45.675,50.59L 43.075,50.59L 43.075,58L 40.995,58L 40.995,50.59L 38.395,50.59L 38.395,49L 45.675,49L 45.675,50.59 Z M 50.4443,57.88C 49.1335,57.88 48.0651,57.7082 47.239,56.8645C 46.413,56.0209 46,54.9213 46,53.5658C 46,52.1358 46.4191,50.979 47.2573,50.0954C 48.0956,49.2118 49.2066,49.02 50.5906,49.02C 51.8974,49.02 52.954,49.1928 53.7604,50.0385C 54.5668,50.8842 54.97,51.999 54.97,53.383C 54.97,54.8062 54.5519,55.9532 53.7157,56.8239C 52.8795,57.6946 51.789,57.88 50.4443,57.88 Z M 50.5317,50.59C 49.8208,50.59 49.2561,50.8524 48.8376,51.3771C 48.4192,51.9019 48.21,52.5969 48.21,53.4622C 48.21,54.3397 48.4192,55.0337 48.8376,55.5442C 49.2561,56.0547 49.8038,56.31 50.4809,56.31C 51.1797,56.31 51.7342,56.0619 52.1445,55.5656C 52.5548,55.0693 52.76,54.3803 52.76,53.4988C 52.76,52.5806 52.5612,51.8663 52.1638,51.3558C 51.7664,50.8453 51.2223,50.59 50.5317,50.59 Z "/>
</svg>
