<?xml version="1.0" encoding="utf-8"?>
<!DOCTYPE svg PUBLIC "-//W3C//DTD SVG 1.1//EN" "http://www.w3.org/Graphics/SVG/1.1/DTD/svg11.dtd">
<svg xmlns="http://www.w3.org/2000/svg" xmlns:xlink="http://www.w3.org/1999/xlink" version="1.1" baseProfile="full" width="76" height="76" viewBox="0 0 76.00 76.00" enable-background="new 0 0 76.00 76.00" xml:space="preserve">
	<path fill="#000000" fill-opacity="1" stroke-width="0.2" stroke-linejoin="round" d="M 26.9167,45.9167L 28.5,46.0663L 28.5,22.1667L 53.8333,17.4167L 53.8333,45.9167C 53.8333,48.54 50.9978,50.6667 47.5,50.6667C 44.0022,50.6667 41.1667,48.54 41.1667,45.9167C 41.1667,43.2933 44.0022,41.1667 47.5,41.1667L 49.0833,41.3163L 49.0833,23.0573L 33.25,26.026L 33.25,50.6667C 33.25,53.29 30.4145,55.4167 26.9167,55.4167C 23.4189,55.4167 20.5833,53.29 20.5833,50.6667C 20.5833,48.0433 23.4189,45.9167 26.9167,45.9167 Z M 47.5,58.5833C 49.2489,58.5833 50.6666,60.0011 50.6666,61.75C 50.6666,63.4989 49.2489,64.9167 47.5,64.9167C 45.7511,64.9167 44.3333,63.4989 44.3333,61.75C 44.3333,60.0011 45.7511,58.5833 47.5,58.5833 Z M 38,58.5833C 39.7489,58.5833 41.1666,60.0011 41.1666,61.75C 41.1666,63.4989 39.7489,64.9167 38,64.9167C 36.2511,64.9167 34.8333,63.4989 34.8333,61.75C 34.8333,60.0011 36.2511,58.5833 38,58.5833 Z M 28.5,58.5833C 30.2489,58.5833 31.6667,60.0011 31.6667,61.75C 31.6667,63.4989 30.2489,64.9167 28.5,64.9167C 26.7511,64.9167 25.3333,63.4989 25.3333,61.75C 25.3333,60.0011 26.7511,58.5833 28.5,58.5833 Z "/>
</svg>
