<?xml version="1.0" encoding="utf-8"?>
<!DOCTYPE svg PUBLIC "-//W3C//DTD SVG 1.1//EN" "http://www.w3.org/Graphics/SVG/1.1/DTD/svg11.dtd">
<svg xmlns="http://www.w3.org/2000/svg" xmlns:xlink="http://www.w3.org/1999/xlink" version="1.1" baseProfile="full" width="76" height="76" viewBox="0 0 76.00 76.00" enable-background="new 0 0 76.00 76.00" xml:space="preserve">
	<path fill="#000000" fill-opacity="1" stroke-width="0.2" stroke-linejoin="round" d="M 21,16L 55,16L 55,60L 21,60L 21,16 Z M 24,19L 24,57L 52,57L 52,19L 24,19 Z M 26,55L 41.9166,38.8334L 46.6666,43.5834L 50,40L 50,55L 26,55 Z M 43.07,25.8956L 40.2317,26.25L 42.23,28.3598L 40.3761,29.61L 38.9816,27.0047L 37.5838,29.61L 35.72,28.3598L 37.7281,26.25L 34.8802,25.8956L 35.6183,23.94L 38.24,24.99L 37.8203,22.05L 40.13,22.05L 39.71,24.99L 42.312,23.94L 43.07,25.8956 Z M 30.456,22.7595L 30.9443,22.5354C 29.515,24.6847 29.2556,27.5218 30.5109,29.9854C 31.7661,32.449 34.2139,33.9067 36.7928,34.0137L 36.3244,34.277C 33.144,35.8975 29.252,34.6329 27.6315,31.4525C 26.011,28.272 27.2755,24.3801 30.456,22.7595 Z "/>
</svg>
