<?xml version="1.0" encoding="utf-8"?>
<!DOCTYPE svg PUBLIC "-//W3C//DTD SVG 1.1//EN" "http://www.w3.org/Graphics/SVG/1.1/DTD/svg11.dtd">
<svg xmlns="http://www.w3.org/2000/svg" xmlns:xlink="http://www.w3.org/1999/xlink" version="1.1" baseProfile="full" width="76" height="76" viewBox="0 0 76.00 76.00" enable-background="new 0 0 76.00 76.00" xml:space="preserve">
	<path fill="#000000" fill-opacity="1" stroke-width="0.2" stroke-linejoin="round" d="M 41.1668,34.8332L 41.1667,22.1666L 45.9167,17.4166L 45.9168,25.3332L 55.4167,15.8333L 60.1667,20.5833L 50.6668,30.0832L 58.5834,30.0832L 53.8334,34.8332L 41.1668,34.8332 Z M 41.1667,53.8333L 41.1667,41.1666L 53.8333,41.1666L 58.5833,45.9166L 50.6667,45.9166L 58.5833,53.8333L 53.8333,58.5833L 45.9167,50.6666L 45.9167,58.5833L 41.1667,53.8333 Z M 22.1667,34.8333L 17.4167,30.0833L 25.3333,30.0833L 17.4167,22.1667L 22.1667,17.4167L 30.0833,25.3333L 30.0833,17.4167L 34.8333,22.1667L 34.8333,34.8333L 22.1667,34.8333 Z M 22.1667,41.1667L 34.8333,41.1667L 34.8333,53.8334L 30.0833,58.5834L 30.0833,50.6667L 22.1667,58.5833L 17.4167,53.8333L 25.3333,45.9167L 17.4167,45.9167L 22.1667,41.1667 Z "/>
</svg>
