<?xml version="1.0" encoding="utf-8"?>
<!DOCTYPE svg PUBLIC "-//W3C//DTD SVG 1.1//EN" "http://www.w3.org/Graphics/SVG/1.1/DTD/svg11.dtd">
<svg xmlns="http://www.w3.org/2000/svg" xmlns:xlink="http://www.w3.org/1999/xlink" version="1.1" baseProfile="full" width="76" height="76" viewBox="0 0 76.00 76.00" enable-background="new 0 0 76.00 76.00" xml:space="preserve">
	<path fill="#000000" fill-opacity="1" stroke-width="0.2" stroke-linejoin="round" d="M 17,20L 59,20L 59,56L 17,56L 17,20 Z M 20,23L 20,53L 56,53L 56,23L 20,23 Z M 24,51L 30.0833,44.3333L 33.25,47.5L 45.9166,34.8334L 50.6666,39.5834L 54,36L 54,51L 24,51 Z M 30.0833,26.9167C 30.0833,30.4145 27.2478,33.25 23.75,33.25C 23.2033,33.25 22.5061,33.1303 22,33L 22,25L 29.6666,25C 29.7968,25.5061 30.0833,26.37 30.0833,26.9167 Z M 22.1667,47.5L 28.5,41.1667L 29.2917,41.9583L 23.75,47.5L 22.1667,47.5 Z M 31.6667,44.3333L 44.3333,31.6667L 45.125,32.4583L 32.4583,45.125L 31.6667,44.3333 Z M 49.0833,36.4167L 52.25,33.25L 52.25,34.8333L 49.875,37.2083L 49.0833,36.4167 Z M 23.75,34.8333C 28.1223,34.8333 31.6667,31.2889 31.6667,26.9167L 33.25,26.9167C 33.25,32.1634 28.9967,36.4167 23.75,36.4167L 23.75,34.8333 Z "/>
</svg>
