<?xml version="1.0" encoding="utf-8"?>
<!DOCTYPE svg PUBLIC "-//W3C//DTD SVG 1.1//EN" "http://www.w3.org/Graphics/SVG/1.1/DTD/svg11.dtd">
<svg xmlns="http://www.w3.org/2000/svg" xmlns:xlink="http://www.w3.org/1999/xlink" version="1.1" baseProfile="full" width="76" height="76" viewBox="0 0 76.00 76.00" enable-background="new 0 0 76.00 76.00" xml:space="preserve">
	<path fill="#000000" fill-opacity="1" stroke-width="0.2" stroke-linejoin="round" d="M 23.75,57L 19,42.75L 19,19L 52.25,19L 52.25,39.5833L 57,53.8333L 57,57L 23.75,57 Z M 49.0833,39.5834L 49.0833,22.1667L 22.1667,22.1667L 22.1667,39.5834L 49.0833,39.5834 Z M 50.4027,43.5417L 49.875,41.9584L 46.2135,41.9584L 46.8073,43.5417L 50.4027,43.5417 Z M 22.9583,41.9584L 23.4861,43.5417L 27.0156,43.5417L 26.4219,41.9584L 22.9583,41.9584 Z M 31.7656,43.5417L 31.1719,41.9584L 27.2136,41.9584L 27.8073,43.5417L 31.7656,43.5417 Z M 36.5156,43.5417L 35.9219,41.9584L 31.9635,41.9584L 32.5573,43.5417L 36.5156,43.5417 Z M 41.2656,43.5417L 40.6719,41.9584L 36.7135,41.9584L 37.3073,43.5417L 41.2656,43.5417 Z M 46.0156,43.5417L 45.4219,41.9584L 41.4635,41.9584L 42.0573,43.5417L 46.0156,43.5417 Z M 53.5694,53.0417L 53.0416,51.4584L 49.776,51.4584L 50.3698,53.0417L 53.5694,53.0417 Z M 26.125,51.4584L 26.6528,53.0417L 30.5781,53.0417L 29.9844,51.4584L 26.125,51.4584 Z M 35.3281,53.0417L 34.7344,51.4584L 30.776,51.4584L 31.3698,53.0417L 35.3281,53.0417 Z M 40.0781,53.0417L 39.4844,51.4584L 35.526,51.4584L 36.1198,53.0417L 40.0781,53.0417 Z M 44.8281,53.0417L 44.2344,51.4584L 40.276,51.4584L 40.8698,53.0417L 44.8281,53.0417 Z M 49.5781,53.0417L 48.9844,51.4584L 45.026,51.4584L 45.6198,53.0417L 49.5781,53.0417 Z M 25.0694,48.2917L 25.5972,49.875L 29.3906,49.875L 28.7969,48.2917L 25.0694,48.2917 Z M 34.1406,49.875L 33.5469,48.2917L 29.5885,48.2917L 30.1823,49.875L 34.1406,49.875 Z M 38.8906,49.875L 38.2969,48.2917L 34.3385,48.2917L 34.9323,49.875L 38.8906,49.875 Z M 43.6406,49.875L 43.0469,48.2917L 39.0885,48.2917L 39.6823,49.875L 43.6406,49.875 Z M 48.3906,49.875L 47.7969,48.2917L 43.8385,48.2917L 44.4323,49.875L 48.3906,49.875 Z M 52.5138,49.875L 51.9861,48.2917L 48.5885,48.2917L 49.1823,49.875L 52.5138,49.875 Z M 24.0139,45.125L 24.5416,46.7084L 28.2031,46.7084L 27.6094,45.125L 24.0139,45.125 Z M 32.9531,46.7084L 32.3594,45.125L 28.401,45.125L 28.9948,46.7084L 32.9531,46.7084 Z M 37.7031,46.7084L 37.1094,45.125L 33.151,45.125L 33.7448,46.7084L 37.7031,46.7084 Z M 42.4531,46.7084L 41.8594,45.125L 37.901,45.125L 38.4948,46.7084L 42.4531,46.7084 Z M 47.2031,46.7084L 46.6094,45.125L 42.651,45.125L 43.2448,46.7084L 47.2031,46.7084 Z M 51.4583,46.7084L 50.9305,45.125L 47.401,45.125L 47.9948,46.7084L 51.4583,46.7084 Z "/>
</svg>
