<?xml version="1.0" encoding="utf-8"?>
<!DOCTYPE svg PUBLIC "-//W3C//DTD SVG 1.1//EN" "http://www.w3.org/Graphics/SVG/1.1/DTD/svg11.dtd">
<svg xmlns="http://www.w3.org/2000/svg" xmlns:xlink="http://www.w3.org/1999/xlink" version="1.1" baseProfile="full" width="76" height="76" viewBox="0 0 76.00 76.00" enable-background="new 0 0 76.00 76.00" xml:space="preserve">
	<path fill="#000000" fill-opacity="1" stroke-width="0.2" stroke-linejoin="round" d="M 36.4167,17.4167L 36.4167,57L 17.4167,57L 36.4167,17.4167 Z M 33.25,30.0833L 22.1667,53.8333L 33.25,53.8333L 33.25,30.0833 Z M 39.5833,17.4167L 45.602,29.9555L 43.2042,31.3941L 39.5833,23.75L 39.5833,17.4167 Z M 49.8504,38.8064L 47.4091,40.2712L 44.3723,33.86L 46.7821,32.4141L 49.8504,38.8064 Z M 54.0989,47.6573L 51.6141,49.1482L 48.5772,42.737L 51.0305,41.265L 54.0989,47.6573 Z M 58.5833,57L 55.4167,57L 53.8333,53.8333L 52.7821,51.6141L 55.279,50.1159L 58.5833,57 Z M 45.9166,57L 45.9166,53.8333L 49.0833,53.8333L 50.6666,53.8333L 50.6666,57L 45.9166,57 Z M 39.5833,57L 39.5833,52.25L 42.75,52.25L 42.75,53.8333L 42.75,57L 39.5833,57 Z M 39.5833,44.3334L 42.75,44.3334L 42.75,49.0833L 39.5833,49.0833L 39.5833,44.3334 Z M 39.5833,30.0834L 42.75,36.8691L 42.75,41.1667L 39.5833,41.1667L 39.5833,30.0834 Z "/>
</svg>
