<?xml version="1.0" encoding="utf-8"?>
<!DOCTYPE svg PUBLIC "-//W3C//DTD SVG 1.1//EN" "http://www.w3.org/Graphics/SVG/1.1/DTD/svg11.dtd">
<svg xmlns="http://www.w3.org/2000/svg" xmlns:xlink="http://www.w3.org/1999/xlink" version="1.1" baseProfile="full" width="76" height="76" viewBox="0 0 76.00 76.00" enable-background="new 0 0 76.00 76.00" xml:space="preserve">
	<path fill="#000000" fill-opacity="1" stroke-width="0.2" stroke-linejoin="round" d="M 54.8392,24.4749C 55.3507,24.2457 55.8111,24.1311 56.2202,24.1311C 56.6172,24.1311 56.966,24.2232 57.2668,24.4073C 57.5675,24.5915 57.8171,24.8339 58.0156,25.1347L 58.4575,26.1536L 58.6017,27.2737C 58.6017,29.6143 58.4667,31.8014 58.1966,33.8351C 57.9266,35.8688 57.5522,37.7644 57.0734,39.5218C 56.5947,41.2793 56.0289,42.8997 55.3763,44.383C 54.7236,45.8663 54.0167,47.232 53.2556,48.4801C 52.4946,49.7281 51.6925,50.8636 50.8496,51.8866C 50.0067,52.9095 49.1556,53.8302 48.2963,54.6486C 45.2682,57.5252 41.8351,59.6285 37.9969,60.9583C 34.1505,59.6285 30.7174,57.5252 27.6976,54.6486C 26.4086,53.421 25.1463,51.9633 23.9105,50.2754C 22.6748,48.5875 21.5751,46.6244 20.6114,44.3861C 19.6478,42.1478 18.8713,39.616 18.2821,36.7905C 17.6929,33.965 17.3982,30.7928 17.3982,27.2737L 17.5609,26.1413L 18.0397,25.1439C 18.2504,24.8493 18.5123,24.613 18.8253,24.435C 19.1383,24.257 19.4933,24.168 19.8902,24.168C 20.2871,24.168 20.7106,24.2703 21.1608,24.4749C 22.196,24.9495 23.1484,25.2851 24.0179,25.4815C 24.8875,25.6779 25.6925,25.7761 26.4332,25.7761C 27.4193,25.7761 28.3052,25.6298 29.0909,25.3372C 29.8765,25.0447 30.5987,24.6743 31.2575,24.2263L 33.0805,22.787L 34.7009,21.3476L 36.2906,20.2336C 36.8266,19.939 37.3954,19.7917 37.9969,19.7917C 38.6107,19.7917 39.1866,19.939 39.7247,20.2336L 41.3175,21.3476L 42.9471,22.787L 44.7701,24.2263C 45.4227,24.6743 46.1419,25.0447 46.9275,25.3372C 47.7132,25.6298 48.5991,25.7761 49.5852,25.7761C 50.3258,25.7761 51.1279,25.6779 51.9913,25.4815C 52.8546,25.2851 53.804,24.9495 54.8392,24.4749 Z "/>
</svg>
