<?xml version="1.0" encoding="utf-8"?>
<!DOCTYPE svg PUBLIC "-//W3C//DTD SVG 1.1//EN" "http://www.w3.org/Graphics/SVG/1.1/DTD/svg11.dtd">
<svg xmlns="http://www.w3.org/2000/svg" xmlns:xlink="http://www.w3.org/1999/xlink" version="1.1" baseProfile="full" width="76" height="76" viewBox="0 0 76.00 76.00" enable-background="new 0 0 76.00 76.00" xml:space="preserve">
	<path fill="#000000" fill-opacity="1" stroke-width="0.2" stroke-linejoin="round" d="M 20.5833,17.4167L 55.4166,17.4167L 55.4166,58.5833L 20.5833,58.5833L 20.5833,17.4167 Z M 23.75,20.5834L 23.75,26.9167L 30.0833,26.9167L 30.0833,20.5834L 23.75,20.5834 Z M 23.75,55.4167L 30.0833,55.4167L 30.0833,52.25L 23.75,52.25L 23.75,55.4167 Z M 30.0833,47.5L 23.75,47.5L 23.75,50.6667L 30.0833,50.6667L 30.0833,47.5 Z M 30.0833,42.75L 23.75,42.75L 23.75,45.9167L 30.0833,45.9167L 30.0833,42.75 Z M 30.0833,38L 23.75,38L 23.75,41.1667L 30.0833,41.1667L 30.0833,38 Z M 30.0833,33.25L 23.75,33.25L 23.75,36.4167L 30.0833,36.4167L 30.0833,33.25 Z M 30.0833,28.5L 23.75,28.5L 23.75,31.6667L 30.0833,31.6667L 30.0833,28.5 Z M 52.25,55.4167L 52.25,52.25L 31.6667,52.25L 31.6667,55.4167L 52.25,55.4167 Z M 52.25,47.5L 31.6667,47.5L 31.6667,50.6667L 52.25,50.6667L 52.25,47.5 Z M 52.25,42.75L 31.6667,42.75L 31.6667,45.9167L 52.25,45.9167L 52.25,42.75 Z M 52.25,38L 31.6667,38L 31.6667,41.1667L 52.25,41.1667L 52.25,38 Z M 52.25,33.25L 31.6667,33.25L 31.6667,36.4167L 52.25,36.4167L 52.25,33.25 Z M 52.25,28.5L 31.6667,28.5L 31.6667,31.6667L 52.25,31.6667L 52.25,28.5 Z M 52.25,20.5834L 31.6667,20.5834L 31.6667,26.9167L 52.25,26.9167L 52.25,20.5834 Z "/>
</svg>
