<?xml version="1.0" encoding="utf-8"?>
<!DOCTYPE svg PUBLIC "-//W3C//DTD SVG 1.1//EN" "http://www.w3.org/Graphics/SVG/1.1/DTD/svg11.dtd">
<svg xmlns="http://www.w3.org/2000/svg" xmlns:xlink="http://www.w3.org/1999/xlink" version="1.1" baseProfile="full" width="76" height="76" viewBox="0 0 76.00 76.00" enable-background="new 0 0 76.00 76.00" xml:space="preserve">
	<path fill="#000000" fill-opacity="1" stroke-width="0.2" stroke-linejoin="round" d="M 38,19C 41.1667,19 52.25,41.1667 52.0349,50.6667L 56.604,52.0233L 56.9999,57L 52.25,57L 23.75,57L 19,57L 19.3958,52.0233L 23.965,50.6667C 23.75,41.1667 34.8333,19 38,19 Z M 38,23.3541C 36.7432,23.3541 33.9113,27.9965 31.4209,33.6241L 41.2184,27.0156C 39.879,24.7827 38.6972,23.3541 38,23.3541 Z M 46.0944,37.2902L 44.1468,32.6647L 27.8093,43.6844C 27.2838,45.6903 26.9485,47.5478 26.8943,49.0833L 28.6105,49.0833L 46.0944,37.2902 Z M 49.1057,49.0833C 49.05,47.508 48.6985,45.594 48.1494,43.5284L 39.9139,49.0833L 49.1057,49.0833 Z "/>
</svg>
