<?xml version="1.0" encoding="utf-8"?>
<!DOCTYPE svg PUBLIC "-//W3C//DTD SVG 1.1//EN" "http://www.w3.org/Graphics/SVG/1.1/DTD/svg11.dtd">
<svg xmlns="http://www.w3.org/2000/svg" xmlns:xlink="http://www.w3.org/1999/xlink" version="1.1" baseProfile="full" width="76" height="76" viewBox="0 0 76.00 76.00" enable-background="new 0 0 76.00 76.00" xml:space="preserve">
	<path fill="#000000" fill-opacity="1" stroke-width="0.2" stroke-linejoin="round" d="M 19,17.4167L 41.9583,17.4167L 53.8333,29.2917L 53.8333,49.3536C 55.6782,50.0057 57,51.7652 57,53.8333L 57,58.5833C 57,61.2067 54.8733,63.3333 52.25,63.3333L 31.6667,63.3333C 29.0433,63.3333 26.9167,61.2067 26.9167,58.5833L 19,58.5833L 19,17.4167 Z M 50.6667,33.25L 38,33.25L 38,20.5833L 22.1667,20.5834L 22.1667,55.4167L 26.9167,55.4167L 26.9167,53.8333C 26.9167,51.21 29.0433,49.0833 31.6667,49.0833L 50.6667,49.0833L 50.6667,33.25 Z M 41.1667,21.375L 41.1667,30.0833L 49.8749,30.0833L 41.1667,21.375 Z M 30.0833,57L 30.0833,58.5833L 31.6667,58.5833L 31.6667,57L 30.0833,57 Z M 31.6667,58.5833L 31.6667,60.1667L 34.8333,60.1667L 34.8333,58.5833L 31.6667,58.5833 Z M 34.8333,58.5833L 36.4167,58.5833L 36.4167,52.25L 34.8333,52.25L 33.25,52.25L 33.25,53.8333L 34.8333,53.8333L 34.8333,58.5833 Z M 38,60.1667L 39.5833,60.1667L 39.5833,58.5833L 42.75,58.5833L 42.75,57L 39.5833,57L 39.5833,53.8333L 42.75,53.8333L 42.75,52.25L 39.5833,52.25L 38,52.25L 38,60.1667 Z M 42.75,57L 44.3333,57L 44.3333,53.8333L 42.75,53.8333L 42.75,57 Z M 52.25,60.1667L 52.25,55.4167L 50.6666,55.4167L 49.0833,55.4167L 49.0833,57L 50.6667,57L 50.6667,58.5833L 47.5,58.5833L 47.5,60.1667L 52.25,60.1667 Z M 47.5,58.5833L 47.5,53.8334L 45.9166,53.8334L 45.9167,58.5833L 47.5,58.5833 Z M 47.5,53.8334L 52.25,53.8333L 52.25,52.25L 47.5,52.25L 47.5,53.8334 Z "/>
</svg>
