<?xml version="1.0" encoding="utf-8"?>
<!DOCTYPE svg PUBLIC "-//W3C//DTD SVG 1.1//EN" "http://www.w3.org/Graphics/SVG/1.1/DTD/svg11.dtd">
<svg xmlns="http://www.w3.org/2000/svg" xmlns:xlink="http://www.w3.org/1999/xlink" version="1.1" baseProfile="full" width="76" height="76" viewBox="0 0 76.00 76.00" enable-background="new 0 0 76.00 76.00" xml:space="preserve">
	<path fill="#000000" fill-opacity="1" stroke-width="0.2" stroke-linejoin="round" d="M 33.6585,44.381L 24.397,44.381L 22.0936,52.9919L 14.5596,52.9919L 24.397,21L 33.9944,21L 42.31,47.4041L 47.7438,29.9832L 54.7237,29.9832L 62.0513,53L 56.2942,53L 54.4794,46.7375L 47.7438,46.7375L 46.0686,53L 36.1538,52.9919L 33.6585,44.381 Z M 25.4527,39.1786L 32.6028,39.1786L 30.5873,32.3811L 29.7355,29.2915L 28.9557,26.2024L 28.8598,26.2024L 28.134,29.3193L 27.3722,32.4615L 25.4527,39.1786 Z M 48.5116,42.954L 53.7116,42.954L 52.2458,38.0104L 51.6264,35.7634L 51.0592,33.5168L 50.9894,33.5168L 50.4616,35.7836L 49.9075,38.0688L 48.5116,42.954 Z "/>
</svg>
