<?xml version="1.0" encoding="utf-8"?>
<!DOCTYPE svg PUBLIC "-//W3C//DTD SVG 1.1//EN" "http://www.w3.org/Graphics/SVG/1.1/DTD/svg11.dtd">
<svg xmlns="http://www.w3.org/2000/svg" xmlns:xlink="http://www.w3.org/1999/xlink" version="1.1" baseProfile="full" width="76" height="76" viewBox="0 0 76.00 76.00" enable-background="new 0 0 76.00 76.00" xml:space="preserve">
	<path fill="#000000" fill-opacity="1" stroke-width="0.2" stroke-linejoin="round" d="M 26.3322,29.5391C 27.1239,12.9141 47.3114,22.4141 47.3114,22.4141C 48.8947,17.6641 54.0405,18.0599 54.0405,18.0599C 53.0417,19 54.8322,20.8307 54.8322,20.8307C 50.8739,20.8307 49.2905,23.6016 49.2905,23.6016C 65.1239,37.8516 51.6655,44.1849 51.6655,44.1849C 38.9989,39.4349 33.4572,35.0807 26.3322,29.5391 Z M 26.3322,31.5182C 34.2489,38.2474 39.7905,41.4141 50.0822,45.3724C 50.0822,45.3724 41.7697,61.9974 29.103,57.2474C 29.103,57.2474 28.5,60.1667 25.9364,58.4349C 23.75,57 25.9364,55.2682 25.9364,55.2682C 25.9364,55.2682 16.0405,48.9349 26.3322,31.5182 Z "/>
</svg>
