<?xml version="1.0" encoding="utf-8"?>
<!DOCTYPE svg PUBLIC "-//W3C//DTD SVG 1.1//EN" "http://www.w3.org/Graphics/SVG/1.1/DTD/svg11.dtd">
<svg xmlns="http://www.w3.org/2000/svg" xmlns:xlink="http://www.w3.org/1999/xlink" version="1.1" baseProfile="full" width="76" height="76" viewBox="0 0 76.00 76.00" enable-background="new 0 0 76.00 76.00" xml:space="preserve">
	<path fill="#000000" fill-opacity="1" stroke-linejoin="round" d="M 39.75,19C 41.683,19 43.25,20.567 43.25,22.5C 43.25,24.433 41.683,26 39.75,26C 37.817,26 36.25,24.433 36.25,22.5C 36.25,20.567 37.817,19 39.75,19 Z M 46.5,55.2209C 46.6722,56.0312 46.155,56.8277 45.3446,57C 44.5343,57.1722 43.7378,56.655 43.5655,55.8446L 41.8509,47.7778L 41.8237,47.5974L 36.7097,41.5027L 35.2594,41.0999L 34.4691,46.7234C 34.4213,47.0638 33.941,48.0815 33.7957,48.3053L 28.766,56.0502C 28.3148,56.745 27.3858,56.9425 26.6911,56.4913C 25.9963,56.0401 25.7988,55.1111 26.25,54.4163L 31.4983,46.3058L 32.5291,38.1631C 32.5752,37.8357 33.2237,34.7979 34.2165,30.4882L 30.4611,32.4934L 29.4548,37.715C 29.3242,38.3928 28.6687,38.8365 27.9908,38.7058C 27.313,38.5752 26.8693,37.9198 27,37.2419L 28.0307,31.8935C 28.0469,31.8095 28.3476,30.7878 28.7639,30.5655L 35.5516,26.9412C 35.6263,26.9013 36.9417,26.2501 37.875,26.2501C 39.5756,26.2501 41,27 41.2491,28.4396L 44,34.3389L 44.0244,34.3947L 48.5878,36.3317C 49.2232,36.6014 49.5197,37.3353 49.25,37.9708C 48.9802,38.6062 48.2464,38.9027 47.6109,38.633L 42.7006,36.5486C 42.3459,36.3981 42.0968,36.1029 41.7342,35.3954L 40.4968,32.7418L 39.02,39.5889L 44.2293,45.797C 44.4391,46.0471 44.7459,46.9684 44.7853,47.154L 46.5,55.2209 Z "/>
</svg>
