<?xml version="1.0" encoding="utf-8"?>
<!DOCTYPE svg PUBLIC "-//W3C//DTD SVG 1.1//EN" "http://www.w3.org/Graphics/SVG/1.1/DTD/svg11.dtd">
<svg xmlns="http://www.w3.org/2000/svg" xmlns:xlink="http://www.w3.org/1999/xlink" version="1.1" baseProfile="full" width="76.0106" height="76.0106" viewBox="0 0 76.01 76.01" enable-background="new 0 0 76.01 76.01" xml:space="preserve">
	<path fill="#000000" fill-opacity="1" stroke-width="0.2" stroke-linejoin="round" d="M 52.2573,19.0027C 58.3793,19.0027 63.3422,23.9655 63.3422,30.0875L 63.3422,31.6711L 58.5915,31.6711L 58.5915,30.0875C 58.5915,26.5892 55.7556,23.7533 52.2573,23.7533C 48.759,23.7533 45.9231,26.5892 45.9231,30.0875L 45.923,34.8377L 49.0902,34.8377L 49.0902,55.4242L 19.0029,55.4242L 19.0029,34.8378L 41.1724,34.838L 41.1724,30.0875C 41.1724,23.9655 46.1353,19.0027 52.2573,19.0027 Z M 31.6711,50.6737L 36.4217,50.6737L 35.1052,44.0911C 35.8857,43.7018 36.4217,42.8956 36.4217,41.9642C 36.4217,40.6523 35.3583,39.5889 34.0464,39.5889C 32.7346,39.5889 31.6711,40.6523 31.6711,41.9642C 31.6711,42.8956 32.2072,43.7018 32.9876,44.0911L 31.6711,50.6737 Z "/>
</svg>
