<?xml version="1.0" encoding="utf-8"?>
<!DOCTYPE svg PUBLIC "-//W3C//DTD SVG 1.1//EN" "http://www.w3.org/Graphics/SVG/1.1/DTD/svg11.dtd">
<svg xmlns="http://www.w3.org/2000/svg" xmlns:xlink="http://www.w3.org/1999/xlink" version="1.1" baseProfile="full" width="76" height="76" viewBox="0 0 76.00 76.00" enable-background="new 0 0 76.00 76.00" xml:space="preserve">
	<path fill="#000000" fill-opacity="1" stroke-width="0.2" stroke-linejoin="round" d="M 23.75,19C 26.125,20.3195 28.5,21.6389 30.875,21.6389C 33.25,21.6389 35.625,20.3195 38,19C 40.375,20.3195 42.75,21.6389 45.125,21.6389C 47.5,21.6389 49.875,20.3195 52.25,19L 56.2083,26.5209L 38,26.5209L 19.7916,26.5209L 23.75,19 Z M 56.9999,33.2501C 56.9999,38.5278 55.4167,42.75 52.25,47.5C 49.0833,52.25 41.1666,56.6042 38,56.6042C 34.8333,56.6042 26.9167,52.25 23.75,47.5C 20.5833,42.75 19,38.5278 19,33.2501C 19,31.5012 19.3958,28.1042 20.9791,28.1042L 55.0208,28.1042C 56.6041,28.1042 56.9999,31.5012 56.9999,33.2501 Z M 26.7847,43.799C 26.9892,45.0986 27.4521,46.0756 28.1734,46.7298C 28.8947,47.384 29.8414,47.7111 31.0135,47.7111C 32.6386,47.7111 33.9586,47.1009 34.9735,45.8804C 35.9884,44.6599 36.4958,42.6708 36.4958,39.9132C 36.4958,37.2039 36.0126,35.2578 35.0461,34.0747C 34.0796,32.8916 32.8431,32.3 31.3368,32.3C 29.9514,32.3 28.8111,32.7624 27.9161,33.6871C 27.0211,34.6118 26.5736,35.8284 26.5736,37.337C 26.5736,38.7862 27.0107,39.9627 27.8848,40.8665C 28.7589,41.7703 29.7985,42.2222 31.0036,42.2222C 32.112,42.2222 33.0356,41.8 33.7745,40.9556C 33.6579,42.6796 33.3885,43.8144 32.9663,44.3597C 32.5441,44.9051 32.0317,45.1778 31.4291,45.1778C 30.9541,45.1778 30.571,45.0398 30.2796,44.7638C 29.9882,44.4878 29.8084,44.0629 29.7403,43.4889L 26.7847,43.799 Z M 33.5402,37.4162C 33.5402,38.1616 33.3489,38.7268 32.9663,39.1116C 32.5837,39.4965 32.113,39.6889 31.5545,39.6889C 30.9761,39.6889 30.494,39.4888 30.108,39.0886C 29.7221,38.6883 29.5291,38.0616 29.5291,37.2083C 29.5291,36.3661 29.7067,35.7597 30.0619,35.3892C 30.417,35.0186 30.8629,34.8333 31.3995,34.8333C 31.9646,34.8333 32.4627,35.0588 32.8937,35.5096C 33.3247,35.9604 33.5402,36.5959 33.5402,37.4162 Z M 39.2403,43.1821C 39.4118,44.5631 39.9357,45.6632 40.8121,46.4824C 41.6884,47.3015 42.8226,47.7111 44.2146,47.7111C 45.954,47.7111 47.3142,47.0602 48.295,45.7583C 49.0141,44.8039 49.3736,43.7187 49.3736,42.5026C 49.3736,41.0468 48.9393,39.8621 48.0706,38.9484C 47.202,38.0346 46.1432,37.5778 44.8941,37.5778C 44.2388,37.5778 43.5966,37.7592 42.9677,38.1221L 43.5285,35.4667L 48.7403,35.4667L 48.7403,32.5111L 41.1403,32.5111L 39.4514,40.8401L 42.0144,41.1667C 42.6631,40.463 43.3954,40.1111 44.2113,40.1111C 44.8666,40.1111 45.3982,40.3156 45.8062,40.7247C 46.2141,41.1337 46.418,41.7483 46.418,42.5686C 46.418,43.4416 46.1915,44.0947 45.7385,44.5279C 45.2855,44.9612 44.7325,45.1778 44.0793,45.1778C 43.5076,45.1778 43.0029,44.9694 42.5653,44.5527C 42.1277,44.136 41.8638,43.5703 41.7736,42.8556L 39.2403,43.1821 Z "/>
</svg>
