<?xml version="1.0" encoding="utf-8"?>
<!DOCTYPE svg PUBLIC "-//W3C//DTD SVG 1.1//EN" "http://www.w3.org/Graphics/SVG/1.1/DTD/svg11.dtd">
<svg xmlns="http://www.w3.org/2000/svg" xmlns:xlink="http://www.w3.org/1999/xlink" version="1.1" baseProfile="full" width="76" height="76" viewBox="0 0 76.00 76.00" enable-background="new 0 0 76.00 76.00" xml:space="preserve">
	<path fill="#000000" fill-opacity="1" stroke-width="0.2" stroke-linejoin="round" d="M 49.0833,41.1667C 53.4555,41.1667 57,44.7111 57,49.0833C 57,53.4556 53.4557,56.9999 49.0511,56.9999L 22.9583,57.0001C 20.7722,57 19,55.2278 19,53.0417C 19,51.1033 20.3931,49.4904 22.2328,49.1497L 22.1667,48.2916C 22.1667,45.316 24.5123,42.8879 27.4553,42.7556C 28.7579,39.0629 32.2783,36.4166 36.4167,36.4166C 40.3459,36.4166 43.7179,38.802 45.1637,42.2035C 46.3193,41.5437 47.6573,41.1667 49.0833,41.1667 Z M 61.9265,41.022L 57.7704,41.9762C 56.7238,40.7368 55.3533,39.7798 53.7893,39.2359L 53.7924,36.8188L 61.9265,41.022 Z M 14.0735,34.978L 22.9993,32.9288C 22.3291,34.9052 22.0442,37.0273 22.2076,39.1813L 14.0735,34.978 Z M 23.2183,18.9445L 30.9775,23.8062C 29.0371,24.7634 27.3565,26.089 25.9983,27.67L 23.2183,18.9445 Z M 41.022,14.0735L 43.0712,22.9993C 41.0948,22.3292 38.9728,22.0443 36.8187,22.2077L 41.022,14.0735 Z M 57.0555,23.2183L 52.1938,30.9775C 51.2366,29.0372 49.911,27.3566 48.3301,25.9984L 57.0555,23.2183 Z M 38,25.3334C 44.9956,25.3334 50.6666,31.0044 50.6666,38L 50.6458,38.7325C 49.0537,38.7567 47.5602,39.1883 46.2653,39.9278C 44.5971,36.0029 40.7063,33.2505 36.1727,33.2505C 31.3976,33.2505 27.3357,36.3039 25.8328,40.5648L 25.5962,40.5798C 25.4239,39.7469 25.3333,38.884 25.3333,38C 25.3333,31.0044 31.0044,25.3334 38,25.3334 Z "/>
</svg>
