<?xml version="1.0" encoding="utf-8"?>
<!DOCTYPE svg PUBLIC "-//W3C//DTD SVG 1.1//EN" "http://www.w3.org/Graphics/SVG/1.1/DTD/svg11.dtd">
<svg xmlns="http://www.w3.org/2000/svg" xmlns:xlink="http://www.w3.org/1999/xlink" version="1.1" baseProfile="full" width="76" height="76" viewBox="0 0 76.00 76.00" enable-background="new 0 0 76.00 76.00" xml:space="preserve">
	<path fill="#000000" fill-opacity="1" stroke-width="0.2" stroke-linejoin="round" d="M 39,16L 59,55L 39,55L 39,16 Z M 42,28.5L 42,52L 53.5,52L 42,28.5 Z M 37,16L 37,23.0801L 35.201,26.6107L 32.6005,24.579L 37,16 Z M 37,46L 34,46L 34,42L 37,42L 37,46 Z M 34,37.2663L 37,31.4805L 37,39L 34,39L 34,37.2663 Z M 30.3236,36.0126L 27.763,34.012L 30.8286,28.0342L 33.2877,29.9555L 30.3236,36.0126 Z M 25.7931,45.2705L 23.0775,43.1489L 25.9911,37.4673L 28.6103,39.5137L 25.7931,45.2705 Z M 37,55L 34,55L 34,49L 37,49L 37,55 Z M 17,55L 21.3055,46.6041L 24.0798,48.7716L 22.5,52L 24,52L 24,55L 17,55 Z M 31,52L 31,55L 27,55L 27,52L 31,52 Z "/>
</svg>
