<?xml version="1.0" encoding="utf-8"?>
<!DOCTYPE svg PUBLIC "-//W3C//DTD SVG 1.1//EN" "http://www.w3.org/Graphics/SVG/1.1/DTD/svg11.dtd">
<svg xmlns="http://www.w3.org/2000/svg" xmlns:xlink="http://www.w3.org/1999/xlink" version="1.1" baseProfile="full" width="76" height="76" viewBox="0 0 76.00 76.00" enable-background="new 0 0 76.00 76.00" xml:space="preserve">
	<path fill="#000000" fill-opacity="1" stroke-width="0.2" stroke-linejoin="round" d="M 40,37L 49,37L 49,29L 27,29L 27,37L 36,37L 36,35L 40,35L 40,37 Z M 49,23L 27,23L 27,27L 49,27L 49,23 Z M 53,19L 53,57L 23,57L 23,19L 53,19 Z M 26,54L 50,54L 50,46L 26,46L 26,54 Z M 27,40L 27,44L 49,44L 49,40L 27,40 Z "/>
</svg>
