<?xml version="1.0" encoding="utf-8"?>
<!DOCTYPE svg PUBLIC "-//W3C//DTD SVG 1.1//EN" "http://www.w3.org/Graphics/SVG/1.1/DTD/svg11.dtd">
<svg xmlns="http://www.w3.org/2000/svg" xmlns:xlink="http://www.w3.org/1999/xlink" version="1.1" baseProfile="full" width="76" height="76" viewBox="0 0 76.00 76.00" enable-background="new 0 0 76.00 76.00" xml:space="preserve">
	<path fill="#000000" fill-opacity="1" stroke-linejoin="round" d="M 55,27C 56.1046,27 57,27.8954 57,29L 57,47C 57,48.1046 56.1046,49 55,49L 21,49C 19.8954,49 19,48.1046 19,47L 19,32.5L 24.5,27L 55,27 Z M 51,31L 35,31C 33.8954,31 33,31.8955 33,33L 33,45C 33,46.1046 33.8954,47 35,47L 51,47C 52.1045,47 53,46.1046 53,45L 53,33C 53,31.8955 52.1045,31 51,31 Z M 35,32.0001L 41.9051,32.0001C 41.1343,32.3613 40.4818,33.0871 40.0518,34L 34,34L 34,33.0001C 34,32.4478 34.4477,32.0001 35,32.0001 Z M 50.9999,32.0001C 51.5522,32.0001 51.9999,32.4478 51.9999,33.0001L 51.9999,34L 45.9482,34C 45.5181,33.0871 44.8657,32.3613 44.0949,32.0001L 50.9999,32.0001 Z M 51.9999,35L 51.9999,38L 46.3008,38C 46.4298,37.5309 46.5,37.026 46.5,36.5C 46.5,35.9844 46.4326,35.4784 46.3084,35L 51.9999,35 Z M 51.9999,39L 51.9999,42L 45.9786,42C 45.9102,41.2042 45.6804,40.4709 45.3322,39.8555C 45.5517,39.6031 45.7463,39.3157 45.9106,39L 51.9999,39 Z M 51.9999,43L 51.9999,45C 51.9999,45.5523 51.5522,46 50.9999,46L 44.5313,46C 45.3203,45.3402 45.8656,44.2855 45.9783,43L 51.9999,43 Z M 35,46C 34.4477,46 34,45.5523 34,45L 34,43L 39.0216,43C 39.1344,44.2854 39.6797,45.3402 40.4686,46L 35,46 Z M 34,42L 34,39L 40.0894,39C 40.1148,39.0489 40.141,39.097 40.1678,39.1445C 39.542,39.8641 39.1186,40.8689 39.0214,42L 34,42 Z M 34,38L 34,35L 39.6916,35C 39.5674,35.4784 39.5,35.9844 39.5,36.5C 39.5,37.026 39.5702,37.5309 39.6992,38L 34,38 Z M 43,32.75C 44.3807,32.75 45.5,34.567 45.5,36.5C 45.5,37.9323 44.8855,39.1636 44.0054,39.7055C 44.6095,40.3443 45,41.3583 45,42.5C 45,44.433 43.8807,45.75 42.5,45.75C 41.1193,45.75 40,44.433 40,42.5C 40,41.0677 40.6145,39.8364 41.4946,39.2946C 40.8904,38.6557 40.5,37.6417 40.5,36.5C 40.5,34.567 41.6193,32.75 43,32.75 Z "/>
</svg>
