<?xml version="1.0" encoding="utf-8"?>
<!DOCTYPE svg PUBLIC "-//W3C//DTD SVG 1.1//EN" "http://www.w3.org/Graphics/SVG/1.1/DTD/svg11.dtd">
<svg xmlns="http://www.w3.org/2000/svg" xmlns:xlink="http://www.w3.org/1999/xlink" version="1.1" baseProfile="full" width="76" height="76" viewBox="0 0 76.00 76.00" enable-background="new 0 0 76.00 76.00" xml:space="preserve">
	<path fill="#000000" fill-opacity="1" stroke-width="0.2" stroke-linejoin="round" d="M 26,22.0001L 27,21.9998L 27,27L 26.0001,27.0003C 23.2386,27.0003 21.0001,29.2389 21.0001,32.0003L 21,46.0002C 21,48.7616 23.2386,51.0002 25.9999,51.0002L 27,51.0002L 27,47L 33.75,53.5L 27,60L 27,56L 26,56C 20.4771,56 16,51.5229 16,46L 16,32.0001C 16,26.4773 20.4771,22.0001 26,22.0001 Z M 33,27L 59,27L 59,32L 33,32L 33,27 Z M 36,35L 59,35L 59,40L 36,40L 36,35 Z M 33,43L 59,43L 59,48L 33,48L 33,43 Z "/>
</svg>
