<?xml version="1.0" encoding="utf-8"?>
<!DOCTYPE svg PUBLIC "-//W3C//DTD SVG 1.1//EN" "http://www.w3.org/Graphics/SVG/1.1/DTD/svg11.dtd">
<svg xmlns="http://www.w3.org/2000/svg" xmlns:xlink="http://www.w3.org/1999/xlink" version="1.1" baseProfile="full" width="76" height="76" viewBox="0 0 76.00 76.00" enable-background="new 0 0 76.00 76.00" xml:space="preserve">
	<path fill="#000000" fill-opacity="1" stroke-width="0.2" stroke-linejoin="round" d="M 55.4167,44.3333C 55.4167,53.9523 47.619,61.75 38,61.75C 28.381,61.75 20.5833,53.9523 20.5833,44.3333C 20.5833,35.7312 26.8196,28.5856 35.0177,27.171L 28.5,20.9792L 28.5,19.3958L 33.25,14.25L 42.75,14.25L 47.5,19.3958L 47.5,20.9792L 40.9823,27.171C 49.1804,28.5856 55.4167,35.7312 55.4167,44.3333 Z M 38,31.6667C 31.0044,31.6667 25.3333,37.3377 25.3333,44.3333C 25.3333,51.3289 31.0044,57 38,57C 44.9956,57 50.6667,51.3289 50.6667,44.3333C 50.6667,37.3377 44.9956,31.6667 38,31.6667 Z M 38.7916,24.5417L 43.5416,20.5834L 40.375,20.5834L 38.7916,24.5417 Z M 41.1667,19L 41.5625,15.8334L 38.7916,17.8125L 41.1667,19 Z M 37.2083,24.5417L 35.625,20.5834L 32.4583,20.5834L 37.2083,24.5417 Z M 34.8333,19L 37.2083,17.8125L 34.4375,15.8333L 34.8333,19 Z "/>
</svg>
