<?xml version="1.0" encoding="utf-8"?>
<!DOCTYPE svg PUBLIC "-//W3C//DTD SVG 1.1//EN" "http://www.w3.org/Graphics/SVG/1.1/DTD/svg11.dtd">
<svg xmlns="http://www.w3.org/2000/svg" xmlns:xlink="http://www.w3.org/1999/xlink" version="1.1" baseProfile="full" width="76" height="76" viewBox="0 0 76.00 76.00" enable-background="new 0 0 76.00 76.00" xml:space="preserve">
	<path fill="#000000" fill-opacity="1" stroke-width="0.2" stroke-linejoin="round" d="M 49.261,41.562C 48.6593,42.6115 47.8413,42.7245 46.8374,42.2031C 46.2262,41.8848 43.9686,40.5983 43.3927,40.2491C 42.313,39.5944 42.6413,38.56 43.3754,38.1762C 44.1096,37.7924 51.626,33.3857 52.5118,32.964C 53.2614,32.6075 53.9948,33.2128 53.4847,34.1747C 53.1616,34.7834 49.8627,40.5125 49.261,41.562 Z M 51.2402,46.7862C 51.8477,47.1118 53.2978,47.6347 53.8685,47.9912C 54.9405,48.6599 54.5997,50.0853 53.8605,50.4607C 53.1215,50.8345 46.343,55.1473 45.4521,55.5583C 44.6981,55.9057 43.9717,55.2915 44.4942,54.3355C 44.8247,53.7309 48.1943,48.4395 48.8092,47.397C 49.4238,46.3552 50.2429,46.2522 51.2402,46.7862 Z M 39.5888,52.477C 39.5164,51.4982 39.6194,43.974 39.5888,43.146C 39.5583,42.3181 40.2943,41.5206 41.3982,42.1341C 41.9866,42.4608 44.2233,43.7841 44.8021,44.158C 45.7526,44.7714 46.0595,45.538 45.4461,46.5808C 44.8326,47.6233 41.491,52.1399 41.1222,52.7221C 40.5397,53.6421 39.6503,53.305 39.5888,52.477 Z M 39.5888,21.9343C 39.5583,20.4929 40.3244,19.9203 41.6437,20.7074C 43.3916,21.7503 51.0327,27.0525 51.9527,27.6659C 52.8726,28.279 52.8726,29.2909 51.2476,30.1804C 49.6222,31.0698 42.5022,34.878 41.5208,35.4605C 40.5397,36.043 39.4968,36.043 39.5277,34.4791C 39.5583,32.9151 39.6194,23.3753 39.5888,21.9343 Z M 36.6733,34.1782C 36.7049,35.0062 35.97,35.8043 34.8653,35.192C 34.2762,34.8656 32.0381,33.5449 31.4589,33.1721C 30.5076,32.5598 30.2,31.7937 30.812,30.7504C 31.4239,29.7068 34.3632,24.3945 34.7311,23.8116C 35.3126,22.8916 36.2024,23.2276 36.2649,24.0555C 36.3385,25.0337 36.642,33.3502 36.6733,34.1782 Z M 36.6177,55.1347C 36.5529,56.2382 35.6793,56.749 34.0911,55.7952C 32.5029,54.8414 26.1212,50.3343 25.1228,49.7812C 24.1248,49.2285 23.5982,48.3284 24.9638,47.5652C 26.3294,46.8024 33.3533,42.6306 34.582,41.877C 35.8107,41.1223 36.6917,41.4947 36.6781,43.0306C 36.6608,45.0663 36.6828,54.0307 36.6177,55.1347 Z M 23.5797,43.1643C 23.902,42.5553 27.194,36.8225 27.7946,35.7719C 28.3948,34.722 29.2124,34.6076 30.2171,35.1279C 30.829,35.4458 32.6922,36.7293 33.2681,37.0778C 34.3489,37.7317 34.0222,38.7661 33.2884,39.151C 32.5542,39.5352 25.4395,43.9511 24.5541,44.3735C 23.8049,44.7316 23.0708,44.1274 23.5797,43.1643 Z M 26.205,30.5491C 25.5971,30.2242 24.1455,29.3085 23.5744,28.9527C 22.5014,28.2859 22.8414,27.2552 23.5799,26.8791C 24.3189,26.5041 30.6957,22.1817 31.5862,21.7703C 32.3402,21.4218 33.0666,22.0349 32.5459,22.9917C 32.2162,23.5966 29.249,28.8925 28.6352,29.9353C 28.0221,30.9778 27.203,31.082 26.205,30.5491 Z M 58.8885,30.8216C 59.41,29.9016 59.9005,28.7976 58.2445,27.8468C 56.5886,26.8959 42.2567,17.3483 40.6622,16.3672L 40.6008,16.3978C 39.8648,16.0298 36.779,15.3244 35.3685,16.2444C 33.9576,17.1643 21.6107,25.0645 19.6788,26.1994C 17.7469,27.3343 18.3297,28.8368 19.3108,29.4193C 20.2922,30.0018 23.0216,31.6581 23.8801,32.2402C 24.7386,32.8231 25.5055,33.5282 24.7695,34.786C 24.0335,36.043 19.2497,44.3838 18.2683,45.9787C 17.4167,49.0833 18.9653,50.0489 20.1612,50.7849C 21.3572,51.5208 34.5321,59.789 35.912,60.5864C 37.292,61.3839 40.2244,61.6904 41.5432,60.9849C 42.8617,60.2795 56.2821,52.4964 57.754,51.6066C 60.1667,49.0833 57.7289,47.2665 57.0849,46.8676C 56.4409,46.4691 53.9512,45.5101 52.6942,44.7131C 51.4368,43.9156 51.5593,43.3942 52.2342,42.1982C 52.8826,41.0483 58.3671,31.7415 58.8885,30.8216 Z "/>
</svg>
