<?xml version="1.0" encoding="utf-8"?>
<!DOCTYPE svg PUBLIC "-//W3C//DTD SVG 1.1//EN" "http://www.w3.org/Graphics/SVG/1.1/DTD/svg11.dtd">
<svg xmlns="http://www.w3.org/2000/svg" xmlns:xlink="http://www.w3.org/1999/xlink" version="1.1" baseProfile="full" width="76.0106" height="76.0106" viewBox="0 0 76.01 76.01" enable-background="new 0 0 76.01 76.01" xml:space="preserve">
	<path fill="#000000" fill-opacity="1" stroke-width="0.2" stroke-linejoin="round" d="M 31.6711,19.0027L 33.2546,19.0027C 34.1292,19.0027 34.8382,19.7116 34.8382,20.5862L 34.8382,55.4244C 34.8382,56.299 34.1292,57.008 33.2546,57.008L 31.6711,57.008C 30.7965,57.008 30.0875,56.299 30.0875,55.4244L 30.0875,20.5862C 30.0875,19.7116 30.7965,19.0027 31.6711,19.0027 Z M 38.0399,22.1698L 52.2573,31.1275C 52.8757,31.7459 52.8757,32.7486 52.2573,33.367L 38.0399,41.172C 37.1653,41.172 36.4564,40.463 36.4564,39.5884L 36.4564,23.7533C 36.4564,22.8787 37.1653,22.1698 38.0399,22.1698 Z "/>
</svg>
