<?xml version="1.0" encoding="utf-8"?>
<!DOCTYPE svg PUBLIC "-//W3C//DTD SVG 1.1//EN" "http://www.w3.org/Graphics/SVG/1.1/DTD/svg11.dtd">
<svg xmlns="http://www.w3.org/2000/svg" xmlns:xlink="http://www.w3.org/1999/xlink" version="1.1" baseProfile="full" width="76" height="76" viewBox="0 0 76.00 76.00" enable-background="new 0 0 76.00 76.00" xml:space="preserve">
	<path fill="#000000" fill-opacity="1" stroke-width="0.2" stroke-linejoin="round" d="M 56,36L 56,40L 40,40L 40,56L 36,56L 36,40L 20,40L 20,36L 36,36L 36,20L 40,20L 40,36L 56,36 Z M 8,37L 8,39L 3.01401,39L 3,38L 3.01401,37L 8,37 Z M 13,37L 13,39L 10,39L 10,37L 13,37 Z M 18,37L 18,39L 15,39L 15,37L 18,37 Z M 39,8.00005L 37,8.00005L 37,3.01403L 38,3.00002L 39,3.01403L 39,8.00005 Z M 39,18.0001L 37,18.0001L 37,15.0001L 39,15.0001L 39,18.0001 Z M 37,10.0001L 39,10.0001L 39,13.0001L 37,13.0001L 37,10.0001 Z M 68,39L 68,37L 72.986,37L 73,38L 72.986,39L 68,39 Z M 63,39L 63,37L 66,37L 66,39L 63,39 Z M 57.9999,39L 57.9999,37L 61,37L 61,39L 57.9999,39 Z M 37,68L 39,68L 39,72.986L 38,73L 37,72.986L 37,68 Z M 37,63L 39,63L 39,66L 37,66L 37,63 Z M 37,58L 39,58L 39,61L 37,61L 37,58 Z "/>
</svg>
