<?xml version="1.0" encoding="utf-8"?>
<!DOCTYPE svg PUBLIC "-//W3C//DTD SVG 1.1//EN" "http://www.w3.org/Graphics/SVG/1.1/DTD/svg11.dtd">
<svg xmlns="http://www.w3.org/2000/svg" xmlns:xlink="http://www.w3.org/1999/xlink" version="1.1" baseProfile="full" width="76" height="76" viewBox="0 0 76.00 76.00" enable-background="new 0 0 76.00 76.00" xml:space="preserve">
	<path fill="#000000" fill-opacity="1" stroke-width="0.2" stroke-linejoin="round" d="M 19,47.5L 22.1667,47.5L 22.1667,52.25L 53.8333,52.25L 53.8333,47.5L 57,47.5L 57,55.4167L 19,55.4167L 19,47.5 Z M 23.6049,21.784L 23.6049,34.5429L 23.664,34.5429L 24.6985,32.8358L 27.6247,28.5818L 33.0337,28.5818L 27.8611,34.3115L 33.7726,42.7315L 28.2454,42.7315L 24.728,36.9156L 23.6049,38.3045L 23.6049,42.7315L 19.2085,42.7315L 19.2085,21.784L 23.6049,21.784 Z M 35.1794,42.7315L 35.1794,33.0962L 35.0612,28.5818L 38.8741,28.5818L 39.0514,30.512L 39.1401,30.512C 39.4433,30.0197 39.9535,29.5347 40.6707,29.0567C 41.3878,28.5787 42.3713,28.3219 43.621,28.2863C 44.5802,28.2952 45.4025,28.5128 46.0878,28.939C 46.7731,29.3652 47.2748,29.9466 47.593,30.6832L 47.6521,30.6832C 48.2079,29.9413 48.8232,29.3706 49.498,28.9711C 50.2494,28.5289 51.1283,28.3006 52.1348,28.2863C 53.5439,28.2766 54.6982,28.7667 55.5976,29.7567C 56.497,30.7466 56.9617,32.2942 56.9917,34.3996L 56.9917,42.7315L 52.6172,42.7315L 52.6172,35.036C 52.619,34.0024 52.4523,33.2056 52.1173,32.6457C 51.7823,32.0858 51.2683,31.8026 50.5754,31.796C 50.0645,31.8074 49.6404,31.9581 49.3031,32.2479C 48.9658,32.5378 48.7189,32.8982 48.5623,33.3291L 48.4206,34.4574L 48.4206,42.7315L 44.0461,42.7315L 44.0461,34.7757C 44.0492,33.8794 43.8759,33.1622 43.5262,32.624C 43.1765,32.0858 42.6314,31.8098 41.8909,31.796C 41.3004,31.8177 40.8274,31.9912 40.472,32.3166C 40.1167,32.6421 39.8713,32.9892 39.736,33.3581C 39.5994,33.7197 39.5387,34.0958 39.5539,34.4863L 39.5539,42.7315L 35.1794,42.7315 Z "/>
</svg>
