<?xml version="1.0" encoding="utf-8"?>
<!DOCTYPE svg PUBLIC "-//W3C//DTD SVG 1.1//EN" "http://www.w3.org/Graphics/SVG/1.1/DTD/svg11.dtd">
<svg xmlns="http://www.w3.org/2000/svg" xmlns:xlink="http://www.w3.org/1999/xlink" version="1.1" baseProfile="full" width="76" height="76" viewBox="0 0 76.00 76.00" enable-background="new 0 0 76.00 76.00" xml:space="preserve">
	<path fill="#000000" fill-opacity="1" stroke-width="0.2" stroke-linejoin="round" d="M 49.4127,49.1977C 45.4565,49.1817 43.3453,47.2327 41.8802,43.7988L 41.4622,42.8619L 37.848,34.5673C 36.6531,31.6312 33.6764,29.6475 30.3198,29.6475C 25.7809,29.6475 22.0991,33.356 22.0991,37.9295C 22.0991,42.5034 25.7809,46.2118 30.3198,46.2118C 33.4865,46.2118 36.2435,44.4089 37.6158,41.7653L 39.0809,45.1592C 37.0036,47.7064 33.8496,49.3282 30.3198,49.3282C 24.0709,49.3282 19,44.2282 19,37.9295C 19,31.6345 24.0709,26.5282 30.3198,26.5282C 35.0402,26.5282 38.8529,29.0653 40.7867,33.5616C 40.9344,33.9103 42.8344,38.3846 44.4938,42.1922C 45.5198,44.5491 46.3938,46.1117 49.2311,46.2088C 52.022,46.3051 53.9347,44.5959 53.9347,42.435C 53.9347,40.3239 52.478,39.8168 50.0122,38.9913C 45.5831,37.522 43.2947,36.0459 43.2947,32.5094C 43.2947,29.0594 45.6254,26.7587 49.4127,26.7587C 51.8827,26.7587 53.6644,27.8641 54.8973,30.0681L 52.478,31.3132C 51.5618,30.0276 50.5569,29.52 49.2775,29.52C 47.5,29.52 46.2333,30.7656 46.2333,32.4216C 46.2333,34.7725 48.3191,35.1276 51.2409,36.0928C 55.1718,37.3818 57,38.8541 57,42.5312C 57,46.3925 53.7109,49.204 49.4127,49.1977 Z "/>
</svg>
