<?xml version="1.0" encoding="utf-8"?>
<!DOCTYPE svg PUBLIC "-//W3C//DTD SVG 1.1//EN" "http://www.w3.org/Graphics/SVG/1.1/DTD/svg11.dtd">
<svg xmlns="http://www.w3.org/2000/svg" xmlns:xlink="http://www.w3.org/1999/xlink" version="1.1" baseProfile="full" width="76" height="76" viewBox="0 0 76.00 76.00" enable-background="new 0 0 76.00 76.00" xml:space="preserve">
	<path fill="#000000" fill-opacity="1" stroke-width="0.2" stroke-linejoin="round" d="M 20.9791,25.3333L 55.0208,25.3333C 57.6442,25.3333 60.1667,27.8558 60.1667,30.4792L 60.1667,45.5208C 60.1667,48.1442 57.6442,50.6667 55.0208,50.6667L 20.9791,50.6667C 18.3558,50.6667 15.8333,48.1442 15.8333,45.5208L 15.8333,30.4792C 15.8333,27.8558 18.3558,25.3333 20.9791,25.3333 Z M 22.1667,28.5C 20.4178,28.5 19,29.9178 19,31.6667L 19,44.3333C 19,46.0822 20.4178,47.5 22.1667,47.5L 53.8333,47.5C 55.5822,47.5 57,46.0822 57,44.3333L 57,31.6667C 57,29.9178 55.5822,28.5 53.8333,28.5L 22.1667,28.5 Z M 29.385,41.831L 29.355,41.831L 29.355,42.75L 27.1383,42.75L 27.1383,31.8145L 29.355,31.8145L 29.355,36.5318L 29.385,36.5318C 29.9546,35.6528 30.7643,35.2133 31.8141,35.2133C 32.7777,35.2133 33.5201,35.5378 34.0412,36.1866C 34.5622,36.8354 34.8228,37.7225 34.8228,38.8478C 34.8228,40.0685 34.5187,41.0486 33.9107,41.7883C 33.3027,42.528 32.4899,42.8978 31.4724,42.8978C 30.5518,42.8978 29.8561,42.5422 29.385,41.831 Z M 29.3204,38.7831L 29.3204,39.5174C 29.3204,39.9807 29.4589,40.3644 29.736,40.6684C 30.0131,40.9724 30.3687,41.1245 30.8028,41.1245C 31.3277,41.1245 31.7348,40.9293 32.0242,40.5391C 32.3136,40.1489 32.4583,39.5959 32.4583,38.8801C 32.4583,38.2859 32.3259,37.8218 32.0612,37.4877C 31.7964,37.1537 31.4177,36.9867 30.9251,36.9867C 30.4633,36.9867 30.0804,37.1525 29.7764,37.4843C 29.4724,37.816 29.3204,38.2489 29.3204,38.7831 Z M 40.5861,42.6022C 40.2567,42.7993 39.761,42.8978 39.0991,42.8978C 37.5289,42.8978 36.7439,42.0596 36.7439,40.3833L 36.7439,36.9867L 35.5617,36.9867L 35.5617,35.3611L 36.7439,35.3611L 36.7439,33.7864L 38.9605,33.1445L 38.9605,35.3611L 40.5861,35.3611L 40.5861,36.9867L 38.9605,36.9867L 38.9605,39.9699C 38.9605,40.7396 39.26,41.1245 39.8588,41.1245L 40.5861,40.9767L 40.5861,42.6022 Z M 49.1572,42.75L 46.9406,42.75L 46.9406,38.6861C 46.9406,37.5532 46.5195,36.9867 45.6775,36.9867C 45.2711,36.9867 44.9367,37.1368 44.6742,37.4369C 44.4118,37.7371 44.2806,38.1181 44.2806,38.5799L 44.2806,42.75L 42.0639,42.75L 42.0639,35.3611L 44.2806,35.3611L 44.2806,36.5895L 44.3106,36.5895C 44.8555,35.6721 45.6498,35.2133 46.6935,35.2133C 48.336,35.2133 49.1572,36.2239 49.1572,38.2451L 49.1572,42.75 Z "/>
</svg>
