<?xml version="1.0" encoding="utf-8"?>
<!DOCTYPE svg PUBLIC "-//W3C//DTD SVG 1.1//EN" "http://www.w3.org/Graphics/SVG/1.1/DTD/svg11.dtd">
<svg xmlns="http://www.w3.org/2000/svg" xmlns:xlink="http://www.w3.org/1999/xlink" version="1.1" baseProfile="full" width="76" height="76" viewBox="0 0 76.00 76.00" enable-background="new 0 0 76.00 76.00" xml:space="preserve">
	<path fill="#000000" fill-opacity="1" stroke-width="0.2" stroke-linejoin="round" d="M 19,60.1667L 19,22.1667L 28.5,15.8333L 38,20.5834L 47.5,14.25L 57,19L 57,57L 47.5,52.25L 38,58.5833L 28.5,53.8333L 19,60.1667 Z M 22.1666,53.8334L 28.5,49.0834L 38,53.8334L 47.5,47.5L 53.8333,50.6667L 53.8333,22.1667L 47.5,19L 38,25.3334L 28.5,20.5834L 22.1666,25.3334L 22.1666,53.8334 Z M 41.7662,33.1142L 44.0054,30.875L 41.7662,28.6359L 42.8858,27.5163L 45.125,29.7555L 47.3641,27.5163L 48.4837,28.6359L 46.2445,30.875L 48.4837,33.1142L 47.3641,34.2338L 45.125,31.9946L 42.8858,34.2338L 41.7662,33.1142 Z M 23.75,41.1667L 25.3333,41.1667L 25.3333,42.75L 23.75,42.75L 23.75,41.1667 Z M 25.3333,36.4167L 26.9167,36.4167L 26.9167,38L 25.3333,38L 25.3333,36.4167 Z M 26.9167,33.25L 28.5,33.25L 28.5,34.8334L 26.9167,34.8334L 26.9167,33.25 Z M 30.0833,31.6667L 31.6667,31.6667L 31.6667,33.25L 30.0833,33.25L 30.0833,31.6667 Z M 31.6667,34.8334L 33.25,34.8334L 33.25,36.4167L 31.6667,36.4167L 31.6667,34.8334 Z M 33.25,39.5833L 34.8333,39.5833L 34.8333,41.1667L 33.25,41.1667L 33.25,39.5833 Z M 36.4167,42.75L 38,42.75L 38,44.3333L 36.4167,44.3333L 36.4167,42.75 Z M 41.1667,41.1667L 42.75,41.1667L 42.75,42.75L 41.1667,42.75L 41.1667,41.1667 Z M 44.3333,36.4167L 45.9167,36.4167L 45.9167,38L 44.3333,38L 44.3333,36.4167 Z "/>
</svg>
