<?xml version="1.0" encoding="utf-8"?>
<!DOCTYPE svg PUBLIC "-//W3C//DTD SVG 1.1//EN" "http://www.w3.org/Graphics/SVG/1.1/DTD/svg11.dtd">
<svg xmlns="http://www.w3.org/2000/svg" xmlns:xlink="http://www.w3.org/1999/xlink" version="1.1" baseProfile="full" width="76" height="76" viewBox="0 0 76.00 76.00" enable-background="new 0 0 76.00 76.00" xml:space="preserve">
	<path fill="#000000" fill-opacity="1" stroke-width="0.2" stroke-linejoin="round" d="M 42.75,38L 34.8333,38L 25.3333,28.5L 34.8333,19L 42.75,19L 36.4167,25.3333L 46.7083,25.3333C 54.1412,25.3333 60.1667,31.3588 60.1667,38.7917C 60.1667,46.2245 54.1412,52.25 46.7083,52.25L 46.7083,45.9167C 50.6434,45.9167 53.8333,42.7267 53.8333,38.7917C 53.8333,34.8566 50.6434,31.6667 46.7083,31.6667L 36.4167,31.6667L 42.75,38 Z M 4.74999,28.5001L 7.91665,20.5834L 28.5,20.5834L 20.5833,28.5001L 4.74999,28.5001 Z M 9.49998,31.6667L 12.6666,31.6667L 12.6666,34.8334L 9.49998,34.8334L 9.49998,31.6667 Z M 14.25,31.6667L 17.4166,31.6667L 17.4166,34.8334L 14.25,34.8334L 14.25,31.6667 Z M 19,31.6667L 22.1666,31.6667L 22.1666,34.8334L 19,34.8334L 19,31.6667 Z M 23.75,34.8334L 23.75,31.6667L 26.9166,34.8334L 23.75,34.8334 Z M 22.1666,49.0834L 19,49.0834L 19,45.9167L 22.1666,45.9167L 22.1666,49.0834 Z M 17.4166,49.0834L 14.25,49.0834L 14.25,45.9167L 17.4166,45.9167L 17.4166,49.0834 Z M 12.6667,49.0834L 9.49999,49.0834L 9.49999,45.9167L 12.6667,45.9167L 12.6667,49.0834 Z M 12.6667,44.3334L 9.49999,44.3334L 9.49999,41.1667L 12.6667,41.1667L 12.6667,44.3334 Z M 7.91666,39.5834L 4.75,39.5834L 4.75,36.4167L 7.91666,36.4167L 7.91666,39.5834 Z M 12.6667,39.5834L 9.49999,39.5834L 9.49999,36.4167L 12.6667,36.4167L 12.6667,39.5834 Z M 14.25,36.4167L 17.4167,36.4167L 17.4167,39.5834L 14.25,39.5834L 14.25,36.4167 Z M 19,36.4167L 22.1667,36.4167L 22.1667,39.5834L 19,39.5834L 19,36.4167 Z M 23.75,36.4167L 26.9167,36.4167L 26.9167,39.5834L 23.75,39.5834L 23.75,36.4167 Z M 23.75,41.1667L 26.9167,41.1667L 26.9167,44.3333L 23.75,44.3333L 23.75,41.1667 Z M 19,41.1667L 22.1667,41.1667L 22.1667,44.3333L 19,44.3333L 19,41.1667 Z M 14.25,41.1667L 17.4167,41.1667L 17.4167,44.3333L 14.25,44.3333L 14.25,41.1667 Z M 31.6667,53.8333L 7.91667,53.8333L 7.91667,52.25L 30.0833,52.25L 30.0833,38L 31.6667,39.5834L 31.6667,52.25L 31.6667,53.8333 Z "/>
</svg>
