<?xml version="1.0" encoding="utf-8"?>
<!DOCTYPE svg PUBLIC "-//W3C//DTD SVG 1.1//EN" "http://www.w3.org/Graphics/SVG/1.1/DTD/svg11.dtd">
<svg xmlns="http://www.w3.org/2000/svg" xmlns:xlink="http://www.w3.org/1999/xlink" version="1.1" baseProfile="full" width="76" height="76" viewBox="0 0 76.00 76.00" enable-background="new 0 0 76.00 76.00" xml:space="preserve">
	<path fill="#000000" fill-opacity="1" stroke-width="0.2" stroke-linejoin="round" d="M 51.5487,37.9814L 56.814,41.0534L 50.3383,48.7636L 50.3383,48.8841L 60.0205,46.9565L 60.0205,53.0403L 50.2777,51.414L 50.2777,51.5344L 56.814,59.0037L 51.4882,62.0757L 47.978,52.7994L 47.8569,52.7994L 44.4072,62.0757L 39.2025,59.0037L 45.6782,51.4742L 45.6177,51.3537L 36.1159,53.0403L 36.1159,46.9565L 45.5571,48.8841L 45.5571,48.7636L 39.2025,41.1137L 44.5888,37.9814L 47.9174,47.3179L 48.0385,47.3179L 51.5487,37.9814 Z M 20,17L 43.25,17L 56,29.75L 56,39L 52,36.75L 52,34L 39,34L 39,21L 24,21L 24,55L 41,55L 37.5,59L 20,59L 20,17 Z M 43,22.25L 43,30L 50.75,30L 43,22.25 Z "/>
</svg>
