<?xml version="1.0" encoding="utf-8"?>
<!DOCTYPE svg PUBLIC "-//W3C//DTD SVG 1.1//EN" "http://www.w3.org/Graphics/SVG/1.1/DTD/svg11.dtd">
<svg xmlns="http://www.w3.org/2000/svg" xmlns:xlink="http://www.w3.org/1999/xlink" version="1.1" baseProfile="full" width="76" height="76" viewBox="0 0 76.00 76.00" enable-background="new 0 0 76.00 76.00" xml:space="preserve">
	<path fill="#000000" fill-opacity="1" stroke-width="0.2" stroke-linejoin="round" d="M 49.0833,20.5834C 53.4555,20.5834 57,24.1279 57,28.5001C 57,32.8723 53.4557,36.4166 49.0511,36.4167L 22.9583,36.4168C 20.7722,36.4167 19,34.6445 19,32.4584C 19,30.5201 20.3931,28.9072 22.2328,28.5664L 22.1667,27.7083C 22.1667,24.7327 24.5123,22.3047 27.4553,22.1723C 28.7579,18.4796 32.2783,15.8333 36.4167,15.8333C 40.3459,15.8333 43.7179,18.2187 45.1637,21.6203C 46.3193,20.9604 47.6573,20.5834 49.0833,20.5834 Z M 20.5833,58.5833L 20.5833,44.3333L 34.8333,42.75L 34.8333,58.5833L 20.5833,58.5833 Z M 23.75,55.4167L 26.9166,55.4167L 26.9166,52.25L 23.75,52.25L 23.75,55.4167 Z M 28.5,55.4167L 31.6667,55.4167L 31.6667,52.25L 28.5,52.25L 28.5,55.4167 Z M 23.75,50.6667L 26.9167,50.6667L 26.9167,47.5L 23.75,47.5L 23.75,50.6667 Z M 28.5,50.6667L 31.6667,50.6667L 31.6667,47.5L 28.5,47.5L 28.5,50.6667 Z M 36.4167,45.9167L 41.1667,47.3417L 41.1667,39.5833L 42.75,39.5833L 42.75,47.8167L 52.25,50.6667L 52.25,58.5833L 36.4167,58.5833L 36.4167,45.9167 Z M 39.5833,55.4167L 42.75,55.4167L 42.75,52.25L 39.5833,52.25L 39.5833,55.4167 Z M 44.3333,55.4167L 47.5,55.4167L 47.5,52.25L 44.3333,52.25L 44.3333,55.4167 Z M 49.0833,39.5834L 55.4166,41.9584L 49.0833,44.3334L 44.3333,44.3333L 44.3333,39.5833L 49.0833,39.5834 Z "/>
</svg>
