<?xml version="1.0" encoding="utf-8"?>
<!DOCTYPE svg PUBLIC "-//W3C//DTD SVG 1.1//EN" "http://www.w3.org/Graphics/SVG/1.1/DTD/svg11.dtd">
<svg xmlns="http://www.w3.org/2000/svg" xmlns:xlink="http://www.w3.org/1999/xlink" version="1.1" baseProfile="full" width="101.356" height="101.356" viewBox="0 0 101.36 101.36" enable-background="new 0 0 101.36 101.36" xml:space="preserve">
	<path fill="#000000" fill-opacity="1" stroke-width="0.2" stroke-linejoin="round" d="M 36.8181,39.8043L 27.3162,30.3024C 26.4915,29.4778 26.4915,28.1408 27.3162,27.3162C 28.1408,26.4916 29.4778,26.4916 30.3024,27.3162L 39.8043,36.8181C 45.5939,32.4775 53.8436,32.9399 59.109,38.2053L 38.2053,59.109C 32.9399,53.8436 32.4775,45.5939 36.8181,39.8043 Z M 63.6789,42.7753C 68.9444,48.0407 69.4068,56.2904 65.0662,62.08L 74.0402,71.054C 74.8648,71.8786 74.8648,73.2156 74.0402,74.0402C 73.2156,74.8649 71.8786,74.8649 71.054,74.0402L 62.08,65.0662C 56.2903,69.4068 48.0407,68.9444 42.7752,63.679L 47.2546,59.1996L 43.5218,55.4668C 42.2849,54.2299 42.2849,52.2244 43.5218,50.9874C 44.7588,49.7505 46.7642,49.7505 48.0012,50.9874L 51.734,54.7202L 54.7202,51.734L 50.9874,48.0012C 49.7505,46.7643 49.7505,44.7588 50.9874,43.5218C 52.2244,42.2849 54.2298,42.2849 55.4668,43.5218L 59.1996,47.2546L 63.6789,42.7753 Z "/>
</svg>
