<?xml version="1.0" encoding="utf-8"?>
<!DOCTYPE svg PUBLIC "-//W3C//DTD SVG 1.1//EN" "http://www.w3.org/Graphics/SVG/1.1/DTD/svg11.dtd">
<svg xmlns="http://www.w3.org/2000/svg" xmlns:xlink="http://www.w3.org/1999/xlink" version="1.1" baseProfile="full" width="76" height="76" viewBox="0 0 76.00 76.00" enable-background="new 0 0 76.00 76.00" xml:space="preserve">
	<path fill="#000000" fill-opacity="1" stroke-width="0.2" stroke-linejoin="round" d="M 42.0002,28.9999L 52.0002,28.9999L 52.0002,51.9999L 42.0002,51.9999L 42.0002,49.9999L 50.0002,49.9999L 50.0002,47.9999L 42.0002,47.9999L 42.0002,45.9999L 50.0002,45.9999L 50.0002,43.9999L 42.0002,43.9999L 42.0002,41.9999L 50.0002,41.9999L 50.0002,39.9999L 42.0002,39.9999L 42.0002,37.9999L 50.0002,37.9999L 50.0002,30.9999L 42.0002,30.9999L 42.0002,28.9999 Z M 57.0001,44L 53.0001,44L 53.0001,28.25L 46.4999,24.0001L 57,24.0001L 57.0001,44 Z M 18.9999,23.5001L 41,20.0001L 41,56L 18.9999,52.5001L 18.9999,23.5001 Z M 28.9904,40.243L 30.0929,40.2672C 31.3735,40.1946 32.8667,39.6695 33.5546,38.5869C 34.5025,37.0953 34.4952,34.5216 33.2225,33.2955C 31.6462,31.777 28.8717,32.554 26.6862,32.6708L 26.6893,44.1461L 27.847,44.2174L 29.0046,44.2887L 28.9904,40.243 Z M 28.9933,34.5779L 29.9035,34.5473C 30.365,34.6859 30.9427,34.6269 31.2878,34.963C 32.0555,35.7107 31.7206,37.7802 30.7059,38.1247C 30.4482,38.2122 30.1693,38.2226 29.8978,38.2406L 28.988,38.2384L 28.9933,34.5779 Z "/>
</svg>
