<?xml version="1.0" encoding="utf-8"?>
<!DOCTYPE svg PUBLIC "-//W3C//DTD SVG 1.1//EN" "http://www.w3.org/Graphics/SVG/1.1/DTD/svg11.dtd">
<svg xmlns="http://www.w3.org/2000/svg" xmlns:xlink="http://www.w3.org/1999/xlink" version="1.1" baseProfile="full" width="76" height="76" viewBox="0 0 76.00 76.00" enable-background="new 0 0 76.00 76.00" xml:space="preserve">
	<path fill="#000000" fill-opacity="1" stroke-width="0.2" stroke-linejoin="round" d="M 24.0001,19L 52.0001,19C 54.7615,19 57.0001,21.2386 57.0001,24L 57.0001,52C 57.0001,54.7614 54.7615,57 52.0001,57L 24.0001,57C 21.2387,57 19.0001,54.7614 19.0001,52L 19.0001,24C 19.0001,21.2386 21.2387,19 24.0001,19 Z M 24,22C 22.8954,22 22,22.8954 22,24L 22,52C 22,53.1046 22.8954,54 24,54L 52,54C 53.1045,54 54,53.1046 54,52L 54,24C 54,22.8954 53.1045,22 52,22L 24,22 Z M 38,36C 39.1046,36 40,36.8954 40,38C 40,39.1046 39.1046,40 38,40C 36.8954,40 36,39.1046 36,38C 36,36.8954 36.8954,36 38,36 Z M 50.5409,41.0269C 49.3158,40.5023 48.0604,40.1813 46.8228,40.062C 45.5851,39.9428 44.3654,40.0253 43.1457,40.1077C 43.3501,41.7282 43.5546,43.3487 43.5254,44.9932C 43.4963,46.6376 43.2334,48.3059 42.7345,49.945C 42.4781,50.7873 42.1594,51.6219 41.7794,52.4415L 41.2025,52.5866C 40.3089,52.7929 39.4155,52.9147 38.5306,52.9572C 38.6856,52.3024 38.7919,51.6501 38.8504,51.0059C 38.9708,49.6786 38.8881,48.3854 38.6191,47.1715C 38.35,45.9576 37.8947,44.8231 37.4393,43.6885C 35.9613,44.3838 34.4833,45.079 32.9103,45.5594C 31.3374,46.0398 29.6695,46.3054 27.9565,46.3374C 27.0745,46.3539 26.1806,46.3084 25.282,46.1999C 24.6879,45.2944 24.1863,44.3143 23.7935,43.27C 24.4638,43.215 25.1167,43.1146 25.7472,42.9712C 27.0467,42.6756 28.2511,42.1973 29.3224,41.5663C 30.3938,40.9354 31.3321,40.1517 32.2704,39.368C 31.1525,38.1772 30.0345,36.9864 29.0916,35.6388C 28.1486,34.2913 27.3806,32.7871 26.8209,31.1678C 26.5331,30.3355 26.3004,29.4728 26.126,28.5862C 26.81,27.7321 27.5887,26.9505 28.451,26.2591C 28.7105,26.8802 29.0081,27.4707 29.3396,28.0265C 30.0223,29.1711 30.8493,30.1687 31.7805,30.9926C 32.7117,31.8165 33.7469,32.4667 34.7822,33.117C 35.5693,31.6858 36.3564,30.2545 37.3465,28.9413C 38.3367,27.6281 39.53,26.4329 40.897,25.4002C 41.6,24.869 42.349,24.3809 43.1387,23.9409C 44.1679,24.3315 45.1498,24.8336 46.0665,25.4359C 45.5571,25.874 45.0883,26.3387 44.6629,26.8249C 43.7854,27.8279 43.0921,28.9227 42.5963,30.0629C 42.1004,31.2031 41.802,32.3886 41.5035,33.5741C 43.1079,33.8804 44.7122,34.1867 46.2672,34.7226C 47.8221,35.2585 49.3275,36.0241 50.7322,37.005C 51.4553,37.5101 52.1517,38.0722 52.8149,38.6881C 52.7624,39.7969 52.5866,40.8847 52.2982,41.9342C 51.7233,41.5844 51.1357,41.2816 50.5409,41.0269 Z M 38,34.5C 36.067,34.5 34.5,36.067 34.5,38C 34.5,39.933 36.067,41.5 38,41.5C 39.933,41.5 41.5,39.933 41.5,38C 41.5,36.067 39.933,34.5 38,34.5 Z "/>
</svg>
