<?xml version="1.0" encoding="utf-8"?>
<!DOCTYPE svg PUBLIC "-//W3C//DTD SVG 1.1//EN" "http://www.w3.org/Graphics/SVG/1.1/DTD/svg11.dtd">
<svg xmlns="http://www.w3.org/2000/svg" xmlns:xlink="http://www.w3.org/1999/xlink" version="1.1" baseProfile="full" width="76" height="76" viewBox="0 0 76.00 76.00" enable-background="new 0 0 76.00 76.00" xml:space="preserve">
	<path fill="#000000" fill-opacity="1" stroke-linejoin="round" d="M 37.3,50L 31.9943,50L 28.5748,40.8812C 28.447,40.5437 28.3134,39.9188 28.174,39.0062L 28.1174,39.0062L 27.66,40.9625L 24.2275,50L 18.9,50L 25.225,36L 19.4576,22L 24.8896,22L 27.721,30.3938C 27.9417,31.0604 28.1392,31.8479 28.3134,32.7563L 28.3701,32.7563L 28.9843,30.3188L 32.1032,22L 37.0212,22L 31.1797,35.8813L 37.3,50 Z M 44.5466,58.0533L 42.7733,58.0533C 40.24,55.1321 38.9733,51.53 38.9733,47.2471C 38.9733,42.9483 40.24,39.2882 42.7733,36.2667L 44.5466,36.2667C 42.0133,39.4017 40.7467,43.0539 40.7467,47.2233C 40.7467,51.3558 42.0133,54.9658 44.5466,58.0533 Z M 59.7267,58.0533L 57.9533,58.0533C 60.4867,54.9658 61.7533,51.3558 61.7533,47.2233C 61.7533,43.0539 60.4867,39.4017 57.9533,36.2667L 59.7267,36.2667C 62.26,39.2882 63.5267,42.9483 63.5267,47.2471C 63.5267,51.53 62.26,55.1321 59.7267,58.0533 Z M 58.84,39.3333L 53.7298,53.1083C 52.5106,56.4228 50.6753,58.08 48.2237,58.08C 47.2896,58.08 46.5217,57.9111 45.92,57.5733L 45.92,54.5333C 46.4267,54.8711 46.9769,55.04 47.5706,55.04C 48.5496,55.04 49.2318,54.5637 49.6171,53.611L 50.2662,52.0317L 45.16,39.3333L 49.4865,39.3333L 51.8179,47.0838C 51.963,47.5667 52.0765,48.1354 52.1583,48.7898L 52.2058,48.7898L 52.6096,47.1115L 54.9648,39.3333L 58.84,39.3333 Z "/>
</svg>
