<?xml version="1.0" encoding="utf-8"?>
<!DOCTYPE svg PUBLIC "-//W3C//DTD SVG 1.1//EN" "http://www.w3.org/Graphics/SVG/1.1/DTD/svg11.dtd">
<svg xmlns="http://www.w3.org/2000/svg" xmlns:xlink="http://www.w3.org/1999/xlink" version="1.1" baseProfile="full" width="76" height="76" viewBox="0 0 76.00 76.00" enable-background="new 0 0 76.00 76.00" xml:space="preserve">
	<path fill="#000000" fill-opacity="1" stroke-width="0.2" stroke-linejoin="round" d="M 19,56L 28,56L 28,31.5001L 19,31.5001M 23.6107,19.8444C 20.8233,19.8444 19,21.6731 19,24.0768C 19,26.429 20.7705,28.3121 23.5026,28.3121L 23.557,28.3121C 26.398,28.3121 28.1652,26.429 28.1652,24.0768C 28.1116,21.6731 26.398,19.8444 23.6107,19.8444 Z M 57,42.1074L 57,56L 49,56L 49,43C 49,39.7071 47.6773,37.5081 44.7292,37.5081C 42.4787,37.5081 41.1395,39.0226 40.5498,40.4873C 40.3354,41.0113 40,41.7667 40,42.5001L 40,56L 32,56C 32,56 32,35 32,31.5001L 40,31.5001L 40,35.25L 40,35.25L 40.2802,35.2074L 40.2802,35.128C 41.3621,33.4611 43.2951,31.0793 47.6213,31.0793C 52.9823,31.0793 57,34.5817 57,42.1074 Z "/>
</svg>
