<?xml version="1.0" encoding="utf-8"?>
<!DOCTYPE svg PUBLIC "-//W3C//DTD SVG 1.1//EN" "http://www.w3.org/Graphics/SVG/1.1/DTD/svg11.dtd">
<svg xmlns="http://www.w3.org/2000/svg" xmlns:xlink="http://www.w3.org/1999/xlink" version="1.1" baseProfile="full" width="76" height="76" viewBox="0 0 76.00 76.00" enable-background="new 0 0 76.00 76.00" xml:space="preserve">
	<path fill="#000000" fill-opacity="1" stroke-width="0.2" stroke-linejoin="round" d="M 48.0542,39.5833L 53.0417,44.5708L 58.0291,39.5834L 60.1666,41.7209L 55.1792,46.7083L 60.1667,51.6958L 58.0292,53.8333L 53.0417,48.8458L 48.0542,53.8333L 45.9167,51.6958L 50.9042,46.7083L 45.9167,41.7208L 48.0542,39.5833 Z M 24,24L 27,24L 27,33L 24,33L 24,24 Z M 29,25L 32,25L 32,39L 29,39L 27,41L 27,51L 24,51L 24,41L 22,39L 19,39L 19,25L 22,25L 22,35L 29,35L 29,25 Z M 28,48L 28,44L 45.5,44L 48.0541,46.7083L 47,48L 40,48L 40,51L 44,51L 45,54L 31,54L 32,51L 36,51L 36,48L 28,48 Z M 49,30L 33,30L 33,26L 54,26L 54,40.75L 53.0416,41.7209L 49,37.75L 49,30 Z "/>
</svg>
