<?xml version="1.0" encoding="utf-8"?>
<!DOCTYPE svg PUBLIC "-//W3C//DTD SVG 1.1//EN" "http://www.w3.org/Graphics/SVG/1.1/DTD/svg11.dtd">
<svg xmlns="http://www.w3.org/2000/svg" xmlns:xlink="http://www.w3.org/1999/xlink" version="1.1" baseProfile="full" width="76.0106" height="76.0106" viewBox="0 0 76.01 76.01" enable-background="new 0 0 76.01 76.01" xml:space="preserve">
	<path fill="#000000" fill-opacity="1" stroke-width="0.2" stroke-linejoin="round" d="M 27.0038,21.0029L 49.0068,21.0029L 49.0068,25.0035L 27.0038,25.0035L 27.0038,21.0029 Z M 21.0029,27.0038L 55.0077,27.0038L 55.0077,31.0043L 21.0029,31.0043L 21.0029,27.0038 Z M 25.0035,33.0046L 51.0071,33.0046L 51.0071,37.0052L 25.0035,37.0052L 25.0035,33.0046 Z M 19.0027,39.0055L 57.008,39.0054L 57.008,43.006L 19.0027,43.006L 19.0027,39.0055 Z M 27.0038,45.0063L 49.0068,45.0063L 49.0068,49.0068L 27.0038,49.0068L 27.0038,45.0063 Z M 23.0032,51.0071L 53.0074,51.0071L 53.0074,55.0077L 23.0032,55.0077L 23.0032,51.0071 Z "/>
</svg>
