<?xml version="1.0" encoding="utf-8"?>
<!DOCTYPE svg PUBLIC "-//W3C//DTD SVG 1.1//EN" "http://www.w3.org/Graphics/SVG/1.1/DTD/svg11.dtd">
<svg xmlns="http://www.w3.org/2000/svg" xmlns:xlink="http://www.w3.org/1999/xlink" version="1.1" baseProfile="full" width="76" height="76" viewBox="0 0 76.00 76.00" enable-background="new 0 0 76.00 76.00" xml:space="preserve">
	<path fill="#000000" fill-opacity="1" stroke-linejoin="round" d="M 45.66,37.1491L 49.46,38.0575C 48.7198,41.0065 47.3898,43.2558 45.47,44.8055C 43.8848,46.0851 42.0081,46.8364 39.84,47.0594L 39.84,53.96L 53.14,53.96L 53.14,57L 36.04,57L 36.04,46.9762C 34.2311,46.729 32.6907,46.1835 31.4189,45.3398C 29.6198,44.1464 28.2503,42.4186 27.3102,40.1564C 26.3701,37.8942 25.9,35.4648 25.9,32.8681C 25.9,30.034 26.4235,27.563 27.4705,25.4552C 28.5174,23.3473 30.0068,21.7462 31.9384,20.6517C 33.8701,19.5572 35.9957,19.01 38.3153,19.01C 40.9436,19.01 43.1554,19.7007 44.9505,21.0822C 46.7456,22.4636 47.9954,24.4052 48.7,26.9069L 44.9,27.7441C 44.3142,25.7609 43.4621,24.3161 42.3439,23.4097C 41.2257,22.5032 39.8215,22.05 38.1312,22.05C 36.1838,22.05 34.5569,22.5527 33.2506,23.5581C 31.9444,24.5635 31.026,25.9133 30.4956,27.6075C 29.9652,29.3017 29.7,31.0473 29.7,32.8444C 29.7,35.1679 30.0216,37.1946 30.6648,38.9244C 31.3081,40.6542 32.3076,41.9476 33.6633,42.8045C 34.4201,43.2829 35.2123,43.6278 36.04,43.8391L 36.04,29.64L 39.84,29.64L 39.84,43.9077C 41.0118,43.6528 42.0493,43.1307 42.9525,42.3414C 44.2865,41.1757 45.189,39.4449 45.66,37.1491 Z "/>
</svg>
