<?xml version="1.0" encoding="utf-8"?>
<!DOCTYPE svg PUBLIC "-//W3C//DTD SVG 1.1//EN" "http://www.w3.org/Graphics/SVG/1.1/DTD/svg11.dtd">
<svg xmlns="http://www.w3.org/2000/svg" xmlns:xlink="http://www.w3.org/1999/xlink" version="1.1" baseProfile="full" width="76" height="76" viewBox="0 0 76.00 76.00" enable-background="new 0 0 76.00 76.00" xml:space="preserve">
	<path fill="#000000" fill-opacity="1" stroke-width="0.2" stroke-linejoin="round" d="M 45,31C 53.2843,31 60,37.7157 60,46C 60,54.2843 53.2843,61 45,61C 36.7157,61 30,54.2843 30,46C 30,37.7157 36.7157,31 45,31 Z M 32.1869,44.9286L 36.4501,44.9286C 36.5216,43.1552 36.7693,41.4669 37.1627,39.917C 36.1672,39.5677 35.2486,39.154 34.4246,38.6858C 33.1769,40.4865 32.3772,42.6212 32.1869,44.9286 Z M 39.6231,34.3178C 38.1633,34.9908 36.8512,35.9293 35.7487,37.0714C 36.3627,37.3895 37.0418,37.676 37.7751,37.9255C 38.2764,36.5547 38.9016,35.336 39.6231,34.3178 Z M 43.9286,44.9286L 43.9286,41.1571C 42.2569,41.0896 40.6609,40.8657 39.1851,40.5107C 38.8638,41.8696 38.6582,43.3591 38.5934,44.9286L 43.9286,44.9286 Z M 43.9286,33.3207C 42.2272,33.8915 40.7525,35.7989 39.7835,38.4846C 41.068,38.77 42.4634,38.9533 43.9286,39.0137L 43.9286,33.3207 Z M 57.8131,44.9286C 57.6228,42.6212 56.8231,40.4865 55.5754,38.6859C 54.7514,39.154 53.8327,39.5677 52.8373,39.917C 53.2307,41.4669 53.4784,43.1552 53.5499,44.9286L 57.8131,44.9286 Z M 50.3769,34.3178C 51.0984,35.336 51.7236,36.5547 52.2249,37.9255C 52.9582,37.676 53.6373,37.3895 54.2513,37.0715C 53.1488,35.9293 51.8367,34.9908 50.3769,34.3178 Z M 46.0714,44.9286L 51.4065,44.9286C 51.3418,43.3591 51.1361,41.8696 50.8149,40.5107C 49.3391,40.8657 47.7431,41.0896 46.0714,41.1571L 46.0714,44.9286 Z M 46.0714,33.3207L 46.0714,39.0137C 47.5365,38.9533 48.932,38.77 50.2165,38.4846C 49.2475,35.7989 47.7728,33.8915 46.0714,33.3207 Z M 57.8131,47.0714L 53.5499,47.0714C 53.4784,48.8448 53.2307,50.5331 52.8373,52.083C 53.8327,52.4323 54.7514,52.846 55.5754,53.3142C 56.8231,51.5135 57.6228,49.3789 57.8131,47.0714 Z M 50.3769,57.6822C 51.8367,57.0093 53.1488,56.0707 54.2513,54.9286C 53.6373,54.6105 52.9582,54.324 52.2249,54.0745C 51.7236,55.4453 51.0984,56.664 50.3769,57.6822 Z M 46.0714,47.0714L 46.0714,50.843C 47.7431,50.9104 49.3391,51.1343 50.8149,51.4893C 51.1361,50.1304 51.3418,48.6409 51.4066,47.0714L 46.0714,47.0714 Z M 46.0714,58.6794C 47.7728,58.1085 49.2475,56.2011 50.2165,53.5154C 48.932,53.23 47.5365,53.0467 46.0714,52.9863L 46.0714,58.6794 Z M 32.1869,47.0714C 32.3772,49.3789 33.1769,51.5135 34.4246,53.3142C 35.2486,52.8461 36.1672,52.4323 37.1627,52.083C 36.7693,50.5331 36.5216,48.8448 36.4501,47.0714L 32.1869,47.0714 Z M 39.6231,57.6823C 38.9016,56.664 38.2764,55.4453 37.7751,54.0745C 37.0418,54.3241 36.3627,54.6105 35.7487,54.9286C 36.8512,56.0707 38.1633,57.0093 39.6231,57.6823 Z M 43.9286,47.0714L 38.5934,47.0714C 38.6582,48.6409 38.8638,50.1304 39.1851,51.4893C 40.6609,51.1343 42.2569,50.9104 43.9286,50.843L 43.9286,47.0714 Z M 43.9286,58.6794L 43.9286,52.9863C 42.4634,53.0467 41.068,53.23 39.7835,53.5154C 40.7525,56.2011 42.2272,58.1085 43.9286,58.6794 Z M 18,21L 58,21L 58,36.6705C 57.1478,35.4852 56.1375,34.4211 55,33.5092L 55,26L 21,26L 21,46L 29,46C 29,47.0254 29.0965,48.0283 29.2808,49L 18,49L 18,21 Z "/>
</svg>
