<?xml version="1.0" encoding="utf-8"?>
<!DOCTYPE svg PUBLIC "-//W3C//DTD SVG 1.1//EN" "http://www.w3.org/Graphics/SVG/1.1/DTD/svg11.dtd">
<svg xmlns="http://www.w3.org/2000/svg" xmlns:xlink="http://www.w3.org/1999/xlink" version="1.1" baseProfile="full" width="76" height="76" viewBox="0 0 76.00 76.00" enable-background="new 0 0 76.00 76.00" xml:space="preserve">
	<path fill="#000000" fill-opacity="1" stroke-width="0.2" stroke-linejoin="round" d="M 38,30.0833C 42.3722,30.0833 45.9167,33.6278 45.9167,38C 45.9167,42.3722 42.3723,45.9167 38,45.9167C 33.6278,45.9167 30.0833,42.3722 30.0833,38C 30.0833,33.6278 33.6278,30.0833 38,30.0833 Z M 38,15.8333C 46.2048,15.8333 53.3684,20.291 57.2012,26.9167L 38.3186,27.7132L 38,27.7083C 33.7495,27.7083 30.1009,30.2851 28.5309,33.9617L 20.0975,24.9259C 24.1301,19.4136 30.6469,15.8333 38,15.8333 Z M 60.1667,38C 60.1667,50.2423 50.2423,60.1667 38,60.1667L 35.6306,60.0415L 41.3787,47.7242C 45.403,46.3261 48.2916,42.5004 48.2916,38C 48.2916,34.7392 46.7752,31.8326 44.409,29.947L 57.4898,27.4314C 59.1969,30.5729 60.1667,34.1732 60.1667,38 Z M 15.8333,38C 15.8333,33.2246 17.3434,28.8019 19.9121,25.1833L 27.7224,37.4567L 27.7083,38C 27.7083,43.6565 32.2716,48.2471 37.9176,48.2914L 35.2353,59.9959C 24.2978,58.6351 15.8333,49.3061 15.8333,38 Z "/>
</svg>
