<?xml version="1.0" encoding="utf-8"?>
<!DOCTYPE svg PUBLIC "-//W3C//DTD SVG 1.1//EN" "http://www.w3.org/Graphics/SVG/1.1/DTD/svg11.dtd">
<svg xmlns="http://www.w3.org/2000/svg" xmlns:xlink="http://www.w3.org/1999/xlink" version="1.1" baseProfile="full" width="76" height="76" viewBox="0 0 76.00 76.00" enable-background="new 0 0 76.00 76.00" xml:space="preserve">
	<path fill="#000000" fill-opacity="1" stroke-width="0.2" stroke-linejoin="round" d="M 56.9738,24.7818C 56.9738,24.7818 51.0775,24.7818 49.1171,24.7818L 48.5556,24.8789L 48.5556,25.6305C 48.5556,25.7191 48.8237,25.7951 48.898,25.85C 48.9689,25.9092 49.161,25.9429 49.24,25.9429L 49.9518,25.9767C 50.7591,26.0147 51.0049,26.192 51.319,26.4876C 51.6281,26.7916 51.6783,27.3109 51.4376,28.0413L 44.495,46.1674L 44.2303,46.0913L 39.8194,36.1691C 39.8835,36.0171 39.9215,35.9369 39.9215,35.9369L 43.5328,28.5142C 43.9525,27.7289 44.3591,27.0323 44.566,26.7029C 44.9426,26.1118 45.1267,25.9978 46.1544,25.9471C 46.3646,25.9471 46.4444,25.8416 46.4444,25.6347L 46.4444,24.8831L 46.3917,24.8029C 46.3917,24.8029 42.0753,24.786 40.1094,24.8029L 40.1111,24.8789L 40.1111,25.6305C 40.1111,25.7233 40.0609,25.7951 40.1301,25.85C 40.2044,25.9134 40.2357,25.9429 40.3155,25.9429L 40.6102,25.9809C 41.4141,26.0189 41.773,26.2469 41.8823,26.3947C 42.0745,26.6523 42.1635,26.9309 41.6995,28.0456L 38.9188,34.134L 36.4061,28.4847C 35.5819,26.6818 35.3784,26.1203 36.6202,26.0189L 36.9542,25.9429C 37.1936,25.9429 37.1556,25.8458 37.1556,25.6685L 37.1556,24.8789L 37.1306,24.8114C 37.1306,24.8114 32.5284,24.8114 30.4287,24.8156L 30.4,24.8916L 30.4,25.6811C 30.4,25.8585 30.5756,25.9049 30.9007,25.9556C 32.0631,26.1203 32.0437,26.2554 33.1921,28.7592C 33.3644,29.1349 33.8719,30.2707 33.8719,30.2707L 36.4918,35.9243C 36.4918,35.9243 36.7886,36.6505 37.2535,37.7778L 33.4472,46.1209L 33.2293,46.0576C 33.2293,46.0576 27.3224,32.3691 25.6137,27.7922C 25.4338,27.3194 25.3557,26.9647 25.3557,26.7494C 25.3557,26.2849 25.7374,26.0316 26.5012,25.9978L 27.6623,25.9556C 27.8996,25.9556 28.2889,25.8585 28.2889,25.6516L 28.2889,24.9L 27.9393,24.8198C 27.9393,24.8198 20.702,24.8114 19.2407,24.8198L 19,24.9L 19,25.6896C 19,25.8289 19.1896,25.9176 19.5181,25.9556C 20.4165,26.0105 21.0203,26.1667 21.3041,26.4327C 21.5861,26.6945 21.8922,27.3658 22.2887,28.4087C 24.437,34.0791 29.0029,44.1913 31.2254,49.9547C 31.8647,51.5253 32.6711,51.7703 33.6465,49.904C 34.6509,47.8605 36.6772,43.3131 38.155,39.9607C 39.5382,43.3089 41.4208,47.8309 42.3286,49.8829C 43.0519,51.5253 43.8765,51.6858 44.7125,49.9336C 46.9004,44.5883 53.2925,28.5101 53.2925,28.5101C 53.5686,27.7205 53.9545,27.1125 54.4519,26.6734C 54.945,26.2343 55.6797,25.9894 56.7099,25.9429C 56.9185,25.9429 57,25.8374 57,25.6305L 57,24.8789L 56.9738,24.7818 Z "/>
</svg>
