<?xml version="1.0" encoding="utf-8"?>
<!DOCTYPE svg PUBLIC "-//W3C//DTD SVG 1.1//EN" "http://www.w3.org/Graphics/SVG/1.1/DTD/svg11.dtd">
<svg xmlns="http://www.w3.org/2000/svg" xmlns:xlink="http://www.w3.org/1999/xlink" version="1.1" baseProfile="full" width="76" height="76" viewBox="0 0 76.00 76.00" enable-background="new 0 0 76.00 76.00" xml:space="preserve">
	<path fill="#000000" fill-opacity="1" stroke-width="0.2" stroke-linejoin="round" d="M 15.6154,22.3917L 32.9824,22.3917L 32.9824,26.9006L 21.1078,26.9006L 21.1078,35.2039L 32.1784,35.2039L 32.1784,39.7137L 21.1078,39.7137L 21.1078,52.4814L 15.6154,52.4814L 15.6154,22.3917 Z M 58.51,30.74L 63.5129,30.74L 57.1873,52.4814L 52.4747,52.4814L 50.0776,43.6422C 49.4563,41.3653 49.0019,39.3119 48.547,36.6773L 48.4643,36.6773C 48.0508,39.356 47.5141,41.4998 46.9355,43.6422L 44.372,52.4814L 39.6175,52.4814L 33.6648,30.74L 38.8733,30.74L 40.9824,40.6059L 42.2638,47.6598L 42.3461,47.6598C 42.7591,45.2938 43.4209,42.8837 43.9999,40.6508L 46.6048,30.74L 50.739,30.74L 53.2602,40.3832C 53.881,42.9278 54.4178,45.2938 54.8726,47.6598L 54.9554,47.6598C 55.2865,45.2938 55.74,42.9278 56.2781,40.3832L 58.51,30.74 Z "/>
</svg>
