<?xml version="1.0" encoding="utf-8"?>
<!DOCTYPE svg PUBLIC "-//W3C//DTD SVG 1.1//EN" "http://www.w3.org/Graphics/SVG/1.1/DTD/svg11.dtd">
<svg xmlns="http://www.w3.org/2000/svg" xmlns:xlink="http://www.w3.org/1999/xlink" version="1.1" baseProfile="full" width="76" height="76" viewBox="0 0 76.00 76.00" enable-background="new 0 0 76.00 76.00" xml:space="preserve">
	<path fill="#000000" fill-opacity="1" stroke-width="0.2" stroke-linejoin="round" d="M 41.5,49C 41.5,52.0376 39.0376,54.5 36,54.5C 32.9624,54.5 30.5,52.0376 30.5,49C 30.5,46.3039 32.4399,44.0609 35,43.5907L 35,31L 37,31L 37,43.5907C 39.5601,44.061 41.5,46.3039 41.5,49 Z M 45,49C 45,53.9706 40.9705,58 36,58C 31.0294,58 27,53.9706 27,49C 27,45.4663 29.0365,42.4083 32,40.9356L 32,22.0001C 32,19.7909 33.7908,18.0001 36,18.0001C 38.2091,18.0001 40,19.7909 40,22.0001L 40,40.9355C 42.9634,42.4082 45,45.4663 45,49 Z M 34,42.2899C 31.1085,43.1505 29,45.829 29,49C 29,52.866 32.134,56 36,56C 39.866,56 42.9999,52.866 42.9999,49C 42.9999,45.829 40.8914,43.1505 38,42.2899L 38,22.0001C 38,20.8955 37.1045,20.0001 36,20.0001C 34.8954,20.0001 34,20.8955 34,22.0001L 34,42.2899 Z M 31,21L 31,22L 25,22L 25,21L 31,21 Z M 31,24L 31,25L 27,25L 27,24L 31,24 Z M 31,27L 31,28L 25,28L 25,27L 31,27 Z M 31,30L 31,31L 27,31L 27,30L 31,30 Z M 31,33L 31,34L 25,34L 25,33L 31,33 Z M 31,36L 31,37L 27,37L 27,36L 31,36 Z M 31,39L 31,40L 25,40L 25,39L 31,39 Z M 54.32,38L 50.6392,38L 46.8679,32.3242L 46.5237,31.6038L 46.48,31.6038L 46.48,38L 43.4933,38L 43.4933,24.9333L 46.48,24.9333L 46.48,31.1108L 46.5237,31.1108L 46.8854,30.3817L 50.4671,24.9333L 53.9467,24.9333L 49.42,31.1663L 54.32,38 Z M 57.8608,29.7867C 57.1336,29.7867 56.5172,29.5407 56.0117,29.0488C 55.5061,28.5568 55.2533,27.9579 55.2533,27.2521C 55.2533,26.5482 55.5061,25.9547 56.0117,25.4715C 56.5172,24.9883 57.1336,24.7467 57.8608,24.7467C 58.5842,24.7467 59.2015,24.9883 59.7129,25.4715C 60.2243,25.9547 60.48,26.5482 60.48,27.2521C 60.48,27.9579 60.2243,28.5568 59.7129,29.0488C 59.2015,29.5407 58.5842,29.7867 57.8608,29.7867 Z M 57.8667,26.0533C 57.5536,26.0533 57.2887,26.17 57.0719,26.4033C 56.8551,26.6367 56.7467,26.9215 56.7467,27.2579C 56.7467,27.5943 56.8551,27.8821 57.0719,28.1213C 57.2887,28.3604 57.5536,28.48 57.8667,28.48C 58.1739,28.48 58.4374,28.3604 58.6571,28.1213C 58.8768,27.8821 58.9867,27.5943 58.9867,27.2579C 58.9867,26.9215 58.8783,26.6367 58.6615,26.4033C 58.4447,26.17 58.1797,26.0533 57.8667,26.0533 Z "/>
</svg>
