<?xml version="1.0" encoding="utf-8"?>
<!DOCTYPE svg PUBLIC "-//W3C//DTD SVG 1.1//EN" "http://www.w3.org/Graphics/SVG/1.1/DTD/svg11.dtd">
<svg xmlns="http://www.w3.org/2000/svg" xmlns:xlink="http://www.w3.org/1999/xlink" version="1.1" baseProfile="full" width="76.0106" height="76.0106" viewBox="0 0 76.01 76.01" enable-background="new 0 0 76.01 76.01" xml:space="preserve">
	<path fill="#000000" fill-opacity="1" stroke-width="0.2" stroke-linejoin="round" d="M 24.0033,56.0078L 24.0033,38.0053L 21.753,39.7556L 18.5026,34.8799L 38.0053,20.2528L 57.508,34.8799L 54.2576,39.7556L 52.0072,38.0053L 52.0072,56.0078L 49.0068,56.0078L 49.0068,38.0053L 27.0038,38.0053L 27.0038,56.0078L 24.0033,56.0078 Z M 47.0065,44.0061L 29.004,44.0061L 29.004,40.0056L 47.0065,40.0056L 47.0065,44.0061 Z M 47.0065,50.007L 29.004,50.007L 29.004,46.0064L 47.0065,46.0064L 47.0065,50.007 Z M 47.0065,56.0078L 29.004,56.0078L 29.004,52.0073L 47.0065,52.0073L 47.0065,56.0078 Z "/>
</svg>
