<?xml version="1.0" encoding="utf-8"?>
<!DOCTYPE svg PUBLIC "-//W3C//DTD SVG 1.1//EN" "http://www.w3.org/Graphics/SVG/1.1/DTD/svg11.dtd">
<svg xmlns="http://www.w3.org/2000/svg" xmlns:xlink="http://www.w3.org/1999/xlink" version="1.1" baseProfile="full" width="76" height="76" viewBox="0 0 76.00 76.00" enable-background="new 0 0 76.00 76.00" xml:space="preserve">
	<path fill="#000000" fill-opacity="1" stroke-width="0.2" stroke-linejoin="round" d="M 19,19L 57,19L 57,22.063C 56.1374,22.285 55.5,23.0681 55.5,24C 55.5,24.9319 56.1374,25.715 57,25.937L 57,57L 19,57L 19,27.937C 19.8626,27.715 20.5,26.9319 20.5,26C 20.5,25.0681 19.8626,24.285 19,24.063L 19,19 Z M 21.9998,22.0005L 21.9998,24.0005L 23.9998,24.0005L 23.9998,22.0005L 21.9998,22.0005 Z M 24.9998,22.0005L 24.9998,24.0005L 26.9998,24.0005L 26.9998,22.0005L 24.9998,22.0005 Z M 27.9998,22.0005L 27.9998,24.0005L 29.9998,24.0005L 29.9998,22.0005L 27.9998,22.0005 Z M 30.9998,22.0005L 30.9998,24.0005L 32.9998,24.0005L 32.9998,22.0005L 30.9998,22.0005 Z M 33.9998,22.0005L 33.9998,24.0005L 35.9998,24.0005L 35.9998,22.0005L 33.9998,22.0005 Z M 36.9998,22.0005L 36.9998,24.0005L 38.9998,24.0005L 38.9998,22.0005L 36.9998,22.0005 Z M 39.9998,22.0005L 39.9998,24.0005L 41.9998,24.0005L 41.9998,22.0005L 39.9998,22.0005 Z M 42.9995,22.0005L 42.9995,24.0005L 44.9995,24.0005L 44.9995,22.0005L 42.9995,22.0005 Z M 45.9995,22.0005L 45.9995,24.0005L 47.9995,24.0005L 47.9995,22.0005L 45.9995,22.0005 Z M 48.9995,22.0004L 48.9995,24.0004L 50.9995,24.0004L 50.9995,22.0004L 48.9995,22.0004 Z M 51.9996,22.0004L 51.9996,24.0004L 53.9996,24.0004L 53.9996,22.0004L 51.9996,22.0004 Z M 21.9998,25.0004L 21.9998,27.0004L 23.9998,27.0004L 23.9998,25.0004L 21.9998,25.0004 Z M 24.9998,25.0004L 24.9998,27.0004L 26.9998,27.0004L 26.9998,25.0004L 24.9998,25.0004 Z M 27.9998,25.0004L 27.9998,27.0004L 29.9998,27.0004L 29.9998,25.0004L 27.9998,25.0004 Z M 30.9998,25.0004L 30.9998,27.0004L 32.9998,27.0004L 32.9998,25.0004L 30.9998,25.0004 Z M 33.9998,25.0004L 33.9998,27.0004L 35.9998,27.0004L 35.9998,25.0004L 33.9998,25.0004 Z M 36.9998,25.0004L 36.9998,27.0004L 38.9998,27.0004L 38.9998,25.0004L 36.9998,25.0004 Z M 39.9998,25.0004L 39.9998,27.0004L 41.9998,27.0004L 41.9998,25.0004L 39.9998,25.0004 Z M 42.9996,25.0004L 42.9996,27.0004L 44.9996,27.0004L 44.9996,25.0004L 42.9996,25.0004 Z M 45.9996,25.0004L 45.9996,27.0004L 47.9996,27.0004L 47.9996,25.0004L 45.9996,25.0004 Z M 48.9996,25.0004L 48.9996,27.0004L 50.9996,27.0004L 50.9996,25.0004L 48.9996,25.0004 Z M 51.9996,25.0004L 51.9996,27.0004L 53.9996,27.0004L 53.9996,25.0004L 51.9996,25.0004 Z M 21.9998,28.0004L 21.9998,30.0004L 23.9998,30.0004L 23.9998,28.0004L 21.9998,28.0004 Z M 24.9998,28.0004L 24.9998,30.0004L 26.9998,30.0004L 26.9998,28.0004L 24.9998,28.0004 Z M 27.9998,28.0004L 27.9998,30.0004L 29.9998,30.0004L 29.9998,28.0004L 27.9998,28.0004 Z M 30.9998,28.0004L 30.9998,30.0004L 32.9998,30.0004L 32.9998,28.0004L 30.9998,28.0004 Z M 33.9998,28.0004L 33.9998,30.0004L 35.9998,30.0004L 35.9998,28.0004L 33.9998,28.0004 Z M 36.9998,28.0004L 36.9998,30.0004L 38.9998,30.0004L 38.9998,28.0004L 36.9998,28.0004 Z M 39.9998,28.0004L 39.9998,30.0004L 41.9998,30.0004L 41.9998,28.0004L 39.9998,28.0004 Z M 42.9996,28.0004L 42.9996,30.0004L 44.9996,30.0004L 44.9996,28.0004L 42.9996,28.0004 Z M 45.9997,28.0004L 45.9997,30.0004L 47.9997,30.0004L 47.9997,28.0004L 45.9997,28.0004 Z M 48.9997,28.0003L 48.9997,30.0003L 50.9997,30.0003L 50.9997,28.0003L 48.9997,28.0003 Z M 51.9997,28.0003L 51.9997,30.0003L 53.9997,30.0003L 53.9997,28.0003L 51.9997,28.0003 Z M 21.9998,31.0003L 21.9998,33.0003L 23.9998,33.0003L 23.9998,31.0003L 21.9998,31.0003 Z M 24.9998,31.0003L 24.9998,33.0003L 26.9998,33.0003L 26.9998,31.0003L 24.9998,31.0003 Z M 27.9998,31.0003L 27.9998,33.0003L 29.9998,33.0003L 29.9998,31.0003L 27.9998,31.0003 Z M 45.9997,31.0003L 45.9997,33.0003L 47.9997,33.0003L 47.9997,31.0003L 45.9997,31.0003 Z M 48.9997,31.0003L 48.9997,33.0003L 50.9997,33.0003L 50.9997,31.0003L 48.9997,31.0003 Z M 51.9997,31.0003L 51.9997,33.0003L 53.9997,33.0003L 53.9997,31.0003L 51.9997,31.0003 Z M 21.9998,34.0001L 21.9998,36.0001L 23.9998,36.0001L 23.9998,34.0001L 21.9998,34.0001 Z M 24.9999,34.0001L 24.9999,36.0001L 26.9999,36.0001L 26.9999,34.0001L 24.9999,34.0001 Z M 27.9999,34.0001L 27.9999,36.0001L 29.9999,36.0001L 29.9999,34.0001L 27.9999,34.0001 Z M 45.9997,34.0001L 45.9997,36.0001L 47.9997,36.0001L 47.9997,34.0001L 45.9997,34.0001 Z M 48.9997,34.0001L 48.9997,36.0001L 50.9997,36.0001L 50.9997,34.0001L 48.9997,34.0001 Z M 51.9997,34.0001L 51.9997,36.0001L 53.9997,36.0001L 53.9997,34.0001L 51.9997,34.0001 Z M 21.9999,37.0001L 21.9999,39.0001L 23.9999,39.0001L 23.9999,37.0001L 21.9999,37.0001 Z M 24.9999,37.0001L 24.9999,39.0001L 26.9999,39.0001L 26.9999,37.0001L 24.9999,37.0001 Z M 27.9999,37.0001L 27.9999,39.0001L 29.9999,39.0001L 29.9999,37.0001L 27.9999,37.0001 Z M 45.9997,37.0001L 45.9997,39.0001L 47.9997,39.0001L 47.9997,37.0001L 45.9997,37.0001 Z M 48.9998,37.0001L 48.9998,39.0001L 50.9998,39.0001L 50.9998,37.0001L 48.9998,37.0001 Z M 51.9998,37.0001L 51.9998,39.0001L 53.9998,39.0001L 53.9998,37.0001L 51.9998,37.0001 Z M 21.9999,40.0001L 21.9999,42.0001L 23.9999,42.0001L 23.9999,40.0001L 21.9999,40.0001 Z M 24.9999,40.0001L 24.9999,42.0001L 26.9999,42.0001L 26.9999,40.0001L 24.9999,40.0001 Z M 27.9999,40.0001L 27.9999,42.0001L 29.9999,42.0001L 29.9999,40.0001L 27.9999,40.0001 Z M 45.9998,40.0001L 45.9998,42.0001L 47.9998,42.0001L 47.9998,40.0001L 45.9998,40.0001 Z M 48.9998,40.0001L 48.9998,42.0001L 50.9998,42.0001L 50.9998,40.0001L 48.9998,40.0001 Z M 51.9998,40.0001L 51.9998,42.0001L 53.9998,42.0001L 53.9998,40.0001L 51.9998,40.0001 Z M 21.9999,43.0001L 21.9999,45.0001L 23.9999,45.0001L 23.9999,43.0001L 21.9999,43.0001 Z M 24.9999,43.0001L 24.9999,45.0001L 26.9999,45.0001L 26.9999,43.0001L 24.9999,43.0001 Z M 27.9999,43.0001L 27.9999,45.0001L 29.9999,45.0001L 29.9999,43.0001L 27.9999,43.0001 Z M 45.9998,43.0001L 45.9998,45.0001L 47.9998,45.0001L 47.9998,43.0001L 45.9998,43.0001 Z M 48.9998,43.0001L 48.9998,45.0001L 50.9998,45.0001L 50.9998,43.0001L 48.9998,43.0001 Z M 51.9998,43.0001L 51.9998,45.0001L 53.9998,45.0001L 53.9998,43.0001L 51.9998,43.0001 Z M 21.9999,46.0001L 21.9999,48.0001L 23.9999,48.0001L 23.9999,46.0001L 21.9999,46.0001 Z M 24.9999,46.0001L 24.9999,48.0001L 26.9999,48.0001L 26.9999,46.0001L 24.9999,46.0001 Z M 27.9999,46.0001L 27.9999,48.0001L 29.9999,48.0001L 29.9999,46.0001L 27.9999,46.0001 Z M 30.9999,46.0001L 30.9999,48.0001L 32.9999,48.0001L 32.9999,46.0001L 30.9999,46.0001 Z M 33.9999,46.0001L 33.9999,48.0001L 35.9999,48.0001L 35.9999,46.0001L 33.9999,46.0001 Z M 36.9999,46.0001L 36.9999,48.0001L 38.9999,48.0001L 38.9999,46.0001L 36.9999,46.0001 Z M 39.9999,46.0001L 39.9999,48.0001L 41.9999,48.0001L 41.9999,46.0001L 39.9999,46.0001 Z M 42.9999,46.0001L 42.9999,48.0001L 44.9999,48.0001L 44.9999,46.0001L 42.9999,46.0001 Z M 45.9999,46.0001L 45.9999,48.0001L 47.9999,48.0001L 47.9999,46.0001L 45.9999,46.0001 Z M 48.9999,46.0001L 48.9999,48.0001L 50.9999,48.0001L 50.9999,46.0001L 48.9999,46.0001 Z M 51.9999,46.0001L 51.9999,48.0001L 53.9999,48.0001L 53.9999,46.0001L 51.9999,46.0001 Z M 21.9999,49.0001L 21.9999,51.0001L 23.9999,51.0001L 23.9999,49.0001L 21.9999,49.0001 Z M 24.9999,49.0001L 24.9999,51.0001L 26.9999,51.0001L 26.9999,49.0001L 24.9999,49.0001 Z M 27.9999,49.0001L 27.9999,51.0001L 29.9999,51.0001L 29.9999,49.0001L 27.9999,49.0001 Z M 30.9999,49.0001L 30.9999,51.0001L 33,51.0001L 33,49.0001L 30.9999,49.0001 Z M 34,49.0001L 34,51.0001L 36,51.0001L 36,49.0001L 34,49.0001 Z M 37,49.0001L 37,51.0001L 39,51.0001L 39,49.0001L 37,49.0001 Z M 40,49.0001L 40,51.0001L 42,51.0001L 42,49.0001L 40,49.0001 Z M 42.9999,49.0001L 42.9999,51.0001L 44.9999,51.0001L 44.9999,49.0001L 42.9999,49.0001 Z M 45.9999,49L 45.9999,51L 47.9999,51L 47.9999,49L 45.9999,49 Z M 48.9999,49L 48.9999,51L 50.9999,51L 50.9999,49L 48.9999,49 Z M 51.9999,49L 51.9999,51L 53.9999,51L 53.9999,49L 51.9999,49 Z M 22,52L 22,54L 24,54L 24,52L 22,52 Z M 25,52L 25,54L 27,54L 27,52L 25,52 Z M 28,52L 28,54L 30,54L 30,52L 28,52 Z M 31,52L 31,54L 33,54L 33,52L 31,52 Z M 34,52L 34,54L 36,54L 36,52L 34,52 Z M 37,52L 37,54L 39,54L 39,52L 37,52 Z M 40,52L 40,54L 42,54L 42,52L 40,52 Z M 43,52L 43,54L 45,54L 45,52L 43,52 Z M 46,52L 46,54L 48,54L 48,52L 46,52 Z M 49,52L 49,54L 51,54L 51,52L 49,52 Z M 52,52L 52,54L 54,54L 54,52L 52,52 Z M 31,31L 31,45L 45,45L 45,31L 31,31 Z M 33.6375,36.64L 33.4504,36.565L 33.3733,36.375L 33.4504,36.1829L 33.6375,36.1067L 33.8283,36.1829L 33.9067,36.375L 33.8283,36.5625L 33.6375,36.64 Z M 33.8533,40L 33.4266,40L 33.4266,37.3334L 33.8533,37.3334L 33.8533,40 Z M 36.9467,40L 36.52,40L 36.52,38.4942C 36.52,37.9336 36.3092,37.6533 35.8875,37.6533C 35.6697,37.6533 35.4896,37.7328 35.3471,37.8917C 35.2046,38.0506 35.1333,38.2514 35.1333,38.4942L 35.1333,40L 34.7066,40L 34.7066,37.3333L 35.1333,37.3333L 35.1333,37.7992L 35.1441,37.7992C 35.3486,37.4531 35.6444,37.28 36.0317,37.28C 36.3278,37.28 36.5543,37.3739 36.7112,37.5617C 36.8682,37.7495 36.9467,38.0206 36.9467,38.375L 36.9467,40 Z M 39.0267,39.9642L 38.6208,40.0533C 38.1447,40.0533 37.9067,39.7945 37.9067,39.2767L 37.9067,37.7067L 37.4267,37.7067L 37.4267,37.3333L 37.9067,37.3333L 37.9067,36.6733L 38.3333,36.5333L 38.3333,37.3333L 39.0267,37.3333L 39.0267,37.7067L 38.3333,37.7067L 38.3333,39.1892C 38.3333,39.3658 38.3647,39.4918 38.4275,39.5671C 38.4903,39.6424 38.5942,39.68 38.7392,39.68L 39.0267,39.5733L 39.0267,39.9642 Z M 41.6933,38.7733L 39.8267,38.7733C 39.8339,39.0628 39.9142,39.2863 40.0675,39.4438C 40.2208,39.6013 40.4319,39.68 40.7008,39.68C 41.003,39.68 41.2805,39.5911 41.5333,39.4133L 41.5333,39.8042C 41.3,39.9703 40.9911,40.0533 40.6067,40.0533C 40.2311,40.0533 39.9361,39.9331 39.7217,39.6925C 39.5072,39.452 39.4,39.1133 39.4,38.6767C 39.4,38.2645 39.516,37.9286 39.7479,37.6692C 39.9799,37.4097 40.268,37.28 40.6125,37.28C 40.9564,37.28 41.2225,37.3921 41.4108,37.6163C 41.5992,37.8404 41.6933,38.152 41.6933,38.5508L 41.6933,38.7733 Z M 41.2667,38.4C 41.265,38.1645 41.2058,37.9811 41.0892,37.85C 40.9725,37.7189 40.8103,37.6533 40.6025,37.6533C 40.4019,37.6533 40.2317,37.7222 40.0917,37.86C 39.9517,37.9978 39.8653,38.1778 39.8325,38.4L 41.2667,38.4 Z M 42.76,40L 42.3333,40L 42.3333,36.0533L 42.76,36.0533L 42.76,40 Z "/>
</svg>
