<?xml version="1.0" encoding="utf-8"?>
<!DOCTYPE svg PUBLIC "-//W3C//DTD SVG 1.1//EN" "http://www.w3.org/Graphics/SVG/1.1/DTD/svg11.dtd">
<svg xmlns="http://www.w3.org/2000/svg" xmlns:xlink="http://www.w3.org/1999/xlink" version="1.1" baseProfile="full" width="76" height="76" viewBox="0 0 76.00 76.00" enable-background="new 0 0 76.00 76.00" xml:space="preserve">
	<path fill="#000000" fill-opacity="1" stroke-width="0.2" stroke-linejoin="round" d="M 15.9358,54.3228C 15.2638,54.2993 14.7381,53.7356 14.7616,53.0636L 15.0165,45.7636C 15.0835,43.8459 16.2506,42.2259 17.8902,41.4892L 22.8689,30.9934L 42.3357,31.6732L 46.5148,42.4888C 48.099,43.3381 49.1503,45.0355 49.0833,46.9532L 48.8284,54.2533C 48.805,54.9252 48.2412,55.4509 47.5693,55.4274L 46.3526,55.3849L 46.2676,57.8183C 46.2207,59.1622 45.0932,60.2136 43.7493,60.1667C 42.4054,60.1197 41.354,58.9922 41.4009,57.6483L 41.4859,55.215L 22.0191,54.5352L 21.9342,56.9686C 21.8872,58.3124 20.7598,59.3639 19.4159,59.3169C 18.072,59.27 17.0206,58.1425 17.0675,56.7986L 17.1525,54.3653L 15.9358,54.3228 Z M 21.7565,41.1264L 42.6832,41.8572L 40.0181,35.2468L 24.9314,34.72L 21.7565,41.1264 Z M 21.4996,43.2492C 20.1557,43.2022 18.7135,44.5472 18.6665,45.8911C 18.6196,47.235 19.9645,48.6772 21.3084,48.7242C 22.6523,48.7711 24.0946,47.4262 24.1416,46.0823C 24.1885,44.7384 22.8435,43.2961 21.4996,43.2492 Z M 42.7914,43.9927C 41.4475,43.9457 40.0052,45.2907 39.9583,46.6346C 39.9114,47.9785 41.2563,49.4207 42.6002,49.4677C 43.9441,49.5146 45.3864,48.1697 45.4333,46.8258C 45.4803,45.4819 44.1353,44.0396 42.7914,43.9927 Z M 35.9599,23.5931L 54.4292,21.9057L 59.5329,32.0669C 61.1148,32.7123 62.2772,34.2124 62.4045,36.0318L 62.8888,42.9578C 62.9334,43.5953 62.4527,44.1483 61.8152,44.1928L 60.6609,44.2736L 60.8223,46.5822C 60.9115,47.8572 59.9501,48.9631 58.6751,49.0523C 57.4,49.1415 56.2941,48.1801 56.205,46.9051L 56.0435,44.5964L 50.6685,44.9723C 50.6297,43.17 49.605,41.5949 48.0982,40.7871L 45.1499,32.5986L 55.8482,31.8505L 52.5935,25.1182L 38.2799,26.1191L 36.9747,29.347L 33.627,29.2301L 35.9599,23.5931 Z M 56.1626,33.8584C 54.8876,33.9476 53.6579,35.3622 53.747,36.6372C 53.8362,37.9123 55.2508,39.142 56.5259,39.0529C 57.8009,38.9637 59.0306,37.549 58.9415,36.274C 58.8523,34.999 57.4377,33.7692 56.1626,33.8584 Z M 21.4685,26.2868C 21.3426,24.8484 22.0658,23.5315 23.2228,22.8309L 25.9061,13.9441L 26.8187,13.8643L 28.6438,13.7046L 37.7697,12.9062L 39.5949,12.7465L 40.5075,12.6667L 44.6932,20.9525L 45.1268,21.1542L 34.8212,21.8748L 31.8415,29.6283L 21.7301,29.6711L 21.4685,26.2868 Z M 26.0771,22.2054L 41.7736,20.4363L 39.1043,15.5482L 27.7882,16.5382L 26.0771,22.2054 Z M 26.0799,23.8144C 25.0719,23.9025 24.1181,25.0393 24.2062,26.0473C 24.2944,27.0553 25.4312,28.0092 26.4392,27.921C 27.4472,27.8328 28.4011,26.696 28.3129,25.688C 28.2247,24.68 27.0879,23.7262 26.0799,23.8144 Z "/>
</svg>
