<?xml version="1.0" encoding="utf-8"?>
<!DOCTYPE svg PUBLIC "-//W3C//DTD SVG 1.1//EN" "http://www.w3.org/Graphics/SVG/1.1/DTD/svg11.dtd">
<svg xmlns="http://www.w3.org/2000/svg" xmlns:xlink="http://www.w3.org/1999/xlink" version="1.1" baseProfile="full" width="76" height="76" viewBox="0 0 76.00 76.00" enable-background="new 0 0 76.00 76.00" xml:space="preserve">
	<path fill="#000000" fill-opacity="1" stroke-width="0.2" stroke-linejoin="round" d="M 28,48C 28,50 27.5,53 26.5,53L 48,53C 50.5,53 51,50.5 51,48L 51,29L 28,29L 28,48 Z M 55,48C 55,52.3723 52,57 48.5,57L 22,57C 19.3766,57 17,52.8723 17,48.5L 17,31L 24,31L 24,25L 55,25L 55,48 Z M 21,35L 21,49C 21,51.6234 21.6255,53.25 22.5,53.25C 23.3744,53.25 24,51.6234 24,49L 24,35L 21,35 Z M 40,38L 49,38L 49,48L 40,48L 40,38 Z M 30,32L 49,32L 49,35L 30,35L 30,32 Z M 30,38L 38,38L 38,40L 30,40L 30,38 Z M 30,42L 38,42L 38,44L 30,44L 30,42 Z M 30,46L 38,46L 38,48L 30,48L 30,46 Z M 53,14L 53,20L 50,20L 50,14L 53,14 Z M 61.9215,18.5239L 57.6789,22.7665L 55.5576,20.6452L 59.8002,16.4026L 61.9215,18.5239 Z M 65.0313,28.0313L 59.0313,28.0313L 59.0313,25.0313L 65.0313,25.0313L 65.0313,28.0313 Z M 43.4926,17.1096L 47.7353,21.3523L 45.6139,23.4736L 41.3713,19.231L 43.4926,17.1096 Z M 60.6792,36.8028L 56.3631,32.6349L 58.4471,30.4768L 62.7631,34.6448L 60.6792,36.8028 Z "/>
</svg>
