<?xml version="1.0" encoding="utf-8"?>
<!DOCTYPE svg PUBLIC "-//W3C//DTD SVG 1.1//EN" "http://www.w3.org/Graphics/SVG/1.1/DTD/svg11.dtd">
<svg xmlns="http://www.w3.org/2000/svg" xmlns:xlink="http://www.w3.org/1999/xlink" version="1.1" baseProfile="full" width="76" height="76" viewBox="0 0 76.00 76.00" enable-background="new 0 0 76.00 76.00" xml:space="preserve">
	<path fill="#000000" fill-opacity="1" stroke-width="0.2" stroke-linejoin="round" d="M 15.7195,32.3883L 24.8715,32.7191C 23.7127,34.4547 22.8883,36.4307 22.4886,38.5536L 15.7195,32.3883 Z M 28.7024,19.2681L 34.939,25.9723C 32.817,26.3947 30.8506,27.2401 29.1295,28.4157L 28.7024,19.2681 Z M 47.1602,19.171L 46.8295,28.323C 45.0938,27.1642 43.1178,26.3398 40.9949,25.94L 47.1602,19.171 Z M 60.2805,32.1539L 53.5763,38.3904C 53.1539,36.2685 52.3085,34.3021 51.1329,32.5809L 60.2805,32.1539 Z M 41.3269,29.265C 46.4782,30.6452 50.0329,35.0097 50.6295,40L 59,40L 59,42L 17,42L 17,40L 25.4694,40C 25.5407,39.4082 25.6547,38.8142 25.8135,38.2216C 27.6241,31.4644 34.5697,27.4544 41.3269,29.265 Z M 38,59.5823L 30.5,52.0823L 36,52.0823L 36,44.0823L 40,44.0823L 40,52.0823L 45.5,52.0823L 38,59.5823 Z "/>
</svg>
