<?xml version="1.0" encoding="utf-8"?>
<!DOCTYPE svg PUBLIC "-//W3C//DTD SVG 1.1//EN" "http://www.w3.org/Graphics/SVG/1.1/DTD/svg11.dtd">
<svg xmlns="http://www.w3.org/2000/svg" xmlns:xlink="http://www.w3.org/1999/xlink" version="1.1" baseProfile="full" width="76" height="76" viewBox="0 0 76.00 76.00" enable-background="new 0 0 76.00 76.00" xml:space="preserve">
	<path fill="#000000" fill-opacity="1" stroke-width="0.2" stroke-linejoin="round" d="M 19,17.4167L 41.9583,17.4167L 53.8333,29.2917L 53.8333,49.3536C 55.6782,50.0057 57,51.7652 57,53.8333L 57,58.5833C 57,61.2067 54.8733,63.3333 52.25,63.3333L 34.8333,63.3334C 32.2099,63.3334 30.0833,61.2067 30.0833,58.5834L 19,58.5833L 19,17.4167 Z M 50.6666,33.2501L 37.9999,33.2501L 37.9999,20.5834L 22.1666,20.5834L 22.1666,55.4167L 30.0832,55.4168L 30.0832,53.8334C 30.0832,51.2101 32.2099,49.0834 34.8332,49.0834L 50.6666,49.0834L 50.6666,33.2501 Z M 41.1666,21.3751L 41.1666,30.0834L 49.8749,30.0834L 41.1666,21.3751 Z M 52.25,52.25L 47.5,52.25L 47.5,53.8334L 49.0833,53.8334L 49.0833,60.1667L 50.6666,60.1667L 50.6666,53.8334L 52.25,53.8334L 52.25,52.25 Z M 45.9166,52.25L 44.3333,52.25L 44.3333,55.4167L 42.75,55.4167L 42.75,52.25L 41.1666,52.25L 41.1666,55.4167L 42.75,55.4167L 42.75,57L 41.1666,57L 41.1666,60.1667L 42.75,60.1667L 42.75,57L 44.3333,57L 44.3333,60.1667L 45.9166,60.1667L 45.9166,57L 44.3333,57L 44.3333,55.4167L 45.9166,55.4167L 45.9166,52.25 Z M 39.5833,52.25L 34.8333,52.25L 34.8333,53.8334L 36.4166,53.8334L 36.4166,60.1667L 38,60.1667L 38,53.8334L 39.5833,53.8334L 39.5833,52.25 Z "/>
</svg>
