<?xml version="1.0" encoding="utf-8"?>
<!DOCTYPE svg PUBLIC "-//W3C//DTD SVG 1.1//EN" "http://www.w3.org/Graphics/SVG/1.1/DTD/svg11.dtd">
<svg xmlns="http://www.w3.org/2000/svg" xmlns:xlink="http://www.w3.org/1999/xlink" version="1.1" baseProfile="full" width="76" height="76" viewBox="0 0 76.00 76.00" enable-background="new 0 0 76.00 76.00" xml:space="preserve">
	<path fill="#000000" fill-opacity="1" stroke-width="0.2" stroke-linejoin="round" d="M 23.4963,46.1288L 25.0796,48.8712L 29.4053,50.0303L 33.519,47.6553L 34.8902,46.8636L 37.6326,45.2803L 38.4242,46.6515L 37.2652,50.9772L 30.4091,54.9356L 21.7577,52.6174L 18.591,47.1326L 20.9091,38.4811L 27.7652,34.5227L 32.0909,35.6818L 32.8826,37.053L 30.1402,38.6364L 28.769,39.428L 24.6553,41.803L 23.4963,46.1288 Z M 38.7348,28.1895L 45.5908,24.2311L 54.2423,26.5493L 57.409,32.0341L 55.0908,40.6856L 48.2348,44.6439L 43.9091,43.4848L 43.1174,42.1136L 45.8598,40.5303L 47.231,39.7386L 51.3446,37.3636L 52.5037,33.0379L 50.9204,30.2955L 46.5946,29.1364L 42.481,31.5114L 41.1098,32.3031L 38.3674,33.8864L 37.5757,32.5152L 38.7348,28.1895 Z M 33.9006,45.1496L 31.7377,44.5701L 30.5502,42.5133L 31.1298,40.3504L 42.0994,34.0171L 44.2623,34.5966L 45.4498,36.6534L 44.8702,38.8163L 33.9006,45.1496 Z "/>
</svg>
