<?xml version="1.0" encoding="utf-8"?>
<!DOCTYPE svg PUBLIC "-//W3C//DTD SVG 1.1//EN" "http://www.w3.org/Graphics/SVG/1.1/DTD/svg11.dtd">
<svg xmlns="http://www.w3.org/2000/svg" xmlns:xlink="http://www.w3.org/1999/xlink" version="1.1" baseProfile="full" width="76" height="76" viewBox="0 0 76.00 76.00" enable-background="new 0 0 76.00 76.00" xml:space="preserve">
	<path fill="#000000" fill-opacity="1" stroke-width="0.2" stroke-linejoin="round" d="M 19,42L 19,34L 27,34L 27,42L 19,42 Z M 30.9999,42L 30.9999,34L 56.9999,34L 56.9999,42L 30.9999,42 Z M 31,45L 57,45L 57,53L 31,53L 31,45 Z M 32,46L 32,52L 56,52L 56,46L 32,46 Z M 21,44L 25,44L 25,47L 28,47L 28,51L 25,51L 25,54L 21,54L 21,51L 18,51L 18,47L 21,47L 21,44 Z M 22,45L 22,48L 19,48L 19,50L 22,50L 22,53L 24,53L 24,50L 27,50L 27,48L 24,48L 24,45L 22,45 Z M 19.0001,31L 19.0001,23L 27.0001,23L 27.0001,31L 19.0001,31 Z M 31.0001,31L 31.0001,23L 57,23L 57,31L 31.0001,31 Z "/>
</svg>
