<?xml version="1.0" encoding="utf-8"?>
<!DOCTYPE svg PUBLIC "-//W3C//DTD SVG 1.1//EN" "http://www.w3.org/Graphics/SVG/1.1/DTD/svg11.dtd">
<svg xmlns="http://www.w3.org/2000/svg" xmlns:xlink="http://www.w3.org/1999/xlink" version="1.1" baseProfile="full" width="76" height="76" viewBox="0 0 76.00 76.00" enable-background="new 0 0 76.00 76.00" xml:space="preserve">
	<path fill="#000000" fill-opacity="1" stroke-width="0.2" stroke-linejoin="round" d="M 19,17.4167L 41.9583,17.4167L 53.8333,29.2917L 53.8333,49.3536C 55.6782,50.0057 57,51.7652 57,53.8333L 57,58.5833C 57,61.2067 54.8733,63.3333 52.25,63.3333L 33.25,63.3333C 30.6267,63.3333 28.5,61.2067 28.5,58.5833L 19,58.5833L 19,17.4167 Z M 50.6666,33.25L 38,33.25L 38,20.5834L 22.1666,20.5834L 22.1666,55.4167L 28.5,55.4167L 28.5,53.8333C 28.5,51.21 30.6266,49.0833 33.25,49.0833L 50.6666,49.0834L 50.6666,33.25 Z M 41.1666,21.3751L 41.1666,30.0834L 49.8749,30.0834L 41.1666,21.3751 Z M 39.5831,60.1668L 39.5831,55.4168L 37.9998,55.4168L 36.4165,55.4168L 36.4165,57.0001L 37.9998,57.0001L 37.9998,58.5834L 34.8331,58.5834L 34.8331,53.8335L 39.5831,53.8334L 39.5831,52.2501L 34.8331,52.2501L 34.8331,53.8335L 33.2498,53.8335L 33.2498,58.5834L 34.8331,58.5834L 34.8331,60.1668L 39.5831,60.1668 Z M 47.4999,52.25L 47.4999,60.1667L 49.0833,60.1667L 49.0833,57L 50.6666,57L 50.6666,55.4167L 49.0833,55.4167L 49.0833,53.8334L 52.2499,53.8334L 52.2499,52.25L 47.4999,52.25 Z M 45.9166,58.5834L 44.3333,58.5833L 44.3333,53.8333L 45.9166,53.8334L 45.9166,52.25L 41.1666,52.25L 41.1666,53.8334L 42.7499,53.8334L 42.7499,58.5834L 41.1666,58.5834L 41.1666,60.1667L 45.9166,60.1667L 45.9166,58.5834 Z "/>
</svg>
