<?xml version="1.0" encoding="utf-8"?>
<!DOCTYPE svg PUBLIC "-//W3C//DTD SVG 1.1//EN" "http://www.w3.org/Graphics/SVG/1.1/DTD/svg11.dtd">
<svg xmlns="http://www.w3.org/2000/svg" xmlns:xlink="http://www.w3.org/1999/xlink" version="1.1" baseProfile="full" width="76" height="76" viewBox="0 0 76.00 76.00" enable-background="new 0 0 76.00 76.00" xml:space="preserve">
	<path fill="#000000" fill-opacity="1" stroke-width="0.2" stroke-linejoin="round" d="M 30.25,58L 18,58L 18,45.75L 22,41.75L 22,50.75L 30,42.75L 33.25,46L 25.25,54L 34.25,54L 30.25,58 Z M 58,45.75L 58,58L 45.75,58L 41.75,54L 50.75,54L 42.75,46L 46,42.75L 54,50.75L 54,41.75L 58,45.75 Z M 45.75,18L 58,18L 58,30.25L 54,34.25L 54,25.25L 46,33.25L 42.75,30L 50.75,22L 41.75,22L 45.75,18 Z M 18,30.25L 18,18L 30.25,18L 34.25,22L 25.25,22L 33.25,30L 30,33.25L 22,25.25L 22,34.25L 18,30.25 Z "/>
</svg>
