<?xml version="1.0" encoding="utf-8"?>
<!DOCTYPE svg PUBLIC "-//W3C//DTD SVG 1.1//EN" "http://www.w3.org/Graphics/SVG/1.1/DTD/svg11.dtd">
<svg xmlns="http://www.w3.org/2000/svg" xmlns:xlink="http://www.w3.org/1999/xlink" version="1.1" baseProfile="full" width="76" height="76" viewBox="0 0 76.00 76.00" enable-background="new 0 0 76.00 76.00" xml:space="preserve">
	<path fill="#000000" fill-opacity="1" stroke-width="0.2" stroke-linejoin="round" d="M 46.75,53L 57,53L 57,57L 46.75,57L 44.75,55L 46.75,53 Z M 29.25,53L 31.25,55L 29.25,57L 19,57L 19,53L 29.25,53 Z M 29.5147,59.9926L 34.5073,55L 29.5147,50.0074L 33.0073,46.5147L 38,51.5074L 42.9926,46.5147L 46.4852,50.0074L 41.7426,55L 46.4852,59.9926L 42.9926,63.4853L 38,58.7426L 33.0073,63.4853L 29.5147,59.9926 Z M 36,46.25L 36,44L 40,44L 40,46.25L 38,48.25L 36,46.25 Z M 29,42L 29,30.5L 27.8611,31.7778L 25.9444,28.5833L 38.0833,19L 43,23L 43,20.5873L 45,19.5907L 45,24.5L 50.2222,28.5833L 48.3056,31.7778L 47,30.5L 47,42L 29,42 Z M 38.0833,23.419L 31,29.1389L 31,40L 35,40L 35,33L 41,33L 41,40L 45,40L 45,29.1389L 38.0833,23.419 Z "/>
</svg>
