<?xml version="1.0" encoding="utf-8"?>
<!DOCTYPE svg PUBLIC "-//W3C//DTD SVG 1.1//EN" "http://www.w3.org/Graphics/SVG/1.1/DTD/svg11.dtd">
<svg xmlns="http://www.w3.org/2000/svg" xmlns:xlink="http://www.w3.org/1999/xlink" version="1.1" baseProfile="full" width="76" height="76" viewBox="0 0 76.00 76.00" enable-background="new 0 0 76.00 76.00" xml:space="preserve">
	<path fill="#000000" fill-opacity="1" stroke-width="0.2" stroke-linejoin="round" d="M 20.5833,54.2292L 21.8333,50.6667L 19,50.6667L 20.5833,46.3122L 23.3612,46.3122L 24.4722,43.1459L 21.7708,43.1458L 22.9583,39.5833L 25.7222,39.5833L 26.9722,36.0208L 24.9375,36.0208L 26.5208,33.25L 27.9444,33.25L 28.9166,30.4792L 26.9167,30.4792L 28.5,28.5L 29.611,28.5L 31.1388,24.1458L 34.8333,24.1458L 33.6875,28.5L 42.3125,28.5L 41.1667,24.1458L 44.8612,24.1458L 46.389,28.5L 47.5,28.5L 49.0833,30.4792L 47.0834,30.4792L 48.0556,33.25L 49.4792,33.25L 51.0625,36.0208L 49.0279,36.0208L 50.2778,39.5833L 52.6458,39.5833L 53.8333,43.1462L 51.5279,43.1462L 52.6388,46.3122L 55.4166,46.3122L 57,50.6667L 54.1667,50.6667L 55.4167,54.2292L 49.0833,54.2292L 48.1458,50.6667L 27.8542,50.6667L 26.9167,54.2292L 20.5833,54.2292 Z M 32.4375,33.25L 43.5625,33.25L 42.8333,30.4792L 33.1666,30.4792L 32.4375,33.25 Z M 30.7708,39.5833L 45.2291,39.5833L 44.2916,36.0209L 31.7083,36.0209L 30.7708,39.5833 Z M 29.0001,46.3122L 46.9999,46.3122L 46.1667,43.1461L 29.8333,43.1459L 29.0001,46.3122 Z "/>
</svg>
