<?xml version="1.0" encoding="utf-8"?>
<!DOCTYPE svg PUBLIC "-//W3C//DTD SVG 1.1//EN" "http://www.w3.org/Graphics/SVG/1.1/DTD/svg11.dtd">
<svg xmlns="http://www.w3.org/2000/svg" xmlns:xlink="http://www.w3.org/1999/xlink" version="1.1" baseProfile="full" width="76" height="76" viewBox="0 0 76.00 76.00" enable-background="new 0 0 76.00 76.00" xml:space="preserve">
	<path fill="#000000" fill-opacity="1" stroke-width="0.2" stroke-linejoin="round" d="M 17.4167,17.4167L 58.5833,17.4167L 58.5833,58.5833L 17.4167,58.5833L 17.4167,17.4167 Z M 26.858,24.5124L 24.5124,35.0679C 24.5124,35.0679 26.858,33.8951 31.5494,33.8951C 33.3617,33.8951 34.999,34.7702 36.5964,35.8443L 39.9458,24.2953C 38.4627,23.141 36.7635,22.1667 33.8951,22.1667C 28.0309,22.1667 26.858,24.5124 26.858,24.5124 Z M 47.9691,28.0309C 45.0518,28.0309 43.3439,27.023 41.8426,25.843L 38.5446,37.215C 40.4177,38.541 42.3123,39.7593 44.4506,39.7593C 49.142,39.7593 51.4876,37.4136 51.4876,37.4136L 55.0062,25.6852C 55.0062,25.6852 53.8333,28.0309 47.9691,28.0309 Z M 23.3395,38.5865L 20.9938,49.142C 20.9938,49.142 23.3395,47.9691 28.0309,47.9691C 29.6648,47.9691 31.1564,48.6804 32.6048,49.6076L 35.9648,38.0221C 34.5847,37.0261 32.9518,36.2408 30.3766,36.2408C 24.5124,36.2408 23.3395,38.5865 23.3395,38.5865 Z M 44.4506,42.105C 41.234,42.105 39.4877,40.8797 37.8676,39.5493L 34.5592,50.9568C 36.5858,52.4041 38.616,53.8333 40.9321,53.8333C 45.6234,53.8333 47.9691,51.4877 47.9691,51.4877L 51.4876,39.7593C 51.4876,39.7593 50.3148,42.105 44.4506,42.105 Z "/>
</svg>
