<?xml version="1.0" encoding="utf-8"?>
<!DOCTYPE svg PUBLIC "-//W3C//DTD SVG 1.1//EN" "http://www.w3.org/Graphics/SVG/1.1/DTD/svg11.dtd">
<svg xmlns="http://www.w3.org/2000/svg" xmlns:xlink="http://www.w3.org/1999/xlink" version="1.1" baseProfile="full" width="76" height="76" viewBox="0 0 76.00 76.00" enable-background="new 0 0 76.00 76.00" xml:space="preserve">
	<path fill="#000000" fill-opacity="1" stroke-width="0.2" stroke-linejoin="round" d="M 15.8333,30.0833L 22.1667,30.0833L 22.1667,41.5625L 26.9167,36.8125L 26.9167,43.1458L 19,51.4583L 11.0833,43.1458L 11.0833,36.8125L 15.8333,41.5625L 15.8333,30.0833 Z M 38,64.9167L 35.055,64.7574L 36.4167,44.3334C 35.3611,44.8611 33.25,49.0833 33.25,49.0833C 33.25,49.0833 32.1945,50.6666 31.6667,56.9999L 26.9167,55.4166L 28.5,47.5C 28.5,47.5 31.6667,36.4167 37.9999,36.4168L 50.6665,36.4168C 57,36.4167 60.1667,47.5 60.1667,47.5L 60.9682,52.042C 59.8237,53.91 58.4577,55.6276 56.9068,57.1583C 56.3575,51.553 55.4168,49.0833 55.4168,49.0833C 55.4168,49.0833 53.3056,44.8611 52.25,44.3333L 53.149,60.2521C 48.8336,63.1957 43.6178,64.9167 38,64.9167 Z M 44.3333,17.4167C 48.7056,17.4167 52.25,20.9611 52.25,25.3333C 52.25,29.7056 48.7056,33.25 44.3333,33.25C 39.9611,33.25 36.4167,29.7056 36.4167,25.3333C 36.4167,20.9611 39.9611,17.4167 44.3333,17.4167 Z "/>
</svg>
