<?xml version="1.0" encoding="utf-8"?>
<!DOCTYPE svg PUBLIC "-//W3C//DTD SVG 1.1//EN" "http://www.w3.org/Graphics/SVG/1.1/DTD/svg11.dtd">
<svg xmlns="http://www.w3.org/2000/svg" xmlns:xlink="http://www.w3.org/1999/xlink" version="1.1" baseProfile="full" width="76" height="76" viewBox="0 0 76.00 76.00" enable-background="new 0 0 76.00 76.00" xml:space="preserve">
	<path fill="#000000" fill-opacity="1" stroke-width="0.2" stroke-linejoin="round" d="M 28.5,20.5833L 47.5,20.5833L 47.5,23.75L 28.5,23.75L 28.5,20.5833 Z M 49.0833,31.6667L 64.9166,31.6667L 64.9166,34.8334L 49.0833,34.8334L 49.0833,31.6667 Z M 28.5,25.3334L 34.8333,25.3334L 41.1666,25.3334L 47.5,25.3334L 47.5,52.25L 41.1666,52.25L 41.1666,42.75L 34.8333,42.75L 34.8333,52.25L 28.5,52.25L 28.5,25.3334 Z M 49.0833,52.25L 49.0833,36.4167L 53.8333,36.4167L 60.1666,36.4167L 64.9166,36.4167L 64.9166,52.25L 60.1666,52.25L 60.1666,44.3333L 53.8333,44.3333L 53.8333,52.25L 49.0833,52.25 Z M 11.0833,52.25L 11.0833,44.3333L 11.0833,41.1667L 19.7917,34.8334L 26.9167,41.1667L 26.9167,44.3333L 26.9167,52.25L 22.1667,52.25L 22.1667,44.3333L 15.8333,44.3333L 15.8333,52.25L 11.0833,52.25 Z M 19.7916,29.6875L 26.9166,36.0209L 26.9166,39.1875L 19.7916,32.8542L 9.49999,40.375L 9.49999,37.2084L 19.7916,29.6875 Z "/>
</svg>
