<?xml version="1.0" encoding="utf-8"?>
<!DOCTYPE svg PUBLIC "-//W3C//DTD SVG 1.1//EN" "http://www.w3.org/Graphics/SVG/1.1/DTD/svg11.dtd">
<svg xmlns="http://www.w3.org/2000/svg" xmlns:xlink="http://www.w3.org/1999/xlink" version="1.1" baseProfile="full" width="76" height="76" viewBox="0 0 76.00 76.00" enable-background="new 0 0 76.00 76.00" xml:space="preserve">
	<path fill="#000000" fill-opacity="1" stroke-linejoin="round" d="M 33,46L 29.2862,46L 22.7873,36.0302L 21.994,34.7127L 21.9515,34.7127L 22.04,37.2804L 22.04,46L 18.75,46L 18.75,30L 22.25,30L 28.7727,39.7915L 29.566,41.0877L 29.6085,41.0877C 29.5495,40.7194 29.52,39.9933 29.52,38.9096L 29.5,30L 33,30L 33,46 Z M 44.5,29L 36.9233,48L 33.75,48L 41.3267,29L 44.5,29 Z M 58.08,46L 54.1842,46L 53.1642,42.8267L 47.324,42.8267L 46.3146,46L 42.44,46L 48.2094,30.1333L 52.4417,30.1333L 58.08,46 Z M 52.2115,39.6533L 50.5469,34.394C 50.417,33.9949 50.3273,33.5192 50.2777,32.9667L 50.1892,32.9667C 50.1608,33.4318 50.0676,33.8922 49.9094,34.3479L 48.2129,39.6533L 52.2115,39.6533 Z "/>
</svg>
