<?xml version="1.0" encoding="utf-8"?>
<!DOCTYPE svg PUBLIC "-//W3C//DTD SVG 1.1//EN" "http://www.w3.org/Graphics/SVG/1.1/DTD/svg11.dtd">
<svg xmlns="http://www.w3.org/2000/svg" xmlns:xlink="http://www.w3.org/1999/xlink" version="1.1" baseProfile="full" width="76" height="76" viewBox="0 0 76.00 76.00" enable-background="new 0 0 76.00 76.00" xml:space="preserve">
	<path fill="#000000" fill-opacity="1" stroke-width="0.2" stroke-linejoin="round" d="M 33,20L 33,23L 58.5,51L 60,51L 60,56L 55,56L 55,54.5L 23,44.5L 23,45L 18,45L 18,40L 20,40L 28,23L 28,20L 33,20 Z M 31,25L 30,25L 23,40L 23,41.5L 55,51.5L 55,51L 31,25 Z M 56,55L 59,55L 59,52L 56,52L 56,55 Z M 29,24L 32,24L 32,21L 29,21L 29,24 Z M 22,44L 22,41L 19,41L 19,44L 22,44 Z "/>
</svg>
