<?xml version="1.0" encoding="utf-8"?>
<!DOCTYPE svg PUBLIC "-//W3C//DTD SVG 1.1//EN" "http://www.w3.org/Graphics/SVG/1.1/DTD/svg11.dtd">
<svg xmlns="http://www.w3.org/2000/svg" xmlns:xlink="http://www.w3.org/1999/xlink" version="1.1" baseProfile="full" width="76" height="76" viewBox="0 0 76.00 76.00" enable-background="new 0 0 76.00 76.00" xml:space="preserve">
	<path fill="#000000" fill-opacity="1" stroke-linejoin="round" d="M 26,45C 27.0445,45 28.0356,45.2288 28.9259,45.639L 33,38L 31,38L 31,36L 37,36L 37,38L 35,38L 33.4,41L 43.4615,41L 44,40L 41,40L 41,38L 47,38L 47,40L 46,40L 44.6538,42.5L 45,42.5L 46.8543,45.745C 47.8,45.2684 48.8686,45 50,45C 53.866,45 57,48.134 57,52C 57,55.866 53.866,59 50,59C 46.4735,59 43.5561,56.3923 43.0709,53L 39,53L 38,53L 37,53L 31.9231,43.7692L 30.4259,46.5765C 31.997,47.8601 33,49.8129 33,52C 33,55.866 29.866,59 26,59C 22.134,59 19,55.866 19,52C 19,48.134 22.134,45 26,45 Z M 40.0769,51L 43.0708,51C 43.3144,49.2974 44.1706,47.7925 45.4089,46.7157L 43.8515,43.9901L 40.0769,51 Z M 42.3846,43L 33.5,43L 37.9894,51.1626L 42.3846,43 Z M 26,47C 23.2385,47 21,49.2386 21,52C 21,54.7615 23.2385,57 26,57C 28.7614,57 31,54.7615 31,52C 31,50.5808 30.4086,49.2996 29.4589,48.3895L 27,53L 25,53L 27.9822,47.4084C 27.3744,47.1456 26.7042,47 26,47 Z M 49.9999,47C 49.2298,47 48.5003,47.1742 47.8487,47.4852L 51,53L 50.5,53L 49,53L 45.1,53C 45.5632,55.2823 47.581,57 49.9999,57C 52.7614,57 54.9999,54.7615 54.9999,52C 54.9999,49.2386 52.7614,47 49.9999,47 Z M 45.1,51L 47.8571,51L 46.4288,48.5005C 45.7671,49.1756 45.2953,50.0376 45.1,51 Z M 36.82,26.68L 36.82,31L 33.94,31L 33.94,18.4L 38.3725,18.4C 41.5375,18.4 43.12,19.7416 43.12,22.4247C 43.12,23.6941 42.6695,24.7206 41.7686,25.5044C 40.8676,26.2881 39.6644,26.68 38.1587,26.68L 36.82,26.68 Z M 36.82,20.56L 36.82,24.52L 37.8887,24.52C 39.3362,24.52 40.06,23.8525 40.06,22.5175C 40.06,21.2125 39.3362,20.56 37.8887,20.56L 36.82,20.56 Z M 30,15L 46,15C 47.6568,15 49,16.3432 49,18L 49,31C 49,32.6569 47.6568,34 46,34L 30,34C 28.3431,34 27,32.6569 27,31L 27,18C 27,16.3432 28.3431,15 30,15 Z M 30,17.0001C 29.4477,17.0001 29,17.4478 29,18.0001L 29,31.0001C 29,31.5523 29.4477,32.0001 30,32.0001L 45.9999,32.0001C 46.5522,32.0001 46.9999,31.5523 46.9999,31.0001L 46.9999,18.0001C 46.9999,17.4478 46.5522,17.0001 45.9999,17.0001L 30,17.0001 Z "/>
</svg>
