<?xml version="1.0" encoding="utf-8"?>
<!DOCTYPE svg PUBLIC "-//W3C//DTD SVG 1.1//EN" "http://www.w3.org/Graphics/SVG/1.1/DTD/svg11.dtd">
<svg xmlns="http://www.w3.org/2000/svg" xmlns:xlink="http://www.w3.org/1999/xlink" version="1.1" baseProfile="full" width="76" height="76" viewBox="0 0 76.00 76.00" enable-background="new 0 0 76.00 76.00" xml:space="preserve">
	<path fill="#000000" fill-opacity="1" stroke-linejoin="round" d="M 27,19L 40,19L 40,31L 38.469,31L 38.2952,29.1358L 37.731,23.4941C 37.6478,22.6649 37.6329,21.8258 37.4795,21.0067C 37.443,20.8116 37.3188,20.6293 37.1699,20.4982C 37.019,20.3653 36.8196,20.2762 36.6203,20.25C 36.4595,20.2288 36.2906,20.2878 36.1471,20.3635C 36.0043,20.4389 35.8647,20.5468 35.7885,20.6892C 35.6435,20.9599 35.5738,21.2663 35.5036,21.5652L 35.364,22.4974L 34.5074,26.7026L 33.632,31L 27,31L 27,19 Z M 27,33L 33.2245,33L 32.2284,37.8902C 32.0181,37.6051 31.7674,37.3587 31.4667,37.1678C 30.3504,36.4593 28.3094,37.0689 27,37.6503L 27,33 Z M 52,33L 52,37.2553C 50.9882,37.4865 49.9402,37.7128 48.9132,37.5876C 47.7468,37.4453 46.4521,36.5297 45.4225,37.096C 44.2599,37.7356 44.3224,39.8452 43.0817,40.3158C 42.3746,40.584 41.2556,39.7823 40.8144,40.3965L 40.6474,40.8297C 40.5322,41.6956 40.4328,42.8392 40.3381,44L 39.6811,44L 38.6555,33L 52,33 Z M 52,44L 42.1194,44L 42.3295,42.1455C 42.7617,42.2056 43.2201,42.1859 43.6346,42.0503C 44.9994,41.6036 45.6853,39.9686 46.3169,38.6789C 46.4076,38.4937 46.6956,38.8425 46.8885,38.9155L 47.2041,39.039C 47.6407,39.1572 48.075,39.2954 48.5229,39.358C 49.673,39.5189 50.852,39.3446 52,39.1094L 52,44 Z M 27,44L 27,40.0272C 29.4721,38.4928 30.5855,38.544 31.0391,39.2893C 31.5487,40.1268 31.1037,41.4362 31.7945,42.1318C 31.9433,42.2815 32.1598,42.3806 32.3704,42.3952C 32.5809,42.4098 32.8091,42.3416 32.9771,42.2138C 33.1451,42.086 33.2687,41.8837 33.3138,41.6775C 33.9452,38.7924 34.5264,35.8968 35.1026,33L 36.853,33L 37.953,44L 27,44 Z M 27,46L 34,46L 34,52L 27,52L 27,46 Z M 36,46L 38.153,46L 38.1969,46.4393L 38.8151,52.621C 38.9318,53.7882 38.807,55.7136 39.9559,55.95C 40.651,56.093 40.9027,54.7876 40.9767,54.0819L 41.3337,50.9325L 41.8927,46L 47,46L 47,57L 36,57L 36,46 Z M 40.0191,47.6243L 39.8676,46L 40.1747,46C 40.124,46.5956 40.0727,47.1511 40.0191,47.6243 Z M 36.2697,27.167L 36.653,31L 35.5001,31C 35.7543,29.7219 36.0096,28.4439 36.2697,27.167 Z "/>
</svg>
