<?xml version="1.0" encoding="utf-8"?>
<!DOCTYPE svg PUBLIC "-//W3C//DTD SVG 1.1//EN" "http://www.w3.org/Graphics/SVG/1.1/DTD/svg11.dtd">
<svg xmlns="http://www.w3.org/2000/svg" xmlns:xlink="http://www.w3.org/1999/xlink" version="1.1" baseProfile="full" width="76" height="76" viewBox="0 0 76.00 76.00" enable-background="new 0 0 76.00 76.00" xml:space="preserve">
	<path fill="#000000" fill-opacity="1" stroke-width="0.2" stroke-linejoin="round" d="M 40,44L 39.9999,51L 44,51C 45.1046,51 46,51.8954 46,53L 46,57C 46,58.1046 45.1045,59 44,59L 32,59C 30.8954,59 30,58.1046 30,57L 30,53C 30,51.8954 30.8954,51 32,51L 36,51L 36,44L 40,44 Z M 47,53L 57,53L 57,57L 47,57L 47,53 Z M 29,53L 29,57L 19,57L 19,53L 29,53 Z M 19,22L 57,22L 57,31L 19,31L 19,22 Z M 55,24L 53,24L 53,29L 55,29L 55,24 Z M 51,24L 49,24L 49,29L 51,29L 51,24 Z M 47,24L 45,24L 45,29L 47,29L 47,24 Z M 21,27L 21,29L 23,29L 23,27L 21,27 Z M 19,33L 57,33L 57,42L 19,42L 19,33 Z M 55,35L 53,35L 53,40L 55,40L 55,35 Z M 51,35L 49,35L 49,40L 51,40L 51,35 Z M 47,35L 45,35L 45,40L 47,40L 47,35 Z M 21,38L 21,40L 23,40L 23,38L 21,38 Z "/>
</svg>
