<?xml version="1.0" encoding="utf-8"?>
<!DOCTYPE svg PUBLIC "-//W3C//DTD SVG 1.1//EN" "http://www.w3.org/Graphics/SVG/1.1/DTD/svg11.dtd">
<svg xmlns="http://www.w3.org/2000/svg" xmlns:xlink="http://www.w3.org/1999/xlink" version="1.1" baseProfile="full" width="76" height="76" viewBox="0 0 76.00 76.00" enable-background="new 0 0 76.00 76.00" xml:space="preserve">
	<path fill="#000000" fill-opacity="1" stroke-width="0.2" stroke-linejoin="round" d="M 22.1667,34.8333L 25.3333,34.8333L 25.3333,38L 28.5,38L 28.5,41.1667L 25.3333,41.1667L 25.3333,44.3333L 22.1667,44.3333L 22.1667,41.1667L 19,41.1667L 19,38L 22.1667,38L 22.1667,34.8333 Z M 23.75,49.0833C 18.5033,49.0833 14.25,44.83 14.25,39.5833C 14.25,34.3366 18.5033,30.0833 23.75,30.0833L 50.6667,30.0833C 55.9134,30.0833 60.1667,34.3366 60.1667,39.5833C 60.1667,44.83 55.9134,49.0833 50.6667,49.0833C 47.8531,49.0833 45.3252,47.8602 43.5857,45.9167L 30.831,45.9167C 29.0915,47.8602 26.5636,49.0833 23.75,49.0833 Z M 23.75,33.25C 20.2522,33.25 17.4166,36.0856 17.4166,39.5834C 17.4166,43.0812 20.2522,45.9167 23.75,45.9167C 27.2478,45.9167 30.0833,43.0812 30.0833,39.5834C 30.0833,36.0856 27.2478,33.25 23.75,33.25 Z M 31.589,42.4602L 32.3807,43.8314L 37.2859,40.6648L 36.4943,39.2936L 31.589,42.4602 Z M 37.9223,42.4602L 38.714,43.8314L 43.6193,40.6648L 42.8276,39.2936L 37.9223,42.4602 Z M 48.2916,37.2084C 47.4172,37.2084 46.7083,37.9172 46.7083,38.7917C 46.7083,39.6661 47.4172,40.375 48.2916,40.375C 49.1661,40.375 49.875,39.6661 49.875,38.7917C 49.875,37.9172 49.1661,37.2084 48.2916,37.2084 Z M 53.0417,35.625C 52.1672,35.625 51.4583,36.3339 51.4583,37.2083C 51.4583,38.0828 52.1672,38.7917 53.0417,38.7917C 53.9161,38.7917 54.625,38.0828 54.625,37.2083C 54.625,36.3339 53.9161,35.625 53.0417,35.625 Z M 49.875,41.9583C 49.0005,41.9583 48.2917,42.6672 48.2917,43.5417C 48.2917,44.4161 49.0005,45.125 49.875,45.125C 50.7494,45.125 51.4583,44.4161 51.4583,43.5417C 51.4583,42.6672 50.7494,41.9583 49.875,41.9583 Z M 54.625,40.375C 53.7505,40.375 53.0417,41.0839 53.0417,41.9583C 53.0417,42.8328 53.7505,43.5417 54.625,43.5417C 55.4994,43.5417 56.2083,42.8328 56.2083,41.9583C 56.2083,41.0839 55.4994,40.375 54.625,40.375 Z "/>
</svg>
