<?xml version="1.0" encoding="utf-8"?>
<!DOCTYPE svg PUBLIC "-//W3C//DTD SVG 1.1//EN" "http://www.w3.org/Graphics/SVG/1.1/DTD/svg11.dtd">
<svg xmlns="http://www.w3.org/2000/svg" xmlns:xlink="http://www.w3.org/1999/xlink" version="1.1" baseProfile="full" width="76" height="76" viewBox="0 0 76.00 76.00" enable-background="new 0 0 76.00 76.00" xml:space="preserve">
	<path fill="#000000" fill-opacity="1" stroke-linejoin="round" d="M 53,43L 53,48L 46.4211,48L 45,57L 40,57L 41.4211,48L 31.4211,48L 30,57L 25,57L 26.4211,48L 21,48L 21,43L 27.2105,43L 28.6316,34L 23,34L 23,29L 29.4211,29L 31,19L 36,19L 34.4211,29L 44.4211,29L 46,19L 51,19L 49.4211,29L 55,29L 55,34L 48.6316,34L 47.2105,43L 53,43 Z M 33.6316,34L 32.2105,43L 42.2105,43L 43.6316,34L 33.6316,34 Z "/>
</svg>
