<?xml version="1.0" encoding="utf-8"?>
<!DOCTYPE svg PUBLIC "-//W3C//DTD SVG 1.1//EN" "http://www.w3.org/Graphics/SVG/1.1/DTD/svg11.dtd">
<svg xmlns="http://www.w3.org/2000/svg" xmlns:xlink="http://www.w3.org/1999/xlink" version="1.1" baseProfile="full" width="76" height="76" viewBox="0 0 76.00 76.00" enable-background="new 0 0 76.00 76.00" xml:space="preserve">
	<path fill="#000000" fill-opacity="1" stroke-width="0.2" stroke-linejoin="round" d="M 15.8333,47.6921L 19.1921,44.3333L 24.79,49.9312L 30.3879,44.3333L 33.7467,47.6921L 28.1488,53.29L 33.7467,58.8879L 30.3879,62.2467L 24.79,56.6488L 19.1921,62.2467L 15.8333,58.8879L 21.4313,53.29L 15.8333,47.6921 Z M 38,19C 43.5417,19 45.9167,22.1667 45.1174,28.8134C 45.8315,29.2229 46.3125,29.9928 46.3125,30.875C 46.3125,31.9545 45.5923,32.8658 44.6061,33.1546C 44.1941,34.623 43.5543,35.9229 42.75,36.9628L 42.75,41.9583C 45.3889,42.4861 47.5,42.75 50.6667,44.3333C 53.8333,45.9167 54.8889,47.3681 57,49.4792L 57,57L 35.0254,57L 31.3154,53.29L 36.9134,47.6921L 31.4387,42.3108L 33.25,41.9583L 33.25,36.9628C 32.4457,35.9229 31.8059,34.623 31.3939,33.1546C 30.4077,32.8658 29.6875,31.9545 29.6875,30.875C 29.6875,29.9928 30.1685,29.2229 30.8826,28.8134C 30.0833,22.1667 32.4583,19 38,19 Z M 25.3333,44.3333C 26.5732,43.7134 27.6513,43.2957 28.6626,42.9853L 24.8366,46.8112L 23.4419,45.4165L 25.3333,44.3333 Z "/>
</svg>
