<?xml version="1.0" encoding="utf-8"?>
<!DOCTYPE svg PUBLIC "-//W3C//DTD SVG 1.1//EN" "http://www.w3.org/Graphics/SVG/1.1/DTD/svg11.dtd">
<svg xmlns="http://www.w3.org/2000/svg" xmlns:xlink="http://www.w3.org/1999/xlink" version="1.1" baseProfile="full" width="76" height="76" viewBox="0 0 76.00 76.00" enable-background="new 0 0 76.00 76.00" xml:space="preserve">
	<path fill="#000000" fill-opacity="1" stroke-width="0.2" stroke-linejoin="round" d="M 17,20L 59,20L 59,56L 17,56L 17,20 Z M 20,23L 20,53L 56,53L 56,23L 20,23 Z M 30.0833,26.9167C 30.0833,30.4145 27.2478,33.25 23.75,33.25C 23.2033,33.25 22.5061,33.1303 22,33L 22,25L 29.6666,25C 29.7968,25.5061 30.0833,26.37 30.0833,26.9167 Z M 54,51L 33,51C 35,50 37,49 40.5,48.3333L 42.7805,47.969C 43.2473,45.9845 44.2538,40.4695 42.9602,33.9053C 41.9223,36.9596 41.9223,40.0437 41.9223,40.0437C 40.1796,38.3009 41.0509,33.0728 41.0509,33.0728C 39.3082,33.0728 34.9514,36.5582 34.9514,36.5582C 34.9514,33.9441 39.3082,31.3301 39.3082,31.3301C 34.0801,32.2014 32.3373,33.9441 32.3373,33.9441C 34.0801,30.4587 39.3082,29.5873 39.3082,29.5873L 35.8228,29.5873C 37.5655,27.8446 42.7937,28.716 42.7937,28.716C 46.2791,26.1019 48.0218,27.8446 48.0218,27.8446C 47.1505,27.8446 45.4077,28.716 45.4077,28.716C 52.3786,28.716 53.25,30.4587 53.25,30.4587C 48.8932,29.5873 45.4077,30.4587 45.4077,30.4587C 50.6359,33.0728 51.5073,36.5582 51.5073,36.5582C 48.1716,33.2225 45.3467,32.4407 44.2057,32.2575C 45.9714,39.9639 46.0671,42.4626 45.7071,47.6338C 48.2847,47.381 51.1424,47.1905 54,47L 54,51 Z "/>
</svg>
