<?xml version="1.0" encoding="utf-8"?>
<!DOCTYPE svg PUBLIC "-//W3C//DTD SVG 1.1//EN" "http://www.w3.org/Graphics/SVG/1.1/DTD/svg11.dtd">
<svg xmlns="http://www.w3.org/2000/svg" xmlns:xlink="http://www.w3.org/1999/xlink" version="1.1" baseProfile="full" width="76" height="76" viewBox="0 0 76.00 76.00" enable-background="new 0 0 76.00 76.00" xml:space="preserve">
	<path fill="#000000" fill-opacity="1" stroke-width="0.2" stroke-linejoin="round" d="M 22,17L 54,17C 56.6233,17 59,19.3767 59,22L 59,54C 59,56.6234 56.6233,59 54,59L 22,59C 19.3766,59 17,56.6234 17,54L 17,22C 17,19.3767 19.3766,17 22,17 Z M 39.577,27.8033L 39.577,41.5929C 39.577,43.3816 39.4079,44.5353 39.0698,45.0541C 38.7317,45.5728 38.204,45.8322 37.4867,45.8322C 36.7529,45.8322 36.2026,45.4628 35.8358,44.7239C 35.5647,44.1882 35.41,43.2769 35.3717,41.99L 32.4806,42.5811C 32.4888,44.8563 32.9166,46.558 33.7639,47.6864C 34.6113,48.8147 35.7837,49.3789 37.2813,49.3789C 38.412,49.3789 39.3648,49.0941 40.1396,48.5246C 40.9144,47.955 41.4962,47.1399 41.8849,46.0793C 42.2737,45.0187 42.4681,43.4031 42.4681,41.2326L 42.4681,27.8033L 39.577,27.8033 Z M 49.3472,47.7639C 49.0833,48.0278 49.0833,48.5556 49.0833,49.0833L 49.0833,50.6667L 49.0833,52.25L 49.0833,53.8333C 49.0833,54.3611 49.0833,54.8889 49.3472,55.1528C 49.6111,55.4167 50.1389,55.4167 50.6667,55.4167L 52.25,55.4167C 52.7778,55.4167 53.3056,55.4167 53.5694,55.1528C 53.8333,54.8889 53.8333,54.3611 53.8333,53.8333L 53.8333,52.25L 53.8333,50.6667L 53.8333,49.0833C 53.8333,48.5556 53.8333,48.0278 53.5694,47.7639C 53.3056,47.5 52.7778,47.5 52.25,47.5L 50.6667,47.5C 50.1389,47.5 49.6111,47.5 49.3472,47.7639 Z M 50.6667,49.0833L 52.25,49.0833L 52.25,50.6667L 50.6667,50.6667L 50.6667,49.0833 Z M 50.6667,53.8333L 50.6667,52.25L 52.25,52.25L 52.25,53.8333L 50.6667,53.8333 Z "/>
</svg>
