<?xml version="1.0" encoding="utf-8"?>
<!DOCTYPE svg PUBLIC "-//W3C//DTD SVG 1.1//EN" "http://www.w3.org/Graphics/SVG/1.1/DTD/svg11.dtd">
<svg xmlns="http://www.w3.org/2000/svg" xmlns:xlink="http://www.w3.org/1999/xlink" version="1.1" baseProfile="full" width="76" height="76" viewBox="0 0 76.00 76.00" enable-background="new 0 0 76.00 76.00" xml:space="preserve">
	<path fill="#000000" fill-opacity="1" stroke-width="0.2" stroke-linejoin="round" d="M 43,30L 50.75,30L 43,22.25L 43,30 Z M 52,34L 39,34L 39,21L 24,21L 24,39L 20,43L 20,17L 43.25,17L 56,29.75L 56,59L 36.5,59L 40.5,55L 52,55L 52,34 Z M 35.1379,40.67L 38.4967,44.0287L 32.8988,49.6266L 38.4967,55.2246L 35.1379,58.5833L 29.54,52.9854L 23.9421,58.5833L 20.5833,55.2246L 26.1813,49.6266L 20.5833,44.0287L 23.9421,40.67L 29.54,46.2679L 35.1379,40.67 Z "/>
</svg>
