<?xml version="1.0" encoding="utf-8"?>
<!DOCTYPE svg PUBLIC "-//W3C//DTD SVG 1.1//EN" "http://www.w3.org/Graphics/SVG/1.1/DTD/svg11.dtd">
<svg xmlns="http://www.w3.org/2000/svg" xmlns:xlink="http://www.w3.org/1999/xlink" version="1.1" baseProfile="full" width="76" height="76" viewBox="0 0 76.00 76.00" enable-background="new 0 0 76.00 76.00" xml:space="preserve">
	<path fill="#000000" fill-opacity="1" stroke-width="0.2" stroke-linejoin="round" d="M 53.8333,58.5834L 45.9166,58.5834C 45.0422,58.5834 44.3333,57.8745 44.3333,57L 44.3333,49.0834C 44.3333,48.2089 45.0422,47.5 45.9166,47.5L 53.8333,47.5C 54.7077,47.5 55.4166,48.2089 55.4166,49.0834L 55.4166,57C 55.4166,57.8745 54.7077,58.5834 53.8333,58.5834 Z M 38,17.4167C 42.3722,17.4167 45.9167,20.9611 45.9167,25.3333C 45.9167,29.7056 42.3722,33.25 38,33.25C 33.6277,33.25 30.0833,29.7056 30.0833,25.3333C 30.0833,20.9611 33.6278,17.4167 38,17.4167 Z M 30.0833,44.3334C 29.0278,44.8611 26.9167,49.0833 26.9167,49.0833C 26.9167,49.0833 25.8611,50.6666 25.3333,56.9999L 20.5833,55.4166L 22.1667,47.5C 22.1667,47.5 25.3333,36.4167 31.6666,36.4168L 44.3332,36.4168C 48.4316,36.4167 51.2039,41.0578 52.6502,44.3334L 45.9166,44.3333L 44.3332,44.3334C 42.5843,44.3334 41.1666,45.7512 41.1666,47.5001L 41.1666,60.0362L 38.7916,60.1667C 35.4528,60.1667 32.2927,59.4011 29.4774,58.036L 30.0833,44.3334 Z "/>
</svg>
