<?xml version="1.0" encoding="utf-8"?>
<!DOCTYPE svg PUBLIC "-//W3C//DTD SVG 1.1//EN" "http://www.w3.org/Graphics/SVG/1.1/DTD/svg11.dtd">
<svg xmlns="http://www.w3.org/2000/svg" xmlns:xlink="http://www.w3.org/1999/xlink" version="1.1" baseProfile="full" width="76" height="76" viewBox="0 0 76.00 76.00" enable-background="new 0 0 76.00 76.00" xml:space="preserve">
	<path fill="#000000" fill-opacity="1" stroke-width="0.2" stroke-linejoin="round" d="M 48.6142,34.8333C 50.8813,34.8333 52.7191,36.6712 52.7191,38.9383C 52.7191,41.2054 50.8813,43.0432 48.6142,43.0432C 46.3471,43.0432 44.5093,41.2054 44.5093,38.9383C 44.5093,36.6712 46.3471,34.8333 48.6142,34.8333 Z M 44.5093,48.7901C 43.9619,49.0638 42.8673,51.253 42.8673,51.253C 42.8673,51.253 42.32,52.074 42.0463,55.358L 39.5833,54.537L 40.4043,50.4321C 40.4043,50.4321 42.0463,44.6852 45.3302,44.6852L 51.8981,44.6852C 55.1821,44.6852 56.8241,50.4321 56.8241,50.4321L 57.6451,54.537L 55.1821,55.358C 54.9084,52.0741 54.3612,51.2531 54.3612,51.2531C 54.3612,51.2531 53.2665,49.0638 52.7191,48.7901L 53.0508,56.2461C 51.8029,56.7328 50.445,57 49.0247,57C 47.2934,57 45.6549,56.6031 44.1951,55.8952L 44.5093,48.7901 Z M 19,26.9167L 34.8333,26.9167L 34.8333,25.3333C 34.8333,23.5844 36.2511,22.1667 38,22.1667L 49.0833,22.1667C 50.8322,22.1667 53.8333,25.1678 53.8333,26.9167L 53.8333,36.2234C 52.8074,34.4461 50.8871,33.25 48.6875,33.25C 45.4083,33.25 42.75,35.9083 42.75,39.1875C 42.75,40.4922 43.1708,41.6986 43.8841,42.6784C 40.3641,44.6018 38,48.1682 38,52.25L 19,52.25L 19,26.9167 Z "/>
</svg>
