<?xml version="1.0" encoding="utf-8"?>
<!DOCTYPE svg PUBLIC "-//W3C//DTD SVG 1.1//EN" "http://www.w3.org/Graphics/SVG/1.1/DTD/svg11.dtd">
<svg xmlns="http://www.w3.org/2000/svg" xmlns:xlink="http://www.w3.org/1999/xlink" version="1.1" baseProfile="full" width="76" height="76" viewBox="0 0 76.00 76.00" enable-background="new 0 0 76.00 76.00" xml:space="preserve">
	<path fill="#000000" fill-opacity="1" fill-rule="evenodd" stroke-linejoin="round" d="M 37.4819,43.369C 37.1558,42.893 35.416,40.3538 35.416,40.3538L 36.7419,44.0005L 32.6313,44.5973L 36.7419,45.194L 35.1507,48.3103C 35.1507,48.3103 37.1359,46.2232 37.4164,45.9283C 37.3008,50.4471 37.2724,51.5592 37.2724,51.5592C 37.2724,51.5592 27.1281,46.8516 32.7638,36.4418C 32.7638,36.4418 25.7357,28.6843 32.1008,23.9105C 32.1008,23.9105 21.2272,30.4745 28.1226,41.7462C 28.1226,41.7462 22.4206,36.1767 25.4042,30.5408C 25.4042,30.5408 20.2327,37.8343 26.5314,45.8571C 26.5314,45.8571 24.8076,44.7961 23.2826,40.7517C 23.2826,40.7517 24.395,52.792 37.8658,52.95L 37.8658,52.9516C 37.9106,52.9516 37.9554,52.9514 38,52.9512C 38.0446,52.9514 38.0894,52.9516 38.1343,52.9516L 38.1343,52.95C 51.6051,52.792 52.7175,40.7517 52.7175,40.7517C 51.1925,44.7961 49.4687,45.8571 49.4687,45.8571C 55.7674,37.8343 50.5958,30.5408 50.5958,30.5408C 53.5794,36.1767 47.8774,41.7462 47.8774,41.7462C 54.7729,30.4745 43.8993,23.9105 43.8993,23.9105C 50.2643,28.6843 43.2362,36.4418 43.2362,36.4418C 48.8719,46.8516 38.7277,51.5592 38.7277,51.5592C 38.7277,51.5592 38.6992,50.4471 38.5836,45.9283C 38.8641,46.2232 40.8494,48.3103 40.8494,48.3103L 39.2581,45.194L 43.3688,44.5973L 39.2581,44.0005L 40.5841,40.3538C 40.5841,40.3538 38.8443,42.893 38.5182,43.369C 38.3705,37.597 38.0041,23.2757 38.0024,23.2081L 38.0017,23.0484L 38,23.1144L 37.9983,23.0484L 37.9976,23.2081C 37.9947,23.321 37.6292,37.6101 37.4819,43.369 Z "/>
	<path fill="#000000" fill-opacity="1" fill-rule="evenodd" stroke-width="0.32" stroke-linejoin="round" d="M 38,19C 27.5068,19 19,27.5067 19,38C 19,48.4932 27.5068,57 38,57C 48.4933,57 57,48.4932 57,38C 57,27.5067 48.4933,19 38,19 Z M 38,21.2763C 47.2361,21.2763 54.7237,28.7639 54.7237,38C 54.7237,47.2361 47.2361,54.7236 38,54.7236C 28.7639,54.7236 21.2764,47.2361 21.2764,38C 21.2764,28.7639 28.7639,21.2763 38,21.2763 Z "/>
</svg>
