<?xml version="1.0" encoding="utf-8"?>
<!DOCTYPE svg PUBLIC "-//W3C//DTD SVG 1.1//EN" "http://www.w3.org/Graphics/SVG/1.1/DTD/svg11.dtd">
<svg xmlns="http://www.w3.org/2000/svg" xmlns:xlink="http://www.w3.org/1999/xlink" version="1.1" baseProfile="full" width="76" height="76" viewBox="0 0 76.00 76.00" enable-background="new 0 0 76.00 76.00" xml:space="preserve">
	<path fill="#000000" fill-opacity="1" stroke-width="0.2" stroke-linejoin="round" d="M 30.0833,30.0833L 36.4167,30.0833L 36.4167,36.4167L 30.0833,36.4167L 30.0833,30.0833 Z M 30.0833,39.5834L 36.4166,39.5834L 36.4166,45.9167L 30.0833,45.9167L 30.0833,39.5834 Z M 39.5833,39.5834L 45.9166,39.5834L 45.9166,45.9167L 39.5833,45.9167L 39.5833,39.5834 Z M 39.5833,30.0834L 45.9166,30.0834L 45.9166,36.4167L 39.5833,36.4167L 39.5833,30.0834 Z M 20.5833,30.0834L 26.9166,30.0834L 26.9166,36.4167L 20.5833,36.4167L 20.5833,30.0834 Z M 49.0833,30.0834L 55.4166,30.0834L 55.4166,36.4167L 49.0833,36.4167L 49.0833,30.0834 Z M 20.5833,20.5834L 26.9167,20.5834L 26.9167,26.9167L 20.5833,26.9167L 20.5833,20.5834 Z M 30.0833,20.5834L 36.4166,20.5834L 36.4166,26.9167L 30.0833,26.9167L 30.0833,20.5834 Z M 39.5833,20.5834L 45.9166,20.5834L 45.9166,26.9167L 39.5833,26.9167L 39.5833,20.5834 Z M 49.0833,20.5834L 55.4166,20.5834L 55.4166,26.9167L 49.0833,26.9167L 49.0833,20.5834 Z M 20.5833,39.5834L 26.9167,39.5834L 26.9167,45.9167L 20.5833,45.9167L 20.5833,39.5834 Z M 49.0833,39.5834L 55.4166,39.5834L 55.4166,45.9167L 49.0833,45.9167L 49.0833,39.5834 Z M 30.0833,49.0833L 36.4167,49.0833L 36.4167,55.4167L 30.0833,55.4167L 30.0833,49.0833 Z M 39.5833,49.0833L 45.9167,49.0833L 45.9167,55.4167L 39.5833,55.4167L 39.5833,49.0833 Z M 20.5833,49.0833L 26.9167,49.0833L 26.9167,55.4167L 20.5833,55.4167L 20.5833,49.0833 Z M 49.0833,49.0833L 55.4167,49.0833L 55.4167,55.4167L 49.0833,55.4167L 49.0833,49.0833 Z "/>
</svg>
