<?xml version="1.0" encoding="utf-8"?>
<!DOCTYPE svg PUBLIC "-//W3C//DTD SVG 1.1//EN" "http://www.w3.org/Graphics/SVG/1.1/DTD/svg11.dtd">
<svg xmlns="http://www.w3.org/2000/svg" xmlns:xlink="http://www.w3.org/1999/xlink" version="1.1" baseProfile="full" width="76" height="76" viewBox="0 0 76.00 76.00" enable-background="new 0 0 76.00 76.00" xml:space="preserve">
	<path fill="#000000" fill-opacity="1" stroke-width="0.2" stroke-linejoin="round" d="M 28.4874,31.6667L 30.0707,31.6667L 30.0707,33.25L 28.4874,33.25L 28.4874,31.6667 Z M 28.5,39.5834L 30.0833,39.5834L 30.0833,41.1667L 28.5,41.1667L 28.5,39.5834 Z M 33.25,33.2501L 34.8333,33.2501L 34.8333,34.8334L 33.25,34.8334L 33.25,33.2501 Z M 31.6996,41.1667L 33.283,41.1667L 33.283,42.75L 31.6996,42.75L 31.6996,41.1667 Z M 30.0833,36.4167L 31.6666,36.4167L 31.6666,38.0001L 30.0833,38.0001L 30.0833,36.4167 Z M 34.8333,30.0834L 36.4166,30.0834L 36.4166,31.6667L 34.8333,31.6667L 34.8333,30.0834 Z M 44.3333,40.3751C 45.2077,40.3751 45.9166,41.1253 45.9166,41.5626C 45.9166,41.9998 45.2077,42.3542 44.3333,42.3542C 43.4588,42.3542 42.7499,41.9998 42.7499,41.5626C 42.7499,41.1253 43.4588,40.3751 44.3333,40.3751 Z M 53.8333,40.3751C 54.7077,40.3751 55.4166,41.1253 55.4166,41.5625C 55.4166,41.9998 54.7077,42.3542 53.8333,42.3542C 52.9588,42.3542 52.25,41.9998 52.25,41.5625C 52.25,41.1253 52.9588,40.3751 53.8333,40.3751 Z M 41.1666,30.4792L 46.3124,36.0209L 47.4999,36.0209L 47.4999,31.6667C 47.4999,29.9178 46.0822,28.5001 44.3333,28.5001L 30.0833,28.5C 28.3344,28.5 26.9167,29.9178 26.9167,31.6667L 26.9166,40.3751C 26.9166,42.124 28.3344,44.3334 30.0833,44.3334L 36.5299,44.3334C 35.2027,40.2631 38.1847,35.4492 41.1666,30.4792 Z M 50.2708,36.0209L 50.6666,35.5946L 50.6666,28.5C 50.6666,26.7511 49.2489,25.3334 47.5,25.3334L 26.9166,25.3334C 25.1677,25.3334 23.75,26.7511 23.75,28.5L 23.75,38L 23.75,42.75L 23.75,44.3334C 23.75,46.0822 25.1677,47.5 26.9166,47.5L 28.5,47.5L 30.0833,47.5L 38.6804,47.5C 38.1146,46.9897 37.6579,46.4614 37.2983,45.9167L 29.2916,45.9167C 27.5427,45.9167 25.3333,42.9156 25.3333,41.1667L 25.3333,30.875C 25.3333,29.1261 27.5428,26.9167 29.2917,26.9167L 45.1249,26.9167C 46.8738,26.9167 49.0833,29.1262 49.0833,30.8751L 49.0833,36.0209L 50.2708,36.0209 Z M 55.4166,30.4792C 55.4166,30.4792 69.0457,45.2441 51.8743,50.3375C 52.3509,51.3635 52.5666,52.6458 50.6667,52.6458C 49.8163,52.6458 49.5542,51.6181 49.4938,50.6667L 45.5641,50.6667C 45.9793,51.6181 46.0341,52.6458 44.3333,52.6458C 43.3174,52.6458 43.0552,51.1793 42.9977,50.1281L 40.9023,49.0834L 30.9554,49.0834C 31.5857,50.4649 32.0246,52.25 30.0833,52.25C 29.1127,52.25 28.7371,50.4649 28.5917,49.0834L 26.9181,49.0834C 26.6335,50.3285 25.5198,51.8542 21.7708,51.8542C 20.657,51.8542 22.8732,49.6994 24.2855,48.4215C 23.1286,47.6336 22.1666,46.279 22.1666,45.125L 22.1666,42.4751C 12.8265,40.5393 14.3299,34.7534 15.8333,33.25C 16.9098,32.1735 20.182,34.7566 22.1666,36.5205L 22.1666,27.7084C 22.1666,25.9595 24.3761,23.75 26.125,23.75L 48.2916,23.75C 50.0405,23.75 52.25,25.9595 52.25,27.7084L 52.25,33.8895L 55.4166,30.4792 Z M 41.1666,33.25C 36.4166,39.5834 38,49.0834 45.9166,49.0834L 50.6666,49.0834C 64.9166,45.9167 55.4166,33.25 55.4166,33.25L 50.6666,38L 45.9166,38L 41.1666,33.25 Z M 49.4791,41.1667C 49.9164,41.1667 50.2708,41.5211 50.2708,41.9584C 50.2708,42.3956 49.9164,42.75 49.4791,42.75C 49.0419,42.75 48.6875,42.3956 48.6875,41.9584C 48.6875,41.5211 49.0419,41.1667 49.4791,41.1667 Z M 42.75,44.3333L 44.3333,44.3333C 44.3333,45.9167 46.7083,47.5 46.7083,44.3333C 48.2916,44.3333 48.2916,43.5912 48.2916,43.5912C 48.2916,43.5912 48.2916,44.3333 49.875,44.3333C 49.875,47.5 52.25,46.0156 52.25,44.3828L 53.8333,44.3333C 53.8333,44.3333 53.8333,47.5 50.6666,47.5C 49.0833,47.5 48.2916,45.9167 48.2916,45.9167C 48.2916,45.9167 47.5,47.5 45.9166,47.5C 42.75,47.5 42.75,44.3333 42.75,44.3333 Z M 44.3333,30.0834L 45.9166,30.0834L 45.9166,31.6667L 44.3333,31.6667L 44.3333,30.0834 Z M 17.0208,35.625C 15.5736,37.0723 18.095,39.5118 22.1666,41.1296L 22.1666,38.6096C 20.6522,36.9624 18.1004,34.5455 17.0208,35.625 Z "/>
</svg>
