<?xml version="1.0" encoding="utf-8"?>
<!DOCTYPE svg PUBLIC "-//W3C//DTD SVG 1.1//EN" "http://www.w3.org/Graphics/SVG/1.1/DTD/svg11.dtd">
<svg xmlns="http://www.w3.org/2000/svg" xmlns:xlink="http://www.w3.org/1999/xlink" version="1.1" baseProfile="full" width="76" height="76" viewBox="0 0 76.00 76.00" enable-background="new 0 0 76.00 76.00" xml:space="preserve">
	<path fill="#000000" fill-opacity="1" stroke-width="0.2" stroke-linejoin="round" d="M 42.7504,33.2436L 45.918,33.2436L 55.4193,25.3259L 55.4193,52.2463L 45.918,42.7449L 42.7504,42.7449C 41.0013,42.7449 39.5833,41.327 39.5833,39.5778L 39.5833,36.4107C 39.5833,34.6616 41.0013,33.2436 42.7504,33.2436 Z M 68.0833,38.9099C 68.0833,42.3742 66.4941,45.4673 64.005,47.5L 61.7494,45.2444C 63.6724,43.7999 64.9162,41.5002 64.9162,38.9099C 64.9162,36.3197 63.6724,34.0199 61.7494,32.5754L 64.005,30.3198C 66.4941,32.3525 68.0833,35.4456 68.0833,38.9099 Z M 61.7491,38.9099C 61.7491,41.0213 60.3717,42.811 58.4664,43.4294L 56.9984,40.4935C 57.873,40.4935 58.582,39.7845 58.582,38.9099C 58.582,38.0353 57.873,37.3264 56.9984,37.3264L 58.4664,34.3904C 60.3717,35.0088 61.7491,36.7985 61.7491,38.9099 Z M 33.2495,33.2474C 34.9987,33.2474 36.4166,34.6653 36.4166,36.4145L 36.4166,39.5816C 36.4166,41.3307 34.9987,42.7487 33.2495,42.7487L 30.082,42.7487L 20.5807,52.25L 20.5807,25.3296L 30.082,33.2474L 33.2495,33.2474 Z M 7.91666,38.9137C 7.91666,35.4494 9.50584,32.3562 11.995,30.3235L 14.2505,32.5791C 12.3276,34.0237 11.0838,36.3234 11.0838,38.9137C 11.0838,41.5039 12.3276,43.8036 14.2505,45.2482L 11.995,47.5038C 9.50584,45.4711 7.91666,42.3779 7.91666,38.9137 Z M 14.2509,38.9137C 14.2509,36.8022 15.6283,35.0126 17.5335,34.3941L 19.0015,37.3301C 18.1269,37.3301 17.418,38.0391 17.418,38.9137C 17.418,39.7882 18.1269,40.4972 19.0015,40.4972L 17.5335,43.4332C 15.6283,42.8147 14.2509,41.0251 14.2509,38.9137 Z "/>
</svg>
