<?xml version="1.0" encoding="utf-8"?>
<!DOCTYPE svg PUBLIC "-//W3C//DTD SVG 1.1//EN" "http://www.w3.org/Graphics/SVG/1.1/DTD/svg11.dtd">
<svg xmlns="http://www.w3.org/2000/svg" xmlns:xlink="http://www.w3.org/1999/xlink" version="1.1" baseProfile="full" width="76" height="76" viewBox="0 0 76.00 76.00" enable-background="new 0 0 76.00 76.00" xml:space="preserve">
	<path fill="#000000" fill-opacity="1" stroke-width="0.2" stroke-linejoin="round" d="M 28.5,47.5L 28.5,49.0833L 23.75,49.0833L 23.75,47.5C 21.1266,47.5 19,45.3734 19,42.75L 19,34.8333C 19,32.21 21.1266,30.0833 23.75,30.0833L 52.25,30.0833C 54.8734,30.0833 57,32.21 57,34.8333L 57,42.75C 57,45.3734 54.8734,47.5 52.25,47.5L 52.25,49.0833L 47.5,49.0833L 47.5,47.5L 28.5,47.5 Z M 27.7083,34.0417C 25.085,34.0417 22.9583,36.1684 22.9583,38.7917C 22.9583,41.4151 25.085,43.5417 27.7083,43.5417C 30.3317,43.5417 32.4583,41.4151 32.4583,38.7917C 32.4583,36.1684 30.3317,34.0417 27.7083,34.0417 Z M 27.7083,36.4167C 29.02,36.4167 30.0833,37.48 30.0833,38.7917C 30.0833,40.1034 29.02,41.1667 27.7083,41.1667C 26.3966,41.1667 25.3333,40.1034 25.3333,38.7917C 25.3333,37.48 26.3966,36.4167 27.7083,36.4167 Z M 39.5833,33.25L 39.5833,34.8334L 45.9166,34.8334L 45.9166,33.25L 39.5833,33.25 Z M 47.5,33.25L 47.5,34.8334L 53.8333,34.8334L 53.8333,33.25L 47.5,33.25 Z M 39.5833,36.4167L 39.5833,38L 45.9166,38L 45.9166,36.4167L 39.5833,36.4167 Z M 47.5,36.4167L 47.5,38L 53.8333,38L 53.8333,36.4167L 47.5,36.4167 Z M 39.5833,39.5833L 39.5833,41.1667L 45.9167,41.1667L 45.9167,39.5833L 39.5833,39.5833 Z M 47.5,39.5833L 47.5,41.1667L 53.8333,41.1667L 53.8333,39.5833L 47.5,39.5833 Z M 39.5833,42.75L 39.5833,44.3333L 45.9167,44.3333L 45.9167,42.75L 39.5833,42.75 Z M 47.5,42.75L 47.5,44.3333L 53.8333,44.3333L 53.8333,42.75L 47.5,42.75 Z "/>
</svg>
