<?xml version="1.0" encoding="utf-8"?>
<!DOCTYPE svg PUBLIC "-//W3C//DTD SVG 1.1//EN" "http://www.w3.org/Graphics/SVG/1.1/DTD/svg11.dtd">
<svg xmlns="http://www.w3.org/2000/svg" xmlns:xlink="http://www.w3.org/1999/xlink" version="1.1" baseProfile="full" width="76" height="76" viewBox="0 0 76.00 76.00" enable-background="new 0 0 76.00 76.00" xml:space="preserve">
	<path fill="#000000" fill-opacity="1" stroke-width="0.2" stroke-linejoin="round" d="M 20,23.0001L 55.9999,23.0001C 57.1045,23.0001 57.9999,23.8955 57.9999,25.0001L 57.9999,51C 57.9999,52.1046 57.1045,53 55.9999,53L 20,53.0001C 18.8954,53.0001 18,52.1046 18,51.0001L 18,25.0001C 18,23.8956 18.8954,23.0001 20,23.0001 Z M 20,24C 19.4477,24 19,24.4477 19,25L 19,51C 19,51.5523 19.4477,52 20,52L 56,52C 56.5522,52 57,51.5523 57,51L 57,25C 57,24.4477 56.5523,24 56,24L 20,24 Z M 20,25L 56,25L 55.9999,51L 20,51L 20,25 Z M 33.54,32.8L 30.8675,32.8L 28.99,37.01L 28.7425,37.8925L 28.71,37.8925L 28.455,36.9775L 26.6625,32.8L 23.78,32.8L 27.3,40.0625L 27.3,44L 29.86,44L 29.86,40.0175L 33.54,32.8 Z M 40.74,31.05L 38.5,31.05L 33.22,45.92L 35.46,45.92L 40.74,31.05 Z M 51.94,44L 51.94,32.8L 49.54,32.8L 49.54,38.995L 49.6025,40.5325L 49.5725,40.5325L 49.0125,39.6175L 44.595,32.8L 41.86,32.8L 41.86,44L 44.26,44L 44.26,37.845L 44.1975,36.0325L 44.2275,36.0325L 44.7875,36.9625L 49.375,44L 51.94,44 Z "/>
</svg>
