<?xml version="1.0" encoding="utf-8"?>
<!DOCTYPE svg PUBLIC "-//W3C//DTD SVG 1.1//EN" "http://www.w3.org/Graphics/SVG/1.1/DTD/svg11.dtd">
<svg xmlns="http://www.w3.org/2000/svg" xmlns:xlink="http://www.w3.org/1999/xlink" version="1.1" baseProfile="full" width="76" height="76" viewBox="0 0 76.00 76.00" enable-background="new 0 0 76.00 76.00" xml:space="preserve">
	<path fill="#000000" fill-opacity="1" stroke-width="0.2" stroke-linejoin="round" d="M 49.0833,23.7499C 53.4555,23.7499 57,27.2944 57,31.6666C 57,36.0389 53.4557,39.5831 49.0511,39.5832L 22.9583,39.5833C 20.7722,39.5833 19,37.811 19,35.6249C 19,33.6866 20.3931,32.0737 22.2328,31.733L 22.1667,30.8749C 22.1667,27.8992 24.5123,25.4712 27.4553,25.3389C 28.7579,21.6462 32.2783,18.9999 36.4167,18.9999C 40.3459,18.9999 43.7179,21.3852 45.1637,24.7868C 46.3193,24.127 47.6573,23.7499 49.0833,23.7499 Z M 49.875,41.1667L 43.9375,47.1042L 49.2153,47.1042L 38.6597,57L 42.8819,49.0833L 38,49.0833L 43.2778,41.1667L 49.875,41.1667 Z M 34.4375,41.1667L 29.0937,46.5104L 33.8437,46.5104L 24.3437,55.4167L 28.1437,48.2917L 23.75,48.2917L 28.5,41.1667L 34.4375,41.1667 Z "/>
</svg>
