<?xml version="1.0" encoding="utf-8"?>
<!DOCTYPE svg PUBLIC "-//W3C//DTD SVG 1.1//EN" "http://www.w3.org/Graphics/SVG/1.1/DTD/svg11.dtd">
<svg xmlns="http://www.w3.org/2000/svg" xmlns:xlink="http://www.w3.org/1999/xlink" version="1.1" baseProfile="full" width="76" height="76" viewBox="0 0 76.00 76.00" enable-background="new 0 0 76.00 76.00" xml:space="preserve">
	<path fill="#000000" fill-opacity="1" stroke-linejoin="round" d="M 26.1529,46.063C 27.4952,46.063 28.5833,47.1512 28.5833,48.4935C 28.5833,49.8358 27.4952,50.9239 26.1529,50.9239C 24.8106,50.9239 23.7225,49.8358 23.7225,48.4935C 23.7225,47.1512 24.8106,46.063 26.1529,46.063 Z M 44.7862,35.5312C 46.1285,35.5312 47.2167,36.6193 47.2167,37.9616C 47.2167,39.3039 46.1285,40.392 44.7862,40.392C 43.4439,40.392 42.3558,39.3039 42.3558,37.9616C 42.3558,37.7843 42.3748,37.6114 42.4108,37.4448C 42.5806,37.5168 42.7674,37.5565 42.9634,37.5565C 43.7464,37.5565 44.3811,36.9218 44.3811,36.1388C 44.3811,35.9428 44.3414,35.756 44.2694,35.5862C 44.436,35.5502 44.6089,35.5312 44.7862,35.5312 Z M 32.229,37.9616C 33.5713,37.9616 34.6594,39.0498 34.6594,40.392C 34.6594,41.7343 33.5713,42.8225 32.229,42.8225C 30.8867,42.8225 29.7985,41.7343 29.7985,40.392C 29.7985,40.0814 29.8568,39.7844 29.963,39.5113C 30.1025,39.5571 30.2514,39.5819 30.4062,39.5819C 31.1892,39.5819 31.8239,38.9472 31.8239,38.1641L 31.8141,37.9969L 32.229,37.9616 Z M 37.9388,19L 39.4644,29.8551L 34.1944,30.5957L 32.6689,19.7407L 37.9388,19 Z M 22.5072,48.0884C 18.9173,42.5655 20.4103,40.0546 21.7244,39.0158C 22.0036,34.0546 24.4085,29.6615 28.0429,26.7328L 27.3681,21.9312L 31.4772,21.3537L 32.2899,27.1365L 31.3361,27.639C 27.1395,30.1505 24.3301,34.7406 24.3301,39.987C 24.3301,41.0126 24.4374,42.0131 24.6415,42.9779L 25.3428,44.8478C 22.9123,44.8478 22.5072,48.0884 22.5072,48.0884 Z M 55.7232,39.987C 55.7232,49.383 48.1062,57 38.7101,57C 34.5326,57 30.7068,55.4943 27.7457,52.9961C 27.4031,52.7071 27.354,52.0407 27.9686,51.2798C 28.5833,50.5189 29.5759,51.0988 29.8347,51.302C 32.279,53.222 35.3608,54.367 38.7101,54.367C 46.652,54.367 53.0902,47.9289 53.0902,39.987C 53.0902,32.9045 47.97,27.0179 41.2294,25.8268L 40.3292,25.7905L 39.5203,19.9332L 43.8241,19.3283L 44.4773,23.9764C 51.0349,26.3388 55.7232,32.6154 55.7232,39.987 Z M 37.3936,49.3037C 33.2415,49.3037 31.3176,47.9871 31.3176,47.177C 31.3176,44.7466 33.5453,47.1771 37.8999,47.177C 42.2545,47.177 46.0014,44.139 46.4065,43.7339C 46.8116,43.3288 48.8369,43.6326 47.6217,45.5567C 44.7862,48.0884 41.5456,49.3036 37.3936,49.3037 Z "/>
</svg>
