<?xml version="1.0" encoding="utf-8"?>
<!DOCTYPE svg PUBLIC "-//W3C//DTD SVG 1.1//EN" "http://www.w3.org/Graphics/SVG/1.1/DTD/svg11.dtd">
<svg xmlns="http://www.w3.org/2000/svg" xmlns:xlink="http://www.w3.org/1999/xlink" version="1.1" baseProfile="full" width="76" height="76" viewBox="0 0 76.00 76.00" enable-background="new 0 0 76.00 76.00" xml:space="preserve">
	<path fill="#000000" fill-opacity="1" stroke-width="0.2" stroke-linejoin="round" d="M 50.4479,16.1979C 52.152,15.8045 53.8523,16.867 54.2457,18.5711L 56.0266,26.2849L 18.9996,34.8332L 17.2188,27.1194C 16.8254,25.4154 17.8879,23.715 19.5919,23.3216L 50.4479,16.1979 Z M 19.4743,29.8487L 20.1866,32.9342L 26.1195,23.4396L 23.034,24.1519L 19.4743,29.8487 Z M 24.8149,31.8657L 27.9004,31.1534L 33.8333,21.6587L 30.7478,22.3711L 24.8149,31.8657 Z M 32.5287,30.0848L 35.6142,29.3725L 41.5471,19.8778L 38.4616,20.5902L 32.5287,30.0848 Z M 40.2424,28.304L 43.328,27.5916L 49.2609,18.097L 46.1754,18.8093L 40.2424,28.304 Z M 47.9562,26.5231L 51.0417,25.8107L 53.4149,22.0129L 52.7026,18.9274L 47.9562,26.5231 Z M 53.8337,55.4167L 22.1662,55.4167C 20.4173,55.4167 18.9996,53.9989 18.9996,52.25L 18.9996,34.8333L 57,34.8333L 57.0004,52.25C 57.0004,53.9989 55.5826,55.4167 53.8337,55.4167 Z M 30.0833,36.4167L 23.75,42.75L 26.9166,42.75L 33.25,36.4167L 30.0833,36.4167 Z M 38,36.4167L 31.6667,42.75L 34.8333,42.75L 41.1666,36.4167L 38,36.4167 Z M 45.9166,36.4167L 39.5833,42.75L 42.75,42.75L 49.0833,36.4167L 45.9166,36.4167 Z M 53.8333,36.4167L 47.5,42.75L 50.6666,42.75L 55.408,38.0087L 55.4166,36.4167L 53.8333,36.4167 Z M 22.1667,36.4167L 20.5833,38L 20.5833,41.1667L 25.3333,36.4167L 22.1667,36.4167 Z M 47.5,58.5834C 49.2489,58.5834 50.6666,60.0011 50.6666,61.75C 50.6666,63.4989 49.2489,64.9167 47.5,64.9167C 45.7511,64.9167 44.3333,63.4989 44.3333,61.75C 44.3333,60.0011 45.7511,58.5834 47.5,58.5834 Z M 38,58.5833C 39.7489,58.5833 41.1666,60.0011 41.1666,61.75C 41.1666,63.4989 39.7489,64.9167 38,64.9167C 36.2511,64.9167 34.8333,63.4989 34.8333,61.75C 34.8333,60.0011 36.2511,58.5833 38,58.5833 Z M 28.5,58.5833C 30.2489,58.5833 31.6667,60.0011 31.6667,61.75C 31.6667,63.4989 30.2489,64.9167 28.5,64.9167C 26.7511,64.9167 25.3333,63.4989 25.3333,61.75C 25.3333,60.0011 26.7511,58.5833 28.5,58.5833 Z "/>
</svg>
