<?xml version="1.0" encoding="utf-8"?>
<!DOCTYPE svg PUBLIC "-//W3C//DTD SVG 1.1//EN" "http://www.w3.org/Graphics/SVG/1.1/DTD/svg11.dtd">
<svg xmlns="http://www.w3.org/2000/svg" xmlns:xlink="http://www.w3.org/1999/xlink" version="1.1" baseProfile="full" width="76" height="76" viewBox="0 0 76.00 76.00" enable-background="new 0 0 76.00 76.00" xml:space="preserve">
	<path fill="#000000" fill-opacity="1" stroke-linejoin="round" d="M 21.5,18C 23.433,18 25,19.567 25,21.5C 25,23.433 23.433,25 21.5,25C 19.567,25 18,23.433 18,21.5C 18,19.567 19.567,18 21.5,18 Z M 46.9998,57.0001L 34.9999,57.0001C 29.4771,57.0001 24.9999,52.523 24.9999,47.0001L 24.9999,35.0001C 24.9999,29.4773 29.4771,25.0001 34.9999,25.0001L 46.9998,25.0001C 52.5227,25.0001 56.9998,29.4773 56.9998,35.0001L 56.9998,47.0001C 56.9998,52.523 52.5227,57.0001 46.9998,57.0001 Z M 46.5,39C 42.3578,39 39,42.3579 39,46.5C 39,50.6421 42.3579,54 46.5,54C 50.6421,54 54,50.6421 54,46.5C 54,42.3579 50.6421,39 46.5,39 Z M 33.5,29C 31.0147,29 29,31.0148 29,33.5C 29,35.9853 31.0147,38 33.5,38C 35.9853,38 38,35.9853 38,33.5C 38,31.0148 35.9853,29 33.5,29 Z "/>
</svg>
