<?xml version="1.0" encoding="utf-8"?>
<!DOCTYPE svg PUBLIC "-//W3C//DTD SVG 1.1//EN" "http://www.w3.org/Graphics/SVG/1.1/DTD/svg11.dtd">
<svg xmlns="http://www.w3.org/2000/svg" xmlns:xlink="http://www.w3.org/1999/xlink" version="1.1" baseProfile="full" width="76" height="76" viewBox="0 0 76.00 76.00" enable-background="new 0 0 76.00 76.00" xml:space="preserve">
	<path fill="#000000" fill-opacity="1" stroke-width="0.2" stroke-linejoin="round" d="M 50.9358,52.5851C 48.5894,53.7269 45.5246,54.2978 41.7413,54.2978C 36.8017,54.2978 32.9193,52.8391 30.0939,49.9218C 27.2685,47.0045 25.8558,43.1197 25.8558,38.2672C 25.8558,33.0954 27.4451,28.9009 30.6236,25.6836C 33.8022,22.4664 37.9266,20.8578 42.9967,20.8578C 46.1366,20.8578 48.7829,21.2642 50.9358,22.0769L 50.9358,29.2174C 48.8168,27.9793 46.4027,27.36 43.6934,27.36C 40.7181,27.36 38.3172,28.2937 36.4909,30.1612C 34.6646,32.0286 33.7514,34.5589 33.7514,37.7519C 33.7514,40.8144 34.6125,43.2539 36.3349,45.0706C 38.0572,46.8872 40.377,47.7956 43.2943,47.7956C 46.0761,47.7956 48.6233,47.1763 50.9358,45.9378L 50.9358,52.5851 Z "/>
</svg>
