<?xml version="1.0" encoding="utf-8"?>
<!DOCTYPE svg PUBLIC "-//W3C//DTD SVG 1.1//EN" "http://www.w3.org/Graphics/SVG/1.1/DTD/svg11.dtd">
<svg xmlns="http://www.w3.org/2000/svg" xmlns:xlink="http://www.w3.org/1999/xlink" version="1.1" baseProfile="full" width="76" height="76" viewBox="0 0 76.00 76.00" enable-background="new 0 0 76.00 76.00" xml:space="preserve">
	<path fill="#000000" fill-opacity="1" stroke-width="0.2" stroke-linejoin="round" d="M 20.5833,26.9167L 36.4167,26.9167L 36.4167,25.3333C 36.4167,23.5844 37.8344,22.1667 39.5833,22.1667L 50.6666,22.1667C 52.4155,22.1667 55.4166,25.1678 55.4167,26.9167L 55.4167,35.6806C 54.4851,35.1417 53.4036,34.8333 52.25,34.8333C 48.7522,34.8333 45.9167,37.6689 45.9167,41.1667L 44.3333,41.1667L 44.3333,52.25L 20.5833,52.25L 20.5833,26.9167 Z M 52.25,36.4167C 54.8733,36.4167 57,38.5433 57,41.1667L 57,42.75L 58.5833,42.75L 58.5833,53.8333L 45.9167,53.8333L 45.9167,42.75L 47.5,42.75L 47.5,41.1667C 47.5,38.5433 49.6266,36.4167 52.25,36.4167 Z M 52.25,39.5833C 51.3755,39.5833 50.6667,40.2922 50.6667,41.1667L 50.6667,42.75L 53.8333,42.75L 53.8333,41.1667C 53.8333,40.2922 53.1244,39.5833 52.25,39.5833 Z "/>
</svg>
