<?xml version="1.0" encoding="utf-8"?>
<!DOCTYPE svg PUBLIC "-//W3C//DTD SVG 1.1//EN" "http://www.w3.org/Graphics/SVG/1.1/DTD/svg11.dtd">
<svg xmlns="http://www.w3.org/2000/svg" xmlns:xlink="http://www.w3.org/1999/xlink" version="1.1" baseProfile="full" width="76" height="76" viewBox="0 0 76.00 76.00" enable-background="new 0 0 76.00 76.00" xml:space="preserve">
	<path fill="#000000" fill-opacity="1" stroke-width="0.2" stroke-linejoin="round" d="M 15.7195,45.4133L 24.8715,45.7441C 23.7127,47.4797 22.8883,49.4557 22.4886,51.5786L 15.7195,45.4133 Z M 28.7024,32.2931L 34.939,38.9973C 32.817,39.4197 30.8506,40.2651 29.1294,41.4407L 28.7024,32.2931 Z M 47.1602,32.196L 46.8295,41.348C 45.0938,40.1892 43.1178,39.3647 40.9949,38.965L 47.1602,32.196 Z M 60.2805,45.1789L 53.5763,51.4154C 53.1539,49.2935 52.3085,47.327 51.1329,45.6059L 60.2805,45.1789 Z M 41.3269,42.29C 46.4782,43.6702 50.0329,48.0347 50.6295,53.025L 59,53.025L 59,55.025L 17,55.025L 17,53.025L 25.4694,53.025C 25.5407,52.4332 25.6547,51.8392 25.8135,51.2466C 27.6241,44.4894 34.5697,40.4794 41.3269,42.29 Z M 38,18.5L 45.5,26L 40,26L 40,34L 36,34L 36,26L 30.5,26L 38,18.5 Z "/>
</svg>
