<?xml version="1.0" encoding="utf-8"?>
<!DOCTYPE svg PUBLIC "-//W3C//DTD SVG 1.1//EN" "http://www.w3.org/Graphics/SVG/1.1/DTD/svg11.dtd">
<svg xmlns="http://www.w3.org/2000/svg" xmlns:xlink="http://www.w3.org/1999/xlink" version="1.1" baseProfile="full" width="76.0106" height="76.0106" viewBox="0 0 76.01 76.01" enable-background="new 0 0 76.01 76.01" xml:space="preserve">
	<path fill="#000000" fill-opacity="1" stroke-width="0.2" stroke-linejoin="round" d="M 38.0053,20.5862C 40.629,20.5862 42.756,22.7132 42.756,25.3369C 42.756,27.0953 41.8005,28.6307 40.3805,29.4521L 40.3805,51.2442C 44.2994,50.5074 47.7481,47.9754 50.1734,44.3395L 47.1108,44.3395L 52.2573,34.0466L 57.008,44.3395L 54.4332,44.3395C 52.042,51.7201 45.5897,57.008 38.0053,57.008C 30.4209,57.008 23.9687,51.7201 21.5774,44.3395L 19.0026,44.3395L 23.7533,34.0466L 28.8998,44.3395L 25.8372,44.3395C 28.2625,47.9753 31.711,50.5073 35.6299,51.2442L 35.6299,29.4519C 34.2099,28.6305 33.2546,27.0952 33.2546,25.3369C 33.2546,22.7132 35.3816,20.5862 38.0053,20.5862 Z M 38.0053,23.7533C 37.1307,23.7533 36.4217,24.4623 36.4217,25.3369C 36.4217,26.2115 37.1307,26.9204 38.0053,26.9204C 38.8799,26.9204 39.5888,26.2115 39.5888,25.3369C 39.5888,24.4623 38.8799,23.7533 38.0053,23.7533 Z "/>
</svg>
