<?xml version="1.0" encoding="utf-8"?>
<!DOCTYPE svg PUBLIC "-//W3C//DTD SVG 1.1//EN" "http://www.w3.org/Graphics/SVG/1.1/DTD/svg11.dtd">
<svg xmlns="http://www.w3.org/2000/svg" xmlns:xlink="http://www.w3.org/1999/xlink" version="1.1" baseProfile="full" width="76" height="76" viewBox="0 0 76.00 76.00" enable-background="new 0 0 76.00 76.00" xml:space="preserve">
	<path fill="#FFFFFF" fill-opacity="1" stroke-width="0.2" stroke-linejoin="round" d="M 14.25,25.3334L 14.25,52.25L 39.5833,52.25L 39.5833,36.4167L 45.9166,36.4167L 45.9166,25.3333L 14.25,25.3334 Z M 42.75,33.25L 17.4167,33.25L 17.4167,28.5L 42.75,28.5L 42.75,33.25 Z M 36.4166,36.4167L 36.4166,41.1667L 17.4167,41.1667L 17.4167,36.4167L 36.4166,36.4167 Z M 36.4166,44.3333L 36.4166,49.0833L 17.4167,49.0833L 17.4167,44.3333L 36.4166,44.3333 Z M 57,28.5L 49.0833,28.5L 49.0833,33.25L 52.25,33.25L 52.25,44.3334L 45.9167,38L 45.9167,44.3334L 54.625,52.25L 63.3333,44.3334L 63.3333,38L 57,44.3334L 57,28.5 Z "/>
</svg>
