<?xml version="1.0" encoding="utf-8"?>
<!DOCTYPE svg PUBLIC "-//W3C//DTD SVG 1.1//EN" "http://www.w3.org/Graphics/SVG/1.1/DTD/svg11.dtd">
<svg xmlns="http://www.w3.org/2000/svg" xmlns:xlink="http://www.w3.org/1999/xlink" version="1.1" baseProfile="full" width="76" height="76" viewBox="0 0 76.00 76.00" enable-background="new 0 0 76.00 76.00" xml:space="preserve">
	<path fill="#000000" fill-opacity="1" stroke-width="0.2" stroke-linejoin="round" d="M 43.5,21.0285L 48.6842,25.394L 50.3689,24.9228C 48.4338,23.092 46.0926,21.6859 43.4946,20.854L 43.5,21.0285 Z M 53.6014,39.3315L 52.5714,45.5285L 53.8558,46.5275C 55.221,43.9944 55.9969,41.0968 56,38.0182L 53.6014,39.3315 Z M 43.8214,48.7596L 38.3871,44.894L 32.1728,47.2255L 30.6427,53.6725L 32.5593,55.1631C 34.2758,55.7068 36.1036,56 38,56C 39.7036,56 41.3519,55.7633 42.9138,55.3211L 43.8214,48.7596 Z M 29.5413,53.4566L 31.0714,47.0096L 25.3871,42.644L 21.0897,44.182C 22.5587,48.1994 25.4186,51.5469 29.0863,53.6415L 29.5413,53.4566 Z M 25.5413,41.5626L 26.3214,34.1156L 21.5554,30.6696C 20.5557,32.9087 20,35.3894 20,38C 20,39.8384 20.2756,41.6124 20.7877,43.2829L 25.5413,41.5626 Z M 27.0056,33.644L 33.22,31.0625L 34.5,24.3656L 30.7276,21.5296C 26.8969,23.2235 23.768,26.2146 21.898,29.946L 27.0056,33.644 Z M 51.7199,45.2066L 52.7499,39.0096L 46.8157,34.394L 40.3514,36.7255L 39.3214,44.1725L 44.7556,48.038L 51.7199,45.2066 Z M 46.4699,33.4566L 47.4999,26.0096L 42.3157,21.6441L 35.3514,24.4755L 34.0714,31.1725L 40.0056,35.788L 46.4699,33.4566 Z M 38,18C 49.0457,18 58,26.9543 58,38C 58,49.0457 49.0457,58 38,58C 26.9543,58 18,49.0457 18,38C 18,26.9543 26.9543,18 38,18 Z "/>
</svg>
