<?xml version="1.0" encoding="utf-8"?>
<!DOCTYPE svg PUBLIC "-//W3C//DTD SVG 1.1//EN" "http://www.w3.org/Graphics/SVG/1.1/DTD/svg11.dtd">
<svg xmlns="http://www.w3.org/2000/svg" xmlns:xlink="http://www.w3.org/1999/xlink" version="1.1" baseProfile="full" width="76" height="76" viewBox="0 0 76.00 76.00" enable-background="new 0 0 76.00 76.00" xml:space="preserve">
	<path fill="#000000" fill-opacity="1" stroke-width="0.2" stroke-linejoin="round" d="M 20.5833,55.4167C 15.8333,55.4167 22.1667,49.875 22.1667,49.875L 25.3333,42.75L 31.6667,49.0833L 25.3333,52.25L 45.9167,52.25L 49.0833,55.4167L 20.5833,55.4167 Z M 36.4166,47.5L 33.25,47.5L 26.9167,41.1667L 26.9167,38L 36.4166,47.5 Z M 33.7922,33.7922C 31.7487,36.1262 31.0588,38.0282 30.4792,39.1875L 28.8958,37.6042C 28.8958,37.6042 26.9167,36.4167 31.6667,31.6667L 33.7922,33.7922 Z M 36.8125,45.5209L 31.6666,40.375C 32.5843,38.7691 33.1757,36.8972 34.8701,34.8702L 42.75,42.75C 42.75,42.75 38.3958,47.1042 36.8125,45.5209 Z M 36.3335,33.1669C 43.0389,25.5565 53.6589,16.7098 60.1063,11.079C 62.2302,12.8251 64.1438,14.8176 65.8035,17.0128L 44.3333,41.1667L 36.3335,33.1669 Z M 57.1116,8.87302L 58.5878,9.89903C 52.0599,15.7961 41.6159,25.1447 35.2855,32.1189L 33.25,30.0833L 57.1116,8.87302 Z "/>
</svg>
