<?xml version="1.0" encoding="utf-8"?>
<!DOCTYPE svg PUBLIC "-//W3C//DTD SVG 1.1//EN" "http://www.w3.org/Graphics/SVG/1.1/DTD/svg11.dtd">
<svg xmlns="http://www.w3.org/2000/svg" xmlns:xlink="http://www.w3.org/1999/xlink" version="1.1" baseProfile="full" width="76" height="76" viewBox="0 0 76.00 76.00" enable-background="new 0 0 76.00 76.00" xml:space="preserve">
	<path fill="#000000" fill-opacity="1" stroke-width="0.2" stroke-linejoin="round" d="M 19,19L 27,19L 27,24L 19,24L 19,19 Z M 30,19L 38,19L 38,24L 30,24L 30,19 Z M 41,19L 49,19L 49,24L 41,24L 41,19 Z M 52,19L 57,19L 57,27L 52,27L 52,19 Z M 52,30L 57,30L 57,38L 52,38L 52,30 Z M 52,41L 57,41L 57,49L 52,49L 52,41 Z M 27,52L 35,52L 35,57L 27,57L 27,52 Z M 38,52L 46,52L 46,57L 38,57L 38,52 Z M 49,52L 57,52L 57,57L 49,57L 49,52 Z M 19,27L 24,27L 24,35L 19,35L 19,27 Z M 19,38L 24,38L 24,46L 19,46L 19,38 Z M 19,49L 24,49L 24,57L 19,57L 19,49 Z "/>
</svg>
