<?xml version="1.0" encoding="utf-8"?>
<!DOCTYPE svg PUBLIC "-//W3C//DTD SVG 1.1//EN" "http://www.w3.org/Graphics/SVG/1.1/DTD/svg11.dtd">
<svg xmlns="http://www.w3.org/2000/svg" xmlns:xlink="http://www.w3.org/1999/xlink" version="1.1" baseProfile="full" width="76" height="76" viewBox="0 0 76.00 76.00" enable-background="new 0 0 76.00 76.00" xml:space="preserve">
	<path fill="#000000" fill-opacity="1" stroke-width="0.2" stroke-linejoin="round" d="M 46.3697,46.018C 45.6241,47.0947 44.5284,47.9307 43.0967,48.5344C 41.662,49.1382 39.9671,49.4422 38.0089,49.4422C 35.6622,49.4422 33.7191,49.0327 32.186,48.2009C 31.0988,47.6056 30.2147,46.8118 29.5349,45.8196C 28.8534,44.8231 28.5085,43.852 28.5085,42.902C 28.5085,42.3405 28.7221,41.8549 29.1376,41.458C 29.5577,41.0569 30.099,40.8584 30.737,40.8584C 31.2605,40.8584 31.7093,41.0147 32.0754,41.3271C 32.4385,41.6395 32.7425,42.0913 32.992,42.6909C 33.2901,43.3833 33.6148,43.966 33.9598,44.4262C 34.3026,44.8822 34.7852,45.2664 35.4101,45.5662C 36.0282,45.8618 36.8507,46.0138 37.8801,46.0138C 39.2886,46.0138 40.4274,45.7098 41.2984,45.106C 42.1741,44.5022 42.5951,43.7633 42.5951,42.8725C 42.5951,42.1589 42.3679,41.5931 41.9035,41.154C 41.4344,40.7065 40.8281,40.3687 40.0761,40.1322C 39.3211,39.8915 38.3074,39.6382 37.0369,39.3722C 35.3311,38.9964 33.904,38.5658 32.7493,38.0676C 31.5924,37.5693 30.6711,36.8853 29.9883,36.024C 29.3039,35.15 28.9628,34.0691 28.9628,32.7856C 28.9628,31.5611 29.3225,30.4717 30.0441,29.5176C 30.7648,28.5633 31.8073,27.8329 33.1673,27.3262C 34.5222,26.8153 36.1173,26.562 37.9447,26.562C 39.406,26.562 40.6697,26.7309 41.7401,27.0687C 42.8074,27.4065 43.6966,27.854 44.4077,28.4155C 45.1149,28.9729 45.6346,29.564 45.964,30.1847C 46.2929,30.8053 46.4588,31.4133 46.4588,32.0044C 46.4588,32.5575 46.2452,33.0558 45.8293,33.4949C 45.4134,33.934 44.881,34.1578 44.2599,34.1536C 43.6996,34.1536 43.2601,34.0269 42.9552,33.7524C 42.6584,33.4864 42.3464,33.0642 42.0094,32.4773C 41.5834,31.6582 41.0729,31.0206 40.4793,30.5647C 39.9009,30.1171 38.9475,29.8807 37.6204,29.8849C 36.3926,29.8849 35.4101,30.134 34.6687,30.628C 33.9226,31.1262 33.5658,31.7047 33.5641,32.3802C 33.5658,32.8066 33.6874,33.1655 33.9332,33.4696C 34.1823,33.7778 34.5298,34.048 34.9756,34.2717C 35.4219,34.504 35.8762,34.6813 36.3327,34.808C 36.7941,34.9389 37.5601,35.1289 38.6245,35.378C 39.9595,35.6651 41.1709,35.986 42.259,36.3364C 43.3449,36.6911 44.2717,37.1133 45.0376,37.62C 45.8094,38.1225 46.4128,38.7684 46.8435,39.5453C 47.2767,40.3222 47.4928,41.2722 47.4928,42.3911C 47.4928,43.738 47.1171,44.9455 46.3697,46.018 Z M 55.4133,40.7529C 55.5552,39.8578 55.6299,38.9373 55.6299,38C 55.6299,28.2635 47.7369,20.3722 37.9996,20.3722C 37.0652,20.3722 36.1448,20.4482 35.248,20.5876C 33.6241,19.5827 31.7081,19 29.6544,19C 23.7703,19 19,23.7711 19,29.6569C 19,31.7089 19.5818,33.6258 20.5863,35.2513C 20.4474,36.1507 20.371,37.0627 20.371,38C 20.371,47.7406 28.264,55.6278 37.9996,55.6278C 38.9344,55.6278 39.8548,55.556 40.7516,55.4167C 42.3768,56.4173 44.2915,57 46.3452,57C 52.231,57 57,52.2331 57,46.3473C 57,44.2953 56.419,42.3784 55.4133,40.7529 Z "/>
</svg>
