<?xml version="1.0" encoding="utf-8"?>
<!DOCTYPE svg PUBLIC "-//W3C//DTD SVG 1.1//EN" "http://www.w3.org/Graphics/SVG/1.1/DTD/svg11.dtd">
<svg xmlns="http://www.w3.org/2000/svg" xmlns:xlink="http://www.w3.org/1999/xlink" version="1.1" baseProfile="full" width="76" height="76" viewBox="0 0 76.00 76.00" enable-background="new 0 0 76.00 76.00" xml:space="preserve">
	<path fill="#FFFFFF" fill-opacity="1" stroke-width="0.2" stroke-linejoin="round" d="M 23.75,38L 33.25,47.5L 23.75,57L 23.75,38 Z M 49.0833,28.5C 53.4555,28.5 57,32.0445 57,36.4167C 57,40.7889 53.4557,44.3332 49.0511,44.3333L 32.8542,43.9375L 22.7419,33.8253C 23.3431,31.5229 24.992,30.1997 27.4553,30.0889C 28.7579,26.3962 32.2783,23.7499 36.4167,23.7499C 40.3459,23.7499 43.7179,26.1353 45.1637,29.5369C 46.3193,28.877 47.6573,28.5 49.0833,28.5 Z M 19,40.375C 19,38.4599 20.3599,36.8625 22.1667,36.4958L 22.1667,44.2542C 20.3599,43.8874 19,42.29 19,40.375 Z "/>
</svg>
