<?xml version="1.0" encoding="utf-8"?>
<!DOCTYPE svg PUBLIC "-//W3C//DTD SVG 1.1//EN" "http://www.w3.org/Graphics/SVG/1.1/DTD/svg11.dtd">
<svg xmlns="http://www.w3.org/2000/svg" xmlns:xlink="http://www.w3.org/1999/xlink" version="1.1" baseProfile="full" width="76" height="76" viewBox="0 0 76.00 76.00" enable-background="new 0 0 76.00 76.00" xml:space="preserve">
	<path fill="#000000" fill-opacity="1" stroke-width="0.2" stroke-linejoin="round" d="M 15.8333,41.3605L 19.1921,38.0017L 24.79,43.5996L 30.3879,38.0017L 33.7467,41.3605L 28.1488,46.9584L 33.7467,52.5563L 30.3879,55.9151L 24.79,50.3171L 19.1921,55.9151L 15.8333,52.5563L 21.4313,46.9584L 15.8333,41.3605 Z M 49.0833,33.25C 53.4555,33.25 57,36.7945 57,41.1667C 57,45.5389 53.4045,48.9999 49,49L 31.75,49L 29.8154,46.9584L 35.4133,41.3605L 30.3879,36.4283L 24.5867,42.2296L 22.3442,39.7371C 23.25,37 25.2617,34.9376 27.4553,34.8389C 28.7579,31.1462 32.2783,28.4999 36.4167,28.4999C 40.3459,28.4999 43.7179,30.8853 45.1637,34.2869C 46.3193,33.627 47.6573,33.25 49.0833,33.25 Z "/>
</svg>
