<?xml version="1.0" encoding="utf-8"?>
<!DOCTYPE svg PUBLIC "-//W3C//DTD SVG 1.1//EN" "http://www.w3.org/Graphics/SVG/1.1/DTD/svg11.dtd">
<svg xmlns="http://www.w3.org/2000/svg" xmlns:xlink="http://www.w3.org/1999/xlink" version="1.1" baseProfile="full" width="76" height="76" viewBox="0 0 76.00 76.00" enable-background="new 0 0 76.00 76.00" xml:space="preserve">
	<path fill="#000000" fill-opacity="1" stroke-linejoin="round" d="M 15,51C 15,51 29,65 37,50L 30,43C 30,43 23,49 15,51 Z M 32.3358,39.3432C 31.5547,40.1242 31.5547,42.3906 32.3358,43.1716L 37.0784,47.9142C 37.8595,48.6953 40.1258,48.6953 40.9068,47.9142L 52.4276,36.3934C 53.2087,35.6124 53.2087,34.3461 52.4276,33.565L 46.685,27.8224C 45.904,27.0414 44.6376,27.0414 43.8566,27.8224L 32.3358,39.3432 Z M 47.3224,24.3432C 46.5413,25.1242 46.5413,26.3906 47.3224,27.1716L 53.065,32.9142C 53.846,33.6953 55.1124,33.6953 55.8934,32.9142L 68.3139,20.4937C 66.3007,17.0151 63.7059,13.9151 60.6624,11.3267C 60.3627,11.4198 60.0805,11.5851 59.8432,11.8224L 47.3224,24.3432 Z "/>
</svg>
