<?xml version="1.0" encoding="utf-8"?>
<!DOCTYPE svg PUBLIC "-//W3C//DTD SVG 1.1//EN" "http://www.w3.org/Graphics/SVG/1.1/DTD/svg11.dtd">
<svg xmlns="http://www.w3.org/2000/svg" xmlns:xlink="http://www.w3.org/1999/xlink" version="1.1" baseProfile="full" width="76" height="76" viewBox="0 0 76.00 76.00" enable-background="new 0 0 76.00 76.00" xml:space="preserve">
	<path fill="#000000" fill-opacity="1" stroke-width="0.2" stroke-linejoin="round" d="M 20,23.0001L 55.9999,23.0001C 57.1045,23.0001 57.9999,23.8955 57.9999,25.0001L 58,47C 58,48.1045 57.1045,49 56,49L 41.0001,48.9999L 41.0001,52.9999L 45.0001,52.9999C 46.1046,52.9999 47.0001,53.8953 47.0001,54.9999L 47,56.9999L 29.0001,56.9999L 29.0001,54.9999C 29.0001,53.8953 29.8955,52.9999 31.0001,52.9999L 35.0001,52.9999L 35.0001,48.9999L 20,49C 18.8955,49 18,48.1045 18,47L 18,25.0001C 18,23.8955 18.8955,23.0001 20,23.0001 Z M 21,26.0001L 21,46L 54.9999,46L 54.9999,26.0001L 21,26.0001 Z M 23,28L 27,28L 27,32L 23,32L 23,28 Z M 29,28L 53,28L 53,32L 29,32L 29,28 Z M 23,34L 27,34L 27,38L 23,38L 23,34 Z M 29,34L 53,34L 53,38L 29,38L 29,34 Z M 23,40L 27,40L 27,44L 23,44L 23,40 Z M 29,40L 53,40L 53,44L 29,44L 29,40 Z "/>
</svg>
