<?xml version="1.0" encoding="utf-8"?>
<!DOCTYPE svg PUBLIC "-//W3C//DTD SVG 1.1//EN" "http://www.w3.org/Graphics/SVG/1.1/DTD/svg11.dtd">
<svg xmlns="http://www.w3.org/2000/svg" xmlns:xlink="http://www.w3.org/1999/xlink" version="1.1" baseProfile="full" width="76" height="76" viewBox="0 0 76.00 76.00" enable-background="new 0 0 76.00 76.00" xml:space="preserve">
	<path fill="#000000" fill-opacity="1" stroke-width="0.2" stroke-linejoin="round" d="M 28.5,58.5833L 23.75,28.5L 52.25,28.5L 47.5,58.5833L 28.5,58.5833 Z M 28.1667,36.4167L 29.6667,45.9167L 46.3333,45.9167L 47.8333,36.4167L 28.1667,36.4167 Z M 22.1666,27.7084L 22.9583,25.3334L 24.5417,25.3333L 25.3333,23.75L 27.7083,23.75L 28.5,19.3958L 47.5,19.3959L 48.2916,23.75L 50.6666,23.75L 51.4583,25.3334L 53.0416,25.3334L 53.8333,27.7084L 22.1666,27.7084 Z M 38,22.9584C 36.2511,22.9584 34.8333,24.1045 34.8333,24.5417C 34.8333,24.9789 36.2511,25.7292 38,25.7292C 39.7489,25.7292 41.1666,24.9789 41.1666,24.5417C 41.1666,24.1045 39.7489,22.9584 38,22.9584 Z "/>
</svg>
