<?xml version="1.0" encoding="utf-8"?>
<!DOCTYPE svg PUBLIC "-//W3C//DTD SVG 1.1//EN" "http://www.w3.org/Graphics/SVG/1.1/DTD/svg11.dtd">
<svg xmlns="http://www.w3.org/2000/svg" xmlns:xlink="http://www.w3.org/1999/xlink" version="1.1" baseProfile="full" width="76" height="76" viewBox="0 0 76.00 76.00" enable-background="new 0 0 76.00 76.00" xml:space="preserve">
	<path fill="#000000" fill-opacity="1" stroke-width="0.2" stroke-linejoin="round" d="M 16,25L 60,25L 60,29L 56,29L 56,32L 60,32L 60,36L 56,36L 56,39L 60,39L 60,43L 56,43L 56,46L 60,46L 60,50L 56,50L 56,53L 52,53L 52,50L 44,50L 44,53L 40,53L 40,50L 32,50L 32,53L 28,53L 28,50L 20,50L 20,53L 16,53L 16,25 Z M 52,46L 52,43L 44,43L 44,46L 52,46 Z M 40,46L 40,43L 32,43L 32,46L 40,46 Z M 28,46L 28,43L 20,43L 20,46L 28,46 Z M 32,32L 40,32L 40,29.0001L 32,29.0001L 32,32 Z M 43.9999,32L 51.9999,32L 51.9999,29L 43.9999,29L 43.9999,32 Z M 20,29L 20,32L 28,32L 28,29L 20,29 Z M 20,36L 20,39L 28,39L 28,36L 20,36 Z M 32,36L 32,39L 40,39L 40,36L 32,36 Z M 44,36L 44,39L 52,39L 52,36L 44,36 Z "/>
</svg>
