<?xml version="1.0" encoding="utf-8"?>
<!DOCTYPE svg PUBLIC "-//W3C//DTD SVG 1.1//EN" "http://www.w3.org/Graphics/SVG/1.1/DTD/svg11.dtd">
<svg xmlns="http://www.w3.org/2000/svg" xmlns:xlink="http://www.w3.org/1999/xlink" version="1.1" baseProfile="full" width="76" height="76" viewBox="0 0 76.00 76.00" enable-background="new 0 0 76.00 76.00" xml:space="preserve">
	<path fill="#000000" fill-opacity="1" stroke-width="0.2" stroke-linejoin="round" d="M 31.875,24.9583C 36.6845,24.9583 40.5833,29.5247 40.5833,35.6458C 40.5833,41.767 36.6845,46.3333 31.875,46.3333C 27.0655,46.3333 23.1667,41.767 23.1667,35.6458C 23.1667,29.5247 27.0655,24.9583 31.875,24.9583 Z M 31.875,29.7084C 29.6889,29.7084 28.3125,32.1481 28.3125,35.6459C 28.3125,39.1437 29.6889,41.5834 31.875,41.5834C 34.0611,41.5834 35.4375,39.1437 35.4375,35.6459C 35.4375,32.1481 34.0611,29.7084 31.875,29.7084 Z M 29.8958,51.875L 31.875,47.9167C 34.6162,47.9167 37.1072,46.5976 38.9516,44.4471L 42.1315,50.3796L 59.1875,46.7292L 55,57L 17,57L 17,34C 17,26.1299 23.1299,19 31,19L 55,19L 55,27.75C 54.245,27.5365 53.7817,27.3333 52.9583,27.3333L 52,27.5L 52,22L 31,22C 24.8788,22 20,27.8788 20,34L 20,54L 35.5,54L 29.8958,51.875 Z M 42.0778,36.9222L 42.1666,36.8334L 57.8314,45.3418L 42.8791,48.3125L 40.1927,42.7109C 41.1818,41.0435 41.8479,39.0675 42.0778,36.9222 Z M 52.4583,28.9167C 56.3933,28.9167 59.5833,32.1067 59.5833,36.0417C 59.5833,38.761 58.06,41.1244 55.8201,42.3253L 45.3746,36.6517L 45.3333,36.0417C 45.3333,32.1067 48.5233,28.9167 52.4583,28.9167 Z M 55.6249,34.0626L 52.8541,36.0417L 50.4791,31.2917L 49.2916,32.875L 52.8541,38.0208L 56.4166,35.6459L 55.6249,34.0626 Z "/>
</svg>
