<?xml version="1.0" encoding="utf-8"?>
<!DOCTYPE svg PUBLIC "-//W3C//DTD SVG 1.1//EN" "http://www.w3.org/Graphics/SVG/1.1/DTD/svg11.dtd">
<svg xmlns="http://www.w3.org/2000/svg" xmlns:xlink="http://www.w3.org/1999/xlink" version="1.1" baseProfile="full" width="76" height="76" viewBox="0 0 76.00 76.00" enable-background="new 0 0 76.00 76.00" xml:space="preserve">
	<path fill="#000000" fill-opacity="1" stroke-linejoin="round" d="M 26,42C 27.1737,42 28.2799,42.3095 29.2514,42.8564L 33.538,38.5699L 36.9626,42.1932L 32.4905,46.6858C 32.8191,47.5548 33,48.5048 33,49.5C 33,53.6421 29.866,57 26,57C 22.134,57 19,53.6421 19,49.5C 19,45.3579 22.134,42 26,42 Z M 26,45C 23.7908,45 22,47.0147 22,49.5C 22,51.9853 23.7908,54 26,54C 28.2091,54 30,51.9853 30,49.5C 30,47.0147 28.2091,45 26,45 Z M 50,42C 53.866,42 57,45.3579 57,49.5C 57,53.6421 53.866,57 50,57C 46.134,57 43,53.6421 43,49.5C 43,48.5055 43.1807,47.5562 43.5087,46.6877C 37.4037,40.5816 31.3813,34.5251 28.1357,30.1361C 24.7905,25.6125 24.3953,22.8602 24,20.1079L 46.7486,42.8564C 47.7201,42.3095 48.8263,42 50,42 Z M 50,45C 47.7908,45 46,47.0147 46,49.5C 46,51.9853 47.7908,54 50,54C 52.2091,54 54,51.9853 54,49.5C 54,47.0147 52.2091,45 50,45 Z M 47.8643,30.1361C 46.4839,32.0028 44.6012,34.1712 42.4235,36.5166L 41.9416,36.0347C 43.8801,33.9052 45.5581,31.9333 46.8205,30.213C 49.9109,26.0015 50.51,23.7154 50.8952,21.2126L 52,20.1079C 51.6047,22.8602 51.2095,25.6125 47.8643,30.1361 Z M 39.0074,33.1005L 50.2564,21.8515C 49.8163,23.9301 48.9562,26.0005 46.4256,29.4492C 45.0997,31.2561 43.5411,33.3404 41.5003,35.5935L 39.0074,33.1005 Z M 35.8034,42.4922L 35.3653,42.0251L 31.9263,45.5067C 32.0391,45.6984 32.1441,45.8961 32.2406,46.099L 35.8034,42.4922 Z "/>
</svg>
