<?xml version="1.0" encoding="utf-8"?>
<!DOCTYPE svg PUBLIC "-//W3C//DTD SVG 1.1//EN" "http://www.w3.org/Graphics/SVG/1.1/DTD/svg11.dtd">
<svg xmlns="http://www.w3.org/2000/svg" xmlns:xlink="http://www.w3.org/1999/xlink" version="1.1" baseProfile="full" width="76" height="76" viewBox="0 0 76.00 76.00" enable-background="new 0 0 76.00 76.00" xml:space="preserve">
	<path fill="#000000" fill-opacity="1" stroke-width="0.2" stroke-linejoin="round" d="M 26,57L 19,57L 19,50L 23,50C 24.6568,50 26,51.3432 26,53L 26,57 Z M 23.5,45C 27.6421,45 31,48.3579 31,52.5L 30.9836,53L 28.9776,53L 29,52.5C 29,49.4625 26.5375,47 23.5,47L 23,47.0224L 23,45.0164L 23.5,45 Z M 43.5,19C 45.433,19 47,20.567 47,22.5C 47,24.433 45.433,26 43.5,26C 41.567,26 40,24.433 40,22.5C 40,20.567 41.567,19 43.5,19 Z M 36.75,55.2209L 38.4647,47.154C 38.5041,46.9684 38.8109,46.0471 39.0207,45.797L 44.23,39.5889L 42.7531,32.7419L 41.5158,35.3954C 41.1532,36.1029 40.9041,36.3981 40.5494,36.5486L 35.6391,38.633C 35.0036,38.9027 34.2698,38.6062 34,37.9708C 33.7303,37.3353 34.0268,36.6015 34.6623,36.3317L 39.2256,34.3947L 39.25,34.3389L 42.0009,28.4396C 42.25,27 43.6744,26.2501 45.375,26.2501C 46.3083,26.2501 47.6237,26.9014 47.6984,26.9412L 54.4861,30.5655C 54.9024,30.7878 55.2031,31.8095 55.2193,31.8935L 56.25,37.2419C 56.3807,37.9198 55.937,38.5752 55.2592,38.7058C 54.5813,38.8365 53.9258,38.3929 53.7952,37.715L 52.7889,32.4934L 49.0335,30.4882C 50.0263,34.7979 50.6748,37.8357 50.7209,38.1631L 51.7517,46.3058L 57,54.4163C 57.4512,55.1111 57.2537,56.0401 56.5589,56.4913C 55.8642,56.9425 54.9352,56.745 54.484,56.0502L 49.4543,48.3053C 49.309,48.0815 48.8287,47.0638 48.7809,46.7234L 47.9905,41.0999L 46.5403,41.5027L 41.4263,47.5974L 41.3991,47.7778L 39.6845,55.8446C 39.5122,56.655 38.7157,57.1722 37.9054,57C 37.0951,56.8277 36.5778,56.0312 36.75,55.2209 Z M 24,40C 30.6274,40 36,45.3726 36,52L 35.9589,53L 33.9506,53L 34,52C 34,46.4772 29.5228,42 24,42L 23,42.0494L 23,40.0411L 24,40 Z M 24,37L 23,37.0328L 23,35.0289L 24,35C 26.7823,35 29.4086,35.6684 31.7269,36.8535C 31.5807,37.2067 31.5,37.5939 31.5,38C 31.5,38.4031 31.5795,38.7876 31.7237,39.1387C 29.4676,37.7809 26.825,37 24,37 Z M 38.8398,43.7003L 37.4761,45.4049C 36.6559,43.7321 35.5335,42.2345 34.1799,40.9831L 34.5,41C 35.2089,41 35.8605,40.7541 36.3739,40.3429C 37.3261,41.3533 38.156,42.4804 38.8398,43.7003 Z "/>
</svg>
