<?xml version="1.0" encoding="utf-8"?>
<!DOCTYPE svg PUBLIC "-//W3C//DTD SVG 1.1//EN" "http://www.w3.org/Graphics/SVG/1.1/DTD/svg11.dtd">
<svg xmlns="http://www.w3.org/2000/svg" xmlns:xlink="http://www.w3.org/1999/xlink" version="1.1" baseProfile="full" width="76" height="76" viewBox="0 0 76.00 76.00" enable-background="new 0 0 76.00 76.00" xml:space="preserve">
	<path fill="#000000" fill-opacity="1" stroke-width="0.2" stroke-linejoin="round" d="M 37,19L 38,19C 48.4934,19 57,27.5066 57,38L 57,39C 57,39.5523 56.5523,40 56,40C 55.4477,40 55,39.5523 55,39L 55,38C 55,28.6112 47.3888,21 38,21L 37,21C 36.4477,21 36,20.5523 36,20C 36,19.4477 36.4477,19 37,19 Z M 23.1905,51.1429L 24,51.25L 24,37L 39,34L 39,51C 39,52.578 37.2944,53.8572 35.1905,53.8572C 33.0865,53.8572 31.3809,52.578 31.3809,51C 31.3809,49.4221 33.0865,48.1429 35.1905,48.1429L 36.1428,48.2329L 36,37.5L 27,39.25L 27,54C 27,55.578 25.2944,56.8571 23.1905,56.8571C 21.0865,56.8571 19.3809,55.578 19.3809,54C 19.3809,52.4221 21.0865,51.1429 23.1905,51.1429 Z M 38,24.0001C 45.7319,24.0001 51.9999,30.2681 51.9999,38L 52,39C 52,39.5523 51.5523,40 51,40C 50.4477,40 50,39.5523 50,39L 49.9999,38C 49.9999,31.3727 44.6273,26.0001 38,26.0001L 37,26C 36.4477,26 36,25.5523 36,25C 36,24.4477 36.4477,24 37,24L 38,24.0001 Z M 38,29C 42.9705,29 47,33.0295 47,38L 47,39C 47,39.5523 46.5523,40 46,40C 45.4477,40 45,39.5523 45,39L 44.9999,38C 44.9999,34.134 41.866,31.0001 38,31.0001L 37,31C 36.4477,31 36,30.5523 36,30C 36,29.4477 36.4477,29 37,29L 38,29 Z "/>
</svg>
