<?xml version="1.0" encoding="utf-8"?>
<!DOCTYPE svg PUBLIC "-//W3C//DTD SVG 1.1//EN" "http://www.w3.org/Graphics/SVG/1.1/DTD/svg11.dtd">
<svg xmlns="http://www.w3.org/2000/svg" xmlns:xlink="http://www.w3.org/1999/xlink" version="1.1" baseProfile="full" width="76" height="76" viewBox="0 0 76.00 76.00" enable-background="new 0 0 76.00 76.00" xml:space="preserve">
	<path fill="#000000" fill-opacity="1" stroke-width="0.2" stroke-linejoin="round" d="M 22,17L 54,17C 56.6233,17 59,19.3767 59,22L 59,54C 59,56.6234 56.6233,59 54,59L 22,59C 19.3766,59 17,56.6234 17,54L 17,22C 17,19.3767 19.3766,17 22,17 Z M 51.4583,47.5L 49.0833,49.0833L 49.0833,49.875L 50.6667,49.875L 50.6667,55.4167L 52.25,55.4167L 52.25,48.2917C 52.25,47.8544 51.8956,47.5 51.4583,47.5 Z M 31.8235,49.0833L 34.7146,49.0833L 34.7146,40.2167L 35.3717,40.2167C 36.1082,40.2167 36.6427,40.3006 36.9754,40.4684C 37.308,40.6361 37.6235,40.9425 37.922,41.3873L 39.5154,44.5253L 41.6385,49.0833L 45.7535,49.0833L 43.8356,44.9548C 43.0663,43.3015 42.4565,42.1478 42.0061,41.4936C 41.5557,40.8393 40.9869,40.2367 40.2998,39.6856C 41.6221,39.4239 42.6426,38.7851 43.3613,37.7691C 44.08,36.7531 44.4393,35.4139 44.4393,33.7514C 44.4393,32.4368 44.208,31.3077 43.7453,30.364C 43.2826,29.4204 42.6919,28.7577 41.9732,28.376C 41.2546,27.9942 40.0575,27.8033 38.3819,27.8033L 31.8235,27.8033L 31.8235,49.0833 Z M 34.7146,36.67L 34.7146,31.35L 37.3593,31.35C 38.8706,31.35 39.785,31.4023 40.1026,31.507C 40.5462,31.661 40.898,31.9403 41.1581,32.3452C 41.4181,32.75 41.5482,33.2865 41.5482,33.9546C 41.5482,34.6504 41.4181,35.2076 41.1581,35.6263C 40.898,36.045 40.5592,36.3237 40.1416,36.4622C 39.7241,36.6007 38.7502,36.67 37.2197,36.67L 34.7146,36.67 Z "/>
</svg>
