<?xml version="1.0" encoding="utf-8"?>
<!DOCTYPE svg PUBLIC "-//W3C//DTD SVG 1.1//EN" "http://www.w3.org/Graphics/SVG/1.1/DTD/svg11.dtd">
<svg xmlns="http://www.w3.org/2000/svg" xmlns:xlink="http://www.w3.org/1999/xlink" version="1.1" baseProfile="full" width="76" height="76" viewBox="0 0 76.00 76.00" enable-background="new 0 0 76.00 76.00" xml:space="preserve">
	<path fill="#000000" fill-opacity="1" stroke-width="0.2" stroke-linejoin="round" d="M 42.5,22C 49.4036,22 55,27.5964 55,34.5C 55,41.4036 49.4036,47 42.5,47C 40.1356,47 37.9245,46.3435 36,45.2426L 26.9749,54.2678C 25.8033,55.4393 23.9038,55.4393 22.7322,54.2678C 21.5607,53.0962 21.5607,51.1967 22.7322,50.0251L 31.7971,40.961C 31.2426,40.0444 30.8025,39.0508 30.4966,38L 34.7517,38C 36.0857,40.9485 39.0533,43 42.5,43C 47.1944,43 51,39.1944 51,34.5C 51,29.8056 47.1944,26 42.5,26C 41.0525,26 39.6894,26.3619 38.4965,27L 32.4991,27C 34.7796,23.9639 38.4104,22 42.5,22 Z M 43,30.802L 43,37.802C 43,37.802 40.9891,35.9999 38.9945,36L 28,36L 28,40.25L 20.25,32.5001L 28,24.75L 28,29L 39,29C 41,29 43,30.802 43,30.802 Z "/>
</svg>
