<?xml version="1.0" encoding="utf-8"?>
<!DOCTYPE svg PUBLIC "-//W3C//DTD SVG 1.1//EN" "http://www.w3.org/Graphics/SVG/1.1/DTD/svg11.dtd">
<svg xmlns="http://www.w3.org/2000/svg" xmlns:xlink="http://www.w3.org/1999/xlink" version="1.1" baseProfile="full" width="76" height="76" viewBox="0 0 76.00 76.00" enable-background="new 0 0 76.00 76.00" xml:space="preserve">
	<path fill="#000000" fill-opacity="1" stroke-linejoin="round" d="M 38.7132,57C 34.0635,57 29.8124,55.3013 26.5265,52.4907L 18.4363,53.5955L 21.5618,45.8822C 20.4736,43.4797 19.8631,40.8134 19.8631,38C 19.8631,27.5078 28.3023,19 38.7132,19C 49.1231,19 57.5637,27.5078 57.5637,38C 57.5637,48.495 49.1245,57 38.7132,57 Z M 49.0063,37.9451L 49.0063,37.8927C 49.0063,32.4101 45.1401,28.5 38.4729,28.5L 31.2736,28.5L 31.2736,47.5L 38.367,47.5C 45.0852,47.5014 49.0063,43.4277 49.0063,37.9451 Z M 38.5524,42.8323L 36.4469,42.8323L 36.4469,33.1701L 38.5524,33.1701C 41.6462,33.1701 43.6996,34.9336 43.6996,37.9754L 43.6996,38.0274C 43.6996,41.0952 41.6462,42.8323 38.5524,42.8323 Z "/>
</svg>
