<?xml version="1.0" encoding="utf-8"?>
<!DOCTYPE svg PUBLIC "-//W3C//DTD SVG 1.1//EN" "http://www.w3.org/Graphics/SVG/1.1/DTD/svg11.dtd">
<svg xmlns="http://www.w3.org/2000/svg" xmlns:xlink="http://www.w3.org/1999/xlink" version="1.1" baseProfile="full" width="76" height="76" viewBox="0 0 76.00 76.00" enable-background="new 0 0 76.00 76.00" xml:space="preserve">
	<path fill="#000000" fill-opacity="1" stroke-width="0.2" stroke-linejoin="round" d="M 38,29.6875C 41.1667,19 55.4167,24.9375 55.4167,24.9375L 55.4166,26.9167L 55.4166,28.0757L 58.5833,27.3126L 58.5832,51.4584C 58.5832,51.4584 41.1666,52.25 38,57.7917C 34.8333,52.25 17.4166,51.4584 17.4166,51.4584L 17.4166,27.3125L 20.5833,28.0756L 20.5833,26.9167L 20.5833,24.9376C 20.5833,24.9376 34.8333,19 38,29.6875 Z M 53.8332,47.1254L 53.8333,27.3621C 49.0833,26.9167 44.3333,23.75 38.7917,31.3362L 38.7916,52.2157C 41.5173,48.8057 49.4097,48.4284 53.8332,47.1254 Z M 22.1666,27.3621L 22.1666,47.1254C 26.5901,48.4284 34.4825,48.8057 37.2083,52.2157L 37.2083,31.3362C 31.6667,23.75 26.9167,26.9167 22.1666,27.3621 Z "/>
</svg>
