<?xml version="1.0" encoding="utf-8"?>
<!DOCTYPE svg PUBLIC "-//W3C//DTD SVG 1.1//EN" "http://www.w3.org/Graphics/SVG/1.1/DTD/svg11.dtd">
<svg xmlns="http://www.w3.org/2000/svg" xmlns:xlink="http://www.w3.org/1999/xlink" version="1.1" baseProfile="full" width="76" height="76" viewBox="0 0 76.00 76.00" enable-background="new 0 0 76.00 76.00" xml:space="preserve">
	<path fill="#000000" fill-opacity="1" stroke-width="0.2" stroke-linejoin="round" d="M 40.1547,50.0227C 39.5158,49.6469 38.2335,48.3707 38,47.75C 38,47 38,35 38,35L 47,35L 47,28L 38,28L 38,19L 33.0373,18.964C 32.7941,20.9231 32.3461,22.5402 31.6954,23.8069C 31.0448,25.0778 30.186,26.1629 29.1089,27.0706C 28.0377,27.9742 26.5052,28.7687 25,29.25L 25,35L 30,35L 29.9926,47.8609C 29.9926,49.6005 30.1767,50.9262 30.5436,51.8425C 30.9122,52.7545 31.57,53.62 32.5217,54.4349C 33.4726,55.2372 34.6206,55.8663 35.9675,56.3096C 37.3123,56.7445 38.3471,56.964 40.0998,56.964C 41.6409,56.964 43.0756,56.8078 44.406,56.5038C 45.7343,56.1914 47.3643,55.51 49,54.75L 49,48.75C 47.0806,50.004 45.0047,50.7742 43.0633,50.7742C 41.9715,50.7742 41.0059,50.5251 40.1547,50.0227 Z "/>
</svg>
