<?xml version="1.0" encoding="utf-8"?>
<!DOCTYPE svg PUBLIC "-//W3C//DTD SVG 1.1//EN" "http://www.w3.org/Graphics/SVG/1.1/DTD/svg11.dtd">
<svg xmlns="http://www.w3.org/2000/svg" xmlns:xlink="http://www.w3.org/1999/xlink" version="1.1" baseProfile="full" width="76" height="76" viewBox="0 0 76.00 76.00" enable-background="new 0 0 76.00 76.00" xml:space="preserve">
	<path fill="#000000" fill-opacity="1" stroke-width="0.2" stroke-linejoin="round" d="M 14.25,23.75L 61.75,23.75L 61.75,52.25L 14.25,52.25L 14.25,23.75 Z M 36.6566,43.2617L 35.0647,43.6876L 33.1435,43.8519C 31.2766,43.8323 29.8299,43.3014 28.8036,42.2591C 27.7772,41.2168 27.2569,39.7804 27.2426,37.9501C 27.2815,35.9403 27.8487,34.4401 28.9442,33.4495C 30.0398,32.4589 31.4304,31.9646 33.116,31.9669C 33.8714,31.973 34.5427,32.0414 35.1299,32.1719L 36.6291,32.6385L 37.5074,29.2824C 37.1289,29.083 36.5479,28.9026 35.7646,28.7412C 34.9812,28.5798 34.0435,28.4943 32.9514,28.4848C 30.0824,28.5037 27.7049,29.3502 25.8189,31.0244C 23.9329,32.6987 22.9552,35.0877 22.8858,38.1915C 22.8889,40.826 23.6995,42.9942 25.3178,44.696C 26.936,46.3979 29.3433,47.2784 32.5397,47.3376C 33.6627,47.3267 34.6347,47.2386 35.4558,47.0734C 36.2769,46.9081 36.8784,46.7309 37.2604,46.5416L 36.6566,43.2617 Z M 52.4371,43.2617L 50.8453,43.6876L 48.924,43.8519C 47.0571,43.8323 45.6105,43.3014 44.5841,42.2591C 43.5577,41.2168 43.0374,39.7804 43.0231,37.9501C 43.062,35.9403 43.6292,34.4401 44.7248,33.4495C 45.8203,32.4589 47.2109,31.9646 48.8966,31.9668C 49.6519,31.973 50.3232,32.0414 50.9104,32.1719L 52.4097,32.6385L 53.288,29.2824C 52.9094,29.083 52.3285,28.9026 51.5451,28.7412C 50.7618,28.5798 49.824,28.4943 48.7319,28.4848C 45.8629,28.5037 43.4855,29.3502 41.5995,31.0244C 39.7135,32.6987 38.7358,35.0877 38.6663,38.1915C 38.6694,40.826 39.4801,42.9942 41.0983,44.696C 42.7166,46.3979 45.1239,47.2784 48.3202,47.3376C 49.4432,47.3267 50.4153,47.2386 51.2364,47.0734C 52.0575,46.9081 52.659,46.7309 53.041,46.5416L 52.4371,43.2617 Z "/>
</svg>
