<?xml version="1.0" encoding="utf-8"?>
<!DOCTYPE svg PUBLIC "-//W3C//DTD SVG 1.1//EN" "http://www.w3.org/Graphics/SVG/1.1/DTD/svg11.dtd">
<svg xmlns="http://www.w3.org/2000/svg" xmlns:xlink="http://www.w3.org/1999/xlink" version="1.1" baseProfile="full" width="76" height="76" viewBox="0 0 76.00 76.00" enable-background="new 0 0 76.00 76.00" xml:space="preserve">
	<path fill="#000000" fill-opacity="1" stroke-width="0.2" stroke-linejoin="round" d="M 19,47.5L 22.1667,47.5L 22.1667,52.25L 53.8333,52.25L 53.8333,47.5L 57,47.5L 57,52.25L 57,55.4167L 19,55.4167L 19,52.25L 19,47.5 Z M 27.153,42.7315L 27.153,33.0962L 27.0347,28.5818L 30.8476,28.5818L 31.025,30.512L 31.1137,30.512C 31.4169,30.0198 31.9271,29.5347 32.6443,29.0567C 33.3614,28.5787 34.3448,28.3219 35.5945,28.2863C 36.5538,28.2952 37.3761,28.5128 38.0614,28.939C 38.7467,29.3653 39.2484,29.9466 39.5665,30.6832L 39.6256,30.6832C 40.1815,29.9413 40.7968,29.3706 41.4715,28.9712C 42.2229,28.5289 43.1019,28.3006 44.1084,28.2863C 45.5175,28.2766 46.6718,28.7667 47.5712,29.7567C 48.4706,30.7466 48.9353,32.2942 48.9652,34.3996L 48.9652,42.7315L 44.5907,42.7315L 44.5907,35.036C 44.5925,34.0024 44.4259,33.2056 44.0909,32.6457C 43.7558,32.0858 43.2419,31.8026 42.549,31.796C 42.038,31.8074 41.6139,31.9581 41.2766,32.2479C 40.9393,32.5378 40.6924,32.8982 40.5359,33.3291L 40.3941,34.4574L 40.3941,42.7315L 36.0196,42.7315L 36.0196,34.7757C 36.0228,33.8794 35.8495,33.1622 35.4998,32.624C 35.15,32.0858 34.6049,31.8098 33.8645,31.796C 33.2739,31.8177 32.8009,31.9912 32.4456,32.3166C 32.0902,32.6421 31.8449,32.9892 31.7096,33.3581C 31.573,33.7197 31.5123,34.0958 31.5275,34.4864L 31.5275,42.7315L 27.153,42.7315 Z "/>
</svg>
