<?xml version="1.0" encoding="utf-8"?>
<!DOCTYPE svg PUBLIC "-//W3C//DTD SVG 1.1//EN" "http://www.w3.org/Graphics/SVG/1.1/DTD/svg11.dtd">
<svg xmlns="http://www.w3.org/2000/svg" xmlns:xlink="http://www.w3.org/1999/xlink" version="1.1" baseProfile="full" width="76" height="76" viewBox="0 0 76.00 76.00" enable-background="new 0 0 76.00 76.00" xml:space="preserve">
	<path fill="#000000" fill-opacity="1" stroke-width="0.2" stroke-linejoin="round" d="M 52.25,36.4167L 49.0833,36.4167L 44.3333,36.4167L 44.3333,34.8334L 50.4027,34.8334L 53.0416,26.9167L 55.4166,26.9167L 52.25,36.4167 Z M 60.1666,19L 60.1666,47.1165C 59.0345,46.3587 57.673,45.9167 56.2083,45.9167C 52.2733,45.9167 49.0833,49.1067 49.0833,53.0417C 49.0833,53.8745 49.2262,54.6738 49.4887,55.4167L 45.5112,55.4167C 45.7738,54.6738 45.9166,53.8744 45.9166,53.0417C 45.9166,49.1067 42.7267,45.9167 38.7916,45.9167C 34.8566,45.9167 31.6667,49.1067 31.6667,53.0417C 31.6667,53.8744 31.8095,54.6738 32.0721,55.4167L 30.0833,55.4167L 30.0833,53.8333L 28.5,53.8333L 28.5,55.4167L 25.3333,55.4167L 12.6666,55.4167L 12.6666,52.25L 25.3333,52.25L 25.3333,19.0001L 28.5,19.0001L 28.5,44.3333L 30.0833,44.3333L 30.0833,42.75L 41.1666,19L 60.1666,19 Z M 44.3333,41.1667C 44.3333,39.4178 45.751,38.0001 47.4999,38.0001L 56.9999,38.0001L 56.9999,22.1667L 42.7499,22.1667L 33.25,42.75L 44.3333,42.75L 44.3333,41.1667 Z M 38.7916,47.5C 41.8522,47.5 44.3333,49.9811 44.3333,53.0417C 44.3333,56.1023 41.8522,58.5833 38.7916,58.5833C 35.7311,58.5833 33.25,56.1023 33.25,53.0417C 33.25,49.9811 35.7311,47.5 38.7916,47.5 Z M 56.2083,47.5C 59.2689,47.5 61.75,49.9811 61.75,53.0417C 61.75,56.1023 59.2689,58.5833 56.2083,58.5833C 53.1477,58.5833 50.6666,56.1023 50.6666,53.0417C 50.6666,49.9811 53.1477,47.5 56.2083,47.5 Z "/>
</svg>
