<?xml version="1.0" encoding="utf-8"?>
<!DOCTYPE svg PUBLIC "-//W3C//DTD SVG 1.1//EN" "http://www.w3.org/Graphics/SVG/1.1/DTD/svg11.dtd">
<svg xmlns="http://www.w3.org/2000/svg" xmlns:xlink="http://www.w3.org/1999/xlink" version="1.1" baseProfile="full" width="76" height="76" viewBox="0 0 76.00 76.00" enable-background="new 0 0 76.00 76.00" xml:space="preserve">
	<path fill="#000000" fill-opacity="1" stroke-width="0.2" stroke-linejoin="round" d="M 40.874,51.9409C 41.0523,54.7257 41.5633,57.4933 42.407,60.2438L 33.96,60.2438C 34.639,56.9995 35.15,54.2318 35.493,51.9409L 35.6268,46.3438C 36.052,45.8911 36.4293,45.8911 36.7585,46.3438C 35.8394,47.99 34.8585,49.3344 33.8159,50.377C 32.3344,51.8586 30.1429,52.5993 27.2415,52.5993C 25.1563,52.5993 23.469,51.8586 22.1794,50.377C 20.5264,48.724 19.6999,46.4433 19.6999,43.535C 19.6999,40.2495 22.9271,34.2478 29.3815,25.5298L 38.1783,13.8522L 47.1089,25.4578C 53.481,33.5584 56.6671,39.5842 56.6671,43.535C 56.6671,46.4364 55.8406,48.7171 54.1875,50.377C 52.7059,51.8586 50.9363,52.5993 48.8786,52.5993C 46.1623,52.5993 43.9366,51.8277 42.2012,50.2844C 40.6373,48.7205 39.7731,47.4516 39.6085,46.4776C 39.9514,46.313 40.1229,46.2924 40.1229,46.4159L 40.874,51.9409 Z "/>
</svg>
