<?xml version="1.0" encoding="utf-8"?>
<!DOCTYPE svg PUBLIC "-//W3C//DTD SVG 1.1//EN" "http://www.w3.org/Graphics/SVG/1.1/DTD/svg11.dtd">
<svg xmlns="http://www.w3.org/2000/svg" xmlns:xlink="http://www.w3.org/1999/xlink" version="1.1" baseProfile="full" width="76" height="76" viewBox="0 0 76.00 76.00" enable-background="new 0 0 76.00 76.00" xml:space="preserve">
	<path fill="#000000" fill-opacity="1" stroke-width="0.2" stroke-linejoin="round" d="M 57.03,34.884C 56.5875,34.8713 52.5646,34.4871 52.0419,34.3858L 52.1035,44.9793L 54.3801,45.1651M 54.4848,46.8709L 53.1738,46.8076L 51.7113,46.6302L 51.7231,49.1383L 52.877,49.2354L 54.1205,49.3282M 49.639,32.1649C 48.7089,32.414 40.2015,39.0133 39.6408,40.6305C 39.5171,41.192 39.653,46.6133 39.7767,47.424C 40.3375,47.5507 44.3844,47.4409 45.1267,47.5675L 45.0381,49.2438C 44.3106,49.1847 39.1678,49.1973 36.2339,49.1973C 34.7426,49.1973 29.9491,49.362 28.4768,49.3198L 28.7555,47.7238C 29.5636,47.6647 32.9059,47.8758 33.6389,47.0947C 34.0033,46.7062 33.8889,41.5509 33.7651,40.6811C 33.4556,39.748 26.0005,30.4084 24.0519,28.8758L 19.03,28.8758L 19.03,26.5282L 35.9649,26.5282L 35.9649,26.6887L 36.0223,26.6971L 35.9649,27.094L 35.9649,28.8758L 30.8586,28.8758C 33.1348,32.2029 36.3981,36.2224 37.7898,38.152L 44.6103,31.9749L 40.5566,31.9749L 39.9853,29.6273L 54.837,29.6273L 54.7272,29.7962L 54.7796,29.7962L 53.7185,31.3373L 53.6847,31.3416L 53.257,31.9749L 50.5172,31.9749C 50.1621,32.0509 49.8501,32.1227 49.639,32.1649 Z "/>
</svg>
