<?xml version="1.0" encoding="utf-8"?>
<!DOCTYPE svg PUBLIC "-//W3C//DTD SVG 1.1//EN" "http://www.w3.org/Graphics/SVG/1.1/DTD/svg11.dtd">
<svg xmlns="http://www.w3.org/2000/svg" xmlns:xlink="http://www.w3.org/1999/xlink" version="1.1" baseProfile="full" width="76" height="76" viewBox="0 0 76.00 76.00" enable-background="new 0 0 76.00 76.00" xml:space="preserve">
	<path fill="#000000" fill-opacity="1" stroke-width="0.2" stroke-linejoin="round" d="M 50.4479,16.198C 52.152,15.8045 53.8523,16.867 54.2458,18.5711L 56.0266,26.2849L 18.9996,34.8332L 17.2188,27.1195C 16.8254,25.4154 17.8879,23.715 19.592,23.3216L 50.4479,16.198 Z M 53.8337,55.4167L 22.1662,55.4167C 20.4173,55.4167 18.9996,53.9989 18.9996,52.25L 18.9996,34.8333L 57,34.8333L 57.0004,52.25C 57.0004,53.9989 55.5826,55.4167 53.8337,55.4167 Z M 47.5,58.5834C 49.2489,58.5834 50.6666,60.0011 50.6666,61.75C 50.6666,63.4989 49.2489,64.9167 47.5,64.9167C 45.7511,64.9167 44.3333,63.4989 44.3333,61.75C 44.3333,60.0011 45.7511,58.5834 47.5,58.5834 Z M 38,58.5834C 39.7489,58.5834 41.1666,60.0011 41.1666,61.75C 41.1666,63.4989 39.7489,64.9167 38,64.9167C 36.2511,64.9167 34.8333,63.4989 34.8333,61.75C 34.8333,60.0011 36.2511,58.5834 38,58.5834 Z M 28.5,58.5833C 30.2489,58.5833 31.6667,60.0011 31.6667,61.75C 31.6667,63.4989 30.2489,64.9167 28.5,64.9167C 26.7511,64.9167 25.3333,63.4989 25.3333,61.75C 25.3333,60.0011 26.7511,58.5833 28.5,58.5833 Z "/>
</svg>
