<?xml version="1.0" encoding="utf-8"?>
<!DOCTYPE svg PUBLIC "-//W3C//DTD SVG 1.1//EN" "http://www.w3.org/Graphics/SVG/1.1/DTD/svg11.dtd">
<svg xmlns="http://www.w3.org/2000/svg" xmlns:xlink="http://www.w3.org/1999/xlink" version="1.1" baseProfile="full" width="76" height="76" viewBox="0 0 76.00 76.00" enable-background="new 0 0 76.00 76.00" xml:space="preserve">
	<path fill="#000000" fill-opacity="1" stroke-width="0.2" stroke-linejoin="round" d="M 39.9613,55.1139L 38.8735,46.0645C 38.4959,45.4799 38.7414,44.7493 38.9093,44.0173L 43.5995,36.9029L 43.2188,36.1805L 41.1667,32.4583L 36.5067,36.4036C 36.3531,36.5149 36.189,36.6013 36.0192,36.6634L 31.8283,45.2561C 33.6706,48.1726 33.6706,57 33.6706,57L 16.2539,57C 14.6706,49.0833 17.8372,47.5 17.8372,47.5C 16.2539,45.9167 19.4206,41.1667 19.4206,41.1667C 21.0039,36.4167 24.1706,39.5833 24.1706,39.5833C 25.7539,38 27.3372,39.5833 27.3372,39.5833C 28.5356,39.5833 29.7339,42.3043 30.2458,43.6274L 33.8842,36.1676C 33.8217,36.1022 33.7628,36.0318 33.7082,35.9564C 33.059,35.0602 33.2592,33.8073 34.1554,33.158L 39.5833,28.5L 39.4447,25.5925C 39.5948,24.1661 40.5077,22.8674 41.9303,22.2926C 43.9826,21.4634 46.3184,22.455 47.1476,24.5072L 50.6508,33.1779L 50.9025,34.1072L 54.4377,45.5123L 54.4525,45.9183L 60.8338,51.4192C 62.047,52.2593 61.9536,53.9237 61.1135,55.1369C 60.2735,56.3501 59.0048,56.2567 57.7917,55.4167L 52.2021,50.3116L 51.1407,49.2559C 50.8403,49.0479 50.578,47.9829 50.3767,47.65L 47.5,40.375L 43.9375,45.5208L 45.2652,54.4627C 45.4451,55.9273 44.4035,57.2604 42.9389,57.4403C 41.4742,57.6201 40.1411,56.5786 39.9613,55.1139 Z M 39.7214,13.2592C 41.7737,12.43 44.1095,13.4215 44.9387,15.4738C 45.7679,17.5261 44.7764,19.862 42.7241,20.6911C 40.6718,21.5203 38.3359,20.5288 37.5068,18.4765C 36.6776,16.4242 37.6691,14.0883 39.7214,13.2592 Z "/>
</svg>
