<?xml version="1.0" encoding="utf-8"?>
<!DOCTYPE svg PUBLIC "-//W3C//DTD SVG 1.1//EN" "http://www.w3.org/Graphics/SVG/1.1/DTD/svg11.dtd">
<svg xmlns="http://www.w3.org/2000/svg" xmlns:xlink="http://www.w3.org/1999/xlink" version="1.1" baseProfile="full" width="76" height="76" viewBox="0 0 76.00 76.00" enable-background="new 0 0 76.00 76.00" xml:space="preserve">
	<path fill="#000000" fill-opacity="1" stroke-width="0.2" stroke-linejoin="round" d="M 12.255,50.6784C 11.7525,50.749 11.2879,50.3989 11.2173,49.8964L 10.45,44.4371C 10.2485,43.003 10.9036,41.646 12.0257,40.8835L 14.2469,31.8415L 15.1568,31.7136L 16.9765,31.4579L 26.0753,30.1791L 27.895,29.9234L 28.8049,29.7955L 33.4324,37.875C 34.7211,38.2987 35.725,39.4225 35.9265,40.8567L 36.6938,46.3159C 36.7644,46.8184 36.4143,47.283 35.9118,47.3537L 35.0019,47.4815L 35.258,49.3013C 35.3989,50.3063 34.6987,51.2355 33.6937,51.3768C 32.6886,51.518 31.7594,50.8178 31.6182,49.8128L 31.3624,47.993L 16.8044,50.039L 17.0601,51.8588C 17.2014,52.8638 16.5012,53.793 15.4961,53.9343C 14.4911,54.0755 13.5619,53.3753 13.4206,52.3703L 13.1649,50.5505L 12.255,50.6784 Z M 14.8518,40.1072L 30.5017,37.9077L 27.5507,32.7553L 16.2683,34.341L 14.8518,40.1072 Z M 14.9391,41.7186C 13.9341,41.8598 13.0384,43.0485 13.1796,44.0535C 13.3209,45.0585 14.5096,45.9543 15.5146,45.813C 16.5196,45.6718 17.4153,44.4831 17.2741,43.4781C 17.1328,42.4731 15.9442,41.5774 14.9391,41.7186 Z M 30.862,39.4808C 29.8569,39.622 28.9612,40.8107 29.1025,41.8157C 29.2437,42.8207 30.4324,43.7165 31.4374,43.5752C 32.4424,43.434 33.3382,42.2453 33.1969,41.2403C 33.0557,40.2353 31.867,39.3395 30.862,39.4808 Z M 40.0882,47.2143C 39.5857,47.1437 39.2356,46.6791 39.3062,46.1766L 40.0735,40.7173C 40.275,39.2832 41.2789,38.1593 42.5677,37.7357L 47.1951,29.6562L 48.105,29.7841L 49.9247,30.0398L 59.0235,31.3186L 60.8433,31.5743L 61.7531,31.7022L 63.9743,40.7442C 65.0964,41.5067 65.7516,42.8637 65.55,44.2978L 64.7828,49.7571C 64.7121,50.2596 64.2475,50.6097 63.745,50.5391L 62.8351,50.4112L 62.5794,52.2309C 62.4381,53.236 61.5089,53.9362 60.5039,53.795C 59.4989,53.6537 58.7986,52.7245 58.9399,51.7194L 59.1956,49.8997L 44.6376,47.8537L 44.3819,49.6735C 44.2406,50.6785 43.3114,51.3787 42.3064,51.2375C 41.3013,51.0962 40.6011,50.167 40.7424,49.1619L 40.9981,47.3422L 40.0882,47.2143 Z M 45.4983,37.7684L 61.1482,39.9678L 59.7317,34.2016L 48.4493,32.616L 45.4983,37.7684 Z M 45.138,39.3415C 44.133,39.2002 42.9444,40.0959 42.8031,41.101C 42.6619,42.106 43.5576,43.2946 44.5626,43.4359C 45.5676,43.5771 46.7563,42.6814 46.8975,41.6764C 47.0388,40.6714 46.1431,39.4827 45.138,39.3415 Z M 61.0609,41.5793C 60.0559,41.438 58.8672,42.3337 58.7259,43.3388C 58.5847,44.3438 59.4804,45.5324 60.4854,45.6737C 61.4905,45.8149 62.6791,44.9192 62.8204,43.9142C 62.9616,42.9092 62.0659,41.7205 61.0609,41.5793 Z M 28.5,19L 31.6667,17.4167L 34.8333,34.8334L 28.5,19 Z M 36.0208,17.4167L 39.1875,17.4167L 36.4167,34.8333L 36.0208,17.4167 Z M 44.3333,19L 47.5,20.5833L 39.5833,36.4167L 44.3333,19 Z "/>
</svg>
