<?xml version="1.0" encoding="utf-8"?>
<!DOCTYPE svg PUBLIC "-//W3C//DTD SVG 1.1//EN" "http://www.w3.org/Graphics/SVG/1.1/DTD/svg11.dtd">
<svg xmlns="http://www.w3.org/2000/svg" xmlns:xlink="http://www.w3.org/1999/xlink" version="1.1" baseProfile="full" width="76" height="76" viewBox="0 0 76.00 76.00" enable-background="new 0 0 76.00 76.00" xml:space="preserve">
	<g>
		<path fill="#000000" fill-opacity="1" stroke-width="0.2" stroke-linejoin="round" d="M 17.4531,49.3673C 18.1779,49.7892 19.1686,50.1604 20.4251,50.481C 21.6816,50.8017 23.049,50.9704 24.5272,50.9873C 28.082,50.9224 30.689,50.1265 32.3481,48.5996C 34.0073,47.0728 34.8278,45.2043 34.8096,42.9943C 34.8178,41.2126 34.2999,39.7069 33.256,38.4774C 32.2122,37.2479 30.5932,36.2237 28.399,35.4048C 26.6544,34.8117 25.3837,34.261 24.5871,33.7528C 23.7904,33.2447 23.3979,32.5996 23.4096,31.8177C 23.4079,31.1538 23.7306,30.5842 24.3775,30.1089C 25.0245,29.6336 26.0058,29.385 27.3213,29.3629C 28.5876,29.3826 29.6625,29.5227 30.5458,29.7832C 31.4291,30.0437 32.1088,30.3065 32.5849,30.5717L 33.8247,25.9904C 33.1039,25.683 32.2208,25.4188 31.1757,25.1976C 30.1305,24.9765 28.8723,24.8608 27.4012,24.8504C 24.3276,24.8929 21.9568,25.5994 20.289,26.97C 18.6212,28.3405 17.7772,30.12 17.7571,32.3086C 17.7822,34.1477 18.4066,35.6801 19.6302,36.9057C 20.8539,38.1313 22.5261,39.1162 24.647,39.8603C 26.2494,40.3716 27.4052,40.8971 28.1145,41.4368C 28.8237,41.9764 29.1712,42.634 29.1571,43.4096C 29.1538,44.2514 28.7913,44.9184 28.0696,45.4109C 27.3479,45.9033 26.2868,46.155 24.8865,46.166C 23.6225,46.1495 22.4441,45.9843 21.3513,45.6705C 20.2584,45.3566 19.3399,44.9932 18.5958,44.5802L 17.4531,49.3673 Z "/>
		<path fill="#000000" fill-opacity="1" stroke-width="0.2" stroke-linejoin="round" d="M 37.8971,50.6437C 39.2584,50.8649 41.4069,50.9913 44.3426,51.0229C 46.8472,51.0253 49.0983,50.7551 51.0959,50.2123C 53.0936,49.6696 54.7651,48.8401 56.1105,47.7238C 57.3329,46.6734 58.3259,45.2711 59.0893,43.5171C 59.8527,41.763 60.2462,39.632 60.2696,37.1241C 60.2555,34.8074 59.8715,32.8392 59.1174,31.2195C 58.3633,29.5998 57.3236,28.3245 55.9981,27.3936C 54.8159,26.546 53.3833,25.9102 51.7003,25.4863C 50.0173,25.0624 47.9675,24.8504 45.5511,24.8504C 44.1123,24.8526 42.7398,24.9013 41.4335,24.9963C 40.1273,25.0913 38.9484,25.2194 37.8971,25.3805L 37.8971,50.6437 Z M 43.5496,29.2177C 44.0405,29.0811 44.9091,29.0028 46.1553,28.9829C 48.673,28.9895 50.6431,29.6972 52.0656,31.1061C 53.4881,32.5151 54.2119,34.586 54.2371,37.3188C 54.2032,40.4475 53.4117,42.768 51.8626,44.2803C 50.3134,45.7925 48.2096,46.5359 45.5511,46.5104C 45.201,46.5129 44.8438,46.508 44.4795,46.4958C 44.1153,46.4836 43.8053,46.4496 43.5496,46.3936L 43.5496,29.2177 Z "/>
	</g>
</svg>
