<?xml version="1.0" encoding="utf-8"?>
<!DOCTYPE svg PUBLIC "-//W3C//DTD SVG 1.1//EN" "http://www.w3.org/Graphics/SVG/1.1/DTD/svg11.dtd">
<svg xmlns="http://www.w3.org/2000/svg" xmlns:xlink="http://www.w3.org/1999/xlink" version="1.1" baseProfile="full" width="76" height="76" viewBox="0 0 76.00 76.00" enable-background="new 0 0 76.00 76.00" xml:space="preserve">
	<path fill="#000000" fill-opacity="1" stroke-width="0.2" stroke-linejoin="round" d="M 30.875,43.9375C 30.875,43.9375 24.9375,38 24.9375,33.25C 24.9375,28.5 26.5208,25.3333 28.1042,19C 28.1042,19 35.2292,22.1667 35.2292,30.0833C 35.2292,38 30.875,43.9375 30.875,43.9375 Z M 19,57L 35.2292,40.375C 35.2292,40.375 38.6632,31.0035 41.1667,28.5C 44.3333,25.3333 48.2917,25.3333 56.2083,25.3334C 56.2083,25.3334 53.1508,32.6905 50.6667,36.4167C 47.5,41.1667 36.0208,40.7709 36.0208,40.7709L 20.5833,58.5833L 19,57 Z M 58.2757,47.6184C 58.2757,47.6184 49.608,51.9389 45.6626,51.172C 41.7173,50.4051 38.1691,47.7664 33.1642,45.4287C 33.1643,45.4287 40.603,41.1012 47.1787,42.3794C 53.7543,43.6575 58.2757,47.6184 58.2757,47.6184 Z "/>
</svg>
