<?xml version="1.0" encoding="utf-8"?>
<!DOCTYPE svg PUBLIC "-//W3C//DTD SVG 1.1//EN" "http://www.w3.org/Graphics/SVG/1.1/DTD/svg11.dtd">
<svg xmlns="http://www.w3.org/2000/svg" xmlns:xlink="http://www.w3.org/1999/xlink" version="1.1" baseProfile="full" width="76" height="76" viewBox="0 0 76.00 76.00" enable-background="new 0 0 76.00 76.00" xml:space="preserve">
	<path fill="#000000" fill-opacity="1" stroke-width="0.2" stroke-linejoin="round" d="M 33.25,31.6667L 58.5833,31.6666L 58.5833,36.4166L 33.25,36.4167L 33.25,31.6667 Z M 36.4166,39.5833L 58.5833,39.5833L 58.5833,44.3333L 36.4166,44.3333L 36.4166,39.5833 Z M 33.25,47.5L 58.5833,47.4999L 58.5833,52.25L 33.25,52.25L 33.25,47.5 Z M 23.75,39.5833L 30.0833,39.5833L 30.0833,44.3333L 23.75,44.3333C 18.5033,44.3333 14.25,40.08 14.25,34.8333C 14.25,29.5866 18.5033,25.3333 23.75,25.3333L 25.3333,25.3333L 25.3333,20.5833L 32.4582,27.7083L 25.3333,34.8333L 25.3333,30.0833L 23.75,30.0833C 21.1266,30.0833 19,32.2099 19,34.8333C 19,37.4567 21.1266,39.5833 23.75,39.5833 Z "/>
</svg>
