<?xml version="1.0" encoding="utf-8"?>
<!DOCTYPE svg PUBLIC "-//W3C//DTD SVG 1.1//EN" "http://www.w3.org/Graphics/SVG/1.1/DTD/svg11.dtd">
<svg xmlns="http://www.w3.org/2000/svg" xmlns:xlink="http://www.w3.org/1999/xlink" version="1.1" baseProfile="full" width="76" height="76" viewBox="0 0 76.00 76.00" enable-background="new 0 0 76.00 76.00" xml:space="preserve">
	<path fill="#000000" fill-opacity="1" stroke-width="0.2" stroke-linejoin="round" d="M 34.8334,14.25L 34.8334,20.5834L 57,45.9167L 61.75,45.9167L 61.75,55.4167L 52.25,55.4167L 52.25,52.7998L 25.3333,42.5961L 25.3333,44.3333L 15.8333,44.3333L 15.8333,34.8333L 19.3518,34.8333L 25.3333,22.1667L 25.3334,14.25L 34.8334,14.25 Z M 31.6667,23.7501L 29.3356,23.7501L 24.1018,34.8333L 25.3333,34.8333L 25.3333,37.8461L 52.7226,47.6024L 31.6667,23.7501 Z M 55.4166,52.25L 58.5833,52.25L 58.5833,49.0833L 55.4167,49.0834L 55.4166,52.25 Z M 28.5,20.5834L 31.6667,20.5834L 31.6667,17.4167L 28.5,17.4167L 28.5,20.5834 Z M 22.1667,41.1667L 22.1666,38L 19,38L 19,41.1667L 22.1667,41.1667 Z "/>
</svg>
