<?xml version="1.0" encoding="utf-8"?>
<!DOCTYPE svg PUBLIC "-//W3C//DTD SVG 1.1//EN" "http://www.w3.org/Graphics/SVG/1.1/DTD/svg11.dtd">
<svg xmlns="http://www.w3.org/2000/svg" xmlns:xlink="http://www.w3.org/1999/xlink" version="1.1" baseProfile="full" width="76" height="76" viewBox="0 0 76.00 76.00" enable-background="new 0 0 76.00 76.00" xml:space="preserve">
	<path fill="#000000" fill-opacity="1" stroke-width="0.2" stroke-linejoin="round" d="M 23,19L 53,19C 55.2091,19 57,20.7909 57,23L 57,53C 57,55.2091 55.2091,57 53,57L 23,57C 20.7909,57 19,55.2091 19,53L 19,23C 19,20.7909 20.7909,19 23,19 Z M 26.5,24.0001C 25.1193,24.0001 24,25.1194 24,26.5001L 24,48.5C 24,49.8808 25.1193,51 26.5,51L 32.5,51.0001C 33.8807,51.0001 35,49.8808 35,48.5001L 35,26.5001C 35,25.1194 33.8807,24.0001 32.5,24.0001L 26.5,24.0001 Z M 43.5,24.0001C 42.1193,24.0001 41,25.1194 41,26.5001L 41,38.5C 41,39.8807 42.1193,41 43.5,41L 49.5,41C 50.8807,41 52,39.8807 52,38.5L 52,26.5C 52,25.1193 50.8807,24 49.5,24L 43.5,24.0001 Z "/>
</svg>
