<?xml version="1.0" encoding="utf-8"?>
<!DOCTYPE svg PUBLIC "-//W3C//DTD SVG 1.1//EN" "http://www.w3.org/Graphics/SVG/1.1/DTD/svg11.dtd">
<svg xmlns="http://www.w3.org/2000/svg" xmlns:xlink="http://www.w3.org/1999/xlink" version="1.1" baseProfile="full" width="76" height="76" viewBox="0 0 76.00 76.00" enable-background="new 0 0 76.00 76.00" xml:space="preserve">
	<path fill="#000000" fill-opacity="1" stroke-width="0.2" stroke-linejoin="round" d="M 30,35L 30,41L 28,41L 28,35L 30,35 Z M 30,46L 34,46L 34,48L 28,48L 28,42L 30,42L 30,46 Z M 52,57L 52,63L 49,63L 49,57L 52,57 Z M 49,71L 49.6905,71C 52.2807,70.0824 54.7308,68.8684 57,67.3988L 57,50.6667C 56.996,48.2406 56.0685,45.8002 54.2175,43.9491L 32.0509,21.7825C 30.1998,19.9315 27.7594,19.004 25.3333,19L 8.60115,19C 7.13161,21.2692 5.91764,23.7193 5,26.3095L 5,27L 4.76351,27C 4.65396,27.3312 4.54923,27.6645 4.44939,28L 5,28L 5,34L 3.22607,34C 3.18831,34.332 3.15518,34.6653 3.12677,35L 5,35L 5,41L 3.12677,41C 3.15518,41.3347 3.1883,41.6681 3.22607,42L 5,42L 5,48L 4.44939,48C 4.54923,48.3355 4.65396,48.6688 4.76351,49L 5,49L 5,49.6905C 5.30177,50.5423 5.63559,51.379 6,52.199L 6,49L 12,49L 12,55L 7.3986,55C 7.7777,55.681 8.17888,56.348 8.60115,57L 12,57L 12,61.4312C 12.326,61.7927 12.6594,62.1473 13,62.4949L 13,57L 19,57L 19,63L 13.5051,63C 13.8527,63.3406 14.2073,63.674 14.5688,64L 19,64L 19,67.3988C 19.652,67.8211 20.319,68.2223 21,68.6014L 21,64L 27,64L 27,70L 23.801,70C 24.621,70.3644 25.4577,70.6982 26.3095,71L 27,71L 27,71.2365C 27.3312,71.346 27.6645,71.4508 28,71.5506L 28,71L 34,71L 34,72.7739C 34.3319,72.8117 34.6653,72.8448 35,72.8732L 35,71L 41,71L 41,72.8732C 41.3347,72.8448 41.668,72.8117 42,72.7739L 42,71L 48,71L 48,71.5506C 48.3355,71.4508 48.6688,71.346 49,71.2365L 49,71 Z M 49.0833,44.3334C 46.9296,42.2223 43.8015,41 41,41L 35,41L 35,35C 35,32.3494 33.9059,29.4065 32,27.273L 32,27.2501L 49.0833,44.3334 Z M 6,27L 6,24L 12,24L 12,27L 6,27 Z M 13,27L 13,24L 19,24L 19,27L 13,27 Z M 21,27L 21,24.1776C 23.1503,24.5651 25.0739,25.5677 26.5853,27L 21,27 Z M 28,34L 28,28.6357C 29.0832,30.1729 29.7803,32.0061 29.9562,34L 28,34 Z M 35,48L 35,46L 41,46L 41,48L 35,48 Z M 42,48L 42,46.0438C 43.9939,46.2197 45.8271,46.9168 47.3643,48L 42,48 Z M 49,55L 49,49.4147C 50.4323,50.9261 51.4349,52.8497 51.8224,55L 49,55 Z M 49,64L 52,64L 52,70L 49,70L 49,64 Z M 48,57L 48,63L 42,63L 42,57L 48,57 Z M 42,70L 42,64L 48,64L 48,70L 42,70 Z M 41,57L 41,63L 35,63L 35,57L 41,57 Z M 35,70L 35,64L 41,64L 41,70L 35,70 Z M 34,57L 34,63L 28,63L 28,57L 34,57 Z M 28,70L 28,64L 34,64L 34,70L 28,70 Z M 27,57L 27,63L 21,63L 21,57L 27,57 Z M 19,55L 13,55L 13,49L 19,49L 19,55 Z M 19,48L 13,48L 13,42L 19,42L 19,48 Z M 6,42L 12,42L 12,48L 6,48L 6,42 Z M 19,41L 13,41L 13,35L 19,35L 19,41 Z M 6,35L 12,35L 12,41L 6,41L 6,35 Z M 19,34L 13,34L 13,28L 19,28L 19,34 Z M 6,28L 12,28L 12,34L 6,34L 6,28 Z M 42,49L 48,49L 48,55L 42,55L 42,49 Z M 35,49L 41,49L 41,55L 35,55L 35,49 Z M 28,49L 34,49L 34,55L 28,55L 28,49 Z M 21,34L 21,28.0001L 27,28.0001L 27,34L 21,34 Z M 21,41L 21,35L 27,35L 27,41L 21,41 Z M 21,48L 21,42L 27,42L 27,48L 21,48 Z M 21,55L 21,49L 27,49L 27,55L 21,55 Z "/>
</svg>
