<?xml version="1.0" encoding="utf-8"?>
<!DOCTYPE svg PUBLIC "-//W3C//DTD SVG 1.1//EN" "http://www.w3.org/Graphics/SVG/1.1/DTD/svg11.dtd">
<svg xmlns="http://www.w3.org/2000/svg" xmlns:xlink="http://www.w3.org/1999/xlink" version="1.1" baseProfile="full" width="76" height="76" viewBox="0 0 76.00 76.00" enable-background="new 0 0 76.00 76.00" xml:space="preserve">
	<path fill="#000000" fill-opacity="1" stroke-linejoin="round" d="M 38,19C 42.9706,19 47,23.0294 47,28C 47,30.5642 45.9276,32.878 38,49C 30.0724,32.878 29,30.5642 29,28C 29,23.0294 33.0294,19 38,19 Z M 38,24C 35.7909,24 34,25.7909 34,28C 34,30.2092 35.7909,32 38,32C 40.2091,32 42,30.2092 42,28C 42,25.7909 40.2091,24 38,24 Z M 19,57L 24,42L 31.5,42L 33.5,46L 27.6641,46L 25.3324,53L 50.6676,53L 48.3359,46L 42.5,46L 44.5,42L 52,42L 57,57L 19,57 Z "/>
</svg>
