<?xml version="1.0" encoding="utf-8"?>
<!DOCTYPE svg PUBLIC "-//W3C//DTD SVG 1.1//EN" "http://www.w3.org/Graphics/SVG/1.1/DTD/svg11.dtd">
<svg xmlns="http://www.w3.org/2000/svg" xmlns:xlink="http://www.w3.org/1999/xlink" version="1.1" baseProfile="full" width="76" height="76" viewBox="0 0 76.00 76.00" enable-background="new 0 0 76.00 76.00" xml:space="preserve">
	<path fill="#000000" fill-opacity="1" stroke-width="0.2" stroke-linejoin="round" d="M 57,35.5808L 57,55C 57,56.4468 56.8159,57.5384 56.4476,58.2749C 56.0794,59.0113 55.2259,59.8757 54.3455,60.3543C 53.4651,60.8328 52.4698,61.072 51.3595,61.072C 50.0847,61.072 49.0678,60.7066 48.3089,59.9757C 47.55,59.2449 47.1706,58.3019 47.1706,57.1467C 47.1706,55.9803 47.6201,54.9728 48.5192,54.1242C 49.4183,53.2755 50.58,52.8512 52.0044,52.8512L 53.2408,52.9746L 54,53.25L 54,41.2251L 45,44.3472L 45,59C 45,60.4131 44.8131,61.5141 44.4392,62.3029C 44.0654,63.0917 43.2099,63.7151 42.2996,64.1824C 41.3893,64.6497 40.3958,64.8833 39.3191,64.8833C 38.0481,64.8833 37.0415,64.5245 36.2994,63.8067C 35.5573,63.0889 35.1863,62.1506 35.1863,60.9916C 35.1863,59.7654 35.6302,58.7346 36.5181,57.899C 37.406,57.0635 38.5677,56.6457 40.0033,56.6457C 40.6818,56.6457 41.2918,56.5962 42,56.8778L 42,41L 57,35.5808 Z M 20,17L 43.25,17L 56,29.75L 56,34.75L 52,36.25L 52,34L 39,34L 39,21L 24,21L 24,55L 37.5,55L 34,59L 20,59L 20,17 Z M 43,22.25L 43,30L 50.75,30L 43,22.25 Z "/>
</svg>
