<?xml version="1.0" encoding="utf-8"?>
<!DOCTYPE svg PUBLIC "-//W3C//DTD SVG 1.1//EN" "http://www.w3.org/Graphics/SVG/1.1/DTD/svg11.dtd">
<svg xmlns="http://www.w3.org/2000/svg" xmlns:xlink="http://www.w3.org/1999/xlink" version="1.1" baseProfile="full" width="76" height="76" viewBox="0 0 76.00 76.00" enable-background="new 0 0 76.00 76.00" xml:space="preserve">
	<path fill="#000000" fill-opacity="1" stroke-width="0.2" stroke-linejoin="round" d="M 23.933,26.3597C 23.933,25.4034 23.7384,18.9999 32.0009,18.9999L 37.8334,18.9999L 37.8334,25.6601L 33.5437,25.6601C 32.695,25.6601 31.8366,26.5396 31.8366,27.1932L 31.9668,32L 37.7167,31.9999C 37.4773,35.354 37.0903,37.9889 37.0903,37.9889L 31.9668,38L 31.9668,56.9999L 23.9667,56.9999L 23.933,37.9889L 19.9667,38L 19.9667,32L 23.9667,32L 23.933,26.3597 Z M 57.95,39.3683C 64.2738,46.2556 50.7402,56.1547 48.2874,57.2676L 48.2874,57.2999L 48.2305,57.2676C 45.7756,56.1547 32.2399,46.2556 38.5636,39.3683C 40.5766,37.1762 44.0059,37.5331 47.1353,40.5048L 45.5412,49.0071L 48.2577,47.9884L 48.2577,57.1567L 51.6534,44.5927L 48.9368,45.6114L 50.6131,39.465C 53.175,37.6445 56.2432,37.5044 57.95,39.3683 Z "/>
</svg>
