<?xml version="1.0" encoding="utf-8"?>
<!DOCTYPE svg PUBLIC "-//W3C//DTD SVG 1.1//EN" "http://www.w3.org/Graphics/SVG/1.1/DTD/svg11.dtd">
<svg xmlns="http://www.w3.org/2000/svg" xmlns:xlink="http://www.w3.org/1999/xlink" version="1.1" baseProfile="full" width="76" height="76" viewBox="0 0 76.00 76.00" enable-background="new 0 0 76.00 76.00" xml:space="preserve">
	<path fill="#000000" fill-opacity="1" stroke-width="0.2" stroke-linejoin="round" d="M 44.3333,45.9167L 53.8333,54.625L 44.3333,63.3333L 44.3333,45.9167 Z M 52.25,39.5833C 52.25,42.2298 51.6007,44.7245 50.4528,46.917L 47.3572,44.2084C 47.762,43.2521 48.0451,42.2317 48.187,41.1667L 44.3333,41.1667L 44.3333,38L 48.187,38C 47.4819,32.7082 43.2918,28.5181 38,27.813L 38,31.6667L 34.8333,31.6667L 34.8333,27.813C 29.5415,28.5181 25.3513,32.7082 24.6463,38L 28.5,38.0001L 28.5,41.1667L 24.6463,41.1667C 25.3513,46.4585 29.5415,50.6487 34.8333,51.3537L 34.8333,47.5L 38,47.5L 38,51.3537C 39.1115,51.2056 40.5703,50.9038 41.5625,50.4702L 41.5625,54.6918C 40.063,55.1628 38.0716,55.4167 36.4167,55.4167C 27.6721,55.4167 20.5833,48.3279 20.5833,39.5833C 20.5833,31.3732 26.8322,24.6226 34.8333,23.8282L 34.8333,22.1667L 30.0833,22.1667L 30.0833,17.4167L 42.75,17.4167L 42.75,22.1667L 38,22.1667L 38,23.8282C 41.1844,24.1444 44.0913,25.404 46.4371,27.3237L 47.5796,26.1813L 45.3404,23.9421L 48.6991,20.5833L 55.4167,27.3009L 52.0579,30.6596L 49.8187,28.4204L 48.6763,29.5629C 50.9099,32.2923 52.25,35.7813 52.25,39.5833 Z M 36.4166,36.4167C 38.1655,36.4167 39.5833,37.8345 39.5833,39.5834C 39.5833,41.3323 38.1655,42.75 36.4166,42.75L 30.0833,47.5L 33.2499,39.5834C 33.2499,37.8345 34.6677,36.4167 36.4166,36.4167 Z "/>
</svg>
