<?xml version="1.0" encoding="utf-8"?>
<!DOCTYPE svg PUBLIC "-//W3C//DTD SVG 1.1//EN" "http://www.w3.org/Graphics/SVG/1.1/DTD/svg11.dtd">
<svg xmlns="http://www.w3.org/2000/svg" xmlns:xlink="http://www.w3.org/1999/xlink" version="1.1" baseProfile="full" width="76" height="76" viewBox="0 0 76.00 76.00" enable-background="new 0 0 76.00 76.00" xml:space="preserve">
	<path fill="#000000" fill-opacity="1" stroke-width="0.2" stroke-linejoin="round" d="M 47.8381,21.7991C 47.8381,22.5549 47.8381,43.9027 47.8381,44.308C 48.2282,44.308 55.6214,44.308 55.9237,44.308C 56.6305,42.2814 57,40.1702 57,38.038C 57,31.4217 53.4896,25.2445 47.8381,21.7991 Z M 28.2202,54.3022C 28.2202,53.559 28.2202,38.8064 28.2202,37.9282C 27.586,38.5109 20.5876,44.8823 20.3698,45.0807C 21.8927,48.9061 24.6722,52.153 28.2202,54.3022 Z M 29.3433,21.1109C 22.9626,24.3916 19,30.8601 19,38.038C 19,39.6762 19.2461,41.3356 19.6908,42.9865C 20.2067,42.5136 36.2036,27.951 36.533,27.6512C 36.2112,27.3599 29.5586,21.3093 29.3433,21.1109 Z M 45.8334,20.7056C 43.3549,19.5782 40.7193,18.9998 37.9994,18.9998C 35.735,18.9998 33.5069,19.4389 31.3649,20.2411C 31.8669,20.6971 45.1869,32.8108 45.8334,33.4019C 45.8334,32.5279 45.8334,20.9758 45.8334,20.7056 Z M 30.216,46.3136C 30.6239,46.3136 54.3801,46.3136 55.0679,46.3136C 52.1562,52.3346 46.297,56.388 39.7322,57.0002L 36.2492,57.0002C 34.1676,56.806 32.1473,56.2655 30.216,55.3999C 30.216,55.1255 30.216,46.7105 30.216,46.3136 Z "/>
</svg>
