<?xml version="1.0" encoding="utf-8"?>
<!DOCTYPE svg PUBLIC "-//W3C//DTD SVG 1.1//EN" "http://www.w3.org/Graphics/SVG/1.1/DTD/svg11.dtd">
<svg xmlns="http://www.w3.org/2000/svg" xmlns:xlink="http://www.w3.org/1999/xlink" version="1.1" baseProfile="full" width="76" height="76" viewBox="0 0 76.00 76.00" enable-background="new 0 0 76.00 76.00" xml:space="preserve">
	<path fill="#000000" fill-opacity="1" stroke-width="0.2" stroke-linejoin="round" d="M 43.5416,56.2083L 44.3333,55.4167L 31.6667,55.4167L 32.4583,56.2083L 43.5416,56.2083 Z M 38,37.6042C 39.7489,37.6042 40.7708,36.2278 40.7708,34.0417C 40.7708,31.8555 39.7489,30.4792 38,30.4792C 36.2511,30.4792 35.2292,31.8555 35.2292,34.0417C 35.2292,36.2278 36.2511,37.6042 38,37.6042 Z M 38,25.3333L 45.9166,25.3334C 45.9166,23.75 44.7291,22.1667 44.7291,22.1667L 38,22.1667L 31.2708,22.1667C 31.2708,22.1667 30.0833,23.75 30.0833,25.3334L 38,25.3333 Z M 38,20.5833L 47.5,20.5833C 49.0833,23.75 49.0833,28.5 49.0833,30.0833C 49.0833,42.75 45.9167,42.75 45.5208,49.0833L 45.9167,57C 45.9167,58.5833 44.3333,58.5833 44.3333,58.5833L 31.6667,58.5833C 31.6667,58.5833 30.0833,58.5833 30.0833,57L 30.4792,49.0833C 30.0833,42.75 26.9167,42.75 26.9167,30.0833C 26.9167,28.5 26.9167,23.75 28.5,20.5833L 38,20.5833 Z M 45.125,33.25L 43.5417,33.25C 43.1044,33.25 42.3542,33.6044 42.3542,34.0417C 42.3542,34.4789 43.1044,34.8333 43.5417,34.8333L 45.125,34.8333C 45.5622,34.8333 45.9167,34.4789 45.9167,34.0417C 45.9167,33.6044 45.5622,33.25 45.125,33.25 Z M 30.875,33.25C 30.4378,33.25 30.0833,33.6044 30.0833,34.0417C 30.0833,34.4789 30.4378,34.8333 30.875,34.8333L 32.4583,34.8333C 32.8956,34.8333 33.6458,34.4789 33.6458,34.0417C 33.6458,33.6044 32.8956,33.25 32.4583,33.25L 30.875,33.25 Z "/>
</svg>
