<?xml version="1.0" encoding="utf-8"?>
<!DOCTYPE svg PUBLIC "-//W3C//DTD SVG 1.1//EN" "http://www.w3.org/Graphics/SVG/1.1/DTD/svg11.dtd">
<svg xmlns="http://www.w3.org/2000/svg" xmlns:xlink="http://www.w3.org/1999/xlink" version="1.1" baseProfile="full" width="76" height="76" viewBox="0 0 76.00 76.00" enable-background="new 0 0 76.00 76.00" xml:space="preserve">
	<path fill="#000000" fill-opacity="1" stroke-linejoin="round" d="M 17,23L 31,23L 31,27L 34,27L 34,30L 37,30L 37,33L 39,33L 39,30L 42,30L 42,27L 45,27L 45,23L 59,23L 59,27L 56,27L 56,30L 53,30L 53,33L 50,33L 50,36L 47,36L 47,40L 50,40L 50,43L 53,43L 53,46L 56,46L 56,49L 59,49L 59,53L 45,53L 45,49L 42,49L 42,46L 39,46L 39,43L 37,43L 37,46L 34,46L 34,49L 31,49L 31,53L 17,53L 17,49L 20,49L 20,46L 23,46L 23,43L 26,43L 26,40L 29,40L 29,36L 26,36L 26,33L 23,33L 23,30L 20,30L 20,27L 17,27L 17,23 Z "/>
</svg>
