<?xml version="1.0" encoding="utf-8"?>
<!DOCTYPE svg PUBLIC "-//W3C//DTD SVG 1.1//EN" "http://www.w3.org/Graphics/SVG/1.1/DTD/svg11.dtd">
<svg xmlns="http://www.w3.org/2000/svg" xmlns:xlink="http://www.w3.org/1999/xlink" version="1.1" baseProfile="full" width="76" height="76" viewBox="0 0 76.00 76.00" enable-background="new 0 0 76.00 76.00" xml:space="preserve">
	<path fill="#000000" fill-opacity="1" stroke-linejoin="round" d="M 35.5,19C 37.9853,19 40,19.8954 40,21C 40,22.1046 37.9853,23 35.5,23C 33.0147,23 31,22.1046 31,21L 31,25C 31,26.1046 33.0147,27 35.5,27C 37.9853,27 40,26.1046 40,25L 40,21.8296L 45.6494,23.4524C 46.4256,23.1697 47.4182,23 48.5,23C 50.9853,23 53,23.8954 53,25C 53,26.1046 50.9853,27 48.5,27C 46.0147,27 44,26.1046 44,25L 44,29C 44,30.1046 46.0147,31 48.5,31C 50.9853,31 53,30.1046 53,29L 53,25.5638L 58,27L 58,43L 44.5077,56.5295L 18,49L 18,33L 31.5688,19.4077L 32.2677,19.6085C 33.0857,19.2332 34.2316,19 35.5,19 Z M 20,33.5681L 20,47.5681L 43,54.1013L 43,40.1013L 20,33.5681 Z M 56,43L 56,29.0056L 46,39.0331L 46,53.0331L 56.0055,43L 56,43 Z M 46,36L 46,32C 45.9999,33.1046 43.9852,34 41.5,34C 39.0147,34 37,33.1046 37,32L 37,36C 37,37.1046 39.0147,38 41.5,38C 43.9852,38 46,37.1046 46,36 Z M 33,32L 33,28C 32.9999,29.1046 30.9852,30 28.5,30C 26.0147,30 24,29.1046 24,28L 24,32C 24,33.1046 26.0147,34 28.5,34C 30.9853,34 33,33.1046 33,32 Z "/>
</svg>
