<?xml version="1.0" encoding="utf-8"?>
<!DOCTYPE svg PUBLIC "-//W3C//DTD SVG 1.1//EN" "http://www.w3.org/Graphics/SVG/1.1/DTD/svg11.dtd">
<svg xmlns="http://www.w3.org/2000/svg" xmlns:xlink="http://www.w3.org/1999/xlink" version="1.1" baseProfile="full" width="76" height="76" viewBox="0 0 76.00 76.00" enable-background="new 0 0 76.00 76.00" xml:space="preserve">
	<path fill="#000000" fill-opacity="1" stroke-width="0.2" stroke-linejoin="round" d="M 24,20L 49,20L 49.0833,26.9167C 53.4556,26.9167 57,30.4611 57,34.8334L 57,42.75C 57,47.1223 53.4556,50.6667 49.0833,50.6667L 49,59L 24,59L 24,20 Z M 49,46C 50.7489,46 53,43.7489 53,42L 53,36C 53,34.2511 50.7489,31 49,31L 49,46 Z M 27,23L 27,25L 46,25L 46,23L 27,23 Z M 46,56L 46,54L 27,54L 27,56L 46,56 Z M 30.5,28C 29.6256,28 29,29.1255 29,30L 29,49C 29,49.8745 29.6255,51 30.5,51C 31.3744,51 32,49.8745 32,49L 32,30C 32,29.1255 31.3745,28 30.5,28 Z M 36.5,28C 35.6256,28 35,29.1255 35,30L 35,49C 35,49.8745 35.6255,51 36.5,51C 37.3744,51 38,49.9578 38,49.0833L 38,30C 38,29.1255 37.3745,28 36.5,28 Z M 42.5,28C 41.6255,28 41,29.1255 41,30L 41,49C 41,49.8745 41.6255,51 42.5,51C 43.3745,51 44,49.8745 44,49L 44,30C 44,29.1255 43.3744,28 42.5,28 Z M 23.75,17.2292C 25,17 31.6667,13.6667 33.25,15.25C 34.8333,16.8333 36.4167,16.8333 38,16.8333C 39.5833,16.8333 41.1667,15.25 44.3333,15.25C 45.9167,15.25 49.0833,16.0417 49.0833,17.625C 49,21 47.8958,18.8125 47.8958,18.8125C 47.8958,18.8125 47.1041,17.2292 43.9375,17.2292C 40.7708,17.2292 39.5833,18.8125 38,18.8125C 36.4167,18.8125 33.6458,17.2292 30.4792,17.2292C 27.3125,17.2292 26.875,18.8334 24.9375,18.4167C 23,18 21,20 21.7708,21.9792C 23,24 22.1666,25.2817 22.1667,27.5209C 22.1667,27.9167 21.75,27.875 21.375,25.9375C 21,24 19,23.1667 19,21.5833C 19,20 19.1667,19.8333 20.5833,18.4167C 22,17 22.5,17.4584 23.75,17.2292 Z "/>
</svg>
