<?xml version="1.0" encoding="utf-8"?>
<!DOCTYPE svg PUBLIC "-//W3C//DTD SVG 1.1//EN" "http://www.w3.org/Graphics/SVG/1.1/DTD/svg11.dtd">
<svg xmlns="http://www.w3.org/2000/svg" xmlns:xlink="http://www.w3.org/1999/xlink" version="1.1" baseProfile="full" width="76.0106" height="76.0106" viewBox="0 0 76.01 76.01" enable-background="new 0 0 76.01 76.01" xml:space="preserve">
	<path fill="#000000" fill-opacity="1" stroke-width="0.2" stroke-linejoin="round" d="M 18.0025,57.0082L 18.0025,23.0033L 23.0032,23.0033L 23.0032,20.0029C 23.0033,18.898 23.8988,18.0026 25.0035,18.0026L 29.004,18.0026C 30.1087,18.0026 31.0042,18.898 31.0043,20.0026L 31.0043,23.0033L 45.0063,23.0033L 45.0062,20.0026C 45.0062,18.8979 45.9018,18.0023 47.0065,18.0023L 51.0071,18.0023C 52.1118,18.0023 53.0074,18.8979 53.0074,20.0026L 53.0074,23.0033L 58.0081,23.0033L 58.0081,36.7029L 55.0076,34.1972L 55.0076,31.0044L 21.0029,31.0044L 21.0029,54.0078L 44.149,54.0078L 43.2917,57.0082L 18.0025,57.0082 Z M 23.0032,47.0066L 29.004,47.0066L 29.004,52.0073L 23.0032,52.0073L 23.0032,47.0066 Z M 31.0043,47.0066L 37.0051,47.0066L 37.0051,52.0073L 31.0043,52.0073L 31.0043,47.0066 Z M 39.0054,47.0066L 45.0062,47.0066L 45.0063,51.0071L 44.7205,52.0073L 39.0054,52.0073L 39.0054,47.0066 Z M 23.0032,40.0057L 29.004,40.0057L 29.004,45.0064L 23.0032,45.0064L 23.0032,40.0057 Z M 31.0043,40.0057L 37.0051,40.0057L 37.0051,45.0064L 31.0043,45.0064L 31.0043,40.0057 Z M 39.0054,40.0057L 44.6399,40.0057C 44.5531,40.3435 44.0061,40.678 44.0061,41.0057C 44.0061,42.3023 44.0713,43.704 44.4973,45.0064L 39.0054,45.0064L 39.0054,40.0057 Z M 31.0043,33.0048L 37.0051,33.0048L 37.0051,38.0055L 31.0043,38.0055L 31.0043,33.0048 Z M 39.0054,33.0048L 45.0062,33.0048L 45.0062,38.0055L 39.0054,38.0055L 39.0054,33.0048 Z M 47.0065,33.0048L 51.1046,33.0049C 50.1692,33.6512 48.0387,35.5656 47.0065,36.6128L 47.0065,33.0048 Z M 48.5067,20.0029C 47.6782,20.0029 47.0065,20.6746 47.0065,21.5031L 47.0065,24.5036C 47.0065,25.3321 47.6782,26.0038 48.5067,26.0038L 49.5068,26.0038C 50.3354,26.0038 51.007,25.3321 51.007,24.5036L 51.007,21.5031C 51.007,20.6746 50.3354,20.0029 49.5068,20.0029L 48.5067,20.0029 Z M 26.5037,20.0029C 25.6751,20.0029 25.0035,20.6746 25.0035,21.5031L 25.0035,24.5035C 25.0035,25.3321 25.6751,26.0037 26.5037,26.0037L 27.5038,26.0037C 28.3324,26.0037 29.004,25.3321 29.004,24.5035L 29.004,21.5031C 29.004,20.6746 28.3324,20.0029 27.5038,20.0029L 26.5037,20.0029 Z M 58.2327,38.8268L 57.3705,42.1775L 55.7765,41.5185C 55.066,41.2801 54.1341,41.1503 52.9807,41.1291C 52.0363,41.1478 51.3729,41.3275 50.9903,41.6682C 50.6077,42.0089 50.4233,42.3982 50.4371,42.8361C 50.4256,43.3032 50.7087,43.731 51.2864,44.1196C 51.8642,44.5081 52.8059,44.9285 54.1115,45.3806C 55.8671,45.9949 57.1265,46.7496 57.8898,47.6446C 58.653,48.5395 59.0258,49.6609 59.0082,51.0086C 59.0077,52.3618 58.5634,53.5298 57.6752,54.5124C 56.787,55.495 55.458,56.1381 53.6882,56.4416L 53.6882,59.4535L 50.7696,59.4535L 50.7696,56.6755C 49.7616,56.6232 48.8219,56.4794 47.9506,56.2442C 47.0793,56.0091 46.3836,55.7337 45.8634,55.4182L 46.7304,51.9666C 47.3397,52.3227 48.0536,52.6283 48.8721,52.8834C 49.6906,53.1385 50.5786,53.2719 51.5361,53.2838C 52.4123,53.2794 53.1387,53.116 53.7152,52.7936C 54.2917,52.4711 54.5906,52.0159 54.6118,51.4277C 54.6096,50.8683 54.3242,50.3856 53.7557,49.9796C 53.1872,49.5736 52.3491,49.1881 51.2413,48.8233C 49.6671,48.305 48.4125,47.6202 47.4775,46.7689C 46.5424,45.9176 46.0635,44.7763 46.0407,43.345C 46.0472,41.9985 46.4797,40.859 47.3383,39.9265C 48.1969,38.9941 49.4428,38.3717 51.0762,38.0593L 51.0762,35.2549L 53.9728,35.2549L 53.9728,37.8527L 58.2327,38.8268 Z "/>
</svg>
