<?xml version="1.0" encoding="utf-8"?>
<!DOCTYPE svg PUBLIC "-//W3C//DTD SVG 1.1//EN" "http://www.w3.org/Graphics/SVG/1.1/DTD/svg11.dtd">
<svg xmlns="http://www.w3.org/2000/svg" xmlns:xlink="http://www.w3.org/1999/xlink" version="1.1" baseProfile="full" width="76" height="76" viewBox="0 0 76.00 76.00" enable-background="new 0 0 76.00 76.00" xml:space="preserve">
	<path fill="#000000" fill-opacity="1" stroke-width="0.2" stroke-linejoin="round" d="M 49.5,57C 50.8807,57 52,58.1193 52,59.5C 52,60.8807 50.8807,62 49.5,62C 48.1193,62 47,60.8807 47,59.5C 47,58.1193 48.1193,57 49.5,57 Z M 50.5,38C 54.6421,38 58,41.3579 58,45.5C 58,48.8811 55.7627,51.7396 52.6878,52.6759C 52,54 52,53 52,55L 47,55C 47,55 47,50 50.5,48C 51.8807,48 53,46.8807 53,45.5C 53,44.1193 51.8807,43 50.5,43C 49.1193,43 48,44.1193 48,45.5L 48.05,46L 43.0164,46L 43,45.5C 43,41.3579 46.3579,38 50.5,38 Z M 20,17L 43.25,17L 56,29.75L 56,38.4009C 54.954,37.2733 53.5655,36.4678 52,36.15L 52,34L 39,34L 39,21L 24,21L 24,55L 46,55L 46,59L 20,59L 20,17 Z M 43,22.25L 43,30L 50.75,30L 43,22.25 Z "/>
</svg>
