<?xml version="1.0" encoding="utf-8"?>
<!DOCTYPE svg PUBLIC "-//W3C//DTD SVG 1.1//EN" "http://www.w3.org/Graphics/SVG/1.1/DTD/svg11.dtd">
<svg xmlns="http://www.w3.org/2000/svg" xmlns:xlink="http://www.w3.org/1999/xlink" version="1.1" baseProfile="full" width="76" height="76" viewBox="0 0 76.00 76.00" enable-background="new 0 0 76.00 76.00" xml:space="preserve">
	<path fill="#000000" fill-opacity="1" stroke-width="0.2" stroke-linejoin="round" d="M 40.3,50L 34.9943,50L 31.5748,40.8812C 31.447,40.5437 31.3134,39.9187 31.174,39.0062L 31.1174,39.0062L 30.66,40.9625L 27.2275,50L 21.9,50L 28.225,36L 22.4576,22L 27.8896,22L 30.721,30.3937C 30.9417,31.0604 31.1392,31.8479 31.3134,32.7562L 31.3701,32.7562L 31.9843,30.3187L 35.1032,22L 40.0212,22L 34.1797,35.8812L 40.3,50 Z M 55.84,39.3333L 50.7298,53.1083C 49.5106,56.4228 47.6753,58.08 45.2237,58.08C 44.2896,58.08 43.5217,57.9111 42.92,57.5733L 42.92,54.5333C 43.4267,54.8711 43.9769,55.04 44.5706,55.04C 45.5496,55.04 46.2318,54.5637 46.6171,53.611L 47.2662,52.0317L 42.16,39.3333L 46.4865,39.3333L 48.8179,47.0838C 48.963,47.5667 49.0765,48.1354 49.1583,48.7898L 49.2058,48.7898L 49.6096,47.1115L 51.9648,39.3333L 55.84,39.3333 Z "/>
</svg>
