<?xml version="1.0" encoding="utf-8"?>
<!DOCTYPE svg PUBLIC "-//W3C//DTD SVG 1.1//EN" "http://www.w3.org/Graphics/SVG/1.1/DTD/svg11.dtd">
<svg xmlns="http://www.w3.org/2000/svg" xmlns:xlink="http://www.w3.org/1999/xlink" version="1.1" baseProfile="full" width="76" height="76" viewBox="0 0 76.00 76.00" enable-background="new 0 0 76.00 76.00" xml:space="preserve">
	<path fill="#000000" fill-opacity="1" stroke-width="0.2" stroke-linejoin="round" d="M 38.7916,15.8334C 40.5405,15.8334 40.375,17.2511 40.375,19L 40.4805,22.1667L 58.5833,22.1667L 58.5833,25.3333L 56.5258,25.3333L 64.9167,45.125C 64.9167,48.1856 59.8717,50.6667 54.625,50.6667C 49.3783,50.6667 44.3333,48.1856 44.3333,45.125L 52.7242,25.3333L 40.5861,25.3333L 41.5394,53.9324C 47.6545,54.3801 52.25,56.2923 52.25,58.5833L 25.3333,58.5833C 25.3333,56.2923 29.9288,54.3801 36.0439,53.9324L 36.9972,25.3333L 23.2758,25.3334L 31.6667,45.125C 31.6667,48.1856 26.6217,50.6667 21.375,50.6667C 16.1283,50.6667 11.0833,48.1856 11.0833,45.125L 19.4742,25.3334L 17.4167,25.3333L 17.4167,22.1667L 37.1027,22.1667L 37.2083,19C 37.2083,17.2511 37.0427,15.8334 38.7916,15.8334 Z M 61.2191,45.125L 55.4167,30.7634L 55.4167,45.125L 61.2191,45.125 Z M 48.0308,45.125L 53.8333,45.125L 53.8333,30.7634L 48.0308,45.125 Z M 27.9691,45.125L 22.1667,30.7634L 22.1667,45.125L 27.9691,45.125 Z M 14.7808,45.125L 20.5833,45.125L 20.5833,30.7634L 14.7808,45.125 Z "/>
</svg>
