<?xml version="1.0" encoding="utf-8"?>
<!DOCTYPE svg PUBLIC "-//W3C//DTD SVG 1.1//EN" "http://www.w3.org/Graphics/SVG/1.1/DTD/svg11.dtd">
<svg xmlns="http://www.w3.org/2000/svg" xmlns:xlink="http://www.w3.org/1999/xlink" version="1.1" baseProfile="full" width="76.0106" height="76.0106" viewBox="0 0 76.01 76.01" enable-background="new 0 0 76.01 76.01" xml:space="preserve">
	<path fill="#000000" fill-opacity="1" stroke-width="0.2" stroke-linejoin="round" d="M 17.4193,57.008L 17.4193,22.1698L 22.17,22.1698L 22.17,17.4191L 30.0877,17.4191L 30.0877,22.1698L 44.3395,22.1698L 44.3395,17.4191L 52.2573,17.4191L 52.2573,22.1698L 57.008,22.1698L 57.0079,57.008L 17.4193,57.008 Z M 20.5864,53.8409L 53.8408,53.8409L 53.8408,30.0876L 20.5864,30.0876L 20.5864,53.8409 Z M 26.1287,19.7944C 25.2542,19.7944 24.5452,20.8578 24.5452,22.1697C 24.5452,23.4815 25.2542,24.545 26.1287,24.545C 27.0033,24.545 27.7123,23.4815 27.7123,22.1697C 27.7123,20.8578 27.0033,19.7944 26.1287,19.7944 Z M 48.2917,19.7914C 47.4171,19.7914 46.7081,20.8548 46.7081,22.1667C 46.7081,23.4785 47.4171,24.542 48.2917,24.542C 49.1662,24.542 49.8752,23.4785 49.8752,22.1667C 49.8752,20.8548 49.1662,19.7914 48.2917,19.7914 Z M 32.6157,52.2573L 28.6827,52.2573L 28.6827,37.6813C 27.2518,39.1677 25.5662,40.2663 23.626,40.9772L 23.626,37.0292C 24.6503,36.7002 25.7623,36.0774 26.9621,35.1609C 28.1618,34.2444 28.9856,33.1751 29.4333,31.9531L 32.6157,31.9531L 32.6157,52.2573 Z M 44.1338,52.2573L 44.1338,48.3093L 35.9869,48.3093L 35.9869,44.9384L 44.6562,32.2351L 48.0668,32.2351L 48.0668,44.9252L 50.5951,44.9252L 50.5951,48.3093L 48.0668,48.3093L 48.0668,52.2573L 44.1338,52.2573 Z M 44.1338,44.9252L 44.1338,38.4039L 39.6785,44.9252L 44.1338,44.9252 Z "/>
</svg>
