<?xml version="1.0" encoding="utf-8"?>
<!DOCTYPE svg PUBLIC "-//W3C//DTD SVG 1.1//EN" "http://www.w3.org/Graphics/SVG/1.1/DTD/svg11.dtd">
<svg xmlns="http://www.w3.org/2000/svg" xmlns:xlink="http://www.w3.org/1999/xlink" version="1.1" baseProfile="full" width="76" height="76" viewBox="0 0 76.00 76.00" enable-background="new 0 0 76.00 76.00" xml:space="preserve">
	<path fill="#000000" fill-opacity="1" fill-rule="evenodd" stroke-width="0.2" stroke-linejoin="round" d="M 53.6465,41.2482L 50.691,41.2482L 50.691,34.4926L 53.6465,34.4926M 57.0243,31.1148L 46.891,31.1148L 46.891,41.0818L 46.891,44.626L 53.6465,44.626L 53.6465,47.5815L 46.891,47.5815L 46.891,51.3815L 53.5385,51.3815L 57.0243,51.3815L 57.0243,47.3307L 57.0243,44.8282L 57.0243,41.0818L 57.0243,34.6594M 39.7132,41.2482L 39.7132,34.4926L 42.2466,34.4926L 42.2466,41.2482M 46.0466,31.1148L 35.9132,31.1148L 35.9132,34.6594L 35.9132,44.626L 42.2466,44.626L 42.2466,47.5815L 35.9132,47.5815L 35.9132,51.3815L 42.2499,51.3815L 46.0466,51.3815L 46.0466,44.7839L 46.0466,40.9589M 30.4243,24.3593L 34.2243,24.3593L 34.2243,28.1593L 30.4243,28.1593M 30.4243,31.1148L 34.2243,31.1148L 34.2243,44.626L 30.4243,44.626M 22.8243,41.2482L 22.8243,34.4926L 25.7799,34.4926L 25.7799,41.2482M 25.7799,24.3593L 25.7799,31.1148L 19.0243,31.1148L 19.0243,31.4019L 19.0243,34.5876L 19.0243,41.0818L 19.0243,44.626L 22.9818,44.626L 25.6579,44.626L 29.5799,44.626L 29.5799,34.6594L 29.5799,30.9126L 29.5799,24.3593L 25.7799,24.3593 Z "/>
</svg>
