<?xml version="1.0" encoding="utf-8"?>
<!DOCTYPE svg PUBLIC "-//W3C//DTD SVG 1.1//EN" "http://www.w3.org/Graphics/SVG/1.1/DTD/svg11.dtd">
<svg xmlns="http://www.w3.org/2000/svg" xmlns:xlink="http://www.w3.org/1999/xlink" version="1.1" baseProfile="full" width="76" height="76" viewBox="0 0 76.00 76.00" enable-background="new 0 0 76.00 76.00" xml:space="preserve">
	<path fill="#000000" fill-opacity="1" stroke-width="0.2" stroke-linejoin="round" d="M 27.7083,23.75L 38.7917,26.9167L 48.2917,20.5833L 61.75,23.75L 61.75,50.6666L 48.2917,47.5L 38.7917,53.8333L 27.7083,50.6667L 15.8333,55.4167L 15.8333,28.5L 27.7083,23.75 Z M 26.9167,46.2333L 26.9167,28.8167L 20.5833,31.35L 20.5833,48.7667L 26.9167,46.2333 Z M 49.0833,25.5196L 49.0833,42.9363L 57,44.799L 57,27.3824L 49.0833,25.5196 Z M 39.5833,31.1389L 39.5833,48.5556L 47.5,43.2778L 47.5,25.8611L 39.5833,31.1389 Z M 28.5,28.7262L 28.5,46.1429L 38,48.8572L 38,31.4405L 28.5,28.7262 Z "/>
</svg>
