<?xml version="1.0" encoding="utf-8"?>
<!DOCTYPE svg PUBLIC "-//W3C//DTD SVG 1.1//EN" "http://www.w3.org/Graphics/SVG/1.1/DTD/svg11.dtd">
<svg xmlns="http://www.w3.org/2000/svg" xmlns:xlink="http://www.w3.org/1999/xlink" version="1.1" baseProfile="full" width="76" height="76" viewBox="0 0 76.00 76.00" enable-background="new 0 0 76.00 76.00" xml:space="preserve">
	<path fill="#000000" fill-opacity="1" stroke-width="0.2" stroke-linejoin="round" d="M 20,51.0001C 18.8955,51.0001 18,50.1046 18,49.0001L 18,27.0002C 18,25.8956 18.8955,25.0002 20,25.0002L 55.9999,25.0002C 57.1045,25.0002 57.9999,25.8956 57.9999,27.0002L 58,49.0001C 58,50.1046 57.1045,51.0001 56,51.0001L 20,51.0001 Z M 22,29L 22,47.0001L 53.9999,47.0001L 54,29L 22,29 Z M 37.0052,48.2183L 37.0052,48.8815L 37.8105,48.8815L 37.8105,48.1128L 37.0052,48.2183 Z M 37.8105,49.7449L 37.8105,48.9762L 37.0052,48.9762L 37.0052,49.6395L 37.8105,49.7449 Z M 38.9948,47.9577L 37.9052,48.1004L 37.9052,48.8815L 38.9948,48.8815L 38.9948,47.9577 Z M 38.9948,49.9L 38.9948,48.9762L 37.9052,48.9762L 37.9052,49.7573L 38.9948,49.9 Z "/>
</svg>
