<?xml version="1.0" encoding="utf-8"?>
<!DOCTYPE svg PUBLIC "-//W3C//DTD SVG 1.1//EN" "http://www.w3.org/Graphics/SVG/1.1/DTD/svg11.dtd">
<svg xmlns="http://www.w3.org/2000/svg" xmlns:xlink="http://www.w3.org/1999/xlink" version="1.1" baseProfile="full" width="76.0106" height="76.0106" viewBox="0 0 76.01 76.01" enable-background="new 0 0 76.01 76.01" xml:space="preserve">
	<path fill="#000000" fill-opacity="1" stroke-width="0.2" stroke-linejoin="round" d="M 26.0801,46.4635L 29.7106,46.0201C 29.8132,46.9475 30.0908,47.6566 30.5432,48.1473C 30.9957,48.6381 31.5434,48.8835 32.1863,48.8835C 32.8751,48.8835 33.4558,48.6178 33.9286,48.0863C 34.4013,47.5549 34.6376,46.8377 34.6376,45.9347C 34.6376,45.0806 34.4256,44.404 34.0015,43.9051C 33.5774,43.4062 33.0601,43.1567 32.4496,43.1567C 32.0472,43.1567 31.5663,43.2448 31.0072,43.4211L 31.3394,40.2933C 32.1579,40.3177 32.7826,40.1218 33.2134,39.7056C 33.6443,39.2893 33.8597,38.7382 33.8597,38.0522C 33.8597,37.4665 33.6949,36.9994 33.3653,36.651C 33.0358,36.3025 32.5969,36.1283 32.0485,36.1283C 31.511,36.1283 31.0511,36.3276 30.6689,36.7262C 30.2866,37.1248 30.0536,37.7065 29.9699,38.4711L 26.3395,37.9464C 26.5664,36.8022 26.9081,35.8884 27.3646,35.205C 27.8211,34.5217 28.4579,33.9842 29.275,33.5923C 30.0921,33.2005 31.0072,33.0046 32.0201,33.0046C 33.757,33.0046 35.1482,33.5632 36.1935,34.6804C 37.0579,35.5969 37.4901,36.6313 37.4901,37.7837C 37.4901,39.4188 36.5852,40.7231 34.7754,41.6965C 35.8343,41.9243 36.6811,42.4354 37.3159,43.2299C 37.9507,44.0244 38.2681,44.9843 38.2681,46.1096C 38.2681,47.742 37.6799,49.133 36.5035,50.2827C 35.3271,51.4324 33.8637,52.0073 32.1133,52.0073C 30.4521,52.0073 29.0751,51.4961 27.9825,50.4739C 26.8898,49.4516 26.2557,48.1148 26.0801,46.4635 Z M 48.0047,52.0073L 45.0042,52.0073L 45.0042,38.5053C 43.6649,39.8964 42.157,40.7849 40.3412,41.4502L 40.3412,37.7553C 41.2997,37.4474 42.3405,36.8645 43.4633,36.0068C 44.5862,35.149 45.3572,34.1483 45.7762,33.0046L 48.0047,33.0046L 48.0047,52.0073 Z M 18.0025,57.0082L 18.0025,23.0033L 23.0032,23.0033L 23.0032,20.0029C 23.0033,18.898 23.8988,18.0026 25.0035,18.0026L 29.004,18.0026C 30.1087,18.0026 31.0042,18.898 31.0043,20.0026L 31.0043,23.0033L 45.0063,23.0033L 45.0062,20.0026C 45.0062,18.8979 45.9018,18.0023 47.0065,18.0023L 51.0071,18.0023C 52.1118,18.0023 53.0073,18.8979 53.0073,20.0026L 53.0074,23.0033L 58.0081,23.0033L 58.0081,57.0082L 18.0025,57.0082 Z M 21.0029,54.0078L 55.0076,54.0078L 55.0076,31.0044L 21.0029,31.0044L 21.0029,54.0078 Z M 48.5067,20.0029C 47.6781,20.0029 47.0065,20.6746 47.0065,21.5031L 47.0065,24.5036C 47.0065,25.3321 47.6781,26.0038 48.5067,26.0038L 49.5068,26.0038C 50.3354,26.0038 51.007,25.3321 51.007,24.5036L 51.007,21.5031C 51.007,20.6746 50.3354,20.0029 49.5068,20.0029L 48.5067,20.0029 Z M 26.5037,20.0029C 25.6751,20.0029 25.0035,20.6746 25.0035,21.5031L 25.0035,24.5035C 25.0035,25.3321 25.6751,26.0037 26.5037,26.0037L 27.5038,26.0037C 28.3324,26.0037 29.004,25.3321 29.004,24.5035L 29.004,21.5031C 29.004,20.6746 28.3324,20.0029 27.5038,20.0029L 26.5037,20.0029 Z "/>
</svg>
