<?xml version="1.0" encoding="utf-8"?>
<!DOCTYPE svg PUBLIC "-//W3C//DTD SVG 1.1//EN" "http://www.w3.org/Graphics/SVG/1.1/DTD/svg11.dtd">
<svg xmlns="http://www.w3.org/2000/svg" xmlns:xlink="http://www.w3.org/1999/xlink" version="1.1" baseProfile="full" width="76" height="76" viewBox="0 0 76.00 76.00" enable-background="new 0 0 76.00 76.00" xml:space="preserve">
	<path fill="#000000" fill-opacity="1" stroke-width="0.2" stroke-linejoin="round" d="M 34.6742,38L 39.5833,42.9091L 39.5833,48.7651L 17.4167,55.4167L 34.6742,38 Z M 49.1629,19L 50.7352,20.5856L 38,33.25L 38,36.4167L 41.1667,39.5833L 44.3333,39.5833L 57.0067,26.91L 58.5833,28.5L 44.3333,42.75L 41.1667,42.75L 34.8333,36.4167L 34.8333,33.25L 49.1629,19 Z M 38.227,34.5054L 53.9012,18.8312L 55.0208,19.9508L 39.3466,35.625L 38.227,34.5054 Z M 41.5625,38.2367L 57.2367,22.5625L 58.3563,23.6821L 42.6821,39.3563L 41.5625,38.2367 Z M 39.5833,36.8804L 55.2575,21.2062L 56.3771,22.3258L 40.7029,38L 39.5833,36.8804 Z "/>
</svg>
