<?xml version="1.0" encoding="utf-8"?>
<!DOCTYPE svg PUBLIC "-//W3C//DTD SVG 1.1//EN" "http://www.w3.org/Graphics/SVG/1.1/DTD/svg11.dtd">
<svg xmlns="http://www.w3.org/2000/svg" xmlns:xlink="http://www.w3.org/1999/xlink" version="1.1" baseProfile="full" width="76" height="76" viewBox="0 0 76.00 76.00" enable-background="new 0 0 76.00 76.00" xml:space="preserve">
	<path fill="#000000" fill-opacity="1" stroke-width="0.2" stroke-linejoin="round" d="M 49.0833,25.3334C 53.4555,25.3334 57,28.8779 57,33.2501C 57,37.6223 53.4557,41.1666 49.0511,41.1667L 22.9583,41.1668C 20.7722,41.1667 19,39.3945 19,37.2084C 19,35.2701 20.3931,33.6572 22.2328,33.3164L 22.1667,32.4583C 22.1667,29.4827 24.5123,27.0547 27.4553,26.9223C 28.7579,23.2296 32.2783,20.5833 36.4167,20.5833C 40.3459,20.5833 43.7179,22.9687 45.1637,26.3703C 46.3193,25.7104 47.6573,25.3334 49.0833,25.3334 Z M 24.8056,48.2917C 25.3333,46.7083 26.3889,45.125 27.4444,43.5417C 28.5,45.125 29.5555,46.7083 30.0833,48.2917C 30.6111,49.875 30.6111,51.4583 29.5556,52.25C 28.5,53.0417 26.3889,53.0417 25.3333,52.25C 24.2778,51.4583 24.2778,49.875 24.8056,48.2917 Z M 34.8333,50.6667C 35.3611,49.0833 36.4167,47.5 37.4722,45.9167C 38.5278,47.5 39.5833,49.0833 40.1111,50.6667C 40.6389,52.25 40.6389,53.8333 39.5833,54.625C 38.5278,55.4167 36.4167,55.4167 35.3611,54.625C 34.3055,53.8333 34.3055,52.25 34.8333,50.6667 Z M 43.8056,46.7083C 44.3333,45.125 45.3889,43.5417 46.4444,41.9583C 47.5,43.5417 48.5556,45.125 49.0833,46.7083C 49.6111,48.2917 49.6111,49.875 48.5556,50.6667C 47.5,51.4583 45.3889,51.4583 44.3333,50.6667C 43.2778,49.875 43.2778,48.2917 43.8056,46.7083 Z "/>
</svg>
