<?xml version="1.0" encoding="utf-8"?>
<!DOCTYPE svg PUBLIC "-//W3C//DTD SVG 1.1//EN" "http://www.w3.org/Graphics/SVG/1.1/DTD/svg11.dtd">
<svg xmlns="http://www.w3.org/2000/svg" xmlns:xlink="http://www.w3.org/1999/xlink" version="1.1" baseProfile="full" width="76" height="76" viewBox="0 0 76.00 76.00" enable-background="new 0 0 76.00 76.00" xml:space="preserve">
	<path fill="#000000" fill-opacity="1" stroke-linejoin="round" d="M 24,42L 27,42L 27,54L 46,54L 46,42L 49,42L 49,57L 24,57L 24,42 Z M 44,52L 29,52L 29,49L 44,49L 44,52 Z M 43.7907,47.289L 28.8273,46.2427L 29.0365,43.25L 44,44.2963L 43.7907,47.289 Z M 44.0046,43.2365L 29.5157,39.3542L 30.2922,36.4565L 44.7811,40.3387L 44.0046,43.2365 Z M 44.8399,39.0526L 31.8496,31.5526L 33.3496,28.9545L 46.3399,36.4545L 44.8399,39.0526 Z M 46.8954,35.8657L 38.0786,23.7305L 40.5056,21.9671L 49.3224,34.1024L 46.8954,35.8657 Z M 50.0224,33.7538L 48.1943,18.8656L 51.172,18.5L 53,33.3882L 50.0224,33.7538 Z "/>
</svg>
