<?xml version="1.0" encoding="utf-8"?>
<!DOCTYPE svg PUBLIC "-//W3C//DTD SVG 1.1//EN" "http://www.w3.org/Graphics/SVG/1.1/DTD/svg11.dtd">
<svg xmlns="http://www.w3.org/2000/svg" xmlns:xlink="http://www.w3.org/1999/xlink" version="1.1" baseProfile="full" width="76" height="76" viewBox="0 0 76.00 76.00" enable-background="new 0 0 76.00 76.00" xml:space="preserve">
	<path fill="#000000" fill-opacity="1" stroke-width="0.2" stroke-linejoin="round" d="M 38,20.5833L 53.8333,38L 33.25,58.5833L 15.8333,41.1667L 24.1458,32.8542C 24.1458,32.8542 42.3542,38.3958 44.3333,34.4375C 47.5,29.6875 39.5833,28.5 39.5833,30.0833C 41.1667,31.6667 42.3541,33.6459 42.3541,33.6459C 42.3541,33.6459 22.1667,33.25 19,25.3333C 17.4167,19 36.0208,22.5625 36.0208,22.5625L 38,20.5833 Z M 33.25,24.9375C 33.25,24.9375 23.3542,24.1459 23.3542,25.7292C 23.3542,27.3125 29.2917,28.1042 29.2917,28.1042L 33.25,24.9375 Z M 53.8333,36.4167L 42.75,23.75C 42.75,23.75 51.5395,29.9786 53.0416,30.4792C 54.2291,30.875 57,28.5 60.1667,30.0833C 63.3333,31.6667 60.1666,35.2292 60.1666,33.6459C 60.1666,32.0625 55.4167,33.25 55.4167,33.25C 63.3333,34.8333 64.9166,38 63.3333,39.5833C 61.75,41.1667 59.7708,41.1667 59.7708,39.5833C 59.7708,38 53.8333,36.4167 53.8333,36.4167 Z "/>
</svg>
