<?xml version="1.0" encoding="utf-8"?>
<!DOCTYPE svg PUBLIC "-//W3C//DTD SVG 1.1//EN" "http://www.w3.org/Graphics/SVG/1.1/DTD/svg11.dtd">
<svg xmlns="http://www.w3.org/2000/svg" xmlns:xlink="http://www.w3.org/1999/xlink" version="1.1" baseProfile="full" width="76" height="76" viewBox="0 0 76.00 76.00" enable-background="new 0 0 76.00 76.00" xml:space="preserve">
	<path fill="#000000" fill-opacity="1" stroke-linejoin="round" d="M 28.0001,21.9997L 48,21.9997C 52.9706,21.9997 57,32.0293 57,36.9999L 57,39.0001C 57,43.9707 52.9706,54 48,54L 28.0001,54C 23.0295,54 19.0001,43.9707 19.0001,39.0001L 19.0001,36.9999C 19.0001,32.0293 23.0295,21.9997 28.0001,21.9997 Z M 30.5,30C 29.6716,30 29,30.6716 29,31.5L 29,38.5C 29,39.3284 29.6716,40 30.5,40C 31.3284,40 32,39.3284 32,38.5L 32,31.5C 32,30.6716 31.3284,30 30.5,30 Z M 45.5,31C 44.6716,31 44,31.6716 44,32.5L 44,38.5C 44,39.3284 44.6716,40 45.5,40C 46.3284,40 47,39.3284 47,38.5L 47,32.5C 47,31.6716 46.3284,31 45.5,31 Z M 38.5,44L 37.5,44C 35.567,44 34,46.067 34,48L 34,49C 34,50.1046 34.8954,51 36,51L 40,51C 41.1046,51 42,50.1046 42,49L 42,48C 42,46.067 40.433,44 38.5,44 Z "/>
</svg>
