<?xml version="1.0" encoding="utf-8"?>
<!DOCTYPE svg PUBLIC "-//W3C//DTD SVG 1.1//EN" "http://www.w3.org/Graphics/SVG/1.1/DTD/svg11.dtd">
<svg xmlns="http://www.w3.org/2000/svg" xmlns:xlink="http://www.w3.org/1999/xlink" version="1.1" baseProfile="full" width="76" height="76" viewBox="0 0 76.00 76.00" enable-background="new 0 0 76.00 76.00" xml:space="preserve">
	<path fill="#000000" fill-opacity="1" stroke-width="0.2" stroke-linejoin="round" d="M 39.9317,58.3617L 34.9282,58.3617L 34.9282,53.5994C 33.2003,53.5096 31.5894,53.2632 30.0958,52.8601C 28.6021,52.4569 27.4094,51.9849 26.5176,51.4439L 28.004,45.527C 29.0485,46.1374 30.2723,46.6613 31.6755,47.0986C 33.0786,47.5359 34.6009,47.7647 36.2423,47.785C 37.7444,47.7775 38.9896,47.4974 39.9779,46.9446C 40.9661,46.3919 41.4785,45.6114 41.515,44.6032C 41.5111,43.6442 41.0219,42.8167 40.0474,42.1206C 39.0728,41.4246 37.636,40.7639 35.7369,40.1384C 33.0384,39.25 30.8876,38.076 29.2847,36.6167C 27.6817,35.1573 26.8607,33.2007 26.8217,30.747C 26.8327,28.4387 27.5742,26.4853 29.046,24.8868C 30.5179,23.2883 32.6538,22.2213 35.4538,21.6859L 35.4538,16.8783L 40.4195,16.8783L 40.4195,21.3317C 42.082,21.395 43.5073,21.5847 44.6955,21.901C 45.8837,22.2172 46.8926,22.5841 47.7221,23.0015L 46.2442,28.7456C 45.6405,28.4013 44.7296,28.0248 43.5116,27.616C 42.2936,27.2073 40.6959,26.9847 38.7187,26.9483C 37.0998,26.9804 35.9625,27.2885 35.3066,27.8726C 34.6508,28.4567 34.3347,29.124 34.3583,29.8746C 34.3385,30.6754 34.8239,31.4088 35.8143,32.0749C 36.8047,32.741 38.4191,33.4616 40.6573,34.2367C 43.6669,35.2898 45.8259,36.5835 47.1343,38.1177C 48.4428,39.652 49.0819,41.5743 49.0517,43.8847C 49.0508,46.2045 48.2891,48.2067 46.7665,49.8912C 45.2439,51.5757 42.9656,52.6781 39.9317,53.1984L 39.9317,58.3617 Z M 64.7795,60.5369C 63.4888,62.069 62.069,63.4888 60.5369,64.7795L 46.9073,51.15C 47.5071,50.7466 48.0376,50.2898 48.4988,49.7796C 49.4561,48.7205 50.1126,47.5359 50.4683,46.2257L 64.7795,60.5369 Z M 11.2205,15.4631C 12.5112,13.931 13.931,12.5112 15.4631,11.2205L 28.1548,23.9122L 27.5284,24.5252C 26.2306,25.9346 25.7507,27.87 25.5886,29.8313L 11.2205,15.4631 Z "/>
</svg>
