<?xml version="1.0" encoding="utf-8"?>
<!DOCTYPE svg PUBLIC "-//W3C//DTD SVG 1.1//EN" "http://www.w3.org/Graphics/SVG/1.1/DTD/svg11.dtd">
<svg xmlns="http://www.w3.org/2000/svg" xmlns:xlink="http://www.w3.org/1999/xlink" version="1.1" baseProfile="full" width="76" height="76" viewBox="0 0 76.00 76.00" enable-background="new 0 0 76.00 76.00" xml:space="preserve">
	<path fill="#FFFFFF" fill-opacity="1" stroke-width="0.2" stroke-linejoin="round" d="M 19,20.5833L 57,20.5834L 57,23.75L 19,23.75L 19,20.5833 Z M 19,26.9167L 56.9999,26.9167L 56.9999,30.0834L 19,30.0834L 19,26.9167 Z M 19,33.2501L 56.9999,33.2501L 56.9999,36.4167L 19,36.4167L 19,33.2501 Z M 19,39.5834L 57,39.5834L 57,42.75L 19,42.75L 19,39.5834 Z M 19,45.9167L 57,45.9167L 57,49.0833L 19,49.0834L 19,45.9167 Z M 19,52.25L 57,52.25L 57,55.4167L 19,55.4167L 19,52.25 Z "/>
</svg>
