<?xml version="1.0" encoding="utf-8"?>
<!DOCTYPE svg PUBLIC "-//W3C//DTD SVG 1.1//EN" "http://www.w3.org/Graphics/SVG/1.1/DTD/svg11.dtd">
<svg xmlns="http://www.w3.org/2000/svg" xmlns:xlink="http://www.w3.org/1999/xlink" version="1.1" baseProfile="full" width="76" height="76" viewBox="0 0 76.00 76.00" enable-background="new 0 0 76.00 76.00" xml:space="preserve">
	<path fill="#000000" fill-opacity="1" stroke-width="0.2" stroke-linejoin="round" d="M 44.4519,19C 47.6019,19 50.1556,21.5536 50.1556,24.7037C 50.1556,27.8538 47.6019,30.4074 44.4519,30.4074C 41.3018,30.4074 38.7482,27.8538 38.7482,24.7037C 38.7482,21.5536 41.3018,19 44.4519,19 Z M 38.7482,38.3926C 37.9877,38.7728 36.4667,41.8148 36.4667,41.8148C 36.4667,41.8148 35.7062,42.9555 35.3259,47.5185L 31.9037,46.3777L 33.0445,40.6741C 33.0445,40.6741 35.3259,32.6889 39.8889,32.689L 49.0147,32.689C 53.5778,32.6889 55.8593,40.6741 55.8593,40.6741L 57,46.3778L 53.5778,47.5185C 53.1975,42.9556 52.4371,41.8148 52.4371,41.8148C 52.4371,41.8148 50.9161,38.7728 50.1556,38.3926L 50.6165,48.7524C 48.8824,49.4288 46.9957,49.8 45.0222,49.8C 42.6167,49.8 40.3399,49.2485 38.3116,48.2649L 38.7482,38.3926 Z M 24,37L 23,37.0328L 23,35.0289L 24,35C 27.1225,35 30.0483,35.8418 32.563,37.3109L 31.9148,39.2557C 29.6174,37.8259 26.9051,37 24,37 Z M 38.9672,53L 39,52L 38.9368,50.614L 40.0688,50.9929L 40.8955,53L 38.9672,53 Z M 26,57L 19,57L 19,50L 23,50C 24.6568,50 26,51.3432 26,53L 26,57 Z M 23.5,45C 27.6421,45 31,48.3579 31,52.5L 30.9836,53L 28.9775,53L 28.9999,52.5001C 28.9999,49.4625 26.5375,47.0001 23.4999,47.0001L 23,47.0225L 23,45.0164L 23.5,45 Z M 24,40C 26.6829,40 29.1603,40.8805 31.1588,42.3684L 30.9932,44.852C 29.19,43.0876 26.722,42 24,42L 23,42.0494L 23,40.0411L 24,40 Z M 36,52L 35.9589,53L 33.9506,53L 34,52C 34,50.9105 33.8257,49.8616 33.5035,48.8798L 35.6663,49.1781C 35.8844,50.0831 36,51.0281 36,52 Z "/>
</svg>
