<?xml version="1.0" encoding="utf-8"?>
<!DOCTYPE svg PUBLIC "-//W3C//DTD SVG 1.1//EN" "http://www.w3.org/Graphics/SVG/1.1/DTD/svg11.dtd">
<svg xmlns="http://www.w3.org/2000/svg" xmlns:xlink="http://www.w3.org/1999/xlink" version="1.1" baseProfile="full" width="76" height="76" viewBox="0 0 76.00 76.00" enable-background="new 0 0 76.00 76.00" xml:space="preserve">
	<path fill="#000000" fill-opacity="1" stroke-width="0.2" stroke-linejoin="round" d="M 19,19L 31,19L 31,27L 19,27L 19,19 Z M 33,19L 43,19L 43,23L 33,23L 33,19 Z M 57,19L 57,23L 45,23L 45,19L 57,19 Z M 19,29L 31,29L 31,33L 19,33L 19,29 Z M 33,25L 43,25L 43,29L 33,29L 33,25 Z M 57,25L 57,29L 45,29L 45,25L 57,25 Z M 19,35L 31,35L 31,39L 19,39L 19,35 Z M 33,31L 43,31L 43,39L 33,39L 33,31 Z M 57,31L 57,35L 45,35L 45,31L 57,31 Z M 19,41L 31,41L 31,45L 19,45L 19,41 Z M 33,41L 43,41L 43,45L 33,45L 33,41 Z M 57,37L 57,45L 45,45L 45,37L 57,37 Z M 19,47L 31,47L 31,51L 19,51L 19,47 Z M 33,47L 43,47L 43,51L 33,51L 33,47 Z M 57,47L 57,51L 45,51L 45,47L 57,47 Z M 19,53L 31,53L 31,57L 19,57L 19,53 Z M 33,53L 43,53L 43,57L 33,57L 33,53 Z M 57,53L 57,57L 45,57L 45,53L 57,53 Z "/>
</svg>
