<?xml version="1.0" encoding="utf-8"?>
<!DOCTYPE svg PUBLIC "-//W3C//DTD SVG 1.1//EN" "http://www.w3.org/Graphics/SVG/1.1/DTD/svg11.dtd">
<svg xmlns="http://www.w3.org/2000/svg" xmlns:xlink="http://www.w3.org/1999/xlink" version="1.1" baseProfile="full" width="76" height="76" viewBox="0 0 76.00 76.00" enable-background="new 0 0 76.00 76.00" xml:space="preserve">
	<path fill="#000000" fill-opacity="1" stroke-width="0.2" stroke-linejoin="round" d="M 61.9265,41.022L 53.0007,43.0713C 53.6708,41.0949 53.9557,38.9728 53.7924,36.8188L 61.9265,41.022 Z M 52.7817,57.0555L 45.0225,52.1939C 46.9628,51.2366 48.6434,49.9111 50.0017,48.3301L 52.7817,57.0555 Z M 34.978,61.9265L 32.9287,53.0007C 34.9051,53.6708 37.0272,53.9557 39.1812,53.7924L 34.978,61.9265 Z M 18.9445,52.7817L 23.8061,45.0225C 24.7634,46.9629 26.0889,48.6435 27.6699,50.0017L 18.9445,52.7817 Z M 14.0735,34.978L 22.9993,32.9288C 22.3292,34.9052 22.0443,37.0272 22.2076,39.1812L 14.0735,34.978 Z M 23.2183,18.9445L 30.9775,23.8062C 29.0371,24.7634 27.3565,26.0889 25.9983,27.6699L 23.2183,18.9445 Z M 41.022,14.0735L 43.0712,22.9993C 41.0948,22.3292 38.9728,22.0443 36.8188,22.2076L 41.022,14.0735 Z M 57.0555,23.2183L 52.1938,30.9775C 51.2366,29.0371 49.9111,27.3566 48.3301,25.9983L 57.0555,23.2183 Z M 38,25.3333C 44.9956,25.3333 50.6667,31.0044 50.6667,38C 50.6667,44.9956 44.9956,50.6667 38,50.6667C 31.0044,50.6667 25.3333,44.9956 25.3333,38C 25.3333,31.0044 31.0044,25.3333 38,25.3333 Z "/>
</svg>
