<?xml version="1.0" encoding="utf-8"?>
<!DOCTYPE svg PUBLIC "-//W3C//DTD SVG 1.1//EN" "http://www.w3.org/Graphics/SVG/1.1/DTD/svg11.dtd">
<svg xmlns="http://www.w3.org/2000/svg" xmlns:xlink="http://www.w3.org/1999/xlink" version="1.1" baseProfile="full" width="76" height="76" viewBox="0 0 76.00 76.00" enable-background="new 0 0 76.00 76.00" xml:space="preserve">
	<g>
		<path fill="#000000" fill-opacity="1" stroke-linejoin="round" d="M 28.0738,19.1L 23.7802,19.1L 20.7934,37.7333L 23.4868,37.7333L 23.9935,34.5083L 27.5938,34.5083L 28.1005,37.7333L 31.0606,37.7333L 28.0738,19.1 Z M 25.7803,22.4268L 27.1937,31.925L 24.3669,31.925L 25.7803,22.4268 Z "/>
		<path fill="#000000" fill-opacity="1" stroke-linejoin="round" d="M 41.7633,37.7333C 41.6217,37.3862 41.5317,37.0289 41.4933,36.6615C 41.455,36.294 41.4383,35.8824 39.5188,28.4989C 40.7974,27.8973 41.4301,26.6552 41.4169,24.7728L 41.4169,23.3318C 41.4264,21.9146 41.0845,20.8548 40.3912,20.1523C 39.698,19.4498 38.5966,19.0991 37.0869,19.1L 32.6767,19.1L 32.6767,37.7333L 35.5767,37.7333L 35.5767,30L 36.6015,30C 37.2724,29.9904 38.5686,36.6643 38.6158,36.9633C 38.6631,37.2624 38.7268,37.5191 38.807,37.7333L 41.7633,37.7333 Z M 37.006,21.7333C 38.0354,21.7072 38.5388,22.3361 38.5163,23.62L 38.5163,25.4278C 38.5113,26.1505 38.3528,26.6571 38.041,26.9475C 37.7292,27.2379 37.2943,27.3776 36.7363,27.3667L 35.5767,27.3667L 35.5767,21.7333L 37.006,21.7333 Z "/>
		<path fill="#000000" fill-opacity="1" stroke-linejoin="round" d="M 42.8365,21.7333L 45.9033,21.7333L 45.9033,37.7333L 48.8033,37.7333L 48.8033,21.7333L 51.8702,21.7333L 51.8702,19.1L 42.8365,19.1L 42.8365,21.7333 Z "/>
		<rect x="51.955" y="34.8583" fill="#000000" fill-opacity="1" stroke-linejoin="round" width="2.85" height="2.85"/>
		<path fill="#000000" fill-opacity="1" stroke-linejoin="round" d="M 27.45,50.8057L 27.45,53.5047C 27.4447,54.1716 27.2993,54.6461 27.0139,54.9284C 26.7284,55.2107 26.3349,55.3479 25.8332,55.34C 25.3316,55.3479 24.9381,55.2107 24.6527,54.9284C 24.3673,54.6461 24.222,54.1716 24.2167,53.5047L 24.2167,43.3026C 24.222,42.6346 24.3673,42.1555 24.6527,41.8652C 24.9381,41.575 25.3316,41.4333 25.8332,41.44C 26.3349,41.4333 26.7284,41.575 27.0139,41.8652C 27.2993,42.1555 27.4447,42.6346 27.45,43.3026L 27.45,45.1733L 30.0833,45.1733L 30.0833,43.3989C 30.085,41.9289 29.7272,40.7982 29.0097,40.0068C 28.2923,39.2154 27.2051,38.8153 25.7482,38.8067C 24.2706,38.8153 23.1627,39.2154 22.4242,40.0068C 21.6858,40.7982 21.3166,41.9289 21.3167,43.3989L 21.3167,53.2846C 21.3166,54.8012 21.6858,55.9602 22.4242,56.7615C 23.1627,57.5628 24.2706,57.9667 25.7482,57.9733C 27.2051,57.9667 28.2923,57.5628 29.0097,56.7615C 29.7272,55.9602 30.085,54.8012 30.0833,53.2846L 30.0833,50.736L 27.45,50.8057 Z "/>
		<path fill="#000000" fill-opacity="1" stroke-linejoin="round" d="M 34.6167,43.2992C 34.622,42.6325 34.7673,42.1543 35.0527,41.8645C 35.3381,41.5748 35.7316,41.4333 36.2332,41.44C 36.7349,41.4333 37.1284,41.5748 37.4139,41.8645C 37.6993,42.1543 37.8447,42.6325 37.85,43.2992L 37.85,53.4814C 37.8447,54.148 37.6993,54.6262 37.4139,54.9157C 37.1284,55.2053 36.7349,55.3467 36.2332,55.34C 35.7316,55.3467 35.3381,55.2053 35.0527,54.9157C 34.7673,54.6262 34.622,54.148 34.6167,53.4814L 34.6167,43.2992 Z M 31.7167,53.2928C 31.7198,54.7982 32.1024,55.9527 32.8645,56.7562C 33.6266,57.5598 34.7495,57.9655 36.2332,57.9733C 37.717,57.9655 38.84,57.5598 39.6021,56.7562C 40.3642,55.9527 40.7469,54.7982 40.75,53.2928L 40.75,43.4878C 40.7469,41.9821 40.3643,40.8274 39.6021,40.0238C 38.84,39.2202 37.717,38.8145 36.2332,38.8067C 34.7495,38.8145 33.6266,39.2202 32.8645,40.0238C 32.1024,40.8274 31.7198,41.9821 31.7167,43.4878L 31.7167,53.2928 Z "/>
		<path fill="#000000" fill-opacity="1" stroke-linejoin="round" d="M 46.7794,39.0733L 42.675,39.0733L 42.675,57.7067L 45.2583,57.7067L 45.2583,44.53L 47.4465,57.7067L 50.2217,57.7067L 52.25,44.3437L 52.25,57.7067L 54.8833,57.7067L 54.8833,39.0733L 50.9421,39.0733L 48.9408,52.3029L 46.7794,39.0733 Z "/>
	</g>
</svg>
