<?xml version="1.0" encoding="utf-8"?>
<!DOCTYPE svg PUBLIC "-//W3C//DTD SVG 1.1//EN" "http://www.w3.org/Graphics/SVG/1.1/DTD/svg11.dtd">
<svg xmlns="http://www.w3.org/2000/svg" xmlns:xlink="http://www.w3.org/1999/xlink" version="1.1" baseProfile="full" width="76" height="76" viewBox="0 0 76.00 76.00" enable-background="new 0 0 76.00 76.00" xml:space="preserve">
	<path fill="#000000" fill-opacity="1" stroke-width="0.2" stroke-linejoin="round" d="M 22,17L 54,17C 56.6233,17 59,19.3767 59,22L 59,54C 59,56.6234 56.6233,59 54,59L 22,59C 19.3766,59 17,56.6234 17,54L 17,22C 17,19.3767 19.3766,17 22,17 Z M 49.3472,47.7639C 49.0833,48.0278 49.0833,48.5556 49.0833,49.0833L 49.0833,50.6667L 49.0833,52.25L 49.0833,53.8333C 49.0833,54.3611 49.0833,54.8889 49.3472,55.1528C 49.6111,55.4167 50.1389,55.4167 50.6667,55.4167L 52.25,55.4167C 52.7778,55.4167 53.3056,55.4167 53.5694,55.1528C 53.8333,54.8889 53.8333,54.3611 53.8333,53.8333L 53.8333,52.25L 53.8333,50.6667L 53.8333,49.0833C 53.8333,48.5556 53.8333,48.0278 53.5694,47.7639C 53.3056,47.5 52.7778,47.5 52.25,47.5L 50.6667,47.5C 50.1389,47.5 49.6111,47.5 49.3472,47.7639 Z M 50.6666,49.0834L 52.25,49.0834L 52.25,50.6667L 50.6666,50.6667L 50.6666,49.0834 Z M 50.6666,53.8333L 50.6666,52.25L 52.25,52.25L 52.25,53.8333L 50.6666,53.8333 Z M 30.7722,49.0833L 34.0206,49.0833L 38,41.1588L 41.9753,49.0833L 45.2278,49.0833L 39.6263,37.9215L 44.7022,27.8033L 41.4496,27.8033L 38,34.6796L 34.5462,27.8033L 31.2978,27.8033L 36.3737,37.9215L 30.7722,49.0833 Z "/>
</svg>
