<?xml version="1.0" encoding="utf-8"?>
<!DOCTYPE svg PUBLIC "-//W3C//DTD SVG 1.1//EN" "http://www.w3.org/Graphics/SVG/1.1/DTD/svg11.dtd">
<svg xmlns="http://www.w3.org/2000/svg" xmlns:xlink="http://www.w3.org/1999/xlink" version="1.1" baseProfile="full" width="76" height="76" viewBox="0 0 76.00 76.00" enable-background="new 0 0 76.00 76.00" xml:space="preserve">
	<path fill="#000000" fill-opacity="1" stroke-width="0.2" stroke-linejoin="round" d="M 19,34.0001L 20,34.0001L 20,35.0001L 19,35.0001L 19,34.0001 Z M 18.9999,36.0002L 19.9999,36.0002L 19.9999,37.0002L 18.9999,37.0002L 18.9999,36.0002 Z M 18.9999,38.0002L 19.9999,38.0002L 19.9999,39.0002L 18.9999,39.0002L 18.9999,38.0002 Z M 18.9999,40.0002L 19.9999,40.0002L 19.9999,41.0002L 20.9999,41.0002L 20.9999,42.0002L 19.9999,42.0002L 19.9999,41.0002L 18.9999,41.0002L 18.9999,40.0002 Z M 20.9999,35.0002L 20.9999,34.0002L 21.9998,34.0002L 21.9998,35.0002L 20.9999,35.0002 Z M 22.9998,35.0002L 22.9998,34.0002L 23.9998,34.0002L 23.9998,35.0002L 22.9998,35.0002 Z M 24.9998,35.0002L 24.9998,34.0002L 25.9998,34.0002L 25.9998,35.0002L 26.9998,35.0002L 26.9998,36.0002L 25.9998,36.0002L 25.9998,35.0002L 24.9998,35.0002 Z M 25.9999,37.0002L 26.9999,37.0002L 26.9999,38.0002L 25.9999,38.0002L 25.9999,37.0002 Z M 25.9999,39.0002L 26.9999,39.0002L 26.9999,40.0002L 25.9999,40.0002L 25.9999,39.0002 Z M 25.9999,41.0002L 26.9999,41.0002L 26.9999,42.0002L 25.9999,42.0002L 25.9999,41.0002 Z M 24.9999,42.0002L 23.9999,42.0002L 23.9999,41.0002L 24.9999,41.0002L 24.9999,42.0002 Z M 22.9999,42.0002L 21.9999,42.0002L 21.9999,41.0002L 22.9999,41.0002L 22.9999,42.0002 Z M 30.9999,34.0002L 31.9999,34.0002L 31.9999,35.0002L 30.9999,35.0002L 30.9999,34.0002 Z M 30.9999,36.0002L 31.9999,36.0002L 31.9999,37.0002L 30.9999,37.0002L 30.9999,36.0002 Z M 30.9999,38.0001L 31.9999,38.0001L 31.9999,39.0001L 30.9999,39.0001L 30.9999,38.0001 Z M 30.9999,40.0001L 31.9999,40.0001L 31.9999,41.0001L 32.9999,41.0001L 32.9999,42.0001L 31.9999,42.0001L 31.9999,41.0001L 30.9999,41.0001L 30.9999,40.0001 Z M 32.9999,35.0001L 32.9999,34.0001L 33.9999,34.0001L 33.9999,35.0001L 32.9999,35.0001 Z M 34.9999,35.0001L 34.9999,34.0001L 35.9999,34.0001L 35.9999,35.0001L 34.9999,35.0001 Z M 36.9999,35.0001L 36.9999,34.0001L 37.9999,34.0001L 37.9999,35.0001L 36.9999,35.0001 Z M 56.9998,35.0001L 56.9998,36.0001L 55.9998,36.0001L 55.9998,35.0001L 54.9999,35.0001L 54.9999,34.0001L 55.9999,34.0001L 55.9999,35.0001L 56.9998,35.0001 Z M 55.9998,37.0001L 56.9998,37.0001L 56.9998,38.0001L 55.9998,38.0001L 55.9998,37.0001 Z M 55.9998,39.0001L 56.9998,39.0001L 56.9998,40.0001L 55.9998,40.0001L 55.9998,39.0001 Z M 37.9999,41.0001L 38.9999,41.0001L 38.9999,42.0001L 37.9999,42.0001L 37.9999,41.0001 Z M 36.9999,42.0001L 35.9999,42.0001L 35.9999,41.0001L 36.9999,41.0001L 36.9999,42.0001 Z M 34.9999,42.0001L 33.9999,42.0001L 33.9999,41.0001L 34.9999,41.0001L 34.9999,42.0001 Z M 40,42.0001L 40,41.0001L 41,41.0001L 41,42.0001L 40,42.0001 Z M 41,35.0001L 41,34.0001L 42,34.0001L 42,35.0001L 41,35.0001 Z M 42.9999,35.0001L 42.9999,34.0001L 43.9999,34.0001L 43.9999,35.0001L 42.9999,35.0001 Z M 44.9999,35.0001L 44.9999,34.0001L 45.9999,34.0001L 45.9999,35.0001L 44.9999,35.0001 Z M 45.9999,41.0001L 46.9999,41.0001L 46.9999,42.0001L 45.9999,42.0001L 45.9999,41.0001 Z M 44.9999,42.0001L 43.9999,42.0001L 43.9999,41.0001L 44.9999,41.0001L 44.9999,42.0001 Z M 42.9999,42.0001L 42,42.0001L 42,41.0001L 42.9999,41.0001L 42.9999,42.0001 Z M 39,35L 39,34L 40,34L 40,35L 39,35 Z M 47.9999,41L 48.9999,41L 48.9999,42L 47.9999,42L 47.9999,41 Z M 50,42L 50,41L 51,41L 51,42L 50,42 Z M 56,41L 57,41L 57,42L 56,42L 56,41 Z M 55,42L 54,42L 54,41L 55,41L 55,42 Z M 53,42L 52,42L 52,41L 53,41L 53,42 Z M 47,35L 47,34L 48,34L 48,35L 47,35 Z M 51,35L 51,34L 52,34L 52,35L 51,35 Z M 53,35L 53,34L 54,34L 54,35L 53,35 Z M 49,35L 49,34L 50,34L 50,35L 49,35 Z M 19,23L 27,23L 27,31L 19,31L 19,23 Z M 30.9999,23.0003L 56.9997,23.0003L 56.9997,31.0003L 30.9999,31.0003L 30.9999,23.0003 Z M 19,45.0001L 26.9999,45.0001L 26.9999,53.0001L 19,53.0001L 19,45.0001 Z M 30.9999,45.0001L 56.9998,45.0001L 56.9998,53.0001L 30.9999,53.0001L 30.9999,45.0001 Z "/>
</svg>
