<?xml version="1.0" encoding="utf-8"?>
<!DOCTYPE svg PUBLIC "-//W3C//DTD SVG 1.1//EN" "http://www.w3.org/Graphics/SVG/1.1/DTD/svg11.dtd">
<svg xmlns="http://www.w3.org/2000/svg" xmlns:xlink="http://www.w3.org/1999/xlink" version="1.1" baseProfile="full" width="76" height="76" viewBox="0 0 76.00 76.00" enable-background="new 0 0 76.00 76.00" xml:space="preserve">
	<path fill="#000000" fill-opacity="1" stroke-width="0.2" stroke-linejoin="round" d="M 63.3333,55.4167L 12.6667,55.4167L 12.6667,45.9167L 17.4167,45.9167L 17.4167,42.75L 20.5833,42.75L 20.5833,44.3333L 22.1667,44.3333L 22.1667,34.8333L 23.75,34.8333L 23.75,31.6667L 28.5,31.6667L 28.5,47.5L 31.6667,47.5L 31.6667,41.1667L 34.8333,41.1667L 34.8333,33.25L 38,33.25L 38,44.3333L 39.5833,44.3333L 39.9277,44.3333C 44.3333,38 40.375,25.3333 40.375,25.3333L 37.2083,25.3334C 37.2083,25.3334 37.2083,22.5625 35.625,22.5625L 34.8333,21.375L 40.7708,19.3959L 40.7708,17.4167L 41.8924,17.4167C 42.5778,16.0202 43.0559,14.2132 43.1458,11.875L 43.9375,11.875C 43.9375,11.875 44.0469,14.7188 45.3005,17.4167L 46.3125,17.4167L 46.3125,19.3958L 52.25,21.375L 51.4583,22.9584C 51.4583,22.9584 49.875,23.75 49.875,25.3334L 46.7083,25.3333C 46.7083,25.3333 42.75,38 47.1556,44.3333L 49.0833,44.3333L 49.0833,39.5833L 49.0833,38L 49.0833,36.4167L 52.25,36.4167L 52.25,38L 53.8333,38L 53.8333,44.3333L 57,44.3333L 56.9999,49.0834L 58.5832,49.0834L 58.5832,47.5001L 61.7499,47.5001L 61.7499,50.6667L 63.3332,50.6667L 63.3333,55.4167 Z "/>
</svg>
