<?xml version="1.0" encoding="utf-8"?>
<!DOCTYPE svg PUBLIC "-//W3C//DTD SVG 1.1//EN" "http://www.w3.org/Graphics/SVG/1.1/DTD/svg11.dtd">
<svg xmlns="http://www.w3.org/2000/svg" xmlns:xlink="http://www.w3.org/1999/xlink" version="1.1" baseProfile="full" width="76" height="76" viewBox="0 0 76.00 76.00" enable-background="new 0 0 76.00 76.00" xml:space="preserve">
	<path fill="#000000" fill-opacity="1" stroke-width="0.2" stroke-linejoin="round" d="M 22.1666,38L 26.9167,38L 26.9167,34.8333L 23.75,34.8334L 23.75,22.1667L 52.25,22.1667L 52.25,34.8334L 49.0833,34.8334L 49.0833,38L 53.8333,38L 53.8333,55.4167L 22.1667,55.4167L 22.1666,38 Z M 31.6667,38L 31.6667,31.6667L 30.0833,31.6667L 30.0833,38L 31.6667,38 Z M 31.6667,25.3333L 41.9583,25.3333L 49.0833,32.4583L 49.0833,33.25L 50.6666,33.25L 50.6666,23.7501L 25.3333,23.7501L 25.3333,33.25L 26.9167,33.25L 26.9167,28.5L 31.6667,28.5L 31.6667,25.3333 Z M 25.3333,41.1668L 25.3333,52.25L 50.6666,52.25L 50.6666,41.1667L 25.3333,41.1668 Z M 17.4166,60.1667L 17.4166,15.8334L 58.5833,15.8334L 58.5833,60.1667L 17.4166,60.1667 Z M 55.4166,19L 20.5833,19L 20.5833,57L 55.4166,57L 55.4166,19 Z M 31.6667,44.3333L 34.8333,44.3334L 34.8333,45.9167L 41.1666,45.9167L 41.1666,44.3334L 44.3333,44.3333L 44.3333,49.0833L 31.6667,49.0833L 31.6667,44.3333 Z M 34.8333,28.5L 34.8333,38L 45.9167,38L 45.9167,36.4166L 38,36.4166L 38,28.5L 34.8333,28.5 Z M 41.1667,28.5L 41.1667,33.25L 45.9167,33.25L 41.1667,28.5 Z "/>
</svg>
