<?xml version="1.0" encoding="utf-8"?>
<!DOCTYPE svg PUBLIC "-//W3C//DTD SVG 1.1//EN" "http://www.w3.org/Graphics/SVG/1.1/DTD/svg11.dtd">
<svg xmlns="http://www.w3.org/2000/svg" xmlns:xlink="http://www.w3.org/1999/xlink" version="1.1" baseProfile="full" width="76" height="76" viewBox="0 0 76.00 76.00" enable-background="new 0 0 76.00 76.00" xml:space="preserve">
	<path fill="#000000" fill-opacity="1" stroke-width="0.2" stroke-linejoin="round" d="M 30.0833,19C 36.2045,19 41.1667,23.9622 41.1667,30.0833C 41.1667,32.0512 40.6538,33.8993 39.7545,35.5012L 55.4167,51.1634L 50.9383,55.6417L 46.46,60.1201L 44.2208,57.8809L 48.6992,53.4025L 46.6356,51.339L 44.1412,53.8333L 41.9021,51.5942L 44.3964,49.0998L 42.6374,47.3409L 39.6066,50.3717L 36.2478,47.013L 39.2787,43.9821L 35.2093,39.9127C 33.6763,40.7137 31.9327,41.1667 30.0833,41.1667C 23.9622,41.1667 19,36.2045 19,30.0833C 19,23.9622 23.9622,19 30.0833,19 Z M 26.9167,24.5417C 25.605,24.5417 24.5417,25.605 24.5417,26.9167C 24.5417,28.2284 25.605,29.2917 26.9167,29.2917C 28.2283,29.2917 29.2917,28.2284 29.2917,26.9167C 29.2917,25.605 28.2283,24.5417 26.9167,24.5417 Z "/>
</svg>
