<?xml version="1.0" encoding="utf-8"?>
<!DOCTYPE svg PUBLIC "-//W3C//DTD SVG 1.1//EN" "http://www.w3.org/Graphics/SVG/1.1/DTD/svg11.dtd">
<svg xmlns="http://www.w3.org/2000/svg" xmlns:xlink="http://www.w3.org/1999/xlink" version="1.1" baseProfile="full" width="76" height="76" viewBox="0 0 76.00 76.00" enable-background="new 0 0 76.00 76.00" xml:space="preserve">
	<path fill="#000000" fill-opacity="1" stroke-width="0.2" stroke-linejoin="round" d="M 41.8,47.8166L 48.45,54.4666L 58.5042,40.375L 61.3542,43.225L 48.45,60.1667L 38.95,50.6666L 41.8,47.8166 Z M 49.0833,39.5833C 49.0833,42.965 48.0232,46.099 46.2171,48.6713L 43.3606,45.8147C 44.2166,44.4288 44.7955,42.8537 45.0203,41.1667L 41.1666,41.1667L 41.1666,38L 45.0203,38C 44.3152,32.7082 40.1251,28.5181 34.8333,27.813L 34.8333,31.6667L 31.6666,31.6667L 31.6666,27.813C 26.3748,28.5181 22.1847,32.7082 21.4796,38L 25.3333,38.0001L 25.3333,41.1667L 21.4796,41.1667C 22.1847,46.4585 26.3748,50.6487 31.6666,51.3537L 31.6666,47.5L 34.8333,47.5L 34.8333,51.3537L 36.8206,50.9122L 39.8761,53.9677C 37.8603,54.8978 35.6157,55.4167 33.25,55.4167C 24.5055,55.4167 17.4167,48.3278 17.4167,39.5833C 17.4167,31.3732 23.6656,24.6226 31.6667,23.8282L 31.6667,22.1667L 26.9167,22.1667L 26.9167,17.4167L 39.5833,17.4167L 39.5833,22.1667L 34.8333,22.1667L 34.8333,23.8282C 38.0178,24.1444 40.9247,25.404 43.2705,27.3237L 44.4129,26.1813L 42.1737,23.9421L 45.5325,20.5833L 52.25,27.3008L 48.8912,30.6596L 46.6521,28.4204L 45.5097,29.5628C 47.7433,32.2923 49.0833,35.7813 49.0833,39.5833 Z M 33.25,36.4167C 34.9988,36.4167 36.4166,37.8345 36.4166,39.5834C 36.4166,41.3323 34.9988,42.75 33.25,42.75L 26.9166,47.5L 30.0833,39.5834C 30.0833,37.8345 31.5011,36.4167 33.25,36.4167 Z "/>
</svg>
