<?xml version="1.0" encoding="utf-8"?>
<!DOCTYPE svg PUBLIC "-//W3C//DTD SVG 1.1//EN" "http://www.w3.org/Graphics/SVG/1.1/DTD/svg11.dtd">
<svg xmlns="http://www.w3.org/2000/svg" xmlns:xlink="http://www.w3.org/1999/xlink" version="1.1" baseProfile="full" width="76" height="76" viewBox="0 0 76.00 76.00" enable-background="new 0 0 76.00 76.00" xml:space="preserve">
	<path fill="#000000" fill-opacity="1" stroke-width="0.2" stroke-linejoin="round" d="M 19.0632,27.36C 24.0825,29.3708 26.8692,34.0575 26.9167,41.1667L 20.5833,41.1667L 20.5833,53.8333L 34.8334,53.8333L 34.8334,42.0533C 34.8334,38.7442 34.0575,35.5062 33.6459,33.0679C 33.2342,30.6296 32.1536,29.7706 30.404,27.3244C 28.6544,24.8781 25.9667,22.8633 22.3409,21.28L 19.0632,27.36 Z M 41.23,27.36C 46.2017,29.3708 48.9884,34.0575 49.0834,41.1667L 42.75,41.1667L 42.75,53.8333L 57,53.8333L 57,42.0533C 57,38.7442 56.2242,35.5062 55.8125,33.0679C 55.4009,30.6296 54.3361,29.7706 52.6181,27.3244C 50.9002,24.8781 48.1967,22.8633 44.5075,21.28L 41.23,27.36 Z "/>
</svg>
