<?xml version="1.0" encoding="utf-8"?>
<!DOCTYPE svg PUBLIC "-//W3C//DTD SVG 1.1//EN" "http://www.w3.org/Graphics/SVG/1.1/DTD/svg11.dtd">
<svg xmlns="http://www.w3.org/2000/svg" xmlns:xlink="http://www.w3.org/1999/xlink" version="1.1" baseProfile="full" width="76" height="76" viewBox="0 0 76.00 76.00" enable-background="new 0 0 76.00 76.00" xml:space="preserve">
	<path fill="#000000" fill-opacity="1" stroke-width="0.2" stroke-linejoin="round" d="M 20,17L 44,17L 56,29L 56,45.1515C 57.8558,47.0453 59,49.639 59,52.5C 59,58.299 54.299,63 48.5,63C 45.1554,63 42.1761,61.4363 40.2532,59L 20,59L 20,17 Z M 24,21L 24,55L 38.2994,55C 38.1038,54.1988 38,53.3615 38,52.5C 38,46.701 42.701,42 48.5,42C 49.7272,42 50.9053,42.2105 52,42.5975L 52,34L 39,34L 39,21L 24,21 Z M 43,21L 43,30L 52,30L 43,21 Z M 48.9133,58.195C 50.2416,58.195 51.2612,57.69 51.972,56.68C 52.6829,55.67 53.0383,54.2167 53.0383,52.32C 53.0383,48.5133 51.7358,46.61 49.1308,46.61C 47.7608,46.61 46.7154,47.1192 45.9945,48.1375C 45.2737,49.1558 44.9133,50.6358 44.9133,52.5775C 44.9133,56.3225 46.2466,58.195 48.9133,58.195 Z M 49.0208,48.4925C 50.0208,48.4925 50.5208,49.7942 50.5208,52.3975C 50.5208,55.0025 50.0108,56.305 48.9908,56.305C 47.9441,56.305 47.4208,55.0417 47.4208,52.515C 47.4208,49.8333 47.9541,48.4925 49.0208,48.4925 Z "/>
</svg>
