<?xml version="1.0" encoding="utf-8"?>
<!DOCTYPE svg PUBLIC "-//W3C//DTD SVG 1.1//EN" "http://www.w3.org/Graphics/SVG/1.1/DTD/svg11.dtd">
<svg xmlns="http://www.w3.org/2000/svg" xmlns:xlink="http://www.w3.org/1999/xlink" version="1.1" baseProfile="full" width="76" height="76" viewBox="0 0 76.00 76.00" enable-background="new 0 0 76.00 76.00" xml:space="preserve">
	<path fill="#000000" fill-opacity="1" stroke-width="0.2" stroke-linejoin="round" d="M 19,39.5C 19,40.8807 21.1193,42 22.5,42C 23.8807,42 24.5,40.8807 24.5,39.5L 25,25L 20,25L 19,39.5 Z M 51.9999,43C 50.9564,43 50.5374,42.4673 49.9999,41.6589C 49.4625,42.4673 48.0434,43 46.9999,43L 45.9999,43C 44.9564,43 44.2874,42.4673 43.7499,41.6589C 43.2125,42.4672 42.0436,43 41.0002,43L 40,43C 38.9563,43 37.7874,42.4672 37.25,41.6589C 37.1701,41.779 37.0819,41.893 36.9861,42L 37,42L 37,53L 51.9999,53L 51.9999,43 Z M 34.7499,43L 33.75,43C 32.7065,43 31.5374,42.4673 30.9999,41.6589C 30.4625,42.4673 29.5434,43.0001 28.4999,43.0001L 27.5,43.0001C 26.4565,43.0001 25.5374,42.4673 24.9999,41.6589C 24.4625,42.4673 24.0434,43 22.9999,43L 21.9999,43C 21.2316,43 20.5307,42.7112 20,42.2362L 20,58L 22,58L 22,45L 33,45L 33,58L 55.9999,58L 55.9999,41.8322C 55.1677,42.5425 53.9669,43 53,43L 53,55L 35.9999,55L 35.9999,53.0001L 36,53L 36,42.728C 35.6195,42.9027 35.1961,43 34.7499,43 Z M 18,58L 18,25.0001L 18,22.0001L 57.9999,22.0001L 57.9999,25.0001L 57.9999,58L 58,60L 18,60L 18,58 Z M 31.5,39.5C 31.5,40.8807 32.8692,42 34.25,42C 35.6307,42 36.75,40.8807 36.75,39.5L 37,25.0001L 32,25.0001L 31.5,39.5 Z M 44.2499,39.5C 44.2499,40.8807 45.1192,42 46.4999,42C 47.8806,42 49.4999,40.8807 49.4999,39.5L 48.9999,25.0001L 43.9999,25.0001L 44.2499,39.5 Z M 31,58L 31,47L 24,47L 24,58L 31,58 Z M 40.3432,50.3914L 39.6612,49.66L 43.3179,46.2501L 43.9999,46.9814L 40.3432,50.3914 Z M 46.5932,49.3914L 45.9112,48.66L 49.5679,45.25L 50.2499,45.9814L 46.5932,49.3914 Z M 30,51L 30,54L 28,54L 28,51L 30,51 Z "/>
</svg>
