<?xml version="1.0" encoding="utf-8"?>
<!DOCTYPE svg PUBLIC "-//W3C//DTD SVG 1.1//EN" "http://www.w3.org/Graphics/SVG/1.1/DTD/svg11.dtd">
<svg xmlns="http://www.w3.org/2000/svg" xmlns:xlink="http://www.w3.org/1999/xlink" version="1.1" baseProfile="full" width="76" height="76" viewBox="0 0 76.00 76.00" enable-background="new 0 0 76.00 76.00" xml:space="preserve">
	<path fill="#000000" fill-opacity="1" stroke-width="0.2" stroke-linejoin="round" d="M 38.3958,62.1458C 38.3958,55.8125 41.1667,49.875 41.1667,51.4583C 41.1667,53.0417 44.3333,46.7083 45.9167,43.5417C 47.5,40.375 49.0833,36.0208 49.0833,36.0208L 55.4167,36.4167C 55.4167,36.4167 57,22.5625 53.8333,20.9792C 50.6667,19.3958 47.3692,21.6132 44.3333,19.7917C 36.4167,15.0417 23.75,18.2083 25.3333,21.375C 25.3333,21.375 19,24.5417 20.5833,26.125C 20.5833,26.125 19,28.5 20.9792,30.875C 19,33.25 19.7917,35.625 20.9792,37.2083C 19.7917,39.5833 19,41.9583 23.75,43.5417C 26.7542,44.5431 34.8333,40.7708 34.8333,45.125C 34.8333,46.7083 31.6667,51.4583 31.6667,54.625C 31.6667,60.9583 38.3958,62.1458 38.3958,62.1458 Z "/>
</svg>
