<?xml version="1.0" encoding="utf-8"?>
<!DOCTYPE svg PUBLIC "-//W3C//DTD SVG 1.1//EN" "http://www.w3.org/Graphics/SVG/1.1/DTD/svg11.dtd">
<svg xmlns="http://www.w3.org/2000/svg" xmlns:xlink="http://www.w3.org/1999/xlink" version="1.1" baseProfile="full" width="76" height="76" viewBox="0 0 76.00 76.00" enable-background="new 0 0 76.00 76.00" xml:space="preserve">
	<path fill="#000000" fill-opacity="1" stroke-width="0.2" stroke-linejoin="round" d="M 20.5833,22.1667L 20.5833,53.8333L 25.3333,53.8333L 25.3333,57L 17.4167,57L 17.4167,19L 25.3333,19L 25.3333,22.1667L 20.5833,22.1667 Z M 26.9167,53.8333L 26.9167,47.5L 30.0833,47.5L 30.0833,53.8333L 55.4167,53.8333L 55.4167,34.8333L 42.75,34.8333L 42.75,22.1667L 30.0833,22.1667L 30.0833,41.1667L 26.9167,41.1667L 26.9167,22.1667L 26.9167,19L 46.7083,19L 58.5833,30.875L 58.5833,57L 26.9167,57L 26.9167,53.8333 Z M 22.1667,42.75L 39.9793,42.75L 33.2501,36.4167L 38.0001,36.4167L 48.2918,44.3334L 38.0001,52.25L 33.2501,52.25L 39.9792,45.9167L 22.1666,45.9166L 22.1667,42.75 Z M 45.9166,22.9584L 45.9167,31.6667L 54.6249,31.6667L 45.9166,22.9584 Z "/>
</svg>
