<?xml version="1.0" encoding="utf-8"?>
<!DOCTYPE svg PUBLIC "-//W3C//DTD SVG 1.1//EN" "http://www.w3.org/Graphics/SVG/1.1/DTD/svg11.dtd">
<svg xmlns="http://www.w3.org/2000/svg" xmlns:xlink="http://www.w3.org/1999/xlink" version="1.1" baseProfile="full" width="76" height="76" viewBox="0 0 76.00 76.00" enable-background="new 0 0 76.00 76.00" xml:space="preserve">
	<path fill="#000000" fill-opacity="1" stroke-linejoin="round" d="M 38,19C 48.4934,19 57,27.5066 57,38C 57,48.4934 48.4934,57 38,57C 27.5066,57 19,48.4934 19,38C 19,27.5066 27.5066,19 38,19 Z M 38,23C 29.7157,23 23,29.7157 23,38C 23,46.2843 29.7157,53 38,53C 46.2843,53 53,46.2843 53,38C 53,29.7157 46.2843,23 38,23 Z M 38,26C 44.6274,26 50,31.3726 50,38C 50,44.6274 44.6274,50 38,50C 31.3726,50 26,44.6274 26,38C 26,31.3726 31.3726,26 38,26 Z M 30,38C 30,40.6466 31.2851,42.993 33.2654,44.4492L 35,38.75L 30.4363,35.3873C 30.1536,36.2061 30,37.0851 30,38 Z M 38,46C 39.7591,46 41.3855,45.4323 42.7061,44.47L 38,41.25L 33.2938,44.47C 34.6144,45.4323 36.2409,46 38,46 Z M 46,38C 46,37.1356 45.8629,36.3033 45.6093,35.5235L 41,38.75L 42.7345,44.4493C 44.7148,42.993 46,40.6466 46,38 Z M 40,35.25L 45.5148,35.25C 44.4033,32.2134 41.5037,30.0386 38.0911,30.0005L 40,35.25 Z M 36,35.25L 37.9089,30.0005C 34.4963,30.0386 31.5967,32.2134 30.4852,35.25L 36,35.25 Z "/>
</svg>
