<?xml version="1.0" encoding="utf-8"?>
<!DOCTYPE svg PUBLIC "-//W3C//DTD SVG 1.1//EN" "http://www.w3.org/Graphics/SVG/1.1/DTD/svg11.dtd">
<svg xmlns="http://www.w3.org/2000/svg" xmlns:xlink="http://www.w3.org/1999/xlink" version="1.1" baseProfile="full" width="76" height="76" viewBox="0 0 76.00 76.00" enable-background="new 0 0 76.00 76.00" xml:space="preserve">
	<path fill="#000000" fill-opacity="1" stroke-width="0.2" stroke-linejoin="round" d="M 19,35L 19,43L 27,43L 27,35L 19,35 Z M 30.9999,35L 30.9999,43L 56.9998,43L 56.9999,35L 30.9999,35 Z M 31,32L 57,32L 57,24L 31,24L 31,32 Z M 32,31L 32,25L 56,25L 56,31L 32,31 Z M 21,33L 25,33L 25,30L 28,30L 28,26L 25,26L 25,23L 21,23L 21,26L 18,26L 18,30L 21,30L 21,33 Z M 22,32L 22,29L 19,29L 19,27L 22,27L 22,24L 24,24L 24,27L 27,27L 27,29L 24,29L 24,32L 22,32 Z M 19.0001,46L 19.0001,54L 27.0001,54L 27.0001,46L 19.0001,46 Z M 31.0001,46L 31.0001,54L 57,54L 57,46L 31.0001,46 Z "/>
</svg>
