<?xml version="1.0" encoding="utf-8"?>
<!DOCTYPE svg PUBLIC "-//W3C//DTD SVG 1.1//EN" "http://www.w3.org/Graphics/SVG/1.1/DTD/svg11.dtd">
<svg xmlns="http://www.w3.org/2000/svg" xmlns:xlink="http://www.w3.org/1999/xlink" version="1.1" baseProfile="full" width="76" height="76" viewBox="0 0 76.00 76.00" enable-background="new 0 0 76.00 76.00" xml:space="preserve">
	<path fill="#000000" fill-opacity="1" stroke-width="0.2" stroke-linejoin="round" d="M 23.9216,22.2925L 30.9309,22.2925L 40.7089,52.3818L 34.8148,52.3818L 32.0925,43.8554L 22.5386,43.8554L 19.949,52.3818L 14.2799,52.3818L 23.9216,22.2925 Z M 25.7526,32.2927L 23.4316,39.7038L 31.1545,39.7038L 28.7885,32.2927C 28.2077,30.4626 27.7169,28.4088 27.2706,26.6681L 27.1815,26.6681C 26.7348,28.4088 26.288,30.5071 25.7526,32.2927 Z M 42.7186,41.8462C 42.7186,35.8199 46.3794,30.1499 53.3437,30.1499C 60.4412,30.1499 62.7186,35.954 62.7186,40.7305C 62.7186,41.7567 62.6295,42.5606 62.5399,43.0515L 47.9868,43.0515C 48.1204,46.9808 51.2004,48.676 54.6826,48.676C 57.2272,48.676 59.0578,48.3202 60.7098,47.6948L 61.5133,51.4897C 59.6381,52.2477 57.0495,52.8735 53.9232,52.8735C 46.8702,52.8735 42.7186,48.4979 42.7186,41.8462 Z M 53.031,33.9002C 49.6379,33.9002 48.209,36.9802 47.9868,39.2121L 57.5403,39.2121C 57.5848,37.2038 56.6913,33.9002 53.031,33.9002 Z "/>
</svg>
