<?xml version="1.0" encoding="utf-8"?>
<!DOCTYPE svg PUBLIC "-//W3C//DTD SVG 1.1//EN" "http://www.w3.org/Graphics/SVG/1.1/DTD/svg11.dtd">
<svg xmlns="http://www.w3.org/2000/svg" xmlns:xlink="http://www.w3.org/1999/xlink" version="1.1" baseProfile="full" width="76" height="76" viewBox="0 0 76.00 76.00" enable-background="new 0 0 76.00 76.00" xml:space="preserve">
	<path fill="#000000" fill-opacity="1" stroke-width="0.2" stroke-linejoin="round" d="M 65.3125,47.1042L 60.9583,47.1042L 60.9583,36.1206L 55.7713,41.9117L 51.0625,36.575L 51.0625,47.1042L 46.3125,47.1042L 46.3125,29.2917L 50.1875,29.2917L 55.8125,36.0208L 61.8125,29.2917L 65.3125,29.2917L 65.3125,47.1042 Z M 29.6875,29.2917L 37.2083,29.2917C 40.7061,29.2917 43.5417,31.3769 43.5417,34.4375C 43.5417,36.3251 42.4631,37.8417 40.8159,38.7269C 43.2766,41.0447 45.5208,47.1042 45.5208,47.1042L 40.375,47.1042C 40.375,47.1042 38.3958,39.5833 35.2292,39.5833L 34.0417,39.5833L 34.0417,47.1042L 29.6875,47.1042L 29.6875,29.2917 Z M 34.0417,32.0625L 34.0417,36.4167C 38.3958,36.4167 38.7917,35.7492 38.7917,34.4375C 38.7917,33.1258 38.3958,31.6667 34.0417,32.0625 Z M 8.70833,47.1042L 15.8333,29.2917L 20.9792,29.2917L 28.8958,47.1042L 23.75,47.1042L 22.325,43.5417L 14.725,43.5417L 13.4583,47.1042L 8.70833,47.1042 Z M 18.3015,33.4829L 15.8509,40.375L 21.0583,40.375L 18.3015,33.4829 Z "/>
</svg>
