<?xml version="1.0" encoding="utf-8"?>
<!DOCTYPE svg PUBLIC "-//W3C//DTD SVG 1.1//EN" "http://www.w3.org/Graphics/SVG/1.1/DTD/svg11.dtd">
<svg xmlns="http://www.w3.org/2000/svg" xmlns:xlink="http://www.w3.org/1999/xlink" version="1.1" baseProfile="full" width="76" height="76" viewBox="0 0 76.00 76.00" enable-background="new 0 0 76.00 76.00" xml:space="preserve">
	<path fill="#000000" fill-opacity="1" stroke-linejoin="round" d="M 35.0177,28.8417C 35.0177,28.8417 36.2762,28.2696 37.0771,29.1849C 37.878,30.1002 39.9374,33.647 39.9374,37.1937C 39.9374,40.7405 39.0221,44.5161 38.1068,45.7746C 37.1915,47.0332 36.2762,47.0332 35.5897,46.5755C 34.9032,46.1179 24.2629,37.9946 23.6909,37.7658C 23.1188,37.537 22.89,38.109 23.462,41.1982C 24.0341,44.2873 23.1188,45.2026 22.3179,45.317C 21.517,45.4314 19.1144,44.7449 19,38.3379C 18.8856,31.9308 20.6017,30.9011 21.4026,30.9011C 22.9075,30.9011 34.3341,41.2168 35.1321,41.0838C 35.8185,40.9693 36.1618,36.6217 34.7888,33.1893C 33.3022,29.4728 35.0177,28.8417 35.0177,28.8417 Z M 53.4093,22.4346C 57.2525,30.0664 57.0179,37.2826 56.9873,38.0442C 57.0179,38.7077 57.2525,45.9336 53.4093,53.5653C 53.4093,53.5654 52.4083,54.7095 50.9209,54.023C 49.4336,53.3366 49.9484,51.506 49.9484,51.506C 49.9484,51.506 53.0626,45.4936 52.9803,38.109L 52.9818,37.9946C 53.0626,30.609 49.9484,24.494 49.9484,24.494C 49.9484,24.494 49.4336,22.6634 50.9209,21.9769C 52.4083,21.2905 53.4093,22.4346 53.4093,22.4346 Z M 45.9557,25.867C 49.0903,31.5875 48.8778,37.2826 48.8472,38.0442C 48.8778,38.7077 49.0903,44.1729 45.9599,50.3564C 45.9599,50.3564 44.9589,51.5006 43.4715,50.8141C 41.9841,50.1277 42.499,48.2971 42.499,48.2971C 42.499,48.2971 44.5139,45.4314 44.8402,38.109L 44.8417,37.9946C 44.6283,30.6722 42.4948,27.9264 42.4948,27.9264C 42.4948,27.9264 41.9799,26.0958 43.4673,25.4093C 44.9547,24.7228 45.9557,25.867 45.9557,25.867 Z "/>
</svg>
