<?xml version="1.0" encoding="utf-8"?>
<!DOCTYPE svg PUBLIC "-//W3C//DTD SVG 1.1//EN" "http://www.w3.org/Graphics/SVG/1.1/DTD/svg11.dtd">
<svg xmlns="http://www.w3.org/2000/svg" xmlns:xlink="http://www.w3.org/1999/xlink" version="1.1" baseProfile="full" width="76" height="76" viewBox="0 0 76.00 76.00" enable-background="new 0 0 76.00 76.00" xml:space="preserve">
	<path fill="#000000" fill-opacity="1" stroke-linejoin="round" d="M 38,19C 38,19 41,21 40,22C 40,22 42,19 40.75,24.25C 40.75,24.25 43,21 41.5,25.75C 41.5,25.75 44,22 42.25,27.25C 42.25,27.25 44,25 43,29C 43,29 45,28 43,32C 43,32 45,31 43,35C 43,35 45,35 42,39C 42,39 44,37 44,39C 44,39 46,34 46,37C 46,37 48,31 48,35C 48,35 51,30 50,34C 50,34 52,29 52,32C 52,32 56,28 54,32C 54,32 55.75,30.25 56.75,30.2501C 57.75,30.2501 57,32 55,33C 55,33 59,32 55,35C 55,35 57,35 54,37C 54,37 56,38 52,39C 52,39 56,40 51,41C 51,41 53,42 50,43C 50,43 52,44 48,45C 48,45 51,45 47,46C 47,46 52,46 49,47C 49,47 55,47 51,48C 51,48 57,48 53,49C 53.6667,49 58,49 53,50C 53,50 55,51 50,51C 50,51 54,53 48,51C 48,51 52,54 46,51C 46,51 50,53.75 44,51.75C 44,51.75 46,53 42,52C 42,52 45,53 46.25,55.5C 43.25,56.5 40,53 39,52L 39,57L 37,57L 37,52C 36,53 32.75,56.5 29.75,55.5C 31,53 34,52 34,52C 30,53 32,51.75 32,51.75C 26,53.75 30,51 30,51C 24,54 28,51 28,51C 22,53 26,51 26,51C 21,51 23,50 23,50C 22,50 22,50 20.75,49.5C 22,49 22.3333,49 23,49C 19,48 25,48 25,48C 20,47 27,47 27,47C 24,46 31,46 31,46C 24,46 28,45 28,45C 24,44 26,43 26,43C 23,42 24.5,41 24.5,41C 19.5,40 23.5,39 23.5,39C 19.5,38 21.5,37 21.5,37C 18.5,35 21,35 21,35C 18,33 20.75,33.5 20.75,33.5C 18.75,32.5 18,31 19,31C 20,31 22,32.5 22,32.5C 20,29 24,33 24,33C 23,29 26,34 26,34C 25,30 28,35 28,35C 28,31 30,37 30,37C 30,34 32,39 32,39C 32,37 34,39 34,39C 31,35 33,35 33,35C 31,31 33,32 33,32C 31,28 33,29 33,29C 32,25 34,27 34,27C 33,24 34,25 34,25C 34,21 35,24 35,24C 34,20 36,22 36,22C 35,21 38,19 38,19 Z "/>
</svg>
