<?xml version="1.0" encoding="utf-8"?>
<!DOCTYPE svg PUBLIC "-//W3C//DTD SVG 1.1//EN" "http://www.w3.org/Graphics/SVG/1.1/DTD/svg11.dtd">
<svg xmlns="http://www.w3.org/2000/svg" xmlns:xlink="http://www.w3.org/1999/xlink" version="1.1" baseProfile="full" width="76" height="76" viewBox="0 0 76.00 76.00" enable-background="new 0 0 76.00 76.00" xml:space="preserve">
	<path fill="#000000" fill-opacity="1" stroke-width="0.2" stroke-linejoin="round" d="M 34.8333,60.1667L 34.8333,57.3958L 41.1667,58.5833L 41.1667,60.1667L 34.8333,60.1667 Z M 31.6666,55.0209L 31.6666,52.25L 44.3333,53.8334L 44.3333,56.6042L 31.6666,55.0209 Z M 44.3333,51.8542L 31.6666,50.2709L 31.6666,47.5L 44.3333,49.0834L 44.3333,51.8542 Z M 38,17.4167C 44.9956,17.4167 50.6667,23.4422 50.6667,30.875C 50.6667,35.8565 44.3333,40.7324 44.3333,42.5329L 44.3333,47.5L 31.6667,45.9167L 31.6667,42.5329C 31.6667,41.1667 25.3333,35.8565 25.3333,30.875C 25.3333,23.4422 31.0044,17.4167 38,17.4167 Z "/>
</svg>
