<?xml version="1.0" encoding="utf-8"?>
<!DOCTYPE svg PUBLIC "-//W3C//DTD SVG 1.1//EN" "http://www.w3.org/Graphics/SVG/1.1/DTD/svg11.dtd">
<svg xmlns="http://www.w3.org/2000/svg" xmlns:xlink="http://www.w3.org/1999/xlink" version="1.1" baseProfile="full" width="76" height="76" viewBox="0 0 76.00 76.00" enable-background="new 0 0 76.00 76.00" xml:space="preserve">
	<path fill="#000000" fill-opacity="1" stroke-width="0.2" stroke-linejoin="round" d="M 19,24L 19,32L 27,32L 27,24L 19,24 Z M 30.9999,24L 30.9999,32L 56.9998,32L 56.9999,24L 30.9999,24 Z M 31,43L 57,43L 57,35L 31,35L 31,43 Z M 32,42L 32,36L 56,36L 56,42L 32,42 Z M 21,44L 25,44L 25,41L 28,41L 28,37L 25,37L 25,34L 21,34L 21,37L 18,37L 18,41L 21,41L 21,44 Z M 22,43L 22,40L 19,40L 19,38L 22,38L 22,35L 24,35L 24,38L 27,38L 27,40L 24,40L 24,43L 22,43 Z M 19.0001,46L 19.0001,54L 27.0001,54L 27.0001,46L 19.0001,46 Z M 31.0001,46L 31.0001,54L 57,54L 57,46L 31.0001,46 Z "/>
</svg>
