<?xml version="1.0" encoding="utf-8"?>
<!DOCTYPE svg PUBLIC "-//W3C//DTD SVG 1.1//EN" "http://www.w3.org/Graphics/SVG/1.1/DTD/svg11.dtd">
<svg xmlns="http://www.w3.org/2000/svg" xmlns:xlink="http://www.w3.org/1999/xlink" version="1.1" baseProfile="full" width="76" height="76" viewBox="0 0 76.00 76.00" enable-background="new 0 0 76.00 76.00" xml:space="preserve">
	<path fill="#000000" fill-opacity="1" stroke-width="0.2" stroke-linejoin="round" d="M 39.5833,52.25L 34.0417,52.25L 30.892,46.1146C 30.5602,45.4775 30.2351,45.3295 29.9165,44.879L 28.9467,43.7707C 28.6188,43.4823 28.2606,42.8763 27.8723,42.7443C 27.484,42.6124 27.0486,42.9422 26.5661,42.9422L 25.3333,42.3542L 25.3333,52.25L 20.5833,52.25L 20.6738,26.9167L 28.4548,26.9167C 29.6234,26.9167 30.6978,27.0561 31.678,27.3351C 32.6581,27.6141 33.512,28.0363 34.2396,28.6018C 34.9672,29.1672 35.9323,29.8722 36.3432,30.7167C 36.7541,31.5611 36.9595,32.5469 36.9595,33.6741C 36.9595,34.56 36.8323,35.3724 36.5778,36.1113C 36.3234,36.8502 35.9615,37.508 35.4921,38.0848C 35.0228,38.6616 34.4564,39.1536 33.7929,39.5607C 33.1294,39.9678 32.8881,40.1526 31.9551,40.5729C 32.3811,40.8368 35.8003,44.4728 36.1396,45.0345L 39.5833,52.25 Z M 25.3333,31.6667L 25.3333,37.6042L 27.7083,38C 28.3228,38 31.2925,36.4713 31.5055,35.9247C 31.7185,35.3781 32.2208,34.7655 32.2208,34.0869C 32.2208,32.8579 32.252,33.4818 31.5225,32.792C 30.793,32.1021 28.5585,31.7571 27.1938,31.7571L 25.3333,31.6667 Z M 57,31.6667L 50.6667,31.6667L 50.6667,52.25L 45.9167,52.25L 45.9167,31.6667L 39.5833,31.6667L 39.5833,26.9167L 57,26.9167L 57,31.6667 Z "/>
</svg>
