<?xml version="1.0" encoding="utf-8"?>
<!DOCTYPE svg PUBLIC "-//W3C//DTD SVG 1.1//EN" "http://www.w3.org/Graphics/SVG/1.1/DTD/svg11.dtd">
<svg xmlns="http://www.w3.org/2000/svg" xmlns:xlink="http://www.w3.org/1999/xlink" version="1.1" baseProfile="full" width="76" height="76" viewBox="0 0 76.00 76.00" enable-background="new 0 0 76.00 76.00" xml:space="preserve">
	<path fill="#000000" fill-opacity="1" stroke-width="0.2" stroke-linejoin="round" d="M 34.0417,19C 36.2278,19 38,20.7722 38,22.9583C 38,24.8733 36.6401,26.4707 34.8333,26.8375L 35.2316,33.25L 44.3333,33.25L 44.3333,36.4167L 35.4283,36.4167L 35.625,39.5833L 46.7083,39.5833L 51.629,50.6353L 54.8271,49.2778L 56.0644,52.1927L 50.0271,54.823L 50.0018,54.7662L 49.9248,54.7988L 44.6519,42.75L 31.6667,42.75L 31.6667,26.1253C 30.7052,25.4031 30.0833,24.2534 30.0833,22.9583C 30.0833,20.7722 31.8555,19 34.0417,19 Z M 34.8333,58.5833C 28.2749,58.5833 22.9583,53.2667 22.9583,46.7083C 22.9583,41.8388 25.8893,37.6539 30.0833,35.8214L 30.0833,39.4083C 27.7002,40.9621 26.125,43.6513 26.125,46.7083C 26.125,51.5178 30.0238,55.4167 34.8333,55.4167C 39.6428,55.4167 43.5417,51.5178 43.5417,46.7083L 43.5376,46.6171L 45.5437,51.8433C 43.6286,55.8306 39.5524,58.5833 34.8333,58.5833 Z "/>
</svg>
