<?xml version="1.0" encoding="utf-8"?>
<!DOCTYPE svg PUBLIC "-//W3C//DTD SVG 1.1//EN" "http://www.w3.org/Graphics/SVG/1.1/DTD/svg11.dtd">
<svg xmlns="http://www.w3.org/2000/svg" xmlns:xlink="http://www.w3.org/1999/xlink" version="1.1" baseProfile="full" width="76" height="76" viewBox="0 0 76.00 76.00" enable-background="new 0 0 76.00 76.00" xml:space="preserve">
	<path fill="#000000" fill-opacity="1" stroke-width="0.2" stroke-linejoin="round" d="M 19,23.75L 6.33333,23.75L 9.5,19L 25.3333,19C 27.7594,19.004 30.1998,19.9315 32.0509,21.7825L 54.2175,43.9491C 56.0685,45.8002 56.996,48.2406 57,50.6667L 57,66.5L 52.25,69.6667L 52.25,57C 52.25,50.8788 47.2878,45.9167 41.1667,45.9167L 30.0833,45.9167L 30.0833,34.8334C 30.0833,28.7122 25.1212,23.75 19,23.75 Z M 31.6667,26.9167C 33.7778,29.0704 34.8333,32.0318 34.8333,34.8334L 34.8333,41.1667L 41.1667,41.1667C 43.9682,41.1667 46.9296,42.2223 49.0833,44.3334L 31.6667,26.9167 Z M 23.75,31.6667L 23.75,36.4167L 4.75,36.4167L 4.75,31.6667L 23.75,31.6667 Z M 23.75,41.1667L 23.75,45.9167L 4.75,45.9167L 4.75,41.1667L 23.75,41.1667 Z M 45.9167,50.6667L 45.9167,55.4167L 7.91667,55.4167L 6.33334,50.6667L 45.9167,50.6667 Z M 45.9167,60.1667L 45.9167,64.9167L 17.4167,64.9167L 12.6667,60.1667L 45.9167,60.1667 Z "/>
</svg>
