<?xml version="1.0" encoding="utf-8"?>
<!DOCTYPE svg PUBLIC "-//W3C//DTD SVG 1.1//EN" "http://www.w3.org/Graphics/SVG/1.1/DTD/svg11.dtd">
<svg xmlns="http://www.w3.org/2000/svg" xmlns:xlink="http://www.w3.org/1999/xlink" version="1.1" baseProfile="full" width="76" height="76" viewBox="0 0 76.00 76.00" enable-background="new 0 0 76.00 76.00" xml:space="preserve">
	<path fill="#000000" fill-opacity="1" stroke-width="0.2" stroke-linejoin="round" d="M 29.2917,19L 46.7083,19C 48.8945,19 50.6667,20.7722 50.6667,22.9583L 50.6667,53.0417C 50.6667,55.2278 48.8945,57 46.7083,57L 29.2917,57C 27.1056,57 25.3333,55.2278 25.3333,53.0417L 25.3333,22.9583C 25.3333,20.7722 27.1056,19 29.2917,19 Z M 28.5,23.75L 28.5,49.0833L 34.0416,49.0833L 34.0416,54.625L 34.8333,54.625L 34.8333,49.0833L 41.1666,49.0833L 41.1666,54.625L 41.9583,54.625L 41.9583,49.0833L 47.5,49.0833L 47.5,23.75L 28.5,23.75 Z M 37.2083,50.6667L 36.8125,53.8333L 39.1875,53.8333L 39.5833,50.6667L 37.2083,50.6667 Z M 45.5208,50.6667L 44.3333,53.8333L 46.3125,53.8333L 47.1041,50.6667L 45.5208,50.6667 Z M 29.2917,51.4583L 28.8959,53.4375L 31.2708,53.4375L 31.6667,51.4583L 29.2917,51.4583 Z M 34.8333,20.5833L 34.8333,22.1667L 41.1667,22.1667L 41.1667,20.5833L 34.8333,20.5833 Z "/>
</svg>
