<?xml version="1.0" encoding="utf-8"?>
<!DOCTYPE svg PUBLIC "-//W3C//DTD SVG 1.1//EN" "http://www.w3.org/Graphics/SVG/1.1/DTD/svg11.dtd">
<svg xmlns="http://www.w3.org/2000/svg" xmlns:xlink="http://www.w3.org/1999/xlink" version="1.1" baseProfile="full" width="76" height="76" viewBox="0 0 76.00 76.00" enable-background="new 0 0 76.00 76.00" xml:space="preserve">
	<path fill="#000000" fill-opacity="1" stroke-width="0.2" stroke-linejoin="round" d="M 38,3.16666C 57.2379,3.16666 72.8333,18.7621 72.8333,38C 72.8333,57.2379 57.2379,72.8333 38,72.8333C 18.7621,72.8333 3.16667,57.2379 3.16667,38C 3.16667,18.7621 18.7621,3.16666 38,3.16666 Z M 49.0853,18.9974L 33.2498,18.9974L 20.5833,39.5833L 31.6667,39.5833L 22.1649,60.1667L 47.5,34.8333L 34.8333,34.8333L 49.0853,18.9974 Z M 50.9386,49.6388L 52.1499,53.8188L 55.9926,53.8188L 51.1017,38.289L 46.4428,38.289L 41.6674,53.8188L 45.3246,53.8188L 46.4428,49.6388L 50.9386,49.6388 Z M 46.9552,47.1134L 47.887,43.8527L 48.2568,42.3274L 48.6091,40.8144L 48.6557,40.8144L 49.0343,42.3139L 49.4478,43.8137L 50.4261,47.1134L 46.9552,47.1134 Z "/>
</svg>
