<?xml version="1.0" encoding="utf-8"?>
<!DOCTYPE svg PUBLIC "-//W3C//DTD SVG 1.1//EN" "http://www.w3.org/Graphics/SVG/1.1/DTD/svg11.dtd">
<svg xmlns="http://www.w3.org/2000/svg" xmlns:xlink="http://www.w3.org/1999/xlink" version="1.1" baseProfile="full" width="76" height="76" viewBox="0 0 76.00 76.00" enable-background="new 0 0 76.00 76.00" xml:space="preserve">
	<path fill="#000000" fill-opacity="1" stroke-width="0.2" stroke-linejoin="round" d="M 33.7939,43.861L 24.8022,43.861L 22.5659,52.221L 15.2515,52.221L 24.8022,21.1612L 34.12,21.1612L 42.1934,46.796L 47.4688,29.64L 54.2454,29.64L 61.3594,52.2289L 55.7701,52.2289L 54.0082,46.1489L 47.4688,46.1489L 45.8424,52.2289L 36.2165,52.221L 33.7939,43.861 Z M 25.8272,38.8101L 32.7689,38.8101L 30.8122,32.2108L 29.9852,29.2111L 29.2282,26.2121L 29.135,26.2121L 28.4303,29.2382L 27.6907,32.2888L 25.8272,38.8101 Z M 48.2142,42.4756L 53.2628,42.4756L 51.8397,37.676L 51.2382,35.4944L 50.6877,33.3133L 50.6199,33.3133L 50.1074,35.5141L 49.5695,37.7328L 48.2142,42.4756 Z "/>
</svg>
