<?xml version="1.0" encoding="utf-8"?>
<!DOCTYPE svg PUBLIC "-//W3C//DTD SVG 1.1//EN" "http://www.w3.org/Graphics/SVG/1.1/DTD/svg11.dtd">
<svg xmlns="http://www.w3.org/2000/svg" xmlns:xlink="http://www.w3.org/1999/xlink" version="1.1" baseProfile="full" width="76" height="76" viewBox="0 0 76.00 76.00" enable-background="new 0 0 76.00 76.00" xml:space="preserve">
	<path fill="#000000" fill-opacity="1" stroke-width="0.2" stroke-linejoin="round" d="M 23.75,19C 26.125,20.3195 28.5,21.6389 30.875,21.6389C 33.25,21.6389 35.625,20.3195 38,19C 40.375,20.3195 42.75,21.6389 45.125,21.6389C 47.5,21.6389 49.875,20.3195 52.25,19L 56.2083,26.5209L 38,26.5209L 19.7916,26.5209L 23.75,19 Z M 56.9999,33.2501C 56.9999,38.5278 55.4167,42.75 52.25,47.5C 49.0833,52.25 41.1666,56.6042 38,56.6042C 34.8333,56.6042 26.9167,52.25 23.75,47.5C 20.5833,42.75 19,38.5278 19,33.2501C 19,31.5012 19.3958,28.1042 20.9791,28.1042L 55.0208,28.1042C 56.6041,28.1042 56.9999,31.5012 56.9999,33.2501 Z M 36.2847,36.2122C 36.0802,34.9411 35.6057,33.9713 34.8614,33.3028C 34.117,32.6343 33.1774,32.3 32.0427,32.3C 30.4242,32.3 29.108,32.9108 28.0943,34.1324C 27.0805,35.354 26.5736,37.348 26.5736,40.1144C 26.5736,42.8105 27.0569,44.7506 28.0233,45.9348C 28.9898,47.119 30.223,47.7111 31.7227,47.7111C 33.1214,47.7111 34.2665,47.251 35.1582,46.3307C 36.05,45.4103 36.4958,44.1882 36.4958,42.6642C 36.4958,41.2283 36.0588,40.0567 35.1846,39.1496C 34.3105,38.2425 33.2599,37.7889 32.0328,37.7889C 30.9465,37.7889 30.0371,38.2144 29.3049,39.0655C 29.4148,37.3348 29.682,36.1968 30.1064,35.6514C 30.5308,35.106 31.0498,34.8333 31.6634,34.8333C 32.1252,34.8333 32.5012,34.9708 32.7915,35.2457C 33.0818,35.5206 33.261,35.9461 33.3292,36.5222L 36.2847,36.2122 Z M 29.5292,42.5917C 29.5292,41.844 29.7216,41.2788 30.1064,40.8962C 30.4913,40.5136 30.9619,40.3222 31.5182,40.3222C 32.0966,40.3222 32.5782,40.5229 32.963,40.9242C 33.3479,41.3256 33.5403,41.9572 33.5403,42.8193C 33.5403,43.6571 33.3616,44.2597 33.0042,44.6269C 32.6469,44.9942 32.1999,45.1778 31.6634,45.1778C 31.107,45.1778 30.6122,44.9535 30.179,44.5049C 29.7458,44.0563 29.5292,43.4185 29.5292,42.5917 Z M 48.9514,36.2122C 48.7469,34.9411 48.2724,33.9713 47.528,33.3028C 46.7836,32.6343 45.8441,32.3 44.7094,32.3C 43.0909,32.3 41.7747,32.9108 40.7609,34.1324C 39.7472,35.354 39.2403,37.348 39.2403,40.1144C 39.2403,42.8105 39.7235,44.7506 40.69,45.9348C 41.6565,47.119 42.8896,47.7111 44.3894,47.7111C 45.788,47.7111 46.9332,47.251 47.8249,46.3306C 48.7166,45.4103 49.1625,44.1882 49.1625,42.6642C 49.1625,41.2282 48.7254,40.0567 47.8513,39.1496C 46.9772,38.2425 45.9266,37.7889 44.6995,37.7889C 43.6131,37.7889 42.7038,38.2144 41.9715,39.0655C 42.0815,37.3348 42.3487,36.1968 42.7731,35.6514C 43.1975,35.106 43.7165,34.8333 44.33,34.8333C 44.7918,34.8333 45.1679,34.9708 45.4581,35.2457C 45.7484,35.5206 45.9277,35.9461 45.9958,36.5222L 48.9514,36.2122 Z M 42.1958,42.5917C 42.1958,41.844 42.3882,41.2788 42.7731,40.8962C 43.1579,40.5136 43.6285,40.3222 44.1849,40.3222C 44.7632,40.3222 45.2448,40.5229 45.6297,40.9242C 46.0145,41.3256 46.2069,41.9572 46.2069,42.8193C 46.2069,43.6571 46.0283,44.2597 45.6709,44.6269C 45.3136,44.9942 44.8666,45.1778 44.33,45.1778C 43.7737,45.1778 43.2789,44.9535 42.8456,44.5049C 42.4124,44.0563 42.1958,43.4185 42.1958,42.5917 Z "/>
</svg>
