<?xml version="1.0" encoding="utf-8"?>
<!DOCTYPE svg PUBLIC "-//W3C//DTD SVG 1.1//EN" "http://www.w3.org/Graphics/SVG/1.1/DTD/svg11.dtd">
<svg xmlns="http://www.w3.org/2000/svg" xmlns:xlink="http://www.w3.org/1999/xlink" version="1.1" baseProfile="full" width="76" height="76" viewBox="0 0 76.00 76.00" enable-background="new 0 0 76.00 76.00" xml:space="preserve">
	<path fill="#000000" fill-opacity="1" stroke-width="0.2" stroke-linejoin="round" d="M 23.933,26.3597C 23.933,25.4034 23.7384,18.9999 32.0009,18.9999L 37.8334,18.9999L 37.8334,25.6601L 33.5437,25.6601C 32.695,25.6601 31.8366,26.5396 31.8366,27.1932L 31.9668,32L 37.7167,31.9999C 37.4773,35.354 37.0903,37.9889 37.0903,37.9889L 31.9668,38L 31.9668,56.9999L 23.9667,56.9999L 23.933,37.9889L 19.9667,38L 19.9667,32L 23.9667,32L 23.933,26.3597 Z M 58.0028,39.2708C 64.3611,46.1956 50.7537,56.1487 48.2876,57.2677L 48.2876,57.3001L 48.2303,57.2677C 45.762,56.1487 32.1526,46.1956 38.5108,39.2708C 40.7952,36.7831 44.8939,37.5604 48.3255,41.698C 51.0348,37.8458 55.7248,36.7831 58.0028,39.2708 Z "/>
</svg>
