<?xml version="1.0" encoding="utf-8"?>
<!DOCTYPE svg PUBLIC "-//W3C//DTD SVG 1.1//EN" "http://www.w3.org/Graphics/SVG/1.1/DTD/svg11.dtd">
<svg xmlns="http://www.w3.org/2000/svg" xmlns:xlink="http://www.w3.org/1999/xlink" version="1.1" baseProfile="full" width="76" height="76" viewBox="0 0 76.00 76.00" enable-background="new 0 0 76.00 76.00" xml:space="preserve">
	<path fill="#000000" fill-opacity="1" stroke-width="0.2" stroke-linejoin="round" d="M 15.8333,31.6667L 19,31.6667L 19,36.4167L 28.5,36.4167L 28.5,28.5L 52.25,28.5L 52.25,36.4167L 57,36.4167L 57,31.6667L 60.1667,31.6667L 60.1667,44.3333L 57,44.3333L 57,39.5833L 52.25,39.5833L 52.25,47.5L 28.5,47.5L 28.5,39.5833L 19,39.5833L 19,44.3333L 15.8333,44.3333L 15.8333,31.6667 Z M 31.6667,31.6667L 31.6667,44.3333L 39.5833,44.3333L 39.5833,31.6667L 31.6667,31.6667 Z M 42.75,31.6667L 42.75,44.3333L 49.0833,44.3333L 49.0833,31.6667L 42.75,31.6667 Z "/>
</svg>
