<?xml version="1.0" encoding="utf-8"?>
<!DOCTYPE svg PUBLIC "-//W3C//DTD SVG 1.1//EN" "http://www.w3.org/Graphics/SVG/1.1/DTD/svg11.dtd">
<svg xmlns="http://www.w3.org/2000/svg" xmlns:xlink="http://www.w3.org/1999/xlink" version="1.1" baseProfile="full" width="76" height="76" viewBox="0 0 76.00 76.00" enable-background="new 0 0 76.00 76.00" xml:space="preserve">
	<path fill="#000000" fill-opacity="1" stroke-width="0.2" stroke-linejoin="round" d="M 57,36.0208L 57,55.0208L 57,55.4401C 57,56.8868 56.8159,57.9785 56.4476,58.7149C 56.0794,59.4514 55.4551,60.0589 54.5747,60.5374C 53.6943,61.0159 52.6989,61.2552 51.5886,61.2552C 50.3138,61.2552 49.297,60.8898 48.5381,60.1589C 47.7792,59.428 47.3997,58.485 47.3997,57.3298C 47.3997,56.1635 47.8493,55.156 48.7484,54.3073C 49.6474,53.4587 50.8092,53.0344 52.2335,53.0344L 53.47,53.1578L 54.2292,53.4332L 54.2292,41.4083L 44.7866,44.3426L 44.7866,58.9953C 44.7866,60.4084 44.5996,61.5094 44.2258,62.2982C 43.852,63.087 43.2099,63.7151 42.2996,64.1824C 41.3893,64.6497 40.3958,64.8833 39.3191,64.8833C 38.0481,64.8833 37.0415,64.5245 36.2994,63.8067C 35.5573,63.0889 35.1863,62.1506 35.1863,60.9916C 35.1863,59.7654 35.6302,58.7346 36.5181,57.899C 37.406,57.0635 38.5677,56.6457 40.0033,56.6457C 40.6818,56.6457 41.2501,56.7629 41.9583,57.0445L 41.9583,41.1667L 57,36.0208 Z M 20.5833,17.4167L 43.5417,17.4167L 55.4167,29.2917L 55.4166,34.3056L 52.25,35.3611L 52.25,33.25L 39.5833,33.25L 39.5833,20.5833L 23.75,20.5834L 23.75,55.4167L 34.8333,55.4167L 33.6458,58.5834L 20.5833,58.5833L 20.5833,17.4167 Z M 42.75,21.3751L 42.75,30.0833L 51.4583,30.0833L 42.75,21.3751 Z "/>
</svg>
