<?xml version="1.0" encoding="utf-8"?>
<!DOCTYPE svg PUBLIC "-//W3C//DTD SVG 1.1//EN" "http://www.w3.org/Graphics/SVG/1.1/DTD/svg11.dtd">
<svg xmlns="http://www.w3.org/2000/svg" xmlns:xlink="http://www.w3.org/1999/xlink" version="1.1" baseProfile="full" width="76" height="76" viewBox="0 0 76.00 76.00" enable-background="new 0 0 76.00 76.00" xml:space="preserve">
	<path fill="#000000" fill-opacity="1" stroke-width="0.2" stroke-linejoin="round" d="M 15.8333,25.3333L 60.1667,25.3333L 60.1667,50.6667L 15.8333,50.6667L 15.8333,25.3333 Z M 19,28.5L 19,47.5L 39.5833,47.5L 39.5833,28.5L 19,28.5 Z M 57,47.5L 57,28.5L 41.1667,28.5L 41.1667,47.5L 57,47.5 Z M 44.3333,34.8333L 53.8333,34.8333L 49.0833,41.1667L 44.3333,34.8333 Z M 29.4078,42.75L 27.1911,42.75L 27.1911,41.6486L 27.1611,41.6486C 26.6608,42.4814 25.9204,42.8978 24.9398,42.8978C 24.2163,42.8978 23.6471,42.6957 23.2323,42.2917C 22.8174,41.8876 22.61,41.3484 22.61,40.6742C 22.61,39.2503 23.4667,38.4283 25.1799,38.2081L 27.205,37.9426C 27.205,37.2068 26.7639,36.8389 25.8819,36.8389C 24.9937,36.8389 24.1493,37.0852 23.3489,37.5778L 23.3489,35.8414L 24.6708,35.4027L 26.1982,35.2133C 28.3379,35.2133 29.4078,36.2601 29.4078,38.3536L 29.4078,42.75 Z M 27.205,39.7552L 27.205,39.2726L 25.8242,39.4412C 25.0606,39.5335 24.6789,39.8576 24.6789,40.4133C 24.6789,40.6642 24.7716,40.8701 24.9571,41.0309C 25.1426,41.1918 25.3939,41.2722 25.711,41.2722C 26.1528,41.2722 26.5123,41.1291 26.7893,40.8427C 27.0664,40.5564 27.205,40.1939 27.205,39.7552 Z "/>
</svg>
