<?xml version="1.0" encoding="utf-8"?>
<!DOCTYPE svg PUBLIC "-//W3C//DTD SVG 1.1//EN" "http://www.w3.org/Graphics/SVG/1.1/DTD/svg11.dtd">
<svg xmlns="http://www.w3.org/2000/svg" xmlns:xlink="http://www.w3.org/1999/xlink" version="1.1" baseProfile="full" width="76" height="76" viewBox="0 0 76.00 76.00" enable-background="new 0 0 76.00 76.00" xml:space="preserve">
	<path fill="#000000" fill-opacity="1" stroke-width="0.2" stroke-linejoin="round" d="M 42,19L 35.5,19L 33.25,27.5L 26.347,22.992C 24.6102,24.3424 23.114,25.9878 21.9336,27.8528L 38,38L 54.0664,27.8528C 52.886,25.9878 51.3898,24.3424 49.653,22.9919L 42.75,27.5L 40,21.25C 41,21.25 43,21.75 42.9999,21.7501C 42,19.25 42,19 42,19 Z M 23.7753,31.016L 21.0931,29.322C 19.7552,31.9233 19,34.8735 19,38C 19,38.6183 19.0295,39.2296 19.0873,39.8328L 23.7753,31.016 Z M 25.4709,32.0869L 19.666,43.0045C 20.0524,44.4233 20.5991,45.7761 21.2854,47.0421L 28.2904,33.8676L 25.4709,32.0869 Z M 29.9861,34.9386L 22.5081,49.0026C 23.2761,50.082 24.154,51.0777 25.1256,51.9733L 33.128,36.923L 29.9861,34.9386 Z M 34.8237,37.9939L 26.6986,53.275C 29.8571,55.6157 33.7669,57 38,57C 42.2331,57 46.1429,55.6157 49.3014,53.275L 41.1763,37.9939L 38,40L 34.8237,37.9939 Z M 42.872,36.923L 50.8744,51.9733C 51.846,51.0777 52.7239,50.082 53.4919,49.0026L 46.0139,34.9386L 42.872,36.923 Z M 47.7096,33.8676L 54.7146,47.0421C 55.401,45.7761 55.9476,44.4233 56.334,43.0045L 50.529,32.0869L 47.7096,33.8676 Z M 52.2247,31.016L 56.9127,39.8328C 56.9705,39.2297 57,38.6183 57,38C 57,34.8735 56.2448,31.9233 54.9069,29.322L 52.2247,31.016 Z "/>
</svg>
