<?xml version="1.0" encoding="utf-8"?>
<!DOCTYPE svg PUBLIC "-//W3C//DTD SVG 1.1//EN" "http://www.w3.org/Graphics/SVG/1.1/DTD/svg11.dtd">
<svg xmlns="http://www.w3.org/2000/svg" xmlns:xlink="http://www.w3.org/1999/xlink" version="1.1" baseProfile="full" width="76" height="76" viewBox="0 0 76.00 76.00" enable-background="new 0 0 76.00 76.00" xml:space="preserve">
	<path fill="#FFFFFF" fill-opacity="1" stroke-width="0.2" stroke-linejoin="round" d="M 23.75,18.6042L 49.0833,18.6042L 49.0833,26.9167C 53.4556,26.9167 57,30.4611 57,34.8334L 57,42.75C 57,47.1223 53.4556,50.6667 49.0833,50.6667L 49.0833,60.1667L 23.75,60.1667L 23.75,18.6042 Z M 49.0833,45.9167C 50.8322,45.9167 52.2499,44.4989 52.2499,42.75L 52.2499,34.8334C 52.2499,33.0845 50.8322,31.6667 49.0833,31.6667L 49.0833,45.9167 Z M 26.9167,22.1667L 26.9167,25.3334L 45.9166,25.3334L 45.9166,22.1667L 26.9167,22.1667 Z M 45.9166,57L 45.9166,53.8333L 26.9167,53.8333L 26.9167,57L 45.9166,57 Z M 30.0833,28.5C 29.2089,28.5 28.5,29.2089 28.5,30.0834L 28.5,49.0833C 28.5,49.9578 29.2089,50.6667 30.0833,50.6667C 30.9578,50.6667 31.6667,49.9578 31.6667,49.0833L 31.6667,30.0834C 31.6667,29.2089 30.9578,28.5 30.0833,28.5 Z M 36.4167,28.5C 35.5422,28.5 34.8333,29.2089 34.8333,30.0834L 34.8333,49.0833C 34.8333,49.9578 35.5422,50.6667 36.4167,50.6667C 37.2911,50.6667 38,49.9578 38,49.0833L 38,30.0834C 38,29.2089 37.2911,28.5 36.4167,28.5 Z M 42.75,28.5C 41.8755,28.5 41.1667,29.2089 41.1667,30.0833L 41.1667,49.0833C 41.1667,49.9578 41.8755,50.6667 42.75,50.6667C 43.6244,50.6667 44.3333,49.9578 44.3333,49.0833L 44.3333,30.0833C 44.3333,29.2089 43.6244,28.5 42.75,28.5 Z M 23.75,16.2292C 24.1458,15.8333 31.6667,12.6667 33.25,14.25C 34.8333,15.8333 36.4167,15.8333 38,15.8333C 39.5833,15.8333 41.1667,14.25 44.3333,14.25C 45.9167,14.25 49.0833,15.0417 49.0833,16.625C 49.0833,19 47.8958,17.8125 47.8958,17.8125C 47.8958,17.8125 47.1041,16.2292 43.9375,16.2292C 40.7708,16.2292 39.5833,17.8125 38,17.8125C 36.4167,17.8125 33.6458,16.2292 30.4792,16.2292C 27.3125,16.2292 24.9375,17.4167 24.9375,17.4167L 22.9583,17.8125C 22.9583,17.8125 20.5287,19.1161 21.7708,20.9792C 23.3542,23.3542 22.1666,24.2817 22.1667,26.5209C 22.1667,26.9167 21.375,24.9375 21.375,24.9375L 19,20.5833L 20.5833,17.4167C 20.5833,17.4167 22.1667,15.8333 23.75,16.2292 Z "/>
</svg>
