<?xml version="1.0" encoding="utf-8"?>
<!DOCTYPE svg PUBLIC "-//W3C//DTD SVG 1.1//EN" "http://www.w3.org/Graphics/SVG/1.1/DTD/svg11.dtd">
<svg xmlns="http://www.w3.org/2000/svg" xmlns:xlink="http://www.w3.org/1999/xlink" version="1.1" baseProfile="full" width="76" height="76" viewBox="0 0 76.00 76.00" enable-background="new 0 0 76.00 76.00" xml:space="preserve">
	<path fill="#000000" fill-opacity="1" stroke-width="0.2" stroke-linejoin="round" d="M 50.6667,44.3333L 57,44.3333L 52.9097,49.0833L 60.1667,49.0833L 60.1667,53.8333L 52.9097,53.8333L 57,58.5833L 50.6667,58.5833L 45.125,51.4583L 50.6667,44.3333 Z M 33.25,15.8333C 37.6222,15.8333 41.1667,19.3778 41.1667,23.75C 41.1667,28.1223 37.6222,31.6667 33.25,31.6667C 28.8777,31.6667 25.3333,28.1223 25.3333,23.75C 25.3333,19.3778 28.8778,15.8333 33.25,15.8333 Z M 25.3333,42.75C 24.2778,43.2778 22.1667,47.4999 22.1667,47.4999C 22.1667,47.4999 21.1111,49.0833 20.5833,55.4166L 15.8333,53.8333L 17.4167,45.9167C 17.4167,45.9167 20.5833,34.8333 26.9166,34.8335L 39.5832,34.8335C 44.2567,34.8334 47.2058,40.8682 48.4307,44.0317L 44.7579,48.5207L 44.3334,47.5C 44.3334,47.5 42.2222,43.2778 41.1666,42.75L 41.8064,57.1293C 39.3996,58.0681 36.7808,58.5833 34.0416,58.5833C 30.7028,58.5833 27.5427,57.8178 24.7274,56.4526L 25.3333,42.75 Z "/>
</svg>
