<?xml version="1.0" encoding="utf-8"?>
<!DOCTYPE svg PUBLIC "-//W3C//DTD SVG 1.1//EN" "http://www.w3.org/Graphics/SVG/1.1/DTD/svg11.dtd">
<svg xmlns="http://www.w3.org/2000/svg" xmlns:xlink="http://www.w3.org/1999/xlink" version="1.1" baseProfile="full" width="76" height="76" viewBox="0 0 76.00 76.00" enable-background="new 0 0 76.00 76.00" xml:space="preserve">
	<path fill="#000000" fill-opacity="1" stroke-width="0.2" stroke-linejoin="round" d="M 48.9159,10.85L 50.3154,12.2495L 54.1556,7.12923C 57.2053,8.72637 60.0681,10.8063 62.6309,13.3691C 65.1936,15.9319 67.2736,18.7946 68.8708,21.8443L 63.7504,25.6846L 65.1499,27.084L 62.6309,29.6031L 60.1118,27.084L 44.7175,49.1958C 44.7175,49.1958 30.1629,48.0763 21.2062,57.0329L 20.6464,56.4732L 35.3638,41.7558C 36.5166,42.2442 38.1799,42.2984 39.1196,41.3587C 40.3562,40.1221 40.3562,38.1171 39.1196,36.8804C 37.8829,35.6437 35.8779,35.6437 34.6412,36.8804C 33.7015,37.8201 33.4759,39.2035 33.9643,40.3563L 19.2469,55.0737L 18.967,54.7938C 27.9237,45.8371 26.8041,31.2825 26.8041,31.2825L 48.9159,15.8882L 46.3969,13.3691L 48.9159,10.85 Z M 61.9999,48L 61.9999,52L 50,52L 50,48L 61.9999,48 Z "/>
</svg>
