<?xml version="1.0" encoding="utf-8"?>
<!DOCTYPE svg PUBLIC "-//W3C//DTD SVG 1.1//EN" "http://www.w3.org/Graphics/SVG/1.1/DTD/svg11.dtd">
<svg xmlns="http://www.w3.org/2000/svg" xmlns:xlink="http://www.w3.org/1999/xlink" version="1.1" baseProfile="full" width="76" height="76" viewBox="0 0 76.00 76.00" enable-background="new 0 0 76.00 76.00" xml:space="preserve">
	<path fill="#000000" fill-opacity="1" stroke-width="0.2" stroke-linejoin="round" d="M 50.6667,38C 50.6667,39.0845 50.5576,40.1435 50.3499,41.1667L 46.2814,41.1667L 46.6037,39.5833L 42.75,39.5833L 42.75,36.4167L 46.6036,36.4167C 45.8986,31.1249 41.7085,26.9348 36.4166,26.2297L 36.4166,30.0834L 33.25,30.0834L 33.25,26.2297C 27.9581,26.9347 23.768,31.1249 23.0629,36.4167L 26.9166,36.4167L 26.9166,39.5834L 23.0629,39.5834C 23.768,44.8752 27.9581,49.0653 33.25,49.7704L 33.25,45.9167L 36.4166,45.9167L 36.4166,49.7704L 38,49.4481L 38,53.5166C 36.9768,53.7243 35.9178,53.8333 34.8333,53.8333C 26.0888,53.8333 19,46.7445 19,38C 19,29.7899 25.2489,23.0392 33.25,22.2448L 33.25,20.5833L 28.5,20.5833L 28.5,15.8333L 41.1667,15.8333L 41.1667,20.5833L 36.4167,20.5833L 36.4167,22.2448C 39.6011,22.561 42.508,23.8207 44.8538,25.7403L 45.9962,24.5979L 43.7571,22.3587L 47.1158,19L 53.8333,25.7175L 50.4746,29.0763L 48.2354,26.8371L 47.093,27.9795C 49.3266,30.709 50.6667,34.198 50.6667,38 Z M 34.8333,34.8334C 36.5822,34.8334 38,36.2512 38,38.0001C 38,39.7489 36.5822,41.1667 34.8333,41.1667L 28.5,45.9167L 31.6666,38.0001C 31.6666,36.2512 33.0844,34.8334 34.8333,34.8334 Z M 41.1667,44.3333L 45.9167,44.3333L 45.9167,58.5833L 41.1667,58.5833L 41.1667,44.3333 Z M 55.4167,44.3333L 55.4167,58.5833L 50.6667,58.5833L 50.6667,44.3333L 55.4167,44.3333 Z "/>
</svg>
