<?xml version="1.0" encoding="utf-8"?>
<!DOCTYPE svg PUBLIC "-//W3C//DTD SVG 1.1//EN" "http://www.w3.org/Graphics/SVG/1.1/DTD/svg11.dtd">
<svg xmlns="http://www.w3.org/2000/svg" xmlns:xlink="http://www.w3.org/1999/xlink" version="1.1" baseProfile="full" width="76" height="76" viewBox="0 0 76.00 76.00" enable-background="new 0 0 76.00 76.00" xml:space="preserve">
	<path fill="#000000" fill-opacity="1" stroke-width="0.2" stroke-linejoin="round" d="M 30.4792,27.3126L 56.6041,27.3126C 57.9158,27.3126 58.9791,27.9801 58.9791,29.2918C 58.9791,30.6034 57.9158,31.2709 56.6041,31.2709L 30.4792,31.2709C 29.1675,31.2709 28.1042,30.6034 28.1042,29.2917C 28.1042,27.98 29.1675,27.3126 30.4792,27.3126 Z M 30.4791,36.8125L 60.9582,36.8126C 62.2699,36.8126 63.3332,37.4801 63.3332,38.7918C 63.3332,40.1035 61.8827,40.6887 60.571,40.6887L 30.092,40.6886C 28.7803,40.6886 28.1041,40.1034 28.1041,38.7917C 28.1041,37.48 29.1675,36.8125 30.4791,36.8125 Z M 30.4792,46.3125L 53.0415,46.3126C 54.3532,46.3126 55.4165,46.9801 55.4165,48.2917C 55.4165,49.6034 54.3532,50.2709 53.0415,50.2709L 30.4792,50.2709C 29.1675,50.2709 28.1042,49.6034 28.1042,48.2917C 28.1042,46.98 29.1675,46.3125 30.4792,46.3125 Z M 16.6122,46.3508L 19.3192,48.7386L 24.1458,42.75L 26.3037,45.1378L 20.2769,52.25L 18.6042,52.25L 14.7735,48.4866L 14.7735,46.3508L 16.6122,46.3508 Z M 16.8293,36.8508L 19.5363,39.2386L 24.3629,33.25L 26.5208,35.6378L 20.494,42.75L 18.8213,42.75L 14.9906,38.9866L 14.9906,36.8508L 16.8293,36.8508 Z M 16.8293,27.3508L 19.5363,29.7385L 24.3629,23.75L 26.5208,26.1378L 20.494,33.25L 18.8213,33.25L 14.9906,29.4866L 14.9906,27.3508L 16.8293,27.3508 Z "/>
</svg>
