<?xml version="1.0" encoding="utf-8"?>
<!DOCTYPE svg PUBLIC "-//W3C//DTD SVG 1.1//EN" "http://www.w3.org/Graphics/SVG/1.1/DTD/svg11.dtd">
<svg xmlns="http://www.w3.org/2000/svg" xmlns:xlink="http://www.w3.org/1999/xlink" version="1.1" baseProfile="full" width="76" height="76" viewBox="0 0 76.00 76.00" enable-background="new 0 0 76.00 76.00" xml:space="preserve">
	<path fill="#000000" fill-opacity="1" stroke-width="0.2" stroke-linejoin="round" d="M 33.25,41.1667L 45.9167,41.1667L 45.9167,45.9167L 38,45.9167L 38,49.0833L 45.9167,49.0833L 45.9167,53.8333L 38,53.8333L 38,60.1667L 33.25,60.1667L 33.25,41.1667 Z M 47.5,41.1667L 60.1666,41.1667L 60.1666,45.9167L 52.25,45.9167L 52.25,49.0833L 60.1666,49.0833L 60.1666,53.8333L 52.25,53.8333L 52.25,60.1667L 47.5,60.1667L 47.5,41.1667 Z M 23.75,41.1667C 28.1222,41.1667 31.6667,45.42 31.6667,50.6667C 31.6667,55.9134 28.1222,60.1667 23.75,60.1667C 19.3777,60.1667 15.8333,55.9134 15.8333,50.6667C 15.8333,45.42 19.3777,41.1667 23.75,41.1667 Z M 23.75,45.9167C 22.0011,45.9167 20.5833,48.0433 20.5833,50.6667C 20.5833,53.29 22.0011,55.4167 23.75,55.4167C 25.4989,55.4167 26.9167,53.29 26.9167,50.6667C 26.9167,48.0433 25.4989,45.9167 23.75,45.9167 Z M 30.6111,15.8333C 33.2345,15.8333 35.3611,18.6689 35.3611,22.1667C 35.3611,25.6645 33.2345,28.5 30.6111,28.5C 27.9878,28.5 25.8611,25.6645 25.8611,22.1667C 25.8611,18.6689 27.9878,15.8333 30.6111,15.8333 Z M 30.6111,19C 29.7367,19 29.0278,20.4178 29.0278,22.1667C 29.0278,23.9156 29.7367,25.3334 30.6111,25.3334C 31.4856,25.3334 32.1944,23.9156 32.1944,22.1667C 32.1944,20.4178 31.4855,19 30.6111,19 Z M 45.3889,23.75C 48.0122,23.75 50.1389,26.5855 50.1389,30.0833C 50.1389,33.5811 48.0122,36.4167 45.3889,36.4167C 42.7655,36.4167 40.6389,33.5811 40.6389,30.0833C 40.6389,26.5855 42.7655,23.75 45.3889,23.75 Z M 45.3889,26.9167C 44.5144,26.9167 43.8055,28.3345 43.8055,30.0833C 43.8055,31.8322 44.5144,33.25 45.3889,33.25C 46.2633,33.25 46.9722,31.8322 46.9722,30.0833C 46.9722,28.3345 46.2633,26.9167 45.3889,26.9167 Z M 41.1667,15.8333L 44.3333,15.8333L 34.8333,36.4167L 31.6667,36.4167L 41.1667,15.8333 Z "/>
</svg>
