<?xml version="1.0" encoding="utf-8"?>
<!DOCTYPE svg PUBLIC "-//W3C//DTD SVG 1.1//EN" "http://www.w3.org/Graphics/SVG/1.1/DTD/svg11.dtd">
<svg xmlns="http://www.w3.org/2000/svg" xmlns:xlink="http://www.w3.org/1999/xlink" version="1.1" baseProfile="full" width="76" height="76" viewBox="0 0 76.00 76.00" enable-background="new 0 0 76.00 76.00" xml:space="preserve">
	<path fill="#000000" fill-opacity="1" stroke-width="0.2" stroke-linejoin="round" d="M 20,17L 43.25,17L 56,29.75L 56,40L 52,37.5L 52,34L 39,34L 39,21L 24,21L 24,55L 36,55L 32,59L 20,59L 20,17 Z M 43,22.25L 43,30L 50.75,30L 43,22.25 Z M 48,38C 53.5228,38 58,42.4772 58,48C 58,53.5229 53.5228,58 48,58C 46.1455,58 44.4089,57.4952 42.9201,56.6155L 36.1213,63.4142C 35.3403,64.1953 34.0739,64.1953 33.2929,63.4142L 32.5858,62.7071C 31.8047,61.9261 31.8047,60.6597 32.5858,59.8787L 39.3845,53.0799C 38.5048,51.5911 38,49.8545 38,48C 38,42.4772 42.4771,38 48,38 Z M 48,42C 44.6863,42 42,44.6863 42,48C 42,51.3137 44.6863,54 48,54C 51.3137,54 54,51.3137 54,48C 54,44.6863 51.3137,42 48,42 Z "/>
</svg>
