<?xml version="1.0" encoding="utf-8"?>
<!DOCTYPE svg PUBLIC "-//W3C//DTD SVG 1.1//EN" "http://www.w3.org/Graphics/SVG/1.1/DTD/svg11.dtd">
<svg xmlns="http://www.w3.org/2000/svg" xmlns:xlink="http://www.w3.org/1999/xlink" version="1.1" baseProfile="full" width="76" height="76" viewBox="0 0 76.00 76.00" enable-background="new 0 0 76.00 76.00" xml:space="preserve">
	<path fill="#000000" fill-opacity="1" stroke-width="0.2" stroke-linejoin="round" d="M 32.3993,59.8918L 39.1332,53.3394C 38.2638,51.8343 38.0863,50.0874 38.0863,48.2242C 38.0863,42.568 42.3516,37.9827 48.0078,37.9827C 53.6641,37.9827 58.2494,42.568 58.2494,48.2242C 58.2494,53.8805 53.6641,58.1457 48.0078,58.1457C 46.2403,58.1457 44.5774,58.018 43.1262,57.2297L 36.3402,63.8328C 35.3404,64.8327 33.3992,64.8327 32.3993,63.8328C 31.3994,62.8329 31.3994,60.8917 32.3993,59.8918 Z M 48.0078,41.8233C 44.4727,41.8233 41.6069,44.6891 41.6069,48.2242C 41.6069,51.7594 44.4735,54.6252 48.0078,54.6252C 51.543,54.6252 54.4088,51.7594 54.4088,48.2242C 54.4088,44.6891 51.543,41.8233 48.0078,41.8233 Z M 20.5833,17.4167L 43.5417,17.4167L 55.4167,29.2917L 55.4166,38.7917L 52.25,36.8125L 52.25,33.25L 39.5833,33.25L 39.5833,20.5833L 23.75,20.5834L 23.75,55.4167L 34.4375,55.4167L 31.2708,58.5834L 20.5833,58.5833L 20.5833,17.4167 Z M 42.75,21.375L 42.75,30.0833L 51.4583,30.0833L 42.75,21.375 Z "/>
</svg>
