<?xml version="1.0" encoding="utf-8"?>
<!DOCTYPE svg PUBLIC "-//W3C//DTD SVG 1.1//EN" "http://www.w3.org/Graphics/SVG/1.1/DTD/svg11.dtd">
<svg xmlns="http://www.w3.org/2000/svg" xmlns:xlink="http://www.w3.org/1999/xlink" version="1.1" baseProfile="full" width="76" height="76" viewBox="0 0 76.00 76.00" enable-background="new 0 0 76.00 76.00" xml:space="preserve">
	<path fill="#000000" fill-opacity="1" stroke-width="0.2" stroke-linejoin="round" d="M 15.8333,23.75L 22.1666,23.75L 22.1667,31.6667L 28.5,31.6667L 28.5,23.75L 34.8333,23.75L 34.8333,38L 28.5,38L 28.5,44.3333L 47.5,44.3333L 47.5,38L 41.1667,38L 41.1666,23.75L 47.5,23.75L 47.5,31.6667L 53.8333,31.6667L 53.8333,23.75L 60.1666,23.75L 60.1667,38L 53.8333,38L 53.8333,50.6667L 41.1667,50.6667L 41.1667,58.5833L 34.8333,58.5833L 34.8333,50.6667L 22.1667,50.6667L 22.1667,38L 15.8333,38L 15.8333,23.75 Z "/>
</svg>
