<?xml version="1.0" encoding="utf-8"?>
<!DOCTYPE svg PUBLIC "-//W3C//DTD SVG 1.1//EN" "http://www.w3.org/Graphics/SVG/1.1/DTD/svg11.dtd">
<svg xmlns="http://www.w3.org/2000/svg" xmlns:xlink="http://www.w3.org/1999/xlink" version="1.1" baseProfile="full" width="76" height="76" viewBox="0 0 76.00 76.00" enable-background="new 0 0 76.00 76.00" xml:space="preserve">
	<path fill="#000000" fill-opacity="1" stroke-width="0.2" stroke-linejoin="round" d="M 41.1667,57L 41.1667,49.0833L 50.6667,49.0833L 50.6667,44.3333L 41.1667,44.3333L 41.1667,41.1667L 51.4583,41.1667L 51.4583,36.4167L 43.5417,36.4167L 54.1866,19.0105L 44.7283,19.0105L 40.5701,28.2772C 39.6332,30.5888 38.8111,32.3297 38.1038,34.2917L 37.989,34.2917C 37.3294,32.32 36.5265,30.5985 35.5801,28.3355L 31.5019,19.0105L 21.8662,19.0105L 32.4583,36.4167L 24.5417,36.4167L 24.5417,41.1667L 34.8333,41.1667L 34.8333,44.3333L 25.3333,44.3333L 25.3333,49.0833L 34.8333,49.0833L 34.8333,57L 41.1667,57 Z "/>
</svg>
