<?xml version="1.0" encoding="utf-8"?>
<!DOCTYPE svg PUBLIC "-//W3C//DTD SVG 1.1//EN" "http://www.w3.org/Graphics/SVG/1.1/DTD/svg11.dtd">
<svg xmlns="http://www.w3.org/2000/svg" xmlns:xlink="http://www.w3.org/1999/xlink" version="1.1" baseProfile="full" width="76" height="76" viewBox="0 0 76.00 76.00" enable-background="new 0 0 76.00 76.00" xml:space="preserve">
	<path fill="#000000" fill-opacity="1" stroke-linejoin="round" d="M 42,53L 42,55L 34,57L 34,55L 42,53 Z M 42,56L 42,58L 34,60L 34,58L 42,56 Z M 42,52L 34,54C 34,54 34,51 32.2656,50C 32.2656,50 32.25,37 27.25,28.0001C 27.25,28.0001 25,22.0001 38,22.0001C 50.9999,22.0001 48.7499,28.0001 48.7499,28.0001C 43.7499,37 43.9999,50 43.9999,50C 42,50 42,52 42,52 Z M 38,33.0001C 41,33.0001 43.9999,33.5 43.9999,33.5L 46.2499,29.0001C 48.4999,24.0001 41.9999,24.0001 38,24.0001C 34,24.0001 27.5,24.0001 29.75,29.0001L 32,33.5C 32,33.5 35,33.0001 38,33.0001 Z M 40,59.5L 40,61L 36,61L 36,60.5L 40,59.5 Z M 38,14.0001C 38.5523,14.0001 39,14.4478 39,15.0001L 39,18.0001C 39,18.5523 38.5523,19.0001 38,19.0001C 37.4477,19.0001 37,18.5523 37,18.0001L 37,15.0001C 37,14.4478 37.4477,14.0001 38,14.0001 Z M 47.2499,15.5851C 47.7281,15.8612 47.892,16.4728 47.6159,16.9511L 46.1159,19.5491C 45.8397,20.0274 45.2282,20.1913 44.7499,19.9152C 44.2716,19.639 44.1077,19.0274 44.3838,18.5491L 45.8838,15.9511C 46.16,15.4728 46.7716,15.3089 47.2499,15.5851 Z M 55.4147,20.4135C 55.674,20.9012 55.4888,21.5067 55.0012,21.7659L 52.3524,23.1743C 51.8647,23.4336 51.2592,23.2485 51,22.7609C 50.7407,22.2732 50.9258,21.6677 51.4134,21.4084L 54.0623,20C 54.5499,19.7408 55.1554,19.9259 55.4147,20.4135 Z M 56.25,29.7298C 56.1351,30.27 55.6041,30.6148 55.0639,30.5L 52.1295,29.8763C 51.5893,29.7615 51.2444,29.2304 51.3592,28.6902C 51.4741,28.15 52.0051,27.8052 52.5453,27.92L 55.4797,28.5437C 56.0199,28.6585 56.3648,29.1896 56.25,29.7298 Z M 53.7632,36.2265C 53.5564,36.7386 52.9735,36.986 52.4614,36.7791L 49.6799,35.6553C 49.1679,35.4484 48.9205,34.8656 49.1273,34.3535C 49.3342,33.8414 49.9171,33.594 50.4291,33.8009L 53.2107,34.9247C 53.7227,35.1316 53.9701,35.7144 53.7632,36.2265 Z M 28.7501,15.585C 29.2284,15.3089 29.84,15.4728 30.1161,15.9511L 31.6161,18.5491C 31.8923,19.0274 31.7284,19.639 31.2501,19.9151C 30.7718,20.1913 30.1602,20.0274 29.8841,19.5491L 28.3841,16.9511C 28.1079,16.4728 28.2718,15.8612 28.7501,15.585 Z M 20.5853,20.4135C 20.8446,19.9258 21.4501,19.7407 21.9377,20L 24.5865,21.4084C 25.0742,21.6677 25.2593,22.2732 25,22.7608C 24.7407,23.2485 24.1352,23.4336 23.6476,23.1743L 20.9988,21.7659C 20.5111,21.5066 20.326,20.9011 20.5853,20.4135 Z M 19.75,29.7297C 19.6352,29.1895 19.98,28.6585 20.5203,28.5437L 23.4547,27.92C 23.9949,27.8051 24.5259,28.15 24.6407,28.6902C 24.7555,29.2304 24.4107,29.7614 23.8705,29.8763L 20.9361,30.5C 20.3959,30.6148 19.8648,30.27 19.75,29.7297 Z M 22.2367,36.2265C 22.0298,35.7144 22.2772,35.1316 22.7893,34.9247L 25.5708,33.8009C 26.0829,33.594 26.6657,33.8414 26.8726,34.3535C 27.0795,34.8655 26.8321,35.4484 26.32,35.6553L 23.5385,36.7791C 23.0265,36.986 22.4436,36.7386 22.2367,36.2265 Z "/>
</svg>
