<?xml version="1.0" encoding="utf-8"?>
<!DOCTYPE svg PUBLIC "-//W3C//DTD SVG 1.1//EN" "http://www.w3.org/Graphics/SVG/1.1/DTD/svg11.dtd">
<svg xmlns="http://www.w3.org/2000/svg" xmlns:xlink="http://www.w3.org/1999/xlink" version="1.1" baseProfile="full" width="76" height="76" viewBox="0 0 76.00 76.00" enable-background="new 0 0 76.00 76.00" xml:space="preserve">
	<path fill="#000000" fill-opacity="1" stroke-width="0.2" stroke-linejoin="round" d="M 38,32.4583C 41.0606,32.4583 43.5417,34.9394 43.5417,38C 43.5417,41.0606 41.0606,43.5417 38,43.5417C 34.9394,43.5417 32.4583,41.0606 32.4583,38C 32.4583,34.9394 34.9394,32.4583 38,32.4583 Z M 38,35.625C 36.6883,35.625 35.625,36.6883 35.625,38C 35.625,39.3117 36.6883,40.375 38,40.375C 39.3117,40.375 40.375,39.3117 40.375,38C 40.375,36.6883 39.3117,35.625 38,35.625 Z M 62.5417,38C 62.5417,40.7728 60.5053,43.0699 57.8465,43.4774C 55.4483,52.1864 47.4712,58.5833 38,58.5833C 26.6321,58.5833 17.4167,49.3679 17.4167,38C 17.4167,26.6321 26.6321,17.4167 38,17.4167C 47.4712,17.4167 55.4483,23.8136 57.8465,32.5226C 60.5053,32.9301 62.5417,35.2273 62.5417,38 Z M 51.4583,38C 51.4583,35.7685 52.7774,33.845 54.6783,32.9667C 52.519,25.8018 45.8689,20.5833 38,20.5833C 28.381,20.5833 20.5833,28.3811 20.5833,38C 20.5833,47.619 28.381,55.4167 38,55.4167C 45.8689,55.4167 52.519,50.1983 54.6783,43.0334C 52.7774,42.1551 51.4583,40.2316 51.4583,38 Z M 57,35.625C 55.6883,35.625 54.625,36.6883 54.625,38C 54.625,39.3117 55.6883,40.375 57,40.375C 58.3117,40.375 59.375,39.3117 59.375,38C 59.375,36.6883 58.3117,35.625 57,35.625 Z "/>
</svg>
