<?xml version="1.0" encoding="utf-8"?>
<!DOCTYPE svg PUBLIC "-//W3C//DTD SVG 1.1//EN" "http://www.w3.org/Graphics/SVG/1.1/DTD/svg11.dtd">
<svg xmlns="http://www.w3.org/2000/svg" xmlns:xlink="http://www.w3.org/1999/xlink" version="1.1" baseProfile="full" width="76" height="76" viewBox="0 0 76.00 76.00" enable-background="new 0 0 76.00 76.00" xml:space="preserve">
	<path fill="#000000" fill-opacity="1" stroke-width="0.2" stroke-linejoin="round" d="M 19,23L 57,23L 57,32L 19,32L 19,23 Z M 55,25L 53,25L 53,30L 55,30L 55,25 Z M 51,25L 49,25L 49,30L 51,30L 51,25 Z M 47,25L 45,25L 45,30L 47,30L 47,25 Z M 21,28L 21,30L 23,30L 23,28L 21,28 Z M 19,34L 57,34L 57,43L 19,43L 19,34 Z M 55,36L 53,36L 53,41L 55,41L 55,36 Z M 51,36L 49,36L 49,41L 51,41L 51,36 Z M 47,36L 45,36L 45,41L 47,41L 47,36 Z M 21,39L 21,41L 23,41L 23,39L 21,39 Z M 19,45L 57,45L 57,54L 19,54L 19,45 Z M 55,47L 53,47L 53,52L 55,52L 55,47 Z M 51,47L 49,47L 49,52L 51,52L 51,47 Z M 47,47L 45,47L 45,52L 47,52L 47,47 Z M 21,50L 21,52L 23,52L 23,50L 21,50 Z "/>
</svg>
