<?xml version="1.0" encoding="utf-8"?>
<!DOCTYPE svg PUBLIC "-//W3C//DTD SVG 1.1//EN" "http://www.w3.org/Graphics/SVG/1.1/DTD/svg11.dtd">
<svg xmlns="http://www.w3.org/2000/svg" xmlns:xlink="http://www.w3.org/1999/xlink" version="1.1" baseProfile="full" width="101.356" height="101.356" viewBox="0 0 101.36 101.36" enable-background="new 0 0 101.36 101.36" xml:space="preserve">
	<path fill="#000000" fill-opacity="1" stroke-width="0.2" stroke-linejoin="round" d="M 34.3597,37.346L 26.7883,29.7745C 25.9636,28.9499 25.9636,27.6129 26.7883,26.7883C 27.6129,25.9637 28.9499,25.9637 29.7745,26.7883L 37.346,34.3597C 43.1356,30.0191 51.3852,30.4816 56.6507,35.747L 35.747,56.6507C 30.4816,51.3853 30.0191,43.1356 34.3597,37.346 Z M 65.6094,44.7057C 70.8749,49.9712 71.3373,58.2209 66.9967,64.0105L 74.5681,71.5819C 75.3927,72.4065 75.3927,73.7435 74.5681,74.5681C 73.7435,75.3928 72.4065,75.3928 71.5819,74.5682L 64.0104,66.9967C 58.2208,71.3373 49.9712,70.8749 44.7057,65.6094L 49.1851,61.1301L 45.4523,57.3973C 44.2153,56.1603 44.2153,54.1549 45.4523,52.9179C 46.6892,51.681 48.6947,51.681 49.9316,52.9179L 53.6644,56.6507L 56.6507,53.6645L 52.9179,49.9317C 51.6809,48.6947 51.6809,46.6893 52.9179,45.4523C 54.1548,44.2154 56.1603,44.2154 57.3972,45.4523L 61.13,49.1851L 65.6094,44.7057 Z "/>
</svg>
