<?xml version="1.0" encoding="utf-8"?>
<!DOCTYPE svg PUBLIC "-//W3C//DTD SVG 1.1//EN" "http://www.w3.org/Graphics/SVG/1.1/DTD/svg11.dtd">
<svg xmlns="http://www.w3.org/2000/svg" xmlns:xlink="http://www.w3.org/1999/xlink" version="1.1" baseProfile="full" width="48" height="48" viewBox="0 0 48.00 48.00" enable-background="new 0 0 48.00 48.00" xml:space="preserve">
	<path fill="#000000" d="M 11.6543,13.7908L 22.7071,13.7908L 22.7071,16.6388L 15.1225,16.6388L 15.1225,21.5448L 22.284,21.5448L 22.284,24.3643L 15.1225,24.3643L 15.1225,29.9468L 23.1299,29.9468L 23.1299,32.7945L 11.6543,32.7945L 11.6543,13.7908 Z M 28.9482,21.1217C 29.4915,20.0499 30.8628,18.7531 32.9578,18.7531C 35.1564,18.7531 37.4327,20.3039 37.4327,24.6462L 37.4327,32.7945L 34.2509,32.7945L 34.2509,25.0408C 34.2509,23.0672 33.5786,21.5729 31.8453,21.5729C 30.5784,21.5729 29.6992,22.5594 29.3625,23.6031C 29.2588,23.9131 29.2329,24.3359 29.2329,24.7306L 29.2329,32.7945L 26.025,32.7945L 26.025,23.1516C 26.025,21.5729 25.9988,20.2477 25.9219,19.0634L 28.7152,19.0634L 28.8704,21.1217L 28.9482,21.1217 Z "/>
</svg>
