<?xml version="1.0" encoding="utf-8"?>
<!DOCTYPE svg PUBLIC "-//W3C//DTD SVG 1.1//EN" "http://www.w3.org/Graphics/SVG/1.1/DTD/svg11.dtd">
<svg xmlns="http://www.w3.org/2000/svg" xmlns:xlink="http://www.w3.org/1999/xlink" version="1.1" baseProfile="full" width="76.0106" height="76.0106" viewBox="0 0 76.01 76.01" enable-background="new 0 0 76.01 76.01" xml:space="preserve">
	<path fill="#000000" fill-opacity="1" stroke-width="0.2" stroke-linejoin="round" d="M 20.0033,56.0078L 20.0033,38.0053L 18.0031,40.0056L 15.0027,35.0049L 34.0053,20.0028L 41.0063,25.5299L 41.0063,21.753L 45.0068,21.0029L 45.0068,28.6882L 53.008,35.0049L 50.0075,40.0056L 48.0073,38.0053L 48.0073,56.0078L 20.0033,56.0078 Z M 34.0053,26.9205L 23.0038,36.005L 23.0038,53.0074L 29.0046,53.0074L 29.0046,42.006L 39.006,42.006L 39.006,53.0074L 45.0068,53.0074L 45.0068,36.005L 34.0053,26.9205 Z M 57.5083,56.5078L 56.0084,53.4709L 56.0084,43.75C 54.2603,43.1322 53.0079,41.4651 53.0079,39.5055C 53.0079,37.0199 55.0229,35.0049 57.5086,35.0049C 59.9942,35.0049 62.0092,37.0199 62.0092,39.5055C 62.0092,41.4651 60.7568,43.1322 59.0088,43.7501L 59.0088,53.5074L 57.5083,56.5078 Z "/>
</svg>
