<?xml version="1.0" encoding="utf-8"?>
<!DOCTYPE svg PUBLIC "-//W3C//DTD SVG 1.1//EN" "http://www.w3.org/Graphics/SVG/1.1/DTD/svg11.dtd">
<svg xmlns="http://www.w3.org/2000/svg" xmlns:xlink="http://www.w3.org/1999/xlink" version="1.1" baseProfile="full" width="76" height="76" viewBox="0 0 76.00 76.00" enable-background="new 0 0 76.00 76.00" xml:space="preserve">
	<path fill="#000000" fill-opacity="1" stroke-width="0.2" stroke-linejoin="round" d="M 25.3333,23.7501L 28.4999,23.7501L 28.5,33.25L 25.3333,33.2501L 25.3333,23.7501 Z M 30.0833,25.3335L 33.2499,25.3335L 33.25,39.5834L 30.0833,39.5834L 28.5,41.1667L 28.5,50.6667L 25.3333,50.6667L 25.3333,41.1667L 23.75,39.5834L 20.5833,39.5835L 20.5832,25.3335L 23.7499,25.3335L 23.7499,34.8334L 24.5416,34.8334L 29.2916,34.8334L 30.0833,34.8334L 30.0833,25.3335 Z M 30.0833,47.5L 30.0833,44.3334L 50.6667,44.3334L 50.6667,30.0833L 34.8333,30.0834L 34.8333,26.9167L 55.4166,26.9167L 55.4166,47.5L 41.1666,47.5L 41.1667,50.6667L 45.125,50.6667L 45.9166,53.8333L 33.25,53.8333L 34.0417,50.6667L 38,50.6667L 38,47.5L 30.0833,47.5 Z "/>
</svg>
