<?xml version="1.0" encoding="utf-8"?>
<!DOCTYPE svg PUBLIC "-//W3C//DTD SVG 1.1//EN" "http://www.w3.org/Graphics/SVG/1.1/DTD/svg11.dtd">
<svg xmlns="http://www.w3.org/2000/svg" xmlns:xlink="http://www.w3.org/1999/xlink" version="1.1" baseProfile="full" width="76" height="76" viewBox="0 0 76.00 76.00" enable-background="new 0 0 76.00 76.00" xml:space="preserve">
	<path fill="#000000" fill-opacity="1" stroke-width="0.2" stroke-linejoin="round" d="M 38,19.0001C 41.4978,19.0001 44.3333,21.8356 44.3333,25.3334L 44.3333,36.4167C 44.3333,39.9145 41.4978,42.75 38,42.75C 34.5022,42.75 31.6666,39.9145 31.6666,36.4167L 31.6666,25.3334C 31.6666,21.8356 34.5022,19.0001 38,19.0001 Z M 30.0833,52.25L 34.8333,52.25L 34.8333,50.3136C 28.4874,48.8736 23.75,43.1984 23.75,36.4167L 23.75,31.6667L 28.5,31.6667L 28.5,36.4167C 28.5,41.6634 32.7533,45.9167 38,45.9167C 43.2467,45.9167 47.5,41.6634 47.5,36.4167L 47.5,31.6667L 52.25,31.6667L 52.25,36.4167C 52.25,43.1984 47.5126,48.8736 41.1667,50.3136L 41.1667,52.25L 45.9167,52.25L 45.9167,57L 30.0833,57L 30.0833,52.25 Z "/>
</svg>
