<?xml version="1.0" encoding="utf-8"?>
<!DOCTYPE svg PUBLIC "-//W3C//DTD SVG 1.1//EN" "http://www.w3.org/Graphics/SVG/1.1/DTD/svg11.dtd">
<svg xmlns="http://www.w3.org/2000/svg" xmlns:xlink="http://www.w3.org/1999/xlink" version="1.1" baseProfile="full" width="76" height="76" viewBox="0 0 76.00 76.00" enable-background="new 0 0 76.00 76.00" xml:space="preserve">
	<path fill="#000000" fill-opacity="1" stroke-width="0.2" stroke-linejoin="round" d="M 54.6818,20.1053L 55.8947,21.3182C 57.4019,22.8254 57.4019,25.2691 55.8947,26.7763L 53.7721,28.8989L 47.1011,22.2279L 49.2237,20.1053C 50.7309,18.5981 53.1746,18.5981 54.6818,20.1053 Z M 36.1848,46.4862L 29.5138,39.8152L 45.8881,23.4408L 52.5592,30.1119L 36.1848,46.4862 Z M 28.9073,42.241L 33.759,47.0927L 27.0251,48.9749L 28.9073,42.241 Z M 19,57L 19,25L 40.8063,25L 36.8063,29L 23,29L 23,53L 53,53L 53,32.6912L 57,28.6911L 57,57L 19,57 Z "/>
</svg>
