<?xml version="1.0" encoding="utf-8"?>
<!DOCTYPE svg PUBLIC "-//W3C//DTD SVG 1.1//EN" "http://www.w3.org/Graphics/SVG/1.1/DTD/svg11.dtd">
<svg xmlns="http://www.w3.org/2000/svg" xmlns:xlink="http://www.w3.org/1999/xlink" version="1.1" baseProfile="full" width="76" height="76" viewBox="0 0 76.00 76.00" enable-background="new 0 0 76.00 76.00" xml:space="preserve">
	<path fill="#000000" fill-opacity="1" stroke-linejoin="round" d="M 45,24L 56,24L 56,35C 56,36.6569 54.6569,38 53,38L 44,38L 47.9999,34L 52,34L 52,28L 46,28L 45.9999,31.5L 42,35.5L 42,27C 42,25.3431 43.3432,24 45,24 Z M 25,40L 37.5,40L 33.5,44L 26,44L 26,54L 36,54L 36,46L 40,42L 40,55C 40,56.6569 38.6568,58 37,58L 22,58L 22,43C 22,41.3432 23.3431,40 25,40 Z M 20,18L 35.9999,18.0001C 38.2091,18.0001 39.9999,19.791 39.9999,22.0001L 40,35.75L 35,30.7501L 35,23L 25,23L 25,33L 32.75,33.0001L 37.75,38L 24,38.0001C 21.7908,38.0001 20,36.2092 20,34.0001L 20,18 Z M 54,40C 55.6568,40 57,41.3432 57,43L 57,56L 45,56C 43.3431,56 42,54.6569 42,53L 42,42.25L 45.9999,46.25L 46,52L 53,52L 53,44L 48.2499,44L 44.25,40L 54,40 Z "/>
</svg>
