<?xml version="1.0" encoding="utf-8"?>
<!DOCTYPE svg PUBLIC "-//W3C//DTD SVG 1.1//EN" "http://www.w3.org/Graphics/SVG/1.1/DTD/svg11.dtd">
<svg xmlns="http://www.w3.org/2000/svg" xmlns:xlink="http://www.w3.org/1999/xlink" version="1.1" baseProfile="full" width="76" height="76" viewBox="0 0 76.00 76.00" enable-background="new 0 0 76.00 76.00" xml:space="preserve">
	<path fill="#000000" fill-opacity="1" stroke-linejoin="round" d="M 26.45,54.975L 26.45,49.8167C 27.0444,50.3944 27.7556,50.9153 28.5833,51.3792C 29.4111,51.8431 30.2833,52.2333 31.2,52.55C 32.1167,52.8667 33.0375,53.1125 33.9625,53.2875C 34.8875,53.4625 35.7417,53.55 36.525,53.55C 39.2306,53.55 41.25,53.0375 42.5833,52.0125C 43.9167,50.9875 44.5833,49.5139 44.5833,47.5917C 44.5833,46.5917 44.3597,45.7194 43.9125,44.975C 43.4653,44.2306 42.8486,43.5528 42.0625,42.9417C 41.2764,42.3306 40.3458,41.7431 39.2708,41.1792L 36.9541,40L 19,40L 19,36L 30.0803,36C 29.754,35.7361 29.4453,35.4639 29.1542,35.1833C 28.3125,34.3722 27.6514,33.4528 27.1708,32.425C 26.6903,31.3972 26.45,30.1917 26.45,28.8083C 26.45,27.1139 26.8292,25.6403 27.5875,24.3875C 28.3458,23.1347 29.3417,22.1028 30.575,21.2917C 31.8083,20.4806 33.2139,19.8764 34.7917,19.4792C 36.3694,19.082 37.9778,18.8833 39.6167,18.8833C 43.35,18.8833 46.0722,19.375 47.7833,20.3583L 47.7833,25.2833C 45.5667,23.5056 42.7194,22.6167 39.2417,22.6167C 38.2806,22.6167 37.3194,22.7195 36.3583,22.925C 35.3972,23.1306 34.5417,23.4667 33.7917,23.9333C 33.0417,24.4 32.4306,25 31.9583,25.7333C 31.4861,26.4667 31.25,27.3611 31.25,28.4167C 31.25,29.3667 31.4292,30.1875 31.7875,30.8792C 32.1458,31.5708 32.675,32.2014 33.375,32.7708C 34.075,33.3403 34.9278,33.8931 35.9333,34.4292L 39.0304,36L 57,36L 57,40L 45.6737,40C 45.9314,40.2196 46.179,40.4446 46.4167,40.675C 47.3278,41.5583 48.05,42.5347 48.5833,43.6042C 49.1167,44.6736 49.3833,45.9 49.3833,47.2833C 49.3833,49.1167 49.0181,50.6681 48.2875,51.9375C 47.5569,53.2069 46.5722,54.2389 45.3333,55.0333C 44.0944,55.8278 42.6653,56.4014 41.0458,56.7542C 39.4264,57.1069 37.7194,57.2833 35.925,57.2833L 33.7083,57.1292C 32.8306,57.0264 31.9333,56.8764 31.0167,56.6792C 30.1,56.4819 29.2333,56.2375 28.4167,55.9458C 27.6,55.6542 26.9444,55.3306 26.45,54.975 Z "/>
</svg>
