<?xml version="1.0" encoding="utf-8"?>
<!DOCTYPE svg PUBLIC "-//W3C//DTD SVG 1.1//EN" "http://www.w3.org/Graphics/SVG/1.1/DTD/svg11.dtd">
<svg xmlns="http://www.w3.org/2000/svg" xmlns:xlink="http://www.w3.org/1999/xlink" version="1.1" baseProfile="full" width="76" height="76" viewBox="0 0 76.00 76.00" enable-background="new 0 0 76.00 76.00" xml:space="preserve">
	<path fill="#000000" fill-opacity="1" stroke-width="0.2" stroke-linejoin="round" d="M 56.9999,19L 56.9999,57L 18.9999,57L 26.5829,49.417L 29.4158,52.25L 30.5354,51.1304L 27.7025,48.2975L 31.1408,44.8591L 35.2725,48.9908L 36.3921,47.8712L 32.2604,43.7396L 35.8973,40.1027L 38.5446,42.75L 39.6642,41.6304L 37.0169,38.9831L 40.4552,35.5448L 44.4012,39.4908L 45.5208,38.3712L 41.5748,34.4252L 45.1127,30.8873L 48.4158,34.1905L 49.5354,33.0709L 46.2323,29.7677L 49.3152,26.6848L 51.9783,29.3479L 53.0979,28.2283L 50.4348,25.5652L 56.9999,19 Z M 52.25,36.4167L 36.4167,52.25L 52.25,52.25L 52.25,36.4167 Z "/>
</svg>
