<?xml version="1.0" encoding="utf-8"?>
<!DOCTYPE svg PUBLIC "-//W3C//DTD SVG 1.1//EN" "http://www.w3.org/Graphics/SVG/1.1/DTD/svg11.dtd">
<svg xmlns="http://www.w3.org/2000/svg" xmlns:xlink="http://www.w3.org/1999/xlink" version="1.1" baseProfile="full" width="76" height="76" viewBox="0 0 76.00 76.00" enable-background="new 0 0 76.00 76.00" xml:space="preserve">
	<path fill="#000000" fill-opacity="1" stroke-width="0.2" stroke-linejoin="round" d="M 20.52,53.8333L 20.52,21.3222L 32.4069,21.3222C 36.0499,21.3222 38.8498,21.985 40.8068,23.3106C 42.7637,24.6362 43.7422,26.5037 43.7422,28.913C 43.7422,30.6595 43.1472,32.1871 41.957,33.4957C 40.7669,34.8044 39.2453,35.7152 37.3924,36.228L 37.3924,36.3223C 39.7436,36.6078 41.622,37.4629 43.0274,38.8877C 44.4328,40.3124 45.1356,42.0481 45.1356,44.0945C 45.1356,47.0844 44.0615,49.455 41.9135,51.2063C 39.7654,52.9577 36.8312,53.8333 33.1108,53.8333L 20.52,53.8333 Z M 27.9511,26.8956L 27.9511,34.3267L 31.0934,34.3267C 32.5689,34.3267 33.7301,33.9735 34.5767,33.2672C 35.4233,32.5608 35.8467,31.5884 35.8467,30.3499C 35.8467,28.047 34.1074,26.8956 30.6289,26.8956L 27.9511,26.8956 Z M 27.9511,39.9L 27.9511,48.26L 31.8771,48.26C 33.551,48.26 34.8633,47.8766 35.814,47.1098C 36.7647,46.343 37.24,45.2967 37.24,43.9711C 37.24,42.7036 36.7731,41.7082 35.8394,40.9849C 34.9057,40.2616 33.5994,39.9 31.9207,39.9L 27.9511,39.9 Z M 46.3125,34.8333L 64.5208,34.8333L 64.5208,41.1667L 46.3125,41.1667L 46.3125,34.8333 Z "/>
</svg>
