<?xml version="1.0" encoding="utf-8"?>
<!DOCTYPE svg PUBLIC "-//W3C//DTD SVG 1.1//EN" "http://www.w3.org/Graphics/SVG/1.1/DTD/svg11.dtd">
<svg xmlns="http://www.w3.org/2000/svg" xmlns:xlink="http://www.w3.org/1999/xlink" version="1.1" baseProfile="full" width="76" height="76" viewBox="0 0 76.00 76.00" enable-background="new 0 0 76.00 76.00" xml:space="preserve">
	<path fill="#000000" fill-opacity="1" stroke-width="0.2" stroke-linejoin="round" d="M 20,17L 44.25,17L 56,28.75L 56,59L 20,59L 20,17 Z M 24,21L 24,55L 52,55L 52,34L 39,34L 39,21L 24,21 Z M 43,22.25L 43,30L 50.75,30L 43,22.25 Z M 27,47.5L 30,50.5L 42.5,38L 47.5,43L 51,39L 51,54L 25,54L 25,50L 27,47.5 Z M 33,22C 33,26.3723 29.3723,30 25,30L 25,22L 33,22 Z "/>
</svg>
