<?xml version="1.0" encoding="utf-8"?>
<!DOCTYPE svg PUBLIC "-//W3C//DTD SVG 1.1//EN" "http://www.w3.org/Graphics/SVG/1.1/DTD/svg11.dtd">
<svg xmlns="http://www.w3.org/2000/svg" xmlns:xlink="http://www.w3.org/1999/xlink" version="1.1" baseProfile="full" width="76" height="76" viewBox="0 0 76.00 76.00" enable-background="new 0 0 76.00 76.00" xml:space="preserve">
	<path fill="#000000" fill-opacity="1" stroke-linejoin="round" d="M 21.3,17L 46.7,17C 47.418,17 48,17.5821 48,18.3L 48,24.7C 48,25.418 47.418,26 46.7,26L 31.3,26C 30.0298,26 29,27.0298 29,28.3L 29,49.7C 29,50.418 28.418,51 27.7,51L 21.3,51C 20.582,51 20,50.418 20,49.7L 20,18.3C 20,17.582 20.582,17 21.3,17 Z M 33.3,29L 54.7,29C 55.418,29 56,29.5821 56,30.3L 56,57.7C 56,58.418 55.418,59 54.7,59L 33.3,59C 32.582,59 32,58.418 32,57.7L 32,30.3C 32,29.5821 32.582,29 33.3,29 Z M 50.3334,46.296C 50.3334,45.4463 50.2139,44.6817 49.9751,44.0022C 49.7363,43.3227 49.3965,42.7454 48.9559,42.2704C 48.5152,41.7954 47.9834,41.4326 47.3606,41.1819C 46.7379,40.9312 46.0386,40.8058 45.2627,40.8058C 44.3893,40.8058 43.6286,40.9747 42.9807,41.3125C 42.3329,41.6503 41.819,42.1121 41.439,42.6979L 41.3677,42.6979C 41.3756,41.6582 41.501,40.7405 41.7438,39.9449C 41.9866,39.1493 42.3204,38.4816 42.7452,37.942C 43.1701,37.4023 43.6754,36.992 44.2613,36.7109C 44.8471,36.4299 45.4857,36.2894 46.1771,36.2894C 46.7972,36.2894 47.3461,36.3639 47.8238,36.513L 49.1696,37.0573L 49.1696,34.4725C 48.8397,34.3142 48.401,34.1901 47.8535,34.1004C 47.3059,34.0107 46.6983,33.9658 46.0306,33.9658C 44.9566,33.9658 43.9578,34.1882 43.0342,34.6328C 42.1106,35.0775 41.307,35.7286 40.6236,36.5863C 39.9401,37.4439 39.4024,38.508 39.0105,39.7786C 38.6187,41.0493 38.4227,42.5053 38.4227,44.1467C 38.4227,45.4899 38.5712,46.6708 38.868,47.6894C 39.1649,48.708 39.5832,49.5597 40.1228,50.2445C 40.6625,50.9293 41.3057,51.4445 42.0525,51.7902C 42.7993,52.1359 43.6174,52.3087 44.5067,52.3087C 45.3406,52.3087 46.1144,52.1623 46.8282,51.8694C 47.5421,51.5765 48.1582,51.1641 48.6768,50.6324C 49.1953,50.1007 49.6011,49.468 49.894,48.7344C 50.1869,48.0008 50.3334,47.188 50.3334,46.296 Z M 47.4398,46.5335C 47.4398,47.0191 47.3758,47.4703 47.2478,47.8873C 47.1198,48.3042 46.9345,48.6651 46.6917,48.9699C 46.4489,49.2747 46.1461,49.5135 45.7832,49.6864C 45.4204,49.8592 45.0041,49.9456 44.5344,49.9456C 44.0066,49.9456 43.5507,49.8282 43.1668,49.5933C 42.7828,49.3585 42.4668,49.0596 42.2188,48.6968C 41.9707,48.3339 41.7873,47.9322 41.6686,47.4915C 41.5498,47.0508 41.4904,46.6193 41.4904,46.1971C 41.4904,45.8092 41.5544,45.4298 41.6824,45.0591C 41.8104,44.6883 42.0017,44.3584 42.2564,44.0695C 42.511,43.7805 42.8264,43.5476 43.2024,43.3708C 43.5784,43.194 44.0132,43.1056 44.5067,43.1056C 45.0028,43.1056 45.4342,43.1881 45.8011,43.353C 46.1679,43.518 46.4727,43.7508 46.7154,44.0517C 46.9582,44.3525 47.1396,44.7134 47.2597,45.1343C 47.3798,45.5552 47.4398,46.0216 47.4398,46.5335 Z "/>
</svg>
