<?xml version="1.0" encoding="utf-8"?>
<!DOCTYPE svg PUBLIC "-//W3C//DTD SVG 1.1//EN" "http://www.w3.org/Graphics/SVG/1.1/DTD/svg11.dtd">
<svg xmlns="http://www.w3.org/2000/svg" xmlns:xlink="http://www.w3.org/1999/xlink" version="1.1" baseProfile="full" width="76" height="76" viewBox="0 0 76.00 76.00" enable-background="new 0 0 76.00 76.00" xml:space="preserve">
	<path fill="#000000" fill-opacity="1" stroke-width="0.2" stroke-linejoin="round" d="M 20.5833,23.75L 61.75,23.75L 61.75,58.5833L 20.5833,58.5833L 20.5833,23.75 Z M 23.75,26.9167L 23.75,55.4167L 58.5833,55.4167L 58.5833,26.9167L 23.75,26.9167 Z M 26.9167,53.8333L 33.25,47.5L 36.4166,50.6667L 49.0833,38L 53.8333,42.75L 57,39.5834L 57,53.8333L 26.9167,53.8333 Z M 33.25,30.0834C 33.25,33.5812 30.4145,36.4167 26.9167,36.4167C 26.3699,36.4167 25.8394,36.3474 25.3333,36.2172L 25.3333,28.5L 33.0505,28.5C 33.1807,29.0061 33.25,29.5366 33.25,30.0834 Z M 58.5833,22.1667L 19,22.1667L 19,55.4167L 17.4167,55.4167L 17.4167,22.1667L 17.4167,20.5833L 58.5833,20.5833L 58.5833,22.1667 Z M 55.4167,19L 15.8333,19L 15.8333,52.25L 14.25,52.25L 14.25,19L 14.25,17.4167L 55.4167,17.4167L 55.4167,19 Z "/>
</svg>
