<?xml version="1.0" encoding="utf-8"?>
<!DOCTYPE svg PUBLIC "-//W3C//DTD SVG 1.1//EN" "http://www.w3.org/Graphics/SVG/1.1/DTD/svg11.dtd">
<svg xmlns="http://www.w3.org/2000/svg" xmlns:xlink="http://www.w3.org/1999/xlink" version="1.1" baseProfile="full" width="76" height="76" viewBox="0 0 76.00 76.00" enable-background="new 0 0 76.00 76.00" xml:space="preserve">
	<g>
		<path fill="#000000" fill-opacity="1" stroke-width="0.2" stroke-linejoin="round" d="M 27.7968,50.6429L 33.3832,50.6429L 33.3832,25.9904L 28.6329,25.9904L 22.0585,29.0246L 23.0085,33.3482L 27.7208,31.1105L 27.7968,31.1105L 27.7968,50.6429 Z "/>
		<path fill="#000000" fill-opacity="1" stroke-width="0.2" stroke-linejoin="round" d="M 35.5149,32.4504L 41.6318,41.3796L 35.3638,50.6429L 41.6696,50.6429L 43.4065,47.3691C 43.8722,46.4887 44.3379,45.571 44.8036,44.6162L 44.9168,44.6162C 45.3573,45.5524 45.8356,46.4701 46.3517,47.3691L 48.2018,50.6429L 54.6964,50.6429L 48.5417,41.1192L 54.6208,32.4504L 48.3906,32.4504L 46.767,35.4272C 46.2887,36.3015 45.8105,37.2315 45.3322,38.2174L 45.2567,38.2174C 44.7721,37.3307 44.2686,36.4255 43.7463,35.5016L 41.9339,32.4504L 35.5149,32.4504 Z "/>
	</g>
</svg>
