<?xml version="1.0" encoding="utf-8"?>
<!DOCTYPE svg PUBLIC "-//W3C//DTD SVG 1.1//EN" "http://www.w3.org/Graphics/SVG/1.1/DTD/svg11.dtd">
<svg xmlns="http://www.w3.org/2000/svg" xmlns:xlink="http://www.w3.org/1999/xlink" version="1.1" baseProfile="full" width="76" height="76" viewBox="0 0 76.00 76.00" enable-background="new 0 0 76.00 76.00" xml:space="preserve">
	<path fill="#000000" fill-opacity="1" stroke-width="0.2" stroke-linejoin="round" d="M 18.9367,53.8333L 18.9367,21.3222L 30.8235,21.3222C 34.4665,21.3222 37.2665,21.985 39.2235,23.3106C 41.1804,24.6362 42.1589,26.5037 42.1589,28.913C 42.1589,30.6595 41.5638,32.1871 40.3737,33.4957C 39.1835,34.8044 37.662,35.7152 35.8091,36.228L 35.8091,36.3223C 38.1603,36.6078 40.0386,37.4629 41.4441,38.8877C 42.8495,40.3124 43.5522,42.0481 43.5522,44.0945C 43.5522,47.0844 42.4782,49.455 40.3301,51.2063C 38.1821,52.9577 35.2479,53.8333 31.5275,53.8333L 18.9367,53.8333 Z M 26.3678,26.8956L 26.3678,34.3267L 29.51,34.3267C 30.9856,34.3267 32.1467,33.9735 32.9934,33.2672C 33.84,32.5608 34.2633,31.5884 34.2633,30.3499C 34.2633,28.047 32.5241,26.8956 29.0456,26.8956L 26.3678,26.8956 Z M 26.3678,39.9L 26.3678,48.26L 30.2938,48.26C 31.9677,48.26 33.28,47.8766 34.2307,47.1098C 35.1813,46.343 35.6567,45.2967 35.6567,43.9711C 35.6567,42.7036 35.1898,41.7082 34.2561,40.9849C 33.3223,40.2616 32.0161,39.9 30.3373,39.9L 26.3678,39.9 Z M 46.3125,34.8333L 52.25,34.8333L 52.25,28.8958L 58.5833,28.8958L 58.5833,34.8333L 64.5208,34.8333L 64.5208,41.1667L 58.5833,41.1667L 58.5833,47.1042L 52.25,47.1042L 52.25,41.1667L 46.3125,41.1667L 46.3125,34.8333 Z "/>
</svg>
