<?xml version="1.0" encoding="utf-8"?>
<!DOCTYPE svg PUBLIC "-//W3C//DTD SVG 1.1//EN" "http://www.w3.org/Graphics/SVG/1.1/DTD/svg11.dtd">
<svg xmlns="http://www.w3.org/2000/svg" xmlns:xlink="http://www.w3.org/1999/xlink" version="1.1" baseProfile="full" width="76" height="76" viewBox="0 0 76.00 76.00" enable-background="new 0 0 76.00 76.00" xml:space="preserve">
	<path fill="#000000" fill-opacity="1" stroke-width="0.2" stroke-linejoin="round" d="M 50.6667,22.1667C 52.4156,22.1667 53.8333,23.5844 53.8333,25.3333C 53.8333,25.9101 53.6791,26.4509 53.4097,26.9167L 53.8333,26.9167C 55.5822,26.9167 57,28.3344 57,30.0833C 57,31.8322 55.5822,33.25 53.8333,33.25L 55.4167,33.25C 57.1656,33.25 58.5833,34.6678 58.5833,36.4167C 58.5833,38.1656 57.1656,39.5833 55.4167,39.5833L 23.75,39.5833C 22.0011,39.5833 20.5833,38.1656 20.5833,36.4167C 20.5833,34.6678 22.0011,33.25 23.75,33.25L 25.3333,33.25C 23.5844,33.25 22.1667,31.8322 22.1667,30.0833C 22.1667,28.3344 23.5844,26.9167 25.3333,26.9167L 25.757,26.9167C 25.4875,26.4509 25.3333,25.9101 25.3333,25.3333C 25.3333,23.5844 26.7511,22.1667 28.5,22.1667C 30.0833,22.1667 33.25,19 39.5833,17.4167C 45.9167,22.1667 49.0833,22.1667 50.6667,22.1667 Z M 23.75,41.1667L 55.4167,41.1667L 50.6667,57L 28.5,57L 23.75,41.1667 Z "/>
</svg>
