<?xml version="1.0" encoding="utf-8"?>
<!DOCTYPE svg PUBLIC "-//W3C//DTD SVG 1.1//EN" "http://www.w3.org/Graphics/SVG/1.1/DTD/svg11.dtd">
<svg xmlns="http://www.w3.org/2000/svg" xmlns:xlink="http://www.w3.org/1999/xlink" version="1.1" baseProfile="full" width="76" height="76" viewBox="0 0 76.00 76.00" enable-background="new 0 0 76.00 76.00" xml:space="preserve">
	<path fill="#000000" fill-opacity="1" stroke-width="0.2" stroke-linejoin="round" d="M 19,45L 27,45L 27,53L 19,53L 19,45 Z M 31,45L 57,45L 57,53L 31,53L 31,45 Z M 31,42L 31,34L 35,34.0001L 35,35.0001L 32,35.0001L 32,41.0001L 41,41.0001L 41,42.0001L 31,42 Z M 57,34L 57,42L 47,42.0001L 47,41.0001L 56,41.0001L 56,35.0001L 53,35.0001L 53,34.0001L 57,34 Z M 36,38.25L 36.0001,32.75L 44,24.75L 52,32.75L 52,38.25L 46,32.25L 46,42L 42,42L 42,32.25L 36,38.25 Z M 31,23L 57,23L 57,31L 52.25,31L 51.25,30L 56,30L 56,24L 32,24L 32,30L 36.75,30L 35.75,31L 31,31L 31,23 Z M 19,23L 27,23L 27,31L 19,31L 19,23 Z M 20,24L 20,30L 26,30L 26,24L 20,24 Z M 19,34L 27,34L 27,42L 19,42L 19,34 Z M 26,35L 20,35L 20,41L 26,41L 26,35 Z "/>
</svg>
