<?xml version="1.0" encoding="utf-8"?>
<!DOCTYPE svg PUBLIC "-//W3C//DTD SVG 1.1//EN" "http://www.w3.org/Graphics/SVG/1.1/DTD/svg11.dtd">
<svg xmlns="http://www.w3.org/2000/svg" xmlns:xlink="http://www.w3.org/1999/xlink" version="1.1" baseProfile="full" width="76" height="76" viewBox="0 0 76.00 76.00" enable-background="new 0 0 76.00 76.00" xml:space="preserve">
	<path fill="#000000" fill-opacity="1" stroke-width="0.2" stroke-linejoin="round" d="M 19,20.5833L 30.0833,20.5834L 30.0833,23.7501L 19,23.75L 19,20.5833 Z M 33.2499,20.5835L 42.75,20.5834L 42.75,23.7501L 33.2499,23.7501L 33.2499,20.5835 Z M 57,20.5834L 57,23.75L 45.9167,23.7501L 45.9167,20.5834L 57,20.5834 Z M 19,26.9167L 30.0832,26.9168L 30.0832,30.0834L 19,30.0834L 19,26.9167 Z M 33.2499,26.9168L 42.75,26.9167L 42.75,30.0834L 33.2499,30.0834L 33.2499,26.9168 Z M 57,26.9167L 57,30.0834L 45.9167,30.0834L 45.9167,26.9167L 57,26.9167 Z M 19,33.25L 30.0833,33.2501L 30.0833,36.4168L 19,36.4167L 19,33.25 Z M 33.2499,33.2501L 42.75,33.2501L 42.75,36.4167L 33.2499,36.4168L 33.2499,33.2501 Z M 57,33.25L 57,36.4167L 45.9167,36.4167L 45.9167,33.2501L 57,33.25 Z M 19,39.5834L 30.0833,39.5834L 30.0833,42.75L 19,42.75L 19,39.5834 Z M 33.2499,39.5834L 42.75,39.5834L 42.75,42.75L 33.2499,42.75L 33.2499,39.5834 Z M 57,39.5834L 57,42.75L 45.9167,42.75L 45.9167,39.5834L 57,39.5834 Z M 19,45.9167L 30.0833,45.9167L 30.0833,49.0834L 19,49.0833L 19,45.9167 Z M 33.2499,45.9167L 42.75,45.9167L 42.75,49.0834L 33.2499,49.0834L 33.2499,45.9167 Z M 57,45.9167L 57,49.0833L 45.9167,49.0834L 45.9167,45.9167L 57,45.9167 Z M 19,52.25L 30.0833,52.25L 30.0833,55.4167L 19,55.4167L 19,52.25 Z M 33.2499,52.25L 42.75,52.25L 42.75,55.4167L 33.2499,55.4167L 33.2499,52.25 Z M 57,52.25L 57,55.4167L 45.9167,55.4167L 45.9167,52.25L 57,52.25 Z "/>
</svg>
