<?xml version="1.0" encoding="utf-8"?>
<!DOCTYPE svg PUBLIC "-//W3C//DTD SVG 1.1//EN" "http://www.w3.org/Graphics/SVG/1.1/DTD/svg11.dtd">
<svg xmlns="http://www.w3.org/2000/svg" xmlns:xlink="http://www.w3.org/1999/xlink" version="1.1" baseProfile="full" width="76" height="76" viewBox="0 0 76.00 76.00" enable-background="new 0 0 76.00 76.00" xml:space="preserve">
	<path fill="#000000" fill-opacity="1" stroke-width="0.2" stroke-linejoin="round" d="M 20,36C 22.3467,35.8579 24,33.9425 24,31L 23.9675,25.6529C 23.9675,21.2254 27.6,19.055 32,19L 32,23C 29.6533,23.0596 28,24.2042 28,27L 28,32C 28,35 26.5,37.5 24.5,38C 26.5,38.5 28,41 28,44L 28,49C 28,51.7958 29.6536,52.9404 32,53L 32,57C 27.6,56.945 23.9675,54.7746 23.9675,50.3471L 24,45C 24,42.0575 22.3467,40.1421 20,40L 20,36 Z M 56,36L 56,40C 53.6533,40.1421 52,42.0575 52,45L 52.0325,50.3471C 52.0325,54.7746 48.4,56.945 44,57L 44,53C 46.3467,52.9404 48,51.7958 48,49L 48,44C 48,41 49.5,38.5 51.5,38C 49.5,37.5 48,35 48,32L 48,27C 48,24.2042 46.3467,23.0596 44,23L 44,19C 48.4,19.055 52.0325,21.2254 52.0325,25.6529L 52,31C 52,33.9425 53.6533,35.8579 56,36 Z "/>
</svg>
