<?xml version="1.0" encoding="utf-8"?>
<!DOCTYPE svg PUBLIC "-//W3C//DTD SVG 1.1//EN" "http://www.w3.org/Graphics/SVG/1.1/DTD/svg11.dtd">
<svg xmlns="http://www.w3.org/2000/svg" xmlns:xlink="http://www.w3.org/1999/xlink" version="1.1" baseProfile="full" width="76" height="76" viewBox="0 0 76.00 76.00" enable-background="new 0 0 76.00 76.00" xml:space="preserve">
	<path fill="#000000" fill-opacity="1" stroke-width="0.2" stroke-linejoin="round" d="M 20,17L 25,17L 25,21L 24,21L 24,22L 20,22L 20,17 Z M 43.2499,17.0001L 46.4178,20.168L 43.6678,22.918L 42.9999,22.2501L 43,22L 39,22L 38.9999,21.0001L 39,17L 43.2499,17.0001 Z M 55.9999,29.7501L 56,34L 52,34L 51,34L 51,30L 50.7499,30.0001L 50.082,29.3322L 52.832,26.5822L 55.9999,29.7501 Z M 45.082,24.3323L 47.832,21.5823L 51.4178,25.168L 48.6677,27.918L 45.082,24.3323 Z M 42.9999,28.0001L 39,28.0001L 39,24L 43,24L 42.9999,28.0001 Z M 44.9999,34L 44.9999,30.0001L 49,30L 49,34L 44.9999,34 Z M 55.9999,46L 51.9999,46L 52,42L 56,42L 55.9999,46 Z M 52,36L 56,36L 56,40L 52,40L 52,36 Z M 32.9999,21.0001L 32.9999,17.0001L 37,17L 37,21L 32.9999,21.0001 Z M 55.9999,59L 51,59L 51,55L 51.9999,55L 51.9999,54L 55.9999,54L 55.9999,59 Z M 45,59L 45,55L 49,55L 49,59L 45,59 Z M 39,59L 39,55L 43,55L 43,59L 39,59 Z M 51.9999,48L 55.9999,48L 55.9999,52L 51.9999,52L 51.9999,48 Z M 42.9999,30.0001L 42.9999,34L 38.9999,34.0001L 39,30.0001L 42.9999,30.0001 Z M 33,59L 33,55L 37,55L 37,59L 33,59 Z M 27,59L 27,55L 30.9999,55L 30.9999,59L 27,59 Z M 20,59L 20,54L 24,54L 23.9999,55L 25,55L 25,59L 20,59 Z M 20,48L 24,48L 24,52L 20,52L 20,48 Z M 20,42L 24,42L 24,46L 20,46L 20,42 Z M 20,36.0001L 23.9999,36.0001L 24,40L 20,40L 20,36.0001 Z M 20,30.0001L 23.9999,30.0001L 23.9999,34.0001L 20,34.0001L 20,30.0001 Z M 20,24.0001L 23.9999,24.0001L 23.9999,28.0001L 20,28.0001L 20,24.0001 Z M 26.9999,21.0001L 26.9999,17.0001L 30.9999,17.0001L 30.9999,21.0001L 26.9999,21.0001 Z "/>
</svg>
