<?xml version="1.0" encoding="utf-8"?>
<!DOCTYPE svg PUBLIC "-//W3C//DTD SVG 1.1//EN" "http://www.w3.org/Graphics/SVG/1.1/DTD/svg11.dtd">
<svg xmlns="http://www.w3.org/2000/svg" xmlns:xlink="http://www.w3.org/1999/xlink" version="1.1" baseProfile="full" width="76" height="76" viewBox="0 0 76.00 76.00" enable-background="new 0 0 76.00 76.00" xml:space="preserve">
	<path fill="#000000" fill-opacity="1" stroke-width="0.2" stroke-linejoin="round" d="M 22,38L 27,38L 27,57L 22,57L 22,38 Z M 31,38L 36,38L 36,57L 31,57L 31,38 Z M 49.0833,28.5C 53.4555,28.5 57,32.0445 57,36.4167C 57,40.7889 53.9046,43.9999 49.5,44L 37,44L 37,37L 30,37L 30,44L 28,44L 28,37L 22.25,37L 22.1667,35.6249C 22.1667,32.6493 24.5123,30.2213 27.4553,30.0889C 28.7579,26.3962 32.2783,23.7499 36.4167,23.7499C 40.3459,23.7499 43.7179,26.1353 45.1637,29.5369C 46.3193,28.877 47.6573,28.5 49.0833,28.5 Z M 19,40.375C 19,39.08 20.0386,37.7221 21,37L 21,44C 20.0386,43.2778 19,41.67 19,40.375 Z "/>
</svg>
