<?xml version="1.0" encoding="utf-8"?>
<!DOCTYPE svg PUBLIC "-//W3C//DTD SVG 1.1//EN" "http://www.w3.org/Graphics/SVG/1.1/DTD/svg11.dtd">
<svg xmlns="http://www.w3.org/2000/svg" xmlns:xlink="http://www.w3.org/1999/xlink" version="1.1" baseProfile="full" width="76" height="76" viewBox="0 0 76.00 76.00" enable-background="new 0 0 76.00 76.00" xml:space="preserve">
	<path fill="#000000" fill-opacity="1" stroke-width="0.2" stroke-linejoin="round" d="M 20,17L 44,17L 56,29L 56,45.1515C 57.8558,47.0453 59,49.639 59,52.5C 59,58.299 54.299,63 48.5,63C 45.1554,63 42.1761,61.4363 40.2532,59L 20,59L 20,17 Z M 24,21L 24,55L 38.2994,55C 38.1038,54.1988 38,53.3615 38,52.5C 38,46.701 42.701,42 48.5,42C 49.7272,42 50.9053,42.2105 52,42.5975L 52,34L 39,34L 39,21L 24,21 Z M 43,21L 43,30L 52,30L 43,21 Z M 51.8483,46.7975L 49.5583,46.7975L 48.6096,48.5662L 47.4021,50.4062L 46.0583,52.1837L 44.7158,53.7725L 44.7158,55.7025L 49.5983,55.7025L 49.5983,58L 51.8483,58L 51.8483,55.7025L 53.4258,55.7025L 53.4258,53.86L 51.8483,53.86L 51.8483,46.7975 Z M 46.9258,53.86L 47.6221,52.9725L 48.332,51.9962L 49.0045,50.9725L 49.5983,49.945L 49.5983,53.86L 46.9258,53.86 Z "/>
</svg>
