<?xml version="1.0" encoding="utf-8"?>
<!DOCTYPE svg PUBLIC "-//W3C//DTD SVG 1.1//EN" "http://www.w3.org/Graphics/SVG/1.1/DTD/svg11.dtd">
<svg xmlns="http://www.w3.org/2000/svg" xmlns:xlink="http://www.w3.org/1999/xlink" version="1.1" baseProfile="full" width="76" height="76" viewBox="0 0 76.00 76.00" enable-background="new 0 0 76.00 76.00" xml:space="preserve">
	<path fill="#000000" fill-opacity="1" stroke-linejoin="round" d="M 50,27C 51.1046,27 52,27.8954 52,29L 52,47C 52,48.1046 51.1046,49 50,49L 25.9999,49.0001C 24.8954,49.0001 24,48.1047 24,47.0001L 24,32.5002L 29.4999,27.0002L 50,27 Z M 46,31.0001L 30,31.0001C 28.8955,31.0001 28,31.8955 28,33.0001L 28,45C 28,46.1046 28.8955,47 30,47L 46,47C 47.1046,47 48,46.1046 48,45L 48,33.0001C 48,31.8955 47.1046,31.0001 46,31.0001 Z M 30,32.0001L 36.9051,32.0001C 36.1344,32.3613 35.4819,33.0871 35.0518,34L 29,34L 29,33.0001C 29,32.4478 29.4477,32.0001 30,32.0001 Z M 46,32.0001C 46.5523,32.0001 47,32.4478 47,33.0001L 47,34L 40.9482,34C 40.5182,33.0871 39.8657,32.3613 39.0949,32.0001L 46,32.0001 Z M 47,35L 47,38L 41.3009,38C 41.4299,37.5309 41.5,37.026 41.5,36.5C 41.5,35.9844 41.4326,35.4784 41.3085,35L 47,35 Z M 47,39L 47,42L 40.9787,42C 40.9103,41.2042 40.6804,40.4709 40.3322,39.8555C 40.5517,39.6031 40.7463,39.3157 40.9107,39L 47,39 Z M 47,43L 47,45C 47,45.5523 46.5523,46 46,46L 39.5314,46C 40.3203,45.3402 40.8656,44.2855 40.9784,43L 47,43 Z M 30,46C 29.4477,46 29,45.5523 29,45L 29,43L 34.0217,43C 34.1345,44.2855 34.6797,45.3402 35.4687,46L 30,46 Z M 29,42L 29,39L 35.0894,39C 35.1149,39.0489 35.141,39.097 35.1679,39.1445C 34.542,39.8641 34.1187,40.8689 34.0214,42L 29,42 Z M 29,38L 29,35L 34.6916,35C 34.5675,35.4784 34.5,35.9844 34.5,36.5C 34.5,37.026 34.5702,37.5309 34.6992,38L 29,38 Z M 38,32.75C 39.3807,32.75 40.5,34.567 40.5,36.5C 40.5,37.9323 39.8855,39.1636 39.0054,39.7055C 39.6096,40.3443 40,41.3583 40,42.5C 40,44.433 38.8807,45.75 37.5,45.75C 36.1193,45.75 35,44.433 35,42.5C 35,41.0677 35.6146,39.8364 36.4946,39.2946C 35.8905,38.6557 35.5,37.6417 35.5,36.5C 35.5,34.567 36.6193,32.75 38,32.75 Z "/>
</svg>
