<?xml version="1.0" encoding="utf-8"?>
<!DOCTYPE svg PUBLIC "-//W3C//DTD SVG 1.1//EN" "http://www.w3.org/Graphics/SVG/1.1/DTD/svg11.dtd">
<svg xmlns="http://www.w3.org/2000/svg" xmlns:xlink="http://www.w3.org/1999/xlink" version="1.1" baseProfile="full" width="76" height="76" viewBox="0 0 76.00 76.00" enable-background="new 0 0 76.00 76.00" xml:space="preserve">
	<path fill="#000000" fill-opacity="1" stroke-width="0.2" stroke-linejoin="round" d="M 19,10.2917C 27.3776,9.99247 34.8506,14.4426 38,16.6332C 41.1494,14.4426 48.6224,9.99247 57,10.2917C 60.1667,11.4792 60.5625,12.2709 60.5625,12.2709C 60.5625,12.2709 51.8542,15.0417 45.5208,22.9583C 53.8333,33.6458 65.3125,48.2917 63.7292,60.9583C 55.4167,46.3125 45.8739,35.2702 38,30.6145C 30.1261,35.2702 20.5833,46.3125 12.2708,60.9583C 10.6875,48.2917 22.1667,33.6458 30.4792,22.9583C 24.1458,15.0417 15.4375,12.2709 15.4375,12.2709C 15.4375,12.2709 15.8333,11.4792 19,10.2917 Z "/>
</svg>
