<?xml version="1.0" encoding="utf-8"?>
<!DOCTYPE svg PUBLIC "-//W3C//DTD SVG 1.1//EN" "http://www.w3.org/Graphics/SVG/1.1/DTD/svg11.dtd">
<svg xmlns="http://www.w3.org/2000/svg" xmlns:xlink="http://www.w3.org/1999/xlink" version="1.1" baseProfile="full" width="76" height="76" viewBox="0 0 76.00 76.00" enable-background="new 0 0 76.00 76.00" xml:space="preserve">
	<path fill="#000000" fill-opacity="1" stroke-width="0.2" stroke-linejoin="round" d="M 10.2917,31.6667L 15.8334,31.6667L 15.8333,25.3334C 15.8333,21.8356 18.6689,19 22.1667,19L 28.5,19L 28.5,25.3334L 25.3334,25.3334C 23.5845,25.3334 22.1667,26.7511 22.1667,28.5L 22.1667,31.6667L 28.5,31.6667L 28.5,36.4167L 22.1667,36.4167L 22.1667,57L 15.8333,57L 15.8334,36.4167L 9.50002,36.4167L 10.2917,31.6667 Z M 39.3716,32.0629L 31.441,24.1322C 30.8359,23.5271 30.8359,22.5461 31.441,21.941C 32.0461,21.3359 33.0271,21.3359 33.6322,21.941L 41.5628,29.8717C 45.811,26.6867 51.8643,27.026 55.7279,30.8896L 40.3896,46.2279C 36.526,42.3643 36.1867,36.311 39.3716,32.0629 Z M 58.3431,33.5048C 62.2067,37.3684 62.546,43.4217 59.361,47.6699L 68.0833,56.3921L 65.8922,58.5833L 57.1698,49.8611C 52.9217,53.046 46.8684,52.7067 43.0048,48.8431L 46.2916,45.5564L 43.5526,42.8174C 42.645,41.9097 42.645,40.4382 43.5526,39.5306C 44.4602,38.623 45.9318,38.623 46.8394,39.5306L 49.5784,42.2696L 51.7696,40.0784L 49.0306,37.3394C 48.123,36.4318 48.123,34.9602 49.0306,34.0526C 49.9382,33.145 51.4097,33.145 52.3174,34.0526L 55.0563,36.7916L 58.3431,33.5048 Z "/>
</svg>
