<?xml version="1.0" encoding="utf-8"?>
<!DOCTYPE svg PUBLIC "-//W3C//DTD SVG 1.1//EN" "http://www.w3.org/Graphics/SVG/1.1/DTD/svg11.dtd">
<svg xmlns="http://www.w3.org/2000/svg" xmlns:xlink="http://www.w3.org/1999/xlink" version="1.1" baseProfile="full" width="76" height="76" viewBox="0 0 76.00 76.00" enable-background="new 0 0 76.00 76.00" xml:space="preserve">
	<path fill="#000000" fill-opacity="1" stroke-linejoin="round" d="M 57,38C 57,48.4934 48.4934,57 38,57C 27.5066,57 19,48.4934 19,38L 19,23.75C 19,21.1267 21.1266,19 23.75,19L 52.25,19C 54.8733,19 57,21.1267 57,23.75L 57,38 Z M 45.3798,30.8661L 38.0084,38.2376L 30.6251,30.8543C 29.5121,29.7413 27.7076,29.7413 26.5946,30.8543C 25.4816,31.9672 25.4816,33.7717 26.5946,34.8847L 35.9753,44.3011C 37.0883,45.4141 38.8928,45.4141 40.0058,44.3011L 49.4103,34.8966C 50.5233,33.7836 50.5233,31.9791 49.4103,30.8661C 48.2973,29.7532 46.4928,29.7532 45.3798,30.8661 Z "/>
</svg>
