<?xml version="1.0" encoding="utf-8"?>
<!DOCTYPE svg PUBLIC "-//W3C//DTD SVG 1.1//EN" "http://www.w3.org/Graphics/SVG/1.1/DTD/svg11.dtd">
<svg xmlns="http://www.w3.org/2000/svg" xmlns:xlink="http://www.w3.org/1999/xlink" version="1.1" baseProfile="full" width="76" height="76" viewBox="0 0 76.00 76.00" enable-background="new 0 0 76.00 76.00" xml:space="preserve">
	<path fill="#000000" fill-opacity="1" stroke-width="0.2" stroke-linejoin="round" d="M 22.1667,44.3333L 11.0833,44.3333C 11.0833,29.4677 23.1343,17.4167 38,17.4167C 52.8656,17.4167 64.9166,29.4677 64.9166,44.3333L 53.8333,44.3333C 53.8333,44.0678 53.8268,43.8039 52.25,43.5417C 52.25,35.6716 45.87,29.2917 38,29.2917C 30.1299,29.2917 23.75,35.6716 23.75,43.5417L 22.1667,44.3333 Z M 36.2808,20.6446C 30.966,21.0248 26.135,23.1539 22.3603,26.4594L 25.4882,30.0342C 28.508,27.3897 32.3728,25.6865 36.6246,25.3824L 36.2808,20.6446 Z M 53.6396,26.4594C 49.8649,23.1539 45.034,21.0248 39.7192,20.6446L 39.3753,25.3824C 43.6272,25.6865 47.492,27.3897 50.5117,30.0342L 53.6396,26.4594 Z M 55.8739,28.6937L 52.2991,31.8216C 54.8225,34.7031 56.4889,38.3541 56.9004,42.3766L 61.6255,41.8874C 61.1111,36.8593 59.0281,32.2956 55.8739,28.6937 Z M 20.1261,28.6937C 16.9718,32.2956 14.8888,36.8593 14.3744,41.8874L 19.0995,42.3766C 19.511,38.3541 21.1774,34.7031 23.7008,31.8216L 20.1261,28.6937 Z M 34.4442,44.2313L 45.7615,36.3175L 40.5109,49.505C 39.0546,51.1803 36.516,51.3578 34.8407,49.9015C 33.1654,48.4452 32.9879,45.9066 34.4442,44.2313 Z "/>
</svg>
