<?xml version="1.0" encoding="utf-8"?>
<!DOCTYPE svg PUBLIC "-//W3C//DTD SVG 1.1//EN" "http://www.w3.org/Graphics/SVG/1.1/DTD/svg11.dtd">
<svg xmlns="http://www.w3.org/2000/svg" xmlns:xlink="http://www.w3.org/1999/xlink" version="1.1" baseProfile="full" width="76" height="76" viewBox="0 0 76.00 76.00" enable-background="new 0 0 76.00 76.00" xml:space="preserve">
	<path fill="#000000" fill-opacity="1" stroke-width="0.2" stroke-linejoin="round" d="M 35,48L 50,48L 50,34L 38,34L 38,21L 23,21L 23,55L 32,55L 32,51C 32,49.3432 33.3431,48 35,48 Z M 31.9999,59L 19,59L 19,17L 41.25,17L 54,29.75L 53.9999,48C 55.6568,48 56.9999,49.3432 56.9999,51L 56.9999,59C 56.9999,60.6568 55.6568,62 53.9999,62L 34.9999,62C 33.3431,62 31.9999,60.6569 31.9999,59 Z M 41,22.25L 41,30L 48.75,30L 41,22.25 Z M 42,56.5L 42,54L 39,54L 39,56C 39.5523,56 40,56.2239 40,56.5C 40,56.7762 39.5523,57 39,57C 38.4477,57 38,56.5523 38,56L 38,54C 38,53.4477 38.4477,53 39,53L 42,53C 42,51.1193 40.8807,51 39.5,51L 38.5,51C 37.1193,51 36,52.1193 36,53.5L 36,56.5C 36,57.8807 37.1193,59 38.5,59L 39.5,59C 40.8807,59 42,57.8807 42,56.5 Z M 50,59L 52,59L 52,56L 54,56L 54,54L 52,54L 52,53L 54,53L 54,51L 50,51L 50,59 Z M 43,51L 43,53L 45,53L 45,57L 43,57L 43,59L 49,59L 49,57L 47,57L 47,53L 49,53L 49,51L 43,51 Z "/>
</svg>
