<?xml version="1.0" encoding="utf-8"?>
<!DOCTYPE svg PUBLIC "-//W3C//DTD SVG 1.1//EN" "http://www.w3.org/Graphics/SVG/1.1/DTD/svg11.dtd">
<svg xmlns="http://www.w3.org/2000/svg" xmlns:xlink="http://www.w3.org/1999/xlink" version="1.1" baseProfile="full" width="76" height="76" viewBox="0 0 76.00 76.00" enable-background="new 0 0 76.00 76.00" xml:space="preserve">
	<path fill="#000000" fill-opacity="1" stroke-width="0.2" stroke-linejoin="round" d="M 38,62.9375L 22.1666,53.0417L 22.1667,48.0407L 12.6667,41.9583L 22.1886,34.0935L 13.0626,26.5208L 28.8959,16.2291L 38.1285,24.1735L 47.0913,16.301L 63.3333,26.5208L 53.8036,34.5659L 62.5416,42.3542L 53.8333,47.8638L 53.8333,53.0417L 38,62.9375 Z M 47.8958,51.4584L 39.5833,44.0695L 39.5833,58.7709L 50.6666,51.875L 50.6666,49.8323L 47.8958,51.4584 Z M 36.4166,58.7709L 36.4166,43.8484L 27.7588,51.4584L 25.3333,50.0341L 25.3333,51.8542L 36.4166,58.7709 Z M 37.7231,39.8297L 50.5949,34.3972L 37.7541,27.1703L 26.4304,33.6119L 37.7231,39.8297 Z M 17.0208,41.5625L 27.7083,47.8959L 34.9333,41.3102L 24.8887,35.4659L 17.0208,41.5625 Z M 48.2916,48.2917L 58.5832,41.9584L 52.0809,36.4507L 40.8573,41.6072L 48.2916,48.2917 Z M 28.5,19.7917L 17.8126,26.5208L 24.0624,31.491L 35.171,25.5887L 28.5,19.7917 Z M 59.2904,26.7135L 47.1042,19.7918L 40.7708,25.3334L 52.584,32.0258L 59.2904,26.7135 Z "/>
</svg>
