<?xml version="1.0" encoding="utf-8"?>
<!DOCTYPE svg PUBLIC "-//W3C//DTD SVG 1.1//EN" "http://www.w3.org/Graphics/SVG/1.1/DTD/svg11.dtd">
<svg xmlns="http://www.w3.org/2000/svg" xmlns:xlink="http://www.w3.org/1999/xlink" version="1.1" baseProfile="full" width="76" height="76" viewBox="0 0 76.00 76.00" enable-background="new 0 0 76.00 76.00" xml:space="preserve">
	<path fill="#000000" fill-opacity="1" stroke-width="0.2" stroke-linejoin="round" d="M 38,34.8333C 39.7489,34.8333 41.1667,36.2511 41.1667,38C 41.1667,39.7489 39.7489,41.1667 38,41.1667C 36.2511,41.1667 34.8333,39.7489 34.8333,38C 34.8333,36.2511 36.2511,34.8333 38,34.8333 Z M 57,38L 44.3333,38C 44.3333,35.5799 42.9759,33.4769 40.981,32.4107L 46.9429,21.232C 52.9278,24.4306 57,30.7398 57,38 Z M 31.6667,38L 19,38C 19,30.7398 23.0722,24.4306 29.0571,21.232L 35.019,32.4107C 33.024,33.4769 31.6667,35.5799 31.6667,38 Z M 38,57C 34.7668,57 31.7223,56.1924 29.0571,54.768L 35.019,43.5894C 35.9074,44.0642 36.9223,44.3333 38,44.3333C 39.0777,44.3333 40.0926,44.0642 40.981,43.5893L 46.9429,54.768C 44.2777,56.1924 41.2332,57 38,57 Z "/>
</svg>
