<?xml version="1.0" encoding="utf-8"?>
<!DOCTYPE svg PUBLIC "-//W3C//DTD SVG 1.1//EN" "http://www.w3.org/Graphics/SVG/1.1/DTD/svg11.dtd">
<svg xmlns="http://www.w3.org/2000/svg" xmlns:xlink="http://www.w3.org/1999/xlink" version="1.1" baseProfile="full" width="76" height="76" viewBox="0 0 76.00 76.00" enable-background="new 0 0 76.00 76.00" xml:space="preserve">
	<path fill="#000000" fill-opacity="1" stroke-width="0.2" stroke-linejoin="round" d="M 57,24L 57,52L 45.5,52C 42.8571,52 41,55 41,55L 35,55C 35,55 33.1428,52 30.5,52L 19,52L 19,24L 34.5,24C 34.5,24 35.9205,24.7103 37.4765,26.3449C 39.3408,24 41.25,24 41.25,24L 57,24 Z M 34.9999,28.6521C 34.3525,27.855 33.5338,27.0001 32.9999,27.0001L 21.9999,27.0001L 21.9999,49.0001L 30.9999,49.0001C 30.9999,49.0001 32.9999,48.7501 34.9999,51.7501L 34.9999,28.6521 Z M 40.9999,51.7501C 42.9999,48.7501 44.9998,49.0001 44.9999,49.0001L 53.9998,49.0001L 53.9999,27.0002L 42.9998,27.0002C 42.4661,27.0002 41.6473,27.8551 40.9999,28.6521L 40.9999,51.7501 Z M 29,29.0001L 33,29.0001L 33,32.0001L 29,32.0001L 29,29.0001 Z M 29,34L 33,34L 33,37L 29,37L 29,34 Z M 23,39L 33,39L 33,42L 23,42L 23,39 Z M 23,44L 33,44L 33,47L 23,47L 23,44 Z M 43,29L 53,29L 53,32L 43,32L 43,29 Z M 43,34L 47,34L 47,37L 43,37L 43,34 Z M 43,39L 47,39L 47,42L 43,42L 43,39 Z M 43,44L 53,44L 53,47L 43,47L 43,44 Z M 23,29L 28,29L 28,37L 23,37L 23,29 Z M 48,34L 53,34L 53,42L 48,42L 48,34 Z "/>
</svg>
