<?xml version="1.0" encoding="utf-8"?>
<!DOCTYPE svg PUBLIC "-//W3C//DTD SVG 1.1//EN" "http://www.w3.org/Graphics/SVG/1.1/DTD/svg11.dtd">
<svg xmlns="http://www.w3.org/2000/svg" xmlns:xlink="http://www.w3.org/1999/xlink" version="1.1" baseProfile="full" width="76" height="76" viewBox="0 0 76.00 76.00" enable-background="new 0 0 76.00 76.00" xml:space="preserve">
	<path fill="#000000" fill-opacity="1" stroke-width="0.2" stroke-linejoin="round" d="M 14,19L 62,19L 62,30L 14,30L 14,19 Z M 36,27L 36,22L 17,22L 17,27L 36,27 Z M 59,27L 59,22L 40,22L 40,27L 59,27 Z M 36,33L 40,33L 40,36L 43,36L 43,40L 40,40L 40,43L 36,43L 36,40L 33,40L 33,36L 36,36L 36,33 Z M 22,33L 26,33L 26,36L 30,36L 30,40L 22,40L 22,33 Z M 50,33L 54,33L 54,40L 46,40L 46,36L 50,36L 50,33 Z M 14,46L 62,46L 62,57L 14,57L 14,46 Z M 17,49L 17,54L 59,54L 59,49L 17,49 Z "/>
</svg>
