<?xml version="1.0" encoding="utf-8"?>
<!DOCTYPE svg PUBLIC "-//W3C//DTD SVG 1.1//EN" "http://www.w3.org/Graphics/SVG/1.1/DTD/svg11.dtd">
<svg xmlns="http://www.w3.org/2000/svg" xmlns:xlink="http://www.w3.org/1999/xlink" version="1.1" baseProfile="full" width="76" height="76" viewBox="0 0 76.00 76.00" enable-background="new 0 0 76.00 76.00" xml:space="preserve">
	<path fill="#000000" fill-opacity="1" stroke-width="0.2" stroke-linejoin="round" d="M 17,20L 59,20L 59,56L 17,56L 17,20 Z M 20,23L 20,53L 56,53L 56,23L 20,23 Z M 24,51L 30.0833,44.3334L 33.25,47.5L 45.9166,34.8334L 50.6666,39.5834L 54,36L 54,51L 24,51 Z M 30.0833,26.9167C 30.0833,30.4145 27.2478,33.25 23.75,33.25C 23.2033,33.25 22.5061,33.1303 22,33L 22,25L 29.6666,25C 29.7968,25.5061 30.0833,26.37 30.0833,26.9167 Z M 28,59C 29.6568,59 31,60.3432 31,62C 31,63.6569 29.6568,65 28,65C 26.3431,65 25,63.6569 25,62C 25,60.3432 26.3431,59 28,59 Z M 48,59C 49.6568,59 51,60.3432 51,62C 51,63.6569 49.6568,65 48,65C 46.3431,65 45,63.6569 45,62C 45,60.3432 46.3431,59 48,59 Z M 38,59C 39.6569,59 41,60.3431 41,62C 41,63.6569 39.6569,65 38,65C 36.3431,65 35,63.6569 35,62C 35,60.3431 36.3431,59 38,59 Z "/>
</svg>
