<?xml version="1.0" encoding="utf-8"?>
<!DOCTYPE svg PUBLIC "-//W3C//DTD SVG 1.1//EN" "http://www.w3.org/Graphics/SVG/1.1/DTD/svg11.dtd">
<svg xmlns="http://www.w3.org/2000/svg" xmlns:xlink="http://www.w3.org/1999/xlink" version="1.1" baseProfile="full" width="76" height="76" viewBox="0 0 76.00 76.00" enable-background="new 0 0 76.00 76.00" xml:space="preserve">
	<path fill="#000000" fill-opacity="1" stroke-width="0.2" stroke-linejoin="round" d="M 19,47.5L 22.1667,47.5L 22.1667,52.25L 53.8333,52.25L 53.8333,47.5L 57,47.5L 57,55.4167L 19,55.4167L 19,47.5 Z M 31.2693,38.7721L 31.8014,42.0716C 31.3919,42.2676 30.8364,42.4286 30.1351,42.5546C 29.4337,42.6806 28.6492,42.7457 27.7816,42.75C 25.4615,42.7242 23.647,42.0606 22.3382,40.7593C 21.0295,39.458 20.3636,37.674 20.3408,35.4073C 20.3454,33.2685 21.0265,31.5125 22.3841,30.1392C 23.7417,28.766 25.7477,28.0559 28.4023,28.0092L 30.2053,28.1496L 31.8309,28.5553L 31.1215,31.662C 30.6092,31.3988 29.7717,31.2525 28.6092,31.2233C 27.4116,31.2441 26.4671,31.6195 25.7759,32.3497C 25.0846,33.0799 24.7384,34.0406 24.7371,35.2317C 24.7655,36.538 25.1522,37.5316 25.8973,38.2125C 26.6424,38.8934 27.5759,39.236 28.6978,39.2403C 29.7471,39.2305 30.6043,39.0745 31.2693,38.7721 Z M 34.2428,42.4545L 34.2428,32.8191L 34.1246,28.3047L 37.9375,28.3047L 38.1148,30.2349L 38.2035,30.2349C 38.5067,29.7427 39.0169,29.2576 39.7341,28.7796C 40.4512,28.3017 41.4347,28.0448 42.6843,28.0092C 43.6436,28.0181 44.4659,28.2357 45.1512,28.6619C 45.8365,29.0882 46.3382,29.6696 46.6564,30.4061L 46.7155,30.4061C 47.2713,29.6642 47.8866,29.0935 48.5614,28.6941C 49.3127,28.2518 50.1917,28.0235 51.1982,28.0092C 52.6073,27.9995 53.3658,28.4897 54.2652,29.4796C 55.1646,30.4695 55.6293,32.0171 55.6592,34.1225L 55.6592,42.4545L 51.2847,42.4545L 51.2847,34.759C 51.2865,33.7253 51.1199,32.9285 50.7849,32.3687C 50.4498,31.8088 50.3317,31.5255 49.6388,31.5189C 49.1279,31.5303 48.7037,31.681 48.3665,31.9709C 48.0292,32.2607 47.7823,32.6211 47.6257,33.052L 47.484,34.1803L 47.484,42.4545L 43.1095,42.4545L 43.1095,34.4986C 43.1126,33.6023 42.9393,32.8851 42.5896,32.347C 42.2399,31.8088 41.6948,31.5327 40.9543,31.5189C 40.3638,31.5406 39.8908,31.7141 39.5354,32.0396C 39.1801,32.365 38.9347,32.7121 38.7994,33.081C 38.6628,33.4426 38.6021,33.8187 38.6173,34.2093L 38.6173,42.4545L 34.2428,42.4545 Z "/>
</svg>
