<?xml version="1.0" encoding="utf-8"?>
<!DOCTYPE svg PUBLIC "-//W3C//DTD SVG 1.1//EN" "http://www.w3.org/Graphics/SVG/1.1/DTD/svg11.dtd">
<svg xmlns="http://www.w3.org/2000/svg" xmlns:xlink="http://www.w3.org/1999/xlink" version="1.1" baseProfile="full" width="76" height="76" viewBox="0 0 76.00 76.00" enable-background="new 0 0 76.00 76.00" xml:space="preserve">
	<path fill="#FFFFFF" fill-opacity="1" stroke-width="0.2" stroke-linejoin="round" d="M 22.1667,38L 26.9167,38L 26.9167,57L 22.1667,57L 22.1667,38 Z M 31.6667,38L 36.4167,38L 36.4167,57L 31.6667,57L 31.6667,38 Z M 49.0833,28.5C 53.4555,28.5 57,32.0445 57,36.4167C 57,40.7889 53.4557,44.3332 49.0511,44.3333L 38,44.3333L 38,36.4167L 30.0833,36.4167L 30.0833,44.3334L 28.5,44.3334L 28.5,36.4167L 22.2277,36.4167L 22.1667,35.6249C 22.1667,32.6493 24.5123,30.2213 27.4553,30.0889C 28.7579,26.3962 32.2783,23.7499 36.4167,23.7499C 40.3459,23.7499 43.7179,26.1353 45.1637,29.5369C 46.3193,28.877 47.6573,28.5 49.0833,28.5 Z M 19,40.375C 19,39.08 19.6219,37.9302 20.5833,37.208L 20.5833,43.542C 19.6219,42.8198 19,41.67 19,40.375 Z "/>
</svg>
