<?xml version="1.0" encoding="utf-8"?>
<!DOCTYPE svg PUBLIC "-//W3C//DTD SVG 1.1//EN" "http://www.w3.org/Graphics/SVG/1.1/DTD/svg11.dtd">
<svg xmlns="http://www.w3.org/2000/svg" xmlns:xlink="http://www.w3.org/1999/xlink" version="1.1" baseProfile="full" width="76" height="76" viewBox="0 0 76.00 76.00" enable-background="new 0 0 76.00 76.00" xml:space="preserve">
	<path fill="#000000" fill-opacity="1" stroke-width="0.2" stroke-linejoin="round" d="M 42.75,30.0833L 51.4583,30.0833L 42.75,21.375L 42.75,30.0833 Z M 52.25,33.25L 42.75,33.25L 39.5833,33.25L 39.5833,20.5833L 23.75,20.5834L 23.75,38L 20.5833,41.1667L 20.5833,17.4167L 43.5416,17.4167L 55.4167,29.2917L 55.4166,58.5833L 37.9999,58.5834L 41.1666,55.4168L 52.25,55.4167L 52.25,33.25 Z M 35.1379,40.67L 38.4967,44.0287L 32.8988,49.6266L 38.4967,55.2246L 35.1379,58.5833L 29.54,52.9854L 23.9421,58.5833L 20.5833,55.2246L 26.1813,49.6266L 20.5833,44.0287L 23.9421,40.67L 29.54,46.2679L 35.1379,40.67 Z "/>
</svg>
