<?xml version="1.0" encoding="utf-8"?>
<!DOCTYPE svg PUBLIC "-//W3C//DTD SVG 1.1//EN" "http://www.w3.org/Graphics/SVG/1.1/DTD/svg11.dtd">
<svg xmlns="http://www.w3.org/2000/svg" xmlns:xlink="http://www.w3.org/1999/xlink" version="1.1" baseProfile="full" width="76" height="76" viewBox="0 0 76.00 76.00" enable-background="new 0 0 76.00 76.00" xml:space="preserve">
	<path fill="#000000" fill-opacity="1" stroke-width="0.2" stroke-linejoin="round" d="M 26.9167,14.25C 31.2889,14.25 34.8333,17.7944 34.8333,22.1667L 34.7416,23.3755L 43.6674,26.6242C 44.7314,25.8142 46.0596,25.3333 47.5,25.3333C 50.9978,25.3333 53.8333,28.1689 53.8333,31.6667C 53.8333,35.1645 50.9978,38 47.5,38C 46.9087,38 46.3364,37.919 45.7935,37.7675L 39.3497,42.6232C 39.5019,43.1672 39.5833,43.7408 39.5833,44.3333C 39.5833,45.1598 39.425,45.9492 39.1371,46.6731L 42.6954,49.7662C 43.6794,49.3273 44.7696,49.0833 45.9167,49.0833C 50.2889,49.0833 53.8333,52.6278 53.8333,57C 53.8333,61.3723 50.2889,64.9167 45.9167,64.9167C 41.5444,64.9167 38,61.3723 38,57C 38,55.5189 38.4067,54.1328 39.1146,52.9473L 35.8505,50.1099C 35.0571,50.4676 34.1768,50.6667 33.25,50.6667C 29.7522,50.6667 26.9167,47.8311 26.9167,44.3333C 26.9167,40.8355 29.7522,38 33.25,38C 34.4155,38 35.5075,38.3148 36.4455,38.8641L 41.9484,34.7173C 41.4501,33.8125 41.1667,32.7727 41.1667,31.6667L 41.2267,30.7907L 32.6194,27.6579C 31.1792,29.1531 29.1566,30.0833 26.9167,30.0833C 22.5444,30.0833 19,26.5389 19,22.1667C 19,17.7944 22.5444,14.25 26.9167,14.25 Z M 26.9167,17.4167C 24.2933,17.4167 22.1667,19.5433 22.1667,22.1667C 22.1667,24.7901 24.2933,26.9167 26.9167,26.9167C 29.54,26.9167 31.6667,24.7901 31.6667,22.1667C 31.6667,19.5433 29.54,17.4167 26.9167,17.4167 Z M 47.5,28.5C 45.7511,28.5 44.3333,29.9178 44.3333,31.6667C 44.3333,33.4156 45.7511,34.8334 47.5,34.8334C 49.2489,34.8334 50.6666,33.4156 50.6666,31.6667C 50.6666,29.9178 49.2489,28.5 47.5,28.5 Z M 45.9166,52.25C 43.2933,52.25 41.1666,54.3767 41.1666,57C 41.1666,59.6234 43.2933,61.75 45.9166,61.75C 48.54,61.75 50.6666,59.6234 50.6666,57C 50.6666,54.3767 48.54,52.25 45.9166,52.25 Z M 33.25,41.1667C 31.5011,41.1667 30.0833,42.5844 30.0833,44.3333C 30.0833,46.0822 31.5011,47.5 33.25,47.5C 34.9989,47.5 36.4166,46.0822 36.4166,44.3333C 36.4166,42.5844 34.9989,41.1667 33.25,41.1667 Z "/>
</svg>
