<?xml version="1.0" encoding="utf-8"?>
<!DOCTYPE svg PUBLIC "-//W3C//DTD SVG 1.1//EN" "http://www.w3.org/Graphics/SVG/1.1/DTD/svg11.dtd">
<svg xmlns="http://www.w3.org/2000/svg" xmlns:xlink="http://www.w3.org/1999/xlink" version="1.1" baseProfile="full" width="76" height="76" viewBox="0 0 76.00 76.00" enable-background="new 0 0 76.00 76.00" xml:space="preserve">
	<path fill="#000000" fill-opacity="1" stroke-width="0.2" stroke-linejoin="round" d="M 53,41L 58,41L 58,46L 61,46L 61,51L 58,51L 58,56L 53,56L 53,53L 48,53L 48,56L 42,56L 42,51L 45,51L 45,46L 42,46L 42,41L 48,41L 48,38L 53,38L 53,41 Z M 21,30.0001L 55.9999,30.0001L 55.9999,40L 54,40L 54,37L 47,37L 47,40L 41,40L 41,47L 44,47L 44,50L 21,50L 21,30.0001 Z M 52,28L 37,28C 38,25 39.4999,24.0001 39.4999,24.0001L 50.75,24C 51.3022,24 52,24.6978 52,25.25L 52,28 Z "/>
</svg>
