<?xml version="1.0" encoding="utf-8"?>
<!DOCTYPE svg PUBLIC "-//W3C//DTD SVG 1.1//EN" "http://www.w3.org/Graphics/SVG/1.1/DTD/svg11.dtd">
<svg xmlns="http://www.w3.org/2000/svg" xmlns:xlink="http://www.w3.org/1999/xlink" version="1.1" baseProfile="full" width="76" height="76" viewBox="0 0 76.00 76.00" enable-background="new 0 0 76.00 76.00" xml:space="preserve">
	<path fill="#000000" fill-opacity="1" stroke-width="0.2" stroke-linejoin="round" d="M 19,45.9167L 30.0833,45.9167L 30.0833,57L 19,57L 19,45.9167 Z M 19,33.25L 30.0833,33.25L 30.0833,44.3333L 19,44.3333L 19,33.25 Z M 19,20.5833L 30.0833,20.5833L 30.0833,31.6667L 19,31.6667L 19,20.5833 Z M 31.6667,20.5833L 42.75,20.5833L 42.75,31.6667L 31.6667,31.6667L 31.6667,20.5833 Z M 31.6667,45.9167L 42.75,45.9167L 42.75,57L 31.6667,57L 31.6667,45.9167 Z M 31.6667,33.25L 42.75,33.25L 42.75,44.3333L 31.6667,44.3333L 31.6667,33.25 Z M 34.8333,36.4167L 34.8333,41.1667L 39.5833,41.1667L 39.5833,36.4167L 34.8333,36.4167 Z M 61.75,38L 61.75,41.1667L 52.25,41.1667L 57,45.9167L 51.4583,45.9167L 44.3333,39.5833L 51.4583,33.25L 57,33.25L 52.25,38L 61.75,38 Z "/>
</svg>
