<?xml version="1.0" encoding="utf-8"?>
<!DOCTYPE svg PUBLIC "-//W3C//DTD SVG 1.1//EN" "http://www.w3.org/Graphics/SVG/1.1/DTD/svg11.dtd">
<svg xmlns="http://www.w3.org/2000/svg" xmlns:xlink="http://www.w3.org/1999/xlink" version="1.1" baseProfile="full" width="76" height="76" viewBox="0 0 76.00 76.00" enable-background="new 0 0 76.00 76.00" xml:space="preserve">
	<path fill="#000000" fill-opacity="1" stroke-width="0.2" stroke-linejoin="round" d="M 22.9583,31.6667C 24.27,31.6667 25.3333,32.73 25.3333,34.0417L 25.3333,43.5417C 25.3333,44.8533 24.27,45.9167 22.9583,45.9167C 21.6467,45.9167 20.5833,44.8533 20.5833,43.5417L 20.5833,34.0417C 20.5833,32.73 21.6467,31.6667 22.9583,31.6667 Z M 53.0416,31.6667C 54.3533,31.6667 55.4166,32.73 55.4166,34.0417L 55.4166,43.5417C 55.4166,44.8533 54.3533,45.9167 53.0416,45.9167C 51.7299,45.9167 50.6666,44.8533 50.6666,43.5417L 50.6666,34.0417C 50.6666,32.73 51.7299,31.6667 53.0416,31.6667 Z M 26.9166,31.6667L 49.0833,31.6667L 49.0833,48.2917C 49.0833,49.6034 48.02,50.6667 46.7083,50.6667L 44.3333,50.6667L 44.3333,55.4167C 44.3333,56.7284 43.27,57.7917 41.9583,57.7917C 40.6466,57.7917 39.5833,56.7284 39.5833,55.4167L 39.5833,50.6667L 36.4166,50.6667L 36.4166,55.4167C 36.4166,56.7284 35.3533,57.7917 34.0416,57.7917C 32.73,57.7917 31.6666,56.7284 31.6666,55.4167L 31.6667,50.6667L 29.2916,50.6667C 27.98,50.6667 26.9166,49.6034 26.9166,48.2917L 26.9166,31.6667 Z M 29.6875,19C 29.9967,18.6909 30.4979,18.6909 30.8071,19L 33.402,21.595C 34.8777,20.9478 36.4641,20.5834 38,20.5834C 39.5494,20.5834 41.1502,20.9543 42.637,21.6122L 45.2491,19C 45.5583,18.6909 46.0596,18.6909 46.3687,19C 46.6779,19.3092 46.6779,19.8105 46.3687,20.1196L 44.1084,22.38C 46.9524,24.1057 49.0833,26.9132 49.0833,30.0834L 26.9166,30.0834C 26.9166,26.9002 29.065,24.0827 31.9266,22.3588L 29.6875,20.1196C 29.3783,19.8105 29.3783,19.3092 29.6875,19 Z M 34.0417,24.5417C 33.1672,24.5417 32.4583,25.2506 32.4583,26.125C 32.4583,26.9995 33.1672,27.7083 34.0417,27.7083C 34.9161,27.7083 35.625,26.9995 35.625,26.125C 35.625,25.2506 34.9161,24.5417 34.0417,24.5417 Z M 41.9583,24.5417C 41.0839,24.5417 40.375,25.2505 40.375,26.125C 40.375,26.9995 41.0839,27.7083 41.9583,27.7083C 42.8328,27.7083 43.5417,26.9995 43.5417,26.125C 43.5417,25.2505 42.8328,24.5417 41.9583,24.5417 Z "/>
</svg>
