<?xml version="1.0" encoding="utf-8"?>
<!DOCTYPE svg PUBLIC "-//W3C//DTD SVG 1.1//EN" "http://www.w3.org/Graphics/SVG/1.1/DTD/svg11.dtd">
<svg xmlns="http://www.w3.org/2000/svg" xmlns:xlink="http://www.w3.org/1999/xlink" version="1.1" baseProfile="full" width="76" height="76" viewBox="0 0 76.00 76.00" enable-background="new 0 0 76.00 76.00" xml:space="preserve">
	<path fill="#000000" fill-opacity="1" stroke-width="0.2" stroke-linejoin="round" d="M 46.7083,47.5C 48.8945,47.5 50.6667,49.2722 50.6667,51.4583C 50.6667,53.6445 48.8945,55.4167 46.7083,55.4167C 44.5222,55.4167 42.75,53.6445 42.75,51.4583C 42.75,49.2722 44.5222,47.5 46.7083,47.5 Z M 30.875,47.5C 33.0611,47.5 34.8333,49.2722 34.8333,51.4583C 34.8333,53.6445 33.0611,55.4167 30.875,55.4167C 28.6889,55.4167 26.9167,53.6445 26.9167,51.4583C 26.9167,49.2722 28.6889,47.5 30.875,47.5 Z M 25.3333,45.9167L 25.3333,41.1667L 22.1667,28.5L 19,28.5L 19,23.75L 26.9167,23.75L 26.9167,28.5L 57,28.5L 52.25,45.9167L 25.3333,45.9167 Z M 30.2417,41.1667L 48.925,41.1667L 50.825,33.25L 28.3417,33.25L 30.2417,41.1667 Z "/>
</svg>
