<?xml version="1.0" encoding="utf-8"?>
<!DOCTYPE svg PUBLIC "-//W3C//DTD SVG 1.1//EN" "http://www.w3.org/Graphics/SVG/1.1/DTD/svg11.dtd">
<svg xmlns="http://www.w3.org/2000/svg" xmlns:xlink="http://www.w3.org/1999/xlink" version="1.1" baseProfile="full" width="76" height="76" viewBox="0 0 76.00 76.00" enable-background="new 0 0 76.00 76.00" xml:space="preserve">
	<path fill="#000000" fill-opacity="1" stroke-width="0.2" stroke-linejoin="round" d="M 19,19L 26.9167,19L 26.9167,23.75L 19,23.75L 19,19 Z M 30.0833,19L 38,19L 38,23.75L 30.0833,23.75L 30.0833,19 Z M 41.1666,19L 49.0833,19L 49.0833,23.75L 41.1666,23.75L 41.1666,19 Z M 52.25,19L 57,19L 57,26.9167L 52.25,26.9167L 52.25,19 Z M 52.25,30.0834L 57,30.0834L 57,38L 52.25,38L 52.25,30.0834 Z M 52.25,41.1667L 57,41.1667L 57,49.0833L 52.25,49.0833L 52.25,41.1667 Z M 26.9167,52.25L 34.8333,52.25L 34.8333,57L 26.9167,57L 26.9167,52.25 Z M 38,52.25L 45.9166,52.25L 45.9166,57L 38,57L 38,52.25 Z M 49.0833,52.25L 57,52.25L 57,57L 49.0833,57L 49.0833,52.25 Z M 19,26.9167L 23.75,26.9167L 23.75,34.8333L 19,34.8333L 19,26.9167 Z M 19,38L 23.75,38L 23.75,45.9167L 19,45.9167L 19,38 Z M 19,49.0833L 23.75,49.0833L 23.75,57L 19,57L 19,49.0833 Z "/>
</svg>
