<?xml version="1.0" encoding="utf-8"?>
<!DOCTYPE svg PUBLIC "-//W3C//DTD SVG 1.1//EN" "http://www.w3.org/Graphics/SVG/1.1/DTD/svg11.dtd">
<svg xmlns="http://www.w3.org/2000/svg" xmlns:xlink="http://www.w3.org/1999/xlink" version="1.1" baseProfile="full" width="48" height="48" viewBox="0 0 48.00 48.00" enable-background="new 0 0 48.00 48.00" xml:space="preserve">
	<path fill="#000000" d="M 13.4291,14.259C 14.5287,14.0337 16.5305,13.8644 18.476,13.8644C 21.0418,13.8644 22.6208,14.1746 23.9174,15.0771C 25.1022,15.7815 25.8916,17.0223 25.8916,18.6294C 25.8916,20.3775 24.7922,21.9846 22.7334,22.7458L 22.7334,22.8026C 24.7354,23.3101 26.5684,24.8891 26.5684,27.5115C 26.5684,29.2027 25.835,30.5282 24.7354,31.4301C 23.382,32.6144 21.1546,33.2068 17.6864,33.2068C 15.769,33.2068 14.3034,33.0653 13.4291,32.9531L 13.4291,14.259 Z M 16.8686,16.5714L 16.8686,21.7593L 18.6451,21.7593C 21.0418,21.7593 22.3952,20.6312 22.3952,19.0244C 22.3952,17.2477 21.0418,16.4302 18.8429,16.4302C 17.8276,16.4302 17.2357,16.4864 16.8686,16.5714 Z M 16.8686,30.4998C 17.3204,30.5845 17.9126,30.5845 18.7016,30.5845C 20.9293,30.5845 22.9024,29.7389 22.9024,27.3984C 22.9024,25.1991 20.9859,24.297 18.5888,24.297L 16.8686,24.297L 16.8686,30.4998 Z M 32.6587,21.8999C 33.3356,19.9547 34.9421,18.9678 36.4092,18.9678L 37.2269,19.0522L 37.2269,22.323C 36.9445,22.2668 36.6345,22.2105 36.2111,22.2105C 34.5477,22.2105 33.4202,23.2817 33.1097,24.8323L 32.9972,25.9041L 32.9972,33.0093L 29.5295,33.0093L 29.5295,23.7048C 29.5295,21.8439 29.5005,20.5184 29.4158,19.2781L 32.4331,19.2781L 32.5459,21.8999L 32.6587,21.8999 Z "/>
</svg>
