<?xml version="1.0" encoding="utf-8"?>
<!DOCTYPE svg PUBLIC "-//W3C//DTD SVG 1.1//EN" "http://www.w3.org/Graphics/SVG/1.1/DTD/svg11.dtd">
<svg xmlns="http://www.w3.org/2000/svg" xmlns:xlink="http://www.w3.org/1999/xlink" version="1.1" baseProfile="full" width="76" height="76" viewBox="0 0 76.00 76.00" enable-background="new 0 0 76.00 76.00" xml:space="preserve">
	<path fill="#000000" fill-opacity="1" stroke-width="0.2" stroke-linejoin="round" d="M 39.5833,61.75C 41.1667,57 42.75,57 42.75,57C 42.75,57 41.1667,60.1667 41.1667,61.75L 39.5833,61.75L 36.4167,61.75L 34.0416,61.75C 34.0416,60.1667 33.25,57 33.25,57C 33.25,57 34.8333,57 36.4167,61.75L 36.4167,47.5L 22.1667,47.5C 20.4178,47.5 19,46.0822 19,44.3334L 19,23.75C 19,22.0011 20.4178,20.5834 22.1667,20.5834L 53.8333,20.5833C 55.5822,20.5833 57,22.0011 57,23.75L 57,44.3333C 57,46.0822 55.5822,47.5 53.8333,47.5L 39.5833,47.5L 39.5833,61.75 Z M 47.5,61.75L 45.125,61.75C 45.125,60.1667 44.3333,57 44.3333,57C 44.3333,57 45.9166,57 47.5,61.75 Z M 28.5,61.75C 30.0833,57 31.6667,57 31.6667,57C 31.6667,57 30.0833,60.1667 30.0833,61.75L 28.5,61.75 Z M 28.69,32.8542L 30.4633,32.8542L 30.4633,28.9275L 34.39,28.9275L 34.39,27.4075L 30.4633,27.4075L 30.4633,25.2542L 34.8966,25.2542L 34.8966,23.7342L 28.69,23.7342L 28.69,32.8542 Z M 36.0366,29.4678C 36.0366,30.2199 36.1775,30.8579 36.4592,31.3817C 36.7409,31.9055 37.1522,32.303 37.6932,32.5741C 38.2342,32.8453 38.8029,32.9809 39.3992,32.9809C 40.3624,32.9809 41.1617,32.6553 41.797,32.0041C 42.4323,31.353 42.75,30.5326 42.75,29.543C 42.75,28.5614 42.4356,27.7489 41.8069,27.1057C 41.1782,26.4625 40.3717,26.1409 39.3874,26.1409C 38.7501,26.1409 38.1731,26.2827 37.6566,26.5664C 37.14,26.8501 36.7409,27.2607 36.4592,27.7984C 36.1775,28.3361 36.0366,28.8926 36.0366,29.4678 Z M 37.81,29.5609C 37.81,28.9064 37.9624,28.405 38.2672,28.0567C 38.5719,27.7084 38.9487,27.5342 39.3973,27.5342C 39.8446,27.5342 40.2196,27.7084 40.5224,28.0567C 40.8252,28.405 40.9766,28.9025 40.9766,29.549C 40.9766,30.2113 40.8252,30.7167 40.5224,31.065C 40.2196,31.4134 39.8446,31.5875 39.3973,31.5875C 38.9487,31.5875 38.5719,31.4134 38.2672,31.065C 37.9624,30.7167 37.81,30.2153 37.81,29.5609 Z M 45.9166,32.8542L 45.9166,30.9106C 45.9166,29.8406 45.9648,29.138 46.0611,28.8028C 46.1574,28.4677 46.2894,28.2358 46.457,28.1072C 46.6245,27.9785 46.829,27.9142 47.0705,27.9142C 47.3199,27.9142 47.5897,28.0085 47.88,28.1972L 48.3233,26.5129C 47.9895,26.2649 47.6418,26.1409 47.2803,26.1409C 47.0256,26.1409 46.7977,26.2075 46.5965,26.3408C 46.3953,26.474 46.1687,26.761 45.9166,27.2017L 45.9166,26.2675L 44.1433,26.2675L 44.1433,32.8542L 45.9166,32.8542 Z M 25.0008,41.42C 25.1196,42.4109 25.4851,43.1653 26.0973,43.6832C 26.7095,44.2011 27.5869,44.46 28.7296,44.46C 29.5146,44.46 30.1701,44.3502 30.6959,44.1305C 31.2217,43.9108 31.6284,43.5747 31.916,43.1221C 32.2037,42.6695 32.3475,42.1846 32.3475,41.6674C 32.3475,41.0948 32.2291,40.6145 31.9922,40.2266C 31.7554,39.8387 31.4278,39.5326 31.0096,39.3083C 30.5913,39.0839 29.9454,38.8619 29.072,38.6423C 28.1985,38.4226 27.6483,38.2171 27.4213,38.0257C 27.2432,37.8753 27.1542,37.6946 27.1542,37.4835C 27.1542,37.2526 27.2459,37.0678 27.4293,36.9293C 27.7156,36.7142 28.1108,36.6067 28.6148,36.6067C 29.1043,36.6067 29.4714,36.7053 29.7162,36.9026C 29.9609,37.0998 30.1203,37.4234 30.1942,37.8734L 31.9675,37.7467C 31.9398,36.9405 31.6465,36.2956 31.0877,35.8121C 30.529,35.3285 29.6974,35.0867 28.593,35.0867C 27.9161,35.0867 27.3385,35.1929 26.8602,35.4053C 26.382,35.6178 26.0158,35.9272 25.7618,36.3336C 25.5078,36.74 25.3808,37.1767 25.3808,37.6438C 25.3808,38.3695 25.6579,38.9843 26.2121,39.4884C 26.6066,39.8472 27.2927,40.154 28.2704,40.4087L 29.731,40.8223L 30.3861,41.2023C 30.5115,41.3475 30.5742,41.5236 30.5742,41.7307C 30.5742,42.054 30.4231,42.3364 30.1209,42.5778C 29.8188,42.8193 29.3702,42.94 28.7751,42.94C 28.2117,42.94 27.7644,42.8071 27.4332,42.5412C 27.102,42.2753 26.8823,41.8594 26.7742,41.2934L 25.0008,41.42 Z M 35.1342,39.9C 35.2331,39.5715 35.3627,39.3416 35.5231,39.2103C 35.6834,39.079 35.9067,39.0133 36.193,39.0133C 36.6179,39.0133 36.9065,39.0869 37.0589,39.234C 37.2113,39.3811 37.2875,39.6275 37.2875,39.9732L 37.2875,40.1533L 35.6626,40.567L 34.3336,40.9608C 34.0268,41.1113 33.788,41.3277 33.6171,41.61C 33.4463,41.8924 33.3608,42.2137 33.3608,42.5739C 33.3608,43.1188 33.5551,43.5694 33.9437,43.9256C 34.3323,44.2819 34.8637,44.46 35.5379,44.46C 35.9192,44.46 36.2784,44.3789 36.6156,44.2166C 36.9527,44.0543 37.2697,43.8115 37.5665,43.4882L 37.6279,43.7277L 37.7941,44.3333L 39.5675,44.3333L 39.1677,43.4526L 39.0608,42.1761L 39.0608,40.1474C 39.0608,39.394 38.9856,38.8761 38.8352,38.5938C 38.6848,38.3114 38.4255,38.0785 38.0574,37.8951C 37.6893,37.7117 37.1292,37.62 36.3771,37.62C 35.5485,37.62 34.9237,37.7856 34.5028,38.1168C 34.0819,38.448 33.7857,38.9579 33.6142,39.6467L 35.1342,39.9 Z M 37.2875,41.5467L 37.2875,41.8L 37.2241,42.4195L 36.8441,42.841C 36.5829,42.9915 36.3085,43.0667 36.0208,43.0667C 35.7635,43.0667 35.5514,43.0017 35.3845,42.8717C 35.2176,42.7418 35.1341,42.5884 35.1341,42.4116C 35.1341,42.2295 35.2384,42.0797 35.4469,41.9623L 36.3157,41.7406L 37.2875,41.5467 Z M 40.9608,44.3333L 42.7341,44.3333L 42.7341,35.2133L 40.9608,35.2133L 40.9608,44.3333 Z M 48.3075,42.18C 48.2125,42.4914 48.072,42.717 47.8859,42.8569C 47.6999,42.9967 47.471,43.0667 47.1992,43.0667C 46.798,43.0667 46.4632,42.9334 46.1947,42.6669C 45.9262,42.4004 45.786,42.027 45.7742,41.5467L 50.2075,41.5467C 50.2326,40.2167 49.9594,39.2297 49.3881,38.5858C 48.8168,37.942 48.037,37.62 47.0487,37.62C 46.1687,37.62 45.4407,37.9271 44.8647,38.5413C 44.2888,39.1555 44.0008,40.0049 44.0008,41.0895C 44.0008,41.9973 44.2185,42.7487 44.6539,43.3438C 45.2055,44.0879 46.0559,44.46 47.2051,44.46C 47.9321,44.46 48.5371,44.2875 49.02,43.9425C 49.5029,43.5974 49.8565,43.0944 50.0808,42.4333L 48.3075,42.18 Z M 48.4341,40.5333L 45.8058,40.5333C 45.8019,40.0649 45.9252,39.6948 46.1759,39.423C 46.4253,39.1499 46.742,39.0133 47.1259,39.0133C 47.4848,39.0133 47.7896,39.1427 48.0403,39.4013C 48.291,39.6599 48.4223,40.0372 48.4341,40.5333 Z "/>
</svg>
