<?xml version="1.0" encoding="utf-8"?>
<!DOCTYPE svg PUBLIC "-//W3C//DTD SVG 1.1//EN" "http://www.w3.org/Graphics/SVG/1.1/DTD/svg11.dtd">
<svg xmlns="http://www.w3.org/2000/svg" xmlns:xlink="http://www.w3.org/1999/xlink" version="1.1" baseProfile="full" width="76" height="76" viewBox="0 0 76.00 76.00" enable-background="new 0 0 76.00 76.00" xml:space="preserve">
	<path fill="#000000" fill-opacity="1" stroke-width="0.2" stroke-linejoin="round" d="M 54.2499,34L 42,34L 42,21.7501L 45.9999,17.7501L 45.9999,26.7501L 53.9999,18.7501L 57.2499,22.0001L 49.2499,30.0001L 58.2499,30.0001L 54.2499,34 Z M 34,21.7501L 34,34L 21.75,34L 17.75,30.0001L 26.75,30.0001L 18.75,22.0001L 22,18.7501L 30,26.7501L 30,17.7501L 34,21.7501 Z M 21.75,42L 34,42L 34,54.25L 30,58.25L 30,49.25L 22,57.25L 18.75,54L 26.75,46L 17.75,46L 21.75,42 Z M 42,54.25L 42,42L 54.2499,42L 58.2499,46L 49.2499,46.0001L 57.2499,54L 53.9999,57.25L 45.9999,49.25L 45.9999,58.25L 42,54.25 Z "/>
</svg>
