<?xml version="1.0" encoding="utf-8"?>
<!DOCTYPE svg PUBLIC "-//W3C//DTD SVG 1.1//EN" "http://www.w3.org/Graphics/SVG/1.1/DTD/svg11.dtd">
<svg xmlns="http://www.w3.org/2000/svg" xmlns:xlink="http://www.w3.org/1999/xlink" version="1.1" baseProfile="full" width="76" height="76" viewBox="0 0 76.00 76.00" enable-background="new 0 0 76.00 76.00" xml:space="preserve">
	<path fill="#000000" fill-opacity="1" stroke-linejoin="round" d="M 16,25.0001L 29.9999,25.0001C 31.6568,25.0001 32.9999,26.3433 32.9999,28.0001C 32.9999,29.657 31.6568,31.0001 29.9999,31.0001L 16,31.0001C 14.3432,31.0001 13,29.657 13,28.0001C 13,26.3432 14.3432,25.0001 16,25.0001 Z M 20,34L 31.9999,34C 33.6567,34 34.9999,35.3432 34.9999,37C 34.9999,38.6569 33.6567,40 31.9999,40L 20,39.9999C 18.3431,39.9999 17,38.6568 17,36.9999C 17,35.3431 18.3431,34 20,34 Z M 46,23L 46,47L 71.832,47C 70.982,50.2035 69.6891,53.2267 68.0228,56L 42,56L 42,18L 66.7265,18C 67.8263,19.5768 68.7997,21.2484 69.6318,23L 46,23 Z M 25,43L 33.9999,43.0002C 35.6567,43.0002 36.9999,44.3433 36.9999,46.0001C 36.9999,47.657 35.6567,49.0001 33.9999,49.0001L 25,49C 23.3431,49 22,47.6569 22,46C 22,44.3431 23.3431,43 25,43 Z M 48,33L 50,33L 50,36L 48,36L 48,33 Z M 51,32L 60.5,32C 61.0523,32 62,32.9477 62,33.5L 62,38.5C 62,39.0523 61.0523,40 60.5,40L 51,40L 51,32 Z M 67,31L 67,40.75L 63,37.5L 63,34.5L 67,31 Z "/>
</svg>
