<?xml version="1.0" encoding="utf-8"?>
<!DOCTYPE svg PUBLIC "-//W3C//DTD SVG 1.1//EN" "http://www.w3.org/Graphics/SVG/1.1/DTD/svg11.dtd">
<svg xmlns="http://www.w3.org/2000/svg" xmlns:xlink="http://www.w3.org/1999/xlink" version="1.1" baseProfile="full" width="76" height="76" viewBox="0 0 76.00 76.00" enable-background="new 0 0 76.00 76.00" xml:space="preserve">
	<path fill="#000000" fill-opacity="1" stroke-width="0.2" stroke-linejoin="round" d="M 17.4167,20.5833L 58.5834,20.5833L 58.5834,55.4167L 17.4167,55.4167L 17.4167,20.5833 Z M 20.5833,23.75L 20.5833,52.25L 55.4166,52.25L 55.4166,23.75L 20.5833,23.75 Z M 36.4167,25.3333L 39.5833,25.3333L 39.5833,27.8294C 43.9994,28.5113 47.4887,32.0006 48.1706,36.4167L 50.6667,36.4167L 50.6667,39.5833L 48.1706,39.5833C 47.4887,43.9994 43.9994,47.4887 39.5833,48.1706L 39.5833,50.6667L 36.4167,50.6667L 36.4167,48.1706C 32.0005,47.4887 28.5113,43.9994 27.8294,39.5833L 25.3333,39.5833L 25.3333,36.4167L 27.8294,36.4167C 28.5113,32.0006 32.0006,28.5113 36.4167,27.8294L 36.4167,25.3333 Z M 39.5833,33.25L 36.4167,33.25L 36.4167,30.2417C 33.3147,30.8714 30.8714,33.3147 30.2417,36.4167L 33.25,36.4167L 33.25,39.5833L 30.2417,39.5833C 30.8714,42.6853 33.3147,45.1286 36.4166,45.7583L 36.4166,42.75L 39.5833,42.75L 39.5833,45.7583C 42.6853,45.1287 45.1286,42.6853 45.7583,39.5833L 42.75,39.5833L 42.75,36.4167L 45.7583,36.4167C 45.1286,33.3147 42.6853,30.8714 39.5833,30.2417L 39.5833,33.25 Z "/>
</svg>
