<?xml version="1.0" encoding="utf-8"?>
<!DOCTYPE svg PUBLIC "-//W3C//DTD SVG 1.1//EN" "http://www.w3.org/Graphics/SVG/1.1/DTD/svg11.dtd">
<svg xmlns="http://www.w3.org/2000/svg" xmlns:xlink="http://www.w3.org/1999/xlink" version="1.1" baseProfile="full" width="76.0106" height="76.0106" viewBox="0 0 76.01 76.01" enable-background="new 0 0 76.01 76.01" xml:space="preserve">
	<path fill="#000000" fill-opacity="1" stroke-width="0.2" stroke-linejoin="round" d="M 27.0038,27.0038L 30.0042,27.0038L 30.0042,30.0042L 33.0046,30.0042L 33.0046,33.0046L 43.006,33.0046L 43.006,30.0042L 46.0064,30.0042L 46.0064,27.0038L 49.0068,27.0038L 49.0068,30.0042L 46.0064,30.0042L 46.0064,33.0046L 49.0068,33.0046L 49.0068,36.005L 52.0073,36.005L 52.0073,40.0056L 49.0068,40.0056L 49.0068,49.0068L 46.0064,49.0068L 46.0064,52.0073L 40.0056,52.0073L 40.0056,49.0068L 46.0064,49.0068L 46.0064,44.0061L 30.0042,44.0061L 30.0042,49.0068L 27.0038,49.0068L 27.0038,40.0056L 24.0033,40.0056L 24.0033,46.0064L 20.0028,46.0064L 20.0028,40.0056L 24.0033,40.0056L 24.0033,36.005L 27.0038,36.005L 27.0038,33.0046L 30.0042,33.0046L 30.0042,30.0042L 27.0038,30.0042L 27.0038,27.0038 Z M 52.0073,40.0056L 56.0078,40.0056L 56.0078,46.0064L 52.0073,46.0064L 52.0073,40.0056 Z M 30.0042,49.0068L 36.005,49.0068L 36.005,52.0073L 30.0042,52.0073L 30.0042,49.0068 Z M 30.0042,36.005L 30.0042,40.0056L 34.0047,40.0056L 34.0047,36.005L 30.0042,36.005 Z M 42.0059,36.005L 42.0059,40.0056L 46.0064,40.0056L 46.0064,36.005L 42.0059,36.005 Z "/>
</svg>
