<?xml version="1.0" encoding="utf-8"?>
<!DOCTYPE svg PUBLIC "-//W3C//DTD SVG 1.1//EN" "http://www.w3.org/Graphics/SVG/1.1/DTD/svg11.dtd">
<svg xmlns="http://www.w3.org/2000/svg" xmlns:xlink="http://www.w3.org/1999/xlink" version="1.1" baseProfile="full" width="76" height="76" viewBox="0 0 76.00 76.00" enable-background="new 0 0 76.00 76.00" xml:space="preserve">
	<path fill="#000000" fill-opacity="1" stroke-width="0.2" stroke-linejoin="round" d="M 21.8543,22.9925C 23.819,22.6347 26.5426,22.3676 30.248,22.3676C 34.2651,22.3676 37.2119,23.2161 39.1311,24.8231C 40.9167,26.2961 42.0779,28.6625 42.0779,31.4748C 42.0779,34.3316 41.1849,36.6981 39.4883,38.3055C 37.3014,40.4934 33.8638,41.5196 29.9803,41.5196C 28.9527,41.5196 28.0152,41.4755 27.3007,41.341L 27.3007,52.6801L 21.8543,52.6801L 21.8543,22.9925 Z M 27.3007,37.0103C 27.9711,37.1894 28.8636,37.2335 29.9803,37.2335C 34.0874,37.2335 36.5869,35.2247 36.5869,31.6979C 36.5869,28.3499 34.2651,26.5642 30.4711,26.5642C 28.9527,26.5642 27.8815,26.6978 27.3007,26.8319L 27.3007,37.0103 Z M 51.0074,35.091C 52.079,32.0106 54.6236,30.4477 56.9446,30.4477L 58.2399,30.5818L 58.2399,35.7609C 57.7931,35.671 57.3018,35.5824 56.632,35.5824C 53.9983,35.5824 52.2131,37.278 51.7218,39.734L 51.5432,41.431L 51.5432,52.6801L 46.0518,52.6801L 46.0518,37.9479C 46.0518,35.0015 46.0073,32.9037 45.8737,30.9395L 50.6502,30.9395L 50.8279,35.091L 51.0074,35.091 Z "/>
</svg>
