<?xml version="1.0" encoding="utf-8"?>
<!DOCTYPE svg PUBLIC "-//W3C//DTD SVG 1.1//EN" "http://www.w3.org/Graphics/SVG/1.1/DTD/svg11.dtd">
<svg xmlns="http://www.w3.org/2000/svg" xmlns:xlink="http://www.w3.org/1999/xlink" version="1.1" baseProfile="full" width="76" height="76" viewBox="0 0 76.00 76.00" enable-background="new 0 0 76.00 76.00" xml:space="preserve">
	<path fill="#000000" fill-opacity="1" stroke-width="0.2" stroke-linejoin="round" d="M 17.4167,28.5L 19,28.5L 19,26.125L 21.375,26.9167L 21.375,28.5L 58.5833,28.5L 58.5833,32.4583L 17.4167,32.4583L 17.4167,28.5 Z M 19,33.25L 57,33.25C 57,35.3611 57,37.4722 55.4167,38.5938C 53.8333,39.7153 50.6667,39.8472 47.5,39.9792L 28.5,39.9792C 25.3333,39.8472 22.1667,39.7153 20.5833,38.5938C 19,37.4722 19,35.3611 19,33.25 Z M 19,49.0833C 19,46.4445 19.3958,43.8056 20.4514,42.4861C 21.5069,41.1667 24.8055,40.7709 26.9167,40.7709L 49.0833,40.7709C 51.1944,40.7709 54.493,41.1667 55.5486,42.4861C 56.6042,43.8056 57,46.4445 57,49.0833L 55.4167,49.0833C 55.4167,46.9722 55.0208,44.8611 53.9653,43.8056C 52.9097,42.75 49.6111,42.75 47.5,42.75L 28.5,42.75C 26.3889,42.75 23.0903,42.75 22.0347,43.8056C 20.9791,44.8611 20.5833,46.9722 20.5833,49.0833L 19,49.0833 Z "/>
</svg>
