<?xml version="1.0" encoding="utf-8"?>
<!DOCTYPE svg PUBLIC "-//W3C//DTD SVG 1.1//EN" "http://www.w3.org/Graphics/SVG/1.1/DTD/svg11.dtd">
<svg xmlns="http://www.w3.org/2000/svg" xmlns:xlink="http://www.w3.org/1999/xlink" version="1.1" baseProfile="full" width="76" height="76" viewBox="0 0 76.00 76.00" enable-background="new 0 0 76.00 76.00" xml:space="preserve">
	<path fill="#000000" fill-opacity="1" stroke-width="0.2" stroke-linejoin="round" d="M 19,25.3333L 25.3333,25.3333L 25.3333,31.6667L 19,31.6667L 19,25.3333 Z M 19,36.4167L 25.3333,36.4167L 25.3333,42.75L 19,42.75L 19,36.4167 Z M 28.5,25.3333L 57,25.3333L 57,31.6667L 28.5,31.6667L 28.5,25.3333 Z M 28.5,36.4167L 57,36.4167L 57,42.75L 28.5,42.75L 28.5,36.4167 Z M 19,47.5L 25.3333,47.5L 25.3333,53.8333L 19,53.8333L 19,47.5 Z M 28.5,47.5L 57,47.5L 57,53.8333L 28.5,53.8333L 28.5,47.5 Z "/>
</svg>
