<?xml version="1.0" encoding="utf-8"?>
<!DOCTYPE svg PUBLIC "-//W3C//DTD SVG 1.1//EN" "http://www.w3.org/Graphics/SVG/1.1/DTD/svg11.dtd">
<svg xmlns="http://www.w3.org/2000/svg" xmlns:xlink="http://www.w3.org/1999/xlink" version="1.1" baseProfile="full" width="76" height="76" viewBox="0 0 76.00 76.00" enable-background="new 0 0 76.00 76.00" xml:space="preserve">
	<path fill="#000000" fill-opacity="1" stroke-width="0.2" stroke-linejoin="round" d="M 37.6353,61.5917L 31.0614,41.5768L 28.5374,41.5768L 28.5374,38L 38.2802,38L 38.2802,41.5768L 35.4964,41.5768L 39.3674,54.2429L 45.3456,38.0026L 47.5462,38.0026L 53.5244,54.2429L 56.8356,41.5768L 53.5905,41.5768L 53.5905,38L 63.3333,38L 63.3333,41.5768L 61.1624,41.5768L 55.002,61.5917L 52.7179,61.5917L 46.3368,45.1341L 39.9195,61.5917L 37.6353,61.5917 Z M 17.4167,17.4167L 40.375,17.4167L 52.25,29.2917L 52.25,44.7292L 49.0833,37.8681L 49.0833,33.25L 36.4167,33.25L 36.4167,20.5833L 20.5833,20.5834L 20.5833,55.4167L 33.3631,55.4167L 34.494,58.5833L 17.4167,58.5833L 17.4167,17.4167 Z M 43.0893,58.5833L 44.2202,55.4167L 48.0655,55.4167L 49.4226,58.5833L 43.0893,58.5833 Z M 39.5833,21.3751L 39.5833,30.0833L 48.2916,30.0833L 39.5833,21.3751 Z "/>
</svg>
