<?xml version="1.0" encoding="utf-8"?>
<!DOCTYPE svg PUBLIC "-//W3C//DTD SVG 1.1//EN" "http://www.w3.org/Graphics/SVG/1.1/DTD/svg11.dtd">
<svg xmlns="http://www.w3.org/2000/svg" xmlns:xlink="http://www.w3.org/1999/xlink" version="1.1" baseProfile="full" width="76" height="76" viewBox="0 0 76.00 76.00" enable-background="new 0 0 76.00 76.00" xml:space="preserve">
	<path fill="#000000" fill-opacity="1" stroke-width="0.2" stroke-linejoin="round" d="M 25.3333,45.9167L 34.8333,45.9167L 34.8333,57L 25.3333,57L 25.3333,45.9167 Z M 41.1667,45.9167L 50.6667,45.9167L 50.6667,57L 41.1667,57L 41.1667,45.9167 Z M 35.625,34.8334L 34.8333,43.9375L 24.1458,43.9375L 24.5417,34.8334L 35.625,34.8334 Z M 41.1666,43.9375L 40.375,34.8333L 51.4583,34.8333L 51.8541,43.9375L 41.1666,43.9375 Z M 30.0833,23.75L 34.0416,24.9375L 33.25,22.1667C 33.25,20.4178 35.4594,19 37.2083,19L 38.7917,19C 40.5406,19 42.75,20.4178 42.75,22.1667L 41.9583,24.9375L 45.9167,23.75C 47.6656,23.75 49.0833,25.1678 49.0833,26.9167L 49.0833,29.2917C 49.0833,31.0406 47.6656,32.4583 45.9167,32.4583L 30.0833,32.4583C 28.3344,32.4583 26.9167,31.0406 26.9167,29.2917L 26.9167,26.9167C 26.9167,25.1678 28.3344,23.75 30.0833,23.75 Z M 31.6667,26.9167C 30.7922,26.9167 30.0833,27.6256 30.0833,28.5C 30.0833,29.3745 30.7922,30.0834 31.6667,30.0834L 33.25,30.0834C 34.1244,30.0834 34.8333,30.1662 34.8333,29.2917L 33.25,26.9167L 31.6667,26.9167 Z M 44.3333,26.9167L 42.75,26.9167L 41.1666,29.2917C 41.1666,30.1661 41.8755,30.0833 42.75,30.0833L 44.3333,30.0833C 45.2078,30.0833 45.9166,29.3745 45.9166,28.5C 45.9166,27.6256 45.2078,26.9167 44.3333,26.9167 Z M 38,21.375C 37.1255,21.375 36.4167,22.8756 36.4167,23.75L 36.4167,24.9375C 36.4167,25.812 37.1255,26.9167 38,26.9167C 38.8744,26.9167 39.5833,25.812 39.5833,24.9375L 39.5833,23.75C 39.5833,22.8756 38.8744,21.375 38,21.375 Z "/>
</svg>
