<?xml version="1.0" encoding="utf-8"?>
<!DOCTYPE svg PUBLIC "-//W3C//DTD SVG 1.1//EN" "http://www.w3.org/Graphics/SVG/1.1/DTD/svg11.dtd">
<svg xmlns="http://www.w3.org/2000/svg" xmlns:xlink="http://www.w3.org/1999/xlink" version="1.1" baseProfile="full" width="76" height="76" viewBox="0 0 76.00 76.00" enable-background="new 0 0 76.00 76.00" xml:space="preserve">
	<path fill="#000000" fill-opacity="1" stroke-width="0.2" stroke-linejoin="round" d="M 15.8333,25.3333L 60.1667,25.3333L 60.1667,52.25L 15.8333,52.25L 15.8333,25.3333 Z M 19,28.5L 19,49.0833L 57,49.0833L 57,28.5L 19,28.5 Z M 29.4078,44.3333L 27.1911,44.3333L 27.1911,43.2319L 27.1611,43.2319C 26.6608,44.0647 25.9204,44.4811 24.9398,44.4811C 24.2163,44.4811 23.6471,44.2791 23.2323,43.875C 22.8174,43.4709 22.61,42.9318 22.61,42.2575C 22.61,40.8336 23.4666,40.0116 25.1799,39.7915L 27.205,39.5259C 27.205,38.7901 26.7639,38.4222 25.8819,38.4222C 24.9937,38.4222 24.1493,38.6685 23.3489,39.1611L 23.3489,37.4247L 24.6708,36.986L 26.1982,36.7967C 28.3379,36.7967 29.4078,37.8434 29.4078,39.937L 29.4078,44.3333 Z M 27.205,41.3385L 27.205,40.8559L 25.8242,41.0245C 25.0606,41.1169 24.6789,41.4409 24.6789,41.9966C 24.6789,42.2475 24.7716,42.4534 24.9571,42.6143C 25.1426,42.7751 25.3939,42.8556 25.711,42.8556C 26.1528,42.8556 26.5123,42.7124 26.7893,42.4261C 27.0664,42.1398 27.205,41.7772 27.205,41.3385 Z M 33.4278,43.4143L 33.3978,43.4143L 33.3978,44.3333L 31.1811,44.3333L 31.1811,33.3978L 33.3978,33.3978L 33.3978,38.1151L 33.4278,38.1151C 33.9973,37.2362 34.807,36.7967 35.8569,36.7967C 36.8205,36.7967 37.5629,37.1211 38.0839,37.7699C 38.605,38.4188 38.8655,39.3058 38.8655,40.4311C 38.8655,41.6518 38.5615,42.632 37.9535,43.3716C 37.3454,44.1113 36.5327,44.4811 35.5151,44.4811C 34.5946,44.4811 33.8988,44.1255 33.4278,43.4143 Z M 33.3631,40.3664L 33.3631,41.1007C 33.3631,41.564 33.5017,41.9477 33.7788,42.2517C 34.0558,42.5558 34.4114,42.7078 34.8455,42.7078C 35.3704,42.7078 35.7776,42.5127 36.067,42.1224C 36.3564,41.7322 36.5011,41.1792 36.5011,40.4634C 36.5011,39.8692 36.3687,39.4051 36.104,39.0711C 35.8392,38.737 35.4605,38.57 34.9679,38.57C 34.5061,38.57 34.1232,38.7359 33.8192,39.0676C 33.5152,39.3993 33.3631,39.8323 33.3631,40.3664 Z M 45.8111,44.017C 45.3077,44.3264 44.5804,44.4811 43.6291,44.4811C 42.5177,44.4811 41.6183,44.1401 40.931,43.4582C 40.2437,42.7763 39.9,41.8958 39.9,40.8167C 39.9,39.5729 40.2683,38.5919 41.0049,37.8738C 41.7414,37.1557 42.727,36.7967 43.9616,36.7967C 44.8128,36.7967 45.4294,36.9167 45.8111,37.1569L 45.8111,39.1611C 45.357,38.767 44.8506,38.57 44.2918,38.57C 43.6683,38.57 43.1746,38.7559 42.8105,39.1276C 42.4465,39.4994 42.2644,40.0124 42.2644,40.6666C 42.2644,41.3023 42.4384,41.8015 42.7863,42.164C 43.1342,42.5265 43.6129,42.7078 44.2225,42.7078C 44.7644,42.7078 45.2941,42.5107 45.8111,42.1167L 45.8111,44.017 Z M 47.1042,47.5L 47.1042,30.0833L 49.0833,30.0833L 49.0833,47.5L 47.1042,47.5 Z "/>
</svg>
