<?xml version="1.0" encoding="utf-8"?>
<!DOCTYPE svg PUBLIC "-//W3C//DTD SVG 1.1//EN" "http://www.w3.org/Graphics/SVG/1.1/DTD/svg11.dtd">
<svg xmlns="http://www.w3.org/2000/svg" xmlns:xlink="http://www.w3.org/1999/xlink" version="1.1" baseProfile="full" width="76" height="76" viewBox="0 0 76.00 76.00" enable-background="new 0 0 76.00 76.00" xml:space="preserve">
	<path fill="#000000" fill-opacity="1" stroke-width="0.2" stroke-linejoin="round" d="M 49.0833,33.25C 53.4555,33.25 57,36.7944 57,41.1666C 57,45.5389 53.4045,48.9999 48.9999,49L 41,49L 41,43L 45,43L 39,37L 33,43L 37,43L 37,49L 23,49.0001C 20.8139,49 19,47.3111 19,45.125C 19,43.1866 20.3931,41.5737 22.2327,41.233L 22.1667,40.3749C 22.1667,37.3993 24.5122,34.9712 27.4553,34.8389C 28.7579,31.1462 32.2782,28.4999 36.4167,28.4999C 40.3458,28.4999 43.7179,30.8853 45.1637,34.2868C 46.3193,33.627 47.6573,33.25 49.0833,33.25 Z "/>
</svg>
