<?xml version="1.0" encoding="utf-8"?>
<!DOCTYPE svg PUBLIC "-//W3C//DTD SVG 1.1//EN" "http://www.w3.org/Graphics/SVG/1.1/DTD/svg11.dtd">
<svg xmlns="http://www.w3.org/2000/svg" xmlns:xlink="http://www.w3.org/1999/xlink" version="1.1" baseProfile="full" width="76" height="76" viewBox="0 0 76.00 76.00" enable-background="new 0 0 76.00 76.00" xml:space="preserve">
	<path fill="#000000" fill-opacity="1" stroke-width="0.2" stroke-linejoin="round" d="M 33.25,44.3333L 42.75,44.3333L 42.75,41.1667L 33.25,41.1667L 33.25,44.3333 Z M 45.9166,44.3333L 55.4166,44.3333L 55.4166,41.1667L 45.9166,41.1667L 45.9166,44.3333 Z M 20.5833,41.1667L 20.5833,44.3334L 30.0833,44.3334L 30.0833,41.1667L 20.5833,41.1667 Z M 17.4166,38L 60.1667,38L 60.1667,41.1667L 58.5833,41.1667L 58.5833,44.3333L 60.1667,44.3333L 60.1667,47.5L 58.5833,47.5L 58.5833,50.6667L 60.1666,50.6667L 60.1666,53.8333L 58.5833,53.8334L 58.5833,55.4167L 55.4166,55.4167L 55.4166,53.8333L 45.9166,53.8333L 45.9166,55.4167L 42.75,55.4167L 42.75,53.8333L 33.25,53.8334L 33.25,55.4167L 30.0833,55.4167L 30.0833,53.8334L 20.5833,53.8334L 20.5833,55.4167L 17.4166,55.4167L 17.4166,38 Z M 20.5833,47.5L 20.5833,50.6667L 30.0833,50.6667L 30.0833,47.5L 20.5833,47.5 Z M 33.25,47.5L 33.25,50.6667L 42.7499,50.6667L 42.7499,47.5L 33.25,47.5 Z M 45.9166,47.5L 45.9166,50.6667L 55.4166,50.6667L 55.4166,47.5L 45.9166,47.5 Z M 36.4167,20.5833L 39.5833,20.5833L 39.5833,25.3333L 44.3333,25.3333L 44.3333,28.5L 39.5833,28.5L 39.5833,33.25L 36.4167,33.25L 36.4167,28.5L 31.6667,28.5L 31.6667,25.3333L 36.4167,25.3333L 36.4167,20.5833 Z "/>
</svg>
