<?xml version="1.0" encoding="utf-8"?>
<!DOCTYPE svg PUBLIC "-//W3C//DTD SVG 1.1//EN" "http://www.w3.org/Graphics/SVG/1.1/DTD/svg11.dtd">
<svg xmlns="http://www.w3.org/2000/svg" xmlns:xlink="http://www.w3.org/1999/xlink" version="1.1" baseProfile="full" width="76" height="76" viewBox="0 0 76.00 76.00" enable-background="new 0 0 76.00 76.00" xml:space="preserve">
	<path fill="#000000" fill-opacity="1" stroke-linejoin="round" d="M 44.25,56.0078C 40.25,58.0078 38,55.0156 37,55.0078C 36,55 33.25,58.0078 29.25,56.0078C 13,42 21.4091,21.2319 35.7517,25.5694C 35.874,24.0698 36.2893,21.9114 37.7007,20.5C 40.5512,17.6496 39.9507,20.5 39.9507,20.5C 37.9581,22.6459 38.0631,24.6038 38.0557,25.7976C 52,21 61,42 44.25,56.0078 Z M 26.75,28.75C 26.75,28.75 21.25,33 22.25,42C 22.25,42 24,30 29.5,29.75L 26.75,28.75 Z "/>
</svg>
