<?xml version="1.0" encoding="utf-8"?>
<!DOCTYPE svg PUBLIC "-//W3C//DTD SVG 1.1//EN" "http://www.w3.org/Graphics/SVG/1.1/DTD/svg11.dtd">
<svg xmlns="http://www.w3.org/2000/svg" xmlns:xlink="http://www.w3.org/1999/xlink" version="1.1" baseProfile="full" width="76.0106" height="76.0106" viewBox="0 0 76.01 76.01" enable-background="new 0 0 76.01 76.01" xml:space="preserve">
	<path fill="#000000" fill-opacity="1" stroke-width="0.2" stroke-linejoin="round" d="M 46.0061,46.0064L 53.007,46.0065L 53.007,43.006L 58.0078,48.0067L 53.007,53.0074L 53.007,50.0071L 46.0061,50.007L 46.0061,46.0064 Z M 23.0033,56.0078L 23.0033,38.0053L 21.0031,40.0056L 18.0027,35.0049L 37.0053,20.0028L 44.0063,25.5299L 44.0063,21.753L 48.0068,21.0029L 48.0068,28.6882L 56.0079,35.0049L 53.0075,40.0056L 51.0073,38.0053L 51.0073,45.0063L 48.0068,45.0063L 48.0068,36.005L 37.0053,26.9205L 26.0038,36.005L 26.0038,53.0074L 37.0045,53.0075L 37.0045,41.0061L 45.0058,41.0061L 45.0059,53.0075L 48.0068,53.0074L 48.0068,51.0071L 51.0073,51.0071L 51.0073,56.0078L 23.0033,56.0078 Z M 29.004,41.0057L 34.0049,41.0057L 34.0049,47.0066L 29.004,47.0066L 29.004,41.0057 Z "/>
</svg>
