<?xml version="1.0" encoding="utf-8"?>
<!DOCTYPE svg PUBLIC "-//W3C//DTD SVG 1.1//EN" "http://www.w3.org/Graphics/SVG/1.1/DTD/svg11.dtd">
<svg xmlns="http://www.w3.org/2000/svg" xmlns:xlink="http://www.w3.org/1999/xlink" version="1.1" baseProfile="full" width="76.0106" height="76.0106" viewBox="0 0 76.01 76.01" enable-background="new 0 0 76.01 76.01" xml:space="preserve">
	<path fill="#000000" fill-opacity="1" stroke-width="0.2" stroke-linejoin="round" d="M 57.008,21.0029L 57.008,25.0034L 32.0045,25.0034L 32.0045,21.0029L 57.008,21.0029 Z M 57.008,27.0038L 57.008,31.0042L 27.0038,31.0042L 27.0038,27.0038L 57.008,27.0038 Z M 57.008,33.0046L 57.008,37.005L 33.0046,37.005L 33.0046,33.0046L 57.008,33.0046 Z M 57.008,39.0055L 57.008,43.0059L 24.0033,43.0059L 24.0033,39.0055L 57.008,39.0055 Z M 57.008,45.0064L 57.008,49.0068L 30.0042,49.0068L 30.0042,45.0064L 57.008,45.0064 Z M 57.008,51.0073L 57.008,55.0077L 25.0035,55.0077L 25.0035,51.0073L 57.008,51.0073 Z "/>
</svg>
