<?xml version="1.0" encoding="utf-8"?>
<!DOCTYPE svg PUBLIC "-//W3C//DTD SVG 1.1//EN" "http://www.w3.org/Graphics/SVG/1.1/DTD/svg11.dtd">
<svg xmlns="http://www.w3.org/2000/svg" xmlns:xlink="http://www.w3.org/1999/xlink" version="1.1" baseProfile="full" width="76" height="76" viewBox="0 0 76.00 76.00" enable-background="new 0 0 76.00 76.00" xml:space="preserve">
	<path fill="#000000" fill-opacity="1" stroke-width="0.2" stroke-linejoin="round" d="M 20,17L 43.25,17L 56,29.75L 56,59L 20,59L 20,17 Z M 24,21L 24,55L 52,55L 52,34L 39,34L 39,21L 24,21 Z M 43,22.25L 43,30L 50.75,30L 43,22.25 Z M 64.4537,60.9181C 63.3605,62.1788 62.1788,63.3605 60.9181,64.4537L 56.4645,60L 57,60L 57,53.4645L 64.4537,60.9181 Z M 11.5463,15.0819C 12.6394,13.8212 13.8212,12.6395 15.0819,11.5463L 19.5355,16L 19,16L 19,22.5355L 11.5463,15.0819 Z "/>
</svg>
