<?xml version="1.0" encoding="utf-8"?>
<!DOCTYPE svg PUBLIC "-//W3C//DTD SVG 1.1//EN" "http://www.w3.org/Graphics/SVG/1.1/DTD/svg11.dtd">
<svg xmlns="http://www.w3.org/2000/svg" xmlns:xlink="http://www.w3.org/1999/xlink" version="1.1" baseProfile="full" width="76" height="76" viewBox="0 0 76.00 76.00" enable-background="new 0 0 76.00 76.00" xml:space="preserve">
	<path fill="#000000" fill-opacity="1" stroke-width="0.2" stroke-linejoin="round" d="M 47.4986,39.4264C 49.935,39.3839 52.1898,40.3697 54.0193,41.7026L 47.692,50.5081L 58.269,53.8298C 56.8791,58.2577 52.7807,61.5043 47.8855,61.5897C 41.7653,61.6965 36.7172,56.8217 36.6104,50.7015C 36.5036,44.5813 41.3784,39.5333 47.4986,39.4264 Z M 19,17.4167L 41.9583,17.4167L 53.8333,29.2917L 53.8333,39.1377L 50.6666,37.5046L 50.6666,33.25L 38,33.25L 38,20.5834L 22.1667,20.5834L 22.1667,55.4167L 34.2749,55.4167C 34.6153,56.5605 35.1354,57.627 35.8025,58.5833L 19,58.5833L 19,17.4167 Z M 41.1666,21.3751L 41.1666,30.0834L 49.8749,30.0834L 41.1666,21.3751 Z M 33.25,52.25L 25.3333,52.25L 25.3333,49.0833L 33.25,49.0833L 33.25,52.25 Z M 34.8333,47.5L 25.3333,47.5L 25.3333,44.3333L 34.8333,44.3333L 34.8333,47.5 Z M 25.3333,42.75L 25.3333,39.5833L 36.4166,39.5834L 36.4166,42.75L 25.3333,42.75 Z "/>
</svg>
