<?xml version="1.0" encoding="utf-8"?>
<!DOCTYPE svg PUBLIC "-//W3C//DTD SVG 1.1//EN" "http://www.w3.org/Graphics/SVG/1.1/DTD/svg11.dtd">
<svg xmlns="http://www.w3.org/2000/svg" xmlns:xlink="http://www.w3.org/1999/xlink" version="1.1" baseProfile="full" width="76" height="76" viewBox="0 0 76.00 76.00" enable-background="new 0 0 76.00 76.00" xml:space="preserve">
	<path fill="#000000" fill-opacity="1" stroke-width="0.2" stroke-linejoin="round" d="M 22,17L 54,17C 56.6233,17 59,19.3767 59,22L 59,54C 59,56.6234 56.6233,59 54,59L 22,59C 19.3766,59 17,56.6234 17,54L 17,22C 17,19.3767 19.3766,17 22,17 Z M 31.8235,27.8033L 31.8235,49.0833L 37.0555,49.0833C 39.3224,49.0833 40.7666,48.9971 41.388,48.8247C 42.2833,48.5754 43.0595,47.9211 43.7165,46.8621C 44.3736,45.803 44.7022,44.5069 44.7022,42.9737C 44.7022,41.7083 44.4729,40.6346 44.0143,39.7526C 43.5557,38.8705 42.9198,38.2479 42.1067,37.8846C 42.72,37.4843 43.2183,36.8655 43.6016,36.0281C 43.9849,35.1907 44.1765,34.2548 44.1765,33.2203C 44.1765,32.0935 43.9376,31.0852 43.4599,30.1955C 42.9821,29.3058 42.3956,28.6846 41.7002,28.3321C 41.0047,27.9796 39.8015,27.8033 38.0904,27.8033L 31.8235,27.8033 Z M 34.7146,31.35L 36.6735,31.35C 38.4613,31.35 39.5441,31.3993 39.9219,31.4978C 40.2998,31.5963 40.6214,31.8457 40.887,32.2459C 41.1526,32.6461 41.2854,33.168 41.2854,33.8114C 41.2854,34.5319 41.1225,35.1022 40.7967,35.5224C 40.4709,35.9427 40.0191,36.2021 39.4415,36.3006L 36.9528,36.3745L 34.7146,36.3745L 34.7146,31.35 Z M 34.7146,39.9211L 37.421,39.9211C 38.8556,39.9211 39.8056,40.005 40.271,40.1728C 40.7364,40.3406 41.1095,40.6462 41.3901,41.0895C 41.6707,41.5328 41.811,42.0978 41.811,42.7843C 41.811,43.4555 41.6796,44.0081 41.4168,44.4422C 41.154,44.8763 40.8295,45.1672 40.4435,45.315C 40.0575,45.4628 39.1827,45.5367 37.8193,45.5367L 34.7146,45.5367L 34.7146,39.9211 Z M 50.6667,50.6667L 50.6667,52.25L 52.25,52.25C 52.25,52.7778 52.25,53.3056 51.7222,53.5694C 51.1944,53.8333 50.1389,53.8333 49.0833,53.8333C 49.0833,54.3611 49.0833,54.8889 49.6111,55.1528C 50.1389,55.4167 51.1944,55.4167 52.25,55.4167C 52.7778,55.4167 53.3056,55.4167 53.5694,54.8889C 53.8333,54.3611 53.8333,53.3056 53.8333,52.25L 53.8333,50.6667C 53.8333,49.6111 53.8333,48.5556 53.5694,48.0278C 53.3056,47.5 52.7778,47.5 52.25,47.5C 51.1944,47.5 50.1389,47.5 49.6111,47.7639C 49.0833,48.0278 49.0833,48.5556 49.0833,49.0833C 50.1389,49.0833 51.1944,49.0833 51.7222,49.3472C 52.25,49.6111 52.25,50.1389 52.25,50.6667L 50.6667,50.6667 Z "/>
</svg>
