<?xml version="1.0" encoding="utf-8"?>
<!DOCTYPE svg PUBLIC "-//W3C//DTD SVG 1.1//EN" "http://www.w3.org/Graphics/SVG/1.1/DTD/svg11.dtd">
<svg xmlns="http://www.w3.org/2000/svg" xmlns:xlink="http://www.w3.org/1999/xlink" version="1.1" baseProfile="full" width="76" height="76" viewBox="0 0 76.00 76.00" enable-background="new 0 0 76.00 76.00" xml:space="preserve">
	<path fill="#000000" fill-opacity="1" stroke-linejoin="round" d="M 47.094,45.2147C 48.2863,45.2147 54.2481,56.542 53.6519,57.1382C 53.0557,57.7343 41.1323,57.7343 40.5361,57.1382C 39.9399,56.542 45.9016,45.2147 47.094,45.2147 Z M 47.094,54.1573C 46.6001,54.1573 46,54.5061 46,55C 46,55.4939 46.6001,55.9458 47.094,55.9458C 47.5879,55.9458 48,55.4939 48,55C 48,54.5061 47.5879,54.1573 47.094,54.1573 Z M 46.1997,48.7918L 46.2478,53.3111L 47.9401,53.3111L 47.9882,48.7918L 46.1997,48.7918 Z M 36,19C 37.9738,27.882 47.7392,35.7901 47.9949,43.6853C 47.6108,43.249 47.3,43 47.094,43C 45.8642,43 40.899,51.8719 38.9357,56.4952C 37.9266,56.8275 36.9288,57 36,57C 31,57 24,52 24,44C 24,36 34,28 36,19 Z "/>
</svg>
