<?xml version="1.0" encoding="utf-8"?>
<!DOCTYPE svg PUBLIC "-//W3C//DTD SVG 1.1//EN" "http://www.w3.org/Graphics/SVG/1.1/DTD/svg11.dtd">
<svg xmlns="http://www.w3.org/2000/svg" xmlns:xlink="http://www.w3.org/1999/xlink" version="1.1" baseProfile="full" width="76" height="76" viewBox="0 0 76.00 76.00" enable-background="new 0 0 76.00 76.00" xml:space="preserve">
	<path fill="#000000" fill-opacity="1" stroke-width="0.2" stroke-linejoin="round" d="M 23.6584,49.0333L 23.5634,46.9483L 22.5134,47.9133C 22.1467,48.2067 21.7434,48.4608 21.3034,48.6758C 20.8634,48.8908 20.3851,49.0575 19.8684,49.1758C 19.3517,49.2942 18.7851,49.3533 18.1684,49.3533C 17.3517,49.3533 16.6351,49.2317 16.0184,48.9883C 15.4017,48.745 14.8842,48.4067 14.4659,47.9733C 14.0476,47.54 13.7309,47.0167 13.5159,46.4033C 13.3009,45.79 13.1934,45.115 13.1934,44.3783C 13.1934,43.615 13.3526,42.9108 13.6709,42.2658C 13.9892,41.6208 14.4759,41.0667 15.1309,40.6033C 15.7859,40.14 16.6026,39.7758 17.5809,39.5108C 18.5592,39.2458 19.7067,39.1133 21.0234,39.1133L 23.1134,39.1133L 23.1134,38.1833C 23.1134,37.7867 23.0559,37.4283 22.9409,37.1083C 22.8259,36.7883 22.6409,36.5167 22.3859,36.2933C 22.1309,36.07 21.8001,35.8975 21.3934,35.7758C 20.9867,35.6542 20.4867,35.5933 19.8934,35.5933C 18.9567,35.5933 18.0326,35.7058 17.1209,35.9308C 16.2092,36.1558 15.3267,36.47 14.4734,36.8733L 14.4734,33.6733C 15.2367,33.3967 16.1167,33.1675 17.1134,32.9858C 18.1101,32.8042 19.1451,32.7133 20.2184,32.7133C 21.3984,32.7133 22.4117,32.8258 23.2584,33.0508C 24.1051,33.2758 24.8017,33.6142 25.3484,34.0658C 25.8951,34.5175 26.2992,35.0808 26.5609,35.7558C 26.8226,36.4308 26.9534,37.22 26.9534,38.1233L 26.9534,49.0333L 23.6584,49.0333 Z M 23.1134,41.9933L 20.8284,41.9933C 20.1984,41.9933 19.6634,42.0575 19.2234,42.1858C 18.7834,42.3142 18.4259,42.4908 18.1509,42.7158C 17.8759,42.9408 17.6742,43.2008 17.5459,43.4958C 17.4176,43.7908 17.3534,44.1033 17.3534,44.4333C 17.3534,45.0967 17.5576,45.6025 17.9659,45.9509C 18.3742,46.2992 18.9317,46.4734 19.6384,46.4734C 20.1584,46.4734 20.6992,46.275 21.2609,45.8783C 21.8226,45.4817 22.4401,44.915 23.1134,44.1784L 23.1134,41.9933 Z M 40.0334,49.0333L 40.0334,38.5583C 40.0334,36.795 39.3751,35.9133 38.0584,35.9133C 37.4017,35.9133 36.7734,36.1775 36.1734,36.7059C 35.5734,37.2342 34.9401,37.9517 34.2734,38.8583L 34.2734,49.0333L 30.4334,49.0334L 30.4334,33.0334L 33.7584,33.0334L 33.8534,35.3933L 34.8734,34.2858C 35.2267,33.9542 35.6092,33.6717 36.0209,33.4384C 36.4326,33.205 36.8759,33.0259 37.3509,32.9009C 37.8259,32.7759 38.3584,32.7134 38.9484,32.7134C 39.7717,32.7134 40.4901,32.8467 41.1034,33.1134C 41.7167,33.38 42.2292,33.7575 42.6409,34.2458C 43.0526,34.7342 43.3609,35.3217 43.5659,36.0084C 43.7709,36.695 43.8734,37.4617 43.8734,38.3083L 43.8734,49.0333L 40.0334,49.0333 Z M 57.6534,49.0333L 57.5584,46.6883L 56.5159,47.7808C 56.1576,48.1092 55.7734,48.3892 55.3634,48.6208C 54.9534,48.8525 54.5142,49.0325 54.0459,49.1608C 53.5776,49.2892 53.0601,49.3533 52.4934,49.3533C 51.5467,49.3533 50.7051,49.1642 49.9684,48.7858C 49.2317,48.4075 48.6134,47.87 48.1134,47.1733C 47.6134,46.4767 47.2317,45.6292 46.9684,44.6308C 46.7051,43.6325 46.5734,42.52 46.5734,41.2933C 46.5734,39.8233 46.7809,38.5508 47.1959,37.4758C 47.6109,36.4008 48.1867,35.5092 48.9234,34.8008C 49.6601,34.0925 50.5342,33.5675 51.5459,33.2258C 52.5576,32.8842 53.6567,32.7133 54.8434,32.7133L 56.0509,32.7908L 57.1334,32.9934L 57.1334,26.9534L 60.9734,26.9534L 60.9734,49.0333L 57.6534,49.0333 Z M 50.7334,41.0983C 50.7334,42.0017 50.7926,42.7725 50.9109,43.4108C 51.0292,44.0492 51.2051,44.5717 51.4384,44.9783C 51.6717,45.385 51.9584,45.6825 52.2984,45.8708C 52.6384,46.0592 53.0251,46.1533 53.4584,46.1533C 54.1017,46.1533 54.7126,45.885 55.2909,45.3483C 55.8692,44.8117 56.4834,44.0767 57.1334,43.1433L 57.1334,35.9933L 56.0259,35.7058L 54.6984,35.5933C 54.0917,35.5933 53.5451,35.7225 53.0584,35.9808C 52.5717,36.2392 52.1559,36.6042 51.8109,37.0758C 51.4659,37.5475 51.2001,38.1242 51.0134,38.8058C 50.8267,39.4875 50.7334,40.2517 50.7334,41.0983 Z "/>
</svg>
