<?xml version="1.0" encoding="utf-8"?>
<!DOCTYPE svg PUBLIC "-//W3C//DTD SVG 1.1//EN" "http://www.w3.org/Graphics/SVG/1.1/DTD/svg11.dtd">
<svg xmlns="http://www.w3.org/2000/svg" xmlns:xlink="http://www.w3.org/1999/xlink" version="1.1" baseProfile="full" width="76" height="76" viewBox="0 0 76.00 76.00" enable-background="new 0 0 76.00 76.00" xml:space="preserve">
	<path fill="#000000" fill-opacity="1" stroke-width="0.2" stroke-linejoin="round" d="M 50.6667,14.25C 53.29,14.25 55.4167,16.3767 55.4167,19C 55.4167,21.6234 53.29,23.75 50.6667,23.75C 48.0433,23.75 45.9167,21.6234 45.9167,19C 45.9167,16.3767 48.0433,14.25 50.6667,14.25 Z M 49.0833,52.25C 51.7067,52.25 53.8333,54.3767 53.8333,57C 53.8333,59.6234 51.7067,61.75 49.0833,61.75C 46.46,61.75 44.3333,59.6234 44.3333,57C 44.3333,54.3767 46.46,52.25 49.0833,52.25 Z M 17.4167,33.25C 20.04,33.25 22.1667,35.3767 22.1667,38C 22.1667,40.6234 20.04,42.75 17.4167,42.75C 14.7933,42.75 12.6667,40.6234 12.6667,38C 12.6667,35.3767 14.7933,33.25 17.4167,33.25 Z M 24.5417,38C 24.5417,35.0403 22.7371,32.5021 20.1681,31.4257C 22.8433,24.1723 29.8176,19 38,19C 39.9455,19 41.8228,19.2924 43.5902,19.8357C 44.0039,23.3769 47.0143,26.125 50.6667,26.125C 51.3414,26.125 51.9943,26.0312 52.613,25.8559C 55.3524,29.1486 57,33.3819 57,38C 57,42.8346 55.1943,47.2475 52.2205,50.601C 51.2739,50.1361 50.2091,49.875 49.0833,49.875C 45.2878,49.875 42.1854,52.8429 41.9702,56.5846C 40.6898,56.8568 39.3616,57 38,57C 29.8176,57 22.8433,51.8277 20.1681,44.5743C 22.7371,43.4979 24.5417,40.9597 24.5417,38 Z M 38,26.9167C 31.8788,26.9167 26.9167,31.8789 26.9167,38C 26.9167,44.1212 31.8788,49.0833 38,49.0833C 44.1211,49.0833 49.0833,44.1212 49.0833,38C 49.0833,31.8789 44.1212,26.9167 38,26.9167 Z "/>
</svg>
