<?xml version="1.0" encoding="utf-8"?>
<!DOCTYPE svg PUBLIC "-//W3C//DTD SVG 1.1//EN" "http://www.w3.org/Graphics/SVG/1.1/DTD/svg11.dtd">
<svg xmlns="http://www.w3.org/2000/svg" xmlns:xlink="http://www.w3.org/1999/xlink" version="1.1" baseProfile="full" width="76" height="76" viewBox="0 0 76.00 76.00" enable-background="new 0 0 76.00 76.00" xml:space="preserve">
	<path fill="#000000" fill-opacity="1" stroke-width="0.2" stroke-linejoin="round" d="M 36.4167,15.8333C 38.6028,15.8333 41,17.8139 41,20L 41,21L 52,21L 52,33L 49,33L 49,24L 44,24L 46,28L 27,28L 29,24L 24,24L 24,54L 52,54L 52,57L 21,57L 21,21L 32,21L 32,20C 32,17.8139 34.2305,15.8333 36.4167,15.8333 Z M 36.4166,18.2084C 35.5422,18.2084 34.5,18.8755 34.5,19.75C 34.5,20.0384 34.8653,20.7671 35,21L 38,21C 38.1347,20.7671 38.5,20.0384 38.5,19.75C 38.5,18.8755 37.2911,18.2084 36.4166,18.2084 Z M 59,53L 37,53L 37,34L 54,34L 59,39L 59,53 Z M 39,36L 39,51L 57,51L 57,41L 52,41L 52,36L 39,36 Z M 54,37L 54,39L 56,39L 54,37 Z M 41,38L 50,38L 50,40L 41,40L 41,38 Z M 41,41L 50,41L 50,43L 41,43L 41,41 Z M 41,44L 56,44L 56,46L 41,46L 41,44 Z M 41,47L 56,47L 56,49L 41,49L 41,47 Z "/>
</svg>
