<?xml version="1.0" encoding="utf-8"?>
<!DOCTYPE svg PUBLIC "-//W3C//DTD SVG 1.1//EN" "http://www.w3.org/Graphics/SVG/1.1/DTD/svg11.dtd">
<svg xmlns="http://www.w3.org/2000/svg" xmlns:xlink="http://www.w3.org/1999/xlink" version="1.1" baseProfile="full" width="76" height="76" viewBox="0 0 76.00 76.00" enable-background="new 0 0 76.00 76.00" xml:space="preserve">
	<path fill="#000000" fill-opacity="1" stroke-width="0.2" stroke-linejoin="round" d="M 45.4403,56.9637L 45.4403,55.0463L 52.8201,44.5143L 52.8201,44.4237L 46.13,44.4237L 46.13,41.4774L 57.372,41.4774L 57.372,43.5352L 50.1532,53.9265L 50.1532,54.0174L 57.4869,54.0174L 57.4869,56.9637L 45.4403,56.9637 Z M 34.8333,61.75L 34.8333,42.75L 19,20.5833L 57,20.5833L 41.1667,42.75L 41.1667,58.5833L 34.8333,61.75 Z M 25.903,52.8055L 21.4072,52.8055L 20.289,56.9855L 16.6085,56.9855L 21.4072,41.4556L 26.0661,41.4556L 30.9337,56.9855L 27.1143,56.9855L 25.903,52.8055 Z M 21.9196,50.2801L 25.3905,50.2801L 24.4122,46.9804L 23.9987,45.4806L 23.6201,43.981L 23.5736,43.981L 23.2212,45.4941L 22.8514,47.0194L 21.9196,50.2801 Z "/>
</svg>
