<?xml version="1.0" encoding="utf-8"?>
<!DOCTYPE svg PUBLIC "-//W3C//DTD SVG 1.1//EN" "http://www.w3.org/Graphics/SVG/1.1/DTD/svg11.dtd">
<svg xmlns="http://www.w3.org/2000/svg" xmlns:xlink="http://www.w3.org/1999/xlink" version="1.1" baseProfile="full" width="76" height="76" viewBox="0 0 76.00 76.00" enable-background="new 0 0 76.00 76.00" xml:space="preserve">
	<path fill="#000000" fill-opacity="1" fill-rule="evenodd" stroke-width="0.2" stroke-linejoin="round" d="M 48.2306,43.8465C 46.7698,43.8465 45.3089,40.9243 45.3089,40.9243C 45.3089,40.9243 43.2315,33.613 33.6171,32.1539C 34.4628,45.3057 29.5976,43.7253 27.7668,43.8465C 25.9403,43.9664 24.8805,41.3148 24.8805,38C 24.8805,30.7555 30.7553,24.8811 38.0002,24.8811C 45.2455,24.8811 50.9455,30.7555 51.1187,38C 51.1567,39.4621 49.6916,43.8465 48.2306,43.8465 Z M 38.0002,19C 27.5071,19 18.9998,27.5069 18.9998,38C 18.9998,48.493 27.5071,57 38.0002,57C 48.4924,57 57.0002,48.493 57.0002,38C 57.0002,27.5069 48.4924,19 38.0002,19 Z "/>
</svg>
