<?xml version="1.0" encoding="utf-8"?>
<!DOCTYPE svg PUBLIC "-//W3C//DTD SVG 1.1//EN" "http://www.w3.org/Graphics/SVG/1.1/DTD/svg11.dtd">
<svg xmlns="http://www.w3.org/2000/svg" xmlns:xlink="http://www.w3.org/1999/xlink" version="1.1" baseProfile="full" width="76" height="76" viewBox="0 0 76.00 76.00" enable-background="new 0 0 76.00 76.00" xml:space="preserve">
	<path fill="#000000" fill-opacity="1" stroke-width="0.2" stroke-linejoin="round" d="M 19,34.8333L 22.1667,34.8333L 22.1667,42.75L 19,42.75L 19,34.8333 Z M 22.9583,34.0417L 49.4791,34.0417L 49.4791,38L 50.6667,38L 57,31.6667L 57,52.25L 50.6667,45.9167L 49.4791,45.9167L 49.4791,52.25L 22.9583,52.25L 22.9583,34.0417 Z M 29.2917,22.1667C 32.3522,22.1667 34.8333,24.6478 34.8333,27.7083C 34.8333,30.7689 32.3522,33.25 29.2917,33.25C 26.2311,33.25 23.75,30.7689 23.75,27.7083C 23.75,24.6478 26.2311,22.1667 29.2917,22.1667 Z M 41.9583,22.1667C 45.0189,22.1667 47.5,24.6478 47.5,27.7083C 47.5,30.7689 45.0189,33.25 41.9583,33.25C 38.8977,33.25 36.4167,30.7689 36.4167,27.7083C 36.4167,24.6478 38.8977,22.1667 41.9583,22.1667 Z "/>
</svg>
