<?xml version="1.0" encoding="utf-8"?>
<!DOCTYPE svg PUBLIC "-//W3C//DTD SVG 1.1//EN" "http://www.w3.org/Graphics/SVG/1.1/DTD/svg11.dtd">
<svg xmlns="http://www.w3.org/2000/svg" xmlns:xlink="http://www.w3.org/1999/xlink" version="1.1" baseProfile="full" width="76" height="76" viewBox="0 0 76.00 76.00" enable-background="new 0 0 76.00 76.00" xml:space="preserve">
	<path fill="#000000" fill-opacity="1" stroke-width="0.2" stroke-linejoin="round" d="M 17.4167,20.5833L 58.5834,20.5833L 58.5834,55.4167L 17.4167,55.4167L 17.4167,20.5833 Z M 20.5833,23.75L 20.5833,52.25L 55.4167,52.25L 55.4167,23.75L 20.5833,23.75 Z M 23.75,50.6667L 30.0833,44.3333L 33.25,47.5L 45.9167,34.8333L 50.6667,39.5833L 53.8333,36.4167L 53.8333,50.6667L 23.75,50.6667 Z M 30.0833,26.9167C 30.0833,30.4145 27.2478,33.25 23.75,33.25C 23.2033,33.25 22.6727,33.1807 22.1667,33.0505L 22.1667,25.3333L 29.8838,25.3333C 30.0141,25.8394 30.0833,26.3699 30.0833,26.9167 Z "/>
</svg>
