<?xml version="1.0" encoding="utf-8"?>
<!DOCTYPE svg PUBLIC "-//W3C//DTD SVG 1.1//EN" "http://www.w3.org/Graphics/SVG/1.1/DTD/svg11.dtd">
<svg xmlns="http://www.w3.org/2000/svg" xmlns:xlink="http://www.w3.org/1999/xlink" version="1.1" baseProfile="full" width="76" height="76" viewBox="0 0 76.00 76.00" enable-background="new 0 0 76.00 76.00" xml:space="preserve">
	<path fill="#000000" fill-opacity="1" stroke-width="0.2" stroke-linejoin="round" d="M 52.2716,27.8072C 61.5832,37.9485 41.6554,52.5246 38.0438,54.1634L 38.0438,54.2109L 37.9599,54.1634C 34.3451,52.5246 14.4142,37.9485 23.7257,27.8072C 27.0713,24.164 33.0737,25.3024 38.0993,31.3618C 42.0671,25.7204 48.9355,24.164 52.2716,27.8072 Z M 23.1616,26.6972L 11.5463,15.0819C 12.6395,13.8212 13.8212,12.6395 15.0819,11.5463L 28.1678,24.6324C 26.3531,24.7567 24.4735,25.2684 23.1616,26.6972 Z M 64.4537,60.9181C 63.3605,62.1788 62.1788,63.3605 60.9181,64.4537L 46.0434,49.579C 47.2523,48.5306 48.4871,47.3719 49.6685,46.133L 64.4537,60.9181 Z "/>
</svg>
