<?xml version="1.0" encoding="utf-8"?>
<!DOCTYPE svg PUBLIC "-//W3C//DTD SVG 1.1//EN" "http://www.w3.org/Graphics/SVG/1.1/DTD/svg11.dtd">
<svg xmlns="http://www.w3.org/2000/svg" xmlns:xlink="http://www.w3.org/1999/xlink" version="1.1" baseProfile="full" width="76" height="76" viewBox="0 0 76.00 76.00" enable-background="new 0 0 76.00 76.00" xml:space="preserve">
	<path fill="#000000" fill-opacity="1" stroke-width="0.2" stroke-linejoin="round" d="M 38,23C 39.6569,23 40.25,24.3432 40.25,26L 40.25,31C 40.25,32.6569 39.6569,34 38,34C 36.3431,34 35.75,32.6569 35.75,31L 35.75,26C 35.75,24.3432 36.3431,23 38,23 Z M 50,31L 50,45C 50,51.6274 44.6274,57 38,57C 31.3726,57 26,51.6274 26,45L 26,31C 26,24.7094 31.0905,19.5492 37.25,19.0411L 37.25,22.1353C 35.6564,22.5914 35,24.1489 35,26L 35,31C 35,32.8512 35.6564,34.4086 37.25,34.8648L 37.25,37.75L 38.75,37.75L 38.75,34.8648C 40.3436,34.4086 41,32.8512 41,31L 40.9999,26C 40.9999,24.1489 40.3436,22.5914 38.75,22.1353L 38.75,19.0411C 44.9095,19.5493 50,24.7094 50,31 Z "/>
</svg>
