<?xml version="1.0" encoding="utf-8"?>
<!DOCTYPE svg PUBLIC "-//W3C//DTD SVG 1.1//EN" "http://www.w3.org/Graphics/SVG/1.1/DTD/svg11.dtd">
<svg xmlns="http://www.w3.org/2000/svg" xmlns:xlink="http://www.w3.org/1999/xlink" version="1.1" baseProfile="full" width="76" height="76" viewBox="0 0 76.00 76.00" enable-background="new 0 0 76.00 76.00" xml:space="preserve">
	<path fill="#000000" fill-opacity="1" stroke-width="0.2" stroke-linejoin="round" d="M 19,19L 57,19L 57,57L 19,57L 19,19 Z M 26.9166,23.75L 26.9166,36.4167L 49.0833,36.4167L 49.0833,23.75L 26.9166,23.75 Z M 26.9166,39.5834L 26.9166,52.25L 49.0833,52.25L 49.0833,39.5834L 26.9166,39.5834 Z M 22.9583,22.1667C 21.6466,22.1667 20.5833,23.23 20.5833,24.5417C 20.5833,25.8534 21.6466,26.9167 22.9583,26.9167C 24.27,26.9167 25.3333,25.8534 25.3333,24.5417C 25.3333,23.23 24.27,22.1667 22.9583,22.1667 Z M 22.9583,49.0834C 21.6466,49.0834 20.5833,50.1467 20.5833,51.4584C 20.5833,52.77 21.6466,53.8334 22.9583,53.8334C 24.27,53.8334 25.3333,52.77 25.3333,51.4584C 25.3333,50.1467 24.27,49.0834 22.9583,49.0834 Z M 22.9583,42.3542C 21.6466,42.3542 20.5833,43.4175 20.5833,44.7292C 20.5833,46.0409 21.6466,47.1042 22.9583,47.1042C 24.27,47.1042 25.3333,46.0409 25.3333,44.7292C 25.3333,43.4175 24.27,42.3542 22.9583,42.3542 Z M 22.9583,35.625C 21.6466,35.625 20.5833,36.6884 20.5833,38C 20.5833,39.3117 21.6466,40.375 22.9583,40.375C 24.27,40.375 25.3333,39.3117 25.3333,38C 25.3333,36.6884 24.27,35.625 22.9583,35.625 Z M 22.9583,28.8959C 21.6466,28.8959 20.5833,29.9592 20.5833,31.2709C 20.5833,32.5826 21.6466,33.6459 22.9583,33.6459C 24.27,33.6459 25.3333,32.5826 25.3333,31.2709C 25.3333,29.9592 24.27,28.8959 22.9583,28.8959 Z M 53.0416,22.1667C 51.7299,22.1667 50.6666,23.23 50.6666,24.5417C 50.6666,25.8534 51.7299,26.9167 53.0416,26.9167C 54.3533,26.9167 55.4166,25.8534 55.4166,24.5417C 55.4166,23.23 54.3533,22.1667 53.0416,22.1667 Z M 53.0417,49.0833C 51.73,49.0833 50.6667,50.1467 50.6667,51.4583C 50.6667,52.77 51.73,53.8333 53.0417,53.8333C 54.3533,53.8333 55.4167,52.77 55.4167,51.4583C 55.4167,50.1467 54.3533,49.0833 53.0417,49.0833 Z M 53.0417,42.3542C 51.73,42.3542 50.6667,43.4175 50.6667,44.7292C 50.6667,46.0408 51.73,47.1042 53.0417,47.1042C 54.3533,47.1042 55.4167,46.0408 55.4167,44.7292C 55.4167,43.4175 54.3533,42.3542 53.0417,42.3542 Z M 53.0417,35.625C 51.73,35.625 50.6667,36.6883 50.6667,38C 50.6667,39.3117 51.73,40.375 53.0417,40.375C 54.3533,40.375 55.4167,39.3117 55.4167,38C 55.4167,36.6883 54.3533,35.625 53.0417,35.625 Z M 53.0417,28.8958C 51.73,28.8958 50.6667,29.9592 50.6667,31.2708C 50.6667,32.5825 51.73,33.6458 53.0417,33.6458C 54.3533,33.6458 55.4167,32.5825 55.4167,31.2708C 55.4167,29.9592 54.3533,28.8958 53.0417,28.8958 Z "/>
</svg>
