<?xml version="1.0" encoding="utf-8"?>
<!DOCTYPE svg PUBLIC "-//W3C//DTD SVG 1.1//EN" "http://www.w3.org/Graphics/SVG/1.1/DTD/svg11.dtd">
<svg xmlns="http://www.w3.org/2000/svg" xmlns:xlink="http://www.w3.org/1999/xlink" version="1.1" baseProfile="full" width="76" height="76" viewBox="0 0 76.00 76.00" enable-background="new 0 0 76.00 76.00" xml:space="preserve">
	<path fill="#000000" fill-opacity="1" stroke-width="0.2" stroke-linejoin="round" d="M 29,19L 47,19C 49.1833,19 51,20.8139 51,23L 51,53C 51,55.1861 49.1832,57 47,57L 29,57C 26.8167,57 25,55.1861 25,53L 25,23C 25,20.8139 26.8167,19 29,19 Z M 28,24L 28,49L 33,49L 33,54.5L 34,54.5L 34,49L 41,49L 41,54.5L 42,54.5L 42,49L 48,49L 48,24L 28,24 Z M 35,21L 35,22L 41,22L 41,21L 35,21 Z M 36.0247,50.8581L 36.0247,51.8397L 37.2456,51.8397L 37.2456,50.702L 36.0247,50.8581 Z M 37.2456,53.1177L 37.2456,51.9799L 36.0247,51.9799L 36.0247,52.9616L 37.2456,53.1177 Z M 39.041,50.4725L 37.3892,50.6836L 37.3892,51.8397L 39.041,51.8397L 39.041,50.4725 Z M 39.041,53.3472L 39.041,51.9799L 37.3892,51.9799L 37.3892,53.136L 39.041,53.3472 Z M 31.2486,52.142L 31.2486,51.5953L 29.5162,51.5953L 30.2162,50.912L 29.4812,50.912L 28.5013,51.8687L 29.4812,52.8254L 30.2162,52.8254L 29.5162,52.142L 31.2486,52.142 Z M 43.5208,52.9026C 43.4124,53.0084 43.4124,53.2139 43.5208,53.3198C 43.6292,53.4256 43.8397,53.4256 43.9482,53.3198L 44.684,52.6207C 44.8414,52.7042 45.0217,52.7177 45.2134,52.7177C 45.8268,52.7177 46.324,52.2662 46.324,51.6673C 46.324,51.0685 45.8268,50.5831 45.2134,50.5831C 44.6,50.5831 44.1375,51.0685 44.1375,51.6673C 44.1375,51.8646 44.1567,52.0495 44.251,52.2089L 43.5208,52.9026 Z M 45.2134,50.9897C 45.5967,50.9897 45.9075,51.2931 45.9075,51.6673C 45.9075,52.0416 45.5967,52.345 45.2134,52.345C 44.83,52.345 44.5193,52.0416 44.5193,51.6673C 44.5193,51.2931 44.83,50.9897 45.2134,50.9897 Z "/>
</svg>
