<?xml version="1.0" encoding="utf-8"?>
<!DOCTYPE svg PUBLIC "-//W3C//DTD SVG 1.1//EN" "http://www.w3.org/Graphics/SVG/1.1/DTD/svg11.dtd">
<svg xmlns="http://www.w3.org/2000/svg" xmlns:xlink="http://www.w3.org/1999/xlink" version="1.1" baseProfile="full" width="76" height="76" viewBox="0 0 76.00 76.00" enable-background="new 0 0 76.00 76.00" xml:space="preserve">
	<path fill="#000000" fill-opacity="1" stroke-width="0.2" stroke-linejoin="round" d="M 19,19L 57,19L 57,27L 19,27L 19,19 Z M 19,29L 57,29L 57,33L 19,33L 19,29 Z M 19,35L 57,35L 57,39L 19,39L 19,35 Z M 19,41L 57,41L 57,45L 19,45L 19,41 Z M 19,47L 57,47L 57,51L 19,51L 19,47 Z M 19,53L 57,53L 57,57L 19,57L 19,53 Z "/>
</svg>
