<?xml version="1.0" encoding="utf-8"?>
<!DOCTYPE svg PUBLIC "-//W3C//DTD SVG 1.1//EN" "http://www.w3.org/Graphics/SVG/1.1/DTD/svg11.dtd">
<svg xmlns="http://www.w3.org/2000/svg" xmlns:xlink="http://www.w3.org/1999/xlink" version="1.1" baseProfile="full" width="76" height="76" viewBox="0 0 76.00 76.00" enable-background="new 0 0 76.00 76.00" xml:space="preserve">
	<path fill="#000000" fill-opacity="1" stroke-width="0.2" stroke-linejoin="round" d="M 56.4857,57L 51.592,57L 48.4379,51.1379C 48.3201,50.921 48.1969,50.5192 48.0683,49.9326L 48.0161,49.9326L 47.5942,51.1902L 44.4281,57L 39.5143,57L 45.3482,48L 40.0286,39L 45.0388,39L 47.6504,44.396C 47.854,44.8246 48.0362,45.3308 48.1969,45.9147L 48.2491,45.9147L 48.8156,44.3478L 51.6924,39L 56.2286,39L 50.8406,47.9237L 56.4857,57 Z M 43.8545,22.0001L 34.9326,40L 34.9326,50L 29.2678,50L 29.2678,40L 20.8178,22.0001L 27.6215,22.0001L 31.8523,32.4438L 32.4542,34.7313L 32.5309,34.7313C 32.6922,33.7938 32.8869,33.0584 33.1151,32.525L 37.5466,22.0001L 43.8545,22.0001 Z "/>
</svg>
