<?xml version="1.0" encoding="utf-8"?>
<!DOCTYPE svg PUBLIC "-//W3C//DTD SVG 1.1//EN" "http://www.w3.org/Graphics/SVG/1.1/DTD/svg11.dtd">
<svg xmlns="http://www.w3.org/2000/svg" xmlns:xlink="http://www.w3.org/1999/xlink" version="1.1" baseProfile="full" width="76" height="76" viewBox="0 0 76.00 76.00" enable-background="new 0 0 76.00 76.00" xml:space="preserve">
	<path fill="#000000" fill-opacity="1" stroke-width="0.2" stroke-linejoin="round" d="M 20,17L 44,17L 56,29L 56,45.1515C 57.8558,47.0453 59,49.639 59,52.5C 59,58.299 54.299,63 48.5,63C 45.1554,63 42.1761,61.4363 40.2532,59L 20,59L 20,17 Z M 24,21L 24,55L 38.2994,55C 38.1038,54.1988 38,53.3615 38,52.5C 38,46.701 42.701,42 48.5,42C 49.7272,42 50.9053,42.2105 52,42.5975L 52,34L 39,34L 39,21L 24,21 Z M 43,21L 43,30L 52,30L 43,21 Z M 45.4833,57.71C 46.2166,58.0333 47.1225,58.195 48.2008,58.195C 49.5291,58.195 50.5812,57.8371 51.3571,57.1212C 52.1329,56.4054 52.5208,55.4825 52.5208,54.3525C 52.5208,53.3308 52.1954,52.5179 51.5446,51.9137C 50.8937,51.3096 49.9933,51.0075 48.8433,51.0075L 47.8033,51.055L 47.9583,48.8125L 52.0058,48.8125L 52.0058,46.7975L 46.0758,46.7975L 45.6558,53.0475L 47.6558,52.915C 49.2225,52.915 50.0058,53.4692 50.0058,54.5775C 50.0058,55.1092 49.8225,55.53 49.4558,55.84C 49.0891,56.15 48.58,56.305 47.9283,56.305C 47.0633,56.305 46.2483,56.0708 45.4833,55.6025L 45.4833,57.71 Z "/>
</svg>
