<?xml version="1.0" encoding="utf-8"?>
<!DOCTYPE svg PUBLIC "-//W3C//DTD SVG 1.1//EN" "http://www.w3.org/Graphics/SVG/1.1/DTD/svg11.dtd">
<svg xmlns="http://www.w3.org/2000/svg" xmlns:xlink="http://www.w3.org/1999/xlink" version="1.1" baseProfile="full" width="76" height="76" viewBox="0 0 76.00 76.00" enable-background="new 0 0 76.00 76.00" xml:space="preserve">
	<path fill="#000000" fill-opacity="1" stroke-width="0.2" stroke-linejoin="round" d="M 22,19L 54,19L 54,22L 61,22L 61,52L 54,52L 54,57L 22,57L 22,54L 17,54L 17,24L 22,24L 22,19 Z M 25,22L 25,48L 51,48L 51,22L 25,22 Z M 33,29C 33,27.2813 34.3968,26 36,26L 40,26C 41.6031,26 43,27.2813 43,29L 46,29C 47.6875,29 49,30.1908 49,32L 49,42C 49,43.8092 47.6875,45 46,45L 30,45C 28.3125,45 27,43.8092 27,42L 27,32C 27,30.1908 28.3125,29 30,29L 33,29 Z M 30.5,31C 29.6716,31 29,31.6716 29,32.5C 29,33.3285 29.6715,34 30.5,34C 31.3284,34 32,33.3285 32,32.5C 32,31.6716 31.3284,31 30.5,31 Z M 38,33C 35.7909,33 34,34.7909 34,37C 34,39.2091 35.7909,41 38,41C 40.2091,41 42,39.2091 42,37C 42,34.7909 40.2091,33 38,33 Z M 38,34C 39.6568,34 41,35.3432 41,37C 41,38.6569 39.6568,40 38,40C 36.3431,40 35,38.6569 35,37C 35,35.3432 36.3431,34 38,34 Z M 20,27L 20,45L 22,45L 22,27L 20,27 Z M 54,43L 58,43L 58,25L 54,25L 54,43 Z "/>
</svg>
