<?xml version="1.0" encoding="utf-8"?>
<!DOCTYPE svg PUBLIC "-//W3C//DTD SVG 1.1//EN" "http://www.w3.org/Graphics/SVG/1.1/DTD/svg11.dtd">
<svg xmlns="http://www.w3.org/2000/svg" xmlns:xlink="http://www.w3.org/1999/xlink" version="1.1" baseProfile="full" width="76" height="76" viewBox="0 0 76.00 76.00" enable-background="new 0 0 76.00 76.00" xml:space="preserve">
	<path fill="#000000" fill-opacity="1" stroke-width="0.2" stroke-linejoin="round" d="M 20,17L 44,17L 56,29L 56,45.1515C 57.8558,47.0453 59,49.639 59,52.5C 59,58.299 54.299,63 48.5,63C 45.1554,63 42.1761,61.4363 40.2532,59L 20,59L 20,17 Z M 24,21L 24,55L 38.2994,55C 38.1038,54.1988 38,53.3615 38,52.5C 38,46.701 42.701,42 48.5,42C 49.7272,42 50.9053,42.2106 52,42.5975L 52,34L 39,34L 39,21L 24,21 Z M 43,21L 43,30L 52,30L 43,21 Z M 45.2883,57.6325C 46.0116,58.0075 46.9516,58.195 48.1083,58.195C 49.4566,58.195 50.5137,57.8904 51.2796,57.2812C 52.0454,56.6721 52.4283,55.8442 52.4283,54.7975C 52.4283,54.1042 52.1991,53.5192 51.7408,53.0425C 51.2825,52.5658 50.6575,52.2783 49.8658,52.18L 49.8658,52.14C 51.3508,51.77 52.0933,50.8533 52.0933,49.39C 52.0933,48.5667 51.7741,47.8975 51.1358,47.3825C 50.4975,46.8675 49.605,46.61 48.4583,46.61C 47.4116,46.61 46.495,46.8075 45.7083,47.2025L 45.7083,49.2175C 46.4166,48.7342 47.1458,48.4925 47.8958,48.4925C 49.0158,48.4925 49.5758,48.9483 49.5758,49.86C 49.5758,50.8283 48.8466,51.3125 47.3883,51.3125L 46.4283,51.3125L 46.4283,53.2025L 47.4683,53.2025C 48.2283,53.2025 48.8258,53.3379 49.2608,53.6087C 49.6958,53.8796 49.9133,54.265 49.9133,54.765C 49.9133,55.25 49.7375,55.6279 49.3858,55.8987C 49.0341,56.1696 48.5433,56.305 47.9133,56.305C 46.9133,56.305 46.0383,56.0317 45.2883,55.485L 45.2883,57.6325 Z "/>
</svg>
