<?xml version="1.0" encoding="utf-8"?>
<!DOCTYPE svg PUBLIC "-//W3C//DTD SVG 1.1//EN" "http://www.w3.org/Graphics/SVG/1.1/DTD/svg11.dtd">
<svg xmlns="http://www.w3.org/2000/svg" xmlns:xlink="http://www.w3.org/1999/xlink" version="1.1" baseProfile="full" width="76" height="76" viewBox="0 0 76.00 76.00" enable-background="new 0 0 76.00 76.00" xml:space="preserve">
	<path fill="#000000" fill-opacity="1" stroke-width="0.2" stroke-linejoin="round" d="M 54,41C 54,49.8366 46.8366,57 38,57C 29.1635,57 22,49.8366 22,41C 22,34.6738 25.6715,29.2051 31,26.6085L 31,25C 31,23.3432 32.3431,22 34,22L 34,21C 34,18.7909 35.7909,17 38,17C 40.2091,17 42,18.7909 42,21L 42,22C 43.6568,22 45,23.3432 45,25L 45,26.6084C 50.3284,29.205 54,34.6737 54,41 Z M 40,21C 40,19.8955 39.1045,19 38,19C 36.8954,19 36,19.8955 36,21L 36,22L 40,22L 40,21 Z M 38,28C 34.3133,28 30.985,29.5347 28.6191,32L 47.3808,32C 45.015,29.5347 41.6867,28 38,28 Z M 25,41C 25,42.7718 25.3544,44.4608 25.9963,46L 50.0036,46C 50.6455,44.4608 51,42.7718 51,41C 51,39.2282 50.6455,37.5392 50.0036,36L 25.9963,36C 25.3544,37.5392 25,39.2282 25,41 Z M 38,54C 41.6867,54 45.015,52.4654 47.3808,50L 28.6191,50C 30.985,52.4654 34.3133,54 38,54 Z M 30,38C 31.6568,38 33,39.3432 33,41C 33,42.6569 31.6568,44 30,44C 28.3431,44 27,42.6569 27,41C 27,39.3432 28.3431,38 30,38 Z M 38,38C 39.6568,38 41,39.3432 41,41C 41,42.6569 39.6568,44 38,44C 36.3431,44 35,42.6569 35,41C 35,39.3432 36.3431,38 38,38 Z M 46,38C 47.6568,38 49,39.3431 49,41C 49,42.6569 47.6568,44 46,44C 44.3431,44 43,42.6569 43,41C 43,39.3431 44.3431,38 46,38 Z "/>
</svg>
