<?xml version="1.0" encoding="utf-8"?>
<!DOCTYPE svg PUBLIC "-//W3C//DTD SVG 1.1//EN" "http://www.w3.org/Graphics/SVG/1.1/DTD/svg11.dtd">
<svg xmlns="http://www.w3.org/2000/svg" xmlns:xlink="http://www.w3.org/1999/xlink" version="1.1" baseProfile="full" width="76" height="76" viewBox="0 0 76.00 76.00" enable-background="new 0 0 76.00 76.00" xml:space="preserve">
	<path fill="#000000" fill-opacity="1" stroke-width="0.2" stroke-linejoin="round" d="M 28,28L 34,28L 34,34L 28,34L 28,28 Z M 43,28L 49,28L 49,34L 43,34L 43,28 Z M 20,18L 56,18L 56,37L 58,37L 58,58L 18,58L 18,37L 20,37L 20,18 Z M 22,20.0001L 22,37L 54,37L 53.9999,20.0001L 22,20.0001 Z M 47.0131,51.0395L 41.9605,51.0395L 41.9605,52.7237L 41.1184,52.7237C 38.9254,52.7237 36.3662,49.3922 35.4004,48.5132L 48.6974,48.5132L 48.6974,51.0395L 53.75,47.6711L 48.6974,44.3026L 48.6974,46.8289L 32.8741,46.8289C 33.8399,45.9499 35.557,42.6184 37.75,42.6184L 38.7359,42.6184C 39.0827,43.5996 40.0184,44.3026 41.1184,44.3026C 42.5137,44.3026 43.6447,43.1716 43.6447,41.7763C 43.6447,40.3811 42.5137,39.25 41.1184,39.25C 40.0184,39.25 39.0827,39.953 38.7359,40.9342L 37.75,40.9342C 34.0086,40.9342 32.0957,45.7547 30.5343,46.8289L 28.3807,46.8289C 28.0068,45.3761 26.688,44.3026 25.1184,44.3026C 23.2581,44.3026 21.75,45.8107 21.75,47.6711C 21.75,49.5314 23.2581,51.0395 25.1184,51.0395C 26.688,51.0395 28.0068,49.966 28.3807,48.5132L 33.0606,48.5132C 34.6221,49.5874 37.377,54.4079 41.1184,54.4079L 41.9605,54.4079L 41.9605,56.0921L 47.0131,56.0921L 47.0131,51.0395 Z "/>
</svg>
