<?xml version="1.0" encoding="utf-8"?>
<!DOCTYPE svg PUBLIC "-//W3C//DTD SVG 1.1//EN" "http://www.w3.org/Graphics/SVG/1.1/DTD/svg11.dtd">
<svg xmlns="http://www.w3.org/2000/svg" xmlns:xlink="http://www.w3.org/1999/xlink" version="1.1" baseProfile="full" width="76" height="76" viewBox="0 0 76.00 76.00" enable-background="new 0 0 76.00 76.00" xml:space="preserve">
	<path fill="#000000" fill-opacity="1" stroke-width="0.2" stroke-linejoin="round" d="M 22,17L 54,17C 56.6233,17 59,19.3767 59,22L 59,54C 59,56.6234 56.6233,59 54,59L 22,59C 19.3766,59 17,56.6234 17,54L 17,22C 17,19.3767 19.3766,17 22,17 Z M 30.6408,49.0833L 33.5319,49.0833L 33.5319,32.0381L 36.7105,49.0833L 39.5072,49.0833L 42.7309,32.0381L 42.7309,49.0833L 45.6221,49.0833L 45.6221,27.8033L 40.924,27.8033L 38.1314,42.6134L 35.3758,27.8033L 30.6408,27.8033L 30.6408,49.0833 Z M 50.6667,50.6667L 50.6667,52.25L 52.25,52.25C 52.25,52.7778 52.25,53.3056 51.7222,53.5694C 51.1944,53.8333 50.1389,53.8333 49.0833,53.8333C 49.0833,54.3611 49.0833,54.8889 49.6111,55.1528C 50.1389,55.4167 51.1944,55.4167 52.25,55.4167C 52.7778,55.4167 53.3056,55.4167 53.5694,54.8889C 53.8333,54.3611 53.8333,53.3056 53.8333,52.25L 53.8333,50.6667C 53.8333,49.6111 53.8333,48.5556 53.5694,48.0278C 53.3056,47.5 52.7778,47.5 52.25,47.5C 51.1944,47.5 50.1389,47.5 49.6111,47.7639C 49.0833,48.0278 49.0833,48.5556 49.0833,49.0833C 50.1389,49.0833 51.1944,49.0833 51.7222,49.3472C 52.25,49.6111 52.25,50.1389 52.25,50.6667L 50.6667,50.6667 Z "/>
</svg>
