<?xml version="1.0" encoding="utf-8"?>
<!DOCTYPE svg PUBLIC "-//W3C//DTD SVG 1.1//EN" "http://www.w3.org/Graphics/SVG/1.1/DTD/svg11.dtd">
<svg xmlns="http://www.w3.org/2000/svg" xmlns:xlink="http://www.w3.org/1999/xlink" version="1.1" baseProfile="full" width="76" height="76" viewBox="0 0 76.00 76.00" enable-background="new 0 0 76.00 76.00" xml:space="preserve">
	<path fill="#000000" fill-opacity="1" stroke-width="0.2" stroke-linejoin="round" d="M 22,17L 54,17C 56.6233,17 59,19.3767 59,22L 59,54C 59,56.6234 56.6233,59 54,59L 22,59C 19.3766,59 17,56.6234 17,54L 17,22C 17,19.3767 19.3766,17 22,17 Z M 31.8235,49.0833L 34.7146,49.0833L 34.7146,39.9211L 41.2854,39.9211L 41.2854,49.0833L 44.1765,49.0833L 44.1765,27.8033L 41.2854,27.8033L 41.2854,36.3745L 34.7146,36.3745L 34.7146,27.8033L 31.8235,27.8033L 31.8235,49.0833 Z M 52.25,55.4167L 53.8334,55.4167L 53.8333,52.25L 54.625,52.25L 54.625,50.6667L 53.8333,50.6667L 53.8334,47.5L 52.25,47.5L 52.25,50.6667L 50.6667,50.6667L 50.6667,47.5L 49.0833,47.5L 49.0833,52.25L 52.25,52.25L 52.25,55.4167 Z "/>
</svg>
