<?xml version="1.0" encoding="utf-8"?>
<!DOCTYPE svg PUBLIC "-//W3C//DTD SVG 1.1//EN" "http://www.w3.org/Graphics/SVG/1.1/DTD/svg11.dtd">
<svg xmlns="http://www.w3.org/2000/svg" xmlns:xlink="http://www.w3.org/1999/xlink" version="1.1" baseProfile="full" width="76" height="76" viewBox="0 0 76.00 76.00" enable-background="new 0 0 76.00 76.00" xml:space="preserve">
	<path fill="#000000" fill-opacity="1" stroke-width="0.2" stroke-linejoin="round" d="M 26.52,30.07L 34.04,30.07L 34.04,31.1425L 28.865,41.91L 27.0175,40.9925L 31.345,31.99L 26.52,31.99L 26.52,30.07 Z M 40,30L 42.04,30L 42.04,37.27L 43,37.27L 43,39.19L 42.04,39.19L 42.04,41.84L 39.96,41.84L 39.96,39.19L 34.84,39.19L 34.84,37.2025L 40,30 Z M 39.96,37.27L 39.96,33.355L 37.28,37.27L 39.96,37.27 Z M 20.5,25L 55.5,25C 57,31 57,33 57,38C 57,43 57,45 55.5,51L 20.5,51C 19,45 19,43 19,38C 19,33 19,31 20.5,25 Z M 24,48L 29,48L 29,46L 24,46L 24,48 Z M 32,48L 37,48L 37,46L 32,46L 32,48 Z M 24,44L 45,44L 45,28L 24,28L 24,44 Z M 53.5,35L 50.5,28L 47.5,35L 53.5,35 Z M 40,48L 45,48L 45,46L 40,46L 40,48 Z M 53.5,38L 47.5,38L 50.5,45L 53.5,38 Z "/>
</svg>
