<?xml version="1.0" encoding="utf-8"?>
<!DOCTYPE svg PUBLIC "-//W3C//DTD SVG 1.1//EN" "http://www.w3.org/Graphics/SVG/1.1/DTD/svg11.dtd">
<svg xmlns="http://www.w3.org/2000/svg" xmlns:xlink="http://www.w3.org/1999/xlink" version="1.1" baseProfile="full" width="76" height="76" viewBox="0 0 76.00 76.00" enable-background="new 0 0 76.00 76.00" xml:space="preserve">
	<path fill="#000000" fill-opacity="1" fill-rule="evenodd" stroke-width="2" stroke-linecap="round" stroke-linejoin="round" d="M 27.7083,22.75L 38.7917,25.9167L 48.2917,19.5833L 62,23L 62,52L 48.2917,48.5L 38.7916,54.8333L 27.7083,51.6667L 16,56.5L 16,27.5L 27.7083,22.75 Z M 27.7083,46.9167L 39.0416,49.8334L 48.5416,43.5L 58,46.25L 58,27L 48.2916,24.3334L 38.7916,30.9167L 27.7083,27.7501L 20,30.75L 20,50L 27.7083,46.9167 Z M 55.75,41L 53.0312,41L 51.0736,37.0737L 51.0446,37.0737C 51.0119,37.2269 50.9337,37.4598 49.0513,41L 46.3214,41L 49.5625,36L 46.6071,31L 49.3906,31L 51.1451,34.8415L 51.1741,34.8415C 51.2306,34.6466 51.3355,34.3564 53.087,31L 55.6071,31L 52.6138,35.9576L 55.75,41 Z M 23.5,40C 24.3284,40 25,40.6716 25,41.5C 25,42.3284 24.3284,43 23.5,43C 22.6716,43 22,42.3284 22,41.5C 22,40.6716 22.6716,40 23.5,40 Z M 25.5,35C 26.3284,35 27,35.6716 27,36.5C 27,37.3284 26.3284,38 25.5,38C 24.6716,38 24,37.3284 24,36.5C 24,35.6716 24.6716,35 25.5,35 Z M 30.5,34C 31.3284,34 32,34.6716 32,35.5C 32,36.3284 31.3284,37 30.5,37C 29.6716,37 29,36.3284 29,35.5C 29,34.6716 29.6716,34 30.5,34 Z M 33.5,38C 34.3284,38 35,38.6716 35,39.5C 35,40.3284 34.3284,41 33.5,41C 32.6716,41 32,40.3284 32,39.5C 32,38.6716 32.6716,38 33.5,38 Z M 37.5,41C 38.3284,41 39,41.6716 39,42.5C 39,43.3284 38.3284,44 37.5,44C 36.6716,44 36,43.3284 36,42.5C 36,41.6716 36.6716,41 37.5,41 Z M 44.5,35C 45.3284,35 46,35.6716 46,36.5C 46,37.3284 45.3284,38 44.5,38C 43.6716,38 43,37.3284 43,36.5C 43,35.6716 43.6716,35 44.5,35 Z M 40.5,37C 41.3284,37 42,37.6716 42,38.5C 42,39.3284 41.3284,40 40.5,40C 39.6716,40 39,39.3284 39,38.5C 39,37.6716 39.6716,37 40.5,37 Z "/>
</svg>
