<?xml version="1.0" encoding="utf-8"?>
<!DOCTYPE svg PUBLIC "-//W3C//DTD SVG 1.1//EN" "http://www.w3.org/Graphics/SVG/1.1/DTD/svg11.dtd">
<svg xmlns="http://www.w3.org/2000/svg" xmlns:xlink="http://www.w3.org/1999/xlink" version="1.1" baseProfile="full" width="76" height="76" viewBox="0 0 76.00 76.00" enable-background="new 0 0 76.00 76.00" xml:space="preserve">
	<path fill="#000000" fill-opacity="1" stroke-width="0.2" stroke-linejoin="round" d="M 53.0417,31.6667C 55.2278,31.6667 57,33.4389 57,35.625C 57,37.8111 55.2278,39.5833 53.0417,39.5833C 50.8555,39.5833 49.0833,37.8111 49.0833,35.625C 49.0833,33.4389 50.8555,31.6667 53.0417,31.6667 Z M 21.375,30.0833C 24.4356,30.0833 26.9167,32.5644 26.9167,35.625L 26.8865,36.2063L 38.6149,42.2885C 39.5442,41.5844 40.7025,41.1667 41.9583,41.1667L 45.9167,35.625C 45.9167,31.69 49.1066,28.5 53.0417,28.5C 56.9767,28.5 60.1667,31.69 60.1667,35.625C 60.1667,39.56 56.9767,42.75 53.0417,42.75L 47.5,46.7083C 47.5,49.7689 45.0189,52.25 41.9583,52.25C 38.8977,52.25 36.4167,49.7689 36.4167,46.7083C 36.4167,46.639 36.4179,46.5699 36.4205,46.5011L 24.4014,40.2681C 23.5313,40.8364 22.4917,41.1667 21.375,41.1667C 18.3144,41.1667 15.8333,38.6856 15.8333,35.625C 15.8333,32.5644 18.3144,30.0833 21.375,30.0833 Z M 43.6027,44.8752C 44.7714,45.4707 45.2361,46.9009 44.6406,48.0696C 44.0452,49.2383 42.615,49.703 41.4463,49.1075L 38.0512,47.3468C 38.3565,49.2294 39.9896,50.6667 41.9583,50.6667C 44.1445,50.6667 45.9167,48.8945 45.9167,46.7083C 45.9167,44.5222 44.1444,42.75 41.9583,42.75C 41.3466,42.75 40.7673,42.8888 40.2501,43.1366L 43.6027,44.8752 Z M 21.375,31.6667C 19.1889,31.6667 17.4167,33.4389 17.4167,35.625C 17.4167,37.8111 19.1889,39.5833 21.375,39.5833C 21.827,39.5833 22.2613,39.5076 22.6659,39.3681L 20.0379,38.0052C 18.8692,37.4097 18.4045,35.9796 19,34.8109C 19.5955,33.6422 21.0256,33.1775 22.1944,33.773L 25.3269,35.3975C 25.209,33.3172 23.4847,31.6667 21.375,31.6667 Z M 53.0417,30.0833C 49.9811,30.0833 47.5,32.5644 47.5,35.625C 47.5,38.6856 49.9811,41.1667 53.0417,41.1667C 56.1022,41.1667 58.5833,38.6856 58.5833,35.625C 58.5833,32.5644 56.1022,30.0833 53.0417,30.0833 Z "/>
</svg>
