<?xml version="1.0" encoding="utf-8"?>
<!DOCTYPE svg PUBLIC "-//W3C//DTD SVG 1.1//EN" "http://www.w3.org/Graphics/SVG/1.1/DTD/svg11.dtd">
<svg xmlns="http://www.w3.org/2000/svg" xmlns:xlink="http://www.w3.org/1999/xlink" version="1.1" baseProfile="full" width="76.0106" height="76.0106" viewBox="0 0 76.01 76.01" enable-background="new 0 0 76.01 76.01" xml:space="preserve">
	<path fill="#000000" fill-opacity="1" stroke-width="0.2" stroke-linejoin="round" d="M 51.0065,41.0057C 54.3207,41.0057 57.0074,43.3939 57.0074,46.3398C 57.0074,46.8003 56.9418,47.2471 56.8183,47.6733L 51.0065,57.008L 45.1948,47.6733C 45.0714,47.2471 45.0057,46.8003 45.0057,46.3398C 45.0057,43.3939 47.6924,41.0057 51.0065,41.0057 Z M 51.0065,44.6729C 50.0859,44.6729 49.3396,45.4192 49.3396,46.3398C 49.3396,47.2604 50.0859,48.0067 51.0065,48.0067C 51.9272,48.0067 52.6734,47.2604 52.6734,46.3398C 52.6734,45.4192 51.9272,44.6729 51.0065,44.6729 Z M 24.0033,56.0078L 24.0033,38.0053L 22.0031,40.0056L 19.0027,35.0049L 38.0053,20.0028L 45.0063,25.5299L 45.0063,21.753L 49.0068,21.0029L 49.0068,28.6882L 57.0079,35.0049L 54.2034,39.6791L 53.4199,39.4179L 52.0073,38.0053L 52.0073,39.1438L 51.0065,39.0887C 50.3161,39.0887 49.646,39.1664 49.0068,39.3126L 49.0068,36.005L 38.0053,26.9205L 27.0038,36.005L 27.0038,53.0074L 33.0046,53.0074L 33.0046,42.006L 43.006,42.006L 43.006,46.283L 43.006,53.0074L 46.3883,53.0074L 48.2564,56.0078L 24.0033,56.0078 Z "/>
</svg>
