<?xml version="1.0" encoding="utf-8"?>
<!DOCTYPE svg PUBLIC "-//W3C//DTD SVG 1.1//EN" "http://www.w3.org/Graphics/SVG/1.1/DTD/svg11.dtd">
<svg xmlns="http://www.w3.org/2000/svg" xmlns:xlink="http://www.w3.org/1999/xlink" version="1.1" baseProfile="full" width="76" height="76" viewBox="0 0 76.00 76.00" enable-background="new 0 0 76.00 76.00" xml:space="preserve">
	<path fill="#000000" fill-opacity="1" stroke-width="0.2" stroke-linejoin="round" d="M 38,17.4167C 33.6278,17.4167 30.0833,20.9611 30.0833,25.3333C 30.0833,29.7056 33.6278,33.25 38,33.25C 42.3723,33.25 45.9167,29.7056 45.9167,25.3333C 45.9167,20.9611 42.3722,17.4167 38,17.4167 Z M 30.0833,44.3333L 29.4774,58.036C 32.2927,59.4011 35.4528,60.1667 38.7917,60.1667C 41.5308,60.1667 44.1496,59.6515 46.5564,58.7126L 45.9167,44.3333C 46.9722,44.8611 49.0834,49.0833 49.0834,49.0833C 49.0834,49.0833 50.1389,50.6667 50.6667,57L 55.4166,55.4167L 53.8333,47.5C 53.8333,47.5 50.6667,36.4167 44.3332,36.4168L 31.6666,36.4168C 25.3333,36.4167 22.1667,47.5 22.1667,47.5L 20.5833,55.4166L 25.3333,56.9999C 25.8611,50.6666 26.9167,49.0832 26.9167,49.0832C 26.9167,49.0832 29.0278,44.8611 30.0833,44.3333 Z "/>
</svg>
