<?xml version="1.0" encoding="utf-8"?>
<!DOCTYPE svg PUBLIC "-//W3C//DTD SVG 1.1//EN" "http://www.w3.org/Graphics/SVG/1.1/DTD/svg11.dtd">
<svg xmlns="http://www.w3.org/2000/svg" xmlns:xlink="http://www.w3.org/1999/xlink" version="1.1" baseProfile="full" width="76" height="76" viewBox="0 0 76.00 76.00" enable-background="new 0 0 76.00 76.00" xml:space="preserve">
	<path fill="#000000" fill-opacity="1" stroke-width="0.2" stroke-linejoin="round" d="M 57.0001,24L 57.0001,52L 42.0001,52L 42.0001,47L 47.0001,47L 47.0001,44L 51.0001,44L 51,36.6996L 55.1996,32.5L 50.4999,27.8002L 46.3002,32L 42.0001,32L 42.0001,24L 57.0001,24 Z M 50,43L 47,43L 47,40L 42,40L 42,33L 46.3002,33L 50,36.6998L 50,43 Z M 41.9998,41.0001L 45.9998,41.0001L 45.9998,46.0001L 41.9998,46.0001L 41.9998,41.0001 Z M 53.7499,32.5001L 50.4998,35.7501L 47.2498,32.5001L 50.4999,29.2501L 53.7499,32.5001 Z M 19,23.5L 41,20L 41,56L 19,52.5L 19,23.5 Z M 34.9946,32.2269L 32.5722,32.3563L 30.2143,41.9351L 30.1707,41.9334C 29.6081,38.7786 28.6452,35.708 27.826,32.6099L 25.3302,32.7433L 28.8322,44.2782L 31.4572,44.4399L 34.9946,32.2269 Z "/>
</svg>
