<?xml version="1.0" encoding="utf-8"?>
<!DOCTYPE svg PUBLIC "-//W3C//DTD SVG 1.1//EN" "http://www.w3.org/Graphics/SVG/1.1/DTD/svg11.dtd">
<svg xmlns="http://www.w3.org/2000/svg" xmlns:xlink="http://www.w3.org/1999/xlink" version="1.1" baseProfile="full" width="76" height="76" viewBox="0 0 76.00 76.00" enable-background="new 0 0 76.00 76.00" xml:space="preserve">
	<path fill="#000000" fill-opacity="1" stroke-width="0.2" stroke-linejoin="round" d="M 21.5,23L 54.5,23C 56.2489,23 58,24.7511 58,26.5L 58,49.5C 58,51.2489 56.2489,53 54.5,53L 21.5,53C 19.7511,53 18,51.2489 18,49.5L 18,26.5C 18,24.7511 19.7511,23 21.5,23 Z M 22,47C 22,48.3117 22.6883,49 24,49L 52,49C 53.3117,49 54,48.3117 54,47L 54,29L 40.6563,42.6567C 39.4197,43.8933 37.4146,43.8933 36.178,42.6567L 22,29L 22,47 Z M 25,27L 36.7378,38.7381C 37.6653,39.6656 39.169,39.6656 40.0965,38.7381L 52,27L 25,27 Z "/>
</svg>
