<?xml version="1.0" encoding="utf-8"?>
<!DOCTYPE svg PUBLIC "-//W3C//DTD SVG 1.1//EN" "http://www.w3.org/Graphics/SVG/1.1/DTD/svg11.dtd">
<svg xmlns="http://www.w3.org/2000/svg" xmlns:xlink="http://www.w3.org/1999/xlink" version="1.1" baseProfile="full" width="76" height="76" viewBox="0 0 76.00 76.00" enable-background="new 0 0 76.00 76.00" xml:space="preserve">
	<path fill="#000000" fill-opacity="1" stroke-width="0.2" stroke-linejoin="round" d="M 43,48L 46,48L 46,57L 19,57L 19,34L 32,34L 32,40L 22,40L 22,54L 43,54L 43,48 Z M 21,19L 57,19L 57,50L 49,50L 49,46L 53,46L 53,27L 25,27L 25,32L 21,32L 21,19 Z M 37.75,30L 50,30L 50,42.25L 46,46.25L 46,37.25L 38,45.25L 34.75,42L 42.75,34L 33.75,34L 37.75,30 Z "/>
</svg>
