<?xml version="1.0" encoding="utf-8"?>
<!DOCTYPE svg PUBLIC "-//W3C//DTD SVG 1.1//EN" "http://www.w3.org/Graphics/SVG/1.1/DTD/svg11.dtd">
<svg xmlns="http://www.w3.org/2000/svg" xmlns:xlink="http://www.w3.org/1999/xlink" version="1.1" baseProfile="full" width="76" height="76" viewBox="0 0 76.00 76.00" enable-background="new 0 0 76.00 76.00" xml:space="preserve">
	<path fill="#000000" fill-opacity="1" stroke-width="0.2" stroke-linejoin="round" d="M 19,47.5L 22.1667,47.5L 22.1667,52.25L 53.8333,52.25L 53.8333,47.5L 57,47.5L 57,55.4167L 19,55.4167L 19,47.5 Z M 31.6271,42.7315L 27.2307,42.7315L 27.2307,28.5818L 31.6271,28.5818L 31.6271,42.7315 Z M 29.5912,22.0796C 30.3113,22.0935 30.8747,22.3044 31.2815,22.7124C 31.6883,23.1204 31.902,23.6423 31.9226,24.278C 31.916,24.901 31.7035,25.4191 31.2851,25.8325C 30.8668,26.2458 30.2828,26.4603 29.5329,26.476C 28.825,26.4603 28.2665,26.2458 27.8573,25.8325C 27.448,25.4191 27.2392,24.901 27.2307,24.278C 27.2398,23.6423 27.4547,23.1204 27.8755,22.7124C 28.2962,22.3044 28.8681,22.0935 29.5912,22.0796 Z M 35.2107,42.7315L 35.2107,33.0962L 35.0925,28.5818L 38.9126,28.5818L 39.1151,30.5405L 39.2019,30.5405C 39.4916,30.0471 40.007,29.5573 40.7479,29.071C 41.4889,28.5847 42.4689,28.3231 43.688,28.2863C 45.1736,28.2794 46.3845,28.771 47.3206,29.761C 48.2567,30.7509 48.7396,32.2801 48.7693,34.3485L 48.7693,42.7315L 44.3729,42.7315L 44.3729,34.8706C 44.3797,33.943 44.2023,33.2021 43.8405,32.648C 43.4788,32.0939 42.8918,31.8099 42.0794,31.796C 41.4558,31.8141 40.9531,31.9881 40.5714,32.318C 40.1898,32.6479 39.918,33.025 39.756,33.4492C 39.6468,33.7586 39.5972,34.1261 39.6071,34.5515L 39.6071,42.7315L 35.2107,42.7315 Z "/>
</svg>
