<?xml version="1.0" encoding="utf-8"?>
<!DOCTYPE svg PUBLIC "-//W3C//DTD SVG 1.1//EN" "http://www.w3.org/Graphics/SVG/1.1/DTD/svg11.dtd">
<svg xmlns="http://www.w3.org/2000/svg" xmlns:xlink="http://www.w3.org/1999/xlink" version="1.1" baseProfile="full" width="76" height="76" viewBox="0 0 76.00 76.00" enable-background="new 0 0 76.00 76.00" xml:space="preserve">
	<path fill="#000000" fill-opacity="1" stroke-width="0.2" stroke-linejoin="round" d="M 14.25,26.9167L 45.9166,26.9167L 45.9166,38L 39.5833,38L 39.5833,53.8333L 14.25,53.8333L 14.25,26.9167 Z M 42.75,34.8334L 42.75,30.0834L 17.4167,30.0833L 17.4167,34.8333L 42.75,34.8334 Z M 36.4166,38L 17.4167,38L 17.4167,42.75L 36.4166,42.75L 36.4166,38 Z M 36.4166,45.9167L 17.4167,45.9167L 17.4167,50.6667L 36.4166,50.6667L 36.4166,45.9167 Z M 50.6666,30.0834L 55.4166,30.0834L 55.4166,25.3334L 60.1666,25.3334L 60.1666,30.0834L 64.9166,30.0834L 64.9166,34.8334L 60.1666,34.8334L 60.1666,39.5834L 55.4166,39.5834L 55.4166,34.8334L 50.6666,34.8334L 50.6666,30.0834 Z "/>
</svg>
