<?xml version="1.0" encoding="utf-8"?>
<!DOCTYPE svg PUBLIC "-//W3C//DTD SVG 1.1//EN" "http://www.w3.org/Graphics/SVG/1.1/DTD/svg11.dtd">
<svg xmlns="http://www.w3.org/2000/svg" xmlns:xlink="http://www.w3.org/1999/xlink" version="1.1" baseProfile="full" width="76" height="76" viewBox="0 0 76.00 76.00" enable-background="new 0 0 76.00 76.00" xml:space="preserve">
	<path fill="#000000" fill-opacity="1" stroke-width="0.2" stroke-linejoin="round" d="M 51.5,37L 54,44L 61,44L 55.1827,48.1098L 57.3673,55L 51.4894,50.7931L 45.6116,55L 47.7962,48.1098L 42,44L 49,44L 51.5,37 Z M 21.0001,30.0001L 56,30.0001L 56,43.0659L 54.8595,43.056L 51.4895,33.4313L 48,43L 39,43L 46.5,49L 46,50L 21.0001,50L 21.0001,30.0001 Z M 52,28L 37.0001,28C 38.0001,25 39.5,24.0001 39.5,24.0001L 50.75,24C 51.3023,24 52,24.6977 52,25.25L 52,28 Z "/>
</svg>
