<?xml version="1.0" encoding="utf-8"?>
<!DOCTYPE svg PUBLIC "-//W3C//DTD SVG 1.1//EN" "http://www.w3.org/Graphics/SVG/1.1/DTD/svg11.dtd">
<svg xmlns="http://www.w3.org/2000/svg" xmlns:xlink="http://www.w3.org/1999/xlink" version="1.1" baseProfile="full" width="76" height="76" viewBox="0 0 76.00 76.00" enable-background="new 0 0 76.00 76.00" xml:space="preserve">
	<path fill="#000000" fill-opacity="1" stroke-width="0.2" stroke-linejoin="round" d="M 28.5,31.2708L 36.4167,36.4167L 50.6667,23.75L 57,28.5L 57,53.8333L 49.0833,57L 34.8333,45.9167L 28.5,51.0625L 23.75,49.0833L 23.75,33.25L 28.5,31.2708 Z M 26.9166,46.7084L 33.25,41.1667L 26.9166,35.625L 26.9166,46.7084 Z M 49.0833,33.25L 40.375,41.1667L 49.0833,47.5L 49.0833,33.25 Z M 12.6667,31.6667L 18.2083,31.6667L 18.2083,34.8334L 12.6667,34.8334L 12.6667,31.6667 Z M 17.4846,23.1689L 21.4031,27.0875L 19.164,29.3266L 15.2454,25.4081L 17.4846,23.1689 Z M 26.9002,20.5669L 26.9002,26.1085L 23.7335,26.1085L 23.7335,20.5669L 26.9002,20.5669 Z M 35.3979,25.3848L 31.4794,29.3033L 29.2402,27.0641L 33.1588,23.1456L 35.3979,25.3848 Z M 15.2687,41.0823L 19.1873,37.1637L 21.4264,39.4029L 17.5079,43.3214L 15.2687,41.0823 Z "/>
</svg>
