<?xml version="1.0" encoding="utf-8"?>
<!DOCTYPE svg PUBLIC "-//W3C//DTD SVG 1.1//EN" "http://www.w3.org/Graphics/SVG/1.1/DTD/svg11.dtd">
<svg xmlns="http://www.w3.org/2000/svg" xmlns:xlink="http://www.w3.org/1999/xlink" version="1.1" baseProfile="full" width="76" height="76" viewBox="0 0 76.00 76.00" enable-background="new 0 0 76.00 76.00" xml:space="preserve">
	<path fill="#000000" fill-opacity="1" stroke-width="0.2" stroke-linejoin="round" d="M 20,23L 62,23L 62,59L 20,59L 20,23 Z M 23,26L 23,56L 59,56L 59,26L 23,26 Z M 27,54L 33.25,47.5L 36.4166,50.6667L 49.0833,38L 53.8333,42.75L 57,39L 57,54L 27,54 Z M 33.25,30.0834C 33.25,33.5812 30.4145,36.4167 26.9167,36.4167C 26.3699,36.4167 25.5061,36.1303 25,36L 25,28L 32.6666,28C 32.7968,28.5061 33.25,29.5366 33.25,30.0834 Z M 59,22L 19,22L 19,56L 17,56L 17,20L 59,20L 59,22 Z M 56,19L 16,19L 16,53L 14,53L 14,17L 56,17L 56,19 Z "/>
</svg>
