<?xml version="1.0" encoding="utf-8"?>
<!DOCTYPE svg PUBLIC "-//W3C//DTD SVG 1.1//EN" "http://www.w3.org/Graphics/SVG/1.1/DTD/svg11.dtd">
<svg xmlns="http://www.w3.org/2000/svg" xmlns:xlink="http://www.w3.org/1999/xlink" version="1.1" baseProfile="full" width="76" height="76" viewBox="0 0 76.00 76.00" enable-background="new 0 0 76.00 76.00" xml:space="preserve">
	<path fill="#000000" fill-opacity="1" stroke-width="0.2" stroke-linejoin="round" d="M 18.0147,41.5355C 16.0621,39.5829 16.0621,36.4171 18.0147,34.4645L 26.9646,25.5149C 28.0683,24.4113 29,24 31,24L 52,24C 54.7614,24 57,26.2386 57,29L 57,47C 57,49.7614 54.7614,52 52,52L 31,52C 29,52 28.0683,51.589 26.9646,50.4854L 18.0147,41.5355 Z M 47.5281,42.9497L 42.5784,37.9999L 47.5281,33.0502L 44.9497,30.4717L 40,35.4215L 35.0502,30.4717L 32.4718,33.0502L 37.4215,37.9999L 32.4718,42.9497L 35.0502,45.5281L 40,40.5783L 44.9497,45.5281L 47.5281,42.9497 Z "/>
</svg>
