<?xml version="1.0" encoding="utf-8"?>
<!DOCTYPE svg PUBLIC "-//W3C//DTD SVG 1.1//EN" "http://www.w3.org/Graphics/SVG/1.1/DTD/svg11.dtd">
<svg xmlns="http://www.w3.org/2000/svg" xmlns:xlink="http://www.w3.org/1999/xlink" version="1.1" baseProfile="full" width="76" height="76" viewBox="0 0 76.00 76.00" enable-background="new 0 0 76.00 76.00" xml:space="preserve">
	<path fill="#000000" fill-opacity="1" stroke-width="0.2" stroke-linejoin="round" d="M 22,17L 54,17C 56.6233,17 59,19.3767 59,22L 59,54C 59,56.6234 56.6233,59 54,59L 22,59C 19.3766,59 17,56.6234 17,54L 17,22C 17,19.3767 19.3766,17 22,17 Z M 51.4583,47.5L 49.0833,49.0833L 49.0833,49.875L 50.6667,49.875L 50.6667,55.4167L 52.25,55.4167L 52.25,48.2917C 52.25,47.8544 51.8956,47.5 51.4583,47.5 Z M 30.6408,38.5726C 30.6408,42.0454 31.3772,44.7778 32.8502,46.7697C 34.1452,48.5092 35.9097,49.3789 38.1437,49.3789C 40.3614,49.3789 42.1177,48.4984 43.4126,46.7374C 44.8856,44.7485 45.6221,41.9838 45.6221,38.4433C 45.6221,34.9429 44.926,32.2451 43.5338,30.3502C 42.1416,28.4552 40.3408,27.5078 38.1314,27.5078C 36.6065,27.5078 35.3087,27.9072 34.2382,28.7062C 33.1678,29.5051 32.3006,30.7196 31.6366,32.3498C 30.9727,33.98 30.6408,36.0543 30.6408,38.5726 Z M 33.5319,38.4295C 33.5319,35.9111 33.961,34.0523 34.8193,32.8532C 35.6776,31.654 36.7885,31.0545 38.1519,31.0545C 39.5181,31.0545 40.6228,31.6494 41.4661,32.8393C 42.3093,34.0293 42.7309,35.868 42.7309,38.3556C 42.7309,40.8925 42.2977,42.7728 41.4312,43.9965C 40.5646,45.2203 39.4716,45.8322 38.1519,45.8322C 36.8433,45.8322 35.7461,45.215 34.8604,43.9804C 33.9747,42.7458 33.5319,40.8955 33.5319,38.4295 Z "/>
</svg>
