<?xml version="1.0" encoding="utf-8"?>
<!DOCTYPE svg PUBLIC "-//W3C//DTD SVG 1.1//EN" "http://www.w3.org/Graphics/SVG/1.1/DTD/svg11.dtd">
<svg xmlns="http://www.w3.org/2000/svg" xmlns:xlink="http://www.w3.org/1999/xlink" version="1.1" baseProfile="full" width="76" height="76" viewBox="0 0 76.00 76.00" enable-background="new 0 0 76.00 76.00" xml:space="preserve">
	<path fill="#000000" fill-opacity="1" stroke-width="0.2" stroke-linejoin="round" d="M 17,20L 59,20L 59,56L 17,56L 17,20 Z M 20,23L 20,53L 56,53L 56,23L 20,23 Z M 36,25L 40,25L 40,27.1814C 44.4717,28.0028 47.9972,31.5283 48.8186,36L 51,36L 51,40L 48.8186,40C 47.9972,44.4717 44.4717,47.9972 40,48.8186L 40,51L 36,51L 36,48.8186C 31.5283,47.9972 28.0028,44.4717 27.1814,40L 25,40L 25,36L 27.1814,36C 28.0028,31.5283 31.5283,28.0028 36,27.1814L 36,25 Z M 40,33L 36,33L 36,30.252C 33.1888,30.9756 30.9756,33.1888 30.252,36L 33,36L 33,40L 30.252,40C 30.9756,42.8112 33.1888,45.0244 36,45.748L 36,43L 40,43L 40,45.748C 42.8112,45.0244 45.0244,42.8112 45.748,40L 43,40L 43,36L 45.748,36C 45.0244,33.1888 42.8112,30.9756 40,30.252L 40,33 Z "/>
</svg>
