<?xml version="1.0" encoding="utf-8"?>
<!DOCTYPE svg PUBLIC "-//W3C//DTD SVG 1.1//EN" "http://www.w3.org/Graphics/SVG/1.1/DTD/svg11.dtd">
<svg xmlns="http://www.w3.org/2000/svg" xmlns:xlink="http://www.w3.org/1999/xlink" version="1.1" baseProfile="full" width="76" height="76" viewBox="0 0 76.00 76.00" enable-background="new 0 0 76.00 76.00" xml:space="preserve">
	<path fill="#000000" fill-opacity="1" stroke-width="0.2" stroke-linejoin="round" d="M 58.2667,54.7833L 56.24,54.7833L 56.24,58.5833L 52.6933,58.5833L 52.6933,54.7833L 44.8405,54.7833L 44.8405,52.2935L 52.4083,40.85L 56.24,40.85L 56.24,51.9967L 58.2667,51.9967L 58.2667,54.7833 Z M 52.7448,44.65L 52.6696,44.65L 51.9848,46.0512L 48.0819,51.9967L 52.6933,51.9967L 52.6933,46.36L 52.7448,44.65 Z M 50.6667,38L 50.6472,38.7917L 49.9225,38.7917L 42.3542,50.2352L 42.3542,51.9366C 40.1169,53.1465 37.5553,53.8333 34.8333,53.8333C 26.0888,53.8333 19,46.7445 19,38C 19,29.7899 25.2489,23.0392 33.25,22.2449L 33.25,20.5833L 28.5,20.5833L 28.5,15.8333L 41.1667,15.8333L 41.1667,20.5833L 36.4167,20.5833L 36.4167,22.2449C 39.6011,22.561 42.508,23.8207 44.8538,25.7403L 45.9962,24.5979L 43.7571,22.3588L 47.1158,19L 53.8333,25.7175L 50.4746,29.0763L 48.2354,26.8371L 47.093,27.9795C 49.3266,30.709 50.6667,34.198 50.6667,38 Z M 23.0629,36.4167L 26.9166,36.4167L 26.9166,39.5834L 23.0629,39.5834C 23.768,44.8752 27.9581,49.0653 33.25,49.7704L 33.25,45.9167L 36.4166,45.9167L 36.4166,49.7704C 41.7085,49.0653 45.8986,44.8752 46.6036,39.5833L 42.75,39.5834L 42.75,36.4167L 46.6036,36.4167C 45.8986,31.1249 41.7085,26.9348 36.4166,26.2297L 36.4166,30.0834L 33.25,30.0834L 33.25,26.2297C 27.9581,26.9348 23.768,31.1249 23.0629,36.4167 Z M 34.8333,34.8334C 36.5822,34.8334 38,36.2512 38,38.0001C 38,39.7489 36.5822,41.1667 34.8333,41.1667L 28.5,45.9167L 31.6666,38.0001C 31.6666,36.2512 33.0844,34.8334 34.8333,34.8334 Z M 49.4836,44.0163C 48.7105,45.8968 47.586,47.5956 46.1917,49.031L 49.4836,44.0163 Z "/>
</svg>
