<?xml version="1.0" encoding="utf-8"?>
<!DOCTYPE svg PUBLIC "-//W3C//DTD SVG 1.1//EN" "http://www.w3.org/Graphics/SVG/1.1/DTD/svg11.dtd">
<svg xmlns="http://www.w3.org/2000/svg" xmlns:xlink="http://www.w3.org/1999/xlink" version="1.1" baseProfile="full" width="76" height="76" viewBox="0 0 76.00 76.00" enable-background="new 0 0 76.00 76.00" xml:space="preserve">
	<path fill="#000000" fill-opacity="1" stroke-width="0.2" stroke-linejoin="round" d="M 14,52L 14,25L 40,25L 40,41L 46,41L 46,52L 14,52 Z M 43,44L 17,44L 17,49L 43,49L 43,44 Z M 37,41L 37,36L 17,36L 17,41L 37,41 Z M 37,33L 37,28L 17,28L 17,33L 37,33 Z M 57,49L 49,49L 49,44L 52,44L 52,32.75L 46,38.75L 46,33.25L 54.5,24.75L 63,33.25L 63,38.75L 57,32.75L 57,49 Z "/>
</svg>
