<?xml version="1.0" encoding="utf-8"?>
<!DOCTYPE svg PUBLIC "-//W3C//DTD SVG 1.1//EN" "http://www.w3.org/Graphics/SVG/1.1/DTD/svg11.dtd">
<svg xmlns="http://www.w3.org/2000/svg" xmlns:xlink="http://www.w3.org/1999/xlink" version="1.1" baseProfile="full" width="76" height="76" viewBox="0 0 76.00 76.00" enable-background="new 0 0 76.00 76.00" xml:space="preserve">
	<path fill="#000000" fill-opacity="1" stroke-width="0.2" stroke-linejoin="round" d="M 34.8333,25.3334C 34.8333,27.9567 32.7067,30.0834 30.0833,30.0834L 25.3333,30.0834L 25.3333,41.9583C 25.3333,43.27 26.3966,44.3333 27.7083,44.3333L 72.8333,44.3333L 71.25,50.6667L 23.75,50.6667C 21.1266,50.6667 19,48.54 19,45.9167L 19,30.0834L 3.95831,30.0833L 6.72916,23.75L 26.125,23.75C 27.4367,23.75 28.5,22.6867 28.5,21.375L 28.5,4.35416L 34.8333,3.16666L 34.8333,25.3334 Z M 11.8434,31.73L 15.8017,39.6466L 12.635,39.6466L 12.635,42.8133L 11.0517,42.8133L 11.0517,39.6466L 7.88503,39.6466L 11.8434,31.73 Z M 54.6249,19.0001L 58.5832,26.9168L 55.4165,26.9168L 55.4165,30.0834L 53.8332,30.0834L 53.8332,26.9168L 50.6665,26.9168L 54.6249,19.0001 Z M 25.7291,70.4583C 33.2457,53.9219 38.9781,62.7597 43.6039,51.4584L 50.491,51.4584C 44.974,64.2041 39.2068,57.9229 31.9146,71.9511L 25.7291,70.4583 Z M 41.9582,28.5001C 41.1666,22.1667 45.125,22.1667 46.7082,14.2501C 48.2916,7.91685 52.2499,6.33349 53.8333,6.3335C 54.3619,6.3335 55.3342,7.6118 57.4498,8.78737C 55.7241,9.92696 54.7,11.5747 53.8333,15.0418C 52.2499,21.3751 48.2916,19.0001 48.2916,28.5001C 48.2916,36.6353 50.904,37.4082 51.6546,43.5417L 45.7004,43.5417C 47.1858,35.0854 41.9582,36.6374 41.9582,28.5001 Z M 64.125,25.3334L 68.0833,33.25L 64.9166,33.25L 64.9166,36.4167L 63.3333,36.4167L 63.3333,33.25L 60.1666,33.25L 64.125,25.3334 Z M 22.9583,11.0834L 26.9167,19L 23.75,19L 23.75,22.1667L 22.1667,22.1667L 22.1667,19L 19,19L 22.9583,11.0834 Z M 40.375,7.91679L 44.3333,15.8334L 41.1666,15.8334L 41.1666,19L 39.5833,19L 39.5833,15.8334L 36.4167,15.8334L 40.375,7.91679 Z M 37.2083,28.5001L 41.1666,36.4167L 37.9999,36.4167L 37.9999,39.5834L 36.4166,39.5834L 36.4166,36.4167L 33.25,36.4167L 37.2083,28.5001 Z M 57.7916,31.6667L 61.7499,39.5834L 58.5833,39.5834L 58.5833,42.75L 56.9999,42.75L 56.9999,39.5834L 53.8333,39.5834L 57.7916,31.6667 Z M 15.0417,44.3334L 19,52.25L 15.8333,52.25L 15.8333,55.4167L 14.25,55.4167L 14.25,52.25L 11.0833,52.25L 15.0417,44.3334 Z M 24.5417,52.25L 28.5,60.1667L 25.3333,60.1667L 25.3333,63.3333L 23.75,63.3333L 23.75,60.1667L 20.5833,60.1667L 24.5417,52.25 Z M 51.4583,55.4167L 55.4166,63.3333L 52.25,63.3333L 52.25,66.5L 50.6666,66.5L 50.6666,63.3333L 47.5,63.3333L 51.4583,55.4167 Z "/>
</svg>
