<?xml version="1.0" encoding="utf-8"?>
<!DOCTYPE svg PUBLIC "-//W3C//DTD SVG 1.1//EN" "http://www.w3.org/Graphics/SVG/1.1/DTD/svg11.dtd">
<svg xmlns="http://www.w3.org/2000/svg" xmlns:xlink="http://www.w3.org/1999/xlink" version="1.1" baseProfile="full" width="76" height="76" viewBox="0 0 76.00 76.00" enable-background="new 0 0 76.00 76.00" xml:space="preserve">
	<path fill="#000000" fill-opacity="1" stroke-width="0.2" stroke-linejoin="round" d="M 54,51L 57,61.75L 44,51L 40,51L 40,22L 70,22C 72.3703,26.7696 73.625,32.3125 73.625,38C 73.625,42.4613 72.7476,47.0643 71.25,51L 54,51 Z M 30,30.0001L 16,30.0001C 14.3431,30.0001 13,28.6569 13,27.0001C 13,25.3432 14.3431,24.0001 16,24.0001L 30,24.0001C 31.6568,24.0001 33,25.3432 33,27.0001C 33,28.6569 31.6568,30.0001 30,30.0001 Z M 32,33C 33.6568,33 35,34.3432 35,36C 35,37.6569 33.6568,39 32,39L 20,39C 18.3431,39 17,37.6569 17,36C 17,34.3432 18.3431,33 20,33L 32,33 Z M 33.5,42C 35.433,42 37,43.567 37,45.5C 37,47.433 35.433,49 33.5,49L 25.5,49C 23.567,49 22,47.433 22,45.5C 22,43.567 23.567,42 25.5,42L 33.5,42 Z "/>
</svg>
