<?xml version="1.0" encoding="utf-8"?>
<!DOCTYPE svg PUBLIC "-//W3C//DTD SVG 1.1//EN" "http://www.w3.org/Graphics/SVG/1.1/DTD/svg11.dtd">
<svg xmlns="http://www.w3.org/2000/svg" xmlns:xlink="http://www.w3.org/1999/xlink" version="1.1" baseProfile="full" width="76" height="76" viewBox="0 0 76.00 76.00" enable-background="new 0 0 76.00 76.00" xml:space="preserve">
	<path fill="#000000" fill-opacity="1" stroke-width="0.2" stroke-linejoin="round" d="M 19,22L 57,22L 57,31L 19,31L 19,22 Z M 55,24L 53,24L 53,29L 55,29L 55,24 Z M 51,24L 49,24L 49,29L 51,29L 51,24 Z M 47,24L 45,24L 45,29L 47,29L 47,24 Z M 21,27L 21,29L 23,29L 23,27L 21,27 Z M 19,33L 57,33L 57,42L 19,42L 19,33 Z M 55,35L 53,35L 53,40L 55,40L 55,35 Z M 51,35L 49,35L 49,40L 51,40L 51,35 Z M 47,35L 45,35L 45,40L 47,40L 47,35 Z M 21,38L 21,40L 23,40L 23,38L 21,38 Z M 46.75,53L 57,53L 57,57L 46.75,57L 44.75,55L 46.75,53 Z M 29.25,53L 31.25,55L 29.25,57L 19,57L 19,53L 29.25,53 Z M 29.5147,59.9926L 34.5073,55L 29.5147,50.0074L 33.0074,46.5147L 38,51.5074L 42.9926,46.5147L 46.4853,50.0074L 41.7426,55L 46.4853,59.9926L 42.9926,63.4853L 38,58.7426L 33.0074,63.4853L 29.5147,59.9926 Z M 36,46.25L 36,44L 40,44L 40,46.25L 38,48.25L 36,46.25 Z "/>
</svg>
