<?xml version="1.0" encoding="utf-8"?>
<!DOCTYPE svg PUBLIC "-//W3C//DTD SVG 1.1//EN" "http://www.w3.org/Graphics/SVG/1.1/DTD/svg11.dtd">
<svg xmlns="http://www.w3.org/2000/svg" xmlns:xlink="http://www.w3.org/1999/xlink" version="1.1" baseProfile="full" width="76.0106" height="76.0106" viewBox="0 0 76.01 76.01" enable-background="new 0 0 76.01 76.01" xml:space="preserve">
	<path fill="#000000" fill-opacity="1" stroke-width="0.2" stroke-linejoin="round" d="M 49.0068,36.005L 38.0053,26.9205L 27.0038,36.005L 27.0038,44.0062L 24.0032,44.0062L 24.0033,38.0053L 22.0031,40.0056L 19.0026,35.0049L 38.0053,20.0028L 45.0063,25.5299L 45.0063,21.753L 49.0068,21.003L 49.0068,28.6882L 57.0079,35.0049L 54.0075,40.0056L 52.0072,38.0053L 52.0072,56.0078L 24.0033,56.0078L 24.0032,50.007L 27.0038,50.007L 27.0038,53.0074L 38.0045,53.0075L 38.0045,41.0061L 46.0058,41.0061L 46.0058,53.0075L 49.0068,53.0074L 49.0068,36.005 Z M 31.004,45.0064L 31.004,42.0059L 36.0049,47.0066L 31.004,52.0073L 31.004,49.007L 24.0037,49.007L 24.0037,45.0064L 31.004,45.0064 Z "/>
</svg>
