<?xml version="1.0" encoding="utf-8"?>
<!DOCTYPE svg PUBLIC "-//W3C//DTD SVG 1.1//EN" "http://www.w3.org/Graphics/SVG/1.1/DTD/svg11.dtd">
<svg xmlns="http://www.w3.org/2000/svg" xmlns:xlink="http://www.w3.org/1999/xlink" version="1.1" baseProfile="full" width="76" height="76" viewBox="0 0 76.00 76.00" enable-background="new 0 0 76.00 76.00" xml:space="preserve">
	<path fill="#000000" fill-opacity="1" stroke-width="0.2" stroke-linejoin="round" d="M 28.5,60L 22,55.25L 22,25L 27,25L 26.9167,22.1667C 26.9167,17.7944 30.4611,14.25 34.8333,14.25C 38.1014,14.25 40.907,16.2303 42.1156,19.0563C 46.0405,19.5251 49,22.6989 49,26.75L 49,29L 50.75,30L 54,30L 54,60L 28.5,60 Z M 25.3333,32.0625L 27.9583,30.4271L 27.9583,57.25L 28.5,57.7917L 28.5,30.0834L 33,30L 33,27L 24,27L 25.3333,32.0625 Z M 36,27L 36,30L 46,30L 46,28.75L 44,27L 36,27 Z M 43,25L 45.5,25C 45.0229,23.6504 44.3496,22.9771 43,22.5L 43,25 Z M 30.0833,22.1667L 30,25L 33.25,25C 33.8179,22.2022 36.0197,20.2735 38.6911,19.3948C 37.8287,18.1968 36.4221,17.4167 34.8333,17.4167C 32.21,17.4167 30.0833,19.5434 30.0833,22.1667 Z M 39.75,25L 39.75,22.5C 38.4003,22.9771 37.477,23.6504 37,25L 39.75,25 Z M 35.2253,37.2901L 33.9352,43.0957C 33.9352,43.0957 35.2253,42.4506 37.8055,42.4506C 38.8023,42.4506 39.7028,42.9319 40.5814,43.5227L 42.4236,37.1708C 41.6078,36.5359 40.6733,36 39.0957,36C 35.8704,36 35.2253,37.2901 35.2253,37.2901 Z M 46.8364,39.2253C 45.2318,39.2253 44.2925,38.671 43.4668,38.0219L 41.6529,44.2766C 42.6831,45.0059 43.7251,45.6759 44.9012,45.6759C 47.4814,45.6759 48.7716,44.3858 48.7716,44.3858L 50.7068,37.9352C 50.7068,37.9352 50.0617,39.2253 46.8364,39.2253 Z M 33.2901,45.0309L 32,50.8364C 32,50.8364 33.2901,50.1914 35.8704,50.1914C 36.769,50.1913 37.5894,50.5826 38.386,51.0925L 40.234,44.7204C 39.4749,44.1727 38.5769,43.7407 37.1605,43.7407C 33.9352,43.7407 33.2901,45.0309 33.2901,45.0309 Z M 44.9012,46.966C 43.1321,46.966 42.1716,46.2922 41.2805,45.5604L 39.461,51.8345C 40.5756,52.6306 41.6922,53.4166 42.966,53.4166C 45.5463,53.4166 46.8364,52.1265 46.8364,52.1265L 48.7716,45.6759C 48.7716,45.6759 48.1265,46.966 44.9012,46.966 Z "/>
</svg>
