<?xml version="1.0" encoding="utf-8"?>
<!DOCTYPE svg PUBLIC "-//W3C//DTD SVG 1.1//EN" "http://www.w3.org/Graphics/SVG/1.1/DTD/svg11.dtd">
<svg xmlns="http://www.w3.org/2000/svg" xmlns:xlink="http://www.w3.org/1999/xlink" version="1.1" baseProfile="full" width="76" height="76" viewBox="0 0 76.00 76.00" enable-background="new 0 0 76.00 76.00" xml:space="preserve">
	<path fill="#000000" fill-opacity="1" stroke-width="0.2" stroke-linejoin="round" d="M 23.75,36.4167L 23.75,31.6667L 42.75,31.6667C 43.1986,31.3553 43.5417,30.0833 44.0167,28.7771C 44.0167,26.9457 43.3345,26.2596 41.9702,25.1354C 40.6059,24.0113 39.615,23.4492 37.4142,23.4492C 35.4508,23.4492 33.5799,23.8542 31.8013,24.6644C 30.0226,25.4745 27.2492,27.4181 26.125,28.5L 26.125,21.375C 27.6608,20.6308 30.2733,19.6201 32.0625,19.2137C 33.8517,18.8074 35.7543,18.6042 37.7704,18.6042C 41.3013,18.6042 44.2014,19.6426 46.4708,21.7194C 48.7403,23.7962 49.875,26.3678 49.875,29.4342C 49.875,30.9225 50.1283,30.5795 49.4792,31.6667L 52.25,31.6667L 52.25,36.4167L 45.5208,36.4167C 44.5919,36.9656 43.196,37.942 41.9504,38.4908C 40.3407,39.2245 39.1453,39.0503 38,39.5834L 52.25,39.5833L 52.25,44.3333L 32.8542,44.3333C 32.205,45.1092 31.8092,45.9035 31.8092,47.5079C 31.8092,49.4026 32.0981,49.6982 33.4677,50.7696C 34.8373,51.841 36.0736,52.7725 38.76,52.7725C 40.6283,52.7725 42.5745,52.3305 44.5985,51.4465C 46.6226,50.5624 48.2811,49.5056 49.875,47.8958L 49.875,54.625C 48.2389,55.4431 46.9986,56.2189 45.1408,56.7783C 43.2831,57.3378 41.0347,57.6175 38.3958,57.6175C 36.1739,57.6175 34.3227,57.3272 32.8423,56.7467C 31.3619,56.1661 30.0358,55.3401 28.8642,54.2688C 27.8139,53.2924 26.9998,52.1827 26.4219,50.9398C 25.844,49.6969 25.555,48.355 25.555,46.9142C 25.555,45.8217 25.8242,45.2253 26.125,44.3333L 23.75,44.3333L 23.75,39.5833L 29.2917,39.5834C 30.7008,38.4856 32.1733,37.6833 35.2292,36.4167L 23.75,36.4167 Z "/>
</svg>
