<?xml version="1.0" encoding="utf-8"?>
<!DOCTYPE svg PUBLIC "-//W3C//DTD SVG 1.1//EN" "http://www.w3.org/Graphics/SVG/1.1/DTD/svg11.dtd">
<svg xmlns="http://www.w3.org/2000/svg" xmlns:xlink="http://www.w3.org/1999/xlink" version="1.1" baseProfile="full" width="76" height="76" viewBox="0 0 76.00 76.00" enable-background="new 0 0 76.00 76.00" xml:space="preserve">
	<path fill="#000000" fill-opacity="1" stroke-width="0.2" stroke-linejoin="round" d="M 41.619,20.8095L 35.7381,20.8095L 33.7024,28.5L 27.4568,24.4213C 25.8854,25.6432 24.5317,27.1318 23.4638,28.8192L 38,38L 52.5362,28.8192C 51.4682,27.1318 50.1146,25.6432 48.5432,24.4213L 42.2976,28.5L 39.8095,23.1191L 42.7737,23.3691L 41.619,20.8095 Z M 25.13,31.6811L 22.7033,30.1485C 21.4928,32.502 20.8095,35.1712 20.8095,38L 20.8885,39.6583L 25.13,31.6811 Z M 26.6642,32.6501L 21.4121,42.5279C 21.7617,43.8116 22.2563,45.0355 22.8772,46.181L 29.2151,34.2612L 26.6642,32.6501 Z M 30.7493,35.2302L 23.9835,47.9548C 24.6783,48.9314 25.4727,49.8322 26.3517,50.6425L 33.592,37.0256L 30.7493,35.2302 Z M 35.1262,37.9945L 27.775,51.8202C 30.6326,53.938 34.17,55.1905 38,55.1905C 41.83,55.1905 45.3674,53.938 48.225,51.8202L 40.8738,37.9945L 38,39.8095L 35.1262,37.9945 Z M 42.408,37.0256L 49.6482,50.6425C 50.5273,49.8322 51.3216,48.9314 52.0165,47.9548L 45.2507,35.2302L 42.408,37.0256 Z M 46.7849,34.2612L 53.1227,46.181C 53.7437,45.0355 54.2383,43.8116 54.5879,42.5279L 49.3358,32.6501L 46.7849,34.2612 Z M 50.87,31.6811L 55.1115,39.6583L 55.1904,38C 55.1904,35.1712 54.5072,32.502 53.2967,30.1485L 50.87,31.6811 Z M 38,18C 49.0457,18 58,26.9543 58,38C 58,49.0457 49.0457,58 38,58C 26.9543,58 18,49.0457 18,38C 18,26.9543 26.9543,18 38,18 Z "/>
</svg>
