<?xml version="1.0" encoding="utf-8"?>
<!DOCTYPE svg PUBLIC "-//W3C//DTD SVG 1.1//EN" "http://www.w3.org/Graphics/SVG/1.1/DTD/svg11.dtd">
<svg xmlns="http://www.w3.org/2000/svg" xmlns:xlink="http://www.w3.org/1999/xlink" version="1.1" baseProfile="full" width="76" height="76" viewBox="0 0 76.00 76.00" enable-background="new 0 0 76.00 76.00" xml:space="preserve">
	<path fill="#000000" fill-opacity="1" stroke-width="0.2" stroke-linejoin="round" d="M 45.5,24.9999C 51.8514,24.9999 57,26.3431 57,27.9999C 57,29.6568 51.8513,30.9999 45.5,30.9999C 44.2797,30.9999 43.1037,30.9504 42.0001,30.8585L 42.0001,25.1414C 43.1037,25.0495 44.2797,24.9999 45.5,24.9999 Z M 45.4999,32C 51.8512,32 56.9999,30.6569 56.9999,29L 56.9999,34C 56.9999,35.6569 51.8512,37 45.4999,37C 44.2795,37 43.1035,36.9504 41.9999,36.8586L 41.9999,31.8586C 43.1035,31.9504 44.2795,32 45.4999,32 Z M 45.4998,38.0001C 51.8511,38.0001 56.9998,36.6569 56.9998,35.0001L 56.9998,40.0001C 56.9998,41.6569 51.8511,43.0001 45.4998,43.0001C 44.2794,43.0001 43.1034,42.9505 41.9998,42.8586L 41.9998,37.8586C 43.1034,37.9505 44.2794,38.0001 45.4998,38.0001 Z M 45.4998,44.0001C 51.8511,44.0001 56.9998,42.6569 56.9998,41.0001L 56.9998,46.0001C 56.9998,47.6569 51.8511,49.0001 45.4998,49.0001C 44.2794,49.0001 43.1034,48.9505 41.9998,48.8586L 41.9998,43.8586C 43.1034,43.9505 44.2794,44.0001 45.4998,44.0001 Z M 19,23.5001L 41,20L 41,56L 19,52.5L 19,23.5001 Z M 35.4798,44.6877L 31.8175,32.3966L 30.4457,32.4699L 29.0739,32.5432L 25.3328,44.0626L 26.588,44.1399L 27.8432,44.2172L 28.2004,42.9436L 28.5582,41.6606L 32.2106,41.7923L 32.5823,43.1575L 32.9556,44.5322L 34.2177,44.6099L 35.4798,44.6877 Z M 31.675,39.6889L 30.3606,39.6677L 29.0462,39.6465L 30.1661,35.6384L 30.3477,34.5988L 30.405,34.5969C 30.6787,36.3247 31.2143,38.0014 31.675,39.6889 Z "/>
</svg>
