<?xml version="1.0" encoding="utf-8"?>
<!DOCTYPE svg PUBLIC "-//W3C//DTD SVG 1.1//EN" "http://www.w3.org/Graphics/SVG/1.1/DTD/svg11.dtd">
<svg xmlns="http://www.w3.org/2000/svg" xmlns:xlink="http://www.w3.org/1999/xlink" version="1.1" baseProfile="full" width="76" height="76" viewBox="0 0 76.00 76.00" enable-background="new 0 0 76.00 76.00" xml:space="preserve">
	<path fill="#000000" fill-opacity="1" stroke-linejoin="round" d="M 28.7614,40.5681L 25.5935,40.5681C 25.4351,40.5681 25.4267,40.4111 25.4583,40.3364L 26.9973,36.7018L 27.0142,36.663L 27.0425,36.6036C 27.0598,36.5789 27.1016,36.5117 27.1776,36.5117C 27.2536,36.5117 27.2937,36.5789 27.3123,36.6036L 27.3381,36.663L 27.3583,36.6993L 28.8914,40.3311C 28.9451,40.449 28.8995,40.5681 28.7614,40.5681 Z M 53.3736,44.0523L 53.3736,32.581C 53.3736,31.652 52.8821,31.2455 52.0136,31.2455C 51.5462,31.2455 51.1907,31.3671 50.9597,31.6042C 50.8297,31.732 50.7131,31.9015 50.6105,32.1192L 46.5859,41.0262L 42.6538,32.1192C 42.5524,31.9015 42.4346,31.732 42.3063,31.6042C 42.0715,31.3671 41.7164,31.2455 41.2503,31.2455C 40.3788,31.2455 39.8924,31.652 39.8924,32.581L 39.8924,44.0523C 39.8924,44.9825 40.4257,45.3837 41.2946,45.3837C 42.1648,45.3837 42.6685,44.9825 42.6685,44.0523L 42.6685,38.6879L 45.353,44.1661C 45.5806,44.5747 46.0227,45.0407 46.5749,45.0266C 47.1829,45.0407 47.6622,44.5978 47.9269,44.1533L 50.6004,38.7036L 50.6004,44.0523C 50.6004,44.9825 51.1016,45.3837 51.9701,45.3837C 52.8416,45.3837 53.3736,44.9825 53.3736,44.0523 Z M 37.2307,44.0523L 37.2307,32.581C 37.2307,31.652 36.7232,31.2455 35.8543,31.2455C 34.9837,31.2455 34.4694,31.652 34.4694,32.581L 34.4694,44.0523C 34.4694,44.9825 34.9786,45.3837 35.848,45.3837C 36.7182,45.3837 37.2307,44.9825 37.2307,44.0523 Z M 36.8921,23.1808C 46.9689,23.6521 57.4793,30.662 57.0355,39.9105C 56.7083,46.6784 49.745,52.6407 38.8723,52.7054C 34.2152,52.7343 31.3386,51.924 29.3791,51.1464C 29.2305,51.0882 29.1684,51.0445 29.1731,50.974C 29.1904,50.899 29.271,50.899 29.4644,50.9431C 34.2689,52.0861 35.9738,50.1465 35.1665,48.6918C 34.2743,47.0775 28.1724,47.1831 23.8172,44.1533L 23.8569,44.056C 23.8569,44.056 24.1444,43.3654 24.2297,43.1753C 24.2981,43.0157 24.3606,42.937 24.5307,42.9394L 29.8123,42.9394C 29.9765,42.937 30.0551,43.0157 30.1497,43.2202C 30.2577,43.4701 30.685,44.5116 30.685,44.5116C 30.6859,44.5178 31.0439,45.4715 31.9361,45.5025C 32.1552,45.5119 32.9161,45.4171 33.1669,44.6267C 33.2395,44.3987 33.2331,44.2007 33.2015,44.0511C 33.1875,43.9707 33.1669,43.9113 33.1491,43.8569C 33.1267,43.8049 33.1082,43.7678 33.0985,43.7414C 33.0309,43.5967 27.6683,31.6001 27.6569,31.5704C 27.5505,31.3337 27.4356,31.137 27.1844,31.137C 27.0628,31.1345 26.9788,31.1832 26.9112,31.2574C 26.8719,31.2999 26.8403,31.3452 26.8065,31.3984C 26.7744,31.4566 26.7423,31.5159 26.7115,31.5753C 26.6549,31.6879 23.5427,38.6323 22.0468,41.9729L 21.8424,42.431C 21.3315,41.8748 21.0845,41.4967 21.0845,41.4967C 20.0961,40.19 19.1837,38.0295 19.0697,36.1789C 18.6103,28.6565 25.9713,22.6711 36.8921,23.1808 Z "/>
</svg>
