<?xml version="1.0" encoding="utf-8"?>
<!DOCTYPE svg PUBLIC "-//W3C//DTD SVG 1.1//EN" "http://www.w3.org/Graphics/SVG/1.1/DTD/svg11.dtd">
<svg xmlns="http://www.w3.org/2000/svg" xmlns:xlink="http://www.w3.org/1999/xlink" version="1.1" baseProfile="full" width="76" height="76" viewBox="0 0 76.00 76.00" enable-background="new 0 0 76.00 76.00" xml:space="preserve">
	<path fill="#000000" fill-opacity="1" stroke-width="0.2" stroke-linejoin="round" d="M 22,17L 54,17C 56.6233,17 59,19.3767 59,22L 59,54C 59,56.6234 56.6233,59 54,59L 22,59C 19.3767,59 17,56.6234 17,54L 17,22C 17,19.3767 19.3767,17 22,17 Z M 41.8111,41.3989C 41.5318,42.9382 41.0753,44.062 40.4415,44.7701C 39.8077,45.4782 39.0568,45.8322 38.1889,45.8322C 37.0062,45.8322 36.0439,45.2619 35.3019,44.1212C 34.56,42.9806 34.189,41.0587 34.189,38.3556C 34.189,35.751 34.5743,33.883 35.345,32.7516C 36.1157,31.6202 37.1102,31.0544 38.3286,31.0544C 39.1828,31.0544 39.924,31.3592 40.5523,31.9688C 41.1807,32.5784 41.6002,33.4558 41.8111,34.6011L 44.7022,33.7144C 44.3162,31.8518 43.7084,30.4479 42.8788,29.5028C 41.7152,28.1728 40.2683,27.5078 38.538,27.5078C 36.4162,27.5078 34.7256,28.3929 33.4662,30.1632C 32.0207,32.2013 31.2979,35.0244 31.2979,38.6327C 31.2979,42.047 32.0152,44.7593 33.4498,46.7697C 34.6955,48.5092 36.3204,49.3789 38.3245,49.3789C 39.9206,49.3789 41.2655,48.8355 42.3593,47.7487C 43.4531,46.6619 44.234,44.9394 44.7022,42.5811L 41.8111,41.3989 Z M 50.6667,50.6667L 50.6667,52.25L 52.25,52.25C 52.25,52.7778 52.25,53.3055 51.7222,53.5694C 51.1945,53.8333 50.1389,53.8333 49.0834,53.8333C 49.0834,54.3611 49.0834,54.8889 49.6111,55.1528C 50.1389,55.4167 51.1945,55.4167 52.25,55.4167C 52.7778,55.4167 53.3056,55.4167 53.5695,54.8889C 53.8334,54.3611 53.8334,53.3055 53.8334,52.25L 53.8334,50.6667C 53.8334,49.6111 53.8334,48.5555 53.5695,48.0278C 53.3056,47.5 52.7778,47.5 52.25,47.5C 51.1945,47.5 50.1389,47.5 49.6111,47.7639C 49.0834,48.0278 49.0834,48.5555 49.0834,49.0833C 50.1389,49.0833 51.1945,49.0833 51.7222,49.3472C 52.25,49.6111 52.25,50.1389 52.25,50.6667L 50.6667,50.6667 Z "/>
</svg>
