<?xml version="1.0" encoding="utf-8"?>
<!DOCTYPE svg PUBLIC "-//W3C//DTD SVG 1.1//EN" "http://www.w3.org/Graphics/SVG/1.1/DTD/svg11.dtd">
<svg xmlns="http://www.w3.org/2000/svg" xmlns:xlink="http://www.w3.org/1999/xlink" version="1.1" baseProfile="full" width="76" height="76" viewBox="0 0 76.00 76.00" enable-background="new 0 0 76.00 76.00" xml:space="preserve">
	<path fill="#000000" fill-opacity="1" stroke-width="0.2" stroke-linejoin="round" d="M 23.75,34.8333C 25.9361,34.8333 28.5,36.6055 28.5,38.7917C 28.5,40.9778 25.9361,42.75 23.75,42.75L 15.8333,42.75L 17.4167,34.8333L 23.75,34.8333 Z M 25.3333,22.1667C 27.5194,22.1667 30.0833,23.9389 30.0833,26.125C 30.0833,28.3111 27.5194,30.0833 25.3333,30.0833L 17.4167,30.0834L 19,22.1667L 25.3333,22.1667 Z M 41.1667,22.1667C 43.3528,22.1667 45.9166,23.9389 45.9166,26.125C 45.9166,28.3111 43.3528,30.0833 41.1667,30.0833L 32.8542,30.0834L 34.4375,22.1667L 41.1667,22.1667 Z M 39.5833,34.8334C 41.7694,34.8334 44.3333,36.6056 44.3333,38.7917C 44.3333,40.9778 41.7694,42.75 39.5833,42.75L 31.2708,42.75L 32.8542,34.8334L 39.5833,34.8334 Z M 36.4167,47.5C 38.6028,47.5 41.1667,49.2722 41.1667,51.4583C 41.1667,53.6445 38.6028,55.4167 36.4167,55.4167L 28.5,55.4167L 30.0833,47.5L 36.4167,47.5 Z M 53.8333,42.75C 56.0195,42.75 58.5833,44.5222 58.5833,46.7083C 58.5833,48.8944 56.0195,50.6667 53.8333,50.6667L 45.9167,50.6667L 47.5,42.75L 53.8333,42.75 Z M 57,30.0833C 59.1861,30.0833 61.75,31.8555 61.75,34.0417C 61.75,36.2278 59.1861,38 57,38L 49.0833,38L 50.6667,30.0833L 57,30.0833 Z "/>
</svg>
