<?xml version="1.0" encoding="utf-8"?>
<!DOCTYPE svg PUBLIC "-//W3C//DTD SVG 1.1//EN" "http://www.w3.org/Graphics/SVG/1.1/DTD/svg11.dtd">
<svg xmlns="http://www.w3.org/2000/svg" xmlns:xlink="http://www.w3.org/1999/xlink" version="1.1" baseProfile="full" width="76" height="76" viewBox="0 0 76.00 76.00" enable-background="new 0 0 76.00 76.00" xml:space="preserve">
	<path fill="#000000" fill-opacity="1" stroke-width="0.2" stroke-linejoin="round" d="M 17.4167,58.5833L 17.4167,53.8333L 22.1667,53.8333L 22.1667,45.9167L 17.4167,45.9167L 17.4167,41.1667L 26.9167,41.1667L 26.9167,47.5L 30.0833,47.5L 30.0833,28.5L 26.9167,28.5L 26.9167,34.8333L 17.4167,34.8334L 17.4167,30.0833L 22.1667,30.0833L 22.1667,22.1667L 17.4167,22.1667L 17.4167,17.4167L 26.9167,17.4167L 26.9167,23.75L 34.8333,23.75L 34.8333,34.8333L 41.1667,34.8333L 41.1667,23.75L 49.0833,23.75L 49.0833,17.4167L 58.5833,17.4167L 58.5833,22.1667L 53.8333,22.1667L 53.8333,30.0833L 58.5833,30.0833L 58.5833,34.8333L 49.0833,34.8333L 49.0833,28.5L 45.9167,28.5L 45.9167,47.5L 49.0833,47.5L 49.0833,41.1667L 58.5833,41.1666L 58.5833,45.9167L 53.8333,45.9167L 53.8333,53.8333L 58.5833,53.8333L 58.5833,58.5833L 49.0833,58.5833L 49.0833,52.25L 41.1667,52.25L 41.1667,41.1667L 34.8333,41.1667L 34.8333,52.25L 26.9167,52.25L 26.9167,58.5833L 17.4167,58.5833 Z "/>
</svg>
