<?xml version="1.0" encoding="utf-8"?>
<!DOCTYPE svg PUBLIC "-//W3C//DTD SVG 1.1//EN" "http://www.w3.org/Graphics/SVG/1.1/DTD/svg11.dtd">
<svg xmlns="http://www.w3.org/2000/svg" xmlns:xlink="http://www.w3.org/1999/xlink" version="1.1" baseProfile="full" width="76" height="76" viewBox="0 0 76.00 76.00" enable-background="new 0 0 76.00 76.00" xml:space="preserve">
	<path fill="#000000" fill-opacity="1" stroke-width="0.2" stroke-linejoin="round" d="M 34.8334,34.8333C 34.8334,36.5822 33.4156,38 31.6667,38C 29.9178,38 28.5,36.5822 28.5,34.8333C 28.5,33.6612 29.1368,32.6378 30.0834,32.0903L 30.0834,22.1666L 28.644,22.1666L 22.1667,38L 28.5,47.5L 34.8334,47.5L 41.1667,38L 34.6894,22.1666L 33.25,22.1666L 33.25,32.0903C 34.1965,32.6378 34.8334,33.6612 34.8334,34.8333 Z M 25.3333,47.5L 19,38L 26.9167,19L 36.4167,19L 44.3333,38L 38,47.5L 39.5833,47.5C 40.4578,47.5 41.1667,48.2089 41.1667,49.0833L 41.1666,53.8333C 41.1666,55.5822 39.7489,57 38,57L 25.3333,57C 23.5844,57 22.1667,55.5822 22.1667,53.8333L 22.1667,49.0833C 22.1667,48.2089 22.8756,47.5 23.75,47.5L 25.3333,47.5 Z M 26.9167,53.8333L 36.4166,53.8333C 37.2911,53.8333 38,53.1244 38,52.25C 38,51.3755 37.2911,50.6666 36.4166,50.6666L 26.9167,50.6666C 26.0422,50.6666 25.3333,51.3755 25.3333,52.25C 25.3333,53.1244 26.0422,53.8333 26.9167,53.8333 Z M 45.9167,57L 45.9167,43.5417L 45.9167,39.5833L 59.375,57L 55.4167,57L 49.0833,48.0278L 49.0833,57L 45.9167,57 Z "/>
</svg>
