<?xml version="1.0" encoding="utf-8"?>
<!DOCTYPE svg PUBLIC "-//W3C//DTD SVG 1.1//EN" "http://www.w3.org/Graphics/SVG/1.1/DTD/svg11.dtd">
<svg xmlns="http://www.w3.org/2000/svg" xmlns:xlink="http://www.w3.org/1999/xlink" version="1.1" baseProfile="full" width="76" height="76" viewBox="0 0 76.00 76.00" enable-background="new 0 0 76.00 76.00" xml:space="preserve">
	<path fill="#000000" fill-opacity="1" stroke-width="0.2" stroke-linejoin="round" d="M 22,17L 54,17C 56.6233,17 59,19.3767 59,22L 59,54C 59,56.6234 56.6233,59 54,59L 22,59C 19.3766,59 17,56.6234 17,54L 17,22C 17,19.3767 19.3766,17 22,17 Z M 51.4583,47.5L 49.0834,49.0833L 49.0833,49.875L 50.6667,49.875L 50.6667,55.4167L 52.25,55.4167L 52.25,48.2917C 52.25,47.8544 51.8956,47.5 51.4583,47.5 Z M 31.8235,41.99C 32.2534,46.9159 34.371,49.3789 38.1766,49.3789C 40.3285,49.3789 41.9103,48.7585 42.9219,47.5178C 43.9335,46.2771 44.4393,44.7454 44.4393,42.9228C 44.4393,41.6606 44.2511,40.5884 43.8747,39.7064C 43.4982,38.8243 42.9534,38.1039 42.2402,37.5451C 41.527,36.9863 40.3846,36.4345 38.8131,35.8896C 37.3265,35.3877 36.3601,34.9413 35.9138,34.5503C 35.4648,34.1593 35.2403,33.6775 35.2403,33.1049C 35.2403,32.5199 35.4922,32.0319 35.9959,31.6409C 36.4997,31.2499 37.217,31.0544 38.1479,31.0544C 39.0787,31.0544 39.796,31.273 40.2998,31.7102C 40.8035,32.1474 41.1321,32.914 41.2854,34.01L 44.1765,33.7145C 44.1163,31.7195 43.5639,30.1863 42.5195,29.1149C 41.475,28.0435 40.0233,27.5078 38.1643,27.5078C 36.9268,27.5078 35.8871,27.7425 35.0452,28.212C 34.2034,28.6815 33.5435,29.375 33.0658,30.2925C 32.588,31.2099 32.3492,32.2428 32.3492,33.3912C 32.3492,34.3794 32.5326,35.3015 32.8995,36.1574C 33.2663,37.0133 33.7612,37.7044 34.384,38.2309C 35.0069,38.7574 35.9877,39.2484 37.3265,39.7041L 40.2341,40.8055C 40.6776,41.0256 41.0075,41.3065 41.2238,41.6483C 41.4401,41.99 41.5482,42.4056 41.5482,42.8951C 41.5482,43.7295 41.2601,44.4276 40.6838,44.9894C 40.1074,45.5513 39.3155,45.8322 38.308,45.8322C 36.2793,45.8322 35.0815,44.453 34.7146,41.6944L 31.8235,41.99 Z "/>
</svg>
