<?xml version="1.0" encoding="utf-8"?>
<!DOCTYPE svg PUBLIC "-//W3C//DTD SVG 1.1//EN" "http://www.w3.org/Graphics/SVG/1.1/DTD/svg11.dtd">
<svg xmlns="http://www.w3.org/2000/svg" xmlns:xlink="http://www.w3.org/1999/xlink" version="1.1" baseProfile="full" width="76" height="76" viewBox="0 0 76.00 76.00" enable-background="new 0 0 76.00 76.00" xml:space="preserve">
	<path fill="#000000" fill-opacity="1" stroke-width="0.2" stroke-linejoin="round" d="M 48,22C 50.7614,22 53,24.2386 53,27C 53,29.7614 50.7614,32 48,32C 45.2386,32 43,29.7614 43,27C 43,24.2386 45.2386,22 48,22 Z M 52,34C 52,34 62,33 61.75,53.5L 58.5,54.25C 58.5,54.25 58,46.75 56,42.75L 56,55.25C 56,55.25 52.5,56.9371 48.5,56.9686C 44.5,57 40.75,55.25 40.75,55.25L 40.75,42.75C 38.75,46.75 38.25,54.25 38.25,54.25L 35,53.5C 34.75,33 44.75,34 44.75,34L 52,34 Z M 27,26C 27,23.3766 29.3767,21 32,21L 38,21C 39.8181,21 41.5176,22.1414 42.3897,23.7154C 41.8242,24.6792 41.5,25.8018 41.5,27C 41.5,29.0718 42.4693,30.9172 43.9792,32.1075C 42.4681,32.3696 41.1646,32.9855 40.0402,33.8485C 38.8686,32.7048 37.2666,32 35.5,32C 31.9101,32 29,34.9102 29,38.5C 29,41.6147 31.1907,44.2177 34.1154,44.8522C 33.6626,46.7702 33.3924,48.5774 33.2316,50.0001L 22,50.0001C 19.2386,50.0001 17,47.7615 17,45.0001L 17,31.0001C 17,28.2387 19.2386,26.0001 22,26.0001L 27,26 Z M 22.5,29C 21.6716,29 21,29.8955 21,31C 21,32.1046 21.6716,33 22.5,33C 23.3284,33 24,32.1046 24,31C 24,29.8955 23.3284,29 22.5,29 Z "/>
</svg>
