<?xml version="1.0" encoding="utf-8"?>
<!DOCTYPE svg PUBLIC "-//W3C//DTD SVG 1.1//EN" "http://www.w3.org/Graphics/SVG/1.1/DTD/svg11.dtd">
<svg xmlns="http://www.w3.org/2000/svg" xmlns:xlink="http://www.w3.org/1999/xlink" version="1.1" baseProfile="full" width="76" height="76" viewBox="0 0 76.00 76.00" enable-background="new 0 0 76.00 76.00" xml:space="preserve">
	<path fill="#000000" fill-opacity="1" stroke-linejoin="round" d="M 19,19L 37,19L 37,27L 19,27L 19,19 Z M 39,19L 57,19L 57,23L 39,23L 39,19 Z M 19,29L 37,29L 37,33L 19,33L 19,29 Z M 39,25L 57,25L 57,29L 39,29L 39,25 Z M 19,35L 37,35L 37,39L 19,39L 19,35 Z M 39,31L 57,31L 57,39L 39,39L 39,31 Z M 19,41L 37,41L 37,45L 19,45L 19,41 Z M 39,41L 57,41L 57,45L 39,45L 39,41 Z M 19,47L 37,47L 37,51L 19,51L 19,47 Z M 39,47L 57,47L 57,51L 39,51L 39,47 Z M 19,53L 37,53L 37,57L 19,57L 19,53 Z M 39,53L 57,53L 57,57L 39,57L 39,53 Z "/>
</svg>
