<?xml version="1.0" encoding="utf-8"?>
<!DOCTYPE svg PUBLIC "-//W3C//DTD SVG 1.1//EN" "http://www.w3.org/Graphics/SVG/1.1/DTD/svg11.dtd">
<svg xmlns="http://www.w3.org/2000/svg" xmlns:xlink="http://www.w3.org/1999/xlink" version="1.1" baseProfile="full" width="76" height="76" viewBox="0 0 76.00 76.00" enable-background="new 0 0 76.00 76.00" xml:space="preserve">
	<path fill="#000000" fill-opacity="1" stroke-width="0.2" stroke-linejoin="round" d="M 53.8333,26.9167C 57.3311,26.9167 60.1667,29.7522 60.1667,33.25L 60.1667,42.75C 60.1667,46.2478 57.3311,49.0833 53.8333,49.0833L 38,49.0833C 38,49.9578 38.7089,50.6667 39.5833,50.6667L 49.0835,50.6667L 49.0835,53.8333C 49.0835,57.3311 46.248,60.1667 42.7502,60.1667L 33.2502,60.1667C 29.7524,60.1667 26.9169,57.3311 26.9169,53.8333L 26.9167,45.5208C 26.9167,42.023 29.7524,39.1875 33.2502,39.1875L 44.3333,39.1874C 47.8311,39.1874 50.6666,36.3519 50.6666,32.8541L 50.6667,26.9167L 53.8333,26.9167 Z M 44.3333,53.0416C 43.4589,53.0416 42.75,53.709 42.75,55.0207C 42.75,56.3324 43.4588,56.6039 44.3333,56.6039C 45.2077,56.6039 45.9166,56.3324 45.9166,55.0207C 45.9166,53.709 45.2078,53.0416 44.3333,53.0416 Z M 22.1669,49.0833C 18.6691,49.0833 15.8336,46.2478 15.8336,42.75L 15.8336,33.25C 15.8336,29.7522 18.6691,26.9167 22.1669,26.9167L 38.0002,26.9167C 38.0002,26.0422 37.2913,25.3333 36.4169,25.3333L 26.9167,25.3333L 26.9167,22.1667C 26.9167,18.6689 29.7522,15.8333 33.25,15.8333L 42.75,15.8333C 46.2478,15.8333 49.0833,18.6689 49.0833,22.1667L 49.0833,30.4792C 49.0833,33.977 46.2478,36.8125 42.75,36.8125L 31.6669,36.8126C 28.1691,36.8126 25.3336,39.6481 25.3336,43.1459L 25.3335,49.0833L 22.1669,49.0833 Z M 31.6669,22.9585C 32.5413,22.9585 33.2502,22.291 33.2502,20.9793C 33.2502,19.6677 32.5413,19.3961 31.6669,19.3961C 30.7924,19.3961 30.0836,19.6677 30.0836,20.9793C 30.0836,22.291 30.7924,22.9585 31.6669,22.9585 Z "/>
</svg>
