<?xml version="1.0" encoding="utf-8"?>
<!DOCTYPE svg PUBLIC "-//W3C//DTD SVG 1.1//EN" "http://www.w3.org/Graphics/SVG/1.1/DTD/svg11.dtd">
<svg xmlns="http://www.w3.org/2000/svg" xmlns:xlink="http://www.w3.org/1999/xlink" version="1.1" baseProfile="full" width="76" height="76" viewBox="0 0 76.00 76.00" enable-background="new 0 0 76.00 76.00" xml:space="preserve">
	<path fill="#000000" fill-opacity="1" stroke-width="0.2" stroke-linejoin="round" d="M 47.9027,57.4948C 47.9027,58.9704 46.7064,60.1667 45.2308,60.1667C 43.7551,60.1667 42.5589,58.9704 42.5589,57.4948L 42.5589,48.8557L 38.8699,43.7381L 36.949,48.9609C 36.8408,49.3345 36.6581,49.6664 36.4218,49.945L 35.9497,50.7547L 29.9014,57.887C 28.9469,59.0124 27.2609,59.151 26.1355,58.1966C 25.01,57.2422 24.8714,55.5562 25.8258,54.4307L 31.8742,47.2985L 31.8859,47.2848L 34.658,39.7477L 34.5433,38.7917L 34.5433,29.4401C 34.5433,27.2267 36.3376,25.4323 38.5511,25.4323C 40.0854,25.4323 41.4184,26.2945 42.0919,27.5608L 46.7549,32.0476L 52.7735,33.5394C 53.8477,33.8056 54.5027,34.8923 54.2365,35.9665C 53.9702,37.0407 52.8835,37.6957 51.8093,37.4295L 45.6796,35.9102C 45.3136,35.8195 44.9963,35.6336 44.7475,35.3853C 44.4599,35.2957 44.1883,35.1395 43.9564,34.9164L 42.5589,33.5718L 42.5589,38.7917L 42.4765,39.604L 47.4696,46.5308C 47.8994,47.1466 48.0338,47.8803 47.9026,48.5638L 47.9027,57.4948 Z M 37.2151,16.2292C 39.4286,16.2292 41.2229,18.0235 41.2229,20.237C 41.2229,22.4505 39.4286,24.2448 37.2151,24.2448C 35.0017,24.2448 33.2073,22.4505 33.2073,20.237C 33.2073,18.0235 35.0017,16.2292 37.2151,16.2292 Z M 57.5702,36.0486L 62.6691,45.4414L 56.7987,48.6282L 51.6997,39.2355L 57.5702,36.0486 Z M 55.6246,49.2656C 54.3277,49.9696 52.7056,49.489 52.0016,48.1921L 49.4522,43.4957C 48.7482,42.1989 49.2288,40.5768 50.5256,39.8728L 55.6246,49.2656 Z M 58.7443,35.4113C 60.0412,34.7073 61.6632,35.1879 62.3672,36.4847L 64.9167,41.1811C 65.6207,42.478 65.1401,44.1 63.8432,44.804L 58.7443,35.4113 Z M 27.7083,31.6667C 29.02,31.6667 30.0833,32.7301 30.0833,34.0418C 30.0833,35.3534 29.02,36.4168 27.7083,36.4168L 19.7916,36.4168C 18.48,36.4168 17.4166,35.3534 17.4166,34.0418C 17.4166,32.7301 18.48,31.6667 19.7916,31.6667L 27.7083,31.6667 Z M 25.7292,39.5833C 27.0408,39.5833 28.1042,40.6467 28.1042,41.9583C 28.1042,43.27 27.0408,44.3333 25.7292,44.3333L 17.0208,44.3333C 15.7092,44.3333 14.6458,43.27 14.6458,41.9583C 14.6458,40.6467 15.7092,39.5833 17.0208,39.5833L 25.7292,39.5833 Z M 21.375,47.5C 22.6867,47.5 23.75,48.5633 23.75,49.875C 23.75,51.1867 22.6867,52.25 21.375,52.25L 13.4583,52.25C 12.1467,52.25 11.0833,51.1867 11.0833,49.875C 11.0833,48.5633 12.1467,47.5 13.4583,47.5L 21.375,47.5 Z "/>
</svg>
