<?xml version="1.0" encoding="utf-8"?>
<!DOCTYPE svg PUBLIC "-//W3C//DTD SVG 1.1//EN" "http://www.w3.org/Graphics/SVG/1.1/DTD/svg11.dtd">
<svg xmlns="http://www.w3.org/2000/svg" xmlns:xlink="http://www.w3.org/1999/xlink" version="1.1" baseProfile="full" width="76" height="76" viewBox="0 0 76.00 76.00" enable-background="new 0 0 76.00 76.00" xml:space="preserve">
	<path fill="#000000" fill-opacity="1" stroke-width="0.2" stroke-linejoin="round" d="M 63.3333,55.4167L 63.3333,28.5L 58.5833,28.5L 58.5833,30.0833L 57,30.0833L 57,44.3333L 53.8333,44.3333L 53.8333,41.1667L 49.1164,41.1667L 49.0833,38L 48.2917,22.9584L 45.9167,22.1667L 43.5417,14.25L 41.1667,22.1667L 38.7917,22.9584L 38,38L 38,44.3333L 36.4167,44.3333L 36.4167,41.1667L 30.0833,41.1667L 30.0834,47.5L 26.9167,47.5L 26.9167,31.6667L 17.4167,31.6667L 17.4167,44.3333L 14.25,44.3333L 14.25,42.75L 12.6667,42.75L 12.6667,55.4167L 63.3333,55.4167 Z "/>
</svg>
