<?xml version="1.0" encoding="utf-8"?>
<!DOCTYPE svg PUBLIC "-//W3C//DTD SVG 1.1//EN" "http://www.w3.org/Graphics/SVG/1.1/DTD/svg11.dtd">
<svg xmlns="http://www.w3.org/2000/svg" xmlns:xlink="http://www.w3.org/1999/xlink" version="1.1" baseProfile="full" width="76" height="76" viewBox="0 0 76.00 76.00" enable-background="new 0 0 76.00 76.00" xml:space="preserve">
	<path fill="#000000" fill-opacity="1" stroke-width="0.2" stroke-linejoin="round" d="M 17,21L 25,21L 25,29L 17,29L 17,21 Z M 17,32L 25,32L 25,40L 17,40L 17,32 Z M 29,21L 55,21L 55,29L 29,29L 29,21 Z M 17,43L 25,43L 25,51L 17,51L 17,43 Z M 29,32L 55,32L 55,40L 29,40L 29,32 Z M 29,43L 55,43L 55,51L 29,51L 29,43 Z M 53,62L 50,62L 50,56L 53,56L 53,62 Z M 61.9215,57.4761L 59.8002,59.5974L 55.5576,55.3548L 57.6789,53.2335L 61.9215,57.4761 Z M 65.0313,47.9688L 65.0313,50.9687L 59.0313,50.9687L 59.0313,47.9688L 65.0313,47.9688 Z M 43.4926,58.8904L 41.3713,56.769L 45.614,52.5264L 47.7353,54.6477L 43.4926,58.8904 Z M 60.6792,39.1972L 62.7631,41.3552L 58.4471,45.5232L 56.3631,43.3652L 60.6792,39.1972 Z "/>
</svg>
