<?xml version="1.0" encoding="utf-8"?>
<!DOCTYPE svg PUBLIC "-//W3C//DTD SVG 1.1//EN" "http://www.w3.org/Graphics/SVG/1.1/DTD/svg11.dtd">
<svg xmlns="http://www.w3.org/2000/svg" xmlns:xlink="http://www.w3.org/1999/xlink" version="1.1" baseProfile="full" width="76" height="76" viewBox="0 0 76.00 76.00" enable-background="new 0 0 76.00 76.00" xml:space="preserve">
	<path fill="#000000" fill-opacity="1" stroke-width="0.2" stroke-linejoin="round" d="M 37.6042,42.75L 27.7083,51.4583L 12.6667,41.9583L 22.1667,34.0417L 13.0626,26.5208L 28.8959,16.2291L 38.1285,24.1735L 47.0913,16.301L 63.3333,26.5208L 53.8333,34.0417L 62.5416,42.3542L 48.2916,51.4583L 37.6042,42.75 Z M 38,41.5625L 52.25,34.0417L 38,25.3333L 23.75,34.0417L 38,41.5625 Z M 22.1666,49.0834L 27.7083,52.6458L 37.2083,43.9375L 37.2082,61.75L 22.1666,54.625L 22.1666,49.0834 Z M 53.8333,49.0834L 53.8334,54.625L 38.396,61.75L 38.3959,44.3333L 48.2916,52.6459L 53.8333,49.0834 Z "/>
</svg>
