<?xml version="1.0" encoding="utf-8"?>
<!DOCTYPE svg PUBLIC "-//W3C//DTD SVG 1.1//EN" "http://www.w3.org/Graphics/SVG/1.1/DTD/svg11.dtd">
<svg xmlns="http://www.w3.org/2000/svg" xmlns:xlink="http://www.w3.org/1999/xlink" version="1.1" baseProfile="full" width="76" height="76" viewBox="0 0 76.00 76.00" enable-background="new 0 0 76.00 76.00" xml:space="preserve">
	<path fill="#000000" fill-opacity="1" stroke-width="0.2" stroke-linejoin="round" d="M 50.4479,17.7813C 52.152,17.3879 53.8523,18.4503 54.2457,20.1544L 56.0266,27.8682L 18.9996,36.4165L 17.2188,28.7028C 16.8254,26.9987 17.8879,25.2983 19.5919,24.9049L 50.4479,17.7813 Z M 19.4743,31.432L 20.1866,34.5176L 26.1195,25.0229L 23.034,25.7353L 19.4743,31.432 Z M 24.8149,33.449L 27.9004,32.7367L 33.8333,23.242L 30.7478,23.9544L 24.8149,33.449 Z M 32.5287,31.6682L 35.6142,30.9558L 41.5471,21.4612L 38.4616,22.1735L 32.5287,31.6682 Z M 40.2425,29.8873L 43.328,29.1749L 49.2609,19.6803L 46.1754,20.3926L 40.2425,29.8873 Z M 47.9562,28.1064L 51.0417,27.3941L 53.4149,23.5962L 52.7026,20.5107L 47.9562,28.1064 Z M 53.8338,57L 22.1663,57C 20.4173,57 18.9996,55.5822 18.9996,53.8333L 18.9996,36.4167L 57,36.4167L 57.0004,53.8333C 57.0004,55.5822 55.5827,57 53.8338,57 Z M 30.0833,38L 23.75,44.3333L 26.9167,44.3333L 33.25,38L 30.0833,38 Z M 38,38L 31.6667,44.3333L 34.8333,44.3333L 41.1666,38L 38,38 Z M 45.9167,38L 39.5833,44.3333L 42.75,44.3333L 49.0833,38L 45.9167,38 Z M 53.8333,38L 47.5,44.3333L 50.6666,44.3333L 55.408,39.592L 55.4167,38L 53.8333,38 Z M 22.1667,38L 20.5833,39.5833L 20.5833,42.75L 25.3333,38L 22.1667,38 Z "/>
</svg>
