<?xml version="1.0" encoding="utf-8"?>
<!DOCTYPE svg PUBLIC "-//W3C//DTD SVG 1.1//EN" "http://www.w3.org/Graphics/SVG/1.1/DTD/svg11.dtd">
<svg xmlns="http://www.w3.org/2000/svg" xmlns:xlink="http://www.w3.org/1999/xlink" version="1.1" baseProfile="full" width="76" height="76" viewBox="0 0 76.00 76.00" enable-background="new 0 0 76.00 76.00" xml:space="preserve">
	<path fill="#000000" fill-opacity="1" stroke-width="0.2" stroke-linejoin="round" d="M 45.0001,25L 50,25L 50,20L 54,20L 54,25L 59.0001,25L 59.0001,29L 54,29L 54,34L 50,34L 50,29L 45.0001,29L 45.0001,25 Z M 52.1429,56L 45.4571,56L 42.283,46.7429L 28.4375,46.7429L 25.4,56L 18.7143,56L 32.1339,20L 38.8277,20L 52.1429,56 Z M 40.7402,42.1143L 35.8464,27.417C 35.7018,26.9455 35.5464,26.1875 35.3804,25.1429L 35.2759,25.1429C 35.1313,26.1018 34.9679,26.8598 34.7857,27.417L 29.9563,42.1143L 40.7402,42.1143 Z "/>
</svg>
