<?xml version="1.0" encoding="utf-8"?>
<!DOCTYPE svg PUBLIC "-//W3C//DTD SVG 1.1//EN" "http://www.w3.org/Graphics/SVG/1.1/DTD/svg11.dtd">
<svg xmlns="http://www.w3.org/2000/svg" xmlns:xlink="http://www.w3.org/1999/xlink" version="1.1" baseProfile="full" width="76" height="76" viewBox="0 0 76.00 76.00" enable-background="new 0 0 76.00 76.00" xml:space="preserve">
	<path fill="#000000" fill-opacity="1" stroke-width="0.2" stroke-linejoin="round" d="M 33.5644,48.5684L 34.4335,48.5684L 35.6262,48.4236L 35.8483,48.2412C 36.0684,48.0268 36.227,47.7531 36.3241,47.4199L 36.4697,46.2205L 36.4697,43.8696C 36.4697,42.9512 36.5754,42.1437 36.7869,41.447C 36.9984,40.7502 37.3286,40.1701 37.7777,39.7066C 38.226,39.2438 38.7976,38.8944 39.4928,38.6583L 40.2065,38.3542C 40.9033,38.118 41.7412,38 42.7204,38L 43.8546,38L 43.8546,40.503L 43.1444,40.503L 43.1444,40.806L 42.3144,40.806L 41.2682,40.9472L 41.0039,41.1592C 40.7577,41.391 40.5687,41.6966 40.4368,42.0761C 40.305,42.4556 40.2391,42.9264 40.2391,43.4884L 40.2391,45.8263L 40.0696,47.5407C 39.9567,48.0143 39.7828,48.409 39.5482,48.7248C 39.3135,49.0406 39.0151,49.2854 38.653,49.4592L 38.1336,49.6606L 37.9428,49.7622L 37.6825,49.8742C 38.4966,50.0248 39.1134,50.3906 39.533,50.9715C 40.0037,51.6233 40.2391,52.6242 40.2391,53.9743L 40.2391,57.4507C 40.2391,58.0417 40.305,58.5335 40.4368,58.926C 40.5687,59.3186 40.7577,59.6336 41.0039,59.8712C 41.2502,60.1087 41.5428,60.2775 41.8817,60.3774L 43.0246,60.5273L 43.8546,60.5273L 43.8546,63.0304L 43.1444,63.0304L 43.1444,63.3333L 42.0103,63.3333C 40.1504,63.3333 38.7619,62.8807 37.845,61.9753C 36.9281,61.07 36.4697,59.6338 36.4697,57.6667L 36.4697,54.199C 36.4697,53.2632 36.2582,52.5585 35.8352,52.0849C 35.4123,51.6112 34.7083,51.3744 33.7233,51.3744L 32.8542,51.3744L 32.8542,48.8713L 33.5644,48.8713L 33.5644,48.5684 Z M 51.103,38C 52.9687,38 54.3593,38.444 55.2747,39.3319C 56.1902,40.2199 56.6479,41.6314 56.6479,43.5667L 56.6479,45.8133C 56.6479,46.7317 56.8572,47.4204 57.2758,47.8796C 57.6945,48.3388 58.3963,48.5684 59.3813,48.5684L 60.2634,48.5684L 60.2634,51.0714L 59.5532,51.0714L 59.5532,51.3744L 58.6711,51.3744L 57.491,51.5196L 57.2628,51.7124C 57.047,51.9311 56.8905,52.2114 56.7935,52.5533L 56.6479,53.7744L 56.6479,57.3638C 56.6479,58.3024 56.5422,59.1245 56.3307,59.8299C 56.1192,60.5353 55.7897,61.1241 55.3421,61.5964C 54.8945,62.0686 54.3209,62.4256 53.5946,62.6766L 52.9111,62.9705C 52.2114,63.2124 51.372,63.3333 50.3928,63.3333L 49.263,63.3333L 49.263,60.8303L 49.9731,60.8303L 49.9731,60.5274L 50.8162,60.5274L 51.8479,60.3912L 52.1158,60.1676C 52.3606,59.9257 52.5489,59.6106 52.6807,59.2224C 52.8126,58.8342 52.8785,58.3533 52.8785,57.7797L 52.8785,54.2207L 53.0479,52.4629C 53.1609,51.9748 53.3326,51.5692 53.5629,51.2462C 53.7932,50.9232 54.0894,50.6747 54.4516,50.5009L 54.9727,50.299L 55.1617,50.198L 55.4244,50.085C 54.607,49.9315 53.9908,49.5704 53.5759,49.0017C 53.111,48.3643 52.8785,47.3852 52.8785,46.0641L 52.8785,43.8305C 52.8785,43.2511 52.8126,42.7673 52.6807,42.3791C 52.5489,41.9909 52.3606,41.6809 52.1158,41.4491C 51.871,41.2174 51.5799,41.0522 51.2424,40.9537L 50.106,40.806L 49.263,40.806L 49.263,38.303L 49.9731,38.303L 49.9731,38L 51.103,38 Z M 19,17.4167L 41.9583,17.4167L 53.8333,29.2917L 53.8333,36.4167L 50.6666,36.4167L 50.6667,33.25L 38,33.25L 38,20.5833L 22.1667,20.5834L 22.1667,55.4167L 33.6458,55.4167L 34.4375,58.5833L 19,58.5833L 19,17.4167 Z M 41.1667,21.3751L 41.1667,30.0833L 49.8749,30.0833L 41.1667,21.3751 Z M 42.6813,55.4167L 51.0625,55.4167L 49.8749,58.5834L 43.2642,58.5834L 42.6813,55.4167 Z "/>
</svg>
