<?xml version="1.0" encoding="utf-8"?>
<!DOCTYPE svg PUBLIC "-//W3C//DTD SVG 1.1//EN" "http://www.w3.org/Graphics/SVG/1.1/DTD/svg11.dtd">
<svg xmlns="http://www.w3.org/2000/svg" xmlns:xlink="http://www.w3.org/1999/xlink" version="1.1" baseProfile="full" width="76" height="76" viewBox="0 0 76.00 76.00" enable-background="new 0 0 76.00 76.00" xml:space="preserve">
	<path fill="#000000" fill-opacity="1" stroke-width="0.2" stroke-linejoin="round" d="M 21,19L 55,19L 55,27L 62,27L 62,54L 55,54L 55,57L 21,57L 21,54L 14,54L 14,27L 21,27L 21,19 Z M 28.9999,23.0001L 28.9999,36.0001L 46.9999,36.0001L 46.9999,23.0001L 28.9999,23.0001 Z M 46.9999,40.0001L 28.9999,40.0001L 28.9999,53.0001L 46.9999,53.0001L 46.9999,40.0001 Z M 24.9999,36.0001C 23.8954,36.0001 23,36.8955 23,38.0001C 23,39.1046 23.8954,40.0001 24.9999,40.0001C 26.1045,40.0001 26.9999,39.1046 26.9999,38.0001C 26.9999,36.8955 26.1045,36.0001 24.9999,36.0001 Z M 24.9999,29.0001C 23.8954,29.0001 23,29.8955 23,31.0001C 23,32.1047 23.8954,33.0001 24.9999,33.0001C 26.1045,33.0001 26.9999,32.1047 26.9999,31.0001C 26.9999,29.8955 26.1045,29.0001 24.9999,29.0001 Z M 25,22.0001C 23.8954,22.0001 23,22.8955 23,24.0001C 23,25.1047 23.8954,26.0001 25,26.0001C 26.1045,26.0001 27,25.1047 27,24.0001C 27,22.8955 26.1045,22.0001 25,22.0001 Z M 25,50C 23.8954,50 23,50.8955 23,52C 23,53.1046 23.8954,54 25,54C 26.1045,54 27,53.1046 27,52C 27,50.8955 26.1045,50 25,50 Z M 25,43C 23.8954,43 23,43.8955 23,45C 23,46.1046 23.8954,47 25,47C 26.1045,47 27,46.1046 27,45C 27,43.8955 26.1045,43 25,43 Z M 50.9999,36C 49.8954,36 48.9999,36.8955 48.9999,38C 48.9999,39.1046 49.8954,40 50.9999,40C 52.1045,40 52.9999,39.1046 52.9999,38C 52.9999,36.8955 52.1045,36 50.9999,36 Z M 50.9999,29.0001C 49.8954,29.0001 48.9999,29.8955 48.9999,31.0001C 48.9999,32.1046 49.8954,33.0001 50.9999,33.0001C 52.1045,33.0001 52.9999,32.1046 52.9999,31.0001C 52.9999,29.8955 52.1045,29.0001 50.9999,29.0001 Z M 50.9999,22.0001C 49.8954,22.0001 48.9999,22.8955 48.9999,24.0001C 48.9999,25.1046 49.8954,26.0001 50.9999,26.0001C 52.1045,26.0001 52.9999,25.1046 52.9999,24.0001C 52.9999,22.8955 52.1045,22.0001 50.9999,22.0001 Z M 50.9999,50C 49.8954,50 48.9999,50.8955 48.9999,52C 48.9999,53.1046 49.8954,54 50.9999,54C 52.1045,54 52.9999,53.1046 52.9999,52C 52.9999,50.8955 52.1045,50 50.9999,50 Z M 50.9999,43C 49.8954,43 48.9999,43.8955 48.9999,45C 48.9999,46.1046 49.8954,47 50.9999,47C 52.1045,47 52.9999,46.1046 52.9999,45C 52.9999,43.8955 52.1045,43 50.9999,43 Z M 19,42L 19,51L 21,51L 21,42L 19,42 Z M 21,30L 19,30L 19,39L 21,39L 21,30 Z M 16.5,49C 15.6716,49 15,49.6716 15,50.5C 15,51.3284 15.6716,52 16.5,52C 17.3284,52 18,51.3284 18,50.5C 18,49.6716 17.3284,49 16.5,49 Z M 16.5,44C 15.6716,44 15,44.6716 15,45.5C 15,46.3284 15.6716,47 16.5,47C 17.3284,47 18,46.3284 18,45.5C 18,44.6716 17.3284,44 16.5,44 Z M 16.5,39C 15.6716,39 15,39.6716 15,40.5C 15,41.3284 15.6716,42 16.5,42C 17.3284,42 18,41.3284 18,40.5C 18,39.6716 17.3284,39 16.5,39 Z M 16.5,34C 15.6716,34 15,34.6716 15,35.5C 15,36.3284 15.6716,37 16.5,37C 17.3284,37 18,36.3284 18,35.5C 18,34.6716 17.3284,34 16.5,34 Z M 16.5,29C 15.6716,29 15,29.6716 15,30.5C 15,31.3284 15.6716,32 16.5,32C 17.3284,32 18,31.3284 18,30.5C 18,29.6716 17.3284,29 16.5,29 Z M 57,39L 57,30L 55,30L 55,39L 57,39 Z M 55,51L 57,51L 57,42L 55,42L 55,51 Z M 59.5,32C 60.3284,32 61,31.3284 61,30.5C 61,29.6716 60.3284,29 59.5,29C 58.6716,29 58,29.6716 58,30.5C 58,31.3284 58.6716,32 59.5,32 Z M 59.5,37C 60.3284,37 61,36.3284 61,35.5C 61,34.6716 60.3284,34 59.5,34C 58.6716,34 58,34.6716 58,35.5C 58,36.3284 58.6716,37 59.5,37 Z M 59.5,42C 60.3284,42 61,41.3284 61,40.5C 61,39.6716 60.3284,39 59.5,39C 58.6716,39 58,39.6716 58,40.5C 58,41.3284 58.6716,42 59.5,42 Z M 59.5,47C 60.3284,47 61,46.3284 61,45.5C 61,44.6716 60.3284,44 59.5,44C 58.6716,44 58,44.6716 58,45.5C 58,46.3284 58.6716,47 59.5,47 Z M 59.5,52C 60.3284,52 61,51.3284 61,50.5C 61,49.6716 60.3284,49 59.5,49C 58.6716,49 58,49.6716 58,50.5C 58,51.3284 58.6716,52 59.5,52 Z "/>
</svg>
