<?xml version="1.0" encoding="utf-8"?>
<!DOCTYPE svg PUBLIC "-//W3C//DTD SVG 1.1//EN" "http://www.w3.org/Graphics/SVG/1.1/DTD/svg11.dtd">
<svg xmlns="http://www.w3.org/2000/svg" xmlns:xlink="http://www.w3.org/1999/xlink" version="1.1" baseProfile="full" width="76" height="76" viewBox="0 0 76.00 76.00" enable-background="new 0 0 76.00 76.00" xml:space="preserve">
	<path fill="#000000" fill-opacity="1" stroke-width="0.2" stroke-linejoin="round" d="M 33.25,26.9167L 58.5833,26.9166L 58.5833,31.6667L 33.25,31.6667L 33.25,26.9167 Z M 36.4166,34.8334L 58.5833,34.8334L 58.5833,39.5833L 36.4166,39.5833L 36.4166,34.8334 Z M 33.25,42.75L 58.5833,42.75L 58.5833,47.5L 33.25,47.5L 33.25,42.75 Z M 25.3333,26.9167C 22.71,26.9167 20.5833,29.0433 20.5833,31.6667L 20.5833,45.9167C 20.5833,48.5401 22.71,50.6667 25.3333,50.6667L 26.9167,50.6667L 26.9167,45.9167L 34.0416,53.0417L 26.9167,60.1667L 26.9167,55.4167L 25.3333,55.4167C 20.0866,55.4167 15.8334,51.1634 15.8334,45.9167L 15.8333,31.6667C 15.8333,26.42 20.0866,22.1667 25.3333,22.1667L 26.9167,22.1667L 26.9167,26.9167L 25.3333,26.9167 Z "/>
</svg>
