<?xml version="1.0" encoding="utf-8"?>
<!DOCTYPE svg PUBLIC "-//W3C//DTD SVG 1.1//EN" "http://www.w3.org/Graphics/SVG/1.1/DTD/svg11.dtd">
<svg xmlns="http://www.w3.org/2000/svg" xmlns:xlink="http://www.w3.org/1999/xlink" version="1.1" baseProfile="full" width="76" height="76" viewBox="0 0 76.00 76.00" enable-background="new 0 0 76.00 76.00" xml:space="preserve">
	<path fill="#000000" fill-opacity="1" stroke-width="0.2" stroke-linejoin="round" d="M 14.25,52.25L 14.25,25.3334L 39.5833,25.3333L 39.5833,41.1667L 45.9166,41.1667L 45.9166,52.25L 14.25,52.25 Z M 42.75,44.3333L 17.4167,44.3333L 17.4167,49.0833L 42.75,49.0833L 42.75,44.3333 Z M 36.4166,41.1666L 36.4166,36.4167L 17.4167,36.4167L 17.4167,41.1667L 36.4166,41.1666 Z M 36.4166,33.25L 36.4166,28.5L 17.4167,28.5L 17.4167,33.25L 36.4166,33.25 Z M 49.0833,49.0833L 49.0833,44.3333L 52.25,44.3333L 52.25,32.8542L 45.9167,39.5833L 45.9167,31.6667L 54.625,22.9583L 63.3333,31.6667L 63.3333,39.5833L 57,32.8542L 57,49.0833L 49.0833,49.0833 Z "/>
</svg>
