<?xml version="1.0" encoding="utf-8"?>
<!DOCTYPE svg PUBLIC "-//W3C//DTD SVG 1.1//EN" "http://www.w3.org/Graphics/SVG/1.1/DTD/svg11.dtd">
<svg xmlns="http://www.w3.org/2000/svg" xmlns:xlink="http://www.w3.org/1999/xlink" version="1.1" baseProfile="full" width="76" height="76" viewBox="0 0 76.00 76.00" enable-background="new 0 0 76.00 76.00" xml:space="preserve">
	<path fill="#000000" fill-opacity="1" stroke-width="0.2" stroke-linejoin="round" d="M 17,20L 38,20L 38,57L 17,57L 17,20 Z M 21,24L 21,53L 34,53L 34,24L 21,24 Z M 41.1667,20.3334C 46.1574,20.3334 50.8246,22.6365 54,26L 54,17L 59,22L 59,35L 46,35L 41,30L 50,30C 47.8256,27.5706 44.6836,26.125 41.1667,26.125L 40,26.25L 40,20.5L 41.1667,20.3334 Z M 40,57L 40,53L 45,53L 45,57L 40,57 Z M 52,53L 52,57L 46,57L 46,53L 52,53 Z M 53,53L 59,53L 59,57L 53,57L 53,53 Z M 59,44L 55,44L 55,37L 59,37L 59,44 Z M 47,41L 47,37L 54,37L 54,41L 47,41 Z M 40,41L 40,37L 46,37L 46,41L 40,41 Z M 58.9999,45L 59,52L 54.9999,52L 54.9999,45L 58.9999,45 Z "/>
</svg>
