<?xml version="1.0" encoding="utf-8"?>
<!DOCTYPE svg PUBLIC "-//W3C//DTD SVG 1.1//EN" "http://www.w3.org/Graphics/SVG/1.1/DTD/svg11.dtd">
<svg xmlns="http://www.w3.org/2000/svg" xmlns:xlink="http://www.w3.org/1999/xlink" version="1.1" baseProfile="full" width="76" height="76" viewBox="0 0 76.00 76.00" enable-background="new 0 0 76.00 76.00" xml:space="preserve">
	<path fill="#000000" fill-opacity="1" stroke-width="0.2" stroke-linejoin="round" d="M 52.7514,25.076C 53.4111,25.7534 54.0258,26.4933 54.5953,27.296C 55.1649,28.0987 55.6564,28.9607 56.0698,29.8821C 56.4832,30.8035 56.8065,31.7766 57.0396,32.8014C 57.2727,33.8262 57.3892,34.8883 57.3892,35.9878C 57.3892,37.0566 57.276,38.1517 57.0495,39.2733C 56.823,40.3948 56.4491,41.5394 55.928,42.7071C 55.4068,43.8748 54.713,45.07 53.8465,46.2927C 52.9801,47.5154 51.9069,48.7601 50.6271,50.0267C 50.2137,50.4358 49.7431,50.902 49.2153,51.4253C 48.6875,51.9487 48.1278,52.5029 47.5363,53.0878C 46.9447,53.6728 46.34,54.2742 45.722,54.8922C 45.1041,55.5101 44.4983,56.1072 43.9045,56.6833C 42.5323,58.0424 41.1029,59.4586 39.6163,60.9319L 35.3545,56.6239C 36.8235,55.1638 38.2441,53.7542 39.6163,52.3951C 40.1969,51.819 40.7994,51.2252 41.424,50.6139C 42.0485,50.0025 42.6565,49.4011 43.2481,48.8095C 43.8396,48.218 44.3993,47.6605 44.9271,47.1371C 45.4549,46.6138 45.9255,46.1476 46.3389,45.7385C 48.0146,44.0584 49.2758,42.3904 50.1224,40.7345C 50.969,39.0786 51.3924,37.4678 51.3924,35.9021C 51.3924,34.719 51.1516,33.5777 50.67,32.4781C 50.1884,31.3786 49.4528,30.3406 48.4632,29.3642C 48.2169,29.1179 47.9112,28.8848 47.5462,28.6649C 47.1811,28.445 46.7688,28.2526 46.3092,28.0877C 45.8496,27.9227 45.3482,27.7886 44.805,27.6852C 44.2619,27.5819 43.6868,27.5302 43.0799,27.5302C 42.4641,27.5302 41.8198,27.5929 41.1469,27.7182C 40.474,27.8436 39.7933,28.0503 39.105,28.3384C 38.4167,28.6264 37.7218,29.0036 37.0203,29.4698C 36.3188,29.936 35.6316,30.5056 34.9587,31.1785L 30.466,35.6976L 37.4986,42.75L 19,42.75L 19,24.5417L 25.9931,31.4094L 30.5056,26.8705C 31.5083,25.7446 32.5463,24.8275 33.6194,24.1194C 34.6926,23.4113 35.7646,22.8616 36.8356,22.4701C 37.9065,22.0787 38.972,21.8148 40.0319,21.6785C 41.0919,21.5421 42.1079,21.474 43.0799,21.474C 44.087,21.474 45.0579,21.563 45.9925,21.7411C 46.9271,21.9193 47.8068,22.17 48.6314,22.4932C 49.4561,22.8165 50.2148,23.198 50.9075,23.6378C 51.6002,24.0777 52.2148,24.5571 52.7514,25.076 Z "/>
</svg>
