<?xml version="1.0" encoding="utf-8"?>
<!DOCTYPE svg PUBLIC "-//W3C//DTD SVG 1.1//EN" "http://www.w3.org/Graphics/SVG/1.1/DTD/svg11.dtd">
<svg xmlns="http://www.w3.org/2000/svg" xmlns:xlink="http://www.w3.org/1999/xlink" version="1.1" baseProfile="full" width="76" height="76" viewBox="0 0 76.00 76.00" enable-background="new 0 0 76.00 76.00" xml:space="preserve">
	<path fill="#000000" fill-opacity="1" stroke-width="0.2" stroke-linejoin="round" d="M 12.2495,36.8804L 36.8804,12.2496C 37.4987,11.6312 38.5012,11.6312 39.1196,12.2496L 63.7504,36.8804C 64.3688,37.4988 64.3688,38.5013 63.7504,39.1196L 39.1196,63.7505C 38.5013,64.3688 37.4987,64.3688 36.8804,63.7505L 12.2495,39.1196C 11.6312,38.5013 11.6312,37.4988 12.2495,36.8804 Z M 38,45.125C 36.0325,45.125 34.4375,46.72 34.4375,48.6875C 34.4375,50.655 36.0325,52.25 38,52.25C 39.9675,52.25 41.5625,50.655 41.5625,48.6875C 41.5625,46.72 39.9675,45.125 38,45.125 Z M 34.4375,23.75L 35.625,42.75L 40.375,42.75L 41.5625,23.75L 34.4375,23.75 Z "/>
</svg>
