<?xml version="1.0" encoding="utf-8"?>
<!DOCTYPE svg PUBLIC "-//W3C//DTD SVG 1.1//EN" "http://www.w3.org/Graphics/SVG/1.1/DTD/svg11.dtd">
<svg xmlns="http://www.w3.org/2000/svg" xmlns:xlink="http://www.w3.org/1999/xlink" version="1.1" baseProfile="full" width="76" height="76" viewBox="0 0 76.00 76.00" enable-background="new 0 0 76.00 76.00" xml:space="preserve">
	<path fill="#000000" fill-opacity="1" stroke-width="0.2" stroke-linejoin="round" d="M 38,33.1538C 40.6765,33.1538 42.8462,35.3235 42.8462,38C 42.8462,40.6765 40.6765,42.8461 38,42.8461C 35.3235,42.8461 33.1539,40.6765 33.1539,38C 33.1539,35.3235 35.3236,33.1538 38,33.1538 Z M 38,25.0769C 49.3077,25.0769 59,33.1539 59,38C 59,42.8461 49.3077,50.9231 38,50.9231C 26.6923,50.9231 17,42.8461 17,38C 17,33.1539 26.6923,25.0769 38,25.0769 Z M 38,29.1154C 33.0932,29.1154 29.1154,33.0932 29.1154,38C 29.1154,42.9068 33.0931,46.8846 38,46.8846C 42.9068,46.8846 46.8846,42.9068 46.8846,38C 46.8846,33.0932 42.9068,29.1154 38,29.1154 Z M 24.2466,48.925C 25.4702,49.5784 26.7791,50.1694 28.1555,50.6729L 14.7057,64.1228C 13.7101,63.2344 12.7656,62.2899 11.8772,61.2943L 24.2466,48.925 Z M 51.7534,27.0751C 50.5298,26.4216 49.2209,25.8307 47.8445,25.3271L 61.2943,11.8773C 62.2899,12.7657 63.2343,13.7101 64.1227,14.7057L 51.7534,27.0751 Z "/>
</svg>
