<?xml version="1.0" encoding="utf-8"?>
<!DOCTYPE svg PUBLIC "-//W3C//DTD SVG 1.1//EN" "http://www.w3.org/Graphics/SVG/1.1/DTD/svg11.dtd">
<svg xmlns="http://www.w3.org/2000/svg" xmlns:xlink="http://www.w3.org/1999/xlink" version="1.1" baseProfile="full" width="76" height="76" viewBox="0 0 76.00 76.00" enable-background="new 0 0 76.00 76.00" xml:space="preserve">
	<path fill="#000000" fill-opacity="1" stroke-width="0.2" stroke-linejoin="round" d="M 20,17L 44,17L 56,29L 56,45.1515C 57.8558,47.0453 59,49.639 59,52.5C 59,58.299 54.299,63 48.5,63C 45.1554,63 42.1761,61.4363 40.2532,59L 20,59L 20,17 Z M 24,21L 24,55L 38.2994,55C 38.1038,54.1988 38,53.3615 38,52.5C 38,46.701 42.701,42 48.5,42C 49.7272,42 50.9053,42.2106 52,42.5975L 52,34L 39,34L 39,21L 24,21 Z M 43,21L 43,30L 52,30L 43,21 Z M 44.9983,54.985C 44.9983,55.4583 45.0975,55.8917 45.2958,56.285C 45.4941,56.6783 45.7687,57.0154 46.1196,57.2962C 46.4704,57.5771 46.8896,57.7946 47.377,57.9487C 47.8646,58.1029 48.3975,58.18 48.9758,58.18C 49.5641,58.18 50.1016,58.1017 50.5883,57.945C 51.075,57.7883 51.4941,57.5683 51.8458,57.285C 52.1975,57.0017 52.4695,56.6633 52.662,56.27C 52.8545,55.8767 52.9508,55.44 52.9508,54.96C 52.9508,54.6433 52.9041,54.3379 52.8108,54.0437C 52.7175,53.7496 52.5771,53.4775 52.3896,53.2275C 52.2021,52.9775 51.9704,52.7546 51.6945,52.5587C 51.4187,52.3629 51.0983,52.2025 50.7333,52.0775C 51.3216,51.7958 51.7825,51.4379 52.1158,51.0037C 52.4491,50.5696 52.6158,50.0867 52.6158,49.555C 52.6158,49.1333 52.5271,48.7425 52.3495,48.3825C 52.1721,48.0225 51.9233,47.7112 51.6033,47.4487C 51.2833,47.1862 50.9021,46.9808 50.4595,46.8325C 50.017,46.6842 49.53,46.61 48.9983,46.61C 48.4783,46.61 47.9979,46.6842 47.5571,46.8325C 47.1162,46.9808 46.737,47.1879 46.4196,47.4537C 46.1021,47.7196 45.8537,48.0346 45.6745,48.3987C 45.4954,48.7629 45.4058,49.1583 45.4058,49.585C 45.4058,50.1217 45.5621,50.61 45.8746,51.05C 46.1871,51.49 46.6266,51.8508 47.1933,52.1325C 46.8233,52.2575 46.5016,52.4175 46.2283,52.6125C 45.955,52.8075 45.7271,53.0287 45.5446,53.2762C 45.362,53.5237 45.2254,53.7921 45.1346,54.0812C 45.0437,54.3704 44.9983,54.6717 44.9983,54.985 Z M 47.3333,54.7725C 47.3333,54.5342 47.375,54.3133 47.4583,54.11L 47.802,53.5825C 47.9479,53.4342 48.1225,53.3196 48.3258,53.2387C 48.5291,53.1579 48.7483,53.1175 48.9833,53.1175C 49.2333,53.1175 49.4583,53.1617 49.6583,53.25L 50.177,53.605C 50.3229,53.7533 50.435,53.9292 50.5133,54.1325L 50.6308,54.7725C 50.6308,55.0225 50.5891,55.2492 50.5058,55.4525C 50.4225,55.6558 50.3079,55.8279 50.162,55.9687L 49.6433,56.2975L 48.9833,56.415L 48.307,56.3012L 47.787,55.9762C 47.6412,55.8354 47.5291,55.6633 47.4508,55.46C 47.3725,55.2567 47.3333,55.0275 47.3333,54.7725 Z M 47.6783,49.8125L 47.7758,49.2537L 48.0495,48.8012L 48.472,48.4962L 49.0133,48.3825L 49.542,48.4925L 49.972,48.7937L 50.257,49.2462L 50.3583,49.8125L 50.252,50.3675L 49.9633,50.82L 49.5383,51.125L 49.0133,51.235L 48.4945,51.125L 48.0683,50.8237L 47.7833,50.3712L 47.6783,49.8125 Z "/>
</svg>
