<?xml version="1.0" encoding="utf-8"?>
<!DOCTYPE svg PUBLIC "-//W3C//DTD SVG 1.1//EN" "http://www.w3.org/Graphics/SVG/1.1/DTD/svg11.dtd">
<svg xmlns="http://www.w3.org/2000/svg" xmlns:xlink="http://www.w3.org/1999/xlink" version="1.1" baseProfile="full" width="76" height="76" viewBox="0 0 76.00 76.00" enable-background="new 0 0 76.00 76.00" xml:space="preserve">
	<path fill="#000000" fill-opacity="1" stroke-linejoin="round" d="M 34.2136,31.9503L 41.1826,21.8534C 42.4998,19.9512 44.2011,19 46.2861,19C 47.9872,19 49.4593,19.6037 50.7036,20.8107C 51.947,22.0181 52.5688,23.4632 52.5688,25.1458C 52.5688,26.3898 52.2402,27.4874 51.5814,28.4384L 45.2979,37.5749L 52.981,47.3152C 53.7489,48.2846 54.1329,49.4189 54.1329,50.7174C 54.1329,52.4368 53.5299,53.9134 52.3222,55.1482C 51.115,56.3833 49.6508,57 47.9323,57C 46.0479,57 44.6125,56.3879 43.6242,55.1619L 34.2136,43.4192L 34.2136,49.8945C 34.2136,51.7422 33.8935,53.1776 33.2534,54.202C 32.0826,56.0672 30.3815,57 28.1501,57C 26.1196,57 24.5463,56.3141 23.4308,54.9424C 22.3881,53.6802 21.8671,52.0062 21.8671,49.9216L 21.8671,25.914C 21.8671,23.9388 22.397,22.3111 23.4584,21.0305C 24.5739,19.6771 26.1103,19 28.0676,19C 29.9334,19 31.4881,19.6771 32.732,21.0305C 33.4266,21.7804 33.8659,22.5393 34.0485,23.3079C 34.1586,23.7836 34.2136,24.6702 34.2136,25.9691L 34.2136,31.9503 Z "/>
</svg>
