<?xml version="1.0" encoding="utf-8"?>
<!DOCTYPE svg PUBLIC "-//W3C//DTD SVG 1.1//EN" "http://www.w3.org/Graphics/SVG/1.1/DTD/svg11.dtd">
<svg xmlns="http://www.w3.org/2000/svg" xmlns:xlink="http://www.w3.org/1999/xlink" version="1.1" baseProfile="full" width="76" height="76" viewBox="0 0 76.00 76.00" enable-background="new 0 0 76.00 76.00" xml:space="preserve">
	<path fill="#000000" fill-opacity="1" stroke-width="0.2" stroke-linejoin="round" d="M 31.6667,25.3333L 61.75,25.3333L 61.75,50.6667L 31.6667,50.6667L 31.6667,25.3333 Z M 34.8333,28.5L 34.8333,47.5L 58.5833,47.5L 58.5833,28.5L 34.8333,28.5 Z M 38,45.9167L 41.1667,41.1667L 44.3333,44.3333L 52.25,36.4167L 55.4167,39.5833L 57,36.4167L 57,45.9167L 38,45.9167 Z M 42.75,31.6667C 42.75,34.2105 40.5438,36.4167 38,36.4167C 37.6024,36.4167 36.7847,36.5114 36.4167,36.4167L 36.4167,30.0833L 42.75,30.0833C 42.8447,30.4514 42.75,31.2691 42.75,31.6667 Z M 25.7292,37.9999L 17.8125,30.0832L 22.5625,30.0832L 30.4792,38L 22.5625,45.9166L 17.8125,45.9165L 25.7292,37.9999 Z M 12.6667,30.0833L 20.5833,38L 12.6667,45.9166L 12.6667,30.0833 Z "/>
</svg>
