<?xml version="1.0" encoding="utf-8"?>
<!DOCTYPE svg PUBLIC "-//W3C//DTD SVG 1.1//EN" "http://www.w3.org/Graphics/SVG/1.1/DTD/svg11.dtd">
<svg xmlns="http://www.w3.org/2000/svg" xmlns:xlink="http://www.w3.org/1999/xlink" version="1.1" baseProfile="full" width="76" height="76" viewBox="0 0 76.00 76.00" enable-background="new 0 0 76.00 76.00" xml:space="preserve">
	<path fill="#000000" fill-opacity="1" stroke-width="0.2" stroke-linejoin="round" d="M 17.4167,38L 19,38L 19,22.1667L 23.75,22.1667L 23.75,20.5833L 28.5,20.5833L 28.5,19L 46.7083,19L 57,29.2917L 57,38L 58.5833,38L 58.5833,57L 17.4167,57L 17.4167,38 Z M 23.75,38L 23.75,25.3333L 22.1667,25.3333L 22.1667,38L 23.75,38 Z M 26.9167,23.75L 26.9167,38L 28.5,38L 28.5,23.75L 26.9167,23.75 Z M 20.5833,41.1667L 20.5833,53.8333L 55.4166,53.8333L 55.4166,41.1667L 20.5833,41.1667 Z M 33.25,45.9167L 42.75,45.9167L 42.75,49.0833L 33.25,49.0833L 33.25,45.9167 Z M 53.8333,38L 53.8333,33.25L 42.75,33.25L 42.75,22.1667L 31.6667,22.1667L 31.6667,38L 53.8333,38 Z M 45.9167,22.9584L 45.9167,30.0834L 53.0416,30.0833L 45.9167,22.9584 Z "/>
</svg>
