<?xml version="1.0" encoding="utf-8"?>
<!DOCTYPE svg PUBLIC "-//W3C//DTD SVG 1.1//EN" "http://www.w3.org/Graphics/SVG/1.1/DTD/svg11.dtd">
<svg xmlns="http://www.w3.org/2000/svg" xmlns:xlink="http://www.w3.org/1999/xlink" version="1.1" baseProfile="full" width="76" height="76" viewBox="0 0 76.00 76.00" enable-background="new 0 0 76.00 76.00" xml:space="preserve">
	<path fill="#000000" fill-opacity="1" stroke-width="0.2" stroke-linejoin="round" d="M 38,19C 48.4934,19 57,27.5066 57,38C 57,48.4934 48.4934,57 38,57C 27.5066,57 19,48.4934 19,38C 19,27.5066 27.5066,19 38,19 Z M 38,23.75C 35.2116,23.75 32.6102,24.5509 30.4134,25.9352L 50.0648,45.5866C 51.4491,43.3898 52.25,40.7884 52.25,38C 52.25,30.13 45.87,23.75 38,23.75 Z M 23.75,38C 23.75,45.8701 30.1299,52.25 38,52.25C 40.7884,52.25 43.3897,51.4491 45.5865,50.0649L 25.9351,30.4136C 24.5509,32.6103 23.75,35.2117 23.75,38 Z "/>
</svg>
