<?xml version="1.0" encoding="utf-8"?>
<!DOCTYPE svg PUBLIC "-//W3C//DTD SVG 1.1//EN" "http://www.w3.org/Graphics/SVG/1.1/DTD/svg11.dtd">
<svg xmlns="http://www.w3.org/2000/svg" xmlns:xlink="http://www.w3.org/1999/xlink" version="1.1" baseProfile="full" width="76" height="76" viewBox="0 0 76.00 76.00" enable-background="new 0 0 76.00 76.00" xml:space="preserve">
	<path fill="#000000" fill-opacity="1" stroke-width="0.2" stroke-linejoin="round" d="M 15.8333,19L 22.1667,19L 22.1667,30.9032C 26.1899,28.1173 31.7973,26.3888 37.9996,26.3888C 50.242,26.3888 60.1663,33.1232 60.1663,41.4304C 60.1663,49.7377 50.242,56.4721 37.9996,56.4721C 25.7573,56.4721 15.833,49.7377 15.833,41.4304L 15.8363,41.1667L 15.8333,41.1667L 15.8333,19 Z M 38,30.0833C 29.2555,30.0833 22.1667,35.0455 22.1667,41.1667C 22.1667,47.2878 29.2555,52.25 38,52.25C 46.7445,52.25 53.8333,47.2878 53.8333,41.1667C 53.8333,35.0455 46.7445,30.0833 38,30.0833 Z "/>
</svg>
