<?xml version="1.0" encoding="utf-8"?>
<!DOCTYPE svg PUBLIC "-//W3C//DTD SVG 1.1//EN" "http://www.w3.org/Graphics/SVG/1.1/DTD/svg11.dtd">
<svg xmlns="http://www.w3.org/2000/svg" xmlns:xlink="http://www.w3.org/1999/xlink" version="1.1" baseProfile="full" width="76" height="76" viewBox="0 0 76.00 76.00" enable-background="new 0 0 76.00 76.00" xml:space="preserve">
	<path fill="#000000" fill-opacity="1" stroke-width="0.2" stroke-linejoin="round" d="M 25,27L 25,17L 51,17L 51,27L 47,27L 47,21L 29,21L 29,27L 25,27 Z M 16,28L 60,28L 60,51L 52,51L 52,46L 55,46L 55,33L 21,33L 21,46L 24,46L 24,51L 16,51L 16,28 Z M 25,39L 28,39L 28,52L 35,52L 35,59L 48,59L 48,39L 51,39L 51,62L 33,62L 25,54L 25,39 Z M 46,55L 38,55L 38,52L 46,52L 46,55 Z M 46,49L 30,49L 30,46L 46,46L 46,49 Z M 46,43L 30,43L 30,40L 46,40L 46,43 Z "/>
</svg>
