<?xml version="1.0" encoding="utf-8"?>
<!DOCTYPE svg PUBLIC "-//W3C//DTD SVG 1.1//EN" "http://www.w3.org/Graphics/SVG/1.1/DTD/svg11.dtd">
<svg xmlns="http://www.w3.org/2000/svg" xmlns:xlink="http://www.w3.org/1999/xlink" version="1.1" baseProfile="full" width="76" height="76" viewBox="0 0 76.00 76.00" enable-background="new 0 0 76.00 76.00" xml:space="preserve">
	<path fill="#000000" fill-opacity="1" stroke-width="0.2" stroke-linejoin="round" d="M 42.75,38L 53.8333,38L 53.8333,50.0069L 42.75,61.0903L 42.75,38 Z M 27.7083,22.1667L 38.7917,25.3333L 48.2917,19L 61.75,22.1667L 61.75,49.0833L 55.4167,47.5931L 55.4167,42.8431L 57,43.2157L 57,25.799L 49.0833,23.9363L 49.0833,36.4167L 47.5,36.4167L 47.5,24.2778L 39.5833,29.5556L 39.5833,46.9723L 41.1667,45.9167L 41.1667,50.6666L 38.7917,52.25L 27.7083,49.0833L 15.8333,53.8333L 15.8333,26.9167L 27.7083,22.1667 Z M 26.9167,44.65L 26.9167,27.2333L 20.5833,29.7667L 20.5833,47.1833L 26.9167,44.65 Z M 28.5,27.1429L 28.5,44.5595L 38,47.2738L 38,29.8572L 28.5,27.1429 Z "/>
</svg>
