<?xml version="1.0" encoding="utf-8"?>
<!DOCTYPE svg PUBLIC "-//W3C//DTD SVG 1.1//EN" "http://www.w3.org/Graphics/SVG/1.1/DTD/svg11.dtd">
<svg xmlns="http://www.w3.org/2000/svg" xmlns:xlink="http://www.w3.org/1999/xlink" version="1.1" baseProfile="full" width="76" height="76" viewBox="0 0 76.00 76.00" enable-background="new 0 0 76.00 76.00" xml:space="preserve">
	<path fill="#000000" fill-opacity="1" stroke-width="0.2" stroke-linejoin="round" d="M 63.3333,55.4167L 63.3333,41.1667L 61.75,41.1667L 61.75,39.5833L 58.5833,39.5833L 58.5833,41.1667L 57,41.1667L 57,44.3333L 53.8333,44.3333L 53.8333,34.8333L 49.0833,34.8333L 49.0833,22.1667L 47.5,22.1667L 47.5,20.5833L 47.5,15.8333L 45.9167,15.8333L 45.9167,20.5833L 42.75,20.5833L 42.75,15.8333L 41.1667,15.8333L 41.1667,20.5833L 41.1667,22.1667L 39.5833,22.1667L 39.5833,44.3333L 36.4167,44.3333L 36.4167,41.1667L 31.6667,41.1667L 31.6667,47.5L 28.5,47.5L 28.5,31.6667L 23.75,31.6667L 23.75,34.8333L 22.1667,34.8333L 22.1667,44.3333L 20.5833,44.3333L 20.5833,42.75L 17.4167,42.75L 17.4167,45.9167L 12.6667,45.9167L 12.6667,55.4167L 63.3333,55.4167 Z "/>
</svg>
