<?xml version="1.0" encoding="utf-8"?>
<!DOCTYPE svg PUBLIC "-//W3C//DTD SVG 1.1//EN" "http://www.w3.org/Graphics/SVG/1.1/DTD/svg11.dtd">
<svg xmlns="http://www.w3.org/2000/svg" xmlns:xlink="http://www.w3.org/1999/xlink" version="1.1" baseProfile="full" width="76" height="76" viewBox="0 0 76.00 76.00" enable-background="new 0 0 76.00 76.00" xml:space="preserve">
	<path fill="#000000" fill-opacity="1" stroke-linejoin="round" d="M 38,19C 39.6569,19 41,20.3431 41,22C 41,23.6569 39.6569,25 38,25C 36.3431,25 35,23.6569 35,22C 35,20.3431 36.3431,19 38,19 Z M 30,21C 31.6568,21 33,22.3432 33,24C 33,25.6569 31.6568,27 30,27C 28.3431,27 27,25.6569 27,24C 27,22.3432 28.3431,21 30,21 Z M 46,21C 47.6568,21 49,22.3432 49,24C 49,25.6569 47.6568,27 46,27C 44.3431,27 43,25.6569 43,24C 43,22.3432 44.3431,21 46,21 Z M 37.625,36C 33.625,32 34.625,30 34.625,30L 41.625,30C 41.625,33 37.625,36 37.625,36 Z M 41.625,56C 41.625,56 41.625,52 33.625,44C 25.625,36 24.625,34 23.625,28C 23.625,28 24.375,27 25.375,28C 26.375,29 28.625,29.75 30.625,29.75C 30.625,29.75 32.625,36 38.125,40C 38.125,40 45.375,32.5 45.375,29.5C 45.375,29.5 47.625,30 50.375,28C 50.375,28 52.2509,27.0078 52.375,28C 52.625,30 50.625,37 42.375,44C 42.375,44 47.625,50 47.125,56L 41.625,56 Z M 32.625,46L 36.875,50.75C 34.875,52.75 34.625,57 34.625,57L 28.625,57C 29.625,49 32.625,46 32.625,46 Z "/>
</svg>
