<?xml version="1.0" encoding="utf-8"?>
<!DOCTYPE svg PUBLIC "-//W3C//DTD SVG 1.1//EN" "http://www.w3.org/Graphics/SVG/1.1/DTD/svg11.dtd">
<svg xmlns="http://www.w3.org/2000/svg" xmlns:xlink="http://www.w3.org/1999/xlink" version="1.1" baseProfile="full" width="76" height="76" viewBox="0 0 76.00 76.00" enable-background="new 0 0 76.00 76.00" xml:space="preserve">
	<path fill="#000000" fill-opacity="1" stroke-width="0.2" stroke-linejoin="round" d="M 45.4403,40.9455L 57.6964,45.8649L 54.6964,51.0611L 44.3148,42.9121C 43.8343,43.529 43.2654,44.0736 42.627,44.5269L 46.6048,50.4303L 44.4397,51.6803L 41.3156,45.2827C 40.6339,45.5936 39.901,45.8115 39.133,45.9204L 41.0104,59.0625L 35.0104,59.0625L 36.8874,45.9233C 36.0949,45.813 35.3394,45.5866 34.6389,45.2618L 31.5112,51.6668L 29.3461,50.4168L 33.3337,44.4989C 32.7168,44.0551 32.1656,43.5257 31.6976,42.928L 21.2383,51.138L 18.2383,45.9419L 30.5772,40.9892C 30.2947,40.2885 30.1086,39.5387 30.0353,38.756L 23.0074,39.2441L 23.0074,36.7441L 30.0364,37.2322C 30.1108,36.4502 30.2979,35.701 30.5811,35.001L 18.3289,30.0831L 21.3289,24.887L 31.72,33.0435C 32.1877,32.4517 32.7373,31.9276 33.3516,31.4883L 29.4056,25.6322L 31.5707,24.3822L 34.668,30.7248C 35.3547,30.4098 36.0938,30.1891 36.8685,30.0794L 35,17L 41,17L 39.1315,30.0794C 39.8972,30.1878 40.6279,30.4046 41.3078,30.7137L 44.4177,24.3454L 46.5827,25.5954L 42.6238,31.4708C 43.2486,31.9141 43.807,32.4447 44.2812,33.045L 54.6905,24.8742L 57.6905,30.0703L 45.4171,34.9967C 45.5486,35.3211 45.6594,35.6561 45.748,36L 72.9438,36L 73,38L 72.9438,40L 45.748,40C 45.6647,40.3235 45.5617,40.6392 45.4403,40.9455 Z "/>
</svg>
