<?xml version="1.0" encoding="utf-8"?>
<!DOCTYPE svg PUBLIC "-//W3C//DTD SVG 1.1//EN" "http://www.w3.org/Graphics/SVG/1.1/DTD/svg11.dtd">
<svg xmlns="http://www.w3.org/2000/svg" xmlns:xlink="http://www.w3.org/1999/xlink" version="1.1" baseProfile="full" width="76" height="76" viewBox="0 0 76.00 76.00" enable-background="new 0 0 76.00 76.00" xml:space="preserve">
	<path fill="#000000" fill-opacity="1" stroke-width="0.2" stroke-linejoin="round" d="M 40.5306,38.6952C 40.5306,38.6952 37.2381,38.9669 35.9351,39.0308C 34.6321,39.0956 35.5919,38.4235 35.5919,38.4235L 40.5306,32.9185M 46.6334,38.6268C 45.3988,38.6952 44.3032,38.6952 44.3032,38.6952L 44.3019,28.0943C 44.3019,28.0943 43.959,25.2389 41.215,27.2103L 26.7467,44.2002C 26.7467,44.2002 25.787,45.6268 26.7467,45.8969C 26.7467,45.8969 27.7064,46.6461 28.5297,46.3051C 29.2154,45.6949 32.3006,41.5485 40.1878,40.6393C 40.1194,44.7436 40.2561,50.5191 40.2561,50.5191C 40.2561,50.5191 42.4504,52.8294 44.5759,50.5191C 44.5759,48.1532 44.5071,40.6199 44.5071,39.7141C 44.6591,39.7487 45.224,39.5627 46.7018,39.3772C 46.7018,39.3772 47.8688,39.0329 46.6334,38.6268 Z M 34.0491,50.4123C 35.7713,50.4123 37.0164,51.1524 37.9656,52.7386C 38.5787,53.7901 39.9766,55.5441 42.4893,55.5441C 43.7222,55.5441 45.1062,55.1297 46.6026,54.3141C 47.3035,53.7695 48.3628,52.57 48.4274,49.1477C 48.4566,48.8178 48.4663,48.3239 48.479,47.7095C 48.5647,43.7421 48.7673,40.4035 50.3105,39.8666C 50.6006,39.4663 51.0355,38.703 50.9346,38.0928C 50.9025,37.899 50.8058,37.6079 50.346,37.3288C 50.1151,37.1543 48.6972,35.9314 48.7698,32.0221C 48.8387,28.3503 48.9067,25.2249 48.9067,25.2249C 48.8974,25.0777 48.5921,20.3838 45.2114,20.3838C 43.7661,20.3838 41.9328,21.187 39.7596,22.7736L 23.7646,41.2632C 23.7747,41.2632 21.7467,44.5189 22.959,47.27C 23.7899,49.1588 25.9673,50.4453 29.4337,51.0943C 30.108,51.0419 30.8022,50.9001 31.4735,50.7644C 32.3247,50.5912 33.2038,50.4123 34.0491,50.4123 Z M 42.4893,56.9642L 42.4893,56.9642C 39.2572,56.9642 37.4923,54.7665 36.7289,53.4561C 35.8735,52.0266 34.8939,51.8324 34.0491,51.8324C 33.349,51.8324 32.578,51.9903 31.7606,52.1552C 31.0133,52.3061 30.2393,52.4649 29.4422,52.5189L 29.351,52.5238L 29.2627,52.5086C 25.2436,51.7713 22.6803,50.1971 21.642,47.8303C 20.1212,44.3593 22.5139,40.5783 22.6161,40.42L 38.8417,21.6789C 41.2944,19.8778 43.4384,18.9641 45.2114,18.9641C 49.0025,18.9641 50.2231,23.0449 50.3388,25.2026C 50.3401,25.2554 50.2717,28.3813 50.2033,32.0473C 50.1442,35.223 51.1714,36.1709 51.1812,36.1796C 51.7997,36.5453 52.2333,37.1527 52.3499,37.8701C 52.5914,39.3607 51.4037,40.8026 51.2677,40.9622L 51.0706,41.1923L 50.7674,41.2116C 50.2996,41.5069 49.9968,43.7091 49.912,47.74C 49.898,48.4018 49.8858,48.9308 49.8571,49.2277C 49.784,53.2079 48.4118,54.7166 47.385,55.4988C 45.5833,56.4912 43.9671,56.9642 42.4893,56.9642 Z "/>
</svg>
