<?xml version="1.0" encoding="utf-8"?>
<!DOCTYPE svg PUBLIC "-//W3C//DTD SVG 1.1//EN" "http://www.w3.org/Graphics/SVG/1.1/DTD/svg11.dtd">
<svg xmlns="http://www.w3.org/2000/svg" xmlns:xlink="http://www.w3.org/1999/xlink" version="1.1" baseProfile="full" width="76" height="76" viewBox="0 0 76.00 76.00" enable-background="new 0 0 76.00 76.00" xml:space="preserve">
	<path fill="#000000" fill-opacity="1" stroke-width="0.2" stroke-linejoin="round" d="M 57,22.1667C 49.0833,28.5 52.25,31.6667 50.6667,36.4167C 49.0833,41.1667 50.6667,42.75 44.3333,47.5C 36.2227,53.583 29.2917,49.875 29.2917,49.875C 27.7083,51.4583 21.7708,54.2292 21.7708,54.2292L 20.0143,50.7285C 26.3476,49.1452 27.7083,47.1042 27.7083,47.1042C 26.125,43.9375 23.75,38 28.5,30.0833C 33.25,22.1667 57,22.1667 57,22.1667 Z M 30.0833,44.3333L 31.6667,45.9167C 31.6667,45.9167 34.8333,44.3333 36.4167,39.5833C 38,34.8333 45.9167,26.9167 45.9167,26.9167C 42.75,28.5 36.4167,34.8333 34.8333,39.5833C 33.25,44.3333 30.0833,44.3333 30.0833,44.3333 Z "/>
</svg>
