<?xml version="1.0" encoding="utf-8"?>
<!DOCTYPE svg PUBLIC "-//W3C//DTD SVG 1.1//EN" "http://www.w3.org/Graphics/SVG/1.1/DTD/svg11.dtd">
<svg xmlns="http://www.w3.org/2000/svg" xmlns:xlink="http://www.w3.org/1999/xlink" version="1.1" baseProfile="full" width="76" height="76" viewBox="0 0 76.00 76.00" enable-background="new 0 0 76.00 76.00" xml:space="preserve">
	<path fill="#000000" fill-opacity="1" stroke-width="0.2" stroke-linejoin="round" d="M 36.4166,38.0001L 39.5833,38.0001L 39.5833,47.5L 44.3333,47.5C 45.2078,47.5 45.9166,48.2089 45.9166,49.0833L 45.9166,53.8333C 45.9166,54.7078 45.2078,55.4167 44.3333,55.4167L 31.6667,55.4167C 30.7922,55.4167 30.0833,54.7078 30.0833,53.8333L 30.0833,49.0833C 30.0833,48.2089 30.7922,47.5 31.6667,47.5L 36.4166,47.5L 36.4166,38.0001 Z M 47.5,49.0833L 57,49.0833L 57,53.8333L 47.5,53.8333L 47.5,49.0833 Z M 28.5,49.0833L 28.5,53.8333L 19,53.8333L 19,49.0833L 28.5,49.0833 Z M 22.1667,23.75L 53.8333,23.75C 56.4567,23.75 58.5833,25.8767 58.5833,28.5L 58.5833,34.8333L 17.4167,34.8333L 17.4167,28.5C 17.4167,25.8767 19.5433,23.75 22.1667,23.75 Z M 53.0417,25.3333C 51.73,25.3333 50.6667,26.3967 50.6667,27.7083C 50.6667,29.02 51.73,30.0833 53.0417,30.0833C 54.3533,30.0833 55.4167,29.02 55.4167,27.7083C 55.4167,26.3967 54.3533,25.3333 53.0417,25.3333 Z "/>
</svg>
