<?xml version="1.0" encoding="utf-8"?>
<!DOCTYPE svg PUBLIC "-//W3C//DTD SVG 1.1//EN" "http://www.w3.org/Graphics/SVG/1.1/DTD/svg11.dtd">
<svg xmlns="http://www.w3.org/2000/svg" xmlns:xlink="http://www.w3.org/1999/xlink" version="1.1" baseProfile="full" width="76" height="76" viewBox="0 0 76.00 76.00" enable-background="new 0 0 76.00 76.00" xml:space="preserve">
	<path fill="#000000" fill-opacity="1" stroke-width="0.2" stroke-linejoin="round" d="M 62.25,34L 35.75,34L 49,47.25L 62.25,34 Z M 28.9079,36L 28.1281,32.7344L 22.8358,32.7344L 21.9927,36L 16.25,36L 22.25,18L 28.75,18L 34.75,36L 28.9079,36 Z M 25.5433,22.1221L 25.4206,22.1221L 23.7502,28.9384L 27.1385,28.9384L 25.5433,22.1221 Z M 25,54L 33,54L 33,58L 19.006,58L 19.006,54.2515L 27,44L 19,44L 19,40L 33,40L 33,44L 25,54 Z "/>
</svg>
