<?xml version="1.0" encoding="utf-8"?>
<!DOCTYPE svg PUBLIC "-//W3C//DTD SVG 1.1//EN" "http://www.w3.org/Graphics/SVG/1.1/DTD/svg11.dtd">
<svg xmlns="http://www.w3.org/2000/svg" xmlns:xlink="http://www.w3.org/1999/xlink" version="1.1" baseProfile="full" width="76" height="76" viewBox="0 0 76.00 76.00" enable-background="new 0 0 76.00 76.00" xml:space="preserve">
	<path fill="#000000" fill-opacity="1" stroke-width="0.2" stroke-linejoin="round" d="M 49.0833,50.6667C 49.0833,55.0389 43.7667,58.5833 37.2083,58.5833C 30.65,58.5833 25.3333,55.0389 25.3333,50.6667C 25.3333,46.4646 30.2442,43.0271 36.4485,42.7659L 36.8125,42.75C 38.3958,42.75 38,41.1667 35.4409,37.8205C 31.4789,37.0038 28.1042,34.6831 28.1042,30.4792C 28.1042,25.9205 32.0028,20.9925 36.4638,20.6147L 36.4167,20.5833L 37.2083,20.5833L 49.0833,20.5833C 49.0833,20.5833 45.5137,22.3682 44.0692,23.9279C 45.9167,25.3333 47.1042,26.8726 47.1042,28.8958C 47.1042,32.4972 44.2842,35.4869 41.1667,36.8125C 40.1354,40.1411 44.3333,42.75 47.0636,46.2486C 48.3389,47.5105 49.0833,49.0306 49.0833,50.6667 Z M 36.4167,45.5208C 31.17,45.5208 30.0833,48.3978 30.0833,51.4584C 30.0833,53.8333 33.25,55.0208 37.2083,55.0208C 42.455,55.0208 45.5208,53.7273 45.5208,50.6667C 45.5208,47.6061 42.75,45.9167 36.4167,45.5208 Z M 36.4167,22.9584C 32.9188,22.9584 32.4583,25.7939 32.4583,29.2917C 32.4583,32.7895 34.1064,35.625 37.6042,35.625C 41.102,35.625 41.9583,32.7895 41.9583,29.2917C 41.9583,25.7939 39.9145,22.9584 36.4167,22.9584 Z "/>
</svg>
