<?xml version="1.0" encoding="utf-8"?>
<!DOCTYPE svg PUBLIC "-//W3C//DTD SVG 1.1//EN" "http://www.w3.org/Graphics/SVG/1.1/DTD/svg11.dtd">
<svg xmlns="http://www.w3.org/2000/svg" xmlns:xlink="http://www.w3.org/1999/xlink" version="1.1" baseProfile="full" width="76" height="76" viewBox="0 0 76.00 76.00" enable-background="new 0 0 76.00 76.00" xml:space="preserve">
	<path fill="#231F20" fill-opacity="1" fill-rule="evenodd" stroke-linejoin="round" d="M 47.0915,41.7457C 46.6242,41.4897 44.3263,40.25 43.8957,40.0748C 43.4651,39.8996 43.1507,39.8082 42.8157,40.2737C 42.4802,40.7372 41.527,41.7756 41.238,42.0831C 40.9479,42.3907 40.6689,42.4193 40.2016,42.1627C 39.7343,41.9073 38.2181,41.3462 36.4608,39.6566C 35.0925,38.3418 34.1953,36.7467 33.9349,36.2595C 33.6745,35.773 33.933,35.5244 34.1803,35.2964C 34.4028,35.0907 34.6775,34.7576 34.926,34.4886C 35.1739,34.2195 35.2616,34.0244 35.4318,33.7125C 35.6027,33.4005 35.5337,33.1196 35.4237,32.8773C 35.3131,32.6343 34.4488,30.2557 34.0878,29.2876C 33.7267,28.3201 33.3241,28.4636 33.0463,28.453C 32.7686,28.4425 32.4523,28.3909 32.1347,28.3791C 31.8172,28.3673 31.2971,28.4667 30.8429,28.9278C 30.3886,29.387 29.1154,30.4931 29.0278,32.8363C 28.9402,35.1789 30.5608,37.5073 30.787,37.8329C 31.0131,38.1597 33.8827,43.2383 38.6518,45.3274C 43.4216,47.4152 43.4458,46.7789 44.3214,46.7317C 45.1975,46.6857 47.1822,45.6853 47.6209,44.5886C 48.0596,43.4924 48.095,42.5386 47.9832,42.3354C 47.8713,42.1328 47.5582,42.0011 47.0915,41.7457 Z M 38.3449,53.0363C 35.1907,53.0363 32.2534,52.0899 29.8008,50.4687L 23.833,52.3789L 25.773,46.6124C 23.9138,44.0517 22.8158,40.9056 22.8158,37.5073C 22.8158,28.9433 29.7822,21.977 38.3449,21.977C 46.9082,21.977 53.8745,28.9433 53.8745,37.5073C 53.8745,46.0699 46.9082,53.0363 38.3449,53.0363 Z M 38.3449,18.852C 28.0423,18.852 19.6903,27.2041 19.6903,37.5073C 19.6903,41.0317 20.6689,44.3276 22.3672,47.14L 18.9999,57.148L 29.3286,53.8416C 32.0011,55.3193 35.0745,56.1619 38.3449,56.1619C 48.6474,56.1619 57.0001,47.8092 57.0001,37.5073C 57.0001,27.2041 48.6474,18.852 38.3449,18.852 Z "/>
</svg>
