<?xml version="1.0" encoding="utf-8"?>
<!DOCTYPE svg PUBLIC "-//W3C//DTD SVG 1.1//EN" "http://www.w3.org/Graphics/SVG/1.1/DTD/svg11.dtd">
<svg xmlns="http://www.w3.org/2000/svg" xmlns:xlink="http://www.w3.org/1999/xlink" version="1.1" baseProfile="full" width="76" height="76" viewBox="0 0 76.00 76.00" enable-background="new 0 0 76.00 76.00" xml:space="preserve">
	<path fill="#000000" fill-opacity="1" stroke-width="0.2" stroke-linejoin="round" d="M 38,33.25C 40.6234,33.25 42.75,35.3766 42.75,38C 42.75,40.6234 40.6234,42.75 38,42.75C 35.3766,42.75 33.25,40.6234 33.25,38C 33.25,35.3766 35.3767,33.25 38,33.25 Z M 38,22.1667C 41.5644,22.1667 44.8537,23.3445 47.5,25.3322L 47.5,28.5L 45.5208,30.4792L 43.8049,30.4792C 42.1995,29.2383 40.186,28.5 38,28.5C 33.3487,28.5 29.4781,31.8428 28.6596,36.2571L 26.9167,38L 17.4167,38L 17.4167,31.6667L 23.4842,31.6667C 25.9274,26.0746 31.5074,22.1667 38,22.1667 Z M 38,53.8334C 34.4356,53.8334 31.1462,52.6555 28.5,50.6679L 28.5,47.5L 30.4792,45.5208L 32.1951,45.5208C 33.8004,46.7617 35.814,47.5 37.9999,47.5C 42.6513,47.5 46.5219,44.1572 47.3404,39.7429L 49.0833,38.0001L 58.5833,38L 58.5833,44.3333L 52.5158,44.3333C 50.0726,49.9254 44.4926,53.8334 38,53.8334 Z "/>
</svg>
