<?xml version="1.0" encoding="utf-8"?>
<!DOCTYPE svg PUBLIC "-//W3C//DTD SVG 1.1//EN" "http://www.w3.org/Graphics/SVG/1.1/DTD/svg11.dtd">
<svg xmlns="http://www.w3.org/2000/svg" xmlns:xlink="http://www.w3.org/1999/xlink" version="1.1" baseProfile="full" width="76" height="76" viewBox="0 0 76.00 76.00" enable-background="new 0 0 76.00 76.00" xml:space="preserve">
	<path fill="#000000" fill-opacity="1" stroke-width="0.2" stroke-linejoin="round" d="M 15.8333,47.5L 26.9167,47.5L 26.9167,58.5833L 15.8333,58.5833L 15.8333,47.5 Z M 15.8333,34.8334L 26.9167,34.8334L 26.9167,45.9167L 15.8333,45.9167L 15.8333,34.8334 Z M 15.8333,22.1667L 26.9167,22.1667L 26.9167,33.25L 15.8333,33.25L 15.8333,22.1667 Z M 28.5,22.1667L 39.5833,22.1667L 39.5833,33.25L 28.5,33.25L 28.5,22.1667 Z M 28.5,34.8333L 39.5833,34.8333L 39.5833,45.9167L 28.5,45.9167L 28.5,34.8333 Z M 28.5,47.5L 39.5833,47.5L 39.5833,58.5833L 28.5,58.5833L 28.5,47.5 Z M 31.6666,50.6667L 31.6666,55.4167L 36.4166,55.4167L 36.4166,50.6667L 31.6666,50.6667 Z M 59.4776,56.364L 53.2062,58.7713L 41.6347,53.6193L 46.7867,42.0477L 53.058,39.6404L 49.4582,47.7279C 52.5625,46.7295 55.2449,44.4643 56.6756,41.2509C 58.6249,36.8727 57.7113,31.9457 54.7404,28.5684C 53.9123,28.0698 53.3583,27.1621 53.3583,26.125C 53.3583,24.551 54.6343,23.275 56.2083,23.275C 57.2061,23.275 58.084,23.7877 58.5932,24.564C 63.1936,29.5226 64.6641,36.9354 61.7389,43.5054C 59.7088,48.0651 55.9603,51.3231 51.5956,52.8562L 59.4776,56.364 Z "/>
</svg>
