<?xml version="1.0" encoding="utf-8"?>
<!DOCTYPE svg PUBLIC "-//W3C//DTD SVG 1.1//EN" "http://www.w3.org/Graphics/SVG/1.1/DTD/svg11.dtd">
<svg xmlns="http://www.w3.org/2000/svg" xmlns:xlink="http://www.w3.org/1999/xlink" version="1.1" baseProfile="full" width="76" height="76" viewBox="0 0 76.00 76.00" enable-background="new 0 0 76.00 76.00" xml:space="preserve">
	<path fill="#000000" fill-opacity="1" stroke-width="0.2" stroke-linejoin="round" d="M 19,24C 25.1212,24 30,28.8788 30,35L 30,46L 41,46C 47.1212,46 52,50.8788 52,57L 52,70.0877C 53.7455,69.325 55.4168,68.4241 57,67.3988L 57,50.6667C 56.996,48.2406 56.0685,45.8002 54.2175,43.9491L 32.0509,21.7825C 30.1998,19.9315 27.7594,19.004 25.3333,19L 8.60116,19C 7.57585,20.5832 6.67495,22.2545 5.91231,24L 19,24 Z M 31.6667,26.9167L 49.0833,44.3334C 46.9296,42.2223 43.8015,41 41,41L 35,41L 35,35C 35,32.1985 33.7777,29.0704 31.6667,26.9167 Z "/>
</svg>
