<?xml version="1.0" encoding="utf-8"?>
<!DOCTYPE svg PUBLIC "-//W3C//DTD SVG 1.1//EN" "http://www.w3.org/Graphics/SVG/1.1/DTD/svg11.dtd">
<svg xmlns="http://www.w3.org/2000/svg" xmlns:xlink="http://www.w3.org/1999/xlink" version="1.1" baseProfile="full" width="76" height="76" viewBox="0 0 76.00 76.00" enable-background="new 0 0 76.00 76.00" xml:space="preserve">
	<path fill="#000000" fill-opacity="1" stroke-width="0.2" stroke-linejoin="round" d="M 34.8333,14.25L 52.25,14.25L 52.25,58.5833L 49.0833,58.5833L 49.0833,17.4166L 38,17.4167L 38,19L 34.8333,19L 34.8333,14.25 Z M 34.0417,20.5834C 36.2278,20.5834 38,22.3556 38,24.5417C 38,26.4567 36.6401,28.0541 34.8333,28.4208L 35.2316,33.25L 44.3333,33.25L 44.3333,36.4167L 35.4283,36.4167L 35.625,39.5833L 46.7083,39.5833L 47.5,41.3615L 47.5,49.258L 44.6519,42.75L 31.6667,42.75L 31.6667,27.7086C 30.7052,26.9865 30.0833,25.8367 30.0833,24.5417C 30.0833,22.3556 31.8555,20.5834 34.0417,20.5834 Z M 34.8333,58.5833C 28.2749,58.5833 22.9583,53.2667 22.9583,46.7084C 22.9583,41.8388 25.8893,37.6539 30.0833,35.8215L 30.0833,39.4083C 27.7002,40.9621 26.125,43.6513 26.125,46.7083C 26.125,51.5178 30.0238,55.4167 34.8333,55.4167C 39.6428,55.4167 43.5416,51.5178 43.5416,46.7083L 43.5375,46.6171L 45.5437,51.8433C 43.6286,55.8306 39.5524,58.5833 34.8333,58.5833 Z "/>
</svg>
