<?xml version="1.0" encoding="utf-8"?>
<!DOCTYPE svg PUBLIC "-//W3C//DTD SVG 1.1//EN" "http://www.w3.org/Graphics/SVG/1.1/DTD/svg11.dtd">
<svg xmlns="http://www.w3.org/2000/svg" xmlns:xlink="http://www.w3.org/1999/xlink" version="1.1" baseProfile="full" width="76" height="76" viewBox="0 0 76.00 76.00" enable-background="new 0 0 76.00 76.00" xml:space="preserve">
	<path fill="#000000" fill-opacity="1" stroke-width="0.2" stroke-linejoin="round" d="M 31.4167,21L 25.0833,21C 28.25,17.8333 37.75,19.4167 37.75,19.4167C 44.0833,14.6667 47.25,17.8333 47.25,17.8333C 45.6667,17.8333 42.5,19.4167 42.5,19.4167C 55.1667,19.4167 56.75,22.5833 56.75,22.5833C 48.8333,21 42.5,22.5833 42.5,22.5833C 52,27.3333 53.5833,33.6667 53.5833,33.6667C 47.5221,27.6054 42.389,26.1849 40.3159,25.8519C 43.7479,40.8315 43.7077,44.9827 42.8958,55.8333C 49.2292,55.8333 52,59 52,59L 28.25,59C 28.25,59 32.6042,55.8333 37.3542,55.8333C 37.3542,55.8333 41.0088,43.8474 38.0526,28.846C 36.1667,34.3961 36.1667,40 36.1667,40C 33,36.8333 34.5833,27.3333 34.5833,27.3333C 31.4167,27.3333 23.5,33.6667 23.5,33.6667C 23.5,28.9167 31.4167,24.1667 31.4167,24.1667C 21.9167,25.75 18.75,28.9167 18.75,28.9167C 21.9167,22.5833 31.4167,21 31.4167,21 Z "/>
</svg>
