<?xml version="1.0" encoding="utf-8"?>
<!DOCTYPE svg PUBLIC "-//W3C//DTD SVG 1.1//EN" "http://www.w3.org/Graphics/SVG/1.1/DTD/svg11.dtd">
<svg xmlns="http://www.w3.org/2000/svg" xmlns:xlink="http://www.w3.org/1999/xlink" version="1.1" baseProfile="full" width="76" height="76" viewBox="0 0 76.00 76.00" enable-background="new 0 0 76.00 76.00" xml:space="preserve">
	<path fill="#000000" fill-opacity="1" stroke-width="0.2" stroke-linejoin="round" d="M 19,19L 22,19L 22,22L 19,22L 19,19 Z M 22,28L 19,28L 19,25L 22,25L 22,28 Z M 22,34L 19,34L 19,31L 22,31L 22,34 Z M 22.9999,37.0001L 22.9999,39.0001L 19,39L 19,37L 22.9999,37.0001 Z M 39,19.0001L 39,23.0001L 37,23.0001L 37,19.0001L 39,19.0001 Z M 31,22L 31,19.0001L 34,19.0001L 34,22L 31,22 Z M 25,22.0001L 25,19.0001L 28,19.0001L 28,22L 25,22.0001 Z M 56.9999,19.0001L 57,22L 54,22L 53.9999,19.0001L 56.9999,19.0001 Z M 57,28L 54,28L 54,25L 57,25L 57,28 Z M 57,34L 54,34L 54,31L 57,31L 57,34 Z M 56.9999,57L 19,57L 19,54L 36.9999,54.0001L 37,53L 39,53L 38.9999,54.0001L 57,54L 56.9999,57 Z M 52.9999,39.0001L 52.9999,37.0001L 57,37L 57,39L 52.9999,39.0001 Z M 57,45L 54,45L 54,42L 57,42L 57,45 Z M 57,51L 54,51L 54,48L 57,48L 57,51 Z M 47.9999,22.0001L 47.9999,19.0001L 50.9999,19.0001L 50.9999,22.0001L 47.9999,22.0001 Z M 42,22.0001L 42,19.0001L 44.9999,19.0001L 44.9999,22.0001L 42,22.0001 Z M 21.9999,45L 19,45L 19,42L 21.9999,42L 21.9999,45 Z M 22,51L 19,51L 19,48L 21.9999,48L 22,51 Z M 36.9999,37.0001L 38.9999,37.0001L 39,39L 36.9999,39.0001L 36.9999,37.0001 Z M 39,43L 37,43L 37,41L 39,41L 39,43 Z M 38.9999,47L 37,47L 37,45L 39,45L 38.9999,47 Z M 38.9999,51.0001L 36.9999,51.0001L 37,49L 38.9999,49L 38.9999,51.0001 Z M 38.9999,27.0001L 36.9999,27.0001L 36.9999,25.0001L 38.9999,25.0001L 38.9999,27.0001 Z M 38.9999,31.0001L 36.9999,31.0001L 36.9999,29.0001L 38.9999,29.0001L 38.9999,31.0001 Z M 38.9999,35.0001L 36.9999,35.0001L 36.9999,33.0001L 38.9999,33.0001L 38.9999,35.0001 Z M 26.9999,37.0001L 26.9999,39.0001L 24.9999,39.0001L 24.9999,37.0001L 26.9999,37.0001 Z M 30.9999,37.0001L 30.9999,39.0001L 28.9999,39.0001L 28.9999,37.0001L 30.9999,37.0001 Z M 34.9999,37.0001L 34.9999,39.0001L 32.9999,39.0001L 32.9999,37.0001L 34.9999,37.0001 Z M 48.9998,39.0001L 48.9998,37.0001L 50.9999,37.0001L 50.9999,39.0001L 48.9998,39.0001 Z M 42.9999,37.0001L 42.9999,39.0001L 40.9999,39.0001L 40.9999,37.0001L 42.9999,37.0001 Z M 46.9998,37.0001L 46.9998,39.0001L 44.9999,39.0001L 44.9999,37.0001L 46.9998,37.0001 Z "/>
</svg>
