<?xml version="1.0" encoding="utf-8"?>
<!DOCTYPE svg PUBLIC "-//W3C//DTD SVG 1.1//EN" "http://www.w3.org/Graphics/SVG/1.1/DTD/svg11.dtd">
<svg xmlns="http://www.w3.org/2000/svg" xmlns:xlink="http://www.w3.org/1999/xlink" version="1.1" baseProfile="full" width="76" height="76" viewBox="0 0 76.00 76.00" enable-background="new 0 0 76.00 76.00" xml:space="preserve">
	<path fill="#000000" fill-opacity="1" stroke-width="0.2" stroke-linejoin="round" d="M 42.0312,45.0313C 42.0312,47.2404 40.2404,49.0313 38.0313,49.0313C 35.8221,49.0313 34.0313,47.2404 34.0313,45.0313C 34.0313,44.2778 34.2396,43.5731 34.6017,42.9714L 38.0313,37.0312L 41.4609,42.9715C 41.823,43.5731 42.0312,44.2779 42.0312,45.0313 Z M 38,23C 49.0457,23 58,31.9543 58,43L 58,46L 48,46L 48,43C 48,37.4772 43.5228,33 38,33C 32.4771,33 28,37.4772 28,43L 28,46L 18,46L 18,43C 18,31.9543 26.9543,23 38,23 Z M 55,43C 55,38.6711 53.3819,34.7201 50.7177,31.7188L 47.8827,34.5538C 49.8262,36.8258 51,39.7758 51,43L 55,43 Z M 26.7159,30.2849L 29.5508,33.1198C 31.5805,31.3825 34.1519,30.2597 36.9766,30.0397L 36.9766,26.0303C 33.0485,26.2636 29.4794,27.8306 26.7159,30.2849 Z M 46.4702,33.1379L 49.3048,30.3033C 46.5275,27.8287 42.933,26.2517 38.9766,26.0276L 38.9766,30.0362C 41.8295,30.2481 44.4261,31.3807 46.4702,33.1379 Z M 21,43L 25,43C 25,39.7658 26.181,36.8075 28.1353,34.5328L 25.3007,31.6981C 22.6255,34.7019 21,38.6612 21,43 Z "/>
</svg>
